<svg xmlns="http://www.w3.org/2000/svg" xmlns:xlink="http://www.w3.org/1999/xlink" width="236.84" height="129.031" viewBox="0 0 236.84 129.031"><defs><style>.a{fill:#ffef41;}.b{clip-path:url(#a);}</style><clipPath id="a"><rect class="a" width="236.84" height="129.031"/></clipPath></defs><g class="b"><path class="a" d="M.3,306.155a.521.521,0,1,0-.248-.692.524.524,0,0,0,.248.692" transform="translate(0 -184.894)"/><path class="a" d="M32.137,321.453a1.161,1.161,0,1,0-.552-1.548,1.161,1.161,0,0,0,.552,1.548" transform="translate(-19.069 -193.423)"/><path class="a" d="M16.16,273.108a.441.441,0,0,0,.378-.8.441.441,0,0,0-.378.8" transform="translate(-9.638 -164.964)"/><path class="a" d="M47.922,288.377a1.121,1.121,0,1,0-.531-1.494,1.121,1.121,0,0,0,.531,1.494" transform="translate(-28.647 -173.429)"/><path class="a" d="M79.526,303.595a1.882,1.882,0,1,0-.893-2.507,1.879,1.879,0,0,0,.893,2.507" transform="translate(-47.531 -181.773)"/><path class="a" d="M111.051,318.789a2.683,2.683,0,1,0-1.275-3.572,2.683,2.683,0,0,0,1.275,3.572" transform="translate(-66.355 -190.054)"/><path class="a" d="M31.94,240.035a.4.4,0,0,0,.532-.191.4.4,0,0,0-.19-.532.4.4,0,1,0-.342.722" transform="translate(-19.212 -144.972)"/><path class="a" d="M63.856,255.354a1,1,0,1,0-.474-1.334,1.005,1.005,0,0,0,.474,1.334" transform="translate(-38.343 -153.559)"/><path class="a" d="M95.463,270.571a1.763,1.763,0,1,0-.834-2.346,1.763,1.763,0,0,0,.834,2.346" transform="translate(-57.23 -161.903)"/><path class="a" d="M127.068,285.791a2.521,2.521,0,1,0-1.2-3.357,2.517,2.517,0,0,0,1.2,3.357" transform="translate(-76.114 -170.247)"/><path class="a" d="M158.435,300.938a3.4,3.4,0,1,0-1.614-4.534,3.408,3.408,0,0,0,1.614,4.534" transform="translate(-94.816 -178.408)"/><path class="a" d="M189.021,315.6h5.236a4.281,4.281,0,1,0-5.236,0" transform="translate(-113.517 -186.565)"/><path class="a" d="M229.024,323.819a5.11,5.11,0,0,0-8.572,0Z" transform="translate(-133.568 -194.787)"/><path class="a" d="M541.07,316.751h14.081a7.041,7.041,0,0,0-14.081,0" transform="translate(-327.825 -187.72)"/><path class="a" d="M590.448,326.389a6.95,6.95,0,0,0-5.885,0Z" transform="translate(-354.177 -197.357)"/><path class="a" d="M391.137,318.007a7.557,7.557,0,0,0-14.835,0Z" transform="translate(-227.995 -188.975)"/><path class="a" d="M420.511,298.095h14.232c.122-.113.246-.222.361-.344-.017.115-.022.229-.035.344h15.44a7.758,7.758,0,0,0-3.571-5.765,6.807,6.807,0,1,0-1.7-.8,7.771,7.771,0,0,0-8.2,2.133,7.366,7.366,0,1,0-12.865,3.87,8.29,8.29,0,0,0-3.67.566" transform="translate(-254.781 -169.063)"/><path class="a" d="M505.6,306.42a8.018,8.018,0,0,0-5.381.88h13.6a7,7,0,1,0-8.215-.88" transform="translate(-303.074 -178.269)"/><path class="a" d="M47.8,206.982a.32.32,0,1,0-.153-.426.322.322,0,0,0,.153.426" transform="translate(-28.85 -125.037)"/><path class="a" d="M79.719,222.3a.921.921,0,1,0-.436-1.227.922.922,0,0,0,.436,1.227" transform="translate(-47.982 -133.628)"/><path class="a" d="M111.559,237.6a1.562,1.562,0,1,0-.741-2.081,1.562,1.562,0,0,0,.741,2.081" transform="translate(-67.052 -142.156)"/><path class="a" d="M143.165,252.82a2.322,2.322,0,1,0-1.1-3.094,2.32,2.32,0,0,0,1.1,3.094" transform="translate(-85.937 -150.501)"/><path class="a" d="M174.611,267.989a3.163,3.163,0,1,0-1.5-4.214,3.167,3.167,0,0,0,1.5,4.214" transform="translate(-104.698 -158.722)"/><path class="a" d="M206.059,283.155a4,4,0,1,0-1.9-5.334,4,4,0,0,0,1.9,5.334" transform="translate(-123.46 -166.94)"/><path class="a" d="M235.2,291.868a4.845,4.845,0,1,0,6.456-2.3,4.845,4.845,0,0,0-6.456,2.3" transform="translate(-142.222 -175.16)"/><path class="a" d="M275.361,312.354a5.724,5.724,0,1,0-8.063,0Z" transform="translate(-160.925 -183.322)"/><path class="a" d="M309.871,320.511a6.6,6.6,0,0,0-12.217-.7,6.756,6.756,0,0,0-.282.7Z" transform="translate(-180.173 -191.48)"/><path class="a" d="M63.815,173.984a.162.162,0,0,0,.215-.075.161.161,0,0,0-.29-.137.157.157,0,0,0,.076.212" transform="translate(-38.609 -105.23)"/><path class="a" d="M95.814,189.334a.721.721,0,1,0-.34-.962.722.722,0,0,0,.34.962" transform="translate(-57.804 -113.883)"/><path class="a" d="M127.654,204.627a1.361,1.361,0,1,0-.646-1.814,1.361,1.361,0,0,0,.646,1.814" transform="translate(-76.872 -122.411)"/><path class="a" d="M159.335,219.872a2.081,2.081,0,1,0-.989-2.776,2.086,2.086,0,0,0,.989,2.776" transform="translate(-95.817 -130.816)"/><path class="a" d="M190.942,235.092a2.842,2.842,0,1,0-1.351-3.787,2.845,2.845,0,0,0,1.351,3.787" transform="translate(-114.704 -139.159)"/><path class="a" d="M222.467,250.284a3.644,3.644,0,1,0-1.73-4.853,3.643,3.643,0,0,0,1.73,4.853" transform="translate(-133.527 -147.44)"/><path class="a" d="M257.759,257.352a4.484,4.484,0,1,0,2.128,5.97,4.48,4.48,0,0,0-2.128-5.97" transform="translate(-152.289 -155.661)"/><path class="a" d="M282.933,273.607a5.285,5.285,0,1,0,7.037-2.51,5.287,5.287,0,0,0-7.037,2.51" transform="translate(-171.115 -163.944)"/><path class="a" d="M314.075,287.735a6.085,6.085,0,1,0,8.108-2.89,6.086,6.086,0,0,0-8.108,2.89" transform="translate(-189.936 -172.226)"/><path class="a" d="M356.454,309.6a6.846,6.846,0,1,0-9.9,0Z" transform="translate(-208.823 -180.57)"/><path class="a" d="M111.911,156.356a.521.521,0,1,0-.246-.693.524.524,0,0,0,.246.693" transform="translate(-67.625 -94.133)"/><path class="a" d="M143.826,171.678a1.121,1.121,0,1,0-.533-1.493,1.122,1.122,0,0,0,.533,1.493" transform="translate(-86.754 -102.724)"/><path class="a" d="M175.669,186.973a1.761,1.761,0,1,0-.839-2.348,1.762,1.762,0,0,0,.839,2.348" transform="translate(-105.824 -111.252)"/><path class="a" d="M207.352,202.22a2.482,2.482,0,1,0-1.179-3.306,2.482,2.482,0,0,0,1.179,3.306" transform="translate(-124.771 -119.658)"/><path class="a" d="M238.959,217.439a3.243,3.243,0,1,0-1.54-4.321,3.244,3.244,0,0,0,1.54,4.321" transform="translate(-143.658 -128.002)"/><path class="a" d="M270.562,232.656a4,4,0,1,0-1.9-5.333,4,4,0,0,0,1.9,5.333" transform="translate(-162.541 -136.345)"/><path class="a" d="M306.3,239.368a4.724,4.724,0,1,0,2.243,6.294,4.722,4.722,0,0,0-2.243-6.294" transform="translate(-181.491 -144.752)"/><path class="a" d="M331.244,255.815a5.485,5.485,0,1,0,7.306-2.6,5.488,5.488,0,0,0-7.306,2.6" transform="translate(-200.373 -153.096)"/><path class="a" d="M362.681,270.18a6.166,6.166,0,1,0,8.214-2.929,6.165,6.165,0,0,0-8.214,2.929" transform="translate(-219.381 -161.562)"/><path class="a" d="M394.218,284.622a6.807,6.807,0,1,0,9.067-3.231,6.807,6.807,0,0,0-9.067,3.231" transform="translate(-238.451 -170.091)"/><path class="a" d="M128.162,123.434a.239.239,0,1,0,.206-.431.239.239,0,1,0-.206.431" transform="translate(-77.567 -74.511)"/><path class="a" d="M160.161,138.782a.8.8,0,1,0-.38-1.068.8.8,0,0,0,.38,1.068" transform="translate(-96.762 -83.162)"/><path class="a" d="M192,154.077a1.442,1.442,0,1,0-.682-1.92,1.443,1.443,0,0,0,.682,1.92" transform="translate(-115.834 -91.69)"/><path class="a" d="M223.841,169.372a2.081,2.081,0,1,0-.991-2.774,2.08,2.08,0,0,0,.991,2.774" transform="translate(-134.899 -100.219)"/><path class="a" d="M255.526,184.617a2.8,2.8,0,1,0-1.335-3.733,2.8,2.8,0,0,0,1.335,3.733" transform="translate(-153.846 -108.623)"/><path class="a" d="M287.367,199.915a3.443,3.443,0,1,0-1.634-4.586,3.442,3.442,0,0,0,1.634,4.586" transform="translate(-172.919 -117.154)"/><path class="a" d="M319.048,215.159a4.165,4.165,0,1,0-1.978-5.548,4.164,4.164,0,0,0,1.978,5.548" transform="translate(-191.863 -125.557)"/><path class="a" d="M354.963,221.675a4.844,4.844,0,1,0,2.3,6.452,4.843,4.843,0,0,0-2.3-6.452" transform="translate(-210.871 -134.024)"/><path class="a" d="M387.4,235.908a5.446,5.446,0,1,0,2.583,7.253,5.445,5.445,0,0,0-2.583-7.253" transform="translate(-230.002 -142.613)"/><path class="a" d="M411.875,253.095a6.006,6.006,0,1,0,8-2.851,6.007,6.007,0,0,0-8,2.851" transform="translate(-249.196 -151.266)"/><path class="a" d="M443.9,267.931a6.446,6.446,0,1,0,8.588-3.061,6.446,6.446,0,0,0-8.588,3.061" transform="translate(-268.574 -160.102)"/><path class="a" d="M144.311,90.443a.04.04,0,1,0-.074-.032.039.039,0,0,0,.02.05.041.041,0,0,0,.054-.018" transform="translate(-87.389 -54.763)"/><path class="a" d="M176.413,105.861a.52.52,0,1,0-.247-.693.521.521,0,0,0,.247.693" transform="translate(-106.705 -63.539)"/><path class="a" d="M208.413,121.206a1.081,1.081,0,1,0-.512-1.442,1.082,1.082,0,0,0,.512,1.442" transform="translate(-125.9 -72.189)"/><path class="a" d="M240.33,136.525a1.681,1.681,0,1,0-.8-2.237,1.682,1.682,0,0,0,.8,2.237" transform="translate(-145.03 -80.779)"/><path class="a" d="M272.253,151.844a2.282,2.282,0,1,0-1.086-3.039,2.281,2.281,0,0,0,1.086,3.039" transform="translate(-164.162 -89.367)"/><path class="a" d="M304.17,167.168a2.881,2.881,0,1,0-1.37-3.839,2.882,2.882,0,0,0,1.37,3.839" transform="translate(-183.292 -97.961)"/><path class="a" d="M336.01,182.464a3.522,3.522,0,1,0-1.673-4.692,3.522,3.522,0,0,0,1.673,4.692" transform="translate(-202.362 -106.489)"/><path class="a" d="M367.93,197.785a4.124,4.124,0,1,0-1.956-5.492,4.122,4.122,0,0,0,1.956,5.492" transform="translate(-221.495 -115.077)"/><path class="a" d="M399.925,213.132a4.684,4.684,0,1,0-2.224-6.242,4.685,4.685,0,0,0,2.224,6.242" transform="translate(-240.686 -123.731)"/><path class="a" d="M436.553,219.294a5.124,5.124,0,1,0,2.433,6.825,5.123,5.123,0,0,0-2.433-6.825" transform="translate(-260.063 -132.566)"/><path class="a" d="M461.853,236.641a5.525,5.525,0,1,0,7.359-2.622,5.524,5.524,0,0,0-7.359,2.622" transform="translate(-279.504 -141.464)"/><path class="a" d="M494.167,251.716a5.845,5.845,0,1,0,7.788-2.775,5.846,5.846,0,0,0-7.788,2.775" transform="translate(-299.065 -150.486)"/><path class="a" d="M526.78,267.021a6.046,6.046,0,1,0,8.053-2.872,6.048,6.048,0,0,0-8.053,2.872" transform="translate(-318.813 -159.689)"/><path class="a" d="M559.782,282.646a6.086,6.086,0,1,0,8.1-2.892,6.085,6.085,0,0,0-8.1,2.892" transform="translate(-338.806 -169.142)"/><path class="a" d="M595.827,307.43V296.693a6,6,0,0,0,0,10.737" transform="translate(-358.987 -179.761)"/><path class="a" d="M192.745,72.961a.2.2,0,1,0,.172-.361.2.2,0,0,0-.172.361" transform="translate(-116.712 -43.975)"/><path class="a" d="M224.98,88.387a.64.64,0,1,0-.309-.854.64.64,0,0,0,.309.854" transform="translate(-136.088 -52.813)"/><path class="a" d="M256.977,103.731a1.2,1.2,0,1,0-.572-1.6,1.206,1.206,0,0,0,.572,1.6" transform="translate(-155.281 -61.462)"/><path class="a" d="M288.974,119.078a1.762,1.762,0,1,0-.837-2.346,1.758,1.758,0,0,0,.837,2.346" transform="translate(-174.475 -70.115)"/><path class="a" d="M320.973,134.423a2.322,2.322,0,1,0-1.1-3.093,2.324,2.324,0,0,0,1.1,3.093" transform="translate(-193.668 -78.766)"/><path class="a" d="M352.971,149.769a2.882,2.882,0,1,0-1.368-3.84,2.884,2.884,0,0,0,1.368,3.84" transform="translate(-212.861 -87.418)"/><path class="a" d="M385.047,165.143a3.4,3.4,0,1,0-1.617-4.533,3.4,3.4,0,0,0,1.617,4.533" transform="translate(-232.115 -96.132)"/><path class="a" d="M417.127,180.514a3.924,3.924,0,1,0-1.864-5.228,3.924,3.924,0,0,0,1.864,5.228" transform="translate(-251.371 -104.844)"/><path class="a" d="M449.438,195.962a4.323,4.323,0,1,0-2.056-5.758,4.322,4.322,0,0,0,2.056,5.758" transform="translate(-270.809 -113.743)"/><path class="a" d="M485.847,202.97a4.685,4.685,0,1,0,2.224,6.243,4.688,4.688,0,0,0-2.224-6.243" transform="translate(-290.311 -122.702)"/><path class="a" d="M518.679,218.088a4.925,4.925,0,1,0,2.339,6.56,4.926,4.926,0,0,0-2.339-6.56" transform="translate(-309.995 -131.848)"/><path class="a" d="M551.6,233.4a5.085,5.085,0,1,0,2.412,6.773A5.086,5.086,0,0,0,551.6,233.4" transform="translate(-329.803 -141.115)"/><path class="a" d="M580.264,258.262a5.127,5.127,0,0,0,6.373-1.666v-5.929a5.124,5.124,0,1,0-6.373,7.6" transform="translate(-349.797 -150.565)"/><path class="a" d="M241.312,55.488a.321.321,0,1,0-.152-.427.321.321,0,0,0,.152.427" transform="translate(-146.096 -33.25)"/><path class="a" d="M273.547,70.909a.76.76,0,1,0-.36-1.011.757.757,0,0,0,.36,1.011" transform="translate(-165.474 -42.086)"/><path class="a" d="M305.779,86.332a1.2,1.2,0,1,0-.571-1.6,1.2,1.2,0,0,0,.571,1.6" transform="translate(-184.85 -50.922)"/><path class="a" d="M337.857,101.7a1.721,1.721,0,1,0-.818-2.292,1.719,1.719,0,0,0,.818,2.292" transform="translate(-204.105 -59.635)"/><path class="a" d="M369.93,117.076a2.242,2.242,0,1,0-1.066-2.985,2.241,2.241,0,0,0,1.066,2.985" transform="translate(-223.358 -68.349)"/><path class="a" d="M402.168,132.5a2.683,2.683,0,1,0-1.276-3.573,2.681,2.681,0,0,0,1.276,3.573" transform="translate(-242.738 -77.185)"/><path class="a" d="M434.321,147.9a3.162,3.162,0,1,0-1.5-4.212,3.163,3.163,0,0,0,1.5,4.212" transform="translate(-262.051 -85.96)"/><path class="a" d="M466.712,163.37a3.524,3.524,0,1,0-1.675-4.7,3.527,3.527,0,0,0,1.675,4.7" transform="translate(-281.552 -94.918)"/><path class="a" d="M499.261,178.9a3.8,3.8,0,1,0-1.807-5.067,3.8,3.8,0,0,0,1.807,5.067" transform="translate(-301.176 -104.003)"/><path class="a" d="M531.968,194.47a4,4,0,1,0-1.9-5.335,4,4,0,0,0,1.9,5.335" transform="translate(-320.923 -113.208)"/><path class="a" d="M564.754,210.071a4.164,4.164,0,1,0-1.978-5.547,4.164,4.164,0,0,0,1.978,5.547" transform="translate(-340.733 -122.475)"/><path class="a" d="M597.628,226.455v-7.281a4.155,4.155,0,0,0,0,7.281" transform="translate(-360.789 -132.794)"/><path class="a" d="M290.113,38.09a.322.322,0,0,0,.273-.583.322.322,0,0,0-.273.583" transform="translate(-175.663 -22.708)"/><path class="a" d="M322.425,53.538a.72.72,0,1,0-.343-.961.718.718,0,0,0,.343.961" transform="translate(-195.101 -31.607)"/><path class="a" d="M354.661,68.96a1.161,1.161,0,1,0-.551-1.548,1.164,1.164,0,0,0,.551,1.548" transform="translate(-214.481 -40.442)"/><path class="a" d="M386.973,84.406a1.562,1.562,0,1,0-.741-2.083,1.566,1.566,0,0,0,.741,2.083" transform="translate(-233.92 -49.338)"/><path class="a" d="M419.285,99.855a1.962,1.962,0,1,0-.931-2.614,1.96,1.96,0,0,0,.931,2.614" transform="translate(-253.359 -58.237)"/><path class="a" d="M451.52,115.278a2.4,2.4,0,1,0-1.141-3.2,2.4,2.4,0,0,0,1.141,3.2" transform="translate(-272.736 -67.074)"/><path class="a" d="M484.071,130.8a2.682,2.682,0,1,0-1.276-3.572,2.681,2.681,0,0,0,1.276,3.572" transform="translate(-292.361 -76.157)"/><path class="a" d="M516.617,146.326a2.962,2.962,0,1,0-1.407-3.944,2.963,2.963,0,0,0,1.407,3.944" transform="translate(-311.983 -85.24)"/><path class="a" d="M549.324,161.9a3.162,3.162,0,1,0-1.5-4.212,3.159,3.159,0,0,0,1.5,4.212" transform="translate(-331.731 -94.447)"/><path class="a" d="M582.266,177.551a3.243,3.243,0,1,0-1.539-4.321,3.243,3.243,0,0,0,1.539,4.321" transform="translate(-351.663 -103.835)"/><path class="a" d="M339.07,20.742a.24.24,0,1,0-.112-.32.238.238,0,0,0,.112.32" transform="translate(-205.354 -12.29)"/><path class="a" d="M371.466,36.214a.6.6,0,1,0-.285-.8.6.6,0,0,0,.285.8" transform="translate(-224.857 -21.25)"/><path class="a" d="M403.855,51.688a.961.961,0,1,0-.456-1.28.96.96,0,0,0,.456,1.28" transform="translate(-244.355 -30.209)"/><path class="a" d="M436.249,67.162a1.321,1.321,0,1,0-.627-1.759,1.321,1.321,0,0,0,.627,1.759" transform="translate(-263.858 -39.169)"/><path class="a" d="M468.638,82.638a1.683,1.683,0,1,0-.8-2.242,1.682,1.682,0,0,0,.8,2.242" transform="translate(-283.358 -48.129)"/><path class="a" d="M501.267,98.187a1.922,1.922,0,1,0-.912-2.561,1.921,1.921,0,0,0,.912,2.561" transform="translate(-303.043 -57.273)"/><path class="a" d="M533.817,113.71a2.2,2.2,0,1,0-1.045-2.934,2.2,2.2,0,0,0,1.045,2.934" transform="translate(-322.669 -66.355)"/><path class="a" d="M566.68,129.334a2.322,2.322,0,1,0-1.1-3.093,2.321,2.321,0,0,0,1.1,3.093" transform="translate(-342.538 -75.683)"/><path class="a" d="M599.25,145.417v-4.059a2.422,2.422,0,0,0,0,4.059" transform="translate(-362.41 -85.646)"/><path class="a" d="M388.033,3.4a.159.159,0,0,0,.137-.288.157.157,0,0,0-.213.073.16.16,0,0,0,.076.216" transform="translate(-235.046 -1.873)"/><path class="a" d="M420.662,18.944a.4.4,0,0,0,.533-.189.4.4,0,1,0-.724-.342.4.4,0,0,0,.191.531" transform="translate(-254.733 -11.016)"/><path class="a" d="M453.13,34.442a.722.722,0,1,0-.342-.961.724.724,0,0,0,.342.961" transform="translate(-274.295 -20.036)"/><path class="a" d="M485.759,49.992a.961.961,0,1,0-.458-1.28.959.959,0,0,0,.458,1.28" transform="translate(-293.98 -29.181)"/><path class="a" d="M518.384,65.541a1.2,1.2,0,1,0-.57-1.6,1.2,1.2,0,0,0,.57,1.6" transform="translate(-313.664 -38.325)"/><path class="a" d="M551.013,81.092a1.441,1.441,0,1,0-.684-1.918,1.439,1.439,0,0,0,.684,1.918" transform="translate(-333.35 -47.47)"/><path class="a" d="M583.878,96.719a1.561,1.561,0,1,0-.743-2.079,1.562,1.562,0,0,0,.743,2.079" transform="translate(-353.221 -56.8)"/><path class="a" d="M470.148,1.624a.161.161,0,0,0-.29-.139.165.165,0,0,0,.076.215.16.16,0,0,0,.214-.076" transform="translate(-284.67 -0.845)"/><path class="a" d="M502.643,17.274a.359.359,0,1,0-.172-.48.359.359,0,0,0,.172.48" transform="translate(-304.418 -10.051)"/><path class="a" d="M535.346,32.848a.561.561,0,1,0-.264-.746.56.56,0,0,0,.264.746" transform="translate(-324.164 -19.256)"/><path class="a" d="M568.131,48.448a.721.721,0,1,0-.342-.959.721.721,0,0,0,.342.959" transform="translate(-343.971 -28.522)"/><path class="a" d="M552.124.058a.041.041,0,0,0-.019-.053.038.038,0,0,0-.053.017.038.038,0,0,0,.02.054.037.037,0,0,0,.053-.019" transform="translate(-334.476 0)"/><path class="a" d="M584.935,15.7a.159.159,0,1,0-.076-.211.159.159,0,0,0,.076.211" transform="translate(-354.347 -9.329)"/></g></svg>