<svg xmlns="http://www.w3.org/2000/svg" width="269.25" height="119.765" viewBox="0 0 269.25 119.765"><defs><style>.a{fill:#1c1d1e;}.b{fill:#fff;}.c{fill:#dce0e1;}.d{fill:#ffcc01;}.e{fill:red;font-size:25px;font-family:KomikaAxis, Komika Axis;}</style></defs><g transform="translate(-67.674 -33.027)"><g transform="translate(7.593 -81.577)"><g transform="translate(87.343 114.604)"><g transform="translate(0)"><path class="a" d="M345.3,162.812a29.813,29.813,0,0,0-20.72-8.655q-.234,0-.468,0a30.22,30.22,0,0,0-9.523,1.523A27.35,27.35,0,0,0,309.8,151a27.882,27.882,0,0,0-7.286-27.674,30.012,30.012,0,0,0-20.855-8.723c-.158,0-.316,0-.473,0a29.881,29.881,0,0,0-27.367,17.535c-.625-.05-1.254-.081-1.879-.09-.146,0-.295,0-.441,0a28.3,28.3,0,0,0-16.812,5.486,31.318,31.318,0,0,0-26.875-15.472c-.166,0-.331,0-.5,0a32,32,0,0,0-26.948,14.814,41.211,41.211,0,0,0-19.869-5.4c-.214,0-.428,0-.641,0a40.79,40.79,0,0,0-28.236,11.163A37.869,37.869,0,0,0,126.98,192.8a27.86,27.86,0,0,0,5.509,32.246,30.011,30.011,0,0,0,20.852,8.724c.159,0,.317,0,.475,0a30.3,30.3,0,0,0,18.564-6.3,30.254,30.254,0,0,0,14,3.653q.236,0,.471,0a29.829,29.829,0,0,0,22.058-9.584,30.559,30.559,0,0,0,11.94,2.633c.158,0,.315,0,.472,0a30.757,30.757,0,0,0,3.227-.17,20.042,20.042,0,0,0,17.373,10.357l.305,0c10.039,0,18.477-7.353,19.736-16.774a29.834,29.834,0,0,0,25.548,15.058c.157,0,.316,0,.472,0a29.874,29.874,0,0,0,20.629-8.131,27.933,27.933,0,0,0,8.2-14.306,30.449,30.449,0,0,0,6.853.882c.157,0,.473,0,.474,0,16.007,0,29.234-12.574,29.484-28.03A27.772,27.772,0,0,0,345.3,162.812Z" transform="translate(-119.587 -114.604)"/></g><g transform="translate(4.203 4.057)"><path class="b" d="M329.489,163.33A25.929,25.929,0,0,0,318,165.8a23.261,23.261,0,0,0-8.227-8.1,23.817,23.817,0,0,0,1.891-8.922c.22-13.594-11.016-24.786-25.1-25a25.4,25.4,0,0,0-24.96,17.981,24.443,24.443,0,0,0-4.758-.539,23.817,23.817,0,0,0-18.635,8.4,27.487,27.487,0,0,0-51.238-1.66,36.731,36.731,0,0,0-21.569-7.321c-19.923-.3-36.327,15.046-36.639,34.279a33.939,33.939,0,0,0,8.163,22.6,23.869,23.869,0,0,0-3.645,12.3c-.221,13.594,11.016,24.786,25.1,25a25.889,25.889,0,0,0,18.541-7.324,25.881,25.881,0,0,0,35.832-6.046,25.827,25.827,0,0,0,13.131,3.781,26.209,26.209,0,0,0,6.249-.655,15.632,15.632,0,0,0,14.81,10.845,15.456,15.456,0,0,0,15.944-14.917,14.722,14.722,0,0,0-.184-2.548c.659.06,1.323.1,2,.113a26.276,26.276,0,0,0,4.513-.326,25.256,25.256,0,0,0,23.335,15.964c13.928.211,25.4-10.487,25.683-23.916A25.931,25.931,0,0,0,328.7,212.16c13.968.211,25.468-10.548,25.687-24.033S343.457,163.541,329.489,163.33Z" transform="translate(-128.761 -123.777)"/></g><g transform="translate(9.577 96.84)"><path class="c" d="M254.777,347.809a16.368,16.368,0,0,1-11.944-5.363,15.324,15.324,0,0,1-7.584-5.223c-.725.05-1.456.084-2.2.072a26.816,26.816,0,0,1-5.521-.666,8.116,8.116,0,0,1-3.547,1.816,1.31,1.31,0,0,1-1.33.466c-.351-.071-.707-.156-1.062-.237a1.34,1.34,0,0,1-.784-.189,29.436,29.436,0,0,1-3.321-1.043c-.385-.088-.766-.188-1.138-.306-.018-.006-.034-.015-.052-.022a26.753,26.753,0,0,1-33.766,2.518,26.71,26.71,0,0,1-19.129,7.557,26.42,26.42,0,0,1-22.911-13.628,25.364,25.364,0,0,0,24.246,18.263,25.885,25.885,0,0,0,18.541-7.324,25.881,25.881,0,0,0,35.831-6.045,26.1,26.1,0,0,0,19.381,3.124,15.842,15.842,0,0,0,30.472-1.43A16.3,16.3,0,0,1,254.777,347.809Z" transform="translate(-140.492 -333.563)"/></g><g transform="translate(147.152 53.491)"><path class="c" d="M523.452,250.466c-.215,13.486-11.721,24.243-25.685,24.035a26.026,26.026,0,0,1-10.471-2.368c-.278,13.43-11.752,24.127-25.68,23.918a25.471,25.471,0,0,1-20.836-11.158,25.885,25.885,0,0,0,17.311,6.892c14.075.213,25.664-10.595,25.953-24.167a26.182,26.182,0,0,0,10.576,2.389c14.117.213,25.738-10.661,25.959-24.284a23.915,23.915,0,0,0-2.086-10.174A23.764,23.764,0,0,1,523.452,250.466Z" transform="translate(-440.779 -235.55)"/></g><g transform="translate(4.203 4.059)"><path class="c" d="M286.562,123.784A25.4,25.4,0,0,0,261.6,141.763a24.4,24.4,0,0,0-4.755-.537,23.8,23.8,0,0,0-18.635,8.4,27.488,27.488,0,0,0-51.24-1.663,36.724,36.724,0,0,0-21.567-7.318c-19.922-.3-36.329,15.048-36.64,34.28a33.516,33.516,0,0,0,.21,4.377c1.97-17.691,17.637-31.333,36.429-31.049a36.727,36.727,0,0,1,21.567,7.318,27.577,27.577,0,0,1,47.81-5.168,1.308,1.308,0,0,1,.782-.242c2.542-.018,5.076-.236,7.618-.254a1.227,1.227,0,0,1,1.275,1.376c.223.062.442.126.654.191a1.5,1.5,0,0,1,.206.085,24,24,0,0,1,11.53-2.729,24.361,24.361,0,0,1,4.755.538,25.4,25.4,0,0,1,24.961-17.98c12.6.193,22.927,9.175,24.8,20.8a23.61,23.61,0,0,0,.3-3.413C311.88,135.185,300.647,124,286.562,123.784Z" transform="translate(-128.761 -123.781)"/></g><g transform="translate(129.145 91.788)"><path class="a" d="M411.307,328.6a29.884,29.884,0,0,1-9.833,3.291,14.412,14.412,0,0,0,5.207.213,16.416,16.416,0,0,0,5.6-1.85,15.882,15.882,0,0,0,4.518-3.691,13.3,13.3,0,0,0,2.482-4.425A28.941,28.941,0,0,1,411.307,328.6Z" transform="translate(-401.474 -322.139)"/></g><g transform="translate(102.332 99.434)"><g transform="translate(0 0)"><path class="a" d="M348.672,343.869a22.629,22.629,0,0,1-5.723-4.441,8.218,8.218,0,0,0,1.531,3.341,10.134,10.134,0,0,0,3.225,2.758,10.516,10.516,0,0,0,4.115,1.234,8.953,8.953,0,0,0,3.754-.467A23.273,23.273,0,0,1,348.672,343.869Z" transform="translate(-342.949 -339.428)"/></g></g><g transform="translate(82.857 100.338)"><g transform="translate(0 0)"><path class="a" d="M307.06,342.556a28.4,28.4,0,0,1-6.62-1.085,8.162,8.162,0,0,0,2.727,2.056,9.957,9.957,0,0,0,7.685.316,8.225,8.225,0,0,0,2.9-1.825A28.436,28.436,0,0,1,307.06,342.556Z" transform="translate(-300.44 -341.471)"/></g></g><g transform="translate(104.662 28.471)"><path class="a" d="M360.051,179.078a15.388,15.388,0,0,0-6.906.794,13.822,13.822,0,0,0-5.111,3.182,21.632,21.632,0,0,1,11.78-2.087,21.337,21.337,0,0,1,10.927,4.739,13.5,13.5,0,0,0-4.179-4.268A15.227,15.227,0,0,0,360.051,179.078Z" transform="translate(-348.034 -178.979)"/></g><g transform="translate(187.484 45.906)"><path class="a" d="M536.8,218.7a10.786,10.786,0,0,0-4.418-.136,8.969,8.969,0,0,0-3.572,1.463,22.7,22.7,0,0,1,7.511.518,22.317,22.317,0,0,1,6.877,2.963,8.557,8.557,0,0,0-2.435-2.916A10.575,10.575,0,0,0,536.8,218.7Z" transform="translate(-528.812 -218.399)"/></g><g transform="translate(9.203 69.192)"><path class="a" d="M140.04,280.385a10.184,10.184,0,0,0,2.786,4.57,9.713,9.713,0,0,0,4.11,2.339,15.16,15.16,0,0,1-5-7.411,14.687,14.687,0,0,1,.4-8.834,9.217,9.217,0,0,0-2.308,4.033A9.912,9.912,0,0,0,140.04,280.385Z" transform="translate(-139.674 -271.049)"/></g></g><g transform="translate(60.081 121.582)"><path class="d" d="M61.869,136.632c1.669.886,30.673,14.581,31.591,12.97s-26.6-17.92-28.267-18.806a3.515,3.515,0,0,0-4.685,1.314A3.271,3.271,0,0,0,61.869,136.632Z" transform="translate(-60.081 -130.383)"/><path class="d" d="M83.229,180.487c1.053.059,18.923.228,18.984-.789s-17.711-2.833-18.764-2.892a1.887,1.887,0,0,0-2.016,1.734A1.868,1.868,0,0,0,83.229,180.487Z" transform="translate(-71.648 -156.272)"/><path class="d" d="M126.881,132.4c.286.793,5.789,14,6.611,13.721s-3.349-13.926-3.635-14.719a1.59,1.59,0,0,0-2.005-.937A1.509,1.509,0,0,0,126.881,132.4Z" transform="translate(-96.229 -130.383)"/><g transform="translate(221.941)"><path class="d" d="M584.788,136.632c-1.67.886-30.674,14.581-31.592,12.97s26.6-17.92,28.267-18.806a3.515,3.515,0,0,1,4.685,1.314A3.271,3.271,0,0,1,584.788,136.632Z" transform="translate(-549.207 -130.383)"/><path class="d" d="M578.353,180.487c-1.053.059-18.923.228-18.984-.789s17.711-2.833,18.764-2.892a1.845,1.845,0,1,1,.22,3.681Z" transform="translate(-552.564 -156.272)"/><path class="d" d="M551.232,132.4c-.285.793-5.789,14-6.611,13.721s3.35-13.926,3.635-14.719a1.59,1.59,0,0,1,2-.937A1.508,1.508,0,0,1,551.232,132.4Z" transform="translate(-544.515 -130.383)"/></g><g transform="translate(224.758 93.359)"><path class="d" d="M569.287,364.58c-.951-.455-16.658-8.89-16.188-9.807s16.942,6.03,17.892,6.485a1.824,1.824,0,0,1,.869,2.484A1.953,1.953,0,0,1,569.287,364.58Z" transform="translate(-551.978 -348.843)"/><path class="d" d="M556.356,369.319c-.363-.446-6.127-8.274-5.665-8.624s6.974,6.91,7.337,7.356a1,1,0,0,1-.179,1.441A1.09,1.09,0,0,1,556.356,369.319Z" transform="translate(-550.664 -352.186)"/><path class="d" d="M562.6,343.132c-.466.126-8.466,1.9-8.6,1.449s7.656-2.953,8.122-3.08a.881.881,0,0,1,1.081.586A.843.843,0,0,1,562.6,343.132Z" transform="translate(-552.474 -341.471)"/></g><path class="d" d="M236.789,130.383l1.229,2.4,2.749.386-1.989,1.872.47,2.643-2.458-1.248-2.459,1.248.47-2.643-1.989-1.872,2.749-.386Z" transform="translate(-153.676 -130.383)"/><path class="d" d="M634.391,212.024l1.229,2.4,2.749.386-1.989,1.872.47,2.643-2.458-1.248-2.459,1.248.47-2.643-1.989-1.872,2.749-.386Z" transform="translate(-369.118 -175.916)"/><path class="d" d="M167.469,323.069l4.279.337,2.713-3.212.991,4.033,4,1.5-3.667,2.156-.239,4.139-3.257-2.7-4.151,1.059,1.654-3.825Z" transform="translate(-118.27 -236.244)"/></g></g><g transform="translate(0 -20)"><path class="a" d="M446.584,151.431l-.056-.3c-.1-.451-.2-.869-.292-1.239a9.435,9.435,0,0,0-.748-1.948,6.722,6.722,0,0,0-6.537-4c-1.145.038-2.31.129-3.462.272-1.07.133-2.143.292-3.193.474-1.033.18-2.043.382-3,.6h-.005q-1.379.315-2.507.6l-.726.185c-.213-.137-.424-.274-.651-.4a13.781,13.781,0,0,0-1.881-.863,18.18,18.18,0,0,0-1.795-.565,14.576,14.576,0,0,0-1.893-.364,12.091,12.091,0,0,0-3.42,0,9.993,9.993,0,0,0-2.161.557,8.8,8.8,0,0,0-2.191,1.222c-.351.259-.691.536-1.024.824a7.118,7.118,0,0,0-2.3-1.312l-.407-.125c-.309-.081-.612-.167-.925-.265-.488-.151-1.019-.293-1.6-.427s-1.2-.242-1.874-.337-1.4-.16-2.192-.2a7.433,7.433,0,0,0-4.985,1.233,8.153,8.153,0,0,0-1.41,1.269,6.419,6.419,0,0,0-2.566-1.91,7.772,7.772,0,0,0-2.986-.5l-.174,0c-1.041.036-2.228.1-3.533.2q-1.93.143-3.945.35t-3.952.469c-1.154.155-2.214.327-3.172.51-.051-.027-.1-.057-.151-.084a23.972,23.972,0,0,0-2.848-1.232l-.235-.077a11.19,11.19,0,0,0-2.6-.467,10.75,10.75,0,0,0-2.385.125,9.378,9.378,0,0,0-2.266.677,10.008,10.008,0,0,0-1.478.8,16.772,16.772,0,0,0-2.435,1.86,18.809,18.809,0,0,0-3.622,4.5c-.005-.039,0-.075-.011-.115l-.055-.3c-.1-.451-.2-.869-.292-1.239a9.493,9.493,0,0,0-.748-1.948,6.716,6.716,0,0,0-6.537-4c-1.146.038-2.311.129-3.462.272-1.071.133-2.144.292-3.194.474-1.033.18-2.043.382-3,.6h-.005c-.4.092-.784.182-1.155.271-.045-.026-.082-.055-.128-.081a13.106,13.106,0,0,0-1.391-.748,8.329,8.329,0,0,0-2.224-.676,6.221,6.221,0,0,0-3.726.581,6.137,6.137,0,0,0-2.841,3.045l-.006.014a7.908,7.908,0,0,0-3.52-2.545,10.9,10.9,0,0,0-2.291-.647,13.391,13.391,0,0,0-2.139-.165,6.67,6.67,0,0,0-2.67.519c-.316-.107-.63-.211-.934-.292a6.588,6.588,0,0,0-4.416.149,5.8,5.8,0,0,0-2.8,2.514,9.308,9.308,0,0,0-1.025-.875l-.181-.126a13.708,13.708,0,0,0-2.48-1.29,19.08,19.08,0,0,0-2.22-.747,6.687,6.687,0,0,0-4.161.025,6.079,6.079,0,0,0-3.688,3.946l-.092.3q-.373,1.356-.757,2.971-.377,1.583-.74,3.3t-.678,3.458q-.311,1.712-.567,3.3c-.174,1.086-.323,2.1-.447,3.038q-.18,1.381-.264,2.415a6.649,6.649,0,0,0,.652,3.9,7.513,7.513,0,0,0,1.916,2.357l.1.082c.346.269.622.491.832.663a13.806,13.806,0,0,0,1.148.841,8.308,8.308,0,0,0,.815.495,6.958,6.958,0,0,0,3.257.792c.176,0,.354-.006.532-.018a9.413,9.413,0,0,0,1.722-.29q1.407-.28,2.957-.572l2.949-.558c.058.03.107.068.166.1a11.387,11.387,0,0,0,1.94.778q.644.19,1.355.383l.186.046a7.2,7.2,0,0,0,1.668.209,5.458,5.458,0,0,0,5.092-3.269,8.545,8.545,0,0,0,2.52,1.782c.3.146.6.282.9.407l4.087,1.253a6.773,6.773,0,0,0,3.323-.238,6.5,6.5,0,0,0,3.46-2.875c.419.357.793.657,1.108.891.34.251.694.5,1.021.707a7.979,7.979,0,0,0,2.369,1.055,6.59,6.59,0,0,0,1.7.215,9.314,9.314,0,0,0,2.136-.268q1.469-.27,3.076-.586c1.085-.214,2.153-.419,3.189-.614a6,6,0,0,0,4.06-2.463,5.681,5.681,0,0,0,.687-4.66l-.106-.428-.18-.4c-.09-.2-.17-.4-.244-.6-.037-.1-.075-.2-.116-.3.087-.092.172-.189.255-.29a5.535,5.535,0,0,0,.868-5.3q-.154-.594-.349-1.175a9.366,9.366,0,0,0-.345-.886,6.105,6.105,0,0,0,2.28-1.211,10.2,10.2,0,0,0-.064,1.349,10.461,10.461,0,0,0,.632,3.336l.05.132a5.8,5.8,0,0,0-2.459,4.748l.03.551a7.174,7.174,0,0,0,2.763,4.553,18.016,18.016,0,0,0,5.393,3.548,14.722,14.722,0,0,0,5.492,1.077c.118,0,.237,0,.355,0a13.689,13.689,0,0,0,4.042-.621,12.165,12.165,0,0,0,3.1-1.488,11.073,11.073,0,0,0,1.034-.811,6.281,6.281,0,0,0,.545.537,7.59,7.59,0,0,0,2.1,1.284,14.5,14.5,0,0,0,1.55.528l.842.244a8.054,8.054,0,0,0,1.976.336c.078,0,.157,0,.235,0a5.833,5.833,0,0,0,3.01-.8,5.347,5.347,0,0,0,1.776-1.732,6.09,6.09,0,0,0,.753.551c.106.065.227.143.367.236l.522.3c.369.186.733.354,1.112.513.3.124.573.234.823.332l.168.061a6.35,6.35,0,0,0,3.76.24,5.732,5.732,0,0,0,3.749-3.2l.06-.131c.025-.058.05-.116.077-.174a5.811,5.811,0,0,0,.842,1.282,6.539,6.539,0,0,0,3.1,1.949,9.243,9.243,0,0,0,2.308.463q.708.05,1.546.05a6.171,6.171,0,0,0,3.758-1.15,18.651,18.651,0,0,0,4.593,1.23,12.848,12.848,0,0,0,1.706.116,11.668,11.668,0,0,0,1.869-.148,10.824,10.824,0,0,0,3.526-1.227l.113-.064a13.262,13.262,0,0,0,1.655-1.181c.174.139.342.27.493.382.34.251.694.5,1.02.707a7.98,7.98,0,0,0,2.369,1.055,6.6,6.6,0,0,0,1.7.215,9.314,9.314,0,0,0,2.136-.268q1.47-.27,3.076-.586c1.085-.214,2.154-.419,3.19-.614a6,6,0,0,0,4.059-2.463,5.677,5.677,0,0,0,.688-4.66l-.107-.428-.179-.4c-.09-.2-.17-.4-.244-.6-.037-.1-.076-.2-.117-.3.087-.092.172-.189.255-.29a5.53,5.53,0,0,0,.868-5.3q-.153-.594-.348-1.175a9.368,9.368,0,0,0-.346-.886,5.915,5.915,0,0,0,2.838-1.736A5.831,5.831,0,0,0,446.584,151.431Z" transform="translate(-162.089 -43.565)"/><text class="e" transform="translate(208 127)"><tspan x="-71.3" y="0">Live Stage</tspan></text></g></g></svg>