<svg xmlns="http://www.w3.org/2000/svg" width="26.795" height="15.513" viewBox="0 0 26.795 15.513"><defs><style>.a{fill:#fff;}.b{fill:#656565;}</style></defs><path class="a" d="M416.86,106.079l-5.866-5.606a.831.831,0,0,1,.018-1.185l5.866-5.414a.818.818,0,0,1,1.38.6V105.5a.818.818,0,0,1-1.4.584Z" transform="translate(-392.008 -92.204)"/><path class="a" d="M80.362,77.739H66.2a2.073,2.073,0,0,0-1.4.538,1.768,1.768,0,0,0-.582,1.3V90.4a1.841,1.841,0,0,0,1.91,1.764H80.247a2.027,2.027,0,0,0,2.1-1.943V79.575A1.916,1.916,0,0,0,80.362,77.739Z" transform="translate(-63.603 -77.126)"/><g transform="translate(0)"><path class="b" d="M69.395,81.535H54.805a2.255,2.255,0,0,1-2.252-2.252V68.346a2.327,2.327,0,0,1,2.324-2.324H69.5a2.327,2.327,0,0,1,2.324,2.324V79.1a2.435,2.435,0,0,1-2.432,2.432ZM54.877,66.962a1.386,1.386,0,0,0-1.384,1.384V79.283a1.313,1.313,0,0,0,1.312,1.312h14.59A1.494,1.494,0,0,0,70.887,79.1V68.346A1.386,1.386,0,0,0,69.5,66.962H54.877Z" transform="translate(-52.553 -66.022)"/><path class="b" d="M410.033,101.348a1.27,1.27,0,0,1-.9-.38l-5.876-5.616a1.3,1.3,0,0,1,.019-1.869l5.885-5.432a1.264,1.264,0,0,1,1.388-.246A1.28,1.28,0,0,1,411.331,89v11.047a1.3,1.3,0,0,1-1.3,1.3Zm0-12.708a.33.33,0,0,0-.233.1l-5.885,5.432a.356.356,0,0,0-.107.252.36.36,0,0,0,.1.26l5.871,5.611.009.009a.334.334,0,0,0,.377.078.35.35,0,0,0,.219-.332V89a.35.35,0,0,0-.215-.33A.368.368,0,0,0,410.035,88.64Z" transform="translate(-384.536 -86.564)"/></g></svg>