<svg xmlns="http://www.w3.org/2000/svg" xmlns:xlink="http://www.w3.org/1999/xlink" width="414" height="103" viewBox="0 0 414 103"><defs><style>.a{fill:#7422ff;}.b,.d{isolation:isolate;}.c{clip-path:url(#a);}.d{opacity:0.06;}.e{fill:#e5f7ff;}</style><clipPath id="a"><rect class="a" width="414" height="103"/></clipPath></defs><g class="b"><rect class="a" width="414" height="103"/><g class="c"><g class="d" transform="translate(642.969 687.451) rotate(180)"><path class="e" d="M-71.992,880.481a498.422,498.422,0,0,1-68.4-9.467L-40.106,375.458c.156.039.312.076.466.108l1.13-5.609Zm68.5-.037-34.042-510.53,1.154,5.652q.256-.053.511-.121l100.7,495.473A498.629,498.629,0,0,1-3.492,880.444Zm-203.635-28.411a500.713,500.713,0,0,1-63.522-28.112L-38.542,367.735l.1-.507-1.171,1.69,1.286-2.261-.072.06.09-.146-.1.013.057-.062-.06.027.018-.036-.094-.014-.355.242-1.671.745,1.257-.781h0l.35-.219-.552.245-1.614.225,1.917-.549-1.12-.156,1.751-.025.025.006.032-.019.094.037-.02.008.059.021-.007.01.025.016-.155.174.178-.159.02.011-.006.094.012-.046,0-.045.008.017,0-.011.05.032.016-.019.022.042.026-.007-.035-.049.011-.011.07.019-.05-.042,0,0-.07-.052h.2l-.014.035.016.016,0,0,.034.04.009,0-.022-.061.007-.008-.006-.018h.156l-.058.049.011.012.02-.005-.017.008.039.043.024-.045-.021.048.017.018,0,.014.009,0,.018.019.025-.044,0-.057.019-.031.03.057,0,0,.085.149-.015,0,.027.053-.062-.028.091.119-.068-.01.222.277-.138-.114.181.2.95,1.855-1.08-1.553.129.631L195.009,823.717a500.785,500.785,0,0,1-63.474,28.163L-34.9,375.143a.047.047,0,0,1,.017-.006l-2.51-7.167.018.087-.1-.291.04.081-.41-1.17,0,.028-.007-.022,0-.021-.043-.093.015.008-.023-.062h-.01l-.006-.014v0l-.007-.018-.005.008-.021-.019.018-.011-.025-.07h0l-.015-.031-.019.017-.015-.007-.012,0,.022.006-.035.03-.021-.018-.033.064.009,0-.009.026-.014-.021-.018.052.013.026-.026.008h-.015l-.079.02.013.062.069-.044-.051.141.01.041-.055.156,0-.055-.288.824.075-.146-.138.4.033-.165Zm-122.491-64.688a510.635,510.635,0,0,1-53.4-44.279L-39.373,367.783l-4.206,6.082c.119.085.242.169.365.25Zm583.5-.208L-32.79,374.1c.116-.077.231-.155.342-.234l-4.317-6.2L307.254,742.821A511,511,0,0,1,253.884,787.137Zm-683.914-95.294a518.2,518.2,0,0,1-39.791-57.282L-46.086,370.953c.079.15.162.295.246.436l5.627-3.509Zm784.257-.276L-35.87,367.819l5.706,3.536q.114-.19.221-.392L394.015,634.2A518.007,518.007,0,0,1,354.226,691.567ZM-501.7,572.1a521.706,521.706,0,0,1-23.244-66.477l485.3-138.8Zm927.55-.414L-36.067,366.924,449.064,505.092A521.557,521.557,0,0,1,425.852,571.682Zm-964.872-135.1a529.134,529.134,0,0,1-4.7-69.872l503.214-.458-6.786.956c.026.2.059.4.1.606Zm1002.093-.553L-28.834,367.836c.045-.223.082-.447.111-.666l-6.707-.924,6.777-.006c0-.106,0-.285-.025-.527H467.7v.508A529.854,529.854,0,0,1,463.073,436.028ZM-38.04,369.745l-.107-1.59.126-.628.094.464Zm2.3-2.379-1.842-.873.169.048-.1-.083-.084.012-.109-.154.012-.008-.042-.037v0l-.005,0h0l-.011-.016-.007,0-.008-.006,0,0,0-.006,0,0,0-.016-.01-.014.018-.037v0l0-.007h0l0,0-.074-.037,0,.006-.037-.017.015-.017-.046-.068.015,0,.034.069.03-.032.007,0,0,.069.023.007,0-.067.042.077.009-.045.012.008.156-.179-.061-.009.015-.03-.055.025-.01,0,.088-.1-.091.013.056-.12-.038.032.273-.289.693-.758-.726.848.309-.247-.065.1,1.383-.86-1.393,1.158h.025l-.384.234.122-.035-.062.05-.065-.008-.152.188.015.009-.017.026.082.023-.035.017-.057-.026-.022.032.006.026h0l0,.019.142-.021-.028-.011.044-.013.013.007.012-.007.09.026,1.468,0-.987.139,2.219.628-1.6-.22-.85-.377-.044.007.572.325-.061-.009Zm-4.656-1.131-3.754-.522h3.831l1.2.342Zm4.68-.028-1.222-.168,1.137-.327h3.615Zm-2.249-.122-.014-.012-.007,0-.007,0,.01,0-.026-.021-.015.012-.068-.081,0,0-.013-.037-.005.009,0-.01-.009-.026h-.011l-.011-.035.014.009-.036-.073,0-.02-.028-.082.047-.013-.092-.132v.018l-.251-.718.12.237-.191-2.821.407,2-.072,1.1.1.2.117-.58.1.514.052-.1-.058-.889.281-1.39-.136,2.112.25-.493-.319.915-.007-.126-.044.063.035.1-.009.027.007.039-.017.053.025-.016.011.056-.064.038-.021,0-.016.052,0,.011-.016.02,0,0-.013.009.011.007-.021.06.006,0Zm-.48-.125-.131-.145-.289-.1h.065l-.139-.06-1.313-1.088,1.473.915-.021-.032.431.395-.08-.011.058.065-.05-.022.04.08Zm3.515-.495,5.9-1.687c-.024-.086-.049-.172-.074-.257L448.786,226.344a524.741,524.741,0,0,1,14.142,69.018Zm-6.341-.023-374.2-51.5-123.7-17.026a524.426,524.426,0,0,1,13.943-69.085L-46.933,363.561c-.025.082-.049.166-.073.249Zm4.191-.168,5.487-5.992-.077-.073L306.622-10.979A514.578,514.578,0,0,1,353.684,40.2L-30.689,360.3c-.051-.069-.1-.136-.156-.2Zm-1.94-.067-6.16-5.112c-.062.077-.122.156-.182.236l-385.2-319.071a514.638,514.638,0,0,1,46.929-51.3L-44.382,359.234c-.021.02-.041.038-.06.057Zm3.348-.16,429.207-267.6a520.416,520.416,0,0,1,31.93,62.417L-29.442,362.554c-.032-.077-.063-.154-.1-.23Zm-4.788-.07-6.023-2.67c-.037.086-.074.173-.107.262l-455.5-201.318A520.488,520.488,0,0,1-470.3,98.678Zm3.042-.462,101.262-503.2A498.842,498.842,0,0,1,130.6-119.775L-34.893,357.3l-.01,0Zm-1.276-.265L-208.045-119.261a498.029,498.029,0,0,1,66.7-19.112Zm-.92-.68L-330.317-54.4a506,506,0,0,1,58.85-36.647L-42.129,357.718c-.125.062-.249.124-.37.188Zm3.285-.195,2.789-5.478c-.127-.067-.254-.132-.383-.193L194.17-91.721a505.527,505.527,0,0,1,59.022,36.528Zm-1.7-.823-.391-5.856c-.13.009-.3.025-.5.052L-73-147.969a502.916,502.916,0,0,1,68.525-.1L-37.2,356.738c-.175-.021-.324-.035-.443-.044Z" transform="translate(543.725 149.189)"/></g></g></g></svg>