<svg xmlns="http://www.w3.org/2000/svg" width="27.922" height="25.137" viewBox="0 0 27.922 25.137"><defs><style>.a{fill:#ffef41;}.a,.b,.c{stroke:#000;}.b{fill:#ff7f00;}.c{fill:#c7cfe2;}</style></defs><g transform="translate(0.5 0.5)"><path class="a" d="M3245.359,984.35h-25.066a.928.928,0,0,1-.928-.928V962.069a.928.928,0,0,1,.928-.928h25.066a.928.928,0,0,1,.928.928v21.352A.928.928,0,0,1,3245.359,984.35Z" transform="translate(-3219.365 -960.213)"/><path class="b" d="M3246.288,965.783h-26.922v-3.713a.928.928,0,0,1,.928-.928h25.066a.928.928,0,0,1,.928.928Z" transform="translate(-3219.365 -960.213)"/><path class="c" d="M3281.854,947.2h0a.7.7,0,0,1-.7-.7v-2.321a.7.7,0,0,1,.7-.7h0a.7.7,0,0,1,.7.7V946.5A.7.7,0,0,1,3281.854,947.2Z" transform="translate(-3277.909 -943.486)"/><path class="c" d="M3643.787,947.2h0a.7.7,0,0,1-.7-.7v-2.321a.7.7,0,0,1,.7-.7h0a.7.7,0,0,1,.7.7V946.5A.7.7,0,0,1,3643.787,947.2Z" transform="translate(-3620.81 -943.486)"/></g></svg>