<svg xmlns="http://www.w3.org/2000/svg" xmlns:xlink="http://www.w3.org/1999/xlink" width="269.25" height="119.765" viewBox="0 0 269.25 119.765"><defs><style>.a{fill:#1c1d1e;}.b{fill:#fff;}.c{fill:#dce0e1;}.d{fill:#ffcc01;}.e{fill:#222223;}.f{fill:url(#a);}</style><linearGradient id="a" x1="0.5" x2="0.5" y2="1" gradientUnits="objectBoundingBox"><stop offset="0" stop-color="#3adca5"/><stop offset="1" stop-color="#2e9eea"/></linearGradient></defs><g transform="translate(-67.674 -33.027)"><g transform="translate(7.593 -81.577)"><g transform="translate(87.343 114.604)"><g transform="translate(0)"><path class="a" d="M345.3,162.812a29.813,29.813,0,0,0-20.72-8.655q-.234,0-.468,0a30.22,30.22,0,0,0-9.523,1.523A27.35,27.35,0,0,0,309.8,151a27.882,27.882,0,0,0-7.286-27.674,30.012,30.012,0,0,0-20.855-8.723c-.158,0-.316,0-.473,0a29.881,29.881,0,0,0-27.367,17.535c-.625-.05-1.254-.081-1.879-.09-.146,0-.295,0-.441,0a28.3,28.3,0,0,0-16.812,5.486,31.318,31.318,0,0,0-26.875-15.472c-.166,0-.331,0-.5,0a32,32,0,0,0-26.948,14.814,41.211,41.211,0,0,0-19.869-5.4c-.214,0-.428,0-.641,0a40.79,40.79,0,0,0-28.236,11.163A37.869,37.869,0,0,0,126.98,192.8a27.86,27.86,0,0,0,5.509,32.246,30.011,30.011,0,0,0,20.852,8.724c.159,0,.317,0,.475,0a30.3,30.3,0,0,0,18.564-6.3,30.254,30.254,0,0,0,14,3.653q.236,0,.471,0a29.829,29.829,0,0,0,22.058-9.584,30.559,30.559,0,0,0,11.94,2.633c.158,0,.315,0,.472,0a30.757,30.757,0,0,0,3.227-.17,20.042,20.042,0,0,0,17.373,10.357l.305,0c10.039,0,18.477-7.353,19.736-16.774a29.834,29.834,0,0,0,25.548,15.058c.157,0,.316,0,.472,0a29.874,29.874,0,0,0,20.629-8.131,27.933,27.933,0,0,0,8.2-14.306,30.449,30.449,0,0,0,6.853.882c.157,0,.473,0,.474,0,16.007,0,29.234-12.574,29.484-28.03A27.772,27.772,0,0,0,345.3,162.812Z" transform="translate(-119.587 -114.604)"/></g><g transform="translate(4.203 4.057)"><path class="b" d="M329.489,163.33A25.929,25.929,0,0,0,318,165.8a23.261,23.261,0,0,0-8.227-8.1,23.817,23.817,0,0,0,1.891-8.922c.22-13.594-11.016-24.786-25.1-25a25.4,25.4,0,0,0-24.96,17.981,24.443,24.443,0,0,0-4.758-.539,23.817,23.817,0,0,0-18.635,8.4,27.487,27.487,0,0,0-51.238-1.66,36.731,36.731,0,0,0-21.569-7.321c-19.923-.3-36.327,15.046-36.639,34.279a33.939,33.939,0,0,0,8.163,22.6,23.869,23.869,0,0,0-3.645,12.3c-.221,13.594,11.016,24.786,25.1,25a25.889,25.889,0,0,0,18.541-7.324,25.881,25.881,0,0,0,35.832-6.046,25.827,25.827,0,0,0,13.131,3.781,26.209,26.209,0,0,0,6.249-.655,15.632,15.632,0,0,0,14.81,10.845,15.456,15.456,0,0,0,15.944-14.917,14.722,14.722,0,0,0-.184-2.548c.659.06,1.323.1,2,.113a26.276,26.276,0,0,0,4.513-.326,25.256,25.256,0,0,0,23.335,15.964c13.928.211,25.4-10.487,25.683-23.916A25.931,25.931,0,0,0,328.7,212.16c13.968.211,25.468-10.548,25.687-24.033S343.457,163.541,329.489,163.33Z" transform="translate(-128.761 -123.777)"/></g><g transform="translate(9.577 96.84)"><path class="c" d="M254.777,347.809a16.368,16.368,0,0,1-11.944-5.363,15.324,15.324,0,0,1-7.584-5.223c-.725.05-1.456.084-2.2.072a26.816,26.816,0,0,1-5.521-.666,8.116,8.116,0,0,1-3.547,1.816,1.31,1.31,0,0,1-1.33.466c-.351-.071-.707-.156-1.062-.237a1.34,1.34,0,0,1-.784-.189,29.436,29.436,0,0,1-3.321-1.043c-.385-.088-.766-.188-1.138-.306-.018-.006-.034-.015-.052-.022a26.753,26.753,0,0,1-33.766,2.518,26.71,26.71,0,0,1-19.129,7.557,26.42,26.42,0,0,1-22.911-13.628,25.364,25.364,0,0,0,24.246,18.263,25.885,25.885,0,0,0,18.541-7.324,25.881,25.881,0,0,0,35.831-6.045,26.1,26.1,0,0,0,19.381,3.124,15.842,15.842,0,0,0,30.472-1.43A16.3,16.3,0,0,1,254.777,347.809Z" transform="translate(-140.492 -333.563)"/></g><g transform="translate(147.152 53.491)"><path class="c" d="M523.452,250.466c-.215,13.486-11.721,24.243-25.685,24.035a26.026,26.026,0,0,1-10.471-2.368c-.278,13.43-11.752,24.127-25.68,23.918a25.471,25.471,0,0,1-20.836-11.158,25.885,25.885,0,0,0,17.311,6.892c14.075.213,25.664-10.595,25.953-24.167a26.182,26.182,0,0,0,10.576,2.389c14.117.213,25.738-10.661,25.959-24.284a23.915,23.915,0,0,0-2.086-10.174A23.764,23.764,0,0,1,523.452,250.466Z" transform="translate(-440.779 -235.55)"/></g><g transform="translate(4.203 4.059)"><path class="c" d="M286.562,123.784A25.4,25.4,0,0,0,261.6,141.763a24.4,24.4,0,0,0-4.755-.537,23.8,23.8,0,0,0-18.635,8.4,27.488,27.488,0,0,0-51.24-1.663,36.724,36.724,0,0,0-21.567-7.318c-19.922-.3-36.329,15.048-36.64,34.28a33.516,33.516,0,0,0,.21,4.377c1.97-17.691,17.637-31.333,36.429-31.049a36.727,36.727,0,0,1,21.567,7.318,27.577,27.577,0,0,1,47.81-5.168,1.308,1.308,0,0,1,.782-.242c2.542-.018,5.076-.236,7.618-.254a1.227,1.227,0,0,1,1.275,1.376c.223.062.442.126.654.191a1.5,1.5,0,0,1,.206.085,24,24,0,0,1,11.53-2.729,24.361,24.361,0,0,1,4.755.538,25.4,25.4,0,0,1,24.961-17.98c12.6.193,22.927,9.175,24.8,20.8a23.61,23.61,0,0,0,.3-3.413C311.88,135.185,300.647,124,286.562,123.784Z" transform="translate(-128.761 -123.781)"/></g><g transform="translate(129.145 91.788)"><path class="a" d="M411.307,328.6a29.884,29.884,0,0,1-9.833,3.291,14.412,14.412,0,0,0,5.207.213,16.416,16.416,0,0,0,5.6-1.85,15.882,15.882,0,0,0,4.518-3.691,13.3,13.3,0,0,0,2.482-4.425A28.941,28.941,0,0,1,411.307,328.6Z" transform="translate(-401.474 -322.139)"/></g><g transform="translate(102.332 99.434)"><g transform="translate(0 0)"><path class="a" d="M348.672,343.869a22.629,22.629,0,0,1-5.723-4.441,8.218,8.218,0,0,0,1.531,3.341,10.134,10.134,0,0,0,3.225,2.758,10.516,10.516,0,0,0,4.115,1.234,8.953,8.953,0,0,0,3.754-.467A23.273,23.273,0,0,1,348.672,343.869Z" transform="translate(-342.949 -339.428)"/></g></g><g transform="translate(82.857 100.338)"><g transform="translate(0 0)"><path class="a" d="M307.06,342.556a28.4,28.4,0,0,1-6.62-1.085,8.162,8.162,0,0,0,2.727,2.056,9.957,9.957,0,0,0,7.685.316,8.225,8.225,0,0,0,2.9-1.825A28.436,28.436,0,0,1,307.06,342.556Z" transform="translate(-300.44 -341.471)"/></g></g><g transform="translate(104.662 28.471)"><path class="a" d="M360.051,179.078a15.388,15.388,0,0,0-6.906.794,13.822,13.822,0,0,0-5.111,3.182,21.632,21.632,0,0,1,11.78-2.087,21.337,21.337,0,0,1,10.927,4.739,13.5,13.5,0,0,0-4.179-4.268A15.227,15.227,0,0,0,360.051,179.078Z" transform="translate(-348.034 -178.979)"/></g><g transform="translate(187.484 45.906)"><path class="a" d="M536.8,218.7a10.786,10.786,0,0,0-4.418-.136,8.969,8.969,0,0,0-3.572,1.463,22.7,22.7,0,0,1,7.511.518,22.317,22.317,0,0,1,6.877,2.963,8.557,8.557,0,0,0-2.435-2.916A10.575,10.575,0,0,0,536.8,218.7Z" transform="translate(-528.812 -218.399)"/></g><g transform="translate(9.203 69.192)"><path class="a" d="M140.04,280.385a10.184,10.184,0,0,0,2.786,4.57,9.713,9.713,0,0,0,4.11,2.339,15.16,15.16,0,0,1-5-7.411,14.687,14.687,0,0,1,.4-8.834,9.217,9.217,0,0,0-2.308,4.033A9.912,9.912,0,0,0,140.04,280.385Z" transform="translate(-139.674 -271.049)"/></g></g><g transform="translate(60.081 121.582)"><path class="d" d="M61.869,136.632c1.669.886,30.673,14.581,31.591,12.97s-26.6-17.92-28.267-18.806a3.515,3.515,0,0,0-4.685,1.314A3.271,3.271,0,0,0,61.869,136.632Z" transform="translate(-60.081 -130.383)"/><path class="d" d="M83.229,180.487c1.053.059,18.923.228,18.984-.789s-17.711-2.833-18.764-2.892a1.887,1.887,0,0,0-2.016,1.734A1.868,1.868,0,0,0,83.229,180.487Z" transform="translate(-71.648 -156.272)"/><path class="d" d="M126.881,132.4c.286.793,5.789,14,6.611,13.721s-3.349-13.926-3.635-14.719a1.59,1.59,0,0,0-2.005-.937A1.509,1.509,0,0,0,126.881,132.4Z" transform="translate(-96.229 -130.383)"/><g transform="translate(221.941)"><path class="d" d="M584.788,136.632c-1.67.886-30.674,14.581-31.592,12.97s26.6-17.92,28.267-18.806a3.515,3.515,0,0,1,4.685,1.314A3.271,3.271,0,0,1,584.788,136.632Z" transform="translate(-549.207 -130.383)"/><path class="d" d="M578.353,180.487c-1.053.059-18.923.228-18.984-.789s17.711-2.833,18.764-2.892a1.845,1.845,0,1,1,.22,3.681Z" transform="translate(-552.564 -156.272)"/><path class="d" d="M551.232,132.4c-.285.793-5.789,14-6.611,13.721s3.35-13.926,3.635-14.719a1.59,1.59,0,0,1,2-.937A1.508,1.508,0,0,1,551.232,132.4Z" transform="translate(-544.515 -130.383)"/></g><g transform="translate(224.758 93.359)"><path class="d" d="M569.287,364.58c-.951-.455-16.658-8.89-16.188-9.807s16.942,6.03,17.892,6.485a1.824,1.824,0,0,1,.869,2.484A1.953,1.953,0,0,1,569.287,364.58Z" transform="translate(-551.978 -348.843)"/><path class="d" d="M556.356,369.319c-.363-.446-6.127-8.274-5.665-8.624s6.974,6.91,7.337,7.356a1,1,0,0,1-.179,1.441A1.09,1.09,0,0,1,556.356,369.319Z" transform="translate(-550.664 -352.186)"/><path class="d" d="M562.6,343.132c-.466.126-8.466,1.9-8.6,1.449s7.656-2.953,8.122-3.08a.881.881,0,0,1,1.081.586A.843.843,0,0,1,562.6,343.132Z" transform="translate(-552.474 -341.471)"/></g><path class="d" d="M236.789,130.383l1.229,2.4,2.749.386-1.989,1.872.47,2.643-2.458-1.248-2.459,1.248.47-2.643-1.989-1.872,2.749-.386Z" transform="translate(-153.676 -130.383)"/><path class="d" d="M634.391,212.024l1.229,2.4,2.749.386-1.989,1.872.47,2.643-2.458-1.248-2.459,1.248.47-2.643-1.989-1.872,2.749-.386Z" transform="translate(-369.118 -175.916)"/><path class="d" d="M167.469,323.069l4.279.337,2.713-3.212.991,4.033,4,1.5-3.667,2.156-.239,4.139-3.257-2.7-4.151,1.059,1.654-3.825Z" transform="translate(-118.27 -236.244)"/></g></g><g transform="translate(-1049 -1935)"><path class="e" d="M-480.215,318.54c.532.331,1.132.663,1.825,1.007a9.94,9.94,0,0,0,4.335,1.032,9.147,9.147,0,0,0,2.863-.462,27.714,27.714,0,0,0,6.57-2.785,27.14,27.14,0,0,0,2.465-1.662,8.012,8.012,0,0,0,1.185,1.213c.537.46,1.005.835,1.394,1.124s.827.593,1.214.841a9.072,9.072,0,0,0,2.68,1.194,7.347,7.347,0,0,0,1.9.238,10.646,10.646,0,0,0,2.454-.31q1.776-.326,3.721-.709c1.311-.258,2.6-.507,3.858-.742a8.718,8.718,0,0,0,1.654-.465c.383.281.781.559,1.147.794a9.071,9.071,0,0,0,2.68,1.194,7.339,7.339,0,0,0,1.9.238,10.654,10.654,0,0,0,2.454-.31q1.776-.326,3.721-.709c1.311-.258,2.6-.507,3.858-.742.1-.018.221-.041.365-.071.251.152.5.3.776.433a14.67,14.67,0,0,0,2.092.844c.624.2,1.261.372,1.952.521a6.6,6.6,0,0,0,4.929-.7,6.043,6.043,0,0,0,1.925-1.877c.267.089.544.174.832.256l.57.225,1.421.247a7.49,7.49,0,0,0,1.986.153,6.384,6.384,0,0,0,2-.455,8.22,8.22,0,0,0,1.182.721,11.667,11.667,0,0,0,2.237.9c.606.177,1.2.328,1.729.444a6.349,6.349,0,0,0,5.866-1.284A7.334,7.334,0,0,0-394.532,316l.237-.771q.225-.983.619-2.473.415-1.568.934-3.439.523-1.889,1.108-3.954t1.165-4.064c.383-1.315.759-2.567,1.133-3.767s.716-2.287.992-3.153a7.518,7.518,0,0,0-.012-5.314,7.33,7.33,0,0,0-3.776-3.833l-.11-.052a32.177,32.177,0,0,0-3.252-1.272c-1.007-.332-1.982-.624-2.825-.851a10.145,10.145,0,0,0-3.714-.426,7.576,7.576,0,0,0-4.278,1.826,10.386,10.386,0,0,0-2.175,2.691A8.5,8.5,0,0,0-409.731,286a10.08,10.08,0,0,0-2.536-1.344c-.92-.337-1.844-.63-2.755-.873a30.8,30.8,0,0,0-3.391-.672,8.648,8.648,0,0,0-3.363.135,8.5,8.5,0,0,0-3.2-.548c-1.364.046-2.751.155-4.125.325-1.283.159-2.568.35-3.824.567-1.232.215-2.442.456-3.594.719h0c-.2.046-.386.091-.583.136a7.963,7.963,0,0,0-5.282-1.749c-1.363.046-2.751.155-4.125.325-1.282.159-2.567.35-3.823.567-1.234.215-2.442.456-3.594.719h-.006q-1.657.378-3.013.725l-2.87.733a15.445,15.445,0,0,0-3.7-1.951,17.223,17.223,0,0,0-5.152-1.013,23.294,23.294,0,0,0-4.679.278,24.319,24.319,0,0,0-3.825.96,8.156,8.156,0,0,0-4.743-1.345c-1.365.046-2.753.155-4.123.325-1.283.159-2.569.35-3.826.567-1.236.216-2.446.457-3.592.719h-.006q-1.655.378-3.012.725l-1.172.3a10.925,10.925,0,0,0-5.384-2.524,16.674,16.674,0,0,0-5.549.072,25.7,25.7,0,0,0-5.094,1.469c-1.415.565-2.8,1.155-4.123,1.75l-.35.174a7.19,7.19,0,0,0-3.179,3.747,18.759,18.759,0,0,0-.949,3.058c-.226.984-.442,2.092-.639,3.288q-.288,1.736-.526,3.586-.234,1.8-.433,3.592c-.134,1.191-.252,2.308-.354,3.339s-.191,1.972-.263,2.8c-.069.782-.121,1.379-.171,1.9a7.939,7.939,0,0,0,.619,3.909,7.234,7.234,0,0,0,3.018,3.263l.18.1a9.782,9.782,0,0,0,2.729.956c.321.062.69.147,1.1.253l.193.047a8.187,8.187,0,0,0,1.759.2,6,6,0,0,0,3.1-.818,6.127,6.127,0,0,0,2.048-1.977q.6.464,1.113.817l.305.2a9.774,9.774,0,0,0,4.135,1.458,9.678,9.678,0,0,0,3.082-.191c.343-.058.635-.112.862-.158a7.007,7.007,0,0,0,2.318-.926c.064.042.133.1.2.135a9.065,9.065,0,0,0,2.681,1.194,7.346,7.346,0,0,0,1.9.238,10.645,10.645,0,0,0,2.454-.31q1.776-.326,3.72-.709c1.312-.258,2.6-.507,3.858-.742a8.455,8.455,0,0,0,1.826-.535" transform="translate(1712.689 1731.069)"/><path class="f" d="M5.625-2.54A23.416,23.416,0,0,0,7.375-.624Q8.341.327,9.306,1.2t1.871,1.6q.905.724,1.6,1.207a4.59,4.59,0,0,0,1.856.709A4.08,4.08,0,0,0,16.1,4.612q.543-.091.92-.166a2.4,2.4,0,0,0,.92-.5,1.168,1.168,0,0,0,.513-.634q.06-.3-.543-.815-.754-.6-1.614-1.418T14.557-.609q-.875-.875-1.705-1.75t-1.524-1.66a32.825,32.825,0,0,0,5.809-3.259,10.938,10.938,0,0,0,3.485-3.833,4.945,4.945,0,0,0,.3-3.319,10.589,10.589,0,0,0-1.343-3.214A18.963,18.963,0,0,0,17.666-20.1a5.63,5.63,0,0,0-3.093-1.584,11.181,11.181,0,0,0-3.742.06,20.227,20.227,0,0,0-4.014,1.162q-2.037.815-3.908,1.66a2.127,2.127,0,0,0-.754,1.071,13.494,13.494,0,0,0-.664,2.173q-.3,1.313-.573,2.957t-.5,3.395Q.193-7.459,0-5.709T-.35-2.434Q-.5-.91-.607.3T-.773,2.137A2.594,2.594,0,0,0-.622,3.39a1.811,1.811,0,0,0,.785.8,4.309,4.309,0,0,0,1.207.422q.634.121,1.449.332a1.46,1.46,0,0,0,.951,0,1.07,1.07,0,0,0,.407-.634q.332-1.63.679-3.319T5.625-2.54ZM8.854-14.792a9.3,9.3,0,0,1,2.233-.785,9.915,9.915,0,0,1,1.931-.211q1.78,0,2.143.845a1.95,1.95,0,0,1-.3,1.449,7.812,7.812,0,0,1-1.569,1.977,16.731,16.731,0,0,1-2.7,2.052,17.172,17.172,0,0,1-3.7,1.705Q7.466-9.752,7.918-11.5T8.854-14.792ZM23.339-19.56,20.472.508A2.631,2.631,0,0,0,20.7,1.9a3.044,3.044,0,0,0,.8,1q.634.543,1.1.89t.981.679a3.6,3.6,0,0,0,1.071.468,3.905,3.905,0,0,0,1.826-.136q1.811-.332,3.8-.724T34.2,3.314q.815-.151.966-.377a1.124,1.124,0,0,0,0-.83q-.241-.543-.438-1.071A6.888,6.888,0,0,0,34.173-.1a1.657,1.657,0,0,0-.8-.724A3.139,3.139,0,0,0,32.06-.941Q30.551-.85,29.269-.7t-2.7.392q.241-.845.453-1.705t.453-1.826Q29.223-4.2,31.11-4.5t3.7-.634a2.008,2.008,0,0,0,1.041-.422q.2-.241-.045-.935-.151-.6-.347-1.192A6.032,6.032,0,0,0,34.9-8.877a1.606,1.606,0,0,0-.815-.785,3.537,3.537,0,0,0-1.328-.151q-1.026.03-1.931.091t-1.811.181q.483-1.6.875-3.063t.845-2.822q2.143-.3,4.074-.513t3.742-.422a1.93,1.93,0,0,0,1.117-.392,1.343,1.343,0,0,0,.121-1.056q-.151-.694-.3-1.283a5.883,5.883,0,0,0-.543-1.313,2.032,2.032,0,0,0-2.2-1.328q-1.811.06-3.636.287t-3.561.528q-1.735.3-3.319.664T23.339-19.56ZM40-19.379,38.246-.216a5.263,5.263,0,0,0-.03,1.237,2.1,2.1,0,0,0,.257.815,2.678,2.678,0,0,0,.468.588q.272.257.573.528.815.6,1.449,1.011a15.893,15.893,0,0,0,1.479.83,4.078,4.078,0,0,0,3.229.272,22.242,22.242,0,0,0,5.4-2.263A19.954,19.954,0,0,0,55.191-.4a16.935,16.935,0,0,0,2.822-3.8,15.406,15.406,0,0,0,1.524-4.059,12.386,12.386,0,0,0,.226-3.968,10.033,10.033,0,0,0-1.056-3.561,9.972,9.972,0,0,0-2.444-3.289,10.175,10.175,0,0,0-3.154-1.856,11.707,11.707,0,0,0-3.531-.694A17.578,17.578,0,0,0,46-21.416a18.692,18.692,0,0,0-3.3.845A18.628,18.628,0,0,0,40-19.379ZM44.04.327Q44.795-3.6,45.61-7.444t1.871-7.8a5,5,0,0,1,3.319-.121,3.384,3.384,0,0,1,1.9,1.539,5.432,5.432,0,0,1,.422,2.867,10.894,10.894,0,0,1-.634,2.867,12.677,12.677,0,0,1-1.63,3.078,15.419,15.419,0,0,1-2.776,2.942A16.1,16.1,0,0,1,44.04.327ZM62.871-19.56,60,.508A2.631,2.631,0,0,0,60.231,1.9a3.044,3.044,0,0,0,.8,1q.634.543,1.1.89t.981.679a3.6,3.6,0,0,0,1.071.468,3.905,3.905,0,0,0,1.826-.136q1.811-.332,3.8-.724t3.923-.754q.815-.151.966-.377a1.124,1.124,0,0,0,0-.83q-.241-.543-.438-1.071A6.888,6.888,0,0,0,73.7-.1a1.657,1.657,0,0,0-.8-.724,3.139,3.139,0,0,0-1.313-.121Q70.083-.85,68.8-.7t-2.7.392q.241-.845.453-1.705t.453-1.826q1.75-.362,3.636-.664t3.7-.634a2.008,2.008,0,0,0,1.041-.422q.2-.241-.045-.935-.151-.6-.347-1.192a6.032,6.032,0,0,0-.558-1.192,1.606,1.606,0,0,0-.815-.785,3.537,3.537,0,0,0-1.328-.151q-1.026.03-1.931.091t-1.811.181q.483-1.6.875-3.063t.845-2.822q2.143-.3,4.074-.513t3.742-.422a1.93,1.93,0,0,0,1.117-.392,1.343,1.343,0,0,0,.121-1.056q-.151-.694-.3-1.283a5.883,5.883,0,0,0-.543-1.313,2.032,2.032,0,0,0-2.2-1.328q-1.811.06-3.636.287t-3.561.528q-1.735.3-3.319.664T62.871-19.56Zm17.412,0L77.417.508A2.631,2.631,0,0,0,77.643,1.9a3.044,3.044,0,0,0,.8,1q.634.543,1.1.89t.981.679a3.6,3.6,0,0,0,1.071.468,3.905,3.905,0,0,0,1.826-.136q1.811-.332,3.8-.724t3.923-.754q.815-.151.966-.377a1.124,1.124,0,0,0,0-.83q-.241-.543-.438-1.071A6.887,6.887,0,0,0,91.117-.1a1.657,1.657,0,0,0-.8-.724A3.139,3.139,0,0,0,89-.941Q87.5-.85,86.213-.7t-2.7.392q.241-.845.453-1.705t.453-1.826q1.75-.362,3.636-.664t3.7-.634a2.008,2.008,0,0,0,1.041-.422q.2-.241-.045-.935Q92.6-7.1,92.4-7.685a6.031,6.031,0,0,0-.558-1.192,1.606,1.606,0,0,0-.815-.785A3.537,3.537,0,0,0,89.7-9.813q-1.026.03-1.931.091t-1.811.181q.483-1.6.875-3.063t.845-2.822q2.143-.3,4.074-.513t3.742-.422a1.93,1.93,0,0,0,1.117-.392,1.343,1.343,0,0,0,.121-1.056q-.151-.694-.3-1.283a5.883,5.883,0,0,0-.543-1.313,2.032,2.032,0,0,0-2.2-1.328q-1.811.06-3.636.287t-3.561.528q-1.735.3-3.319.664T80.283-19.56ZM102.1-10.235q.453,3.018,1.011,5.854T104.274.629q.151.513.287.845a2.257,2.257,0,0,0,.317.558,1.447,1.447,0,0,0,.422.362,3.88,3.88,0,0,0,.573.257,17.748,17.748,0,0,0,2.112.543,2.313,2.313,0,0,0,.634.075.862.862,0,0,0,.392-.106.721.721,0,0,0,.257-.287q.106-.2.257-.528.483-1.056,1.283-2.641t1.75-3.365q.951-1.78,1.962-3.621t1.916-3.41q-.513,1.78-.951,3.682t-.8,3.636q-.362,1.735-.634,3.169t-.392,2.339a1.876,1.876,0,0,0,.075,1.207,1.876,1.876,0,0,0,.92.785,6.16,6.16,0,0,0,1.267.513q.724.211,1.418.362.785.181,1.056-.06a2.022,2.022,0,0,0,.483-.785q.241-1.056.664-2.656t.951-3.5q.528-1.9,1.117-3.983t1.177-4.1q.588-2.022,1.162-3.863t1.026-3.259a2.316,2.316,0,0,0,.106-1.554,2.073,2.073,0,0,0-1.1-.981,26.8,26.8,0,0,0-2.7-1.056q-1.373-.453-2.61-.785a4.97,4.97,0,0,0-1.735-.241,2.125,2.125,0,0,0-1.222.528,5.218,5.218,0,0,0-1.056,1.358q-.513.89-1.207,2.278-.694,1.207-1.433,2.565t-1.433,2.716q-.694,1.358-1.343,2.656t-1.132,2.384q-.483-3.108-.754-4.889t-.407-2.746q-.136-.966-.181-1.343a5.559,5.559,0,0,1-.045-.649q-.121-.573-.226-1.026a2.64,2.64,0,0,0-.347-.83,2.69,2.69,0,0,0-.664-.694,4.645,4.645,0,0,0-1.147-.588q-1.147-.422-2.278-.724a25.329,25.329,0,0,0-2.761-.543,2.711,2.711,0,0,0-1.554.106,1.912,1.912,0,0,0-.77,1.283q-.272,1.418-.558,3.274T95.84-12.77q-.287,2.082-.528,4.225t-.438,4.134q-.2,1.992-.3,3.7t-.106,2.882a1.95,1.95,0,0,0,.211,1.207,2.445,2.445,0,0,0,1.026.785,9.158,9.158,0,0,0,1.313.528q.709.226,1.4.377a1.5,1.5,0,0,0,1-.015,1.059,1.059,0,0,0,.392-.709q.121-1.3.347-2.957t.528-3.561q.3-1.9.664-3.953T102.1-10.235Z" transform="translate(1194.218 2040.932)"/></g></g></svg>