<svg xmlns="http://www.w3.org/2000/svg" width="31.637" height="27.947" viewBox="0 0 31.637 27.947"><defs><style>.a{fill:#12faa5;}</style></defs><path class="a" d="M30.256,20.78c-1.428-.769-3.02.714-3.953,1.592-2.141,2.087-3.953,4.5-5.985,6.7-2.251,2.416-4.338,4.832-6.644,7.193a19.811,19.811,0,0,0-3.624,4.393,72.075,72.075,0,0,0-5.875-5.711C2.582,33.739-.053,32.86,0,35.77c.11,3.789,3.459,7.852,5.93,10.433,1.043,1.1,2.416,2.251,4.008,2.306,1.922.11,3.9-2.2,5.052-3.459,2.032-2.2,3.679-4.667,5.546-6.919,2.416-2.965,4.887-5.875,7.248-8.9C29.268,27.369,33.935,22.757,30.256,20.78ZM2.417,35.551a.416.416,0,0,0-.22.055,2.672,2.672,0,0,1-.6-.22h0Q1.841,35.221,2.417,35.551Z" transform="translate(-0.001 -20.566)"/></svg>