<svg xmlns="http://www.w3.org/2000/svg" width="15.686" height="22.782" viewBox="0 0 15.686 22.782"><defs><style>.a{fill:#a3c59d;}.b{fill:#211915;}</style></defs><g transform="translate(-79.957 -55.028)"><path class="a" d="M101.833,91.4c0,2.009-.4,3.947-1.766,5.214a10.159,10.159,0,0,1-5.745,2.294c-1.967,0-3.031-1.3-4.294-2.618A7.128,7.128,0,0,1,88.4,91.3a8.844,8.844,0,0,1,1.932-5.241c1.492-1.386,2.458-1.265,4.716-1.265a7.44,7.44,0,0,1,5.2,2.408A5.387,5.387,0,0,1,101.833,91.4Z" transform="translate(-6.942 -24.47)"/><g transform="translate(83.667 75.65)"><g transform="translate(0 0)"><path class="b" d="M101.682,171.09a.364.364,0,0,1,.065.18.427.427,0,0,1-.028.179,1.117,1.117,0,0,1-.092.191l-.608-.344a.415.415,0,0,0-.056.238.228.228,0,0,0,.129.175.255.255,0,0,0,.215.026.284.284,0,0,0,.107-.069l.138.078a.333.333,0,0,1-.094.082.425.425,0,0,1-.121.054.372.372,0,0,1-.2,0,.551.551,0,0,1-.121-.052.4.4,0,0,1-.2-.263.509.509,0,0,1,.072-.379.554.554,0,0,1,.294-.265.41.41,0,0,1,.355.035A.433.433,0,0,1,101.682,171.09Zm-.136.357a.421.421,0,0,0,.043-.168.232.232,0,0,0-.133-.21.243.243,0,0,0-.2-.021.305.305,0,0,0-.169.138Z" transform="translate(-100.801 -170.891)"/><path class="b" d="M107.647,174.517a.231.231,0,0,0-.007.13.261.261,0,0,0,.173.151.322.322,0,0,0,.164.022.129.129,0,0,0,.109-.087.1.1,0,0,0-.018-.108.664.664,0,0,0-.114-.094l-.11-.077a.643.643,0,0,1-.147-.13.2.2,0,0,1-.033-.207.275.275,0,0,1,.173-.169.4.4,0,0,1,.28.019.374.374,0,0,1,.249.234.274.274,0,0,1-.008.184l-.142-.056a.183.183,0,0,0,0-.107.256.256,0,0,0-.161-.131.24.24,0,0,0-.145-.019.109.109,0,0,0-.078.068.113.113,0,0,0,.023.116.379.379,0,0,0,.086.076l.092.064a.86.86,0,0,1,.192.162.216.216,0,0,1,.017.216.3.3,0,0,1-.172.171.423.423,0,0,1-.313-.022.4.4,0,0,1-.251-.2.366.366,0,0,1,0-.26Z" transform="translate(-106.292 -173.389)"/><path class="b" d="M114.769,174.363l.158.042-.069.259.148.039-.034.127-.148-.039-.16.606a.068.068,0,0,0,.016.074.143.143,0,0,0,.058.025l.024.006.031.005-.033.124a.393.393,0,0,1-.059,0,.584.584,0,0,1-.064-.013.175.175,0,0,1-.133-.1.257.257,0,0,1,0-.156l.163-.614-.126-.033.034-.127.126.033Z" transform="translate(-112.056 -173.745)"/><path class="b" d="M123.467,176.653a.557.557,0,0,1,.243-.211l.177-.091a.807.807,0,0,0,.168-.107.251.251,0,0,0,.024-.348.245.245,0,0,0-.176-.075.234.234,0,0,0-.235.114.45.45,0,0,0-.047.185l-.164-.008a.575.575,0,0,1,.075-.27.388.388,0,0,1,.379-.168.381.381,0,0,1,.4.405.361.361,0,0,1-.122.258,1.07,1.07,0,0,1-.232.143l-.126.062a.8.8,0,0,0-.143.085.337.337,0,0,0-.121.167l.7.035-.007.152-.88-.044A.747.747,0,0,1,123.467,176.653Z" transform="translate(-119.364 -174.822)"/><path class="b" d="M131.708,175.709a.918.918,0,0,1,.127.425,1.048,1.048,0,0,1-.036.439.382.382,0,0,1-.344.28.37.37,0,0,1-.362-.167.92.92,0,0,1-.137-.439,1.115,1.115,0,0,1,.02-.379.387.387,0,0,1,.353-.328A.38.38,0,0,1,131.708,175.709Zm-.08.867a.8.8,0,0,0,.035-.419,1.023,1.023,0,0,0-.088-.353.205.205,0,0,0-.222-.12.219.219,0,0,0-.2.153.927.927,0,0,0-.028.4.962.962,0,0,0,.072.31.229.229,0,0,0,.426.03Z" transform="translate(-125.584 -174.71)"/><path class="b" d="M138.494,174.695l-.03-.12a.66.66,0,0,0,.223-.114.28.28,0,0,0,.054-.208l.124-.031.309,1.241-.167.041-.22-.882Z" transform="translate(-131.76 -173.629)"/><path class="b" d="M145.307,173.082a.2.2,0,0,0,.166.131.229.229,0,0,0,.113-.018.25.25,0,0,0,.145-.164.794.794,0,0,0-.043-.406.3.3,0,0,1-.077.162.42.42,0,0,1-.145.1.382.382,0,0,1-.315.006.418.418,0,0,1-.214-.233.478.478,0,0,1-.019-.325.38.38,0,0,1,.24-.243.387.387,0,0,1,.455.085.89.89,0,0,1,.188.3,1.145,1.145,0,0,1,.095.413.41.41,0,0,1-.252.432.386.386,0,0,1-.3.019.337.337,0,0,1-.185-.191Zm.263-.463a.267.267,0,0,0-.011-.234.281.281,0,0,0-.146-.167.25.25,0,0,0-.194.005.237.237,0,0,0-.143.145.309.309,0,0,0,.017.222.3.3,0,0,0,.133.161.238.238,0,0,0,.208-.006A.276.276,0,0,0,145.57,172.619Z" transform="translate(-137.049 -171.844)"/></g></g><g transform="translate(79.957 55.028)"><g transform="translate(0 0)"><path class="b" d="M80.9,73.759a.9.9,0,0,1,.625.315l-.281.23a.688.688,0,0,0-.337-.173.476.476,0,0,0-.382.134.526.526,0,0,0-.171.6,1.423,1.423,0,0,0,.282.5,1.076,1.076,0,0,0,.471.353.543.543,0,0,0,.685-.447.8.8,0,0,0-.1-.424l.281-.23a1,1,0,0,1,.175.706.96.96,0,0,1-.362.565.846.846,0,0,1-.744.19,1.252,1.252,0,0,1-.714-.462,1.378,1.378,0,0,1-.367-.9A.915.915,0,0,1,80.308,74,.959.959,0,0,1,80.9,73.759Z" transform="translate(-79.957 -70.425)"/><path class="b" d="M95.141,65.215a.851.851,0,0,1,.427.128,1.025,1.025,0,0,1,.3.3,2.666,2.666,0,0,1,.235.44l-1.476.666a.988.988,0,0,0,.373.439.527.527,0,0,0,.5,0,.588.588,0,0,0,.342-.371.675.675,0,0,0,.016-.3l.335-.151a.8.8,0,0,1,.026.293,1,1,0,0,1-.064.3.859.859,0,0,1-.288.38,1.245,1.245,0,0,1-.263.155.922.922,0,0,1-.764.008,1.211,1.211,0,0,1-.616-.666,1.318,1.318,0,0,1-.1-.925.945.945,0,0,1,.549-.621A.99.99,0,0,1,95.141,65.215Zm.488.754a1,1,0,0,0-.258-.316.535.535,0,0,0-.577-.041.557.557,0,0,0-.313.349.723.723,0,0,0,.03.513Z" transform="translate(-91.57 -63.401)"/><path class="b" d="M112,56.027a1.013,1.013,0,0,1,.257.184l-.175-1.129.355-.055.476,3.075-.333.052-.048-.311a.811.811,0,0,1-.259.345.867.867,0,0,1-.389.154.82.82,0,0,1-.683-.216,1.258,1.258,0,0,1-.4-.794,1.478,1.478,0,0,1,.114-.884.805.805,0,0,1,.643-.466A.777.777,0,0,1,112,56.027Zm-.566,1.8a.525.525,0,0,0,.516.168.506.506,0,0,0,.385-.289,1.089,1.089,0,0,0,.065-.669.978.978,0,0,0-.267-.6.531.531,0,0,0-.45-.138.555.555,0,0,0-.417.287,1.022,1.022,0,0,0-.074.665A1.138,1.138,0,0,0,111.43,57.83Z" transform="translate(-105.293 -55.028)"/><path class="b" d="M128.778,59.721l.354.027-.03.39a.858.858,0,0,1,.235-.261.55.55,0,0,1,.4-.133l.035,0,.084.015-.031.4a.617.617,0,0,0-.061-.013l-.061-.007a.53.53,0,0,0-.447.151.652.652,0,0,0-.184.413l-.1,1.3-.373-.028Z" transform="translate(-119.946 -58.886)"/><path class="b" d="M141.712,62.813a1.152,1.152,0,0,1,.026.905,1.491,1.491,0,0,1-.518.784.931.931,0,0,1-.877.1.9.9,0,0,1-.6-.517,1.264,1.264,0,0,1,0-.888,1.366,1.366,0,0,1,.541-.781.939.939,0,0,1,.825-.1A.989.989,0,0,1,141.712,62.813Zm-.67,1.365a1.45,1.45,0,0,0,.32-.566,1.154,1.154,0,0,0,.059-.521.553.553,0,0,0-.421-.459.527.527,0,0,0-.55.106,1.256,1.256,0,0,0-.339.566,1.092,1.092,0,0,0-.032.62.539.539,0,0,0,.4.375A.507.507,0,0,0,141.042,64.177Z" transform="translate(-129.037 -60.977)"/><path class="b" d="M155.146,68.258l.3.191-.172.27a.994.994,0,0,1,.435-.06.877.877,0,0,1,.378.138.645.645,0,0,1,.359.628,1.209,1.209,0,0,1-.206.492l-.781,1.222-.321-.2.767-1.2a.778.778,0,0,0,.129-.314.364.364,0,0,0-.191-.373.721.721,0,0,0-.2-.094.614.614,0,0,0-.555.141,1.569,1.569,0,0,0-.207.272l-.638,1-.315-.2Z" transform="translate(-140.763 -65.903)"/></g></g><path d="M108.531,92.523l-1.174.4a14.839,14.839,0,0,1-1.347,3.515c-.008.014-.032.018-.093.05.195-.419.382-.8.546-1.182s.318-.79.454-1.193.245-.812.371-1.233l-.309-.219c-.192-.138-.38-.282-.578-.412a.462.462,0,0,0-.24-.081,2.3,2.3,0,0,1-2.071-1.2.719.719,0,0,1-.1-.447.411.411,0,0,1,.391-.394,1.014,1.014,0,0,1,.585.135,2.99,2.99,0,0,1,1.194,1.155,2.938,2.938,0,0,1,.176.556.352.352,0,0,0,.081.171c.275.206.558.4.852.61a.593.593,0,0,0,.07-.137c.09-.533.175-1.066.266-1.6a.268.268,0,0,0-.1-.269q-.649-.582-1.292-1.171a.214.214,0,0,0-.226-.03c-.131.032-.26.075-.393.1a1.232,1.232,0,0,1-.816-.185,5.245,5.245,0,0,1-1.289-.975,1.81,1.81,0,0,1-.453-.8.361.361,0,0,1,.3-.484,2.492,2.492,0,0,1,.624-.017,2.232,2.232,0,0,1,1.109.462,7.2,7.2,0,0,1,.679.6,1.487,1.487,0,0,1,.468,1.2l1.42,1.279a16.939,16.939,0,0,0,0-2.882l-.771-.3a.505.505,0,0,1-.112-.047,1.16,1.16,0,0,0-.69-.187,2.537,2.537,0,0,1-1.193-.355,4.139,4.139,0,0,1-1.131-.879,3.586,3.586,0,0,1-.373-.5.954.954,0,0,1-.115-.362.4.4,0,0,1,.4-.5,1.356,1.356,0,0,1,.383.012,2.57,2.57,0,0,1,1.169.524,4.183,4.183,0,0,1,.78.79,2.386,2.386,0,0,1,.491,1.208,5.04,5.04,0,0,0,1.149.487,12.162,12.162,0,0,0-.338-1.959,6.784,6.784,0,0,1-.616-.352,2.313,2.313,0,0,1-.679-.872,7.1,7.1,0,0,1-.711-2.187,4.715,4.715,0,0,1-.023-1.232.372.372,0,0,1,.6-.316,2.2,2.2,0,0,1,.523.41,4.437,4.437,0,0,1,1.128,2.381,4.936,4.936,0,0,1-.12,1.988,1.023,1.023,0,0,0,.032.4c.093.558.192,1.114.288,1.671,0,0,.008.008.031.031.106-.1.218-.192.322-.294.058-.056.1-.128.156-.186a.794.794,0,0,0,.184-.725,5.383,5.383,0,0,1,.068-2.1,3.226,3.226,0,0,1,.462-1.138,1.838,1.838,0,0,1,.376-.39c.215-.161.369-.134.5.1a2.284,2.284,0,0,1,.274.67,3.4,3.4,0,0,1-.105,1.761,2.821,2.821,0,0,1-.306.7,2.11,2.11,0,0,1-1.055.815.378.378,0,0,0-.176.117,3.761,3.761,0,0,1-.717.783,15.544,15.544,0,0,1,.007,2.815c.093-.072.154-.116.212-.164.3-.243.595-.488.894-.73a.46.46,0,0,0,.2-.41,1.817,1.817,0,0,1,.186-.844c.177-.379.371-.75.559-1.124a3.525,3.525,0,0,1,.6-.885,1.415,1.415,0,0,1,.642-.405.473.473,0,0,1,.609.349,1.781,1.781,0,0,1,.03.922,2.6,2.6,0,0,1-.853,1.37c-.2.185-.422.358-.644.523a1.737,1.737,0,0,1-.939.344.343.343,0,0,0-.211.1q-.423.362-.85.721c-.118.1-.247.19-.354.3a.4.4,0,0,0-.11.228,14.476,14.476,0,0,1-.28,1.718,1.043,1.043,0,0,0-.008.132,3.23,3.23,0,0,0,1.025-.347,1.418,1.418,0,0,1,.544-1.249,2.115,2.115,0,0,1,1.244-.583.516.516,0,0,1,.371.061.234.234,0,0,1,.125.306,1.478,1.478,0,0,1-.2.438,10.068,10.068,0,0,1-.749.849,1.63,1.63,0,0,1-.471.309A.684.684,0,0,1,108.531,92.523Zm2.067-4.836a1.59,1.59,0,0,0,.942-.419.2.2,0,0,0,.057-.1.9.9,0,0,0-.017-.5c-.192.115-.376.225-.558.336a.289.289,0,0,0-.106.085C110.812,87.269,110.715,87.461,110.6,87.687Zm.966-.245-.044-.033a1.721,1.721,0,0,1-.885.357.2.2,0,0,0-.135.071c-.075.1-.136.211-.207.324a.322.322,0,0,0,.072.026,2.313,2.313,0,0,0,.9-.2.118.118,0,0,0,.063-.045C111.408,87.779,111.485,87.611,111.563,87.442Zm-6.636-1.188a2.369,2.369,0,0,0,.036-.819c-.036-.292-.128-.394-.411-.443,0,.3.006.6.015.9a.186.186,0,0,0,.049.123C104.706,86.094,104.8,86.162,104.927,86.255Zm-.106,2.216-.326-.238a2.016,2.016,0,0,1-.968.144,2.565,2.565,0,0,0,.341.345.212.212,0,0,0,.134.027A1.447,1.447,0,0,0,104.821,88.471Zm-.806.354c.187.182.351.307.582.265.185-.033.369-.075.551-.121a1.015,1.015,0,0,0,.184-.095l-.434-.343A1.61,1.61,0,0,1,104.015,88.824Zm1.024-3.584a3.355,3.355,0,0,1-.031,1.074l.294.213c.023-.048.04-.077.05-.107a1.8,1.8,0,0,0,.056-.74.368.368,0,0,0-.154-.292C105.182,85.338,105.11,85.29,105.038,85.241Zm5.654,1.1-.033-.021c-.065.072-.16.132-.19.216a1.817,1.817,0,0,0-.022,1.178c.138-.242.392-.442.253-.774a.159.159,0,0,1-.007-.06Q110.692,86.615,110.693,86.345Zm-6.659-1.538c.027.253.048.474.074.695a.19.19,0,0,0,.041.107c.095.093.2.18.315.286a1.884,1.884,0,0,0-.043-.929.137.137,0,0,0-.078-.084C104.243,84.851,104.139,84.832,104.034,84.807Zm4.735-1.079a.482.482,0,0,0-.108.394,1.605,1.605,0,0,0,.47.781l.117-.467Zm-3.275,1.9c0,.188.01.342,0,.494s-.051.3-.082.476l.339.23A1,1,0,0,0,105.495,85.624Zm.078-2.4a.907.907,0,0,0,1.054.684l-.13-.313c-.176-.051-.335-.085-.483-.145S105.722,83.3,105.573,83.222Zm3.543,2.092a1.584,1.584,0,0,0,.8-.4c.133-.131.143-.183.088-.4a1.708,1.708,0,0,1-.711.367.158.158,0,0,0-.093.094C109.168,85.074,109.149,85.179,109.116,85.314Zm-1.9-2.4a2.1,2.1,0,0,1-.5.979c.049.11.05.237.155.316A1.166,1.166,0,0,0,107.216,82.917Zm2.741,2.116a.153.153,0,0,0-.048.01,1.593,1.593,0,0,1-.726.33.156.156,0,0,0-.107.076c-.041.1-.064.21-.1.339a1.441,1.441,0,0,0,.893-.437A.417.417,0,0,0,109.956,85.033Zm-.3,2.727c-.059.1-.11.21-.177.306a.727.727,0,0,0-.005.8.576.576,0,0,0,.089.1,2.48,2.48,0,0,0,.179-.217.2.2,0,0,0,.035-.146A2.552,2.552,0,0,1,109.655,87.76Zm1.519.4c-.02-.009-.034-.02-.043-.017a2.516,2.516,0,0,1-.831.139.179.179,0,0,0-.123.048,3.192,3.192,0,0,0-.189.268,3.381,3.381,0,0,0,.585,0A.726.726,0,0,0,111.174,88.158Zm-1.312.435c.063-.079.109-.145.164-.2a.273.273,0,0,0,.06-.294,2.254,2.254,0,0,1-.079-.8c0-.036,0-.072,0-.125A1.658,1.658,0,0,0,109.863,88.593Zm-3.74-5.913c-.075-.18-.137-.333-.2-.484a.152.152,0,0,0-.067-.072c-.174-.082-.35-.16-.559-.255.024.133.011.267.07.346A1.24,1.24,0,0,0,106.123,82.68Zm2.86,2.713.114-.345-.5-.75A.925.925,0,0,0,108.983,85.393Zm-2.872-4.276a4.168,4.168,0,0,1-.146.63.62.62,0,0,0,.118.585,2.005,2.005,0,0,0,.132-.248,1.906,1.906,0,0,0,.1-.653A.33.33,0,0,0,106.111,81.117Zm-1.555,6.345c.035.23.063.436.1.641a.345.345,0,0,0,.068.179,3.59,3.59,0,0,0,.321.254,2.033,2.033,0,0,0-.125-.79A.461.461,0,0,0,104.556,87.463Zm2.471-2.7a1.343,1.343,0,0,0,.368-1.216l-.494.845Zm1.827,1.4a1.581,1.581,0,0,0,.739-.139.088.088,0,0,0,.042-.042c.072-.14.141-.281.212-.421l-.035-.03a1.735,1.735,0,0,1-.879.349Zm-2.577-1.314a1.429,1.429,0,0,0,.937.737c-.051-.155-.091-.3-.149-.441-.015-.037-.081-.059-.128-.075-.171-.059-.344-.112-.516-.168C106.378,84.889,106.337,84.872,106.277,84.85Zm-.811,6.674a1.1,1.1,0,0,1-.125-.1.48.48,0,0,0-.565-.18,1.213,1.213,0,0,1-.365.006A.888.888,0,0,0,105.466,91.523Zm4-8.672c-.09.052-.133.071-.169.1-.3.231-.328.345-.146.674a.451.451,0,0,0,.234.252Zm-2.805-1.091a1.82,1.82,0,0,1-.385,1.068l.122.253a1.6,1.6,0,0,0,.4-.9A.426.426,0,0,0,106.664,81.76Zm-.318,5.429a1.579,1.579,0,0,0-.392-1l-.082.715Zm.569-5.02a2.1,2.1,0,0,1-.48,1.018l.105.26A1.272,1.272,0,0,0,106.915,82.168Zm3.376,4.517a.933.933,0,0,0-.151.271,4.138,4.138,0,0,0-.044.7.823.823,0,0,0,.1.455c.087-.1.2-.181.161-.32a2.265,2.265,0,0,1-.04-1.04C110.321,86.745,110.31,86.733,110.291,86.685Zm-3.614-2.651a1.836,1.836,0,0,1-.928-.282,1.025,1.025,0,0,0,1.029.583Zm.6,1.471a2.565,2.565,0,0,0,.155-1.219l-.363.576Zm-4.045,1.809.864.525-.1-.565A1.25,1.25,0,0,0,103.233,87.315Zm6.711-3.739a2.053,2.053,0,0,1-.337.278c-.208.109-.209.283-.213.481a.817.817,0,0,0,.491-.268C110.067,83.9,110.072,83.826,109.945,83.576Zm-5.416,4.563.049-.021c-.034-.19-.058-.382-.1-.568s-.148-.247-.37-.224c.023.165.041.331.073.494a.266.266,0,0,0,.086.146A2.85,2.85,0,0,0,104.529,88.139Zm1.717-5.416a2.323,2.323,0,0,0,.156-.24,1.778,1.778,0,0,0,.163-.724.349.349,0,0,0-.151-.331,1.761,1.761,0,0,1-.3,1.005Zm2.318,4.105a1.616,1.616,0,0,0,.9-.638l-.669.106Zm-2.961,4.65c.147-.441.009-.759-.325-.862.009.152.022.305.025.459C105.308,91.305,105.363,91.383,105.6,91.478Zm3.34-5.928-.479-.656a.91.91,0,0,0,.385.975Zm.544-1.762.04.025c.15-.122.326-.218.389-.414-.146-.4-.189-.459-.351-.51Q109.526,83.339,109.487,83.788Zm.552.3a5.9,5.9,0,0,1-.508.31c-.208.1-.234.119-.241.387a.512.512,0,0,0,.114-.016,1.621,1.621,0,0,0,.564-.341A.279.279,0,0,0,110.04,84.084Zm-4.32,4.971c.071-.4.13-.759-.28-.985,0,.216.008.431,0,.645a.214.214,0,0,0,.09.208C105.585,88.965,105.646,89,105.72,89.055Zm3.725,2.616.045.025a1.231,1.231,0,0,0,.261-.293,5.329,5.329,0,0,0,.19-.648c-.12.019-.237.027-.3.144A1.518,1.518,0,0,0,109.445,91.671Zm-3.019-8.235a.286.286,0,0,0-.252-.281,1.735,1.735,0,0,1-.438-.195,2.573,2.573,0,0,1-.276-.2A.939.939,0,0,0,106.426,83.436Zm3.294,5.491c.49.152.785.052.962-.24h-.774ZM103.4,84.908l.582.568a1,1,0,0,0-.1-.681A.678.678,0,0,0,103.4,84.908Zm1.635,4.575a1.428,1.428,0,0,0,1.01-.036l-.374-.3Zm5.787-2.434a4.026,4.026,0,0,0,.386-.894c-.267-.035-.372.029-.423.259A1.135,1.135,0,0,0,110.826,87.049Zm-3.808-2.043-.106-.319c-.158-.036-.3-.061-.446-.1s-.28-.1-.42-.15C106.241,84.826,106.61,84.894,107.018,85.006ZM105.836,81.8a1.29,1.29,0,0,0,.148-.744.16.16,0,0,0-.065-.094c-.077-.042-.162-.072-.253-.11.014.206.035.379.036.553A.744.744,0,0,0,105.836,81.8Zm.848,1.983a1.761,1.761,0,0,0,.473-1.022.224.224,0,0,0-.088-.235,1.909,1.909,0,0,1-.486,1.038Zm-2.143,5.394-.007.055c.107.053.216.154.32.15a1.014,1.014,0,0,0,.7-.3c-.127-.135-.13-.143-.222-.1A1.749,1.749,0,0,1,104.542,89.175Zm4.58,2.8c.111-.078.232-.105.237-.248a2.267,2.267,0,0,1,.15-.812.461.461,0,0,0-.2.147A1.445,1.445,0,0,0,109.122,91.979Zm-4.081-4.24c.03.263.062.521.088.779.013.125.1.173.229.24,0-.21,0-.384,0-.557A.479.479,0,0,0,105.041,87.738Zm1.231-4.647c-.055-.237-.069-.281-.151-.309a1.8,1.8,0,0,1-.735-.408A1.09,1.09,0,0,0,106.272,83.091Zm-.939,3.542c-.147-.076-.253-.173-.365-.18a3.979,3.979,0,0,0-.608.049A.745.745,0,0,0,105.333,86.633Zm-.448,5.05a.8.8,0,0,0,.927.167c-.119-.2-.184-.227-.387-.2C105.247,91.666,105.067,91.671,104.886,91.683Zm.081-.568c-.134-.14-.231-.285-.448-.22a.78.78,0,0,1-.256-.018c-.041,0-.082,0-.132,0C104.311,91.2,104.494,91.253,104.967,91.116Zm4.521-2.061-.22-.491a1.441,1.441,0,0,0-.126.868ZM108.92,83.4a.288.288,0,0,0-.023.335,1.475,1.475,0,0,0,.387.547c.027-.128.1-.213.023-.317C109.176,83.781,109.052,83.593,108.92,83.4ZM104.9,86.35l-.307-.243c-.111.013-.2.025-.3.034s-.2.018-.3.027A.862.862,0,0,0,104.9,86.35Zm5.183,4.862.018.043c.122-.014.244-.024.365-.043.148-.024.151-.158.172-.263a.2.2,0,0,0-.15-.242Zm-1.4-4.874.124-.326-.383-.511A.874.874,0,0,0,108.68,86.338Zm.436,4.845a1.082,1.082,0,0,0-.289,1.025l.219-.157-.034-.016C109.046,91.752,109.08,91.47,109.116,91.183Zm-5.951-3.8a.84.84,0,0,0-.058.154c-.029.212.033.29.245.288a3.552,3.552,0,0,0,.386-.046l.011-.051Zm1.722-.532a.947.947,0,0,0,.443.215.375.375,0,0,0,.379-.152c-.118-.075-.2-.2-.352-.166S105.059,86.81,104.887,86.848Zm6.44-.7-.3.721a.884.884,0,0,0,.444-.278.17.17,0,0,0,.028-.248A2.4,2.4,0,0,0,111.327,86.151Zm-6.4,4.207a2.5,2.5,0,0,1,.03.43c-.022.206.1.3.286.412l-.075-.7Zm-.549-2.177a.263.263,0,0,0-.355-.118,1.7,1.7,0,0,1-.434.073,1.32,1.32,0,0,1-.238-.019c0,.119.088.132.154.14A1.571,1.571,0,0,0,104.379,88.182Zm1.726,1.191a1.026,1.026,0,0,0-.233-.8c-.016.133-.02.253-.045.367a.276.276,0,0,0,.147.338A1.293,1.293,0,0,1,106.105,89.373Zm-2.654-3.843c.146.3.363.375.711.234a.409.409,0,0,0-.416-.213A1.269,1.269,0,0,1,103.451,85.53Zm2.307,5.5c-.02.165-.043.317-.054.469a.207.207,0,0,0,.049.14,1.1,1.1,0,0,0,.175.13A.588.588,0,0,0,105.758,91.033Zm-1.631-.7a1.208,1.208,0,0,0-.06.118c-.069.2-.024.289.184.33a2.193,2.193,0,0,0,.313.019l.017-.041Zm5.537,1.85c-.093,0-.178-.006-.262-.015a2.05,2.05,0,0,0-.26-.033.289.289,0,0,0-.24.147A.587.587,0,0,0,109.664,92.187Zm.772-.847c-.142,0-.269,0-.395,0s-.205.095-.238.245a2.382,2.382,0,0,1,.241.014A.318.318,0,0,0,110.436,91.34Zm-5.111-9.809c-.032.088-.041.166.029.228a.781.781,0,0,0,.462.224l-.18-.394Zm-.725,8.7c-.03.335.036.5.253.613a.886.886,0,0,0-.025-.437A.2.2,0,0,0,104.6,90.233Zm-1.361-2.3a.924.924,0,0,0,.819.036c-.12-.145-.139-.16-.234-.144C103.628,87.861,103.434,87.9,103.239,87.936Zm.111-2.958c-.063.167-.072.3.034.388a.434.434,0,0,0,.4.085Zm6.881,4.095c-.166-.017-.307-.023-.444-.048-.156-.028-.173-.023-.239.162C109.782,89.229,110.018,89.327,110.231,89.072ZM104.3,85.856l-.582.074c.069.05.108.1.157.111a.968.968,0,0,0,.6-.021Zm6.083,4.848-.03-.046c-.085.025-.207.022-.249.079a.918.918,0,0,0-.213.541A4.321,4.321,0,0,0,110.378,90.7Zm-1.653,1.555v-.581a.6.6,0,0,0-.162.7Zm.524-.2c.231,0,.485.159.7-.118a2.546,2.546,0,0,1-.4-.027A.243.243,0,0,0,109.249,92.059Zm.275-.259c.334.1.537.067.63-.106a2.746,2.746,0,0,1-.357-.028A.229.229,0,0,0,109.524,91.8Zm-3.316-4.588-.4-.243-.246.174A1.3,1.3,0,0,0,106.208,87.212Zm.65-2.637c-.009-.124-.085-.126-.148-.139a1.908,1.908,0,0,1-.219-.037c-.194-.065-.385-.139-.621-.225a1.173,1.173,0,0,0,.193.154A1.907,1.907,0,0,0,106.858,84.575Zm1.768,7.861c.118.164.336.178.6.028C109.026,92.494,108.839,92.267,108.626,92.436Zm1.153-3.113c-.232-.076-.432-.114-.536.172A.99.99,0,0,0,109.779,89.323Zm-5.559.915-.015.053.289.269.038-.015-.057-.358Zm2.011,1.737a.661.661,0,0,0-.145-.457l-.06.34c.054.038.1.07.141.1A.266.266,0,0,0,106.231,91.975Zm-.628.014a.584.584,0,0,0,.491.047C105.964,91.832,105.8,91.971,105.6,91.989Zm-.2-10.884-.042.006c-.015.094-.071.19-.012.283a.178.178,0,0,0,.221.059Zm3.055,5.188.033.4C108.675,86.465,108.67,86.419,108.454,86.293Zm-2.846-5a.667.667,0,0,0-.088-.426c-.032.03-.075.053-.074.073A.65.65,0,0,0,105.608,81.3Z" transform="translate(-18.963 -21.139)"/></g></svg>