<svg xmlns="http://www.w3.org/2000/svg" width="57" height="13.315" viewBox="0 0 57 13.315"><defs><style>.a{fill:#0093ff;}.b{fill:#001dfc;}.c{fill:#00bcde;}.d{fill:#00138e;font-size:10px;font-family:Lato-Black, Lato;font-weight:800;}</style></defs><g transform="translate(-145 -411)"><g transform="translate(-109.782 147.716)"><g transform="translate(254.782 263.284)"><path class="a" d="M264.636,272.434l-9.854-4.223v-4.927l9.854,4.223Z" transform="translate(-254.782 -263.284)"/><path class="b" d="M265.2,286.591l-9.854,4.223v4.927l9.854-4.223Z" transform="translate(-255.245 -282.426)"/></g><path class="c" d="M284.139,291.551l-5.692-2.44a.013.013,0,0,1,0-.024l5.692-2.44a.019.019,0,0,1,.026.018v4.869A.019.019,0,0,1,284.139,291.551Z" transform="translate(-19.429 -19.187)"/></g><text class="d" transform="translate(201 422)"><tspan x="-42.97" y="0">POMPAY</tspan></text></g></svg>