<svg xmlns="http://www.w3.org/2000/svg" width="17.366" height="23.813" viewBox="0 0 17.366 23.813"><defs><style>.a{fill:#e53935;}.b{fill:#fff;}.c{fill:#ef5350;}.d{fill:#bdbdbd;}.e{fill:#c62828;}</style></defs><g transform="translate(-327.859 -282.469)"><path class="a" d="M336.542,282.469a8.683,8.683,0,0,0-8.683,8.683c0,4.124,6.422,12.61,8.22,14.9a.587.587,0,0,0,.925,0c1.8-2.295,8.22-10.78,8.22-14.9A8.683,8.683,0,0,0,336.542,282.469Z"/><circle class="b" cx="4.782" cy="4.782" r="4.782" transform="translate(330.76 294.662) rotate(-76.26)"/><g transform="translate(332.31 286.778)"><path class="c" d="M357.3,304.431c-.494.494-1.541.254-2.33-.539a2.576,2.576,0,0,1-.793-1.52,2.361,2.361,0,0,0-.71-1.516l-2.107-2a4.088,4.088,0,0,1,.476-.243l1.888,1.986a2.334,2.334,0,0,0,1.513.71,2.585,2.585,0,0,1,1.523.793C357.55,302.894,357.79,303.938,357.3,304.431Z" transform="translate(-349.534 -298.613)"/><path class="c" d="M351.177,313.225a4.828,4.828,0,0,1-.483.247l-2.027-2.135a1.689,1.689,0,0,0-1.273-.525,1.029,1.029,0,0,1-.755-.3l-2.059-2.059a.158.158,0,1,1,.226-.219l1.6,1.6a.135.135,0,0,0,.188,0,.132.132,0,0,0,0-.188l-1.6-1.607a.156.156,0,0,1,0-.226.158.158,0,0,1,.222.01l1.6,1.6a.134.134,0,0,0,.188,0,.128.128,0,0,0,0-.184l-1.6-1.607a.156.156,0,0,1,0-.226.159.159,0,0,1,.223.01l1.6,1.6a.133.133,0,0,0,.188-.188l-1.6-1.6a.167.167,0,0,1-.007-.226.156.156,0,0,1,.226,0l2.059,2.059a1.035,1.035,0,0,1,.3.758,1.687,1.687,0,0,0,.525,1.273Z" transform="translate(-344.532 -304.722)"/></g><path class="d" d="M356.3,305.681c-.494.494-1.541.25-2.33-.539a2.584,2.584,0,0,1-.793-1.523,2.352,2.352,0,0,0-.71-1.513L350,299.758a3.574,3.574,0,0,1,.362-.233l1.628,1.548.737.772c.014.014.028.024.042.038a2.4,2.4,0,0,1,.41,1.158,2.576,2.576,0,0,0,.793,1.52c.79.793,1.836,1.033,2.33.539a.866.866,0,0,0,.219-.417A1.072,1.072,0,0,1,356.3,305.681Z" transform="translate(-16.232 -12.503)"/><g transform="translate(332.31 289.583)"><path class="d" d="M346.228,312.245a.172.172,0,0,0-.011.015l1.423,1.424a.133.133,0,0,0,.188,0c.011-.011.01-.026.016-.038l-1.392-1.392A.162.162,0,0,0,346.228,312.245Z" transform="translate(-345.767 -311.381)"/><path class="d" d="M347.766,310.707a.138.138,0,0,0-.01.015l1.423,1.423a.133.133,0,0,0,.188,0h0c.01-.011.01-.026.016-.038l-1.392-1.392A.162.162,0,0,0,347.766,310.707Z" transform="translate(-346.895 -310.253)"/><path class="d" d="M349.3,309.17s0,.005,0,.007l1.424,1.424a.132.132,0,0,0,.187,0c.011-.01.01-.026.016-.038l-1.4-1.4A.158.158,0,0,0,349.3,309.17Z" transform="translate(-348.021 -309.12)"/><path class="d" d="M350.7,318.454a4.065,4.065,0,0,1-.4.156l-1.628-1.711a1.691,1.691,0,0,0-1.273-.529,1.025,1.025,0,0,1-.755-.3l-.3-.3-1.763-1.763a.154.154,0,0,1,0-.226.162.162,0,0,1,.223.007l1.6,1.6a.126.126,0,0,0,.149.017l.084.083a1.029,1.029,0,0,0,.755.3,1.688,1.688,0,0,1,1.263.515,1.635,1.635,0,0,0,.264.337l.57.539Z" transform="translate(-344.532 -312.508)"/></g><path class="e" d="M360.132,300.016a4.783,4.783,0,0,1-2.745,6.181c2.465-.949,4.5-4.025,3.546-6.49s-4.518-3.386-6.983-2.437A4.783,4.783,0,0,1,360.132,300.016Z" transform="translate(-19.127 -10.582)"/><path class="e" d="M340.813,304.459a4.783,4.783,0,0,1,2.745-6.181c-2.465.949-4.5,4.025-3.546,6.49s4.518,3.385,6.982,2.437A4.783,4.783,0,0,1,340.813,304.459Z" transform="translate(-8.734 -11.589)"/></g></svg>