<svg xmlns="http://www.w3.org/2000/svg" width="56.908" height="42.278" viewBox="0 0 56.908 42.278"><defs><style>.a{fill:#fff;}.b{fill:#231f20;}.c{fill:#ffbc00;}</style></defs><g transform="translate(-151.903 -311.897) rotate(16)"><path class="a" d="M255.847,261.409c-1.193-3.556-3.037-4.3-4.374-4.3a3.9,3.9,0,0,0-2.753,1.226l-.949.925c-.142,1.14-.593,1.736-.731,1.627l-.252-.2-.115-.08c-.046-.031-1.161-.635-2.479-1.343h-1.026a3.218,3.218,0,0,0-2.662,1.34c-.869,1.218-.917,2.975-.143,5.225a34.945,34.945,0,0,1,1.21,5.4c.167.972.339,1.977.548,2.968.119.565.216,1.306.32,2.091.412,3.12.879,6.655,3.447,8.2l1.045.627a53.634,53.634,0,0,0,7.006.032l1.581-.209c.8-.1,1.552-.2,2.072-.243,3.853-.275,8.22-.588,12.534-.657.127,0,.257,0,.391,0,.654,0,1.418.021,2.226.043.97.028,1.975.056,3.014.056,3.432,0,5.717-.336,7.409-1.091.382-.171.666-.29.875-.379L285.6,282c.22-1.276.416-2.374.435-2.439l.033-.089a13.117,13.117,0,0,0,.613-4.4c.012-.6.023-1.161.077-1.657.038-.345.075-.7.112-1.071.251-2.46.564-5.521,1.54-7.409.086-.167.235-.4.393-.654.7-1.112,1.765-2.792,1.217-4.708a4.512,4.512,0,0,0-2.577-2.8,5.4,5.4,0,0,0-2.349-.639,3.038,3.038,0,0,0-2.241.939,4.543,4.543,0,0,0-.863,3.6l.015.258a1.392,1.392,0,0,1-.472.945c-.183.076-.066-.484.261-1.243l-.178-1.021a5.044,5.044,0,0,0-4.768-3.922,3.758,3.758,0,0,0-1.446.283l-1.16.481a27.532,27.532,0,0,1-.922,5.267c-.135.147.061-.767.437-2.029l-1.466-1.75a4.892,4.892,0,0,0-3.648-1.823,3.9,3.9,0,0,0-1.461.282l-.972.391c-.745,1.6-2.319,1.592-3.5-.01h-1.645c-.091,0-.2.005-.315.016-.017-.086-.035-.173-.052-.258l-.082.274c-1,.132-2.665.787-3.493,3.556l-.209.7a2.61,2.61,0,0,1,.091,1.2l-.054.048c-.2.175-.385.338-.526.479l-.164.163c-.151.156-.346.229-.375.205a5.428,5.428,0,0,1,.177-1.114Z"/><path class="b" d="M247.552,260.59a.378.378,0,0,1-.132-.023.387.387,0,0,1-.232-.5,4.006,4.006,0,0,0,.2-.861l.017-.134.792-.772a.388.388,0,1,1,.541.556l-.6.584a4.693,4.693,0,0,1-.221.892A.388.388,0,0,1,247.552,260.59Z"/><path class="b" d="M246.908,261.169a.384.384,0,0,1-.241-.084l-.211-.157c-.037-.022-.281-.155-.651-.356a.388.388,0,1,1,.37-.682c.669.363.7.381.719.4l.118.081v0c.037.026.081.061.139.106a.388.388,0,0,1-.242.692Z"/><path class="b" d="M245.049,260.111a.379.379,0,0,1-.184-.047l-.768-.413h-.872a.388.388,0,1,1,0-.776h1.067l.941.506a.388.388,0,0,1-.184.73Z"/><path class="b" d="M244.628,283.783a.388.388,0,0,1-.3-.141,7,7,0,0,1-1.034-1.731.388.388,0,1,1,.713-.307,6.278,6.278,0,0,0,.919,1.544.386.386,0,0,1-.052.545A.379.379,0,0,1,244.628,283.783Zm-1.571-3.455a.387.387,0,0,1-.376-.3c-.136-.554-.259-1.178-.374-1.909a.388.388,0,0,1,.766-.122c.112.71.231,1.313.361,1.847a.387.387,0,0,1-.284.469A.368.368,0,0,1,243.057,280.328Zm-.633-3.774a.389.389,0,0,1-.384-.337c-.1-.725-.183-1.366-.284-1.866a.388.388,0,0,1,.761-.153c.1.524.2,1.178.292,1.918a.388.388,0,0,1-.334.435A.433.433,0,0,1,242.424,276.554Zm-.649-3.77a.388.388,0,0,1-.381-.321q-.1-.57-.2-1.131l-.13-.756a.388.388,0,0,1,.765-.133l.124.721c.07.409.134.785.2,1.164a.388.388,0,0,1-.315.449A.308.308,0,0,1,241.775,272.784Zm-.676-3.767a.387.387,0,0,1-.379-.31c-.142-.691-.285-1.291-.438-1.833a.389.389,0,0,1,.748-.211c.157.561.3,1.178.45,1.888a.388.388,0,0,1-.3.458A.344.344,0,0,1,241.1,269.017Zm-1.006-3.69a.386.386,0,0,1-.375-.29,8.289,8.289,0,0,1-.289-1.982.388.388,0,0,1,.383-.393h.005a.389.389,0,0,1,.388.384,7.524,7.524,0,0,0,.264,1.8.388.388,0,0,1-.278.473A.417.417,0,0,1,240.093,265.327Zm.078-3.753a.382.382,0,0,1-.16-.035.388.388,0,0,1-.194-.513,3.916,3.916,0,0,1,.372-.648,3.542,3.542,0,0,1,1.007-.949.388.388,0,0,1,.413.657,2.774,2.774,0,0,0-.788.743,3.129,3.129,0,0,0-.3.516A.386.386,0,0,1,240.171,261.574Z"/><path class="b" d="M247.9,285.565h-.021c-.355-.019-.685-.041-.98-.068l-.089-.008-.908-.544a.388.388,0,0,1,.4-.666l.755.453c.263.022.554.042.864.058a.388.388,0,0,1-.02.775Z"/><path class="b" d="M250.633,285.629c-.353,0-.705,0-1.05-.008a.388.388,0,0,1,.006-.776h.007c.55.009,1.119.01,1.679.005h0a.388.388,0,0,1,0,.776Z"/><path class="b" d="M252.971,285.584a.388.388,0,0,1-.016-.776c.337-.014.659-.031.957-.052l.937-.125a.388.388,0,1,1,.1.769l-.961.127c-.328.024-.657.042-1,.056Z"/><path class="b" d="M256.892,285.148a.388.388,0,0,1-.044-.773c.267-.031.51-.056.716-.07l1.3-.093a.388.388,0,0,1,.055.774l-1.3.092c-.2.014-.428.038-.683.067A.338.338,0,0,1,256.892,285.148Zm4-.3a.388.388,0,0,1-.026-.775q.992-.066,2.006-.128a.392.392,0,0,1,.411.363.388.388,0,0,1-.364.411q-1.013.062-2,.129Zm4.007-.241a.388.388,0,0,1-.02-.776c.667-.034,1.337-.066,2.01-.092a.388.388,0,0,1,.031.775q-1.005.04-2,.092Zm10.033-.093h0c-.687-.009-1.358-.027-2.013-.045a.388.388,0,0,1,.01-.776h.011c.652.018,1.319.036,2,.044a.389.389,0,0,1-.005.777Zm2.007-.009a.388.388,0,0,1-.009-.776c.712-.019,1.378-.056,1.978-.11a.384.384,0,0,1,.422.351.389.389,0,0,1-.351.422c-.617.056-1.3.094-2.03.113Zm-8.029-.058a.388.388,0,0,1-.009-.776q.607-.015,1.216-.025c.253,0,.521,0,.807,0a.388.388,0,0,1-.005.776h-.006c-.277,0-.538,0-.785,0q-.6.009-1.207.025Zm12.02-.332a.388.388,0,0,1-.076-.769,10.467,10.467,0,0,0,1.857-.537.388.388,0,0,1,.288.721,11.252,11.252,0,0,1-1.993.577A.332.332,0,0,1,280.934,284.115Z"/><path class="b" d="M284.71,282.767a.388.388,0,0,1-.151-.745l.7-.3.13-.747a.388.388,0,1,1,.764.133l-.2,1.164-1.088.459A.389.389,0,0,1,284.71,282.767Z"/><path class="b" d="M285.862,280.9a.4.4,0,0,1-.069-.006.389.389,0,0,1-.314-.45c.164-.924.177-.966.188-1l.039-.108a7.909,7.909,0,0,0,.246-.8.388.388,0,1,1,.753.189,8.8,8.8,0,0,1-.271.877l-.032.088v0s-.028.147-.16.889A.387.387,0,0,1,285.862,280.9Z"/><path class="b" d="M286.614,277.183h-.03a.39.39,0,0,1-.357-.417c.046-.585.057-1.15.068-1.7l0-.143a.388.388,0,0,1,.388-.382h.006a.387.387,0,0,1,.382.394l0,.144c-.011.534-.023,1.136-.07,1.743A.389.389,0,0,1,286.614,277.183Zm.184-3.724a.28.28,0,0,1-.041,0,.387.387,0,0,1-.345-.426l.083-.807c.035-.341.071-.692.11-1.05a.384.384,0,0,1,.428-.343.388.388,0,0,1,.343.427c-.039.356-.075.706-.109,1.045l-.084.809A.387.387,0,0,1,286.8,273.459Zm.423-3.706a.357.357,0,0,1-.056,0,.387.387,0,0,1-.328-.439c.1-.7.21-1.307.332-1.864a.388.388,0,1,1,.758.167c-.118.538-.224,1.13-.322,1.808A.388.388,0,0,1,287.221,269.753Zm.84-3.627a.388.388,0,0,1-.363-.524,7.7,7.7,0,0,1,.369-.84c.092-.179.242-.417.4-.669l.131-.207a.388.388,0,0,1,.658.412l-.124.2c-.158.251-.3.475-.376.624a6.994,6.994,0,0,0-.332.756A.389.389,0,0,1,288.061,266.126Zm1.741-3.291a.386.386,0,0,1-.36-.532,4.393,4.393,0,0,0,.344-1.645l.388-.026h.388a5.185,5.185,0,0,1-.4,1.959A.389.389,0,0,1,289.8,262.835Zm-.073-3.607a.388.388,0,0,1-.344-.208,3.917,3.917,0,0,0-1.1-1.276.388.388,0,0,1,.474-.614,4.672,4.672,0,0,1,1.311,1.53.389.389,0,0,1-.164.524A.385.385,0,0,1,289.729,259.228Zm-7.519-.713a.369.369,0,0,1-.134-.024.387.387,0,0,1-.23-.5,3.479,3.479,0,0,1,.726-1.179,3.363,3.363,0,0,1,.538-.46.388.388,0,0,1,.439.639,2.553,2.553,0,0,0-.411.353,2.647,2.647,0,0,0-.564.916A.387.387,0,0,1,282.21,258.515Zm4.687-1.591a.389.389,0,0,1-.145-.028,4.437,4.437,0,0,0-1.653-.367h0l-.01-.776h0a5.193,5.193,0,0,1,1.952.423.388.388,0,0,1-.145.748Z"/><path class="b" d="M281.629,262.2a.388.388,0,0,1-.276-.661,1.222,1.222,0,0,0,.266-.6l-.015-.242c-.014-.227-.028-.471-.034-.726a.388.388,0,0,1,.379-.4h.009a.388.388,0,0,1,.388.379c.005.244.019.478.033.7l.016.258a1.926,1.926,0,0,1-.49,1.173A.39.39,0,0,1,281.629,262.2Z"/><path class="b" d="M281.478,261.948a.4.4,0,0,1-.083-.009.388.388,0,0,1-.3-.462,5.408,5.408,0,0,1,.3-.88l-.147-.843a.388.388,0,1,1,.765-.133l.186,1.07-.046.106a5.163,5.163,0,0,0-.3.845A.388.388,0,0,1,281.478,261.948Z"/><path class="b" d="M281.028,258.5a.388.388,0,0,1-.33-.183,4.739,4.739,0,0,0-1.037-1.169.388.388,0,0,1,.49-.6,5.522,5.522,0,0,1,1.206,1.359.389.389,0,0,1-.329.594Zm-2.584-2.112a.386.386,0,0,1-.137-.025,4.105,4.105,0,0,0-1.454-.276h-.07a.388.388,0,0,1-.007-.776h.077a4.881,4.881,0,0,1,1.728.325.388.388,0,0,1-.137.751Z"/><path class="b" d="M274.137,257.816l-.047,0a.387.387,0,0,1-.338-.432c.038-.314.074-.633.1-.955l.023-.231,1.111-.461a.388.388,0,0,1,.3.717l-.682.283c-.026.249-.054.5-.084.741A.388.388,0,0,1,274.137,257.816Z"/><path class="b" d="M273.519,261.469a.379.379,0,0,1-.088-.011.388.388,0,0,1-.29-.466c.11-.469.234-1.107.348-1.794a.388.388,0,1,1,.765.127c-.117.7-.243,1.358-.357,1.844A.388.388,0,0,1,273.519,261.469Z"/><path class="b" d="M273.5,261.024a.417.417,0,0,1-.1-.012.389.389,0,0,1-.278-.474c.06-.225.129-.476.208-.747l-.489-.583a.388.388,0,1,1,.6-.5l.757.9-.06.2c-.1.338-.188.65-.26.923A.387.387,0,0,1,273.5,261.024Z"/><path class="b" d="M271.543,257.6a.386.386,0,0,1-.243-.086,4.5,4.5,0,0,0-1.943-.93.388.388,0,1,1,.149-.761,5.267,5.267,0,0,1,2.281,1.087.388.388,0,0,1-.244.69Z"/><path class="b" d="M265.653,257.977a.388.388,0,0,1-.26-.676,2.038,2.038,0,0,0,.468-.663l.065-.138,1.042-.42a.388.388,0,0,1,.289.72l-.762.307a2.771,2.771,0,0,1-.582.771A.39.39,0,0,1,265.653,257.977Z"/><path class="b" d="M263.378,257.887a.384.384,0,0,1-.243-.086,4.009,4.009,0,0,1-.613-.621h-.778a.388.388,0,0,1,0-.776h1.166l.116.158a3.376,3.376,0,0,0,.6.634.388.388,0,0,1-.243.691Z"/><path class="b" d="M259.687,257.466a.387.387,0,0,1-.152-.744,3.92,3.92,0,0,1,.783-.242.437.437,0,0,1,.061-.145l.522-.784.168.853h.656a.388.388,0,1,1,0,.776h-.656c-.08,0-.176.005-.278.014l-.12.014a3.191,3.191,0,0,0-.831.227A.377.377,0,0,1,259.687,257.466Z"/><path class="b" d="M257.743,259.292a.393.393,0,0,1-.192-.05.388.388,0,0,1-.145-.529,5.122,5.122,0,0,1,.889-1.163.388.388,0,0,1,.539.558,4.4,4.4,0,0,0-.754.988A.385.385,0,0,1,257.743,259.292Z"/><path class="b" d="M255.9,263.57a.4.4,0,0,1-.262-.092c-.168-.138-.233-.193.022-1.391l-.186-.554c-.029-.088-.058-.173-.089-.256a.388.388,0,1,1,.731-.263c.032.089.063.18.094.273l.253.755-.022.1c-.01.049-.021.1-.03.143.077-.069.159-.143.246-.218a4.744,4.744,0,0,0-.123-.909l-.022-.1.239-.8c.024-.082.049-.161.075-.239a.388.388,0,1,1,.736.244c-.023.071-.046.144-.068.219l-.181.6c.251,1.213.046,1.391-.053,1.479l-.055.048c-.194.169-.371.326-.507.461l-.164.164A1.012,1.012,0,0,1,255.9,263.57Zm.752-1.43Z"/><path class="b" d="M254.937,259.768a.386.386,0,0,1-.332-.188,5.1,5.1,0,0,0-1.161-1.374.388.388,0,0,1,.484-.607,5.855,5.855,0,0,1,1.341,1.581.387.387,0,0,1-.132.532A.381.381,0,0,1,254.937,259.768Zm-4.912-1.955a.388.388,0,0,1-.159-.742,3.931,3.931,0,0,1,2.108-.32.388.388,0,0,1-.1.77,3.143,3.143,0,0,0-1.691.258A.392.392,0,0,1,250.025,257.813Z"/><path class="a" d="M286.941,260.977a1.672,1.672,0,0,1-1.063,1.42.588.588,0,0,1-.485-.171,2.55,2.55,0,0,1-.443-2.107.788.788,0,0,1,.71-.636.832.832,0,0,1,.916.493C286.735,260.34,286.852,260.728,286.941,260.977Z"/><path class="c" d="M284.628,263.8c.066.039.132.074.194.113-.054.318-.1.636-.163.954-.415,2.317-.838,4.629-1.253,6.945-.14.792-.3,1.587-.388,2.387a4.035,4.035,0,0,0,.051,1.451,2.207,2.207,0,0,1-.074,1.408c-2.119.121-4.152.237-6.185.357-1.051.058-2.107.1-3.154.2-2.158.2-4.315.466-6.476.644-1.882.155-3.775.194-5.657.346-1.975.159-3.942-.016-5.909.007-2.453.027-4.9.024-7.349.035a3.836,3.836,0,0,0-.466.031c-1.051.113-1.1.1-1.327-.9-.547-2.417-1.106-4.831-1.6-7.256-.221-1.09-.3-2.211-.427-3.317a6.5,6.5,0,0,1,0-.726c.074-.05.144-.1.217-.159.555.318,1.114.629,1.657.955.691.415,1.358.877,2.064,1.261.66.357.757.252,1.11-.381.745-1.346,1.548-2.657,2.386-4.085.376.3.671.516.939.756,1.009.908,1.994,1.836,3.015,2.724.644.563.846.5,1.416-.124,1.2-1.323,2.437-2.623,3.678-3.954,1.448,1.207,1.882,3.256,3.745,4.051,1.672-1.238,2.7-3.135,4.543-4.47.338.4.656.776.966,1.156.567.7,1.125,1.4,1.7,2.092a3.922,3.922,0,0,0,.535.512c.679.543.815.493,1.4-.194,1.051-1.222,2.138-2.41,3.213-3.608.081-.086.205-.132.5-.357a5.9,5.9,0,0,0,.3.566q.9,1.356,1.812,2.7a2.665,2.665,0,0,0,.438.469c.7.617.784.613,1.366-.151A11.459,11.459,0,0,1,284.628,263.8Zm-4.788,6.608a2.858,2.858,0,0,0-.791-2.212c-.594-.609-1.234-.531-1.552.062a5.19,5.19,0,0,0-.714,1.583,24.358,24.358,0,0,0-.2,3.318,2.352,2.352,0,0,0,.353,1.129c.516.9,1.114.916,1.68.047A8.832,8.832,0,0,0,279.84,270.413Zm-10.414,1.028a4.335,4.335,0,0,0-1.408-4.105c-.516-.481-.877-.372-1.23.283a4.887,4.887,0,0,0-.675,2.821,7.366,7.366,0,0,0,.652,3.345c.143.384.364.853.795.779.369-.062.683-.442,1.009-.694.062-.05.066-.171.1-.256A13.386,13.386,0,0,0,269.426,271.441ZM262,272.9a4.027,4.027,0,0,0-2.615-4.994c-.132.319-.186.462-.252.6a6.544,6.544,0,0,0,.066,5.3,1.153,1.153,0,0,0,.989.861c1.118.09,1.482-.2,1.7-1.315C261.922,273.2,261.977,273.051,262,272.9Zm-7.2-.819a4.029,4.029,0,0,0-1.028-3.348,1.5,1.5,0,0,0-1.359-.644,5.765,5.765,0,0,0,1.4,8,1.568,1.568,0,0,0,.206-.384C254.287,274.5,254.566,273.3,254.8,272.081Z"/><path class="a" d="M282.39,278.344c.721.05.841.217.717.95-.031.179-.089.353-.166.656-2.111.182-4.226.376-6.34.543-1.607.124-3.217.245-4.827.291-1.238.039-2.479-.066-3.717-.05-1.3.019-2.6.073-3.9.174-2.716.218-5.428.474-8.144.714a.73.73,0,0,0-.093.008,15.283,15.283,0,0,1-4.035.151c-1.362-.011-2.724-.089-4.086-.17-.78-.047-.939-.218-.978-.838-.038-.645.086-.753.776-.772,3.1-.094,6.189-.21,9.285-.292,1.983-.05,3.966.008,5.948-.081,2.937-.136,5.886-.241,8.808-.582,3.2-.369,6.418-.567,9.634-.722A9.7,9.7,0,0,1,282.39,278.344Z"/><path class="a" d="M278.494,269.365c.485.819.136,2.852-.718,3.888A4.026,4.026,0,0,1,278.494,269.365Z"/><path class="a" d="M278.137,259.514c.109.3.384.733.279.881a2.572,2.572,0,0,1-1.024.7c-.116.054-.431-.109-.524-.256a3.423,3.423,0,0,1-.3-.73c.012-.6.07-.977.5-1.117a.821.821,0,0,1,.958.373A.628.628,0,0,1,278.137,259.514Z"/><path class="a" d="M269.046,259.382a1.526,1.526,0,0,1,1.242,1.207,1.451,1.451,0,0,1-1.2,1.23.968.968,0,0,1-1.071-1.106C268.026,259.983,268.5,259.37,269.046,259.382Z"/><path class="a" d="M267.836,268.57a3.965,3.965,0,0,1-.194,4.272C266.916,272.023,266.994,269.85,267.836,268.57Z"/><path class="a" d="M261.29,259.851a1.041,1.041,0,0,1,1,.885,1.09,1.09,0,0,1-.978.912c-.714.015-1.094-.264-1.11-.8A1.007,1.007,0,0,1,261.29,259.851Z"/><path class="a" d="M260.13,269.478c.962.694.784,1.6.787,2.44a1.819,1.819,0,0,1-.554,1.657c-.586-.221-.54-.749-.6-1.176A4.554,4.554,0,0,1,260.13,269.478Z"/><path class="a" d="M252.94,269.264c1.04.928,1.141,3.17.2,4.563C252.164,273.04,252.067,270.894,252.94,269.264Z"/><path class="a" d="M251.753,260.162a1.54,1.54,0,0,1,1.164,1.284,1.293,1.293,0,0,1-1.42,1.16c-.621,0-.959-.306-.955-.869C250.55,261.054,251.237,260.158,251.753,260.162Z"/><path class="a" d="M245.075,263.3c-.318.8-1.04,1-1.784,1.315-.474-.555-.92-1.036-.582-1.769a.669.669,0,0,1,.962-.435A2.575,2.575,0,0,1,245.075,263.3Z"/><path d="M285.49,258.408a3.708,3.708,0,0,1,2.463,3.372,1.437,1.437,0,0,1-.845,1.148,1.987,1.987,0,0,0-.924,1.319,54.073,54.073,0,0,0-1.556,7.73c-.058.4-.155.791-.182,1.191-.082,1.2-.109,2.4-.213,3.6-.055.637-.249,1.265-.346,1.9-.062.423-.07.853-.093,1.284-.011.237,0,.477,0,.733-1.591.214-3.131.509-4.683.613-4.206.28-8.416.478-12.637.419-1.913-.023-3.83.233-5.743.388-3.306.264-6.608.582-9.933.528-1.237-.019-2.475-.081-3.713-.143-.919-.047-1.071-.171-1.226-1.06-.159-.912-.229-1.843-.411-2.751-.563-2.758-1.187-5.505-1.731-8.268-.256-1.3-.392-2.635-.543-3.958a1.947,1.947,0,0,0-.609-1.381,2.512,2.512,0,0,1-.854-2.173c.113-1.179.846-1.633,1.917-1.187a9.615,9.615,0,0,1,1.75.83c.9.621.92,1.234.206,2.08a6.614,6.614,0,0,0-.5.788l3.038,1.881c1.3-1.012,1.7-2.56,2.5-3.86-.156-.194-.272-.334-.381-.481a2.357,2.357,0,0,1,.5-3.446.9.9,0,0,1,1.191-.073,4.812,4.812,0,0,1,1.688,2.172,1.874,1.874,0,0,1-.163,1.141c-.07.214-.31.373-.543.64.97,1.04,2.029,1.956,3.022,2.91a18.894,18.894,0,0,0,3.993-3.988c-.194-.415-.408-.827-.578-1.258a1.6,1.6,0,0,1,.349-1.641,1.2,1.2,0,0,1,1.575-.38,5.091,5.091,0,0,1,1.552,1.11c.776.877.373,1.513-.33,2.153a4.022,4.022,0,0,1-.609.361c.722.993,1.4,1.948,2.107,2.883a.546.546,0,0,0,.881-.039c.951-1.02,1.882-2.053,2.863-3.123-.12-.245-.256-.516-.384-.792a2.477,2.477,0,0,1-.252-1.622c.136-.593.3-1.21.943-1.385a1.981,1.981,0,0,1,2,.411c.155.152.318.3.458.466.885,1.048,1.059,1.944.124,2.863a3.45,3.45,0,0,0-.271.392c.756.885,1.513,1.77,2.265,2.646a16.5,16.5,0,0,0,3.648-3.666c-.194-.609-.4-1.191-.563-1.781a1.868,1.868,0,0,1-.062-.64c.1-1.192.869-1.638,1.94-1.114a3.709,3.709,0,0,1,1.734,1.874.986.986,0,0,1-.236,1.409c-.175.174-.353.337-.582.554a11.969,11.969,0,0,0,1.99,2.868c.885-.555,1.742-1.094,2.608-1.626,1.295-.8,1.292-.795,1.016-2.289a5.835,5.835,0,0,1-.12-1.1,1.47,1.47,0,0,1,.958-1.362A.894.894,0,0,1,285.49,258.408Zm.388,3.989a1.672,1.672,0,0,0,1.063-1.42c-.089-.249-.206-.637-.365-1a.832.832,0,0,0-.916-.493.788.788,0,0,0-.71.636,2.55,2.55,0,0,0,.443,2.107A.588.588,0,0,0,285.878,262.4Zm-1.056,1.521c-.062-.039-.128-.074-.194-.113a11.459,11.459,0,0,0-3.189,2.441c-.582.764-.664.768-1.366.151a2.665,2.665,0,0,1-.438-.469q-.92-1.346-1.812-2.7a5.9,5.9,0,0,1-.3-.566c-.295.225-.419.271-.5.357-1.075,1.2-2.162,2.386-3.213,3.608-.586.687-.722.737-1.4.194a3.922,3.922,0,0,1-.535-.512c-.571-.691-1.129-1.4-1.7-2.092-.31-.38-.628-.756-.966-1.156-1.843,1.335-2.871,3.232-4.543,4.47-1.863-.8-2.3-2.844-3.745-4.051-1.241,1.331-2.475,2.631-3.678,3.954-.57.625-.772.687-1.416.124-1.021-.888-2.006-1.816-3.015-2.724-.268-.24-.563-.453-.939-.756-.838,1.428-1.641,2.739-2.386,4.085-.353.633-.45.738-1.11.381-.706-.384-1.373-.846-2.064-1.261-.543-.326-1.1-.637-1.657-.955-.073.055-.143.109-.217.159a6.5,6.5,0,0,0,0,.726c.128,1.106.206,2.227.427,3.317.5,2.425,1.055,4.839,1.6,7.256.225.993.276,1.009,1.327.9a3.836,3.836,0,0,1,.466-.031c2.448-.011,4.9-.008,7.349-.035,1.967-.023,3.934.152,5.909-.007,1.882-.152,3.775-.191,5.657-.346,2.161-.178,4.318-.442,6.476-.644,1.047-.1,2.1-.14,3.154-.2,2.033-.12,4.066-.236,6.185-.357a2.207,2.207,0,0,0,.074-1.408,4.035,4.035,0,0,1-.051-1.451c.089-.8.248-1.6.388-2.387.415-2.316.838-4.628,1.253-6.945C284.718,264.554,284.768,264.236,284.822,263.918Zm-1.715,15.376c.124-.733,0-.9-.717-.95a9.7,9.7,0,0,0-1.118-.02c-3.216.155-6.429.353-9.634.722-2.922.341-5.871.446-8.808.582-1.982.089-3.965.031-5.948.081-3.1.082-6.188.2-9.285.292-.69.019-.814.127-.776.772.039.62.2.791.978.838,1.362.081,2.724.159,4.086.17a15.283,15.283,0,0,0,4.035-.151.73.73,0,0,1,.093-.008c2.716-.24,5.428-.5,8.144-.714,1.3-.1,2.6-.155,3.9-.174,1.238-.016,2.479.089,3.717.05,1.61-.046,3.22-.167,4.827-.291,2.114-.167,4.229-.361,6.34-.543C283.018,279.647,283.076,279.473,283.107,279.294Zm-4.691-18.9c.105-.148-.17-.579-.279-.881a.628.628,0,0,0-.113-.147.821.821,0,0,0-.958-.373c-.427.14-.485.516-.5,1.117a3.423,3.423,0,0,0,.3.73c.093.147.408.31.524.256A2.572,2.572,0,0,0,278.416,260.395Zm-8.128.194a1.526,1.526,0,0,0-1.242-1.207c-.543-.012-1.02.6-1.032,1.331a.968.968,0,0,0,1.071,1.106A1.451,1.451,0,0,0,270.288,260.589Zm-8,.147a1.041,1.041,0,0,0-1-.885,1.007,1.007,0,0,0-1.087.994c.016.539.4.818,1.11.8A1.09,1.09,0,0,0,262.291,260.736Zm-9.374.71a1.54,1.54,0,0,0-1.164-1.284c-.516,0-1.2.892-1.211,1.575,0,.563.334.869.955.869A1.293,1.293,0,0,0,252.917,261.446Zm-9.626,3.17c.744-.318,1.466-.512,1.784-1.315a2.575,2.575,0,0,0-1.4-.889.669.669,0,0,0-.962.435C242.371,263.58,242.817,264.061,243.291,264.616Z"/><path d="M279.049,268.2a2.858,2.858,0,0,1,.791,2.212,8.832,8.832,0,0,1-1.226,3.927c-.566.869-1.164.853-1.68-.047a2.352,2.352,0,0,1-.353-1.129,24.358,24.358,0,0,1,.2-3.318,5.19,5.19,0,0,1,.714-1.583C277.815,267.67,278.455,267.592,279.049,268.2Zm-1.273,5.052c.854-1.036,1.2-3.069.718-3.888A4.026,4.026,0,0,0,277.776,273.253Z"/><path d="M268.018,267.336a4.335,4.335,0,0,1,1.408,4.105,13.386,13.386,0,0,1-.76,2.173c-.031.085-.035.206-.1.256-.326.252-.64.632-1.009.694-.431.074-.652-.395-.795-.779a7.366,7.366,0,0,1-.652-3.345,4.887,4.887,0,0,1,.675-2.821C267.141,266.964,267.5,266.855,268.018,267.336Zm-.376,5.506a3.965,3.965,0,0,0,.194-4.272C266.994,269.85,266.916,272.023,267.642,272.842Z"/><path d="M260.332,268.356A4.621,4.621,0,0,1,262,272.9c-.023.151-.078.3-.109.45-.221,1.117-.585,1.4-1.7,1.315a1.153,1.153,0,0,1-.989-.861,6.544,6.544,0,0,1-.066-5.3c.066-.136.12-.279.252-.6A4.586,4.586,0,0,1,260.332,268.356Zm.585,3.562c0-.838.175-1.746-.787-2.44a4.554,4.554,0,0,0-.369,2.921c.062.427.016.955.6,1.176A1.819,1.819,0,0,0,260.917,271.918Z"/><path d="M253.771,268.733a4.029,4.029,0,0,1,1.028,3.348c-.233,1.215-.512,2.418-.784,3.624a1.568,1.568,0,0,1-.206.384,5.765,5.765,0,0,1-1.4-8A1.5,1.5,0,0,1,253.771,268.733Zm-.629,5.094c.939-1.393.838-3.635-.2-4.563C252.067,270.894,252.164,273.04,253.142,273.827Z"/></g></svg>