<svg xmlns="http://www.w3.org/2000/svg" width="44.856" height="40.5" viewBox="0 0 44.856 40.5"><defs><style>.a{fill:#fff;}.b{fill:#231f20;}.c{fill:#48a8ff;}</style></defs><g transform="translate(-455.607 -113.188)"><g transform="translate(489.236 122.521)"><path class="a" d="M502.6,124.639h-.99a21.09,21.09,0,0,0-2.954,1.383c-.224.2-1.281,1.317-2.35,2.479l-.329,1.224a2.911,2.911,0,0,0,.257,2.292l.487.827a9.034,9.034,0,0,0,3.382.15,30.714,30.714,0,0,0,2.928-1.06c.045-.022,1.561-1.846,3.37-4.054l-.154-.677A3.527,3.527,0,0,0,502.6,124.639Z" transform="translate(-495.529 -124.312)"/><path class="b" d="M501.718,125.219a.327.327,0,0,1-.128-.629c.261-.111.521-.219.763-.316l.058-.024h.88a.327.327,0,0,1,0,.655h-.754c-.22.089-.455.186-.69.287A.332.332,0,0,1,501.718,125.219Z" transform="translate(-496.394 -124.251)"/><path class="b" d="M498.352,127.128a.327.327,0,0,1-.237-.553c.234-.245.538-.559.659-.669a3.419,3.419,0,0,1,.742-.426.327.327,0,0,1,.289.587,3.706,3.706,0,0,0-.592.325c-.037.033-.176.166-.624.635A.328.328,0,0,1,498.352,127.128Z" transform="translate(-495.868 -124.438)"/><path class="b" d="M496.077,130.161a.326.326,0,0,1-.316-.412l.233-.868.054-.059c.187-.2.375-.406.557-.6a.328.328,0,1,1,.48.446c-.165.176-.332.357-.5.54l-.192.713A.327.327,0,0,1,496.077,130.161Z" transform="translate(-495.512 -124.855)"/><path class="b" d="M495.864,132.539a.326.326,0,0,1-.319-.256,3.148,3.148,0,0,1-.077-.7,3.681,3.681,0,0,1,.022-.389.328.328,0,0,1,.651.073,2.739,2.739,0,0,0-.019.316,2.589,2.589,0,0,0,.061.557.327.327,0,0,1-.248.391A.345.345,0,0,1,495.864,132.539Z" transform="translate(-495.468 -125.291)"/><path class="b" d="M497.547,134.649a.412.412,0,0,1-.045,0c-.3-.04-.578-.093-.834-.154l-.136-.032-.485-.824a.327.327,0,1,1,.564-.332l.343.583c.2.043.413.081.638.111a.328.328,0,0,1-.045.652Z" transform="translate(-495.551 -125.641)"/><path class="b" d="M499.487,134.285a.327.327,0,1,1,0-.655,4.988,4.988,0,0,0,1.06-.091c.079-.018.174-.045.28-.076a.327.327,0,0,1,.19.626c-.122.037-.232.067-.323.089A5.679,5.679,0,0,1,499.487,134.285Zm2.805-.664a.327.327,0,0,1-.116-.634c.535-.2,1.019-.4,1.183-.466l.015-.018a.328.328,0,1,1,.49.434.559.559,0,0,1-.17.152c-.05.023-.651.268-1.286.51A.334.334,0,0,1,502.292,133.621Zm2.262-1.683a.327.327,0,0,1-.251-.537c.269-.324.581-.7.925-1.117a.328.328,0,0,1,.505.417c-.344.417-.657.795-.926,1.119A.329.329,0,0,1,504.554,131.938Z" transform="translate(-496.045 -125.176)"/><path class="b" d="M507.678,129.233a.327.327,0,0,1-.252-.536l.418-.509-.118-.521c-.008-.035-.016-.071-.026-.105a.328.328,0,0,1,.632-.174c.012.045.023.089.033.133l.188.835-.62.757A.33.33,0,0,1,507.678,129.233Z" transform="translate(-497.326 -124.704)"/><path class="b" d="M506.86,126.008a.326.326,0,0,1-.229-.094,3.246,3.246,0,0,0-1.253-.755.327.327,0,1,1,.21-.62,3.891,3.891,0,0,1,1.5.909.327.327,0,0,1,0,.462A.323.323,0,0,1,506.86,126.008Z" transform="translate(-496.983 -124.293)"/></g><g transform="translate(455.607 113.188)"><path class="a" d="M458.4,146.524a7.356,7.356,0,0,0,.782.068,2.392,2.392,0,0,0,.381-.026c.059-.014,2.647-.79,5.75-1.724,0,0,.519-.157.926-3.28a2.712,2.712,0,0,0,.02-.4c1.48,2.151,4.254,3.836,6.275,5.064.365.221.7.423.98.6,1.325.845,2.691,1.605,4.012,2.341,1.479.823,2.875,1.6,4.223,2.488.074.05.255.2.4.321l.726.609a11.837,11.837,0,0,0,3.343.832l.392-.174c1.221-.541,1.4-1.778,1.762-4.241l.024-.168c.019-.124.523-1.668,1.121-3.43l.658-1.665c.619-1.565,1.26-3.184,1.762-4.866,1.174-3.926.883-4.335.883-4.335l-3.451-4.851c-.016-.023-1.506-1.207-3.494-2.777a.3.3,0,0,0,.088-.158,4.651,4.651,0,0,1,1.031-1.415l.591-.885a9.983,9.983,0,0,0,1.734-4.219,3.122,3.122,0,0,0-2.656-3.568,3.049,3.049,0,0,0-.51-.043c-2.1,0-3.42,2.007-4.062,4.149a3,3,0,0,0-1.171-1.516,3.355,3.355,0,0,0-1.8-.577,16.4,16.4,0,0,0-.974-2.146l-.554-1.05c-1.269-.354-2.321-.645-2.339-.645s-1.025.106-2.239.235l-.807,2.188c-.029.078-.054.165-.08.248l-.013-.078a35.236,35.236,0,0,0-3.354-3.651l-.459-.089-.3-.059c-.013,0-.113-.022-.151-.028a1.418,1.418,0,0,0-.27-.026l-.1,0H467.4c-.077.005-.485.018-.907.029s-.784.216-.8.455a5.253,5.253,0,0,1-.5,1.353v.572c0,1.7.264,1.957.264,1.957l4.245,4.086.8-.1.348-.2a2.99,2.99,0,0,0,.863-.737c.057,1.822.5,3.662,1.481,4.577l.169.165c.241.143.791.44,1.224.661a.913.913,0,0,0,.3.089,11.385,11.385,0,0,0-3.042,1.015c.539-2.244-2.14-4.883-2.172-4.913a5.128,5.128,0,0,0-3.438-1.6,3.322,3.322,0,0,0-3.314,3.076l-.17,1.451a20.056,20.056,0,0,0,2.86,2.833c.221.07.428.134.461.142s.226.073.429.144l.2.078,1.006.385a7.2,7.2,0,0,0,1.736.041c-.154.13-.306.264-.463.408a11.385,11.385,0,0,0-2.131,2.864c-.427-.773-1.039-1.766-1.693-2.729l-3.112-.337-.074-.012c-.086-.008-.244-.021-.349-.029s-.286-.019-.4-.024h-.009a4.945,4.945,0,0,0-1.9.191,7.671,7.671,0,0,1-1.6,1.277l-.338.863a3.28,3.28,0,0,0,.99,3.671l.656.608,1.957.309,2.9-.508,1.119-.37.334-.111c.094-.029.229-.067.382-.111a9.2,9.2,0,0,0-.465,3.462,4.634,4.634,0,0,0,.117.691,3.446,3.446,0,0,0-.728-.513,4.5,4.5,0,0,0-2.138-.524c-2.912,0-6.351,2.9-6.457,5.452l-.04.98A9.661,9.661,0,0,0,458.4,146.524Z" transform="translate(-455.669 -113.249)"/><path class="b" d="M468.006,147.213a.307.307,0,0,1-.048,0,.327.327,0,0,1-.277-.371c.019-.13.038-.265.057-.407a2.36,2.36,0,0,0,.018-.356l-.018-1.085.615.894c.143.207.3.418.478.625a.328.328,0,0,1-.5.422h0A.327.327,0,0,1,468.006,147.213Z" transform="translate(-457.494 -118.16)"/><path class="b" d="M483.012,156.812a.327.327,0,0,1-.172-.049c-.436-.269-.909-.551-1.448-.861a.327.327,0,1,1,.326-.568c.545.313,1.024.6,1.466.872a.328.328,0,0,1-.172.606Zm-2.933-1.7a.327.327,0,0,1-.159-.041l-.567-.315c-.3-.169-.609-.338-.915-.511a.327.327,0,1,1,.321-.57q.458.257.913.51l.565.315a.328.328,0,0,1-.159.614Zm-2.95-1.67a.33.33,0,0,1-.166-.045c-.535-.316-1.011-.607-1.456-.89a.328.328,0,1,1,.352-.553c.439.28.909.567,1.437.878a.327.327,0,0,1-.166.609Zm-2.891-1.77a.326.326,0,0,1-.17-.047c-.423-.258-.925-.567-1.445-.906a.328.328,0,0,1,.359-.548c.512.334,1.009.64,1.427.9a.327.327,0,0,1-.171.607Zm-2.83-1.865a.327.327,0,0,1-.194-.064c-.5-.37-.939-.726-1.341-1.085a.327.327,0,0,1,.437-.488c.386.346.81.688,1.293,1.046a.327.327,0,0,1-.195.591Z" transform="translate(-457.82 -118.644)"/><path class="b" d="M488.451,160.251a.325.325,0,0,1-.1-.016c-.262-.084-.526-.176-.786-.272l-.053-.019-.67-.563a.327.327,0,0,1,.42-.5l.583.488c.235.085.472.167.708.244a.327.327,0,0,1-.1.639Z" transform="translate(-460.472 -120.319)"/><path class="b" d="M491.512,161a4.3,4.3,0,0,1-.783-.1.327.327,0,0,1,.128-.642,3.7,3.7,0,0,0,.668.088l.339-.15a1.872,1.872,0,0,0,.29-.159.327.327,0,0,1,.364.544,2.654,2.654,0,0,1-.39.213l-.491.2C491.6,161,491.559,161,491.512,161Z" transform="translate(-461.057 -120.504)"/><path class="b" d="M493.533,159.266a.333.333,0,0,1-.129-.026.328.328,0,0,1-.17-.431,5.8,5.8,0,0,0,.328-1.138.327.327,0,1,1,.641.131,6.391,6.391,0,0,1-.369,1.268A.327.327,0,0,1,493.533,159.266Z" transform="translate(-461.485 -120.101)"/><path class="b" d="M494.2,156.3a.32.32,0,0,1-.049,0,.327.327,0,0,1-.275-.372l.119-.809a7.1,7.1,0,0,1,.252-.834.327.327,0,0,1,.623.2c-.2.617-.226.724-.229.739l-.117.8A.327.327,0,0,1,494.2,156.3Z" transform="translate(-461.589 -119.577)"/><path class="b" d="M495.356,152.2a.352.352,0,0,1-.1-.017.327.327,0,0,1-.206-.414l.262-.778.305-.774a.327.327,0,0,1,.609.24l-.3.76-.256.759A.329.329,0,0,1,495.356,152.2Z" transform="translate(-461.77 -118.945)"/><path class="b" d="M496.208,146.211a.332.332,0,0,1-.12-.023.327.327,0,0,1-.185-.425q.282-.714.559-1.444a.327.327,0,0,1,.612.23c-.185.49-.374.974-.563,1.454A.328.328,0,0,1,496.208,146.211ZM497.3,143.3a.339.339,0,0,1-.107-.018.328.328,0,0,1-.2-.417c.17-.494.319-.953.454-1.4l.017-.058a.327.327,0,1,1,.629.183l-.019.063c-.138.46-.289.928-.462,1.43A.328.328,0,0,1,497.3,143.3Zm.9-2.973a.352.352,0,0,1-.083-.011.328.328,0,0,1-.234-.4c.15-.571.266-1.073.345-1.49a.328.328,0,0,1,.644.121c-.082.432-.2.948-.355,1.535A.328.328,0,0,1,498.2,140.329Zm.285-3a.327.327,0,0,1-.267-.138l-.9-1.266a.327.327,0,0,1,.533-.38l.9,1.266a.327.327,0,0,1-.267.517Zm-1.8-2.533a.327.327,0,0,1-.267-.137l-.9-1.267a.327.327,0,0,1,.534-.379l.9,1.266a.327.327,0,0,1-.267.517Zm-1.909-2.434a.324.324,0,0,1-.2-.072c-.284-.227-.7-.559-1.216-.967a.327.327,0,1,1,.407-.513l1.217.968a.328.328,0,0,1-.205.584Z" transform="translate(-461.488 -115.932)"/><path class="b" d="M491.961,130.024a.322.322,0,0,1-.2-.071l-.927-.733.253-.26a1.858,1.858,0,0,1,.362-.673.327.327,0,1,1,.532.381,1.66,1.66,0,0,0-.25.421v.005l.437.346a.327.327,0,0,1-.2.584Z" transform="translate(-461.114 -115.527)"/><path class="b" d="M492.034,128.273a.322.322,0,0,1-.2-.071.327.327,0,0,1-.054-.46c.165-.208.352-.422.541-.619l.438-.656a.327.327,0,1,1,.544.364l-.491.726c-.181.187-.36.392-.518.592A.327.327,0,0,1,492.034,128.273Z" transform="translate(-461.251 -115.241)"/><path class="b" d="M493.322,124a.328.328,0,0,1-.289-.48,9.952,9.952,0,0,0,.664-1.551.327.327,0,1,1,.623.2,10.685,10.685,0,0,1-.708,1.654A.327.327,0,0,1,493.322,124Zm.982-3.316a.327.327,0,0,1-.327-.326,3.077,3.077,0,0,0-.375-1.516.327.327,0,0,1,.571-.32,3.727,3.727,0,0,1,.458,1.833.326.326,0,0,1-.326.328Zm-6.178-1.411a.328.328,0,0,1-.271-.511,4.989,4.989,0,0,1,1.288-1.337.327.327,0,1,1,.369.54,4.361,4.361,0,0,0-1.115,1.164A.327.327,0,0,1,488.125,119.27Zm4.516-1.448a.329.329,0,0,1-.148-.035,3.182,3.182,0,0,0-.916-.3,2.714,2.714,0,0,0-.606-.035.327.327,0,0,1-.034-.654,3.5,3.5,0,0,1,.748.042,3.873,3.873,0,0,1,1.1.357.327.327,0,0,1-.148.619Z" transform="translate(-460.64 -113.753)"/><path class="b" d="M486.83,122.922l-.343-.905a3.18,3.18,0,0,0-.336-.66.328.328,0,0,1,.543-.367l.041.064.019-.046a.327.327,0,0,1,.61.237c-.094.241-.18.494-.257.75Z" transform="translate(-460.374 -114.378)"/><path class="b" d="M484.095,119.868a.332.332,0,0,1-.09-.013,2.638,2.638,0,0,0-.719-.105h-.23l-.077-.217c-.083-.235-.181-.483-.293-.74a.327.327,0,1,1,.6-.261c.085.2.163.387.234.573a3.352,3.352,0,0,1,.666.121.327.327,0,0,1-.09.642Z" transform="translate(-459.836 -113.993)"/><path class="b" d="M481.767,116.785a.328.328,0,0,1-.29-.175l-.315-.6-.653-.182a.327.327,0,0,1,.176-.63l.924.257.447.847a.326.326,0,0,1-.137.442A.318.318,0,0,1,481.767,116.785Z" transform="translate(-459.463 -113.501)"/><path class="b" d="M479.255,115.492a.308.308,0,0,1-.087-.012c-.251-.069-.431-.118-.512-.139l-.359.037a.323.323,0,0,1-.359-.291.327.327,0,0,1,.292-.359c.428-.045.429-.045.452-.045a3.427,3.427,0,0,1,.66.166.327.327,0,0,1-.087.643Z" transform="translate(-459.098 -113.422)"/><path class="b" d="M475.77,116.368a.338.338,0,0,1-.114-.02.327.327,0,0,1-.194-.42l.354-.958,1.016-.108a.327.327,0,1,1,.07.65l-.612.066-.213.576A.328.328,0,0,1,475.77,116.368Z" transform="translate(-458.708 -113.449)"/><path class="b" d="M474.862,119.436l-.218-1.341c-.132-.163-.269-.329-.41-.5a.327.327,0,0,1,.5-.421c.044.051.087.1.129.155l.068-.181a.327.327,0,0,1,.614.225l-.193.525c-.019.049-.035.1-.05.154Z" transform="translate(-458.507 -113.774)"/><path class="b" d="M473.466,116.561a.325.325,0,0,1-.245-.111c-.255-.288-.51-.57-.756-.834a.327.327,0,1,1,.479-.446c.25.269.51.555.767.848a.326.326,0,0,1-.245.543Z" transform="translate(-458.229 -113.482)"/><path class="b" d="M471.255,114.607a.329.329,0,0,1-.231-.1c-.2-.2-.369-.36-.513-.488l-.674-.132c-.026-.005-.107-.021-.139-.025a1.161,1.161,0,0,0-.221-.023l-.174,0c-.051,0-.414.016-.808.027a.332.332,0,0,1-.337-.319.328.328,0,0,1,.318-.337c.383-.01.735-.021.8-.026h.094l.11,0h0a1.681,1.681,0,0,1,.315.031c.037.005.153.028.168.031l.839.163.065.057c.168.145.374.338.612.576a.327.327,0,0,1-.23.559Z" transform="translate(-457.569 -113.188)"/><path class="b" d="M466.836,116.7a.328.328,0,0,1-.327-.322c0-.08,0-.165,0-.252v-.65l.035-.069a7.614,7.614,0,0,0,.314-.717.327.327,0,1,1,.613.229c-.089.236-.2.487-.308.712v.5c0,.084,0,.165,0,.241a.327.327,0,0,1-.321.333Z" transform="translate(-457.311 -113.389)"/><path class="b" d="M469.8,121.525a.327.327,0,0,1-.227-.092l-.983-.946a.327.327,0,1,1,.454-.472l.983.946a.327.327,0,0,1-.227.564Zm-1.966-1.891a.325.325,0,0,1-.227-.092l-.708-.682a1.068,1.068,0,0,1-.227-.515.327.327,0,0,1,.638-.148,1.119,1.119,0,0,0,.068.216l.683.657a.327.327,0,0,1-.227.564Zm-.45-1.209Z" transform="translate(-457.335 -113.932)"/><path class="b" d="M471.956,123.579l-.7-.676a.327.327,0,1,1,.454-.472l.476.458.583-.076.294-.166a2.665,2.665,0,0,0,.769-.658l.556-.693.027.888c.009.267.025.535.051.795a.327.327,0,1,1-.651.064l-.01-.108a3.323,3.323,0,0,1-.418.282l-.4.229Z" transform="translate(-458.038 -114.456)"/><path class="b" d="M475.166,126.094a.326.326,0,0,1-.305-.209,7.914,7.914,0,0,1-.342-1.174.327.327,0,1,1,.64-.137,7.15,7.15,0,0,0,.312,1.076.328.328,0,0,1-.188.424A.338.338,0,0,1,475.166,126.094Z" transform="translate(-458.563 -114.928)"/><path class="b" d="M477.138,128.532a.327.327,0,0,1-.154-.039c-.3-.158-.576-.312-.731-.4l-.06-.046-.169-.165a3.326,3.326,0,0,1-.42-.483.327.327,0,0,1,.532-.382,2.642,2.642,0,0,0,.34.391l.146.142c.153.09.4.228.67.37a.328.328,0,0,1-.154.617Z" transform="translate(-458.724 -115.328)"/><path class="b" d="M477.38,129.255a.569.569,0,0,1,.2-1.118c.151.08.3.16.445.231a.575.575,0,0,0,.192.056l1.955.263-1.935.383c-.281.055-.536.112-.78.175A.307.307,0,0,1,477.38,129.255Z" transform="translate(-458.96 -115.519)"/><path class="b" d="M474.207,130.475l.166-.69a2.4,2.4,0,0,0,.057-.716.327.327,0,1,1,.653-.041c.006.1.008.19.006.283l.222-.094a.327.327,0,1,1,.249.6c-.242.1-.484.212-.72.332Z" transform="translate(-458.515 -115.616)"/><path class="b" d="M472.76,126.8a.327.327,0,0,1-.3-.192,7.841,7.841,0,0,0-.771-1.308.327.327,0,0,1,.532-.381,8.494,8.494,0,0,1,.835,1.417.327.327,0,0,1-.3.463Zm-8.356-2.021a.327.327,0,0,1-.306-.442,3.7,3.7,0,0,1,.953-1.432.327.327,0,0,1,.445.481,3.05,3.05,0,0,0-.785,1.18A.327.327,0,0,1,464.4,124.776Zm6.3-.65,0,0a7.062,7.062,0,0,0-1.189-.9.327.327,0,0,1,.333-.564,7.742,7.742,0,0,1,1.309,1l-.219.244Zm-4.06-1.4a.327.327,0,0,1-.082-.645,3.922,3.922,0,0,1,1.714-.039.328.328,0,0,1-.127.643,3.236,3.236,0,0,0-1.424.03A.306.306,0,0,1,466.647,122.721Z" transform="translate(-456.931 -114.56)"/><path class="b" d="M464.483,128.442a.329.329,0,0,1-.241-.106c-.186-.2-.37-.41-.551-.618l-.095-.11.112-.954a.327.327,0,1,1,.651.076l-.078.667c.146.167.294.333.444.5a.327.327,0,0,1-.241.548Z" transform="translate(-456.856 -115.248)"/><path class="b" d="M466.282,130.444a.328.328,0,0,1-.225-.089c-.245-.232-.522-.505-.8-.79a.328.328,0,1,1,.469-.457c.272.278.542.545.78.771a.327.327,0,0,1-.224.565Z" transform="translate(-457.101 -115.661)"/><path class="b" d="M470.266,132.166h-.005a5.656,5.656,0,0,1-.868-.077l-.059-.017-1.209-.462c-.173-.061-.346-.12-.391-.132-.024-.005-.181-.052-.366-.111a.327.327,0,1,1,.195-.625c.159.05.294.091.328.1.074.017.422.14.461.154l1.186.454a5.13,5.13,0,0,0,.735.062.327.327,0,0,1-.007.655Z" transform="translate(-457.41 -115.93)"/><path class="b" d="M471.116,132.806a2.261,2.261,0,0,0-.537-.844.328.328,0,0,1,.327-.326c.024,0,.04,0,.059,0,.235,0,.48-.011.732-.031l1.008-.083-.769.657c-.15.128-.3.26-.454.4-.046.043-.093.087-.139.132A.324.324,0,0,1,471.116,132.806Z" transform="translate(-457.948 -116.055)"/><path class="b" d="M469.85,134.346a.327.327,0,0,1-.267-.517c.175-.246.356-.481.537-.7a.327.327,0,1,1,.5.42c-.17.2-.34.424-.506.657A.328.328,0,0,1,469.85,134.346Z" transform="translate(-457.783 -116.288)"/><path class="b" d="M468.727,136.378l-.288-.524c-.12-.218-.256-.453-.4-.7a.327.327,0,1,1,.563-.333c.043.073.085.143.126.213.045-.074.089-.147.133-.219a.328.328,0,0,1,.557.345c-.137.221-.273.454-.4.693Z" transform="translate(-457.543 -116.545)"/><path class="b" d="M467.1,133.585a.326.326,0,0,1-.274-.148c-.12-.183-.242-.368-.366-.552l-.661-.072a.327.327,0,1,1,.07-.65l.963.1.085.126q.233.343.457.688a.326.326,0,0,1-.1.452A.322.322,0,0,1,467.1,133.585Z" transform="translate(-457.154 -116.154)"/><path class="b" d="M463.541,132.588a.249.249,0,0,1-.035,0l-.832-.094-.32-.025c-.1-.008-.282-.019-.394-.024-.276,0-.545.008-.786.019a.322.322,0,0,1-.343-.312.328.328,0,0,1,.312-.342c.251-.012.53-.019.824-.019.142.006.326.017.434.025s.268.021.356.029l.191.025.629.068a.327.327,0,0,1-.036.652Z" transform="translate(-456.424 -116.096)"/><path class="b" d="M457.613,134.856a.333.333,0,0,1-.12-.022.327.327,0,0,1-.185-.424l.335-.855.084-.057c.235-.159.458-.318.659-.466a.327.327,0,0,1,.388.527c-.183.134-.384.278-.595.423l-.262.667A.327.327,0,0,1,457.613,134.856Z" transform="translate(-455.87 -116.28)"/><path class="b" d="M457.7,138.063a.328.328,0,0,1-.289-.173,3.516,3.516,0,0,1-.42-1.484.328.328,0,0,1,.311-.343.332.332,0,0,1,.343.31,2.856,2.856,0,0,0,.343,1.208.327.327,0,0,1-.289.482Z" transform="translate(-455.823 -116.764)"/><path class="b" d="M460.215,140.3a.343.343,0,0,1-.051,0l-.908-.143-.672-.624a.327.327,0,0,1,.445-.48l.527.489.71.112a.327.327,0,0,1-.051.65Z" transform="translate(-456.056 -117.218)"/><path class="b" d="M461.829,140.615l-.119-.019a.327.327,0,1,1,.1-.646l.011,0,.962-.169a.331.331,0,0,1,.38.266.327.327,0,0,1-.266.379Z" transform="translate(-456.518 -117.345)"/><path class="b" d="M466.744,140.1a.341.341,0,0,1-.077-.009.327.327,0,0,1-.242-.395q.027-.111.056-.225l-1.3.427-.807.141a.327.327,0,1,1-.112-.645l.783-.138,1.43-.473c.1-.031.24-.071.4-.116l.579-.163-.178.575c-.08.259-.151.518-.212.769A.327.327,0,0,1,466.744,140.1Z" transform="translate(-456.918 -117.146)"/><path class="b" d="M466.884,142.13h-.02a.327.327,0,0,1-.308-.346c.016-.284.048-.583.1-.885a.327.327,0,1,1,.647.1c-.044.282-.074.559-.089.822A.327.327,0,0,1,466.884,142.13Z" transform="translate(-457.319 -117.477)"/><path class="b" d="M467.493,144.763l-.8-.736a3.17,3.17,0,0,0-.6-.433.327.327,0,0,1,.319-.572l.054.031,0-.053a.328.328,0,0,1,.654-.042l.008.108a4.289,4.289,0,0,0,.109.642Z" transform="translate(-457.22 -117.794)"/><path class="b" d="M456.436,147.052a.318.318,0,0,1-.139-.031.326.326,0,0,1-.156-.435,6.394,6.394,0,0,1,.958-1.448.327.327,0,0,1,.5.428,5.763,5.763,0,0,0-.863,1.3A.326.326,0,0,1,456.436,147.052Zm2.116-2.5a.327.327,0,0,1-.2-.587,8.494,8.494,0,0,1,1.46-.9.327.327,0,0,1,.285.589,7.886,7.886,0,0,0-1.347.834A.329.329,0,0,1,458.552,144.55Zm2.961-1.409a.327.327,0,0,1-.066-.648,5.177,5.177,0,0,1,1.753-.067.327.327,0,0,1-.088.649,4.54,4.54,0,0,0-1.534.06A.357.357,0,0,1,461.514,143.141Z" transform="translate(-455.685 -117.752)"/><path class="b" d="M456.531,151.073a.325.325,0,0,1-.219-.084c-.22-.2-.424-.393-.607-.581l-.1-.1.04-.958a.324.324,0,0,1,.34-.314.328.328,0,0,1,.314.341l-.028.674c.148.148.307.3.477.453a.327.327,0,0,1-.219.57Z" transform="translate(-455.607 -118.792)"/><path class="b" d="M459.488,152.445a7.613,7.613,0,0,1-.827-.071,1.4,1.4,0,0,1-.549-.266.327.327,0,1,1,.36-.547,1.429,1.429,0,0,0,.293.166c.244.033.582.062.722.062a2.584,2.584,0,0,0,.31-.018l.116-.035a.327.327,0,1,1,.186.627c-.1.03-.154.045-.162.046A2.628,2.628,0,0,1,459.488,152.445Zm2.226-.576a.328.328,0,0,1-.094-.641l1.705-.512a.327.327,0,0,1,.188.627l-1.7.512A.333.333,0,0,1,461.713,151.869Zm3.41-1.025a.327.327,0,0,1-.094-.64l.436-.132a2.656,2.656,0,0,0,.364-.915.327.327,0,0,1,.632.171c-.22.814-.472,1.269-.749,1.352l-.494.148A.307.307,0,0,1,465.123,150.844Z" transform="translate(-455.976 -118.773)"/></g><path class="a" d="M504.407,128.067c.186.268-.069.51-.272.645a8.768,8.768,0,0,1-1.414.812c-.74.317-1.506.573-2.269.838a3.679,3.679,0,0,1-.651.094,3.9,3.9,0,0,1,2.081-2.048,3.6,3.6,0,0,1,1.915-.574A.936.936,0,0,1,504.407,128.067Z" transform="translate(-6.909 -2.288)"/><path class="a" d="M494.733,140.439c.025.909-2.416,7.745-3.277,9.336a1.4,1.4,0,0,1-.16-.423c.039-1.823.084-3.643.154-5.467a1.215,1.215,0,0,1,.249-.785C492.648,142.22,493.642,141.388,494.733,140.439Z" transform="translate(-5.58 -4.26)"/><path class="c" d="M493.964,137.422a.578.578,0,0,1-.164.818c-.969.867-1.941,1.732-3.012,2.687-.677-1.162-1.273-2.167-1.843-3.185a.733.733,0,0,1-.023-.5,8.806,8.806,0,0,1,2.609-3.85,6.821,6.821,0,0,1,.592.759C492.746,135.235,493.335,136.342,493.964,137.422Z" transform="translate(-5.203 -3.158)"/><path class="a" d="M491.754,120.907a3.579,3.579,0,0,1-1.506,2.687A2.594,2.594,0,0,1,491.754,120.907Z" transform="translate(-5.415 -1.207)"/><path class="a" d="M487.838,132.381c.007.154.033.219.01.252q-1.031,1.429-2.069,2.848a1.222,1.222,0,0,1-.871.445c-2.033.337-4.076.628-6.076,1.1a3.434,3.434,0,0,1-2.814-.324,21.8,21.8,0,0,0-2.577-1.126c-.183-.078-.347-.193-.616-.347.508-.4.947-.749,1.389-1.093.655-.514,1.309-1.034,1.973-1.532a1.239,1.239,0,0,1,.553-.242c1.68-.223,3.362-.425,5.041-.638a9.29,9.29,0,0,1,3.116.006C485.891,131.943,486.876,132.168,487.838,132.381Z" transform="translate(-2.692 -2.877)"/><path class="a" d="M488.436,143.752a4.718,4.718,0,0,1,.1.661q-.06,2.745-.134,5.486c-.013.367-.066.73-.076,1.093a6.617,6.617,0,0,0,.115,1.941,8.189,8.189,0,0,1,.026,1.859,3.938,3.938,0,0,1-.6-.4c-.645-.681-1.254-1.4-1.914-2.065-1.824-1.83-3.667-3.643-5.507-5.464-.2-.2-.4-.386-.667-.645a2.5,2.5,0,0,1,.521-.3c1.463-.386,2.929-.747,4.393-1.133.982-.262,1.957-.553,2.939-.828C487.867,143.89,488.112,143.834,488.436,143.752Z" transform="translate(-3.778 -4.778)"/><path class="a" d="M486.2,138.411a10.683,10.683,0,0,1,1.757,3.355,60.638,60.638,0,0,1-8.927,2.33,9.511,9.511,0,0,1-.072-3.777,1.177,1.177,0,0,1,.982-1.142,39.147,39.147,0,0,1,5.516-1.084A.7.7,0,0,1,486.2,138.411Z" transform="translate(-3.625 -3.892)"/><path class="c" d="M482.486,151.46a1.161,1.161,0,0,1,.154.281c-1.843-.415-8.668-4.71-9.98-6.425,1.142.327,2.275.7,3.43.966a6.266,6.266,0,0,1,2.615,1.643C480.018,149.044,481.233,150.272,482.486,151.46Z" transform="translate(-2.666 -5.023)"/><path class="a" d="M483.815,123.1c.091.167.294.366.258.491a11.487,11.487,0,0,1-.54,1.257c-.072-.017-.144-.03-.213-.046a2.147,2.147,0,0,1,.1-1.394C483.481,123.277,483.681,123.2,483.815,123.1Z" transform="translate(-4.322 -1.55)"/><path class="a" d="M479.206,118.586a8.728,8.728,0,0,1-.831,3.182C477.845,120.711,478.277,118.97,479.206,118.586Z" transform="translate(-3.524 -0.844)"/><path class="c" d="M476.723,139.172c-.125,1.654-.245,3.231-.373,4.91-.769-.251-1.46-.461-2.138-.7-.959-.347-1.915-.691-2.851-1.087-.657-.282-.69-.386-.491-1.083.321-1.1.668-2.194,1.022-3.287a6.891,6.891,0,0,1,.38-.792C473.793,137.833,475.44,138.18,476.723,139.172Z" transform="translate(-2.369 -3.743)"/><path class="a" d="M470.2,117.383c.841-.151,1.214.317.989,1.378C470.867,118.315,470.547,117.867,470.2,117.383Z" transform="translate(-2.281 -0.651)"/><path class="a" d="M470.637,127.784c.013.032-.026.091-.039.141-.049.019-.1.062-.137.052-.825-.226-1.657-.435-2.472-.691a.807.807,0,0,1-.661-.992.633.633,0,0,1,.851-.634A4,4,0,0,1,470.637,127.784Z" transform="translate(-1.832 -1.943)"/><path class="a" d="M463.756,135.766c-.006.072-.009.148-.016.219a8.424,8.424,0,0,1-2.442.7.484.484,0,1,1-.246-.936,6.267,6.267,0,0,1,1.45-.219A6.444,6.444,0,0,1,463.756,135.766Z" transform="translate(-0.791 -3.493)"/><path class="a" d="M459.188,148.826c.184-1.375,2.19-2.511,3.853-2.171C461.9,147.617,460.842,148.7,459.188,148.826Z" transform="translate(-0.56 -5.223)"/><path d="M504.8,127.485a4.373,4.373,0,0,1,.288.756,2.45,2.45,0,0,1-1.316,1.722,12.852,12.852,0,0,1-1.522.615c-.926.341-1.859.661-2.789,1-.364.134-.747.392-1.081.033-.311-.334-.147-.74.01-1.1a5.5,5.5,0,0,1,2.2-2.864,10.119,10.119,0,0,1,2.066-.9A1.892,1.892,0,0,1,504.8,127.485Zm-.913,1.044c.2-.134.458-.376.272-.645a.936.936,0,0,0-.609-.233,3.6,3.6,0,0,0-1.915.574,3.9,3.9,0,0,0-2.081,2.048,3.683,3.683,0,0,0,.651-.095c.763-.265,1.529-.521,2.269-.838A8.773,8.773,0,0,0,503.885,128.528Z" transform="translate(-6.659 -2.105)"/><path d="M492.708,138.519a1.205,1.205,0,0,1-.014.749q-.344,1.125-.766,2.226c-.822,2.147-1.679,4.282-2.481,6.439a15.235,15.235,0,0,0-1.057,4.327c-.007.078.029.2-.01.229-.494.4-.439.995-.491,1.587a6.718,6.718,0,0,1-.963-.078,1.824,1.824,0,0,1-.671-.307,21.874,21.874,0,0,0-2.772-2c-.508-.272-.969-.625-1.476-.894a58.041,58.041,0,0,1-6.639-3.859,34.138,34.138,0,0,1-5.427-4.374,2.264,2.264,0,0,1-.514-2.432c.435-1.341.9-2.677,1.319-4.023a1.958,1.958,0,0,0,.036-.832.719.719,0,0,1,.357-.785q1.256-.874,2.485-1.79a4.539,4.539,0,0,0,.942-.825,2.969,2.969,0,0,1,2.495-1c1.25-.073,2.5-.177,3.745-.367a10.979,10.979,0,0,1,4.045.177c1.123.246,2.237.517,3.359.763a1.219,1.219,0,0,1,.832.648c.759,1.309,1.539,2.609,2.314,3.912a1.619,1.619,0,0,0,.3.451C492.341,136.984,492.413,137.812,492.708,138.519Zm-4.694,9.686c.86-1.591,3.3-8.427,3.277-9.336-1.091.949-2.086,1.781-3.035,2.661a1.214,1.214,0,0,0-.249.785c-.069,1.824-.115,3.644-.154,5.467A1.4,1.4,0,0,0,488.014,148.205Zm2.72-10.433a.578.578,0,0,0,.164-.818c-.628-1.08-1.217-2.187-1.84-3.273a6.844,6.844,0,0,0-.592-.759,8.805,8.805,0,0,0-2.609,3.85.733.733,0,0,0,.023.5c.569,1.018,1.165,2.023,1.843,3.185C488.793,139.5,489.765,138.64,490.734,137.773Zm-3.44-5.326c.023-.033,0-.1-.01-.252-.962-.213-1.947-.438-2.939-.651a9.289,9.289,0,0,0-3.116-.006c-1.679.213-3.361.415-5.041.638a1.239,1.239,0,0,0-.553.242c-.664.5-1.319,1.018-1.973,1.532-.442.344-.881.694-1.389,1.093.269.154.433.268.616.347a21.782,21.782,0,0,1,2.577,1.126,3.434,3.434,0,0,0,2.814.324c2-.472,4.043-.763,6.076-1.1a1.222,1.222,0,0,0,.871-.445Q486.265,133.876,487.294,132.447Zm-.4,9.879a4.706,4.706,0,0,0-.1-.661c-.324.082-.569.138-.812.207-.982.275-1.957.566-2.939.828-1.464.386-2.93.747-4.393,1.133a2.5,2.5,0,0,0-.521.3c.268.259.472.449.667.645,1.84,1.821,3.683,3.634,5.507,5.464.661.665,1.27,1.384,1.914,2.065a3.933,3.933,0,0,0,.6.4,8.186,8.186,0,0,0-.026-1.859,6.623,6.623,0,0,1-.115-1.941c.01-.364.062-.726.076-1.093Q486.83,145.067,486.891,142.326Zm-.423-1.761a10.683,10.683,0,0,0-1.757-3.355.7.7,0,0,0-.743-.318,39.148,39.148,0,0,0-5.516,1.084,1.177,1.177,0,0,0-.982,1.142,9.514,9.514,0,0,0,.072,3.777A60.636,60.636,0,0,0,486.469,140.565Zm-4.357,8.844a1.158,1.158,0,0,0-.154-.281c-1.253-1.189-2.468-2.416-3.78-3.536a6.266,6.266,0,0,0-2.615-1.643c-1.156-.262-2.288-.639-3.43-.966C473.444,144.7,480.268,148.994,482.112,149.409Zm-5.993-6.38c.127-1.679.248-3.257.373-4.91-1.283-.991-2.93-1.339-4.452-2.043a6.9,6.9,0,0,0-.38.792c-.354,1.093-.7,2.183-1.022,3.287-.2.7-.166.8.491,1.083.936.4,1.892.74,2.852,1.087C474.658,142.568,475.349,142.778,476.118,143.03Z" transform="translate(-2.137 -2.691)"/><path d="M492.5,120.579a3.68,3.68,0,0,1-.648,2.213c-.675.992-1.346,1.981-2.014,2.976-.134.2-.255.432-.543.334s-.343-.36-.324-.639c.007-.078.023-.154.052-.354-.006-.058,0-.242-.03-.422a6.93,6.93,0,0,1,.74-3.931,2.6,2.6,0,0,1,1.46-1.241C491.748,119.273,492.475,119.882,492.5,120.579Zm-2.455,2.789a3.579,3.579,0,0,0,1.506-2.687A2.594,2.594,0,0,0,490.043,123.368Z" transform="translate(-5.21 -0.981)"/><path d="M483.6,121.9a2.027,2.027,0,0,1,1.014,2.464c-.265.593-.51,1.2-.779,1.788-.115.258-.229.559-.592.527a.635.635,0,0,1-.567-.57c-.166-.815-.314-1.633-.451-2.376.108-.5.174-.914.288-1.313A.72.72,0,0,1,483.6,121.9Zm.317,1.5c.036-.125-.167-.324-.258-.491-.134.1-.334.174-.39.308a2.148,2.148,0,0,0-.1,1.394c.068.017.141.03.213.046A11.481,11.481,0,0,0,483.912,123.391Z" transform="translate(-4.161 -1.347)"/><path d="M479.93,118.579a4.5,4.5,0,0,1-.137,1.467c-.432,1.4-.923,2.779-1.411,4.157a3.19,3.19,0,0,1-.389.616.879.879,0,0,1-.573-.789,8.173,8.173,0,0,0-.131-1.156,9.9,9.9,0,0,1,.055-4.125,2.16,2.16,0,0,1,.3-.717,1.276,1.276,0,0,1,1.28-.733A1.558,1.558,0,0,1,479.93,118.579Zm-1.719,2.986a8.727,8.727,0,0,0,.831-3.182C478.113,118.767,477.681,120.508,478.211,121.565Z" transform="translate(-3.36 -0.641)"/><path d="M472.079,119.99a.47.47,0,0,1-.157.389.519.519,0,0,1-.416-.068,1.175,1.175,0,0,1-.331-.327c-.6-.792-1.214-1.568-1.757-2.4a2.849,2.849,0,0,1-.383-1.166c-.056-.383.216-.579.582-.507a2.713,2.713,0,0,1,2.3,3.172A7.748,7.748,0,0,1,472.079,119.99Zm-1.073-1.457c.225-1.06-.148-1.529-.989-1.378C470.363,117.64,470.684,118.088,471.006,118.533Z" transform="translate(-2.098 -0.424)"/><path d="M471.488,128.782c.046.3-.166.418-.455.35-.124-.033-.239-.1-.364-.141-.822-.249-1.63-.533-2.464-.726a2.265,2.265,0,0,1-1.654-3.188,1.2,1.2,0,0,1,.926-.743,10.134,10.134,0,0,1,1.692.753,5.439,5.439,0,0,1,1.955,2.2A5.771,5.771,0,0,1,471.488,128.782Zm-1.044-1.057c.013-.05.052-.109.039-.141a4,4,0,0,0-2.458-2.124.633.633,0,0,0-.851.634.807.807,0,0,0,.661.992c.815.256,1.647.465,2.472.691C470.342,127.786,470.4,127.744,470.444,127.725Z" transform="translate(-1.678 -1.742)"/><path d="M465.522,135.665c.308.272.311.268.4.749-1.362.353-2.668.684-3.97,1.032a1.893,1.893,0,0,1-1.372-.1,1.535,1.535,0,0,1-.785-1.978.954.954,0,0,1,.688-.687,5,5,0,0,1,1.385-.177A5.8,5.8,0,0,1,465.522,135.665Zm-1.934.16c.007-.072.01-.148.016-.219a6.445,6.445,0,0,0-1.254-.235,6.268,6.268,0,0,0-1.45.219.484.484,0,1,0,.246.936A8.423,8.423,0,0,0,463.587,135.825Z" transform="translate(-0.638 -3.332)"/><path d="M464.692,145.624c.366.209.439.622.094.834-1.571.963-2.835,2.41-4.648,2.992-.246.078-.5.121-.6.143-1.264.007-1.833-.887-1.342-1.862a3.293,3.293,0,0,1,1.391-1.438,6.643,6.643,0,0,1,4.442-.867A1.965,1.965,0,0,1,464.692,145.624Zm-1.833.834c-1.663-.34-3.669.8-3.853,2.171C460.659,148.5,461.72,147.421,462.859,146.458Z" transform="translate(-0.378 -5.026)"/></g></svg>