<svg xmlns="http://www.w3.org/2000/svg" width="74.605" height="64.514" viewBox="0 0 74.605 64.514"><defs><style>.a{fill:#fff;}.b{fill:#ff5a9e;}.c{fill:#ffce32;}.d{fill:#3bc2b9;}</style></defs><g transform="translate(162.494 -584.821) rotate(19)"><g transform="translate(51.098 600.924)"><path class="a" d="M67.028,608.782a2.15,2.15,0,0,0-1.238,2.749,7.017,7.017,0,0,1,.35,2.125,2.549,2.549,0,0,1-1.287,2.518,7.992,7.992,0,0,1-1,.477c-.732.285-2.256.878-4.859-.97a2.15,2.15,0,0,0-2.922,3.1,11.453,11.453,0,0,1,1.47,2.624l-.033.015L54.175,623a2.189,2.189,0,0,0-1.04,2.919l.922,1.938c-.174.064-.355.127-.539.187-.042.014-.077.026-.112.04a2.15,2.15,0,0,0,.846,4.152,4.679,4.679,0,0,1,2.226.709l2.951,6.2a2.181,2.181,0,0,0,.448.626,23.479,23.479,0,0,1,.129,2.829,2.15,2.15,0,0,0,3.442,1.743,15.62,15.62,0,0,1,3.211-1.752,5.918,5.918,0,0,1,3.39-.479,8.5,8.5,0,0,1,4.633,2.765,6.334,6.334,0,0,1,1.083,1.8,2.151,2.151,0,0,0,3.956.34A9.678,9.678,0,0,1,84,642.987a5.273,5.273,0,0,1,1.01-.283c3.061-.528,5.463,2.165,5.526,2.237a2.15,2.15,0,0,0,3.788-1.455,5.379,5.379,0,0,1,3.206-4.526,4.41,4.41,0,0,1,.451-.206,4.357,4.357,0,0,1,3.727.375,8.112,8.112,0,0,1,1.86,1.336,2.15,2.15,0,0,0,3.66-1.886,9.959,9.959,0,0,1,.035-4.52,4.418,4.418,0,0,1,2.822-3.045,6.248,6.248,0,0,1,1.8-.409,2.151,2.151,0,0,0,1.465-3.664c-1.713-1.726-2.494-3.34-2.321-4.8.256-2.146,2.475-3.6,2.549-3.644a2.15,2.15,0,0,0-1.463-3.951,5.66,5.66,0,0,1-5.141-1.979c-.348-.508-1.095-2.01-.541-4.985a2.15,2.15,0,0,0-2.83-2.459l-.056.021c-.066.025-.131.055-.194.086a2.134,2.134,0,0,0-.652.51,6.76,6.76,0,0,1-2.462,1.887,2.845,2.845,0,0,1-2.006.063c-1.167-.378-1.63-2.4-1.907-3.612-.043-.189-.088-.384-.133-.56a2.15,2.15,0,0,0-4.169.006c-.2.661-2.064,3.807-4.116,4.605-.072.028-.143.053-.212.073-2,.6-4.091-2.57-4.111-2.6a2.135,2.135,0,0,0-2.54-.876l-.057.021a2.147,2.147,0,0,0-1.354,2.263,5.279,5.279,0,0,1-.236,1.978,4.289,4.289,0,0,1-2.683,2.759,7.116,7.116,0,0,1-.863.271,5.639,5.639,0,0,1-4.29-.969,11.5,11.5,0,0,1-2.172-1.725,2.162,2.162,0,0,0-2.358-.546Z" transform="translate(-51.885 -601.744)"/><path d="M77.138,647.51a.159.159,0,0,1-.008-.318,2.007,2.007,0,0,0,.621-.133,2.044,2.044,0,0,0,.223-.1.159.159,0,1,1,.151.28,2.349,2.349,0,0,1-.259.119,2.319,2.319,0,0,1-.719.154Zm-.783-.1a.161.161,0,0,1-.05-.008,2.314,2.314,0,0,1-.872-.521.159.159,0,1,1,.219-.23,2,2,0,0,0,.751.449.159.159,0,0,1-.049.31Zm2.309-.647a.159.159,0,0,1-.121-.262,1.991,1.991,0,0,0,.251-.373c0-.008.089-.165.247-.415a.159.159,0,1,1,.269.17c-.152.24-.231.387-.235.393a2.309,2.309,0,0,1-.29.43A.158.158,0,0,1,78.664,646.759Zm-3.582-.48a.159.159,0,0,1-.144-.091,2.349,2.349,0,0,1-.111-.282,4.53,4.53,0,0,0-.268-.583.159.159,0,0,1,.28-.15,4.761,4.761,0,0,1,.289.633,2.1,2.1,0,0,0,.1.248.159.159,0,0,1-.144.227Zm4.543-.982a.159.159,0,0,1-.128-.253c.193-.261.4-.515.605-.755a.159.159,0,0,1,.24.209c-.2.233-.4.48-.589.734A.159.159,0,0,1,79.625,645.3Zm11.918-.264a.159.159,0,0,1-.012-.317,1.981,1.981,0,0,0,.57-.128,2.058,2.058,0,0,0,.267-.127.159.159,0,1,1,.157.276,2.341,2.341,0,0,1-.309.147,2.3,2.3,0,0,1-.662.149Zm-.785-.088a.158.158,0,0,1-.046-.007,2.324,2.324,0,0,1-.883-.5.159.159,0,0,1,.214-.235,2,2,0,0,0,.761.433.159.159,0,0,1-.046.311Zm-16.472-.217a.159.159,0,0,1-.131-.068c-.119-.172-.247-.34-.381-.5q-.1-.117-.2-.229a.159.159,0,1,1,.236-.213q.106.117.207.239c.14.168.274.344.4.523a.159.159,0,0,1-.131.25Zm18.765-.481a.159.159,0,0,1-.123-.26,2,2,0,0,0,.391-.784.159.159,0,1,1,.309.076,2.323,2.323,0,0,1-.454.909A.159.159,0,0,1,93.051,644.247Zm-31.68-.132a2.31,2.31,0,0,1-.3-.02.159.159,0,1,1,.042-.315,2,2,0,0,0,.872-.078.159.159,0,0,1,.1.3A2.305,2.305,0,0,1,61.371,644.115Zm19.4-.141a.159.159,0,0,1-.111-.272,9.166,9.166,0,0,1,.726-.644.159.159,0,0,1,.2.249,8.836,8.836,0,0,0-.7.622A.159.159,0,0,1,80.768,643.973Zm8.61-.064a.158.158,0,0,1-.108-.043,8.294,8.294,0,0,0-.721-.6.159.159,0,0,1,.189-.256,8.577,8.577,0,0,1,.749.621.159.159,0,0,1-.108.275Zm-29.041-.06a.159.159,0,0,1-.076-.02,2.3,2.3,0,0,1-.763-.67.159.159,0,0,1,.257-.187,1.98,1.98,0,0,0,.658.578.159.159,0,0,1-.077.3Zm2.39-.213a.159.159,0,0,1-.092-.289c.133-.094.414-.288.807-.529a.159.159,0,0,1,.166.271c-.385.236-.66.426-.789.518A.158.158,0,0,1,62.726,643.637Zm10.4-.216a.158.158,0,0,1-.106-.041,7.714,7.714,0,0,0-.731-.581.159.159,0,0,1,.182-.26,8.075,8.075,0,0,1,.761.6.159.159,0,0,1-.106.277Zm9-.542a.159.159,0,0,1-.085-.293,6.571,6.571,0,0,1,.86-.463.159.159,0,1,1,.129.291,6.268,6.268,0,0,0-.818.44A.159.159,0,0,1,82.128,642.879Zm5.852-.019a.159.159,0,0,1-.081-.022,6.919,6.919,0,0,0-.83-.423.159.159,0,1,1,.124-.293,7.244,7.244,0,0,1,.869.442.159.159,0,0,1-.082.3Zm-23.768-.146a.159.159,0,0,1-.077-.3c.287-.158.576-.305.858-.438a.159.159,0,1,1,.135.288c-.277.131-.56.275-.841.429A.159.159,0,0,1,64.212,642.714Zm29.333-.1h-.014a.159.159,0,0,1-.144-.172,4.581,4.581,0,0,1,.2-.967.159.159,0,1,1,.3.1,4.273,4.273,0,0,0-.185.9A.159.159,0,0,1,93.545,642.611Zm-34.256-.1a.159.159,0,0,1-.154-.119,2.339,2.339,0,0,1-.074-.585v-.027q0-.157,0-.311V641.4a.159.159,0,0,1,.158-.159h0a.159.159,0,0,1,.159.158v.065q0,.156,0,.314v.024a2.008,2.008,0,0,0,.064.5.159.159,0,0,1-.114.194A.153.153,0,0,1,59.289,642.511Zm12.423-.106a.159.159,0,0,1-.078-.021,8.7,8.7,0,0,0-.839-.415.159.159,0,0,1,.126-.292,9.055,9.055,0,0,1,.87.43.159.159,0,0,1-.078.3Zm14.669-.24a.162.162,0,0,1-.042-.006,5.09,5.09,0,0,0-.908-.166.159.159,0,0,1-.145-.172.157.157,0,0,1,.172-.144,5.414,5.414,0,0,1,.965.176.159.159,0,0,1-.042.312Zm-2.668-.006a.159.159,0,0,1-.043-.312,5.266,5.266,0,0,1,.522-.118c.147-.025.3-.044.446-.056a.159.159,0,0,1,.025.317c-.139.011-.279.029-.417.052a4.894,4.894,0,0,0-.49.111A.163.163,0,0,1,83.714,642.158Zm-17.923-.195a.159.159,0,0,1-.059-.306l.084-.033c.283-.11.563-.206.83-.285a.159.159,0,1,1,.09.3c-.259.076-.53.169-.8.276l-.082.032A.155.155,0,0,1,65.79,641.963Zm4.325-.264a.157.157,0,0,1-.051-.008c-.27-.091-.553-.173-.84-.244l-.06-.014a.159.159,0,0,1,.069-.31l.067.016c.3.073.588.158.866.251a.159.159,0,0,1-.051.31Zm-2.653-.237a.159.159,0,0,1-.029-.315,5.642,5.642,0,0,1,.975-.1.157.157,0,0,1,.161.157.159.159,0,0,1-.157.161,5.325,5.325,0,0,0-.919.1Zm26.572-.521a.159.159,0,0,1-.142-.23,5.5,5.5,0,0,1,.514-.835.159.159,0,1,1,.255.19,5.185,5.185,0,0,0-.485.786A.159.159,0,0,1,94.034,640.941Zm-34.826-.173a.159.159,0,0,1-.159-.154c-.011-.32-.028-.638-.051-.946a.159.159,0,0,1,.147-.17.157.157,0,0,1,.17.147c.024.312.041.635.052.959a.159.159,0,0,1-.154.164Zm45.12-.306a.159.159,0,0,1,0-.318,1.994,1.994,0,0,0,.717-.136c.046-.018.092-.038.137-.06a.159.159,0,0,1,.137.287c-.052.025-.106.048-.159.069a2.31,2.31,0,0,1-.831.158Zm-.777-.143a.157.157,0,0,1-.057-.011,2.28,2.28,0,0,1-.832-.552.165.165,0,0,1-.006-.229.153.153,0,0,1,.22-.006l.021.022a1.957,1.957,0,0,0,.71.469.159.159,0,0,1-.057.308Zm2.339-.533a.159.159,0,0,1-.115-.268,1.981,1.981,0,0,0,.446-.753.159.159,0,0,1,.3.1,2.3,2.3,0,0,1-.518.874A.158.158,0,0,1,105.89,639.787Zm-10.838-.258a.159.159,0,0,1-.113-.271,6.5,6.5,0,0,1,.738-.639.159.159,0,1,1,.19.255,6.179,6.179,0,0,0-.7.607A.158.158,0,0,1,95.052,639.529Zm7.111-.255a.157.157,0,0,1-.1-.034,8.3,8.3,0,0,0-.769-.533.159.159,0,0,1,.166-.271,8.635,8.635,0,0,1,.8.553.159.159,0,0,1-.1.284Zm-43.133-.224a.159.159,0,0,1-.115-.049,2.336,2.336,0,0,1-.415-.606l-.114-.24a.159.159,0,1,1,.287-.137l.114.24a2.027,2.027,0,0,0,.359.524.159.159,0,0,1-.115.268Zm37.4-.58a.159.159,0,0,1-.08-.3q.15-.088.311-.172a4.583,4.583,0,0,1,.467-.214l.106-.04a.159.159,0,1,1,.108.3l-.1.037a4.3,4.3,0,0,0-.435.2q-.154.081-.3.166A.157.157,0,0,1,96.435,638.469Zm4.246-.117a.16.16,0,0,1-.068-.015,5.83,5.83,0,0,0-.865-.332.159.159,0,0,1,.089-.305,6.131,6.131,0,0,1,.913.35.159.159,0,0,1-.068.3Zm5.789-.163a.159.159,0,0,1-.158-.149,2.064,2.064,0,0,0-.031-.25c-.043-.23-.08-.459-.111-.68a.159.159,0,1,1,.315-.045c.031.216.067.44.109.666a2.393,2.393,0,0,1,.035.289.159.159,0,0,1-.149.168Zm-8.408-.324a.159.159,0,0,1-.022-.316,4.025,4.025,0,0,1,.99-.012.159.159,0,1,1-.035.316,3.734,3.734,0,0,0-.912.011Zm-39.875-.339a.159.159,0,0,1-.144-.091l-.41-.861a.159.159,0,0,1,.287-.137l.41.861a.159.159,0,0,1-.143.227Zm48.05-1.07a.159.159,0,0,1-.158-.146c-.026-.322-.04-.638-.04-.94v-.026a.159.159,0,1,1,.318,0v.026c0,.293.013.6.039.914a.159.159,0,0,1-.145.172Zm-48.8-.509a.159.159,0,0,1-.144-.091l-.41-.861a.159.159,0,0,1,.287-.136l.41.861a.159.159,0,0,1-.143.227Zm48.8-1.237h-.014a.159.159,0,0,1-.144-.173,7.5,7.5,0,0,1,.147-.962.159.159,0,0,1,.31.069,7.183,7.183,0,0,0-.141.921A.159.159,0,0,1,106.234,634.711Zm-49.549-.341a.158.158,0,0,1-.143-.091l-.41-.861a.159.159,0,1,1,.287-.137l.41.861a.159.159,0,0,1-.075.212A.157.157,0,0,1,56.685,634.37Zm49.917-1.362a.159.159,0,0,1-.149-.215,4.842,4.842,0,0,1,.433-.884.159.159,0,0,1,.269.169,4.506,4.506,0,0,0-.4.826A.159.159,0,0,1,106.6,633.008Zm-50.668-.217a.159.159,0,0,1-.144-.091l-.221-.463c-.1-.057-.193-.111-.292-.161a.159.159,0,1,1,.144-.283c.12.061.239.127.353.2a.158.158,0,0,1,.061.067l.241.507a.159.159,0,0,1-.143.227Zm-1.318-1a.158.158,0,0,1-.049-.008,4.413,4.413,0,0,0-.9-.194.159.159,0,0,1,.032-.316,4.741,4.741,0,0,1,.964.208.159.159,0,0,1-.049.31Zm52.888-.266a.159.159,0,0,1-.116-.268,4.473,4.473,0,0,1,.751-.64.159.159,0,0,1,.179.263,4.145,4.145,0,0,0-.7.594A.159.159,0,0,1,107.5,631.524ZM52.9,631.515a.165.165,0,0,1-.038,0,2.338,2.338,0,0,1-.909-.452.159.159,0,0,1,.2-.247,2.018,2.018,0,0,0,.785.39.159.159,0,0,1-.038.313Zm56.023-1a.159.159,0,0,1-.068-.3c.124-.058.253-.114.386-.165.171-.066.349-.127.529-.179a.159.159,0,0,1,.089.305c-.172.05-.341.107-.5.17-.125.049-.248.1-.365.156A.158.158,0,0,1,108.919,630.516Zm-57.383-.022a.159.159,0,0,1-.138-.079,2.277,2.277,0,0,1-.27-.741c-.013-.076-.023-.153-.029-.23a.159.159,0,0,1,.317-.024q.008.1.025.2a1.956,1.956,0,0,0,.233.637.159.159,0,0,1-.138.238Zm59.049-.488a.159.159,0,0,1-.025-.316,5.008,5.008,0,0,1,.526-.061,2,2,0,0,0,.408-.054.159.159,0,1,1,.074.309,2.319,2.319,0,0,1-.47.062,4.693,4.693,0,0,0-.487.057Zm1.668-.439a.159.159,0,0,1-.091-.29,2.012,2.012,0,0,0,.594-.644.159.159,0,1,1,.275.159,2.335,2.335,0,0,1-.689.746A.158.158,0,0,1,112.253,629.566Zm-60.91-.761a.155.155,0,0,1-.046-.007.159.159,0,0,1-.106-.2,2.337,2.337,0,0,1,.5-.884.159.159,0,1,1,.236.213,2.014,2.014,0,0,0-.432.763A.159.159,0,0,1,51.343,628.8Zm61.814-.679-.025,0a.159.159,0,0,1-.133-.181,1.993,1.993,0,0,0-.059-.874.159.159,0,0,1,.3-.091,2.312,2.312,0,0,1,.069,1.013A.159.159,0,0,1,113.157,628.126ZM52.438,627.5a.159.159,0,0,1-.071-.3q.1-.048.2-.087c.037-.014.075-.028.119-.043.138-.045.275-.092.408-.14a.159.159,0,0,1,.3-.024l.028.059a.159.159,0,0,1-.089.217c-.177.065-.36.129-.544.189-.038.013-.071.024-.1.037q-.087.034-.169.075A.157.157,0,0,1,52.438,627.5Zm60.293-1.024a.159.159,0,0,1-.126-.062,1.981,1.981,0,0,0-.16-.182c-.168-.169-.329-.34-.48-.508a.159.159,0,1,1,.236-.212c.148.164.306.331.47.5a2.347,2.347,0,0,1,.186.211.159.159,0,0,1-.126.257Zm-59.83-.06a.158.158,0,0,1-.143-.091l-.41-.861a.159.159,0,0,1,.287-.137l.41.861a.159.159,0,0,1-.075.212A.156.156,0,0,1,52.9,626.419Zm58.671-1.247a.158.158,0,0,1-.125-.061,9.008,9.008,0,0,1-.556-.795.159.159,0,0,1,.27-.167,8.745,8.745,0,0,0,.537.767.159.159,0,0,1-.125.257Zm-59.378-.349a.159.159,0,0,1-.154-.122,2.324,2.324,0,0,1-.015-1.015.159.159,0,0,1,.311.065,2,2,0,0,0,.013.876.159.159,0,0,1-.118.192A.161.161,0,0,1,52.195,624.823Zm58.454-1.13a.159.159,0,0,1-.144-.092,5.156,5.156,0,0,1-.33-.925.159.159,0,0,1,.309-.076,4.808,4.808,0,0,0,.309.868.159.159,0,0,1-.144.226Zm-58.172-.549a.159.159,0,0,1-.134-.244,2.31,2.31,0,0,1,.716-.719.159.159,0,0,1,.171.268,2,2,0,0,0-.619.621A.159.159,0,0,1,52.476,623.144Zm1.378-1.026a.159.159,0,0,1-.068-.3l.862-.408a.159.159,0,0,1,.136.287l-.862.408A.158.158,0,0,1,53.854,622.118Zm56.362-.107a.159.159,0,0,1-.159-.153c0-.044,0-.087,0-.13a3.547,3.547,0,0,1,.025-.421,3.67,3.67,0,0,1,.079-.438.159.159,0,1,1,.309.075,3.379,3.379,0,0,0-.073.4,3.249,3.249,0,0,0-.023.383c0,.039,0,.079,0,.118a.159.159,0,0,1-.153.165Zm-54.782-.641a.159.159,0,0,1-.068-.3l.862-.408a.159.159,0,1,1,.136.287l-.862.408A.162.162,0,0,1,55.434,621.37Zm1.22-.889a.159.159,0,0,1-.147-.1c-.117-.278-.254-.563-.405-.848a.159.159,0,0,1,.281-.149c.156.293.3.587.417.873a.159.159,0,0,1-.084.208A.161.161,0,0,1,56.654,620.481Zm53.925-.163a.159.159,0,0,1-.144-.226,5.233,5.233,0,0,1,.5-.845.159.159,0,0,1,.258.186,4.927,4.927,0,0,0-.471.794A.159.159,0,0,1,110.579,620.318Zm-54.734-1.386a.159.159,0,0,1-.135-.075c-.259-.418-.47-.7-.528-.777a.159.159,0,1,1,.253-.193c.06.079.279.372.545.8a.159.159,0,0,1-.135.243Zm55.726-.046a.159.159,0,0,1-.116-.267,7.583,7.583,0,0,1,.71-.668.159.159,0,1,1,.2.245,7.32,7.32,0,0,0-.68.64A.159.159,0,0,1,111.571,618.886Zm1.336-1.126a.159.159,0,0,1-.093-.288,1.964,1.964,0,0,0,.58-.656.159.159,0,0,1,.279.153,2.28,2.28,0,0,1-.673.761A.157.157,0,0,1,112.908,617.76Zm-57.98-.31a.159.159,0,0,1-.151-.109,2.325,2.325,0,0,1-.1-1.01.159.159,0,0,1,.315.039,2.029,2.029,0,0,0-.015.247,2,2,0,0,0,.1.625.159.159,0,0,1-.1.2A.161.161,0,0,1,54.928,617.45Zm6.633-1.138c-.1,0-.206,0-.309-.013a.159.159,0,0,1,.025-.317,3.426,3.426,0,0,0,.907-.046.159.159,0,1,1,.059.312A3.721,3.721,0,0,1,61.561,616.312Zm52.221-.011h-.022a.159.159,0,0,1-.136-.179,1.978,1.978,0,0,0-.075-.872.159.159,0,0,1,.3-.1,2.286,2.286,0,0,1,.109.7,2.333,2.333,0,0,1-.021.313A.159.159,0,0,1,113.782,616.3Zm-53.3-.139a.155.155,0,0,1-.042-.006,5.876,5.876,0,0,1-.919-.338.159.159,0,0,1,.133-.289,5.583,5.583,0,0,0,.869.319.159.159,0,0,1-.041.312Zm2.492-.135a.159.159,0,0,1-.057-.307l.08-.031a7.467,7.467,0,0,0,.771-.354.159.159,0,0,1,.148.281,7.679,7.679,0,0,1-.79.363l-.1.037A.161.161,0,0,1,62.976,616.027Zm-7.9-.272a.157.157,0,0,1-.075-.019.159.159,0,0,1-.065-.215,2.289,2.289,0,0,1,.666-.767.159.159,0,0,1,.188.256,1.977,1.977,0,0,0-.574.661A.159.159,0,0,1,55.075,615.755Zm3.813-.293a.158.158,0,0,1-.081-.022c-.225-.134-.457-.284-.688-.449q-.055-.039-.112-.074a.159.159,0,1,1,.166-.271q.066.041.13.086c.224.159.448.3.666.434a.159.159,0,0,1-.081.3Zm5.624-.255a.159.159,0,0,1-.1-.279,2.016,2.016,0,0,0,.524-.7.159.159,0,0,1,.289.132,2.36,2.36,0,0,1-.6.813A.159.159,0,0,1,64.512,615.207Zm-8.1-.509a.159.159,0,0,1-.041-.312,2.315,2.315,0,0,1,1.015-.043.159.159,0,1,1-.057.313,2,2,0,0,0-.875.037A.157.157,0,0,1,56.407,614.7Zm56.918-.034a.158.158,0,0,1-.124-.059,2.017,2.017,0,0,0-.688-.543.159.159,0,0,1,.138-.286,2.336,2.336,0,0,1,.8.629.159.159,0,0,1-.123.259Zm-2.454-.725a.159.159,0,0,1-.01-.318c.147-.01.295-.026.439-.048a2.311,2.311,0,0,1,.533-.02.159.159,0,1,1-.025.317,1.991,1.991,0,0,0-.459.017c-.154.024-.311.041-.467.051Zm-.793-.008h-.014a5.835,5.835,0,0,1-.965-.165.159.159,0,0,1,.079-.308,5.535,5.535,0,0,0,.912.156.159.159,0,0,1-.013.317ZM65.3,613.689l-.026,0a.159.159,0,0,1-.131-.182,4.339,4.339,0,0,0,.052-.669v-.026c0-.075,0-.15,0-.224a.159.159,0,1,1,.318-.013q0,.117.005.237v.028a4.652,4.652,0,0,1-.056.717A.159.159,0,0,1,65.3,613.689Zm43.084-.168a.161.161,0,0,1-.059-.011,6.318,6.318,0,0,1-.875-.436.159.159,0,0,1,.163-.273,5.982,5.982,0,0,0,.831.414.159.159,0,0,1-.06.306Zm-1.5-.88a.157.157,0,0,1-.1-.036,3.9,3.9,0,0,1-.691-.713.159.159,0,0,1,.258-.186,3.594,3.594,0,0,0,.635.652.159.159,0,0,1-.1.282Zm-41.614-.694a.159.159,0,0,1-.157-.133,7.258,7.258,0,0,0-.21-.909.159.159,0,1,1,.3-.092,7.465,7.465,0,0,1,.219.95.159.159,0,0,1-.131.183Zm8.824-.47h0a4.681,4.681,0,0,1-.564-.035.159.159,0,1,1,.038-.315,4.44,4.44,0,0,0,.526.032h0c.13,0,.261-.006.389-.019a.159.159,0,0,1,.031.316C74.371,611.471,74.23,611.478,74.09,611.478Zm1.183-.173a.159.159,0,0,1-.043-.312c.222-.062.436-.133.637-.211.082-.032.161-.065.239-.1a.159.159,0,0,1,.129.291c-.083.037-.167.072-.253.105-.21.082-.435.156-.667.221A.161.161,0,0,1,75.272,611.305Zm-2.508-.016a.16.16,0,0,1-.043-.006,6.935,6.935,0,0,1-.918-.329.159.159,0,0,1,.127-.291,6.614,6.614,0,0,0,.876.314.159.159,0,0,1-.042.312Zm33.078-.028a.159.159,0,0,1-.147-.1,5.3,5.3,0,0,1-.276-.942.159.159,0,1,1,.312-.062,4.973,4.973,0,0,0,.259.885.159.159,0,0,1-.088.207A.156.156,0,0,1,105.843,611.26Zm-34.688-.645a.159.159,0,0,1-.077-.02q-.194-.107-.39-.227c-.145-.088-.291-.182-.434-.28a.159.159,0,1,1,.179-.263c.14.094.281.186.422.272s.253.151.378.22a.159.159,0,0,1-.077.3Zm5.715,0a.159.159,0,0,1-.086-.292,4.167,4.167,0,0,0,.711-.578.159.159,0,0,1,.227.223,4.5,4.5,0,0,1-.766.622A.159.159,0,0,1,76.87,610.612Zm-12-.365a.159.159,0,0,1-.159-.15c0-.043,0-.086,0-.128a2.306,2.306,0,0,1,.171-.874.159.159,0,0,1,.294.12,1.987,1.987,0,0,0-.148.754c0,.037,0,.074,0,.11a.159.159,0,0,1-.15.167Zm4.827-.6a.159.159,0,0,1-.1-.034c-.257-.2-.5-.411-.737-.625a.159.159,0,0,1,.215-.234c.226.208.468.413.718.609a.159.159,0,0,1-.1.284Zm35.767-.087a.159.159,0,0,1-.158-.147c-.016-.209-.025-.427-.025-.647q0-.157.006-.324a.157.157,0,0,1,.164-.153.159.159,0,0,1,.153.164q-.006.16-.006.313c0,.212.008.422.024.622a.159.159,0,0,1-.146.171Zm-27.362-.166a.159.159,0,0,1-.133-.246,4.164,4.164,0,0,0,.412-.818.159.159,0,1,1,.3.111,4.47,4.47,0,0,1-.444.881A.159.159,0,0,1,78.105,609.394Zm-12.649-.745a.159.159,0,0,1-.116-.268,2.307,2.307,0,0,1,.843-.567,2.269,2.269,0,0,1,.57-.14.159.159,0,1,1,.036.316,1.968,1.968,0,0,0-.491.121,2.016,2.016,0,0,0-.321.159,1.994,1.994,0,0,0-.406.33A.158.158,0,0,1,65.457,608.649Zm2.945-.172a.158.158,0,0,1-.1-.037,2,2,0,0,0-.78-.4.159.159,0,1,1,.08-.308,2.32,2.32,0,0,1,.9.463.159.159,0,0,1-.1.281Zm37.107-.663h-.018a.159.159,0,0,1-.14-.176c.033-.291.078-.594.135-.9l.01-.052a.159.159,0,1,1,.313.055c0,.02-.007.039-.011.059-.055.3-.1.59-.131.874A.159.159,0,0,1,105.508,607.815Zm-26.758-.034a.163.163,0,0,1-.032,0,.159.159,0,0,1-.125-.187,5.349,5.349,0,0,0,.1-.919.156.156,0,0,1,.163-.155.159.159,0,0,1,.155.163,5.675,5.675,0,0,1-.109.974A.159.159,0,0,1,78.751,607.781Zm8-.2a.159.159,0,0,1-.032-.315q.069-.014.137-.035c.065-.02.132-.043.2-.069a3.594,3.594,0,0,0,.494-.239.159.159,0,0,1,.159.275,3.955,3.955,0,0,1-.537.26c-.076.029-.151.055-.224.077-.055.017-.11.03-.165.042A.167.167,0,0,1,86.755,607.585Zm-.788-.008a.164.164,0,0,1-.033,0,3.158,3.158,0,0,1-.928-.372.159.159,0,0,1,.16-.275,2.845,2.845,0,0,0,.834.336.159.159,0,0,1-.033.314Zm12.4-.389a3.006,3.006,0,0,1-.667-.077.159.159,0,0,1,.071-.31,2.6,2.6,0,0,0,.894.052.159.159,0,1,1,.037.316A2.861,2.861,0,0,1,98.362,607.188Zm1.086-.216a.159.159,0,0,1-.073-.3l.023-.009a4.406,4.406,0,0,0,.8-.423.159.159,0,1,1,.174.266,4.73,4.73,0,0,1-.871.456A.157.157,0,0,1,99.447,606.972ZM97.01,606.8a.158.158,0,0,1-.1-.034,2.644,2.644,0,0,1-.639-.781.159.159,0,0,1,.276-.158,2.333,2.333,0,0,0,.559.688.159.159,0,0,1-.1.284Zm-8.722-.028a.159.159,0,0,1-.1-.283,7.67,7.67,0,0,0,.691-.628.159.159,0,1,1,.227.223,8.039,8.039,0,0,1-.72.654A.159.159,0,0,1,88.288,606.773Zm-3.853-.006a.157.157,0,0,1-.1-.036,7.673,7.673,0,0,1-.711-.666.159.159,0,1,1,.231-.219,7.387,7.387,0,0,0,.681.639.159.159,0,0,1-.1.282Zm21.212-.685a.159.159,0,0,1-.156-.129,2.007,2.007,0,0,0-.1-.343,2.04,2.04,0,0,0-.252-.461.159.159,0,0,1,.257-.187,2.361,2.361,0,0,1,.291.533,2.335,2.335,0,0,1,.115.4.159.159,0,0,1-.126.186Zm-4.722-.027a.159.159,0,0,1-.1-.28,9,9,0,0,0,.681-.642.159.159,0,1,1,.229.22,9.3,9.3,0,0,1-.706.665A.158.158,0,0,1,100.924,606.055Zm-22.1-.015h0a.159.159,0,0,1-.155-.163,2.318,2.318,0,0,1,.247-.985.159.159,0,0,1,.284.143,2,2,0,0,0-.213.849A.159.159,0,0,1,78.828,606.04Zm10.7-.5a.159.159,0,0,1-.121-.261c.2-.233.391-.483.58-.743a.159.159,0,1,1,.257.186c-.193.267-.393.523-.594.762A.159.159,0,0,1,89.528,605.542Zm-6.312-.028a.159.159,0,0,1-.124-.06c-.271-.338-.43-.58-.431-.582a2.045,2.045,0,0,0-.134-.189.159.159,0,0,1,.248-.2,2.328,2.328,0,0,1,.154.217s.153.232.411.554a.159.159,0,0,1-.124.258Zm12.86-.168a.159.159,0,0,1-.148-.1c-.1-.272-.2-.574-.3-.923a.159.159,0,1,1,.306-.084c.093.339.187.631.288.893a.159.159,0,0,1-.148.216Zm6.094-.515a.159.159,0,0,1-.1-.282,2.3,2.3,0,0,1,.421-.275,2.265,2.265,0,0,1,.208-.093l.06-.023c.07-.025.144-.048.217-.066a.159.159,0,0,1,.078.308c-.063.016-.126.035-.188.057l-.052.019a1.934,1.934,0,0,0-.18.08,1.981,1.981,0,0,0-.363.237A.158.158,0,0,1,102.17,604.831Zm2.523-.157a.159.159,0,0,1-.085-.025,1.983,1.983,0,0,0-.824-.3.159.159,0,0,1,.038-.316,2.3,2.3,0,0,1,.956.344.159.159,0,0,1-.086.293ZM79.538,604.5a.159.159,0,0,1-.106-.277,2.3,2.3,0,0,1,.708-.435l.061-.023q.058-.021.116-.038a.159.159,0,1,1,.091.3l-.1.033-.053.02a1.979,1.979,0,0,0-.611.376A.158.158,0,0,1,79.538,604.5Zm2.514-.269a.158.158,0,0,1-.079-.021,1.982,1.982,0,0,0-.836-.259.159.159,0,0,1-.146-.171.161.161,0,0,1,.171-.146,2.3,2.3,0,0,1,.971.3.159.159,0,0,1-.08.3Zm8.51-.1a.159.159,0,0,1-.134-.244c.184-.288.347-.569.472-.813a.159.159,0,1,1,.283.145c-.129.252-.3.543-.487.839A.158.158,0,0,1,90.562,604.131Zm5.029-.465a.159.159,0,0,1-.155-.123l-.056-.244c-.043-.187-.087-.381-.132-.556-.01-.039-.021-.077-.033-.115a.159.159,0,1,1,.3-.1c.014.043.026.087.038.132.045.178.09.374.134.564l.056.243a.159.159,0,0,1-.155.195Zm-4.257-1.1a.155.155,0,0,1-.061-.012.159.159,0,0,1-.086-.208,2.32,2.32,0,0,1,.586-.829.159.159,0,1,1,.213.236,2.008,2.008,0,0,0-.506.715A.159.159,0,0,1,91.333,602.567Zm3.66-.524a.159.159,0,0,1-.124-.059,2,2,0,0,0-.686-.545.159.159,0,1,1,.138-.286,2.319,2.319,0,0,1,.8.631.159.159,0,0,1-.124.259Zm-2.44-.66a.159.159,0,0,1-.057-.308,2.308,2.308,0,0,1,.812-.151c.071,0,.132,0,.193.007a.159.159,0,0,1-.025.317c-.053,0-.106-.006-.159-.006a2,2,0,0,0-.708.13A.157.157,0,0,1,92.554,601.383Z" transform="translate(-51.098 -600.924)"/></g><g transform="translate(52.55 602.382)"><g transform="translate(0 0)"><g transform="translate(0.038 0.038)"><path class="b" d="M123.525,627.76a7.822,7.822,0,0,1-7.244-2.89c-1.432-2.093-1.187-4.971-.873-6.633-1.852,2.091-4.146,3.434-6.756,2.589s-3.111-4.314-3.46-5.688c-.239.97-2.64,5.268-5.8,6.214-3.653,1.095-6.545-3.512-6.545-3.512a6.776,6.776,0,0,1-5.4,7.354c-4.488,1.114-8.559-3.323-8.559-3.323s1.925,5.131-1.906,7.267c-2.433,1.356-4.883,1.7-8.147-.617,0,0,7.336,9.087-3.567,12.652,0,0,8.119-.306,7.97,12.539,0,0,4.683-3.519,8.407-2.6,5.866,1.446,7.25,6,7.25,6s2.409-4.678,6.827-5.439,7.53,2.964,7.53,2.964a7.51,7.51,0,0,1,4.352-6.491c4.5-2.371,8.586,1.914,8.586,1.914-1.92-10.35,6.71-10.515,6.71-10.515C115.88,632.469,123.525,627.76,123.525,627.76Z" transform="translate(-64.46 -614.326)"/><path class="c" d="M84.711,653.735c-.025,0-.05,0-.074,0a.812.812,0,0,1-.7-.572,7.44,7.44,0,0,0-1.325-2.238,9.808,9.808,0,0,0-5.343-3.21c-3.3-.814-7.682,2.429-7.726,2.462a.812.812,0,0,1-1.3-.659c.053-4.583-.95-7.91-2.982-9.89a6.166,6.166,0,0,0-4.145-1.828.812.812,0,0,1-.283-1.584c2.913-.952,4.671-2.384,5.225-4.256.983-3.32-2.007-7.076-2.038-7.114a.812.812,0,0,1,1.1-1.172c3.211,2.278,5.4,1.621,7.281.57,3.184-1.775,1.558-6.228,1.541-6.272a.812.812,0,0,1,1.359-.834c.037.04,3.807,4.066,7.765,3.084a5.947,5.947,0,0,0,4.788-6.467.812.812,0,0,1,1.494-.53c.025.04,2.612,4.07,5.624,3.166,2.775-.832,5.035-4.793,5.241-5.63a.812.812,0,0,1,.786-.618h0a.812.812,0,0,1,.787.612c.039.153.08.332.125.529.34,1.487.909,3.975,2.8,4.587,1.965.637,3.95-.155,5.9-2.355a.812.812,0,0,1,1.406.689c-.273,1.444-.539,4.147.745,6.024a7.017,7.017,0,0,0,6.45,2.546.812.812,0,0,1,.551,1.493c-.038.024-2.841,1.8-3.172,4.633-.219,1.88.689,3.861,2.7,5.887a.812.812,0,0,1-.561,1.384,7,7,0,0,0-4.79,2.307c-1.34,1.653-1.723,4.092-1.137,7.248a.812.812,0,0,1-1.386.709c-.149-.155-3.726-3.806-7.619-1.755a6.681,6.681,0,0,0-3.919,5.748.813.813,0,0,1-1.435.546c-.027-.032-2.881-3.355-6.769-2.685-3.955.682-6.221,4.969-6.244,5.012A.814.814,0,0,1,84.711,653.735Zm-8.563-7.776a6.286,6.286,0,0,1,1.507.176,11.066,11.066,0,0,1,7.16,5.1,10.758,10.758,0,0,1,6.585-4.554,8.87,8.87,0,0,1,7.081,2.086,8.582,8.582,0,0,1,4.562-5.531,7.7,7.7,0,0,1,7.9.723,9.056,9.056,0,0,1,1.749-6.526,8.065,8.065,0,0,1,4.407-2.658,8.065,8.065,0,0,1-2.121-6.084,7.7,7.7,0,0,1,2.138-4.3,7.46,7.46,0,0,1-6.944-8.244,6.277,6.277,0,0,1-5.962,1.262c-2.02-.654-2.952-2.52-3.459-4.143-1.113,1.775-3.016,3.985-5.314,4.674-2.579.773-4.758-.781-6.085-2.143a8.129,8.129,0,0,1-.328,1.23,7.393,7.393,0,0,1-5.569,4.765c-2.987.742-5.741-.672-7.477-1.932a5.8,5.8,0,0,1-2.789,5.8,7.387,7.387,0,0,1-6.329.766,8.608,8.608,0,0,1,.75,5.992,7.315,7.315,0,0,1-3.846,4.317,8.148,8.148,0,0,1,2.625,1.725c2.122,2.067,3.281,5.282,3.453,9.57A13.218,13.218,0,0,1,76.148,645.958Zm43.188-22.386h0Z" transform="translate(-60.271 -610.138)"/></g><path d="M74.507,617.486s4.071,4.437,8.559,3.323a9.261,9.261,0,0,0,1.125-.354,6.766,6.766,0,0,0,4.273-7s2.892,4.607,6.545,3.512c.126-.038.251-.081.374-.129,2.97-1.155,5.193-5.154,5.422-6.085.349,1.374.852,4.844,3.46,5.688a5,5,0,0,0,3.448-.1,8.9,8.9,0,0,0,3.309-2.484c-.314,1.662-.559,4.54.873,6.633a7.822,7.822,0,0,0,7.244,2.89s-7.644,4.708-.619,11.783a8.136,8.136,0,0,0-2.518.554c-2.378.925-5.411,3.391-4.192,9.961,0,0-3.685-3.866-7.912-2.222a6.527,6.527,0,0,0-.674.308,7.51,7.51,0,0,0-4.352,6.491s-3.113-3.726-7.53-2.965a7.385,7.385,0,0,0-1.425.4,11.732,11.732,0,0,0-5.4,5.042s-1.384-4.554-7.25-6a8.008,8.008,0,0,0-4.684.563,17.481,17.481,0,0,0-3.724,2.038c.149-12.845-7.97-12.539-7.97-12.539q.45-.147.859-.307c9.645-3.751,2.708-12.345,2.708-12.345,2.7,1.916,4.845,2.013,6.883,1.22a10.215,10.215,0,0,0,1.264-.6c3.831-2.136,1.906-7.267,1.906-7.267m36.516-3.633h0M74.2,616.693a.85.85,0,0,0-.489,1.091,8.249,8.249,0,0,1,.43,2.58,3.874,3.874,0,0,1-1.953,3.647,9.247,9.247,0,0,1-1.158.553c-1.354.527-3.269.875-6.082-1.121a.85.85,0,0,0-1.154,1.228c.029.036,2.935,3.706,2.063,6.965-.463,1.73-1.949,3.094-4.417,4.053-.26.1-.534.2-.815.291l-.044.016a.85.85,0,0,0,.341,1.642,6.128,6.128,0,0,1,4.145,1.845c2,1.976,2.995,5.284,2.942,9.834a.85.85,0,0,0,1.361.69,16.783,16.783,0,0,1,3.521-1.925,7.054,7.054,0,0,1,4.172-.53,9.773,9.773,0,0,1,5.32,3.195,7.4,7.4,0,0,1,1.321,2.231.851.851,0,0,0,1.569.138,10.945,10.945,0,0,1,4.955-4.639,6.56,6.56,0,0,1,1.261-.352c3.866-.666,6.706,2.64,6.735,2.673a.852.852,0,0,0,.957.246h0a.85.85,0,0,0,.542-.822,6.646,6.646,0,0,1,3.9-5.708,5.428,5.428,0,0,1,5.381.165,9.3,9.3,0,0,1,2.194,1.585.852.852,0,0,0,.922.2.864.864,0,0,0,.081-.036.85.85,0,0,0,.448-.911c-.6-3.229-.45-7.413,3.663-9.013a7.408,7.408,0,0,1,2.229-.5.851.851,0,0,0,.584-1.449c-2.007-2.021-2.912-4-2.689-5.867.337-2.83,3.123-4.576,3.151-4.593a.85.85,0,0,0-.576-1.564,6.974,6.974,0,0,1-6.413-2.529c-1.27-1.856-1.014-4.529-.743-5.972a.85.85,0,0,0-1.119-.981l-.02.008q-.039.015-.077.034a.843.843,0,0,0-.262.206,8.024,8.024,0,0,1-2.97,2.243,4.134,4.134,0,0,1-2.877.088c-1.869-.605-2.435-3.08-2.773-4.559-.044-.191-.085-.372-.125-.53a.85.85,0,0,0-1.65.006c-.186.758-2.285,4.477-4.9,5.5-.1.04-.208.076-.31.107-3,.9-5.555-3.109-5.581-3.15a.85.85,0,0,0-1.006-.349l-.023.008a.85.85,0,0,0-.535.9,5.882,5.882,0,0,1-3.738,6.1,8.457,8.457,0,0,1-1.021.321c-3.953.981-7.691-3.032-7.728-3.072a.851.851,0,0,0-.934-.218Z" transform="translate(-60.037 -609.903)"/></g><g transform="translate(0.886 7.654)"><g transform="translate(0 9.87)"><path class="d" d="M70.966,726.628l6.295,13.227,1.536.321,2.238-6.837,4.6,5.484,2.03-.375-.139-15.181-2.283.179-.2,8.8-3.73-5.378-2.19.048-1.376,5.347L74.3,725.047Z" transform="translate(-70.076 -722.376)"/><path d="M69.716,720.462l3.447,7.213,1.376-5.347,2.19-.048,3.73,5.378.2-8.8,2.283-.179.139,15.181-2.03.375-4.6-5.484-2.238,6.837-1.536-.321L66.38,722.042l3.336-1.58m-.322-.829-.059.025L66,721.238a.889.889,0,0,0-.422,1.186l6.295,13.227a.889.889,0,0,0,.621.488l1.536.32a.889.889,0,0,0,1.027-.594l1.74-5.316,3.573,4.258a.89.89,0,0,0,.843.3l2.03-.375a.889.889,0,0,0,.728-.883l-.139-15.181a.89.89,0,0,0-.959-.878l-2.282.179a.888.888,0,0,0-.82.866l-.138,6.067-2.172-3.132a.889.889,0,0,0-.75-.382l-2.19.048a.889.889,0,0,0-.842.667l-.767,2.979-2.393-5.007a.889.889,0,0,0-1.124-.446Z" transform="translate(-65.49 -717.79)"/></g><g transform="translate(27.488 1.829)"><path class="d" d="M240.194,677.125l6.295,13.227,1.536.321,2.238-6.837,4.6,5.484,2.03-.375-.139-15.181-2.283.179-.2,8.8-3.73-5.378-2.19.048-1.376,5.347-3.447-7.213Z" transform="translate(-239.305 -672.873)"/><path d="M238.945,670.959l3.447,7.213,1.376-5.347,2.19-.048,3.73,5.378.2-8.8,2.282-.179.139,15.181-2.03.375-4.6-5.484-2.238,6.837-1.537-.32-6.295-13.227,3.336-1.58m-.322-.829-.059.026-3.336,1.58a.889.889,0,0,0-.422,1.186l6.295,13.227a.889.889,0,0,0,.621.488l1.536.321a.889.889,0,0,0,1.027-.594l1.74-5.316L249.6,685.3a.889.889,0,0,0,.843.3l2.03-.375a.9.9,0,0,0,.161-.046.889.889,0,0,0,.566-.837l-.139-15.181a.89.89,0,0,0-.959-.878l-2.283.178a.888.888,0,0,0-.82.867l-.138,6.066-2.172-3.132a.889.889,0,0,0-.75-.382l-2.19.048a.889.889,0,0,0-.842.667l-.767,2.979-2.393-5.007a.89.89,0,0,0-1.124-.446Z" transform="translate(-234.719 -668.287)"/></g><g transform="translate(18.123 8.288)"><path class="d" d="M191.928,721.623c.318,2.172-.679,4.117-2.228,4.344s-3.063-1.35-3.381-3.522.679-4.117,2.228-4.344S191.61,719.451,191.928,721.623Zm-4.116-8.052c-3.438.5-5.836,5.73-5.175,10.242s3.7,6.876,7.133,6.372,5.688-4.569,5.027-9.081S191.25,713.068,187.813,713.571Z" transform="translate(-181.64 -712.634)"/><path d="M182.388,709.212a3.89,3.89,0,0,1,.848-.226c3.438-.5,6.324,3.021,6.985,7.533.59,4.029-1.141,7.7-3.966,8.8a4.857,4.857,0,0,1-1.061.28c-3.437.5-6.472-1.86-7.133-6.372-.605-4.131,1.354-8.86,4.327-10.016m3.184,12.052c1.287-.5,2.066-2.271,1.78-4.226-.318-2.172-1.832-3.749-3.381-3.522a2.065,2.065,0,0,0-.448.119c-1.287.5-2.066,2.271-1.78,4.226.318,2.172,1.832,3.749,3.381,3.522a2.055,2.055,0,0,0,.448-.118m-3.506-12.88a7.706,7.706,0,0,0-4,4.373,12.644,12.644,0,0,0-.883,6.6,8.921,8.921,0,0,0,2.826,5.613,6.572,6.572,0,0,0,5.316,1.511,5.766,5.766,0,0,0,1.254-.331c3.264-1.269,5.166-5.374,4.524-9.759a11.79,11.79,0,0,0-2.668-6.111,5.923,5.923,0,0,0-5.326-2.173,4.786,4.786,0,0,0-1.041.277Zm3.184,12.051a1.172,1.172,0,0,1-.255.068,1.687,1.687,0,0,1-1.381-.6,4.029,4.029,0,0,1-.991-2.174c-.242-1.653.431-2.96,1.222-3.268a1.182,1.182,0,0,1,.255-.067c1.043-.153,2.13,1.116,2.372,2.771s-.431,2.96-1.222,3.268Z" transform="translate(-177.063 -708.049)"/></g><g transform="translate(44.978)"><path class="d" d="M347.872,663.017l2.836-.515,2.1,11.441-3.128.416Z" transform="translate(-346.982 -661.612)"/><path d="M343.285,658.43l2.836-.515,2.1,11.441-3.128.416-1.81-11.342m-.323-.829a.89.89,0,0,0-.555.969l1.81,11.342a.889.889,0,0,0,1,.742l3.128-.416a.889.889,0,0,0,.758-1.042L347,657.754a.889.889,0,0,0-1.034-.714l-2.836.515a.88.88,0,0,0-.164.046Z" transform="translate(-342.396 -657.026)"/><g transform="translate(1.792 13.517)"><circle class="d" cx="1.957" cy="1.957" r="1.957" transform="translate(0.175 2.117) rotate(-29.723)"/><path d="M355.562,741.268q.079-.031.162-.055a1.957,1.957,0,0,1,1.261,3.7q-.079.031-.162.055a1.957,1.957,0,0,1-1.261-3.7m-.322-.829h0a2.846,2.846,0,0,0,1.833,5.383c.079-.023.158-.05.234-.08a2.846,2.846,0,0,0-1.833-5.383c-.079.023-.158.05-.234.08Z" transform="translate(-353.429 -740.245)"/></g></g></g></g></g></svg>