<svg xmlns="http://www.w3.org/2000/svg" width="47.203" height="37.99" viewBox="0 0 47.203 37.99"><defs><style>.a{fill:#fff;}.b{fill:#e4355b;}.c{fill:#fbce31;}.d{fill:#52ebfe;}.e{fill:#93ff00;}.f{fill:#b6ff53;}.g{fill:#f875ae;}</style></defs><g transform="translate(-1330.351 -448.509)"><g transform="translate(1332.01 450.169)"><path class="a" d="M1433.976,492.531a3.879,3.879,0,0,0,4.126-2.062,3.594,3.594,0,0,0-1.03-3.818,3.506,3.506,0,0,0-1.9-.934,3.313,3.313,0,0,0-1.132.044c-.347.073-.678.216-1.026.262a5.416,5.416,0,0,0-.649.387,2.987,2.987,0,0,0-.9.977,3.188,3.188,0,0,0-.269,2.315A3.612,3.612,0,0,0,1433.976,492.531Zm.261-5.992a2.607,2.607,0,0,1,.283-.042l0,.7.9.286.511-.711a2.824,2.824,0,0,1,.64.451,3.084,3.084,0,0,1,.427.5l-.854.487.405.674.946.093a2.315,2.315,0,0,1-.132,1.182c-.02.051-.045.1-.069.148l-1.1-.4-.214.548.571.712a3.229,3.229,0,0,1-1.165.531l-.575-1.035-.885.015-.216.917a2.644,2.644,0,0,1-.87-.583l.486-.548-.141-.372-.966-.016a2.9,2.9,0,0,1-.165-.51q-.023-.109-.039-.218l.819-.213.019-.566-.794-.287a2.117,2.117,0,0,1,.2-.5,2.2,2.2,0,0,1,.175-.259l.773.353.479-.335-.107-.834C1433.8,486.668,1434.014,486.586,1434.237,486.539Z" transform="translate(-1403.162 -476.425)"/><path class="b" d="M1364.028,470.443c-.524.051-1.047.108-1.572.152a8,8,0,0,1-1.214.06,7.863,7.863,0,0,1,.261,1.576q.118.918.231,1.836c.151,1.226.267,2.455.385,3.684.247,2.562.469,5.145.833,7.694a7.718,7.718,0,0,1,1.01-.217c.446-.055.893-.1,1.341-.145,1.014-.1,2.031-.171,3.048-.233,3.763-.231,7.537-.325,11.291-.68,4.095-.387,8.164-1.148,12.275-1.359a7.079,7.079,0,0,1-.164-1.28c-.075-.635-.137-1.271-.195-1.907-.18-1.981-.282-3.968-.368-5.955-.041-.934-.089-1.869-.12-2.8a19.119,19.119,0,0,1-.071-2.478q-3.147.15-6.29.356c-3.895.253-7.789.527-11.677.865q-3,.261-6,.547Q1365.527,470.3,1364.028,470.443Zm6.662,2.457a61.022,61.022,0,0,1,7.213-.671c.641-.029,1.284-.017,1.926-.044s1.293-.085,1.94-.119c1.281-.067,2.57-.05,3.853-.037a.232.232,0,0,1,.21.12c.13.017.259.04.39.069a5.88,5.88,0,0,1,3.926,3.188,4.191,4.191,0,0,1,.376,2.449,4.662,4.662,0,0,1-1.076,2.121,6.9,6.9,0,0,1-4,2.067,39.221,39.221,0,0,1-4.77.526c-4.231.343-8.447,1.279-12.7.608a6.732,6.732,0,0,1-2.221-.636,4.457,4.457,0,0,1-1.214-1.008,4.581,4.581,0,0,1-1.047-3.031,5.282,5.282,0,0,1,4.281-4.93A17.828,17.828,0,0,1,1370.69,472.9Z" transform="translate(-1353.827 -464.208)"/><path class="c" d="M1370.771,486.166a4.668,4.668,0,0,0-.47,3.1,4.391,4.391,0,0,0,1.431,2.6,3.974,3.974,0,0,0,1.536.705,14.3,14.3,0,0,0,2.988.372c3.855.139,7.64-.691,11.469-.968a26.488,26.488,0,0,0,4.472-.567,6.018,6.018,0,0,0,3.679-2.129,4.165,4.165,0,0,0-.281-4.629,5.482,5.482,0,0,0-4.312-2.225l-.014,0c-1.217-.007-2.434.011-3.65-.019a59.082,59.082,0,0,0-7.526.522c-1.811.188-3.608.516-5.416.727-.316.093-.635.18-.948.283A5.05,5.05,0,0,0,1370.771,486.166Zm17.687-1.514a3.941,3.941,0,0,1,1.245-1.167c.556-.8,2.008-.807,2.853-.621a4.2,4.2,0,0,1,2.334,1.49,3.989,3.989,0,0,1,.464,4.6,4.571,4.571,0,0,1-5.062,1.7,3.885,3.885,0,0,1-2.537-3.777A4.323,4.323,0,0,1,1388.458,484.652Zm-8.054,1.9a.569.569,0,0,1,.422-.261,20.386,20.386,0,0,1,3.016-.427c.844-.084,1.686-.159,2.533-.184a.243.243,0,0,1,.233.179c.032.2.053.4.075.6q.046.427.078.854a3.655,3.655,0,0,1,.035.833.175.175,0,0,1,.026.2c-.1.208-.3.2-.5.222-.245.032-.49.063-.736.092-.531.061-1.061.135-1.593.193-.551.059-1.1.116-1.654.155a4.913,4.913,0,0,1-1.39,0,.217.217,0,0,1-.34-.112,6.566,6.566,0,0,1-.1-1.164,3.9,3.9,0,0,1-.052-.865A.3.3,0,0,1,1380.4,486.557Zm-7.423-1.462c.556-.8,2.007-.807,2.853-.621a4.2,4.2,0,0,1,2.334,1.49,3.989,3.989,0,0,1,.463,4.6,4.571,4.571,0,0,1-5.062,1.7,3.885,3.885,0,0,1-2.536-3.777,4.321,4.321,0,0,1,.7-2.225A3.942,3.942,0,0,1,1372.982,485.1Z" transform="translate(-1360.166 -474.108)"/><path class="d" d="M1354.48,460.366c-1.227.121-2.453.254-3.679.384-1.179.125-2.362.279-3.547.347a18.538,18.538,0,0,1,.373,2.713c.106.961.209,1.923.3,2.885q.49,5.183.832,10.378c.23,3.489.477,7,.531,10.493a26.143,26.143,0,0,1,3.775-.6q.642-.077,1.285-.142a1.984,1.984,0,0,1,.273-.609q.22-.39.44-.779c.32-.563.66-1.114,1-1.662s.751-1.081,1.13-1.622c.166-.237.33-.474.5-.706a1.854,1.854,0,0,1,.41-.489.078.078,0,0,1,.051-.112,9.808,9.808,0,0,1,1.906-.312q1.031-.11,2.063-.2c2.836-.264,5.667-.569,8.5-.821q2.219-.2,4.439-.381,1.12-.093,2.241-.181a7.517,7.517,0,0,1,1.742-.067.081.081,0,0,1,.06-.064c.274-.05.528.249.7.426.261.266.511.542.754.824.505.588.948,1.227,1.394,1.859s.908,1.249,1.34,1.889c.276.409.583.815.835,1.244.871-.1,1.741-.215,2.614-.3a6.2,6.2,0,0,1-.087-.823q-.047-.752-.087-1.5c-.053-.986-.1-1.973-.156-2.959-.183-3.391-.511-6.771-.712-10.16-.114-1.922-.252-3.842-.394-5.762q-.105-1.433-.206-2.866-.053-.763-.094-1.526a10.778,10.778,0,0,1-.039-1.378c-1.321.178-2.666.215-3.995.311q-2.107.151-4.214.311c-4.958.384-9.91.831-14.864,1.255C1359.428,459.871,1356.954,460.122,1354.48,460.366Zm29.658,21.764a.179.179,0,0,1,0-.023c.083-.737,1.2-.91,1.674-.461a1.368,1.368,0,0,1,.05,1.832,1.178,1.178,0,0,1-1.471.051A.962.962,0,0,1,1384.138,482.13Zm-31.05,2.558a1.179,1.179,0,0,1-1.471.051.962.962,0,0,1-.253-1.4c0-.008,0-.015,0-.023.082-.737,1.2-.911,1.674-.461A1.368,1.368,0,0,1,1353.089,484.688Zm28.238-24.357c.3-.014.345.367.147.506a8.734,8.734,0,0,1,.163,1.325c.044.522.089,1.044.125,1.566.132,1.9.2,3.8.319,5.7q.1,1.53.223,3.058c.047.561.1,1.122.149,1.682a5.879,5.879,0,0,1,.091,1.18.269.269,0,0,1-.157.47c-2.331.138-4.642.365-6.956.681-2.133.291-4.268.576-6.414.757-1.771.15-3.547.238-5.321.328-1.952.1-3.9.191-5.854.316-.891.058-1.783.116-2.673.19-.388.032-.775.068-1.162.109-.317.034-.627.02-.943.029a.212.212,0,0,1-.4-.1c-.171-2.583-.487-5.173-.792-7.744-.146-1.229-.31-2.455-.449-3.685q-.1-.919-.213-1.836a7.449,7.449,0,0,1-.136-1.774.161.161,0,0,1,.085-.207,7.005,7.005,0,0,1,1.613-.26c.567-.061,1.135-.114,1.7-.171q1.693-.168,3.386-.332C1365.672,461.367,1373.489,460.7,1381.326,460.331Z" transform="translate(-1343.948 -456.718)"/><path class="e" d="M1399.554,534c-.463-.64-.966-1.245-1.468-1.855-.238-.289-.482-.571-.739-.844-.082-.087-.207-.2-.309-.318a7.727,7.727,0,0,1-2.131.252q-1.21.087-2.42.178c-2.948.223-5.9.468-8.843.7-1.351.1-2.7.238-4.047.371q-.948.093-1.9.178a9.126,9.126,0,0,1-1.658.054,2.135,2.135,0,0,1-.4.618c-.177.251-.356.5-.516.767-.324.532-.621,1.08-.942,1.614-.333.554-.656,1.115-.992,1.667-.163.268-.323.539-.488.806a3.046,3.046,0,0,1-.208.31q1.252-.122,2.506-.207c4.928-.342,9.872-.348,14.805-.59q3.783-.186,7.559-.5,1.871-.156,3.739-.343l.3-.032c-.222-.325-.423-.668-.636-.992C1400.367,535.218,1399.983,534.591,1399.554,534Z" transform="translate(-1361.773 -508.414)"/><path class="f" d="M1406.824,497.769a6.215,6.215,0,0,1,1.147-.167c.551-.056,1.1-.106,1.655-.161s1.1-.1,1.648-.177q.388-.053.775-.109l.1-.016a7.043,7.043,0,0,1-.082-.734c-.032-.266-.063-.532-.1-.8-.014-.113-.028-.226-.045-.338-.291.028-.58.079-.87.108-.634.063-1.267.135-1.9.207-.61.068-1.22.14-1.825.24-.206.033-.413.068-.615.12l-.031.009a4.183,4.183,0,0,1,.093.814A4.538,4.538,0,0,1,1406.824,497.769Z" transform="translate(-1385.923 -483.194)"/><path class="a" d="M1374.276,495.182a3.612,3.612,0,0,0,2.779,2.829,3.879,3.879,0,0,0,4.127-2.062,3.6,3.6,0,0,0-1.03-3.819,3.506,3.506,0,0,0-1.9-.934,3.325,3.325,0,0,0-1.132.043c-.346.073-.678.216-1.026.262a5.417,5.417,0,0,0-.648.387,2.994,2.994,0,0,0-.9.977A3.189,3.189,0,0,0,1374.276,495.182Zm3-3.162a2.6,2.6,0,0,1,.283-.042l0,.7.9.286.51-.711a2.823,2.823,0,0,1,.64.451,3.079,3.079,0,0,1,.426.5l-.854.487.405.674.947.093a2.32,2.32,0,0,1-.132,1.182c-.02.051-.045.1-.069.148l-1.1-.4-.214.548.571.712a3.241,3.241,0,0,1-1.165.531l-.575-1.035-.885.015-.216.917a2.644,2.644,0,0,1-.871-.583l.486-.548-.141-.372-.966-.016a2.863,2.863,0,0,1-.165-.51c-.016-.073-.028-.145-.039-.218l.819-.213.019-.566-.793-.287a2.108,2.108,0,0,1,.2-.5,2.2,2.2,0,0,1,.174-.259l.773.353.479-.335-.107-.834C1376.833,492.149,1377.049,492.067,1377.271,492.02Z" transform="translate(-1362.962 -480.296)"/><path class="d" d="M1376.965,552.673c-4.974.393-9.953.56-14.939.713-2.47.076-4.941.171-7.406.362-1.222.095-2.443.212-3.66.359-1.1.133-2.209.361-3.317.455a6.052,6.052,0,0,1-.5.511c-.264.252-.53.5-.811.734a13.669,13.669,0,0,1-1.508,1.147c.7-.084,1.41-.108,2.118-.147.889-.049,1.779-.1,2.667-.176,1.733-.141,3.465-.325,5.2-.495,3.093-.3,6.184-.578,9.288-.741,2.354-.123,4.708-.256,7.059-.43,1.7-.125,3.4-.268,5.1-.405.895-.072,1.79-.137,2.684-.216,1.068-.095,2.145-.249,3.218-.258.507-.427,1.062-.806,1.572-1.229.282-.234.568-.462.845-.7.081-.069.164-.146.25-.222-1.212.153-2.435.248-3.649.368Q1379.067,552.508,1376.965,552.673Z" transform="translate(-1342.23 -523.211)"/><path class="d" d="M1341.918,498.014c.282-.234.568-.462.845-.7.081-.07.165-.147.252-.223a.25.25,0,0,1,.016-.227.255.255,0,0,1-.059-.153c-.117-1.974-.171-3.951-.279-5.925q-.283-5.2-.716-10.389-.214-2.562-.465-5.12c-.086-.874-.165-1.749-.25-2.623-.064-.654-.164-1.316-.182-1.977q-.441.592-.85,1.205a16.31,16.31,0,0,1-1.061,1.627.192.192,0,0,1-.141.062,23.472,23.472,0,0,1,.226,2.887q.081,1.531.159,3.063.258,5.041.536,10.082.134,2.406.276,4.813c.093,1.568.258,3.158.238,4.731C1340.937,498.759,1341.446,498.406,1341.918,498.014Z" transform="translate(-1338.138 -465.825)"/><path class="g" d="M1362.808,543.951c-.246.065-.349.3-.565.4a.246.246,0,0,1-.052.017c.006.288-.031.574.234.777a.728.728,0,0,0,.788.065.8.8,0,0,0,.135-1.084A.506.506,0,0,0,1362.808,543.951Z" transform="translate(-1354.497 -517.56)"/><path class="g" d="M1473.99,541.024a.729.729,0,0,0,.788.065.8.8,0,0,0,.135-1.084.507.507,0,0,0-.541-.172c-.246.065-.349.3-.565.4a.217.217,0,0,1-.051.017C1473.762,540.536,1473.725,540.822,1473.99,541.024Z" transform="translate(-1433.288 -514.652)"/><path d="M1379.857,482.243a5.787,5.787,0,0,0-.021-.791l0-.055q-.048-.663-.09-1.326-.084-1.312-.153-2.624c-.1-1.857-.192-3.41-.305-4.886-.224-2.924-.425-5.9-.619-8.776l-.158-2.325q-.106-1.556-.208-3.113-.055-.858-.113-1.715c-.008-.119-.015-.238-.021-.357a7.759,7.759,0,0,0-.165-1.414.732.732,0,0,0-.323-.457.756.756,0,0,0-.546-.242c-.982-.017-1.971.063-2.927.139-.292.023-.583.047-.874.067q-1.847.131-3.692.28c-2.7.215-5.136.424-7.443.639-4,.373-8.052.808-11.975,1.229l-2.888.309q-2,.212-3.991.413l-.211.022q-.492.05-.985.1c-.884.084-1.795.171-2.694.3a.739.739,0,0,0-.337-.094.73.73,0,0,0-.6.292c-.461.593-.867,1.151-1.24,1.706-.063.094-.129.189-.2.286a8.25,8.25,0,0,0-.819,1.373.673.673,0,0,0-.219.432,15,15,0,0,0,.02,2.426c.013.206.026.411.036.615q.042.824.088,1.647l.123,2.293q.1,1.947.2,3.9.239,4.905.493,9.809c.049.923.1,1.846.16,2.768l.025.429c.045.779.091,1.585.212,2.384a.7.7,0,0,0,.121.3.684.684,0,0,0,.029.1.674.674,0,0,0,.556.439q.238.027.477.043a23.4,23.4,0,0,0,3.548-.12c.255-.022.508-.043.76-.063,1.509-.117,3.113-.244,4.686-.395l1.122-.108c2.648-.257,5.387-.522,8.084-.664,4.524-.238,8.67-.5,12.674-.79l.231-.017c.893-.066,1.785-.131,2.678-.186.444-.027.89-.041,1.337-.055.755-.024,1.535-.048,2.305-.139a.9.9,0,0,0,.744-.576,14.929,14.929,0,0,0,1.307-1.009l.078-.065c.306-.255.592-.525.837-.758l.073-.069a4.019,4.019,0,0,0,.633-.706A.871.871,0,0,0,1379.857,482.243Zm-1.273.64c-.086.076-.17.152-.25.221-.277.239-.564.467-.845.7-.51.423-1.064.8-1.572,1.229-1.073.009-2.15.164-3.218.259-.894.079-1.79.143-2.684.216-1.7.137-3.4.28-5.1.405-2.351.174-4.705.307-7.06.43-3.1.163-6.194.437-9.288.741-1.731.17-3.462.354-5.2.495-.887.072-1.777.127-2.667.176-.707.039-1.415.063-2.118.147a13.691,13.691,0,0,0,1.508-1.147c.281-.234.546-.482.811-.734a6.062,6.062,0,0,0,.5-.511c1.108-.094,2.214-.322,3.317-.455,1.217-.147,2.438-.264,3.66-.359,2.465-.191,4.936-.287,7.406-.362,4.986-.153,9.965-.32,14.939-.713q2.1-.166,4.2-.372C1376.149,483.131,1377.372,483.036,1378.584,482.883Zm-40.5-.131q-.142-2.406-.276-4.813-.282-5.041-.536-10.082-.078-1.532-.159-3.063a23.474,23.474,0,0,0-.226-2.887.193.193,0,0,0,.141-.062,16.352,16.352,0,0,0,1.061-1.627q.409-.614.85-1.205c.018.66.119,1.323.182,1.976.085.874.164,1.749.25,2.623q.251,2.558.465,5.12.433,5.189.716,10.389c.108,1.974.162,3.951.279,5.925a.254.254,0,0,0,.059.153.249.249,0,0,0-.016.227c-.087.076-.171.153-.252.223-.277.239-.563.467-.845.7-.472.392-.981.745-1.456,1.133C1338.344,485.91,1338.178,484.319,1338.086,482.752Zm30.735-26.906q2.106-.163,4.214-.311c1.329-.1,2.674-.132,3.995-.311a10.756,10.756,0,0,0,.039,1.378q.042.763.094,1.526.1,1.433.206,2.866c.142,1.92.279,3.84.394,5.762.2,3.39.529,6.77.712,10.16.053.986.1,1.973.156,2.959q.041.752.087,1.5a6.2,6.2,0,0,0,.086.823c-.872.087-1.742.2-2.614.3-.252-.429-.559-.835-.835-1.244-.432-.641-.894-1.259-1.34-1.889s-.889-1.271-1.394-1.859c-.243-.282-.493-.559-.754-.824-.174-.177-.428-.476-.7-.426a.081.081,0,0,0-.06.063,7.514,7.514,0,0,0-1.742.067q-1.121.088-2.241.181-2.22.183-4.438.381c-2.837.252-5.668.557-8.5.821q-1.033.1-2.064.2a9.8,9.8,0,0,0-1.905.312.078.078,0,0,0-.051.112,1.854,1.854,0,0,0-.41.489c-.172.232-.336.469-.5.706-.379.541-.778,1.062-1.129,1.622s-.684,1.1-1,1.662q-.221.389-.44.779a1.98,1.98,0,0,0-.273.609q-.643.066-1.285.142a26.145,26.145,0,0,0-3.775.6c-.055-3.5-.3-7-.531-10.493q-.341-5.194-.832-10.378c-.091-.963-.194-1.924-.3-2.885a18.521,18.521,0,0,0-.373-2.713c1.185-.068,2.368-.222,3.547-.347,1.226-.13,2.452-.263,3.679-.384,2.474-.244,4.948-.495,7.425-.707C1358.911,456.677,1363.864,456.23,1368.821,455.846Zm6.808,26.721-.3.032q-1.868.188-3.739.343-3.775.314-7.559.5c-4.933.243-9.877.248-14.805.59q-1.254.087-2.506.207a3.056,3.056,0,0,0,.208-.31c.165-.267.325-.538.488-.806.336-.552.659-1.112.992-1.667.32-.534.618-1.082.941-1.614.16-.262.339-.516.516-.767a2.134,2.134,0,0,0,.4-.618,9.128,9.128,0,0,0,1.658-.054q.948-.086,1.9-.178c1.348-.133,2.7-.266,4.048-.371,2.948-.228,5.894-.472,8.843-.7q1.209-.092,2.42-.178a7.728,7.728,0,0,0,2.131-.252c.1.121.227.231.309.318.256.273.5.556.739.844.5.61,1.005,1.215,1.469,1.855.429.592.812,1.219,1.213,1.83C1375.207,481.9,1375.408,482.243,1375.63,482.567Z" transform="translate(-1336 -454.16)"/><path d="M1378.806,494.979l-.479.335-.773-.353a2.2,2.2,0,0,0-.174.259,2.115,2.115,0,0,0-.2.5l.794.287-.019.566-.819.213c.011.073.024.145.039.218a2.853,2.853,0,0,0,.165.51l.965.016.141.372-.486.548a2.646,2.646,0,0,0,.871.583l.216-.917.885-.015.575,1.035a3.243,3.243,0,0,0,1.165-.531l-.571-.712.214-.548,1.1.4c.024-.049.049-.1.069-.148a2.318,2.318,0,0,0,.132-1.182l-.946-.093-.406-.674.854-.486a3.075,3.075,0,0,0-.427-.5,2.817,2.817,0,0,0-.64-.451l-.51.711-.9-.286,0-.7a2.612,2.612,0,0,0-.283.042c-.223.047-.438.129-.659.176Z" transform="translate(-1365.049 -482.245)"/><path d="M1360.739,543a.176.176,0,0,0,0,.023.962.962,0,0,0,.254,1.4,1.179,1.179,0,0,0,1.471-.051,1.368,1.368,0,0,0-.05-1.832C1361.937,542.093,1360.821,542.267,1360.739,543Zm1.3,1.048a.727.727,0,0,1-.788-.065c-.264-.2-.228-.489-.234-.777a.261.261,0,0,0,.051-.017c.216-.1.32-.333.565-.4a.506.506,0,0,1,.54.172A.8.8,0,0,1,1362.038,544.052Z" transform="translate(-1353.322 -516.405)"/><path d="M1363.619,468.577c-.567.057-1.135.11-1.7.171a7.008,7.008,0,0,0-1.614.26.161.161,0,0,0-.085.207,7.455,7.455,0,0,0,.136,1.774q.109.918.213,1.836c.139,1.23.3,2.456.449,3.685.305,2.571.621,5.161.792,7.744a.212.212,0,0,0,.4.1c.316-.01.626,0,.943-.029.387-.041.775-.077,1.162-.109.89-.074,1.782-.132,2.673-.19,1.95-.125,3.9-.217,5.854-.316,1.775-.09,3.55-.178,5.321-.328,2.146-.181,4.28-.466,6.414-.757,2.314-.316,4.625-.543,6.956-.681a.269.269,0,0,0,.157-.47,5.879,5.879,0,0,0-.091-1.18c-.051-.561-.1-1.121-.149-1.682q-.127-1.528-.223-3.058c-.118-1.9-.187-3.8-.319-5.7-.036-.523-.081-1.045-.125-1.566a8.717,8.717,0,0,0-.163-1.325c.2-.139.151-.521-.147-.506-7.837.369-15.654,1.036-23.463,1.787Q1365.312,468.408,1363.619,468.577Zm20.352-1.2q3.144-.2,6.291-.356a19.12,19.12,0,0,0,.071,2.478c.032.935.08,1.87.121,2.8.086,1.987.188,3.974.368,5.955.058.636.12,1.272.2,1.907a7.078,7.078,0,0,0,.164,1.28c-4.11.21-8.18.971-12.275,1.359-3.754.355-7.529.449-11.291.68-1.017.062-2.033.135-3.048.233-.448.044-.895.091-1.341.145a7.7,7.7,0,0,0-1.01.217c-.364-2.548-.586-5.132-.833-7.694-.118-1.229-.235-2.458-.385-3.684q-.113-.918-.231-1.836a7.864,7.864,0,0,0-.261-1.576,7.984,7.984,0,0,0,1.214-.06c.525-.044,1.048-.1,1.572-.152q1.5-.146,3-.288,3-.283,6-.547C1376.182,467.908,1380.076,467.634,1383.97,467.381Z" transform="translate(-1353.089 -462.845)"/><path d="M1375.514,497a4.572,4.572,0,0,0,5.062-1.7,3.989,3.989,0,0,0-.464-4.6,4.2,4.2,0,0,0-2.334-1.49c-.846-.186-2.3-.175-2.853.621A3.944,3.944,0,0,0,1373.68,491a4.323,4.323,0,0,0-.7,2.225A3.885,3.885,0,0,0,1375.514,497Zm-1.822-5.585a2.992,2.992,0,0,1,.9-.977,5.4,5.4,0,0,1,.649-.387c.347-.046.679-.19,1.026-.262a3.325,3.325,0,0,1,1.132-.043,3.506,3.506,0,0,1,1.9.934,3.6,3.6,0,0,1,1.03,3.819,3.879,3.879,0,0,1-4.127,2.062,3.612,3.612,0,0,1-2.779-2.829A3.189,3.189,0,0,1,1373.692,491.415Z" transform="translate(-1362.109 -478.844)"/><path d="M1404.932,495.623a6.566,6.566,0,0,0,.1,1.164.217.217,0,0,0,.34.112,4.912,4.912,0,0,0,1.39,0c.552-.039,1.1-.1,1.654-.155.532-.058,1.062-.132,1.593-.193.246-.029.491-.06.736-.092.2-.027.4-.014.5-.222a.175.175,0,0,0-.026-.2,3.656,3.656,0,0,0-.035-.833q-.032-.427-.078-.854c-.022-.2-.043-.4-.075-.6a.243.243,0,0,0-.233-.179c-.848.025-1.69.1-2.533.184a20.382,20.382,0,0,0-3.016.427.569.569,0,0,0-.422.261.3.3,0,0,0,.047.317A3.9,3.9,0,0,0,1404.932,495.623Zm.461-.88c.2-.053.409-.087.615-.12.605-.1,1.215-.171,1.825-.24.633-.071,1.266-.143,1.9-.207.29-.029.579-.081.869-.108.017.112.031.225.045.338.034.265.064.531.1.8a6.945,6.945,0,0,0,.082.734l-.1.016q-.387.056-.775.109c-.548.075-1.1.122-1.648.177s-1.1.105-1.655.161a6.216,6.216,0,0,0-1.147.167,4.56,4.56,0,0,0-.042-1,4.192,4.192,0,0,0-.093-.814Z" transform="translate(-1384.594 -481.992)"/><path d="M1368.94,487.232a4.581,4.581,0,0,0,1.046,3.031,4.46,4.46,0,0,0,1.214,1.008,6.73,6.73,0,0,0,2.221.636c4.248.672,8.464-.265,12.7-.608a39.232,39.232,0,0,0,4.77-.526,6.9,6.9,0,0,0,4-2.067,4.663,4.663,0,0,0,1.076-2.121,4.193,4.193,0,0,0-.376-2.449,5.881,5.881,0,0,0-3.926-3.188c-.131-.029-.26-.052-.39-.069a.232.232,0,0,0-.211-.12c-1.283-.013-2.571-.03-3.852.037-.647.034-1.292.092-1.94.119s-1.285.015-1.926.044a61.021,61.021,0,0,0-7.213.671,17.841,17.841,0,0,0-2.905.674A5.282,5.282,0,0,0,1368.94,487.232Zm4.835-4.742c1.808-.211,3.605-.539,5.416-.727a59.075,59.075,0,0,1,7.526-.522c1.217.03,2.434.011,3.651.019l.014,0a5.483,5.483,0,0,1,4.312,2.225,4.165,4.165,0,0,1,.28,4.629,6.018,6.018,0,0,1-3.679,2.129,26.49,26.49,0,0,1-4.473.567c-3.83.277-7.614,1.107-11.469.968a14.3,14.3,0,0,1-2.988-.372,3.975,3.975,0,0,1-1.536-.705,4.389,4.389,0,0,1-1.431-2.6,4.666,4.666,0,0,1,.47-3.1,5.049,5.049,0,0,1,2.958-2.222C1373.141,482.67,1373.459,482.584,1373.775,482.49Z" transform="translate(-1359.263 -472.936)"/><path d="M1432.435,491.52a4.571,4.571,0,0,0,5.062-1.7,3.989,3.989,0,0,0-.464-4.6,4.194,4.194,0,0,0-2.334-1.49c-.845-.186-2.3-.175-2.853.621a3.941,3.941,0,0,0-1.245,1.167,4.323,4.323,0,0,0-.7,2.225A3.885,3.885,0,0,0,1432.435,491.52Zm-1.822-5.585a2.986,2.986,0,0,1,.9-.977,5.437,5.437,0,0,1,.648-.387c.348-.046.679-.19,1.026-.262a3.313,3.313,0,0,1,1.132-.044,3.506,3.506,0,0,1,1.9.934,3.594,3.594,0,0,1,1.03,3.818,3.879,3.879,0,0,1-4.126,2.062,3.612,3.612,0,0,1-2.779-2.829A3.188,3.188,0,0,1,1430.613,485.935Z" transform="translate(-1402.308 -474.974)"/><path d="M1472.556,540.309a1.179,1.179,0,0,0,1.471-.051,1.369,1.369,0,0,0-.05-1.832c-.476-.449-1.591-.276-1.674.461,0,.008,0,.015,0,.023A.962.962,0,0,0,1472.556,540.309Zm.076-1.233c.216-.1.319-.333.565-.4a.506.506,0,0,1,.54.172.8.8,0,0,1-.135,1.084.729.729,0,0,1-.788-.065c-.264-.2-.228-.489-.233-.777A.219.219,0,0,0,1472.632,539.076Z" transform="translate(-1432.112 -513.497)"/><path d="M1435.878,489.5l-.479.335-.773-.353a2.212,2.212,0,0,0-.174.259,2.122,2.122,0,0,0-.2.5l.793.287-.019.566-.818.213q.016.108.039.218a2.875,2.875,0,0,0,.165.51l.966.016.141.372-.486.548a2.641,2.641,0,0,0,.87.583l.216-.917.885-.015.576,1.035a3.229,3.229,0,0,0,1.165-.531l-.571-.712.214-.548,1.1.4c.024-.049.049-.1.069-.148a2.315,2.315,0,0,0,.132-1.182l-.947-.093-.405-.674.854-.487a3.094,3.094,0,0,0-.427-.5,2.828,2.828,0,0,0-.64-.451l-.511.711-.9-.286,0-.7a2.619,2.619,0,0,0-.283.042c-.223.047-.439.129-.659.176Z" transform="translate(-1405.355 -478.375)"/></g><path d="M1335.5,486.5c-.337,0-.65-.009-.958-.029a.271.271,0,0,1-.253-.288.267.267,0,0,1,.288-.253c.3.019.6.028.923.028h.142a.271.271,0,0,1,0,.542Zm1.225-.038a.271.271,0,0,1-.015-.541c.361-.021.72-.048,1.074-.078a.271.271,0,1,1,.044.54c-.359.03-.721.057-1.087.078Zm-3.233-.152a.27.27,0,0,1-.092-.016,2.322,2.322,0,0,1-.993-.7.271.271,0,1,1,.416-.348,1.78,1.78,0,0,0,.761.533.271.271,0,0,1-.092.526Zm5.394-.016a.271.271,0,0,1-.021-.541l1.081-.084a.274.274,0,0,1,.291.249.271.271,0,0,1-.249.291l-1.08.084Zm2.161-.171a.271.271,0,0,1-.022-.541l1.079-.091a.271.271,0,1,1,.046.54l-1.081.091Zm2.159-.187a.271.271,0,0,1-.025-.541l1.078-.1a.271.271,0,1,1,.052.539l-1.08.1Zm2.157-.208a.271.271,0,0,1-.026-.54l1.079-.1a.271.271,0,0,1,.051.539l-1.078.1Zm2.157-.2a.271.271,0,0,1-.024-.541q.539-.049,1.081-.1a.271.271,0,0,1,.047.54q-.54.047-1.078.1Zm2.159-.188a.271.271,0,0,1-.021-.541q.541-.044,1.083-.083a.271.271,0,1,1,.04.54q-.539.04-1.078.083Zm2.162-.157a.271.271,0,0,1-.017-.541q.515-.033,1.03-.06l.054,0a.271.271,0,1,1,.031.541l-.057,0q-.509.027-1.023.06Zm2.165-.12a.271.271,0,0,1-.014-.541l1.083-.06a.271.271,0,0,1,.03.541l-1.083.06Zm2.165-.121a.271.271,0,0,1-.015-.541l1.082-.063a.271.271,0,0,1,.032.541l-1.083.063Zm2.165-.128a.271.271,0,0,1-.016-.541l1.082-.067a.271.271,0,0,1,.034.541l-1.083.066Zm-26.219-.07a.271.271,0,0,1-.258-.188,2.381,2.381,0,0,1-.088-.372c-.039-.253-.07-.5-.1-.751a.271.271,0,0,1,.539-.057c.025.24.056.482.093.726a1.838,1.838,0,0,0,.068.288.272.272,0,0,1-.258.354Zm28.384-.065a.271.271,0,0,1-.017-.541l1.082-.07a.271.271,0,1,1,.035.541l-1.083.07Zm2.163-.143a.271.271,0,0,1-.018-.541l1.081-.075a.271.271,0,0,1,.038.541l-1.082.074Zm2.163-.151a.271.271,0,0,1-.019-.541l1.081-.079a.271.271,0,0,1,.038.541l-1.081.079Zm2.162-.157a.271.271,0,0,1-.019-.541c.361-.026.723-.051,1.083-.074a.271.271,0,0,1,.036.541c-.359.023-.72.048-1.079.074Zm2.163-.132a.271.271,0,0,1-.01-.542l.608-.02.476-.015a.271.271,0,1,1,.019.541l-.454.015-.629.021Zm2.165-.088a.271.271,0,0,1-.018-.541c.282-.019.566-.044.853-.078.064-.008.126-.018.187-.031a.271.271,0,0,1,.112.53c-.077.016-.156.029-.235.038-.3.035-.589.061-.879.081Zm2.048-.575a.271.271,0,0,1-.171-.482,2.006,2.006,0,0,0,.406-.444l.067-.07c.107-.076.211-.154.313-.232a.271.271,0,1,1,.329.43c-.094.072-.189.143-.287.214a2.543,2.543,0,0,1-.487.523A.27.27,0,0,1,1373.366,483.427Zm-41.51-.837a.271.271,0,0,1-.27-.254c-.015-.234-.029-.466-.042-.7l-.022-.387a.27.27,0,0,1,.255-.286.265.265,0,0,1,.286.254l.022.388c.013.229.026.459.042.693a.271.271,0,0,1-.253.288Zm43.133-.586a.271.271,0,0,1-.173-.479l.051-.042c.29-.242.55-.484.744-.667a.271.271,0,1,1,.372.394c-.2.189-.468.438-.77.69l-.052.043A.27.27,0,0,1,1374.989,482Zm1.572-1.489a.271.271,0,0,1-.206-.447,3.677,3.677,0,0,0,.229-.3,1.986,1.986,0,0,0,.308-.531.271.271,0,0,1,.506.2,2.468,2.468,0,0,1-.38.66,4.013,4.013,0,0,1-.25.326A.271.271,0,0,1,1376.561,480.516Zm-44.834-.088a.271.271,0,0,1-.27-.255l-.062-1.083a.271.271,0,0,1,.255-.286.276.276,0,0,1,.286.256l.062,1.081a.271.271,0,0,1-.255.286Zm45.555-1.884a.271.271,0,0,1-.269-.241c-.005-.044-.011-.088-.019-.132l0-.026v-.111c0-.232-.016-.442-.03-.645l-.013-.176a.271.271,0,0,1,.541-.04l.012.171c.015.208.032.438.032.69v.068c.008.047.014.094.019.142a.271.271,0,0,1-.24.3Zm-45.676-.281a.271.271,0,0,1-.27-.257l-.057-1.082a.271.271,0,0,1,.256-.285.265.265,0,0,1,.285.256l.057,1.082a.271.271,0,0,1-.257.285Zm45.538-1.881a.271.271,0,0,1-.27-.253l-.068-1.083a.271.271,0,1,1,.541-.033l.068,1.08a.271.271,0,0,1-.252.289Zm-45.65-.283a.271.271,0,0,1-.271-.257l-.055-1.082a.271.271,0,1,1,.541-.028l.055,1.082a.271.271,0,0,1-.257.284Zm45.52-1.88a.271.271,0,0,1-.27-.256l-.057-1.083a.271.271,0,1,1,.541-.029l.057,1.082a.271.271,0,0,1-.256.285Zm-45.63-.284a.271.271,0,0,1-.271-.258l-.054-1.083a.271.271,0,0,1,.257-.284.268.268,0,0,1,.284.257l.054,1.083a.271.271,0,0,1-.257.284Zm45.513-1.88a.271.271,0,0,1-.27-.256c-.021-.37-.043-.73-.065-1.08a.271.271,0,0,1,.253-.287.275.275,0,0,1,.287.253q.033.527.065,1.083a.271.271,0,0,1-.255.286Zm-45.62-.285a.271.271,0,0,1-.271-.257l-.053-1.083a.271.271,0,0,1,.257-.284.275.275,0,0,1,.284.257l.053,1.083a.27.27,0,0,1-.257.284Zm45.484-1.878a.271.271,0,0,1-.27-.252c-.026-.366-.052-.725-.079-1.079a.271.271,0,0,1,.54-.041c.027.355.053.715.079,1.083a.271.271,0,0,1-.252.289Zm-45.59-.288a.271.271,0,0,1-.27-.258l-.053-1.083a.271.271,0,0,1,.257-.284.274.274,0,0,1,.284.257l.053,1.082a.271.271,0,0,1-.257.284Zm45.43-1.873a.272.272,0,0,1-.27-.251l-.079-1.081a.271.271,0,1,1,.54-.039l.079,1.08a.271.271,0,0,1-.25.29Zm-45.538-.291a.271.271,0,0,1-.27-.257l-.057-1.082a.271.271,0,0,1,.541-.029l.057,1.083a.271.271,0,0,1-.257.285Zm45.38-1.87a.271.271,0,0,1-.27-.252l-.076-1.081a.271.271,0,1,1,.541-.038l.076,1.081a.271.271,0,0,1-.251.289Zm-45.495-.294a.271.271,0,0,1-.271-.256l-.058-1.082a.271.271,0,1,1,.541-.029l.058,1.082a.271.271,0,0,1-.256.285Zm45.344-1.868a.271.271,0,0,1-.27-.252l-.074-1.082a.271.271,0,1,1,.541-.036l.074,1.081a.27.27,0,0,1-.251.289Zm-45.46-.3a.271.271,0,0,1-.27-.256l-.059-1.082a.271.271,0,0,1,.256-.285.267.267,0,0,1,.285.256l.058,1.082a.271.271,0,0,1-.256.285Zm45.313-1.866a.271.271,0,0,1-.27-.253l-.073-1.081a.271.271,0,1,1,.541-.037l.073,1.081a.271.271,0,0,1-.252.289Zm-45.428-.3a.271.271,0,0,1-.271-.256l-.03-.5c-.012-.189-.024-.383-.035-.583a.271.271,0,1,1,.541-.029c.011.2.023.391.034.578l.03.5a.271.271,0,0,1-.255.286ZM1376,459.082a.271.271,0,0,1-.27-.252l-.073-1.081a.271.271,0,0,1,.252-.288.266.266,0,0,1,.289.252l.074,1.081a.271.271,0,0,1-.252.289Zm-45.377-.3h0a.271.271,0,0,1-.269-.272c0-.363.018-.693.05-1.01,0-.036.008-.073.013-.11a.271.271,0,0,1,.536.079c0,.027-.007.054-.01.082-.03.3-.046.615-.048.961A.271.271,0,0,1,1330.622,458.781Zm45.23-1.862a.271.271,0,0,1-.27-.253l-.073-1.082a.271.271,0,0,1,.541-.036l.073,1.081a.271.271,0,0,1-.252.289Zm-44.748-.2a.271.271,0,0,1-.243-.389,8.482,8.482,0,0,1,.561-.967.271.271,0,0,1,.453.3,7.881,7.881,0,0,0-.526.906A.272.272,0,0,1,1331.1,456.715Zm1.153-1.832a.271.271,0,0,1-.224-.424c.2-.294.411-.59.633-.891a.271.271,0,0,1,.436.322c-.219.3-.425.586-.622.875A.27.27,0,0,1,1332.258,454.883Zm43.451-.126a.271.271,0,0,1-.27-.253l-.071-1.081a.271.271,0,0,1,.541-.036l.07,1.082a.271.271,0,0,1-.253.288Zm-42.161-1.615a.271.271,0,0,1-.2-.454,2.4,2.4,0,0,1,1.014-.658.271.271,0,0,1,.17.515,1.855,1.855,0,0,0-.784.509A.271.271,0,0,1,1333.548,453.142Zm42.02-.548a.271.271,0,0,1-.27-.256l-.006-.115c-.016-.3-.033-.615-.075-.947a.271.271,0,0,1,.538-.068c.044.351.063.688.078.985l.006.114a.271.271,0,0,1-.256.286Zm-39.977-.075-.05-.012-.078-.018a.271.271,0,0,1,.106-.531l.051.011q.473-.061.942-.111a.271.271,0,0,1,.058.539c-.325.035-.651.073-.979.116Zm2.078-.231a.271.271,0,0,1-.026-.541l1.078-.1a.271.271,0,0,1,.053.539l-1.079.1Zm2.157-.214a.271.271,0,0,1-.027-.54l1.078-.11a.271.271,0,0,1,.056.539l-1.078.11Zm2.156-.221a.271.271,0,0,1-.028-.54l1.078-.113a.271.271,0,1,1,.057.539l-1.078.114Zm2.155-.229a.271.271,0,0,1-.029-.54l1.078-.115a.271.271,0,0,1,.057.539l-1.077.115Zm2.155-.231a.271.271,0,0,1-.029-.54l1.077-.116a.271.271,0,0,1,.058.539l-1.078.116Zm2.156-.231a.271.271,0,0,1-.029-.54l1.078-.115a.271.271,0,1,1,.057.539l-1.078.115Zm2.156-.229a.271.271,0,0,1-.028-.541l1.078-.113a.271.271,0,0,1,.056.539l-1.078.113Zm2.156-.225a.271.271,0,0,1-.027-.541l1.078-.11a.271.271,0,0,1,.055.539l-1.078.11Zm2.157-.219a.271.271,0,0,1-.027-.54l1.079-.107a.271.271,0,0,1,.053.539l-1.078.106Zm20.327-.029a.271.271,0,0,1-.249-.164,1.839,1.839,0,0,0-.574-.736.271.271,0,1,1,.328-.432,2.381,2.381,0,0,1,.745.953.271.271,0,0,1-.249.378Zm-18.17-.181a.271.271,0,0,1-.026-.541l1.08-.1a.271.271,0,0,1,.049.54l-1.078.1Zm2.158-.2a.271.271,0,0,1-.024-.541l1.08-.1a.271.271,0,0,1,.048.54l-1.079.1Zm2.16-.191a.271.271,0,0,1-.023-.541l1.081-.092a.271.271,0,1,1,.045.54l-1.08.092Zm2.16-.182a.271.271,0,0,1-.022-.541l1.08-.088a.271.271,0,1,1,.044.54l-1.08.088Zm2.16-.175a.271.271,0,0,1-.021-.541l1.081-.085a.271.271,0,0,1,.042.54l-1.08.085Zm2.161-.167a.271.271,0,0,1-.02-.541l1.081-.079a.271.271,0,1,1,.039.54l-1.08.079Zm2.161-.161a.271.271,0,0,1-.023-.541l.077-.006c.332-.027.669-.053,1.008-.077a.274.274,0,0,1,.288.252.27.27,0,0,1-.251.289c-.338.023-.672.05-1,.076l-.074.006Zm3.6-.09a.267.267,0,0,1-.063-.008,1.915,1.915,0,0,0-.312-.048c-.036,0-.072,0-.108,0-.321-.005-.635,0-.948.009a.268.268,0,0,1-.28-.262.271.271,0,0,1,.262-.28c.323-.011.647-.015.974-.009.045,0,.091,0,.137.006a2.428,2.428,0,0,1,.4.061.271.271,0,0,1-.063.534Z" transform="translate(0)"/></g></svg>