<svg xmlns="http://www.w3.org/2000/svg" width="65.761" height="67.782" viewBox="0 0 65.761 67.782"><defs><style>.a{fill:#fff;}.b{fill:#231f20;}.c{fill:red;}.d{fill:#fff78f;}</style></defs><g transform="matrix(0.799, 0.602, -0.602, 0.799, -98.89, -301.173)"><g transform="translate(285.43 161.691)"><path class="a" d="M328.333,179.578l-.45-.713a3.382,3.382,0,0,0-2.533-1.308l-1.048-.184a1.662,1.662,0,0,1-.3-.64l.017-.071a2.22,2.22,0,0,0-.433-2.146,2.724,2.724,0,0,0-1.777-.857l-.122-.019a.647.647,0,0,1-.228-.077l-.008-.014a2.341,2.341,0,0,0-1.124-1.112,1.88,1.88,0,0,0-.753-.15h-.391a1.131,1.131,0,0,1-1.159-.7l-.586-.295A2.491,2.491,0,0,0,316.3,171a2.651,2.651,0,0,0-1.2.327l-.17.082c-.116.037-.273.079-.348.093a.8.8,0,0,0-.275.13.176.176,0,0,1-.231,0,.767.767,0,0,0-.4-.132l-.881-.087h-.3a3.337,3.337,0,0,0-2.129.715,2.588,2.588,0,0,0-.6.651l.459-1.013.14-.309c.018-.355,1.4-1.437,3.067-2.4l.021-1.841a5.115,5.115,0,0,0-4.495-5.024,3.291,3.291,0,0,0-.338-.018,4.513,4.513,0,0,0-2.054.592l-.226.111a.976.976,0,0,1-.509.1l-.043-.029a2.694,2.694,0,0,0-1.529-.557,2,2,0,0,0-.211.011,3.064,3.064,0,0,0-2.552,2.1,3.194,3.194,0,0,0,.02,1.731l.017.076a.38.38,0,0,1,.008.194l-.012.013a2.574,2.574,0,0,0-.755,1.48,2.35,2.35,0,0,0,2.016,2.848,1.863,1.863,0,0,1,.554.2,3.18,3.18,0,0,1,.624.743c.068.1.139.2.215.3a2.778,2.778,0,0,0-.647-.081,2.9,2.9,0,0,0-2.213,1.215l-.187.208a1.114,1.114,0,0,1-.5.3l-.094-.007c-.143-.011-.305-.023-.471-.023a2.276,2.276,0,0,0-.655.085l-.872.26-1.078,1.009c-.007.007-.055.091-.133.233a2.113,2.113,0,0,1-.028-.717l.036-.026a2.983,2.983,0,0,0,1.446-2.253,3.455,3.455,0,0,0-1.21-2.817,3.187,3.187,0,0,0-2.026-.648l-.116-.006a.451.451,0,0,1-.336-.173l-.033-.071a3.088,3.088,0,0,0-1.119-1.413,5.852,5.852,0,0,0-2.85-.852,2.745,2.745,0,0,0-1.207.252,3.614,3.614,0,0,0-1.669,2.411l-.077.426a5.053,5.053,0,0,1,.227,1.039l-.025.008a3.128,3.128,0,0,0-2.413,2.1,3.2,3.2,0,0,0,.484,2.863l.5.663a13.559,13.559,0,0,1,1.7.788c0,.04.187.073.416.073a.807.807,0,0,1,.628.507l.211.253a4.934,4.934,0,0,0,2.758,1.513l.376.074a8.66,8.66,0,0,0,1.747-.175,3.8,3.8,0,0,0,1.087-.562,10.557,10.557,0,0,0,1.109,1.834l.012.017c.014.018-1.5.465-3.369.994a9.722,9.722,0,0,0-.1,2.235,3.287,3.287,0,0,0,1.342,2.467c.142.13.276.253.37.36a1.074,1.074,0,0,1,.451,1.028c.01.11.021.232.035.369.144,1.439.389,2.861.625,4.237.125.724.253,1.472.364,2.206q.215,1.422.422,2.843c.418,2.846.85,5.789,1.387,8.684l.289,1.557c.329,1.709.647,3.354.7,3.656s1.023,2.69,1.73,3.148a4.784,4.784,0,0,0,1.945.809l.4-.028c.249-.018.526-.037.835-.054,1.478-.079,3-.091,4.474-.1l.393,0,.823-.008.992.037.56.039.68.048c.771.027,2.312-.015,3.422-.094l.674-.307c1.241-.565,2.216-1.993,3.076-3.254.238-.348.463-.678.651-.921.258-.334.541-.646.842-.977a8.578,8.578,0,0,0,1.667-2.317,37.115,37.115,0,0,0,2.2-9.41c.093-.642.184-1.277.281-1.9.741-4.739,2.047-10.2,2.047-10.2.451-1.886.881-3.605.895-3.675S328.2,180.764,328.333,179.578Z" transform="translate(-285.606 -161.979)"/><path class="b" d="M369.544,196.726l-.023,0a.2.2,0,0,1-.172-.217l.048-.418-.225-.355a.2.2,0,0,1,.331-.209l.3.472-.064.555A.2.2,0,0,1,369.544,196.726Z" transform="translate(-326.874 -178.444)"/><path class="b" d="M366.422,193.65a.194.194,0,0,1-.144-.064,2.207,2.207,0,0,0-.558-.437.2.2,0,1,1,.191-.341,2.615,2.615,0,0,1,.656.514.2.2,0,0,1-.144.328Zm-1.323-.767a.189.189,0,0,1-.055-.008,7.355,7.355,0,0,0-.736-.166.2.2,0,0,1,.071-.385,7.605,7.605,0,0,1,.775.175.2.2,0,0,1-.055.384Z" transform="translate(-324.401 -176.903)"/><path class="b" d="M362.056,191.264l-.034,0-.564-.1-.046-.07c-.113-.17-.373-.587-.334-.787l.018-.078c.025-.106.056-.238.077-.39a.2.2,0,0,1,.388.053c-.023.171-.059.319-.084.427l-.011.044a2.053,2.053,0,0,0,.226.443l.4.07a.2.2,0,0,1-.034.389Zm-.592-.915" transform="translate(-322.879 -175.59)"/><path class="b" d="M360.48,186.886a.2.2,0,0,1-.18-.119,1.994,1.994,0,0,0-.342-.533,2.181,2.181,0,0,0-.319-.3.2.2,0,0,1,.238-.312,2.631,2.631,0,0,1,.375.35,2.4,2.4,0,0,1,.409.638.2.2,0,0,1-.1.258A.2.2,0,0,1,360.48,186.886Z" transform="translate(-322.131 -173.568)"/><path class="b" d="M356.689,184.483a.193.193,0,0,1-.041,0c-.126-.027-.244-.045-.35-.062l-.122-.019c-.308-.065-.343-.128-.369-.174a3.469,3.469,0,0,0-.244-.4.2.2,0,0,1,.316-.232,3.583,3.583,0,0,1,.241.383,1.306,1.306,0,0,0,.127.033l.112.018c.112.018.237.037.37.066a.2.2,0,0,1-.04.388Z" transform="translate(-320.132 -172.544)"/><path class="b" d="M354.385,182.749a.2.2,0,0,1-.121-.042,1.865,1.865,0,0,0-.416-.248l-.057-.023a.2.2,0,0,1,.142-.366l.071.029a2.285,2.285,0,0,1,.5.3.2.2,0,0,1,.032.275A.194.194,0,0,1,354.385,182.749Z" transform="translate(-319.212 -171.822)"/><path class="b" d="M351.086,182.186a1,1,0,0,1-.385-.083.2.2,0,0,1,.152-.362.507.507,0,0,0,.342.037l.059-.009h.391l.108,0a.2.2,0,0,1-.018.392l-.089,0h-.364A.767.767,0,0,1,351.086,182.186Z" transform="translate(-317.685 -171.658)"/><path class="b" d="M349.291,180.994a.2.2,0,0,1-.136-.055,1.727,1.727,0,0,1-.3-.385l-.383-.192a.2.2,0,0,1,.176-.35l.493.248.029.056a1.356,1.356,0,0,0,.254.342.2.2,0,0,1-.137.336Z" transform="translate(-316.588 -170.799)"/><path class="b" d="M346.408,179.733a.21.21,0,0,1-.05-.006,2.054,2.054,0,0,0-.7-.061.193.193,0,0,1-.213-.178.2.2,0,0,1,.178-.212,2.479,2.479,0,0,1,.829.072.2.2,0,0,1-.049.385Z" transform="translate(-315.144 -170.441)"/><path class="b" d="M342.364,180.4a.2.2,0,0,1-.081-.375.76.76,0,0,1,.168-.056c.058-.011.195-.046.311-.084l.158-.076c.085-.041.178-.086.282-.13a.2.2,0,0,1,.152.361c-.1.041-.185.083-.264.122l-.2.092a3.708,3.708,0,0,1-.372.1.389.389,0,0,0-.078.028A.2.2,0,0,1,342.364,180.4Z" transform="translate(-313.52 -170.638)"/><path class="b" d="M339.084,180.528h-.019l-.488-.048H338.3c-.061,0-.121,0-.181,0a.2.2,0,1,1-.018-.391c.065,0,.132,0,.2,0h.3l.507.049a.2.2,0,0,1-.019.391Z" transform="translate(-311.412 -170.847)"/><path class="b" d="M334.98,181.084a.2.2,0,0,1-.1-.364,3.428,3.428,0,0,1,.8-.354.2.2,0,1,1,.11.376,3.049,3.049,0,0,0-.713.314A.193.193,0,0,1,334.98,181.084Z" transform="translate(-309.864 -170.981)"/><path class="b" d="M333.269,182.661l-.343-.188.2-.446a.2.2,0,0,1,.259-.1.185.185,0,0,1,.066.049.191.191,0,0,1,.086.047.2.2,0,0,1,.009.277A2.54,2.54,0,0,0,333.269,182.661Z" transform="translate(-308.944 -171.75)"/><path class="b" d="M333.873,180.619a.193.193,0,0,1-.081-.018.2.2,0,0,1-.1-.259l.19-.42a1.037,1.037,0,0,1,.315-.485.2.2,0,0,1,.282.272c-.194.2-.21.278-.211.281l0,.037-.015.03-.2.446A.2.2,0,0,1,333.873,180.619Z" transform="translate(-309.316 -170.495)"/><path class="b" d="M336.277,177.931a.2.2,0,0,1-.119-.351c.244-.187.517-.382.812-.581a.2.2,0,0,1,.218.326c-.288.193-.555.384-.792.566A.2.2,0,0,1,336.277,177.931Z" transform="translate(-310.506 -169.302)"/><path class="b" d="M339.514,175.582a.2.2,0,0,1-.1-.364q.162-.1.329-.2l0-.378a.2.2,0,0,1,.2-.194h0a.2.2,0,0,1,.193.2l-.007.6-.1.056q-.213.123-.418.248A.194.194,0,0,1,339.514,175.582Z" transform="translate(-312.108 -168.057)"/><path class="b" d="M334.759,167.576h0a.2.2,0,0,1-.194-.2l0-.4a4.152,4.152,0,0,0-.039-.567.2.2,0,0,1,.388-.054,4.615,4.615,0,0,1,.043.621l0,.4A.2.2,0,0,1,334.759,167.576Zm-.272-1.964a.2.2,0,0,1-.185-.131,5.105,5.105,0,0,0-.4-.871.2.2,0,1,1,.339-.2,5.54,5.54,0,0,1,.433.938.2.2,0,0,1-.185.261Zm-1-1.715a.2.2,0,0,1-.148-.068,4.931,4.931,0,0,0-.693-.662.2.2,0,0,1,.241-.309,5.343,5.343,0,0,1,.748.714.2.2,0,0,1-.148.324Zm-1.563-1.22a.193.193,0,0,1-.087-.021,4.63,4.63,0,0,0-.895-.334.2.2,0,1,1,.1-.379,5,5,0,0,1,.97.362.2.2,0,0,1-.087.372Zm-2.9-.374a.2.2,0,0,1-.051-.385,3.592,3.592,0,0,1,1.044-.13.2.2,0,0,1,.19.2.2.2,0,0,1-.2.19,3.134,3.134,0,0,0-.93.116A.2.2,0,0,1,329.024,162.3Z" transform="translate(-306.916 -161.787)"/><path class="b" d="M324.958,163.465a.323.323,0,0,1-.177-.042l-.045-.03c-.108-.071-.226-.149-.358-.224a.2.2,0,1,1,.191-.342c.146.082.27.164.38.237l.015.01a1.443,1.443,0,0,0,.363-.094l.21-.1.215-.1a.2.2,0,0,1,.17.353l-.208.1-.23.113A1.643,1.643,0,0,1,324.958,163.465Z" transform="translate(-304.662 -162.265)"/><path class="b" d="M316.524,165.145H316.5a.2.2,0,0,1-.17-.219,2.757,2.757,0,0,1,.1-.467,2.972,2.972,0,0,1,.178-.447.2.2,0,1,1,.351.173,2.634,2.634,0,0,0-.155.389,2.309,2.309,0,0,0-.086.4A.2.2,0,0,1,316.524,165.145Zm.768-1.583a.2.2,0,0,1-.143-.33,3.33,3.33,0,0,1,.739-.592.2.2,0,0,1,.2.338,2.921,2.921,0,0,0-.652.522A.2.2,0,0,1,317.292,163.562Zm1.52-.892a.2.2,0,0,1-.045-.387,3.026,3.026,0,0,1,.382-.064,2.3,2.3,0,0,1,.581.015.2.2,0,1,1-.059.387,1.894,1.894,0,0,0-.482-.012,2.591,2.591,0,0,0-.331.056A.2.2,0,0,1,318.812,162.67Z" transform="translate(-300.727 -161.995)"/><path class="b" d="M316.175,170.462a.193.193,0,0,1-.116-.038.2.2,0,0,1-.042-.274c.1-.136.2-.249.283-.342a.644.644,0,0,0-.011-.07l-.017-.073c-.028-.126-.059-.264-.084-.414a.2.2,0,1,1,.386-.066c.025.142.054.274.081.393l.017.076c.056.265-.009.337-.037.368a4.657,4.657,0,0,0-.3.36A.2.2,0,0,1,316.175,170.462Zm.157-.689Z" transform="translate(-300.554 -165.369)"/><path class="b" d="M317.75,176.432a.187.187,0,0,1-.086-.02,2.782,2.782,0,0,0-.44-.136c-.123-.032-.271-.07-.435-.125a.2.2,0,0,1,.125-.372c.15.05.291.087.4.116a2.891,2.891,0,0,1,.518.165.2.2,0,0,1-.086.372Zm-1.728-.7a.2.2,0,0,1-.122-.042,2.167,2.167,0,0,1-.63-.8.2.2,0,1,1,.356-.162,1.773,1.773,0,0,0,.517.658.2.2,0,0,1-.122.35Zm-.786-1.64a.2.2,0,0,1-.2-.184c0-.072-.007-.145-.007-.221a4.421,4.421,0,0,1,.026-.468,2.361,2.361,0,0,1,.053-.3.2.2,0,0,1,.381.092,2.045,2.045,0,0,0-.043.252,4.047,4.047,0,0,0-.024.426c0,.068,0,.134.006.2a.2.2,0,0,1-.184.208Z" transform="translate(-300.086 -167.221)"/><path class="b" d="M322.028,181.532l-.518-.124a2.7,2.7,0,0,0-.451-.07.2.2,0,1,1,.026-.391l.043,0-.015-.021a.2.2,0,1,1,.321-.224l.068.1c.067.1.137.2.212.3Z" transform="translate(-302.979 -171.111)"/><path class="b" d="M317.891,182.22a.2.2,0,0,1-.116-.354,2.643,2.643,0,0,1,.82-.414.2.2,0,1,1,.111.376,2.271,2.271,0,0,0-.7.354A.192.192,0,0,1,317.891,182.22Z" transform="translate(-301.403 -171.519)"/><path class="b" d="M314.52,184.41h-.014l-.1-.008c-.122-.009-.251-.019-.384-.022a.2.2,0,0,1,0-.392h0c.14,0,.276.013.4.022l.085.007a1.3,1.3,0,0,0,.374-.251l.174-.194.143-.157a.2.2,0,1,1,.288.266c-.048.052-.1.1-.14.153l-.187.208C315.113,184.093,314.758,184.41,314.52,184.41Z" transform="translate(-299.491 -172.464)"/><path class="b" d="M310.143,185.886a.2.2,0,0,1-.134-.339l.392-.367.513-.152a.2.2,0,1,1,.112.376l-.424.126-.324.3A.2.2,0,0,1,310.143,185.886Z" transform="translate(-297.568 -173.289)"/><path class="b" d="M308.287,187.582l-.074-.6c-.1-.789-.032-.838.051-.9l.036-.026c.1-.076.223-.162.346-.263a.2.2,0,1,1,.248.3c-.12.1-.235.183-.338.257,0,.021,0,.049,0,.086l.01-.01a.2.2,0,0,1,.269.286l-.145.136c-.019.031-.058.1-.112.2Z" transform="translate(-296.685 -173.651)"/><path class="b" d="M309.13,180.284a.2.2,0,0,1-.166-.3,2.446,2.446,0,0,0,.336-.9.2.2,0,1,1,.386.065,2.831,2.831,0,0,1-.39,1.042A.2.2,0,0,1,309.13,180.284Zm.352-2.009a.2.2,0,0,1-.193-.16,3.287,3.287,0,0,0-.322-.927.2.2,0,0,1,.347-.181,3.67,3.67,0,0,1,.361,1.037.2.2,0,0,1-.157.228A.176.176,0,0,1,309.482,178.276Zm-.953-1.822a.2.2,0,0,1-.14-.059q-.1-.1-.2-.189a2.253,2.253,0,0,0-.584-.358.2.2,0,0,1,.152-.362,2.646,2.646,0,0,1,.686.421c.078.067.155.138.229.213a.2.2,0,0,1-.14.333Z" transform="translate(-296.348 -168.562)"/><path class="b" d="M304.643,174.769h-.018c-.13-.012-.252-.018-.362-.024l-.119-.006a.64.64,0,0,1-.5-.282l-.035-.074c-.05-.107-.107-.229-.177-.358a.2.2,0,1,1,.344-.187c.074.137.135.266.188.379l.033.07a.4.4,0,0,0,.176.061l.109.006c.118.006.245.012.38.025a.2.2,0,0,1-.017.391Z" transform="translate(-294.329 -167.702)"/><path class="b" d="M291.066,172.095a.2.2,0,0,1-.175-.283,4.1,4.1,0,0,1,.549-.843.2.2,0,0,1,.3.254,3.725,3.725,0,0,0-.5.762A.2.2,0,0,1,291.066,172.095Zm5.754-.571a.2.2,0,0,1-.134-.053,2.355,2.355,0,0,0-.334-.26,4.3,4.3,0,0,0-.418-.233.2.2,0,1,1,.172-.351,4.515,4.515,0,0,1,.457.255,2.7,2.7,0,0,1,.39.3.2.2,0,0,1-.134.339Zm-4.5-.841a.2.2,0,0,1-.093-.368l.085-.044a2.76,2.76,0,0,1,.9-.25.2.2,0,0,1,.043.39,2.354,2.354,0,0,0-.772.213l-.071.036A.193.193,0,0,1,292.323,170.683Zm2.806-.038a.2.2,0,0,1-.059-.009,5.613,5.613,0,0,0-.9-.2.2.2,0,1,1,.053-.388,6.054,6.054,0,0,1,.967.219.2.2,0,0,1-.058.383Z" transform="translate(-288.123 -165.863)"/><path class="b" d="M290.37,176.49a.2.2,0,0,1-.19-.149c-.034-.141-.076-.3-.122-.469l-.012-.043.1-.529a.2.2,0,1,1,.384.078l-.079.434c.043.156.081.3.114.436a.2.2,0,0,1-.144.237A.187.187,0,0,1,290.37,176.49Z" transform="translate(-287.715 -168.399)"/><path class="b" d="M289.78,178.228a.2.2,0,0,1-.067-.38c.113-.041.221-.076.322-.109-.012-.066-.032-.162-.064-.294a.2.2,0,0,1,.381-.091c.109.458.154.648-.049.711l-.025.008c-.14.044-.282.088-.432.142A.206.206,0,0,1,289.78,178.228Zm.274-.37h0Zm.132-.166h0Z" transform="translate(-287.486 -169.42)"/><path class="b" d="M285.94,183.571a.2.2,0,0,1-.175-.107,3.251,3.251,0,0,1-.3-.9.2.2,0,0,1,.386-.069,2.852,2.852,0,0,0,.263.79.2.2,0,0,1-.086.263A.192.192,0,0,1,285.94,183.571Zm-.314-1.733h-.019a.2.2,0,0,1-.176-.214,3.9,3.9,0,0,1,.131-.694c.022-.077.046-.151.072-.223a.2.2,0,1,1,.369.133c-.023.063-.044.129-.063.2a3.542,3.542,0,0,0-.118.625A.2.2,0,0,1,285.626,181.837Zm.625-1.646a.2.2,0,0,1-.152-.319,2.943,2.943,0,0,1,.715-.629.2.2,0,0,1,.209.331,2.5,2.5,0,0,0-.62.544A.2.2,0,0,1,286.251,180.192Z" transform="translate(-285.43 -170.414)"/><path class="b" d="M287.986,189.513a.2.2,0,0,1-.078-.017c-.143-.062-.293-.126-.448-.191l-.048-.02-.327-.432a.2.2,0,1,1,.312-.236l.264.348.4.173a.2.2,0,0,1-.078.376Z" transform="translate(-286.229 -175.031)"/><path class="b" d="M290.663,191a.192.192,0,0,1-.058-.009.285.285,0,0,1-.142-.092c-.043-.025-.169-.093-.515-.252a.2.2,0,0,1,.163-.356,2.516,2.516,0,0,1,.659.353.2.2,0,0,1,.072.223A.194.194,0,0,1,290.663,191Zm-.18-.089h0Zm.328-.146h0Z" transform="translate(-287.61 -175.891)"/><path class="b" d="M293.277,192.414a.2.2,0,0,1-.144-.064c-.038-.041-.076-.084-.112-.128l-.241-.3a.74.74,0,0,0-.236-.3.2.2,0,0,1,.234-.315,1.133,1.133,0,0,1,.351.433l.193.231c.032.039.066.077.1.115a.2.2,0,0,1-.012.277A.193.193,0,0,1,293.277,192.414Z" transform="translate(-288.912 -176.382)"/><path class="b" d="M296.228,194.853a.2.2,0,0,1-.074-.014,5.192,5.192,0,0,1-.9-.469.2.2,0,1,1,.215-.328,4.8,4.8,0,0,0,.833.433.2.2,0,0,1-.073.377Z" transform="translate(-290.249 -177.74)"/><path class="b" d="M299.545,195.966c-.054,0-.1,0-.147,0l-.027,0-.376-.074-.109-.023a.2.2,0,1,1,.085-.382l.1.021.362.071a4.219,4.219,0,0,0,.452-.011.2.2,0,0,1,.025.391C299.772,195.962,299.65,195.966,299.545,195.966Z" transform="translate(-292.016 -178.465)"/><path class="b" d="M302.166,195.789a.2.2,0,0,1-.026-.39c.207-.028.406-.061.578-.1l.054-.013a.2.2,0,0,1,.107.377c-.029.008-.056.015-.083.02-.18.036-.389.071-.6.1Z" transform="translate(-293.619 -178.37)"/><path class="b" d="M305.3,194.935a.2.2,0,0,1-.172-.1c-.048-.086-.09-.168-.128-.244-.08.051-.158.1-.231.142a.2.2,0,1,1-.2-.338c.123-.073.259-.159.4-.256l.2-.135.091.224a4.076,4.076,0,0,0,.205.419.2.2,0,0,1-.077.266A.2.2,0,0,1,305.3,194.935Z" transform="translate(-294.858 -177.736)"/><path class="b" d="M306.789,198.016a.2.2,0,0,1-.057-.383l.213-.065-.131-.193a.2.2,0,0,1,.325-.22q.121.18.264.384l.068.1-.03.093c-.035.108-.035.108-.594.278A.2.2,0,0,1,306.789,198.016Z" transform="translate(-295.907 -179.254)"/><path class="b" d="M305.853,224.227a.2.2,0,0,1-.192-.16l-.025-.134c-.05-.267-.1-.536-.146-.8a.2.2,0,0,1,.386-.069q.071.4.146.8l.025.133a.2.2,0,0,1-.157.229A.219.219,0,0,1,305.853,224.227Zm-.335-1.874a.2.2,0,0,1-.193-.163q-.081-.47-.158-.94a.2.2,0,0,1,.161-.225.194.194,0,0,1,.225.162q.077.469.158.937a.2.2,0,0,1-.16.226A.186.186,0,0,1,305.518,222.354Zm-.31-1.878a.2.2,0,0,1-.193-.165q-.075-.47-.148-.941a.2.2,0,1,1,.387-.06q.073.469.148.939a.2.2,0,0,1-.163.224A.159.159,0,0,1,305.208,220.476Zm-.293-1.881a.2.2,0,0,1-.194-.166q-.071-.472-.142-.942a.2.2,0,0,1,.388-.058q.07.47.141.941a.2.2,0,0,1-.164.223Zm-.282-1.882a.2.2,0,0,1-.193-.167l-.139-.942a.2.2,0,0,1,.166-.222.194.194,0,0,1,.222.165l.139.941a.2.2,0,0,1-.165.222Zm-.277-1.883a.2.2,0,0,1-.193-.167l-.139-.942a.2.2,0,1,1,.387-.058l.139.942a.2.2,0,0,1-.165.222Zm-.279-1.883a.2.2,0,0,1-.193-.167l-.057-.379c-.028-.185-.057-.372-.087-.559a.2.2,0,1,1,.387-.062q.045.282.088.563l.058.38a.2.2,0,0,1-.165.223Zm-.3-1.879a.2.2,0,0,1-.193-.164l-.161-.937a.2.2,0,1,1,.386-.067l.161.939a.2.2,0,0,1-.161.226A.187.187,0,0,1,303.776,211.068Zm-.32-1.877a.2.2,0,0,1-.193-.164c-.052-.313-.1-.627-.151-.942a.2.2,0,0,1,.387-.06q.073.471.15.938a.2.2,0,0,1-.161.225A.177.177,0,0,1,303.456,209.191Zm-.286-1.882a.2.2,0,0,1-.194-.17q-.063-.473-.115-.95a.2.2,0,0,1,.174-.216.193.193,0,0,1,.216.174q.051.471.115.94a.2.2,0,0,1-.168.22Zm-.208-1.892a.2.2,0,0,1-.194-.174,1.1,1.1,0,0,0-.025-.166,4.1,4.1,0,0,0-.345-.416c-.023-.026-.05-.054-.079-.083a.2.2,0,1,1,.279-.275c.034.034.065.067.093.1a2.612,2.612,0,0,1,.417.532,1.031,1.031,0,0,1,.05.266.2.2,0,0,1-.173.217Zm-1.193-1.437a.2.2,0,0,1-.141-.059,4.038,4.038,0,0,1-.612-.788.2.2,0,0,1,.34-.2,3.625,3.625,0,0,0,.553.711.2.2,0,0,1-.14.332Zm-.9-1.639a.2.2,0,0,1-.193-.165,2.773,2.773,0,0,1-.035-.441V201.7q0-.276.007-.509a.2.2,0,1,1,.392.007c0,.155-.005.324-.007.508v.028a2.408,2.408,0,0,0,.03.378.2.2,0,0,1-.162.225A.171.171,0,0,1,300.865,202.341Zm0-1.9h-.008a.2.2,0,0,1-.188-.2c.036-.873.071-.915.213-.956l.162-.046a.2.2,0,0,1,.107.377l-.049.014c-.011.091-.027.273-.041.627A.2.2,0,0,1,300.866,200.442Zm.124-.783h0Zm1.023-.3a.2.2,0,0,1-.055-.384l.914-.265a.2.2,0,0,1,.11.376l-.915.265A.184.184,0,0,1,302.014,199.359Z" transform="translate(-292.959 -180.063)"/><path class="b" d="M311.3,251.7a.2.2,0,0,1-.192-.159l-.182-.963a.2.2,0,0,1,.385-.072l.181.96a.2.2,0,0,1-.155.23A.19.19,0,0,1,311.3,251.7Z" transform="translate(-298.052 -205.63)"/><path class="b" d="M314.6,260.224a.194.194,0,0,1-.089-.022c-.218-.113-.427-.233-.622-.36a1.28,1.28,0,0,1-.221-.186.2.2,0,0,1,.28-.274.915.915,0,0,0,.154.131c.183.119.381.233.587.34a.2.2,0,0,1-.09.37Zm-1.339-1.277a.2.2,0,0,1-.17-.1c-.144-.248-.294-.535-.445-.853a.2.2,0,1,1,.354-.168c.146.308.291.585.43.823a.2.2,0,0,1-.071.268A.194.194,0,0,1,313.265,258.948Zm-.816-1.705a.2.2,0,0,1-.182-.124,4.665,4.665,0,0,1-.19-.551l-.076-.392a.2.2,0,0,1,.385-.074l.076.393a4.1,4.1,0,0,0,.17.48.2.2,0,0,1-.11.254A.2.2,0,0,1,312.449,257.242Zm-.434-1.835a.2.2,0,0,1-.192-.159l-.179-.928a.2.2,0,0,1,.155-.23.194.194,0,0,1,.229.156l.179.928a.2.2,0,0,1-.155.229A.186.186,0,0,1,312.015,255.407Z" transform="translate(-298.406 -207.482)"/><path class="b" d="M319.486,266.678a1.8,1.8,0,0,1-.523-.1.2.2,0,1,1,.119-.373,1.368,1.368,0,0,0,.413.083l.481-.034a.2.2,0,0,1,.029.391l-.489.034Z" transform="translate(-301.964 -213.476)"/><path class="b" d="M322.966,266.5a.2.2,0,0,1-.009-.392q.512-.024,1.029-.04a.2.2,0,0,1,.2.19.2.2,0,0,1-.19.2q-.513.016-1.022.04Zm2.051-.064a.2.2,0,0,1,0-.392c.343-.007.686-.011,1.027-.015h0a.2.2,0,0,1,0,.392q-.511.006-1.025.015Z" transform="translate(-303.916 -213.395)"/><path class="b" d="M331.093,266.4a.2.2,0,0,1,0-.392l.979-.009a.193.193,0,0,1,.2.194.2.2,0,0,1-.194.2l-.981.009Z" transform="translate(-307.94 -213.378)"/><path class="b" d="M335.668,266.469h-.014l-.488-.034-.483-.019a.2.2,0,0,1-.188-.2.191.191,0,0,1,.2-.188l.49.019.494.035a.2.2,0,0,1-.014.391Z" transform="translate(-309.72 -213.391)"/><path class="b" d="M338.125,266.6h0c-.186,0-.354,0-.5-.008l-.495-.035a.2.2,0,1,1,.028-.391l.488.034c.132,0,.295.007.476.008a.2.2,0,0,1,0,.392Z" transform="translate(-310.937 -213.462)"/><path class="b" d="M340.7,266.6a.2.2,0,0,1,0-.392c.262-.006.537-.014.811-.024a.191.191,0,0,1,.2.188.2.2,0,0,1-.188.2c-.277.011-.553.019-.818.024Z" transform="translate(-312.695 -213.471)"/><path class="b" d="M343.925,266.273a.2.2,0,0,1-.011-.391c.155-.009.306-.018.45-.028l.414-.188a.2.2,0,1,1,.163.356l-.478.218-.035,0c-.156.011-.322.022-.491.031Z" transform="translate(-314.293 -213.205)"/><path class="b" d="M347.447,232.624a.2.2,0,0,1-.115-.355,5.374,5.374,0,0,0,.7-.613.2.2,0,0,1,.28.274,5.722,5.722,0,0,1-.752.657A.2.2,0,0,1,347.447,232.624Zm1.361-1.363a.2.2,0,0,1-.153-.318c.177-.223.363-.473.571-.766a.2.2,0,1,1,.32.226c-.212.3-.4.555-.584.784A.2.2,0,0,1,348.808,231.261Zm1.126-1.57a.2.2,0,0,1-.162-.306c.218-.319.4-.58.56-.8a.2.2,0,0,1,.314.235c-.158.211-.335.469-.55.784A.2.2,0,0,1,349.935,229.691Zm1.172-1.533a.2.2,0,0,1-.146-.326l.264-.292.03-.034c.123-.136.238-.263.352-.391a.2.2,0,0,1,.293.26c-.115.13-.231.258-.347.386l-.039.043-.261.289A.2.2,0,0,1,351.107,228.158Zm1.261-1.462a.2.2,0,0,1-.157-.313,6.118,6.118,0,0,0,.506-.787.2.2,0,0,1,.346.184,6.486,6.486,0,0,1-.538.837A.2.2,0,0,1,352.368,226.7Zm.912-1.7a.2.2,0,0,1-.072-.014.2.2,0,0,1-.11-.255c.115-.289.226-.591.33-.9a.2.2,0,0,1,.371.126c-.107.313-.22.621-.336.915A.2.2,0,0,1,353.28,225Zm.625-1.827a.2.2,0,0,1-.188-.251c.087-.3.172-.608.253-.925a.2.2,0,0,1,.38.1c-.082.321-.168.637-.257.938A.2.2,0,0,1,353.9,223.174Zm.479-1.871a.209.209,0,0,1-.043,0,.2.2,0,0,1-.149-.234q.1-.469.2-.941a.2.2,0,1,1,.385.075q-.094.477-.2.95A.2.2,0,0,1,354.384,221.3Zm.373-1.9-.034,0a.2.2,0,0,1-.159-.227q.083-.474.159-.95a.2.2,0,1,1,.387.062q-.076.479-.16.956A.2.2,0,0,1,354.757,219.408Zm.307-1.908-.029,0a.2.2,0,0,1-.165-.223q.072-.478.14-.955a.2.2,0,1,1,.388.056q-.069.478-.14.957A.2.2,0,0,1,355.064,217.5Zm.279-1.912-.028,0a.2.2,0,0,1-.166-.222c.047-.322.093-.641.141-.957a.2.2,0,0,1,.387.059q-.071.473-.141.955A.2.2,0,0,1,355.343,215.588Zm.291-1.911a.168.168,0,0,1-.032,0,.2.2,0,0,1-.162-.225q.077-.476.161-.956a.2.2,0,1,1,.386.067q-.083.478-.16.952A.2.2,0,0,1,355.634,213.677Zm.331-1.905a.209.209,0,0,1-.035,0,.2.2,0,0,1-.158-.228q.087-.479.178-.952a.2.2,0,1,1,.385.073c-.06.314-.119.631-.177.949A.2.2,0,0,1,355.965,211.772Zm.362-1.9a.2.2,0,0,1-.038,0,.2.2,0,0,1-.154-.23c.064-.323.128-.64.191-.949a.2.2,0,1,1,.384.079c-.063.309-.127.625-.19.947A.2.2,0,0,1,356.326,209.873Zm.387-1.895a.183.183,0,0,1-.04,0,.2.2,0,0,1-.151-.232c.069-.33.137-.646.2-.947a.2.2,0,1,1,.383.083c-.065.3-.132.616-.2.945A.2.2,0,0,1,356.713,207.978Zm.408-1.89a.207.207,0,0,1-.042,0,.2.2,0,0,1-.149-.234c.078-.353.149-.671.212-.945a.2.2,0,1,1,.382.087c-.062.274-.133.591-.211.943A.2.2,0,0,1,357.121,206.088Zm.43-1.887a.2.2,0,0,1-.045-.005.2.2,0,0,1-.146-.236c.019-.079.033-.142.049-.191h0c.061-.254.121-.505.18-.75a.2.2,0,1,1,.381.092c-.059.244-.119.495-.18.749l-.022.091-.023.1A.2.2,0,0,1,357.551,204.2Zm.453-1.88a.186.186,0,0,1-.046-.006.2.2,0,0,1-.144-.237l.23-.939a.2.2,0,1,1,.38.093l-.229.938A.2.2,0,0,1,358,202.32Zm.461-1.878a.186.186,0,0,1-.046-.006.2.2,0,0,1-.144-.237c.013-.055.022-.089.024-.1s.016-.1.1-.834a.2.2,0,0,1,.389.046c-.095.8-.105.847-.108.863s-.011.05-.028.118A.2.2,0,0,1,358.464,200.442Z" transform="translate(-316.036 -180.256)"/></g><path class="a" d="M359.09,194.95a.9.9,0,0,1,.556.8,2.065,2.065,0,0,1-.263.882,3,3,0,0,1-1.365,1.22c-.508.278-1,.594-1.5.884a1.006,1.006,0,0,1-.26.069.887.887,0,0,1,0-.259,1.318,1.318,0,0,0-.517-1.571,1.65,1.65,0,0,0-1.146-.467,4.2,4.2,0,0,0-1.512.452c-.049.035-.139.016-.21.02.02-.053.035-.108.057-.159.21-.5.433-1,.623-1.512.08-.216.031-.5.153-.676s.386-.225.572-.356.351-.3.535-.449a.832.832,0,0,1,.709-.147c.409.077.564.22.617.635.024.169,0,.345.022.516a.561.561,0,0,0,.971.4A1.991,1.991,0,0,1,359.09,194.95Z" transform="translate(-33.393 -15.876)"/><path class="a" d="M360.54,203.256l.033.214c-.073.366-.135.719-.216,1.069q-.653,2.845-1.318,5.688a.656.656,0,0,1-.251.367c-.55.354-1.115.689-1.683,1.018a.787.787,0,0,1-.294.043,1.216,1.216,0,0,1,0-.269c.035-.151.092-.3.143-.447a2.1,2.1,0,0,0-.161-1.8,7.039,7.039,0,0,0-.37-.7,1.075,1.075,0,0,1-.145-.852,3.783,3.783,0,0,1,.594-1.513c.194-.3.354-.619.541-.92a.719.719,0,0,1,.227-.228c.864-.535,1.732-1.063,2.6-1.595.014-.008.025-.022.041-.023C360.367,203.291,360.453,203.274,360.54,203.256Z" transform="translate(-35.064 -20.626)"/><path class="a" d="M356.284,219.773a.75.75,0,0,1-.012.269.526.526,0,0,1-.2.192q-1.59,1.069-3.184,2.135c-.3.2-.607.38-.915.564-.078.049-.167.082-.3.147a1.387,1.387,0,0,1-.192-.345.309.309,0,0,1,.1-.261c.288-.186.6-.343.89-.521q1.619-.979,3.239-1.967a2.393,2.393,0,0,1,.323-.186A.85.85,0,0,1,356.284,219.773Z" transform="translate(-32.7 -28.803)"/><path class="a" d="M354.322,222.935a.72.72,0,0,1,.055.251c-.088.554-.19,1.109-.28,1.663-.057.355-.1.709-.147,1.066-.022.172-.082.292-.28.316a.614.614,0,0,0-.255.1c-.642.437-1.293.864-1.92,1.324-.715.523-1.413,1.076-2.114,1.62-.3.229-.58.476-.876.705a1.149,1.149,0,0,1-.251.106c-.01-.086-.021-.172-.033-.259a.148.148,0,0,1,.03,0q.152-1.537.3-3.076a.619.619,0,0,1,.337-.52c.774-.441,1.542-.893,2.3-1.363.689-.429,1.359-.892,2.041-1.336q.432-.279.876-.541A.755.755,0,0,1,354.322,222.935Z" transform="translate(-31.086 -30.369)"/><path class="a" d="M353.507,231.175c.108.145-.023.31-.2.446-1.692,1.335-3.371,2.686-5.054,4.032-.012.01-.022.025-.035.031-.094.041-.19.08-.284.119-.023-.088-.045-.174-.069-.263a.66.66,0,0,1,.31-.552c.686-.519,1.387-1.02,2.034-1.585a20.533,20.533,0,0,1,2.856-2.122C353.209,231.2,353.387,231.02,353.507,231.175Z" transform="translate(-30.911 -34.418)"/><path class="a" d="M355.266,234.134a.242.242,0,0,1,.067.2c-.043.355-.1.707-.156,1.06s-.1.707-.174,1.054c-.043.212-.143.412-.2.621-.18.727-.378,1.45-.517,2.184a5.1,5.1,0,0,1-.441,1.485,1.008,1.008,0,0,0-.127.543,1.444,1.444,0,0,1-.319.878.367.367,0,0,1-.2.182.915.915,0,0,0-.514.38c-.145.178-.265.172-.352-.031a3.3,3.3,0,0,1-.282-.888,2.491,2.491,0,0,1,.762-2.388,5.458,5.458,0,0,0,.746-.769,1.548,1.548,0,0,0,.325-1.013,2.674,2.674,0,0,0-.588-1.6c-.213-.25-.225-.28.03-.493.564-.471,1.15-.917,1.73-1.368C355.114,234.136,355.225,234.107,355.266,234.134Z" transform="translate(-32.969 -35.908)"/><path class="a" d="M352.579,187.2c.5.039.7.32.555.8-.1.327-.216.647-.331.968-.02.055-.065.131-.11.141a3.191,3.191,0,0,0-1.16.686c-.184.133-.286.131-.378-.1a2.241,2.241,0,0,0-.917-1.037c-.429-.278-.488-.486-.337-.993a2.978,2.978,0,0,0,.1-.5c.018-.163-.008-.329-.2-.376a.335.335,0,0,0-.415.215,1.6,1.6,0,0,0-.163.911c.072.5.072.5-.437.554l-.263.023c-.131.031-.171-.061-.231-.192a1.852,1.852,0,0,1,.133-1.658.323.323,0,0,1,.127-.129c.282-.166.558-.341.85-.488a2.412,2.412,0,0,1,.613-.225.8.8,0,0,1,1,.727c.024.155.037.31.057.464.061.472.314.607.742.369A1.319,1.319,0,0,1,352.579,187.2Z" transform="translate(-31.052 -11.974)"/><path class="a" d="M351.048,200.365a.7.7,0,0,1,.709.986c-.153.343-.323.68-.484,1.019a.573.573,0,0,0-.084.217c0,.458-.333.652-.646.882-.617.455-1.219.931-1.832,1.387a1.846,1.846,0,0,1-.976.241,9.377,9.377,0,0,1-.939.006v-.008c-.345,0-.69,0-1.035,0a1.173,1.173,0,0,1-.26-.067,1.085,1.085,0,0,1,.1-.294,4.216,4.216,0,0,1,.384-.47,2.418,2.418,0,0,0,.574-2.312.884.884,0,0,1,.105-.664,2.482,2.482,0,0,1,.89-.993.835.835,0,0,1,1.215.466c.025.09.045.182.064.273a.483.483,0,0,0,.382.37c.212.059.274-.11.354-.235A1.945,1.945,0,0,1,351.048,200.365Z" transform="translate(-29.74 -19.099)"/><path class="c" d="M352.992,211.946a1.566,1.566,0,0,1,.241,1.34c-.1.327-.221.648-.339.97a1.726,1.726,0,0,0-.149.343,1.452,1.452,0,0,1-.978,1.144c-.59.288-1.152.629-1.732.938-.229.122-.288.08-.272-.208.09-.5.192-1.054.286-1.609s.167-1.111.271-1.663c.155-.827.3-1.661.517-2.47a1.8,1.8,0,0,1,.582-.754c.382-.343.809-.639,1.219-.948a.128.128,0,0,1,.123-.014.145.145,0,0,1,.024.125c-.071.257-.175.505-.224.764a7.351,7.351,0,0,0-.11.972.707.707,0,0,0,.1.35C352.687,211.474,352.839,211.711,352.992,211.946Z" transform="translate(-31.849 -23.472)"/><path class="c" d="M350.238,238.455a2.155,2.155,0,0,1,.367,1.079,1.192,1.192,0,0,1-.309.786,3.77,3.77,0,0,1-.374.354,3.53,3.53,0,0,0-.837,4.154c.372.784.47.658-.184,1.477-.576.719-1.112,1.467-1.669,2.2a1.99,1.99,0,0,1-.208.253.733.733,0,0,1-.188.094.624.624,0,0,1,0-.22.86.86,0,0,0,0-.678,1.5,1.5,0,0,1-.043-.6c.028-.607.073-1.215.112-1.822q.112-1.725.224-3.452c.037-.574.084-1.148.105-1.722.01-.231.11-.308.318-.384a3.323,3.323,0,0,0,.764-.435c.5-.368.989-.764,1.487-1.144C350.058,238.206,350.054,238.218,350.238,238.455Z" transform="translate(-30.376 -37.958)"/><path class="d" d="M346.584,191.79a1.654,1.654,0,0,1,.072,1.193c-.125.353-.3.684-.444,1.029-.082.2-.092.476-.235.578s-.431.006-.635.063a2.5,2.5,0,0,0-1.377.835c-.086.11-.176.329-.353.2s-.411-.249-.376-.545a2.081,2.081,0,0,1,.846-1.406c.29-.231.38-.377.294-.553s-.3-.21-.627-.051a2.428,2.428,0,0,0-1.165,1.291c-.241.572-.233.576-.845.449-.076-.016-.153-.033-.229-.043-.2-.024-.452.023-.574-.084s-.11-.376-.178-.567a2.082,2.082,0,0,1,.15-1.72c.133-.265.263-.533.388-.8a3.913,3.913,0,0,1,1.722-1.673c.369-.212.6-.094.666.32.026.152.026.31.037.474a5.658,5.658,0,0,1-.082.6.743.743,0,0,0,.241.719.442.442,0,0,0,.747-.073c.094-.143.164-.3.266-.439A.994.994,0,0,1,346.584,191.79Z" transform="translate(-27.331 -14.004)"/><path class="a" d="M349.886,226.8c.012,0,.016.1,0,.108-.153.088-.314.167-.474.243a.246.246,0,0,1-.053-.1c-.01-.208.078-.288.343-.29A1.147,1.147,0,0,1,349.886,226.8Z" transform="translate(-31.648 -32.261)"/><path class="c" d="M342.382,211.693c.229,0,.3.1.25.327q-.177.85-.323,1.7-.364,2.1-.719,4.2c-.012.076-.031.152-.049.229-.094.433-.1.414-.554.452-.523.045-1.042.131-1.563.19-.155.018-.353-.059-.46.012-.384.254-.776.057-1.162.08-.405.025-.809.065-1.213.1-.21.016-.394-.027-.4-.278a2.122,2.122,0,0,0-.623-1.22,1.49,1.49,0,0,1-.267-.433.909.909,0,0,1,.307-1.054c.2-.155.416-.28.607-.439a7.426,7.426,0,0,0,.9-.817,1.624,1.624,0,0,0,.1-1.924c-.18-.272-.408-.513-.605-.774a1.965,1.965,0,0,1-.145-.276,1.1,1.1,0,0,1,.29-.088c.721-.008,1.44-.008,2.161-.01h.609v.014H342.1C342.2,211.686,342.29,211.693,342.382,211.693Z" transform="translate(-24.663 -24.793)"/><path class="a" d="M340.193,183.194c.688-.153,1.328.055,1.235.909a11.894,11.894,0,0,1-.335,1.548.308.308,0,0,1-.339.263c-1-.078-1.6.582-2.228,1.2a6.038,6.038,0,0,0-1.211,2.151c-.029.073-.049.149-.078.221-.053.12-.141.173-.261.1s-.288-.114-.194-.308a3.245,3.245,0,0,1,.2-.321,4.1,4.1,0,0,0,.645-2.637.7.7,0,0,0-.182-.41.478.478,0,0,0-.372-.092c-.057.01-.1.194-.116.306-.082.523-.151,1.05-.237,1.573a.813.813,0,0,1-.125.3c-.092.143-.2.272-.3.407-.037-.139-.074-.278-.112-.415-.045-.167-.1-.329-.131-.5a2.483,2.483,0,0,0-.721-1.393.7.7,0,0,1-.206-.684,5.915,5.915,0,0,1,.251-.9,2.117,2.117,0,0,1,1.618-1.216c.4-.112.856.312.9.731.014.124.031.247.049.369l-.039.006a2.829,2.829,0,0,0,.065.416.416.416,0,0,0,.415.314c.208.01.251-.151.3-.3a2.617,2.617,0,0,1,1.138-1.442A1.2,1.2,0,0,1,340.193,183.194Z" transform="translate(-24.59 -10.671)"/><path class="a" d="M329.61,226.8c.194-.012.292.086.286.282,0,.047-.01.094-.012.141-.02.692-.063.737-.762.745-.564.006-1.126,0-1.69,0v.022c-1.322.024-2.649.026-3.971.076-1.642.067-3.279.169-4.919.265-1.015.059-2.03.118-3.041.212-.931.084-1.86.2-2.786.335-.482.067-.539.047-.584-.447a1.241,1.241,0,0,1,.006-.372.243.243,0,0,1,.178-.139c.748-.049,1.5-.088,2.245-.129,1.046-.057,2.092-.121,3.139-.165,1.171-.049,2.347-.057,3.519-.117q2.081-.106,4.159-.278c.852-.071,1.7-.216,2.553-.306C328.487,226.86,329.049,226.832,329.61,226.8Z" transform="translate(-13.213 -32.279)"/><path class="a" d="M341.306,230.342c.318.012.365.041.345.355-.026.435-.084.868-.127,1.3-.088.888-.188,1.773-.261,2.66-.065.8-.063.837-.835.968-1.17.2-2.343.37-3.515.556a.261.261,0,0,1-.343-.276c-.014-.39-.012-.78-.008-1.17,0-.161.12-.2.261-.2.3.006.6,0,.894.019a2.48,2.48,0,0,0,1.624-.505,1.289,1.289,0,0,0,.3-1.83,2.551,2.551,0,0,0-.3-.323,1.569,1.569,0,0,0-.21-.157,4.947,4.947,0,0,0-2.825-.807l-.021-.462c.687-.033,1.377-.065,2.065-.1,0,.022,0,.043,0,.065q1.36-.047,2.719-.092C341.149,230.344,341.228,230.34,341.306,230.342Z" transform="translate(-25.176 -34.036)"/><path class="c" d="M339.962,244.436c.619-.153.643-.143.605.482-.045.78-.106,1.559-.149,2.339-.027.514-.022,1.031-.055,1.544-.043.684-.155,1.365-.147,2.049a7.111,7.111,0,0,0,0,1.048,1.451,1.451,0,0,1-.588,1.3.7.7,0,0,1-.4.1c-.267.016-.533,0-.8,0v-.016c-.609.033-1.218.071-1.828.1-.467.022-.494-.012-.621-.447a8.013,8.013,0,0,0-.318-.931c-.448-1.048-.259-1.281.42-2.053.143-.163.323-.3.466-.46a3.09,3.09,0,0,0,.192-3.56c-.094-.161-.206-.313-.306-.472s-.041-.265.139-.294c.307-.053.621-.084.924-.152Q338.733,244.739,339.962,244.436Z" transform="translate(-24.749 -40.973)"/><path class="a" d="M338.709,199.268a1.34,1.34,0,0,1,.633,1.918,7.6,7.6,0,0,1-1.111,1.387.7.7,0,0,0-.274.564c.021.261-.145.316-.358.316h-1.173v-.018c-.376,0-.752,0-1.129,0a.541.541,0,0,1-.2-.08.959.959,0,0,1,.131-.174c.3-.251.615-.482.9-.748a1.676,1.676,0,0,0,.668-1.144,1.514,1.514,0,0,0-.012-.325c-.041-.218-.151-.28-.324-.165a3.105,3.105,0,0,0-.448.4c-.365.363-.723.731-1.093,1.087a.722.722,0,0,1-.247.1,1,1,0,0,1-.01-.263,1.787,1.787,0,0,0-.654-1.926,2.453,2.453,0,0,0-.568-.316.589.589,0,0,1-.388-.676,7.4,7.4,0,0,1,.327-1.214,1.969,1.969,0,0,1,2-1.121,1.036,1.036,0,0,1,.982,1.286,2.692,2.692,0,0,1-.137.544.544.544,0,0,0,.131.641.485.485,0,0,0,.646.01A1.775,1.775,0,0,1,338.709,199.268Z" transform="translate(-23.572 -17.459)"/><path class="a" d="M329.529,242.67c-.035.028-.065.069-.1.08-.421.124-.838.257-1.263.361a27.482,27.482,0,0,1-4.207.668c-.7.063-1.395.177-2.094.255-.669.076-1.337.147-2.007.208a31.525,31.525,0,0,0-3.612.531c-.229.049-.467.07-.692.133a.871.871,0,0,0-.347.2c-.2.194-.28.186-.368-.078a1.707,1.707,0,0,1-.055-.219c-.039-.269.039-.292.2-.312.65-.08,1.3-.2,1.945-.282.837-.11,1.675-.194,2.512-.3,1.269-.165,2.539-.341,3.809-.505.915-.119,1.83-.221,2.745-.339,1.084-.139,2.167-.29,3.25-.435a.515.515,0,0,1,.139-.022A.7.7,0,0,1,329.529,242.67Z" transform="translate(-14.526 -40.108)"/><path class="c" d="M337.429,233.375a.586.586,0,0,1,.088,1.019,3.319,3.319,0,0,1-.967.542,2.858,2.858,0,0,1-1.386.126,2.614,2.614,0,0,0-.327-.037c-.329-.008-.371.045-.361.38.018.562.031,1.126.031,1.688,0,.3-.049.345-.351.376a.874.874,0,0,1-.325.008.35.35,0,0,1-.216-.186,2.16,2.16,0,0,1-.047-.464c-.006-.092.033-.224-.016-.273a1.084,1.084,0,0,1-.2-.962,1.6,1.6,0,0,0,0-.409,2.01,2.01,0,0,1,.014-.421h-.018c0-.454.006-.909,0-1.364a.491.491,0,0,1,.38-.517,4.042,4.042,0,0,1,1.667-.172c.047,0,.092.053.139.082a.738.738,0,0,1-.11.078c-.186.082-.37.169-.56.239a.658.658,0,0,0-.27,1.086,1.533,1.533,0,0,0,1.011.546,1.053,1.053,0,0,0,.952-.58.7.7,0,0,0-.1-.825c-.084-.123-.145-.262-.218-.394a2.288,2.288,0,0,1,.484.073A4.04,4.04,0,0,1,337.429,233.375Z" transform="translate(-23.713 -35.199)"/><path class="a" d="M337.651,234.333c.072.125-.006.225-.131.3-.205.119-.409.248-.645.09a2.156,2.156,0,0,1-.259-.259,2.827,2.827,0,0,1,.3-.161c.141-.059.29-.1.486-.167C337.474,234.192,337.6,234.241,337.651,234.333Z" transform="translate(-25.341 -35.915)"/><path class="a" d="M329.889,212.892a1.013,1.013,0,0,1-.088,1.5,10.928,10.928,0,0,1-.964.741,1.984,1.984,0,0,0-.746.993,1.543,1.543,0,0,0,.3,1.575,3.634,3.634,0,0,1,.394.523,1.184,1.184,0,0,1,.133.492c.018.282-.057.345-.363.363q-1.872.1-3.746.2a.08.08,0,0,1,0-.022c-.36,0-.721.008-1.081,0-.231-.006-.251-.051-.145-.248a1.044,1.044,0,0,1,.1-.159c.116-.151.147-.265-.108-.241a.308.308,0,0,1-.31-.147c-.259-.331-.552-.633-.819-.958a3.266,3.266,0,0,1-.452-.645.749.749,0,0,1,.17-.907,5.619,5.619,0,0,1,.662-.584,1.427,1.427,0,0,0,.662-1.357,2.829,2.829,0,0,0-.615-1.826c-.186-.21-.147-.288.129-.305.546-.039,1.093-.074,1.64-.094,1.171-.041,2.345-.063,3.514-.108a1,1,0,0,1,.843.314C329.288,212.3,329.623,212.569,329.889,212.892Z" transform="translate(-18.062 -24.795)"/><path class="a" d="M330.41,246.917a2.492,2.492,0,0,1-.131,3.046c-.217.245-.433.494-.648.742a2.108,2.108,0,0,0-.307,2.322,10.181,10.181,0,0,1,.335.972c.084.319.067.347-.268.374-.668.055-1.34.084-2.012.123v-.027c-.5,0-1,0-1.5,0-.341,0-.433-.053-.394-.37a3.7,3.7,0,0,0-.833-2.429c-.116-.186-.247-.365-.35-.556a1.243,1.243,0,0,1,.182-1.7,6.005,6.005,0,0,0,.752-.89.747.747,0,0,0,.006-.882c-.1-.161-.2-.318-.288-.484-.139-.271-.108-.341.174-.374.574-.071,1.148-.131,1.724-.192.76-.082,1.526-.123,2.278-.255A1.112,1.112,0,0,1,330.41,246.917Z" transform="translate(-19.119 -41.941)"/><path class="a" d="M327.158,166.755a1.545,1.545,0,0,1,.829,1.555,2.352,2.352,0,0,1-2.7,2.449c-.512-.088-.65.11-.453.616a1.47,1.47,0,0,1,.088.958,1.576,1.576,0,0,1-2.116,1.086,4.755,4.755,0,0,1-.688-.4,1.239,1.239,0,0,1-.56-1.031c-.014-.186,0-.376,0-.562a.536.536,0,0,0-.323-.568.567.567,0,0,0-.688.041.9.9,0,0,1-1.089.123c-.09-.051-.206-.135-.226-.221a1.383,1.383,0,0,1,.124-1.177.892.892,0,0,1,1-.439.306.306,0,0,0,.275-.1.357.357,0,0,0-.047-.294,3.757,3.757,0,0,0-.331-.392,1.021,1.021,0,0,1,.1-1.663,2.6,2.6,0,0,1,.57-.4.585.585,0,0,1,.862.423c.043.184.047.376.1.554a1.22,1.22,0,0,0,.223.451.4.4,0,0,0,.676-.11,3.342,3.342,0,0,1,1.963-1.575,1.911,1.911,0,0,1,1.375.12A7.68,7.68,0,0,1,327.158,166.755Zm-3.43,4.386c.147-.19.016-.352-.084-.507a.915.915,0,0,0-.163-.171,1.771,1.771,0,0,1-.516-.823,1.852,1.852,0,0,0-.184-.476,1.438,1.438,0,0,0-.421-.408c-.216-.125-.359-.027-.435.239a6.469,6.469,0,0,0,.419,1.08,6.123,6.123,0,0,0,.827,1.009A.424.424,0,0,0,323.727,171.141Z" transform="translate(-16.701 -2.18)"/><path class="a" d="M330.005,230.6l.021.462a4.918,4.918,0,0,0-1.173.19,1.928,1.928,0,0,0-.505.233.788.788,0,0,0-.414.778,1.837,1.837,0,0,1,0,.28c-.008.186.051.449-.047.539-.161.147-.31-.112-.474-.172a1.4,1.4,0,0,0-.317-.051,4.381,4.381,0,0,1-.557-.059.719.719,0,0,0-.756.249,2.571,2.571,0,0,0-.441.672l-.554-.07a.922.922,0,0,0,.165-.341,1.748,1.748,0,0,0-.88-1.863,4.125,4.125,0,0,1-.474-.36,3.146,3.146,0,0,1,.6-.155q2.551-.158,5.105-.294C329.541,230.622,329.772,230.611,330.005,230.6Z" transform="translate(-18.898 -34.163)"/><path class="a" d="M327.215,189.557a2.622,2.622,0,0,1,.063,2.173,1.936,1.936,0,0,1-.678,1.029,1.916,1.916,0,0,0-.658,1.16c-.061.259-.117.519-.186.776s-.19.307-.388.11a2.442,2.442,0,0,1-.807-1.6,1.58,1.58,0,0,0-.147-.533.363.363,0,0,0-.439-.186c-.169.033-.188.173-.225.316a1.55,1.55,0,0,0,.263,1.2,11.376,11.376,0,0,0,.866,1.221c.233.3.233.354-.128.47-.172.055-.374.167-.521.119-.112-.035-.141-.29-.233-.431a8.243,8.243,0,0,0-.568-.8,1.631,1.631,0,0,0-1.326-.439,4.545,4.545,0,0,0-.467.049.92.92,0,0,0-.9.484c-.063.127-.169.139-.231-.016a1.6,1.6,0,0,0-.727-.886.139.139,0,0,1-.065-.067c-.186-.576-.373-1.152-.5-1.559a2.894,2.894,0,0,1,1.052-2.263.684.684,0,0,1,1.076.075,7.014,7.014,0,0,1,.754,1.118,1.363,1.363,0,0,0,.844.688c.22.063.329-.031.314-.263-.006-.076-.045-.149-.055-.227a1.7,1.7,0,0,1-.031-.37A2.763,2.763,0,0,1,324.8,188.8c.178-.059.363-.1.545-.141A1.715,1.715,0,0,1,327.215,189.557Z" transform="translate(-16.725 -13.377)"/><path class="d" d="M326.324,202.9a1.275,1.275,0,0,1,.1,1.371,10.036,10.036,0,0,1-.919,1.181.619.619,0,0,1-.382.131c-.249.02-.5.006-.752.006v-.012c-.311.023-.625.043-.935.07a.379.379,0,0,1-.456-.231.863.863,0,0,0-.227-.294,1.28,1.28,0,0,1-.248-1.473c.039-.133.108-.259.157-.392a.414.414,0,0,0-.22-.514.524.524,0,0,0-.642.08,1.465,1.465,0,0,0-.345,1.138,2.44,2.44,0,0,0,.529,1.426c.2.218.166.294-.114.321-.467.047-.937.051-1.4.067-.2.008-.3-.141-.39-.292a3.321,3.321,0,0,0-.382-.59,3.251,3.251,0,0,0-.752-.619.877.877,0,0,1-.482-.969.958.958,0,0,1,.684-.915,7.026,7.026,0,0,1,.818-.206,1.409,1.409,0,0,0,1-.637.7.7,0,0,1,.666-.35,2.3,2.3,0,0,0,.282-.018.943.943,0,0,1,1.042.617,4.927,4.927,0,0,0,.318.568c.409.713.445.617,1.189.474a2.49,2.49,0,0,0,.482-.184A1.164,1.164,0,0,1,326.324,202.9Z" transform="translate(-16.348 -19.599)"/><path class="a" d="M325.8,238.952a1.376,1.376,0,0,1,.1.435c-.006.081-.149.2-.245.214-.658.118-1.32.212-1.981.314-.517.08-1.034.167-1.554.241-.229.032-.464.03-.693.057-.6.076-1.2.163-1.8.241a2.161,2.161,0,0,1-.374.018.477.477,0,0,1-.161-.072c.035-.045.059-.112.1-.131.361-.147.721-.3,1.091-.42s.4-.131.312-.525c-.133-.578-.271-1.156-.427-1.73-.057-.206,0-.288.2-.319.339-.053.682-.1,1.015-.176a4.882,4.882,0,0,0,1.019-.32.489.489,0,0,0,.159-.137l.554.07a2.383,2.383,0,0,0-.159,1.434c.01.053.019.108.033.163a1.918,1.918,0,0,0,1.481,1.224,1.647,1.647,0,0,0,.621-.165,2.873,2.873,0,0,0,.394-.251C325.586,239.056,325.7,239.007,325.8,238.952Z" transform="translate(-16.664 -37.154)"/><path class="c" d="M330.148,237.358a3.814,3.814,0,0,1-.265.574,2.053,2.053,0,0,1-.915.709.812.812,0,0,1-.537.018.921.921,0,0,1-.59-.737.993.993,0,0,1,.026-.4,5.166,5.166,0,0,1,.315-.823.3.3,0,0,1,.423-.174.482.482,0,0,0,.335-.061c.416-.21.648-.17.9.224A4.869,4.869,0,0,1,330.148,237.358Zm-1.136.829a.637.637,0,0,0,.7-.692.845.845,0,0,0-.8-.77.71.71,0,0,0-.6.762A.665.665,0,0,0,329.012,238.186Z" transform="translate(-20.992 -37.004)"/><path class="c" d="M320.16,253.334a2.243,2.243,0,0,1,.28,1.442c-.014.212-.106.312-.323.308-.39-.006-.782,0-1.173,0,0-.016,0-.031,0-.045-.684.063-1.365.116-2.047.194-.221.023-.321-.049-.364-.253-.139-.672-.294-1.342-.423-2.016-.263-1.381-.513-2.764-.768-4.145-.033-.178-.039-.337.19-.41a13.975,13.975,0,0,1,1.446-.476c.778-.159,1.571-.237,2.357-.355a.424.424,0,0,1,.478.212.856.856,0,0,0,.061.071c.58.76.592.823-.1,1.4a2.015,2.015,0,0,0-.462,2.624C319.592,252.364,319.857,252.861,320.16,253.334Z" transform="translate(-14.798 -42.565)"/><path class="c" d="M321.084,233.554c.061.354-.021.556-.361.666-.425.139-.876.205-1.314.3-.29.063-.576.133-.866.184-.22.041-.3.145-.225.361a1.357,1.357,0,0,0,.1.3,4.752,4.752,0,0,1,.456,1.42c.065.227-.025.351-.241.423-.28.094-.556.206-.835.308-.168.061-.27-.008-.305-.18-.024-.124-.057-.245-.071-.369-.129-1.244-.257-2.486-.372-3.73a.317.317,0,0,1,.139-.253,4.105,4.105,0,0,1,2.063-.541,8.348,8.348,0,0,1,1.015.171A1.105,1.105,0,0,1,321.084,233.554Zm-.8.227a.468.468,0,0,0,.1-.729,1.06,1.06,0,0,0-1.333-.345,1.637,1.637,0,0,1-.556.226c-.31,0-.343.141-.339.386.078.284.145.572.241.85a.37.37,0,0,0,.525.225c.349-.131.7-.268,1.041-.415A1.43,1.43,0,0,0,320.287,233.781Z" transform="translate(-15.655 -35.079)"/><path class="d" d="M317.268,186.971a1.006,1.006,0,0,1-.012.418c-.053.28-.12.337-.365.2a1.868,1.868,0,0,0-2.174.28,3.224,3.224,0,0,0-1.079,2.108c-.02.074-.01.157-.026.233a.418.418,0,0,1-.061.116c-.051-.029-.127-.047-.147-.088a5.688,5.688,0,0,1-.267-.651c-.068-.223-.094-.46-.159-.686a.828.828,0,0,0-.184-.368.5.5,0,0,0-.361-.122c-.056.006-.139.2-.129.3a4.407,4.407,0,0,0,.518,1.742c.094.163.18.329.278.49.119.192.027.247-.155.261-.294.024-.588.067-.882.073a.971.971,0,0,0-.66.307c-.137.127-.241.143-.388-.022-.28-.313-.684-.492-.935-.852-.016-.024-.031-.049-.047-.075a2.269,2.269,0,0,1-.323-1.2,2.3,2.3,0,0,1,.868-1.569,3.324,3.324,0,0,1,1.456-.823,1.006,1.006,0,0,1,1.073.272.868.868,0,0,0,.182.147c.274.182.411.12.486-.214.063-.272.114-.55.192-.821a1.639,1.639,0,0,1,2.2-.9,1.959,1.959,0,0,1,1.027,1.214C317.225,186.814,317.249,186.892,317.268,186.971Z" transform="translate(-12.021 -11.778)"/><path class="c" d="M315.724,212.613a1.6,1.6,0,0,1,.9,1.64,1.225,1.225,0,0,1-.335.537c-.214.249-.469.46-.682.709a1.752,1.752,0,0,0,.006,2.347c.254.251.486.529.752.766a.647.647,0,0,1,.2.592.369.369,0,0,1-.38.39l-.141.008c-1.31.067-2.621.127-3.932.2-.327.018-.65.075-.975.11-.347.035-.408,0-.486-.341-.086-.382-.147-.768-.214-1.154-.206-1.2-.421-2.4-.607-3.6-.106-.678-.171-1.364-.233-2.048-.033-.365.076-.464.447-.478.889-.037,1.781-.07,2.67-.106a.092.092,0,0,1,0,.023c.641,0,1.284-.018,1.924.01a2.492,2.492,0,0,1,.709.186A2.687,2.687,0,0,1,315.724,212.613Z" transform="translate(-11.966 -25.046)"/><path class="a" d="M321.694,233.947c-.057.065-.08.112-.118.129a1.913,1.913,0,0,1-.38.167,1.413,1.413,0,0,1-.352,0,1.742,1.742,0,0,1,.269-.21,2.366,2.366,0,0,1,.429-.165C321.579,233.862,321.632,233.915,321.694,233.947Z" transform="translate(-17.532 -35.783)"/><path class="a" d="M312.63,199.785a.386.386,0,0,1-.3.461,1.37,1.37,0,0,0-.316.094,1.83,1.83,0,0,0-.617.394,1.439,1.439,0,0,0-.421,1.271c.082.284.147.572.218.858.018.072.025.147.039.219a.855.855,0,0,1-.263.008,5.673,5.673,0,0,1-.707-.253c-.625-.284-1.244-.584-1.865-.878a1.588,1.588,0,0,0-.261-.1c-.39-.108-.531.029-.414.42a3.058,3.058,0,0,0,.937,1.438c.245.214.529.382.791.58a.647.647,0,0,1,.127.169.707.707,0,0,1-.2.076c-.314.01-.627,0-.941,0v.021c-.3,0-.6,0-.893,0-.186,0-.3-.072-.316-.266-.031-.333-.261-.484-.525-.658a11.137,11.137,0,0,1-1.477-1.144.767.767,0,0,1-.018-1.133,2.721,2.721,0,0,1,2.135-1,1.54,1.54,0,0,1,1.23.323.453.453,0,0,0,.376.106c.186-.084.145-.284.1-.456a1.21,1.21,0,0,1,.5-1.442,2.246,2.246,0,0,1,2.545.061C312.345,199.2,312.6,199.4,312.63,199.785Z" transform="translate(-9.675 -18.284)"/><path class="a" d="M314.894,237.9c.076.106.163.2.245.3-.114.045-.231.086-.343.137a.716.716,0,0,1-.621.031.532.532,0,0,0-.451.026c-.305.241-.3-.012-.327-.182-.11-.633-.2-1.265-.312-1.9q-.27-1.6-.546-3.19c-.022-.121-.033-.246-.049-.37a.328.328,0,0,1,.272-.423c.611-.125,1.224-.239,1.84-.349.052-.01.116.032.172.047a1.265,1.265,0,0,1-.078.155.155.155,0,0,1-.076.053c-.559.2-.586.6-.509,1.129.151,1.034.214,2.082.341,3.121a7.934,7.934,0,0,0,.276,1.134A.946.946,0,0,0,314.894,237.9Z" transform="translate(-13.393 -34.851)"/><path class="a" d="M298.216,176.826c.6.212.738,1.386.323,1.848a2.716,2.716,0,0,1-1.313.768c-.133.041-.274.057-.409.094-.286.082-.345.241-.166.474.15.2.313.388.474.578a1.678,1.678,0,0,1-.108,1.988,1.947,1.947,0,0,1-1.467.846,2.541,2.541,0,0,1-1.779-.437.992.992,0,0,1-.441-1.258,3.107,3.107,0,0,1,.259-.6.27.27,0,0,0-.067-.372.922.922,0,0,0-1.109-.12,2.3,2.3,0,0,1-1.834.319.772.772,0,0,1-.541-.533,1.671,1.671,0,0,1,.982-2.159A4.4,4.4,0,0,1,293,178a1.587,1.587,0,0,0,.278.035c.1-.01.261-.035.286-.1a.385.385,0,0,0-.039-.337,2.068,2.068,0,0,0-.494-.421,1.347,1.347,0,0,1-.662-1.785c.029-.09.065-.176.1-.263.245-.57.331-.842,1.228-.746a2.746,2.746,0,0,1,1.44.4.7.7,0,0,1,.4.809c-.012.077-.037.151-.057.227a1.152,1.152,0,0,0,.447,1.309.432.432,0,0,0,.558-.035c.171-.108.341-.213.516-.313A1.369,1.369,0,0,1,298.216,176.826Zm-2.537,3.356a3.58,3.58,0,0,0-.891-2.8,1.127,1.127,0,0,0-.678-.376c-.131-.019-.233.037-.2.179a1.031,1.031,0,0,0,.165.407,2.731,2.731,0,0,1,.615,2.092.973.973,0,0,0,.172.658c.1.163.2.272.408.229A.456.456,0,0,0,295.679,180.183Z" transform="translate(-2.231 -6.322)"/><path d="M335.125,188.649a1.758,1.758,0,0,1,.729,2.065c-.084.231-.2.453-.263.688-.069.251-.09.517-.141.774-.194.95-.38,1.9-.592,2.848-.46,2.055-.946,4.107-1.4,6.164-.251,1.129-.486,2.261-.688,3.4-.178,1.015-.286,2.043-.454,3.06-.1.586-.255,1.16-.384,1.738-.02.092-.025.186-.039.278-.079.556-.118,1.122-.245,1.667-.2.85-.467,1.687-.7,2.529-.123.45-.233.905-.348,1.358a2.451,2.451,0,0,1-.178.648,4.287,4.287,0,0,0-.284,1.025c-.078.243-.137.471-.484.476-.133,0-.292.165-.392.292-.737.933-1.471,1.869-2.188,2.817a26.347,26.347,0,0,1-2.471,2.762.541.541,0,0,1-.472.143c-1.516-.145-3.029.033-4.545.025-1.752-.008-3.5.067-5.256.079a23.241,23.241,0,0,0-3.507.257c-.641.1-.919-.084-1.048-.75q-.538-2.762-1.06-5.527c-.21-1.1-.429-2.206-.619-3.313-.351-2.018-.7-4.036-1.015-6.06-.216-1.391-.349-2.794-.562-4.185-.235-1.53-.544-3.048-.776-4.578a17.072,17.072,0,0,1-.231-2.709.967.967,0,0,0-.45-.894c-.416-.329-.79-.709-1.182-1.069-.356-.329-.356-.817-.535-1.226-.029-.071.021-.184.053-.27a1.908,1.908,0,0,1,1.1-1.315c.247-.088.46-.269.705-.354a3.113,3.113,0,0,1,1.841-.133c.322.082.318.025.443-.271.19-.458.08-.689-.323-1.018a4.12,4.12,0,0,1-.741-.774l.5-.282c.251.36.654.539.935.852.147.165.251.149.388.022a.971.971,0,0,1,.66-.308c.294-.006.588-.049.882-.073.182-.014.274-.069.155-.261-.1-.161-.184-.327-.278-.49a4.406,4.406,0,0,1-.518-1.741c-.01-.1.073-.3.129-.3a.5.5,0,0,1,.361.122.827.827,0,0,1,.184.368c.065.226.09.463.159.686a5.68,5.68,0,0,0,.267.651c.02.041.1.059.147.088a.417.417,0,0,0,.061-.116c.016-.076.006-.159.026-.233a3.224,3.224,0,0,1,1.08-2.108,1.868,1.868,0,0,1,2.174-.28c.245.141.312.084.365-.2a1.006,1.006,0,0,0,.012-.418c-.019-.078-.043-.157-.068-.231l.556-.135a2.1,2.1,0,0,1,.017,1.475c-.023.066.024.161.037.241a.878.878,0,0,0,.2-.165,3.906,3.906,0,0,0,.223-.412,2.22,2.22,0,0,1,1.078-1,4.4,4.4,0,0,1,2.33-.28c.259.022.329-.053.364-.282.049-.314.037-.664.382-.85a.1.1,0,0,0,.014-.092c-.139-.147,0-.229.078-.31a3.349,3.349,0,0,1,1.485-.862,1.689,1.689,0,0,1,1.832.49c.188.2.282.061.425-.039a7.344,7.344,0,0,1,1.129-.738,1.655,1.655,0,0,1,2.279,1.254c.037.325.063.337.357.19a3.212,3.212,0,0,1,1.179-.268,1.225,1.225,0,0,1,1.268.7,1.848,1.848,0,0,1,.17.386.357.357,0,0,0,.425.274,4.5,4.5,0,0,1,.516-.006,1.35,1.35,0,0,1,1.312,1.532,4.217,4.217,0,0,1-.19.774c-.072.225-.084.376.19.47a1.252,1.252,0,0,1,.684.793c.139.307.148.329.44.206A2.712,2.712,0,0,1,335.125,188.649Zm-.008,1.309a.9.9,0,0,0-.556-.8,1.992,1.992,0,0,0-1.95.286.561.561,0,0,1-.971-.4c-.024-.171,0-.347-.022-.516-.052-.415-.207-.558-.617-.635a.832.832,0,0,0-.709.147c-.184.145-.346.316-.535.449s-.454.188-.572.356-.072.46-.152.676c-.19.509-.414,1.009-.623,1.512-.022.051-.037.106-.057.159.071,0,.161.016.21-.02a4.2,4.2,0,0,1,1.512-.452,1.65,1.65,0,0,1,1.146.467,1.317,1.317,0,0,1,.517,1.571.888.888,0,0,0,0,.259,1.008,1.008,0,0,0,.261-.069c.5-.29.988-.605,1.5-.884a3,3,0,0,0,1.365-1.22A2.065,2.065,0,0,0,335.117,189.958Zm-.744,2.968-.033-.214c-.086.018-.173.035-.257.055-.016,0-.027.016-.041.023-.866.531-1.734,1.06-2.6,1.595a.72.72,0,0,0-.227.228c-.186.3-.347.621-.541.921a3.782,3.782,0,0,0-.594,1.513,1.075,1.075,0,0,0,.145.852,7.024,7.024,0,0,1,.37.7,2.1,2.1,0,0,1,.161,1.8c-.051.149-.108.3-.143.447a1.22,1.22,0,0,0,0,.269.787.787,0,0,0,.294-.043c.568-.329,1.133-.664,1.683-1.018a.656.656,0,0,0,.251-.367q.67-2.842,1.318-5.688C334.238,193.645,334.3,193.292,334.373,192.926Zm-1.936,8.395a.748.748,0,0,0,.012-.269.851.851,0,0,0-.248.028,2.4,2.4,0,0,0-.323.186q-1.619.985-3.239,1.967c-.294.178-.6.335-.89.521a.309.309,0,0,0-.1.261,1.386,1.386,0,0,0,.192.345c.135-.065.223-.1.3-.147.308-.184.617-.367.915-.564q1.6-1.063,3.184-2.135A.526.526,0,0,0,332.437,201.321Zm-.282,1.579a.722.722,0,0,0-.055-.251.754.754,0,0,0-.216.059q-.444.261-.876.541c-.682.444-1.352.907-2.041,1.336q-1.135.705-2.3,1.363a.619.619,0,0,0-.337.52q-.153,1.54-.3,3.076a.152.152,0,0,0-.03,0c.012.086.024.173.033.259a1.15,1.15,0,0,0,.251-.106c.3-.229.58-.476.876-.705.7-.545,1.4-1.1,2.114-1.62.627-.46,1.277-.887,1.92-1.324a.614.614,0,0,1,.255-.1c.2-.024.259-.143.28-.316.043-.356.09-.711.147-1.066C331.965,204.008,332.067,203.454,332.155,202.9Zm-.891,4.386c.173-.137.3-.3.2-.446s-.3.023-.439.108a20.535,20.535,0,0,0-2.856,2.122c-.647.565-1.348,1.066-2.034,1.585a.661.661,0,0,0-.309.552c.024.088.045.175.069.263.094-.039.19-.078.284-.119.014-.006.023-.022.035-.031C327.892,209.972,329.571,208.62,331.264,207.286Zm-.035,1.224a.242.242,0,0,0-.067-.2c-.041-.028-.153,0-.2.041-.58.451-1.166.9-1.73,1.368-.255.214-.243.243-.03.493a2.674,2.674,0,0,1,.588,1.6,1.548,1.548,0,0,1-.325,1.013,5.461,5.461,0,0,1-.746.77,2.491,2.491,0,0,0-.762,2.388,3.3,3.3,0,0,0,.282.888c.088.2.208.21.352.031a.915.915,0,0,1,.514-.38.368.368,0,0,0,.2-.182,1.444,1.444,0,0,0,.319-.878,1.008,1.008,0,0,1,.127-.543,5.106,5.106,0,0,0,.441-1.485c.139-.735.337-1.458.517-2.184.053-.21.153-.41.2-.621.072-.347.117-.7.174-1.054S331.185,208.865,331.228,208.51Zm-.282-22.4c.143-.48-.055-.76-.555-.8a1.319,1.319,0,0,0-.766.161c-.429.239-.682.1-.742-.369-.02-.155-.033-.31-.057-.464a.8.8,0,0,0-1-.727,2.414,2.414,0,0,0-.613.225c-.292.147-.568.322-.85.488a.322.322,0,0,0-.127.129,1.852,1.852,0,0,0-.133,1.658c.061.131.1.223.231.192l.263-.023c.509-.053.509-.053.437-.554a1.6,1.6,0,0,1,.163-.911.335.335,0,0,1,.415-.215c.192.047.218.214.2.376a2.969,2.969,0,0,1-.1.5c-.15.507-.092.715.337.993a2.241,2.241,0,0,1,.917,1.037c.092.229.194.231.378.1a3.19,3.19,0,0,1,1.16-.686c.045-.01.09-.086.11-.141C330.731,186.753,330.85,186.433,330.947,186.106Zm-.065,6.228a.7.7,0,0,0-.709-.986,1.945,1.945,0,0,0-1.479.8c-.08.125-.143.293-.354.235a.483.483,0,0,1-.382-.37c-.019-.09-.039-.182-.064-.273a.835.835,0,0,0-1.215-.466,2.481,2.481,0,0,0-.89.993.884.884,0,0,0-.105.664,2.418,2.418,0,0,1-.574,2.312,4.219,4.219,0,0,0-.384.47,1.087,1.087,0,0,0-.1.294,1.174,1.174,0,0,0,.26.067c.345.008.69,0,1.035,0v.008a9.384,9.384,0,0,0,.939-.006,1.847,1.847,0,0,0,.976-.241c.613-.456,1.215-.932,1.832-1.387.314-.229.648-.423.646-.882a.575.575,0,0,1,.084-.217C330.558,193.014,330.729,192.677,330.882,192.334Zm-.633,7.562a1.566,1.566,0,0,0-.241-1.34c-.153-.235-.305-.472-.441-.719a.707.707,0,0,1-.1-.35,7.36,7.36,0,0,1,.11-.972c.049-.259.153-.507.224-.764a.145.145,0,0,0-.024-.125.128.128,0,0,0-.123.014c-.409.309-.837.605-1.219.948a1.8,1.8,0,0,0-.582.754c-.222.809-.363,1.644-.517,2.47-.1.552-.177,1.109-.271,1.663s-.2,1.109-.286,1.609c-.016.288.043.329.272.207.58-.31,1.142-.65,1.732-.938a1.452,1.452,0,0,0,.978-1.144,1.728,1.728,0,0,1,.149-.343C330.028,200.545,330.153,200.224,330.249,199.9Zm-1.156,11.763a2.156,2.156,0,0,0-.367-1.08c-.184-.237-.18-.249-.433-.057-.5.38-.984.776-1.487,1.144a3.321,3.321,0,0,1-.764.435c-.208.076-.307.152-.318.384-.021.574-.069,1.148-.106,1.722q-.112,1.725-.224,3.452c-.039.607-.084,1.215-.112,1.822a1.5,1.5,0,0,0,.043.6.86.86,0,0,1,0,.678.624.624,0,0,0,0,.22.736.736,0,0,0,.188-.094,2,2,0,0,0,.208-.253c.556-.737,1.093-1.485,1.669-2.2.654-.819.556-.693.184-1.477a3.53,3.53,0,0,1,.837-4.154,3.769,3.769,0,0,0,.374-.354A1.192,1.192,0,0,0,329.093,211.659Zm-.9-22.6a1.653,1.653,0,0,0-.072-1.193.994.994,0,0,0-1.691-.21c-.1.135-.172.3-.266.439a.442.442,0,0,1-.747.073.742.742,0,0,1-.241-.719,5.65,5.65,0,0,0,.082-.6c-.012-.165-.012-.322-.037-.474-.067-.414-.3-.531-.666-.32a3.913,3.913,0,0,0-1.722,1.673c-.126.268-.255.537-.388.8a2.082,2.082,0,0,0-.15,1.72c.068.19.05.453.178.567s.376.061.574.084c.077.01.153.027.229.043.611.127.6.123.845-.449a2.428,2.428,0,0,1,1.165-1.291c.323-.159.543-.123.627.051s0,.322-.294.553a2.08,2.08,0,0,0-.846,1.406c-.035.3.2.418.376.545s.266-.088.353-.2a2.5,2.5,0,0,1,1.377-.835c.2-.057.484.045.635-.063s.153-.382.235-.578C327.89,189.746,328.065,189.415,328.19,189.062ZM327.1,204.727c.018-.01.014-.1,0-.108a1.14,1.14,0,0,0-.186-.041c-.265,0-.352.082-.343.29a.247.247,0,0,0,.053.1C326.787,204.894,326.948,204.816,327.1,204.727Zm-.267-7.417c.045-.223-.021-.327-.25-.327-.092,0-.186-.008-.28-.008h-2.578v-.014h-.609c-.721,0-1.44,0-2.161.01a1.1,1.1,0,0,0-.29.088,1.962,1.962,0,0,0,.145.276c.2.261.425.5.605.774a1.624,1.624,0,0,1-.1,1.924,7.424,7.424,0,0,1-.9.817c-.192.159-.412.284-.607.439a.909.909,0,0,0-.307,1.054,1.491,1.491,0,0,0,.267.433,2.122,2.122,0,0,1,.623,1.22c0,.251.188.294.4.278.4-.033.807-.073,1.213-.1.386-.024.778.174,1.162-.08.108-.071.306.006.461-.012.521-.059,1.04-.145,1.563-.19.458-.039.46-.02.554-.452.018-.077.037-.153.049-.229q.358-2.1.719-4.2Q326.658,198.159,326.834,197.31Zm-1.132-13.8c.094-.854-.547-1.062-1.234-.909a1.2,1.2,0,0,0-.376.186,2.617,2.617,0,0,0-1.138,1.442c-.047.153-.09.314-.3.3a.416.416,0,0,1-.415-.314,2.83,2.83,0,0,1-.065-.416l.039-.006c-.018-.122-.035-.245-.049-.369-.049-.419-.509-.842-.9-.731a2.117,2.117,0,0,0-1.618,1.216,5.921,5.921,0,0,0-.251.9.7.7,0,0,0,.206.684,2.483,2.483,0,0,1,.721,1.393c.03.169.086.331.131.5.037.137.075.276.112.415.1-.135.212-.265.3-.407a.815.815,0,0,0,.125-.3c.086-.523.155-1.05.237-1.573.018-.112.059-.3.116-.306a.478.478,0,0,1,.372.092.7.7,0,0,1,.182.41,4.1,4.1,0,0,1-.645,2.637,3.248,3.248,0,0,0-.2.321c-.094.194.082.239.194.308s.208.023.261-.1c.029-.072.049-.148.078-.221a6.039,6.039,0,0,1,1.211-2.151c.625-.619,1.226-1.279,2.228-1.2a.308.308,0,0,0,.339-.263A11.885,11.885,0,0,0,325.7,183.514Zm-.155,21.366c.006-.2-.092-.294-.286-.282-.56.037-1.123.065-1.681.125-.852.09-1.7.235-2.553.306q-2.078.173-4.159.278c-1.172.061-2.347.068-3.519.117-1.046.043-2.092.108-3.139.165-.748.041-1.5.08-2.245.129a.243.243,0,0,0-.178.139,1.239,1.239,0,0,0-.006.372c.045.494.1.514.584.447.927-.131,1.856-.251,2.786-.335,1.011-.094,2.026-.152,3.041-.212,1.64-.1,3.277-.2,4.919-.265,1.322-.05,2.649-.052,3.971-.076v-.022c.564,0,1.126,0,1.691,0,.7-.008.743-.053.762-.745C325.537,204.974,325.545,204.927,325.547,204.88Zm-.208,1.863c.02-.314-.027-.343-.345-.355-.078,0-.156,0-.235.006q-1.357.044-2.719.092c0-.021,0-.043,0-.065-.688.031-1.377.063-2.065.1-.233.012-.465.023-.7.037q-2.553.139-5.105.294a3.145,3.145,0,0,0-.6.155,4.136,4.136,0,0,0,.474.361,1.748,1.748,0,0,1,.88,1.863.921.921,0,0,1-.165.341.489.489,0,0,1-.159.137,4.879,4.879,0,0,1-1.019.32c-.333.078-.676.123-1.015.176-.2.031-.253.114-.2.319.157.574.294,1.152.427,1.73.092.394.065.4-.312.525s-.731.273-1.091.42c-.045.019-.069.086-.1.131a.477.477,0,0,0,.161.072,2.162,2.162,0,0,0,.374-.018c.6-.078,1.2-.165,1.8-.241.229-.027.464-.025.693-.057.52-.074,1.037-.161,1.554-.241.66-.1,1.322-.2,1.981-.314.1-.018.239-.133.245-.214a1.375,1.375,0,0,0-.1-.435c-.108.055-.218.1-.321.165a2.874,2.874,0,0,1-.394.251,1.645,1.645,0,0,1-.621.165,1.919,1.919,0,0,1-1.481-1.224c-.014-.055-.023-.11-.033-.163l.56-.073a.921.921,0,0,0,.59.737.812.812,0,0,0,.537-.018,2.053,2.053,0,0,0,.915-.709,3.811,3.811,0,0,0,.265-.574l.482.039a1.084,1.084,0,0,0,.2.962c.049.049.01.18.016.273a2.168,2.168,0,0,0,.047.464.35.35,0,0,0,.216.186.874.874,0,0,0,.325-.008c.3-.031.351-.074.351-.376,0-.562-.014-1.126-.031-1.688-.01-.335.031-.388.361-.38a2.626,2.626,0,0,1,.327.037,2.858,2.858,0,0,0,1.385-.126,3.317,3.317,0,0,0,.967-.542.586.586,0,0,0-.088-1.019l.446-.314a2.547,2.547,0,0,1,.3.323,1.289,1.289,0,0,1-.3,1.83,2.48,2.48,0,0,1-1.624.505c-.3-.021-.6-.014-.894-.019-.141,0-.259.039-.261.2,0,.39-.006.78.008,1.17a.261.261,0,0,0,.343.276c1.171-.186,2.345-.356,3.515-.556.772-.131.77-.167.835-.968.072-.888.172-1.773.261-2.66C325.255,207.612,325.314,207.178,325.339,206.744Zm-.656,7.284c.037-.625.014-.635-.605-.482q-1.228.3-2.463.58c-.3.068-.617.1-.924.152-.18.029-.249.124-.139.294s.212.311.305.472a3.089,3.089,0,0,1-.192,3.56c-.143.165-.323.3-.466.46-.678.772-.868,1.005-.42,2.053a8.014,8.014,0,0,1,.318.931c.127.435.154.469.621.447.609-.025,1.218-.063,1.828-.1v.016c.267,0,.533.012.8,0a.7.7,0,0,0,.4-.1,1.451,1.451,0,0,0,.588-1.3,7.114,7.114,0,0,1,0-1.048c-.008-.684.1-1.365.147-2.049.033-.513.027-1.031.054-1.544C324.577,215.587,324.638,214.807,324.683,214.028Zm-.049-20.218a1.34,1.34,0,0,0-.633-1.918,1.775,1.775,0,0,0-1.709.078.485.485,0,0,1-.646-.01.544.544,0,0,1-.131-.641,2.691,2.691,0,0,0,.137-.544,1.036,1.036,0,0,0-.982-1.286,1.969,1.969,0,0,0-2,1.121,7.388,7.388,0,0,0-.327,1.214.589.589,0,0,0,.388.676,2.452,2.452,0,0,1,.568.316,1.787,1.787,0,0,1,.654,1.926,1.007,1.007,0,0,0,.01.263.722.722,0,0,0,.247-.1c.37-.356.729-.725,1.093-1.087a3.1,3.1,0,0,1,.448-.4c.173-.116.282-.053.324.165a1.512,1.512,0,0,1,.012.325,1.675,1.675,0,0,1-.668,1.144c-.284.266-.6.5-.9.748a.95.95,0,0,0-.131.174.541.541,0,0,0,.2.08c.376.008.752,0,1.129,0v.018h1.173c.214,0,.38-.055.358-.316a.7.7,0,0,1,.274-.564A7.6,7.6,0,0,0,324.634,193.809Zm-.87,18.915c.039-.012.069-.053.1-.08a.7.7,0,0,0-.153-.061.514.514,0,0,0-.139.022c-1.084.145-2.167.3-3.25.435-.915.118-1.83.22-2.745.339-1.269.165-2.539.341-3.809.505-.837.108-1.675.192-2.511.3-.648.086-1.3.2-1.946.282-.156.019-.235.043-.2.312a1.716,1.716,0,0,0,.055.219c.088.265.165.272.368.078a.872.872,0,0,1,.347-.2c.225-.063.463-.084.692-.133a31.539,31.539,0,0,1,3.612-.531c.67-.061,1.338-.131,2.007-.207.7-.078,1.393-.192,2.094-.255a27.482,27.482,0,0,0,4.207-.668C322.926,212.981,323.343,212.848,323.764,212.724Zm-3.16-13.04a1.013,1.013,0,0,0,.088-1.5c-.266-.323-.6-.592-.887-.9a1,1,0,0,0-.843-.314c-1.169.045-2.343.067-3.514.108-.547.02-1.094.055-1.64.094-.276.018-.316.1-.129.305a2.829,2.829,0,0,1,.615,1.826,1.427,1.427,0,0,1-.662,1.357,5.611,5.611,0,0,0-.662.584.749.749,0,0,0-.17.907,3.266,3.266,0,0,0,.452.645c.267.325.561.627.819.958a.308.308,0,0,0,.31.147c.254-.024.223.09.108.241a1.05,1.05,0,0,0-.1.159c-.106.2-.086.243.145.248.361.012.721,0,1.081,0a.082.082,0,0,0,0,.022q1.872-.1,3.746-.2c.305-.018.38-.08.362-.363a1.184,1.184,0,0,0-.133-.492,3.636,3.636,0,0,0-.394-.523,1.544,1.544,0,0,1-.3-1.575,1.984,1.984,0,0,1,.746-.993A10.928,10.928,0,0,0,320.6,199.685Zm-.58,18.42a2.492,2.492,0,0,0,.131-3.046,1.112,1.112,0,0,0-1.285-.578c-.752.131-1.518.172-2.278.254-.576.061-1.15.122-1.724.192-.282.033-.314.1-.174.374.086.166.19.323.288.484a.747.747,0,0,1-.006.882,6.006,6.006,0,0,1-.752.89,1.243,1.243,0,0,0-.182,1.7c.1.192.235.37.35.556a3.7,3.7,0,0,1,.833,2.429c-.039.317.053.366.394.37.5.006,1,0,1.5,0v.027c.672-.039,1.344-.068,2.012-.123.335-.027.352-.055.268-.374a10.178,10.178,0,0,0-.335-.972,2.109,2.109,0,0,1,.308-2.322C319.591,218.6,319.807,218.349,320.024,218.1Zm-.607-29.669a2.622,2.622,0,0,0-.063-2.173,1.715,1.715,0,0,0-1.867-.9c-.182.045-.367.082-.545.141a2.763,2.763,0,0,0-1.636,2.116,1.7,1.7,0,0,0,.031.37c.01.078.049.151.055.227.016.231-.094.326-.314.263a1.363,1.363,0,0,1-.844-.688,7.016,7.016,0,0,0-.754-1.118.684.684,0,0,0-1.075-.075,2.894,2.894,0,0,0-1.052,2.263c.131.407.318.984.5,1.559a.138.138,0,0,0,.065.067,1.6,1.6,0,0,1,.727.886c.063.155.169.143.231.016a.92.92,0,0,1,.9-.484,4.543,4.543,0,0,1,.466-.049,1.631,1.631,0,0,1,1.326.439,8.274,8.274,0,0,1,.568.8c.092.141.122.4.233.431.147.047.349-.065.521-.119.361-.116.361-.171.128-.47a11.37,11.37,0,0,1-.866-1.221,1.55,1.55,0,0,1-.263-1.2c.037-.143.057-.282.225-.316a.363.363,0,0,1,.439.186,1.58,1.58,0,0,1,.147.533,2.442,2.442,0,0,0,.807,1.6c.2.2.32.155.388-.11s.125-.517.186-.776a1.916,1.916,0,0,1,.658-1.16A1.935,1.935,0,0,0,319.417,188.436Zm-.474,6.322a1.275,1.275,0,0,0-.1-1.371,1.164,1.164,0,0,0-1.385-.243,2.492,2.492,0,0,1-.482.184c-.744.143-.78.239-1.189-.474a4.921,4.921,0,0,1-.318-.568.943.943,0,0,0-1.042-.617,2.288,2.288,0,0,1-.282.018.7.7,0,0,0-.666.35,1.409,1.409,0,0,1-1,.637,7.037,7.037,0,0,0-.819.206.958.958,0,0,0-.684.915.877.877,0,0,0,.482.969,3.251,3.251,0,0,1,.752.619,3.316,3.316,0,0,1,.382.59c.092.151.188.3.39.292.468-.016.938-.019,1.4-.067.28-.027.311-.1.114-.321a2.44,2.44,0,0,1-.529-1.426,1.465,1.465,0,0,1,.345-1.138.524.524,0,0,1,.642-.08.414.414,0,0,1,.22.514c-.049.133-.118.259-.157.392a1.28,1.28,0,0,0,.248,1.473.864.864,0,0,1,.227.294.379.379,0,0,0,.456.231c.31-.027.623-.047.935-.07v.012c.251,0,.5.014.752-.006a.618.618,0,0,0,.382-.131A10.039,10.039,0,0,0,318.943,194.758Zm-4.436,27.535a2.243,2.243,0,0,0-.28-1.442c-.3-.472-.568-.97-.854-1.454a2.015,2.015,0,0,1,.462-2.624c.692-.574.68-.637.1-1.4a.837.837,0,0,1-.061-.071.424.424,0,0,0-.478-.212c-.786.118-1.579.2-2.357.355a13.986,13.986,0,0,0-1.446.476c-.229.073-.223.231-.19.41.254,1.381.505,2.764.768,4.145.129.674.284,1.344.423,2.016.043.2.143.276.364.253.682-.079,1.364-.131,2.048-.194,0,.014,0,.03,0,.045.392,0,.784-.006,1.173,0C314.4,222.6,314.494,222.5,314.507,222.293Zm-.574-13.069c.339-.11.421-.311.361-.666a1.106,1.106,0,0,0-.815-.935,8.343,8.343,0,0,0-1.015-.171,4.106,4.106,0,0,0-2.063.541.317.317,0,0,0-.139.253c.116,1.244.243,2.486.372,3.73.014.124.047.245.071.369.035.172.137.241.305.18.278-.1.554-.214.835-.308.216-.072.305-.2.241-.423a4.752,4.752,0,0,0-.457-1.42,1.357,1.357,0,0,1-.1-.3c-.077-.216.006-.319.225-.361.29-.051.576-.121.866-.184C313.058,209.429,313.508,209.363,313.933,209.224Zm-.405-9.935a1.6,1.6,0,0,0-.9-1.639,2.686,2.686,0,0,0-.367-.21,2.491,2.491,0,0,0-.709-.186c-.64-.028-1.283-.01-1.924-.01a.088.088,0,0,0,0-.023c-.889.035-1.781.069-2.67.105-.371.014-.48.114-.447.478.063.684.127,1.369.233,2.047.186,1.2.4,2.4.607,3.6.067.386.127.772.214,1.154.078.343.139.376.486.341.325-.035.648-.092.975-.11,1.311-.072,2.622-.133,3.932-.2l.141-.008a.369.369,0,0,0,.38-.39.647.647,0,0,0-.2-.592c-.267-.237-.5-.515-.752-.766a1.752,1.752,0,0,1-.006-2.347c.214-.249.469-.46.682-.709A1.225,1.225,0,0,0,313.528,199.289Zm-2.006-7.245a.386.386,0,0,0,.3-.46c-.026-.38-.284-.588-.539-.835a2.246,2.246,0,0,0-2.545-.061,1.21,1.21,0,0,0-.5,1.442c.049.172.09.372-.1.456a.453.453,0,0,1-.376-.106,1.54,1.54,0,0,0-1.23-.323,2.721,2.721,0,0,0-2.135,1,.767.767,0,0,0,.018,1.133,11.14,11.14,0,0,0,1.477,1.144c.265.174.494.325.525.658a.269.269,0,0,0,.316.266c.3,0,.6,0,.893,0v-.021c.314,0,.627.006.941,0a.7.7,0,0,0,.2-.076.646.646,0,0,0-.127-.169c-.263-.2-.546-.367-.791-.58a3.058,3.058,0,0,1-.937-1.437c-.118-.39.024-.527.414-.42a1.589,1.589,0,0,1,.261.1c.621.294,1.24.593,1.865.878a5.665,5.665,0,0,0,.707.253.858.858,0,0,0,.263-.008c-.014-.072-.021-.147-.039-.219-.071-.286-.135-.574-.218-.858a1.439,1.439,0,0,1,.421-1.271,1.829,1.829,0,0,1,.617-.394A1.37,1.37,0,0,1,311.522,192.044Zm-.911,21.394c-.082-.1-.169-.2-.245-.3a.946.946,0,0,1-.167-.274,7.945,7.945,0,0,1-.276-1.134c-.127-1.039-.19-2.087-.341-3.121-.077-.525-.049-.925.509-1.128a.155.155,0,0,0,.076-.053,1.268,1.268,0,0,0,.078-.155c-.057-.016-.12-.057-.172-.047-.616.11-1.228.224-1.84.349a.328.328,0,0,0-.272.423c.016.124.027.249.049.37q.273,1.6.546,3.19c.108.631.2,1.264.312,1.9.03.171.022.423.327.182a.532.532,0,0,1,.451-.026.717.717,0,0,0,.621-.031C310.379,213.524,310.5,213.483,310.611,213.438Z" transform="translate(-8.864 -10.083)"/><path d="M334.572,232.475l-.446.314a4.041,4.041,0,0,0-.709-.361,2.286,2.286,0,0,0-.484-.073c.072.132.133.271.218.394a.7.7,0,0,1,.1.825,1.053,1.053,0,0,1-.952.58,1.532,1.532,0,0,1-1.011-.546.658.658,0,0,1,.27-1.086c.19-.07.374-.157.56-.239a.737.737,0,0,0,.11-.078c-.047-.03-.092-.08-.139-.082a4.04,4.04,0,0,0-1.667.172.491.491,0,0,0-.38.517c.008.455,0,.909,0,1.364h.018a2,2,0,0,0-.014.421,1.612,1.612,0,0,1,0,.41l-.482-.039a4.863,4.863,0,0,0-.3-.672c-.255-.394-.488-.433-.9-.224a.482.482,0,0,1-.335.061.3.3,0,0,0-.423.174,5.166,5.166,0,0,0-.315.823.994.994,0,0,0-.026.4l-.56.073a2.385,2.385,0,0,1,.159-1.434,2.571,2.571,0,0,1,.441-.672.719.719,0,0,1,.756-.249,4.374,4.374,0,0,0,.557.059,1.4,1.4,0,0,1,.317.051c.165.061.314.319.474.172.1-.09.039-.352.047-.539a1.841,1.841,0,0,0,0-.28.788.788,0,0,1,.414-.778,1.93,1.93,0,0,1,.505-.233,4.758,4.758,0,0,1,4,.617A1.569,1.569,0,0,1,334.572,232.475Zm-1.984.856c.125-.075.2-.175.131-.3-.055-.092-.176-.141-.251-.2-.2.065-.345.108-.486.167a2.824,2.824,0,0,0-.3.161,2.156,2.156,0,0,0,.259.259C332.178,233.58,332.382,233.451,332.587,233.331Z" transform="translate(-20.409 -34.613)"/><path d="M328.186,167.818a3.615,3.615,0,0,1-.492,1.881,2.474,2.474,0,0,1-1.735,1.084,4.139,4.139,0,0,1-.556.084c-.2.014-.275.1-.261.3a5.178,5.178,0,0,1,.006.607,2.082,2.082,0,0,1-2.437,1.828,3.388,3.388,0,0,1-2.68-2.175.345.345,0,0,0-.375-.263,2.2,2.2,0,0,1-.554-.059,1.62,1.62,0,0,1-1.322-1.865,1.427,1.427,0,0,1,.66-1.216c.343-.222.341-.263.163-.652a1.735,1.735,0,0,1-.147-1.4A1.894,1.894,0,0,1,320,164.687a1.857,1.857,0,0,1,1.315.4c.1.073.188.165.28.247.241.216.259.21.511.024.288-.212.58-.421.882-.612a2.377,2.377,0,0,1,1.681-.267,4.757,4.757,0,0,1,2.737,1.424A2.907,2.907,0,0,1,328.186,167.818Zm-.889-.28a1.545,1.545,0,0,0-.829-1.555,7.689,7.689,0,0,0-1.027-.558,1.91,1.91,0,0,0-1.375-.12,3.342,3.342,0,0,0-1.963,1.575.394.394,0,0,1-.676.11,1.218,1.218,0,0,1-.223-.451c-.055-.178-.059-.37-.1-.554a.585.585,0,0,0-.862-.423,2.6,2.6,0,0,0-.57.4,1.021,1.021,0,0,0-.1,1.663,3.742,3.742,0,0,1,.331.392.357.357,0,0,1,.047.294.307.307,0,0,1-.275.1.892.892,0,0,0-1,.439,1.384,1.384,0,0,0-.124,1.177c.02.086.135.17.226.221a.9.9,0,0,0,1.089-.123.567.567,0,0,1,.688-.041.536.536,0,0,1,.323.568c0,.186-.016.376,0,.562a1.239,1.239,0,0,0,.561,1.031,4.744,4.744,0,0,0,.688.4,1.576,1.576,0,0,0,2.116-1.086,1.469,1.469,0,0,0-.088-.958c-.2-.505-.059-.7.453-.615A2.352,2.352,0,0,0,327.3,167.538Z" transform="translate(-16.011 -1.408)"/><path d="M330.181,237.875a.637.637,0,0,1-.7.692.665.665,0,0,1-.7-.7.71.71,0,0,1,.6-.762A.845.845,0,0,1,330.181,237.875Z" transform="translate(-21.462 -37.384)"/><path d="M326.349,173.287c.1.155.231.318.084.507a.424.424,0,0,1-.556-.057,6.123,6.123,0,0,1-.827-1.009,6.462,6.462,0,0,1-.419-1.08c.076-.266.219-.364.435-.239a1.438,1.438,0,0,1,.421.407,1.854,1.854,0,0,1,.184.476,1.771,1.771,0,0,0,.516.823A.91.91,0,0,1,326.349,173.287Z" transform="translate(-19.407 -4.834)"/><path d="M317.089,185.939l-.556.135a1.959,1.959,0,0,0-1.027-1.214,1.64,1.64,0,0,0-2.2.9c-.078.27-.129.548-.192.82-.074.333-.212.4-.486.214a.87.87,0,0,1-.182-.147,1.006,1.006,0,0,0-1.073-.272,3.325,3.325,0,0,0-1.456.823,2.3,2.3,0,0,0-.868,1.569,2.27,2.27,0,0,0,.323,1.2c.016.026.031.051.047.075l-.5.282a2.707,2.707,0,0,1-.509-2.094,1.537,1.537,0,0,1,.776-1.25.947.947,0,0,0,.409-.372,1.185,1.185,0,0,1,.666-.547c.452-.19.866-.527,1.411-.441.263.024.568.137.774.039.18-.082.233-.416.365-.621a2.282,2.282,0,0,1,2.731-.844,2.447,2.447,0,0,1,1.358,1.281A3.991,3.991,0,0,1,317.089,185.939Z" transform="translate(-11.354 -11.113)"/><path d="M321.48,233.206a.468.468,0,0,1-.1.729,1.433,1.433,0,0,1-.317.2c-.343.147-.692.284-1.041.415a.37.37,0,0,1-.525-.225c-.1-.278-.163-.566-.241-.85,0-.245.029-.386.339-.386a1.637,1.637,0,0,0,.556-.226A1.06,1.06,0,0,1,321.48,233.206Zm-.692.32c.037-.018.061-.065.118-.129-.063-.031-.116-.084-.153-.075a2.363,2.363,0,0,0-.429.165,1.743,1.743,0,0,0-.269.21,1.415,1.415,0,0,0,.352,0A1.917,1.917,0,0,0,320.789,233.525Z" transform="translate(-16.744 -35.232)"/><path d="M298.018,175.582a2.287,2.287,0,0,1,.562,2.716,4.161,4.161,0,0,1-.952.8,1.523,1.523,0,0,1-.423.2c-.206.073-.206.18-.126.361a2.435,2.435,0,0,1,.274.784,3.109,3.109,0,0,1-.584,2.108,1.979,1.979,0,0,1-.944.678,3.019,3.019,0,0,1-1.769.043,5.97,5.97,0,0,1-1.181-.42,2.707,2.707,0,0,1-1.217-1.181,2.164,2.164,0,0,1-.139-.39c-.084-.337-.088-.32-.435-.308a5.744,5.744,0,0,1-1.114-.059,2.208,2.208,0,0,1-1.734-2.292,1.546,1.546,0,0,1,.6-1.4,2.173,2.173,0,0,0,.243-.278c.041-.045.067-.126.114-.141a3.938,3.938,0,0,1,1.358-.425.768.768,0,0,0,.323-.035.241.241,0,0,0,.1-.2.407.407,0,0,0-.106-.2,2.3,2.3,0,0,1,.741-3.1.936.936,0,0,1,.625-.12,6.551,6.551,0,0,1,2.284.65,1.882,1.882,0,0,1,1.064,1.4c.035.216.086.266.323.255A3.243,3.243,0,0,1,298.018,175.582Zm-.327,2.271c.415-.462.272-1.636-.323-1.848a1.369,1.369,0,0,0-1.213-.052c-.174.1-.345.206-.516.313a.432.432,0,0,1-.558.035,1.152,1.152,0,0,1-.447-1.309c.02-.076.045-.15.057-.227a.7.7,0,0,0-.4-.809,2.746,2.746,0,0,0-1.44-.4c-.9-.1-.983.176-1.228.746-.037.086-.073.173-.1.263a1.347,1.347,0,0,0,.662,1.785,2.067,2.067,0,0,1,.494.421.386.386,0,0,1,.039.337c-.026.063-.184.088-.286.1a1.585,1.585,0,0,1-.278-.035,4.4,4.4,0,0,0-1.977.272,1.671,1.671,0,0,0-.982,2.159.772.772,0,0,0,.541.533,2.3,2.3,0,0,0,1.834-.319.922.922,0,0,1,1.109.12.27.27,0,0,1,.067.372,3.106,3.106,0,0,0-.259.6.992.992,0,0,0,.441,1.258,2.541,2.541,0,0,0,1.779.437,1.947,1.947,0,0,0,1.467-.846,1.678,1.678,0,0,0,.108-1.988c-.161-.19-.323-.38-.474-.578-.179-.233-.12-.392.166-.474.135-.037.276-.053.41-.094A2.716,2.716,0,0,0,297.691,177.853Z" transform="translate(-1.384 -5.501)"/><path d="M299.589,182.36a3.431,3.431,0,0,1-.024.41.456.456,0,0,1-.413.388c-.206.043-.31-.067-.408-.229a.973.973,0,0,1-.172-.658,2.731,2.731,0,0,0-.615-2.092,1.031,1.031,0,0,1-.165-.407c-.03-.141.072-.2.2-.179a1.127,1.127,0,0,1,.678.376A3.432,3.432,0,0,1,299.589,182.36Z" transform="translate(-6.117 -8.909)"/></g></svg>