<svg xmlns="http://www.w3.org/2000/svg" width="40.999" height="40.078" viewBox="0 0 40.999 40.078"><defs><style>.a{fill:#fff;}.b{fill:#231f20;}.c{fill:#ffc31a;}.d{fill:#ff7171;}.e{fill:#6ffc00;}.f{fill:#66c600;}.g{fill:#b70000;}.h{fill:#f70000;}</style></defs><g transform="translate(-392.233 -419.115)"><g transform="translate(392.233 419.115)"><path class="a" d="M430.94,441.523h.411a1.512,1.512,0,0,0,.684-.152,1.79,1.79,0,0,0,.943-1.114l.318-1.086c-.709-1.274-1.307-2.344-1.327-2.378s-.157-.291-.3-.57l-.14-.292a5.081,5.081,0,0,0-2.076-2.595,3.415,3.415,0,0,0-1.558-.352h-.209c-.223.022-.4-.49-.477-.674s.151-.588.5-.9l.2-.494a3.13,3.13,0,0,0,.2-1.093,1.29,1.29,0,0,1,.083-.516A1.953,1.953,0,0,1,428.4,429a2.012,2.012,0,0,0,.476-1.879c-.3-1.159-1.371-1.823-2.949-1.823a6.011,6.011,0,0,0-1.171.116,5.745,5.745,0,0,1-.927.136h0c-.166,0-.193,0-.766-.555-.164-.158-.352-.34-.579-.549a17.069,17.069,0,0,0-18.458-3.68,12.682,12.682,0,0,0-7.2,6.348,20.744,20.744,0,0,0-1.627,4.883,5.391,5.391,0,0,0-.059.8l-.006.175c-.015.291-.088.531-.161.531l-.077,0-.082,0a1.692,1.692,0,0,1-.459-.13h-.234a1.655,1.655,0,0,1-.406-.055.245.245,0,0,0-.32.2,1.764,1.764,0,0,1-.174.547l-.019.161,0,.035a.241.241,0,0,1-.04.121.468.468,0,0,0-.031.222c0,.1.013.431.01.529a1.281,1.281,0,0,1-.2.434c-.056.068-.147.176-.2.24a.549.549,0,0,0-.111.266c-.007.083.134.829.313,1.656l.349.575a4.453,4.453,0,0,1,.44.852,2.129,2.129,0,0,0,.4.793c1.1,1.083,1.7,2.335,1.327,2.782l-.2.7a10.162,10.162,0,0,0-.235,3.208,2.915,2.915,0,0,0,.827,1.885,2.811,2.811,0,0,1,.361.482c.147.259.125.438.034.964a7.332,7.332,0,0,0-.122,1.01,12.7,12.7,0,0,0,.306,4.042c.853,2.727,3.735,3.516,5.828,3.873a27.118,27.118,0,0,0,4.536.362l2.8-.171,4.1-.5,2.8-.467,2.785-.574,8.437-3.645c1.381-.69,2.657-1.378,2.708-1.432s.591-1.259,1.2-2.678a7.81,7.81,0,0,0,.493-4.362,12.058,12.058,0,0,0-1.25-2.8l-.1-.174-.308-.516C430.242,441.558,430.46,441.368,430.94,441.523Z" transform="translate(-392.465 -419.343)"/><path class="b" d="M487.546,474.144l-.438-.008a.633.633,0,0,0-.305-.042.156.156,0,1,1-.06-.306.912.912,0,0,1,.438.043h.365a.156.156,0,0,1,0,.312Z" transform="translate(-448.683 -451.808)"/><path class="b" d="M491.017,472.407a.156.156,0,0,1-.088-.285,1.606,1.606,0,0,0,.576-.682.156.156,0,0,1,.285.127,1.914,1.914,0,0,1-.686.813A.156.156,0,0,1,491.017,472.407Z" transform="translate(-451.221 -450.355)"/><path class="b" d="M493.2,468.241a.166.166,0,0,1-.044-.006.157.157,0,0,1-.106-.194l.091-.311-.158-.283a.156.156,0,1,1,.272-.152l.221.4-.128.436A.156.156,0,0,1,493.2,468.241Z" transform="translate(-452.479 -447.883)"/><path class="b" d="M491.449,464.528a.155.155,0,0,1-.136-.08l-.42-.754a.156.156,0,0,1,.272-.152l.421.754a.156.156,0,0,1-.06.212A.153.153,0,0,1,491.449,464.528Z" transform="translate(-451.228 -445.638)"/><path class="b" d="M489.467,460.861a.156.156,0,0,1-.137-.082l-.183-.345-.171-.357a.156.156,0,1,1,.281-.135l.168.351.18.339a.156.156,0,0,1-.064.211A.162.162,0,0,1,489.467,460.861Z" transform="translate(-450.084 -443.48)"/><path class="b" d="M484.721,455.4a.156.156,0,0,1-.138-.083c-.114-.217-.222-.4-.333-.576a.156.156,0,0,1,.262-.169c.115.179.229.375.347.6a.156.156,0,0,1-.138.228Zm-.745-1.133a.155.155,0,0,1-.118-.054,3.391,3.391,0,0,0-.467-.449.156.156,0,0,1,.193-.246,3.738,3.738,0,0,1,.51.49.156.156,0,0,1-.118.258Zm-1.065-.826a.151.151,0,0,1-.066-.015,3.149,3.149,0,0,0-.609-.214.156.156,0,0,1,.072-.3,3.474,3.474,0,0,1,.67.236.156.156,0,0,1-.067.3Z" transform="translate(-445.991 -439.326)"/><path class="b" d="M479.592,452.627h-.007c-.057,0-.115,0-.173,0H479.2c-.22.021-.37-.234-.418-.318a.156.156,0,0,1,.27-.156c.085.148.136.162.136.162h.221c.063,0,.126,0,.187,0a.156.156,0,0,1-.007.312Z" transform="translate(-443.985 -438.826)"/><path class="b" d="M479.014,448.818a.156.156,0,0,1-.123-.252,2.257,2.257,0,0,1,.258-.281l.133-.328a.156.156,0,1,1,.289.117l-.16.395-.027.024a2.029,2.029,0,0,0-.247.263A.154.154,0,0,1,479.014,448.818Z" transform="translate(-444.042 -436.307)"/><path class="b" d="M398.9,431.721a.147.147,0,0,1-.033,0,.156.156,0,0,1-.12-.185c.054-.254.113-.51.176-.762a.156.156,0,1,1,.3.076c-.062.248-.121.5-.174.75A.156.156,0,0,1,398.9,431.721Zm32.828-1.485-.022,0a.156.156,0,0,1-.132-.176c.023-.166.031-.323.038-.462s.011-.223.022-.309a.156.156,0,1,1,.309.039c-.01.074-.014.166-.02.279-.007.151-.015.316-.041.5A.156.156,0,0,1,431.726,430.237Zm-32.452-.021a.162.162,0,0,1-.043-.006.156.156,0,0,1-.107-.193c.072-.249.149-.5.23-.747a.156.156,0,0,1,.3.1c-.08.243-.156.49-.227.736A.157.157,0,0,1,399.274,430.216ZM432.16,428.8a.156.156,0,0,1-.125-.249,2.158,2.158,0,0,0,.342-.634.156.156,0,0,1,.3.094,2.447,2.447,0,0,1-.389.726A.156.156,0,0,1,432.16,428.8Zm-32.4-.055a.152.152,0,0,1-.054-.01.156.156,0,0,1-.092-.2c.091-.245.187-.49.285-.727a.156.156,0,1,1,.288.12c-.1.234-.192.475-.281.716A.156.156,0,0,1,399.758,428.742Zm32.838-1.392a.156.156,0,0,1-.155-.139,2.157,2.157,0,0,0-.2-.69.156.156,0,1,1,.281-.136,2.419,2.419,0,0,1,.169.464,2.338,2.338,0,0,1,.061.328.156.156,0,0,1-.137.172Zm-32.243-.04a.156.156,0,0,1-.142-.222c.043-.093.088-.186.132-.277q.106-.216.217-.425a.156.156,0,1,1,.275.146q-.109.2-.211.416c-.044.09-.087.18-.129.272A.155.155,0,0,1,400.353,427.311Zm31.572-1.323a.155.155,0,0,1-.107-.043,2.317,2.317,0,0,0-.6-.4.156.156,0,1,1,.133-.282,2.638,2.638,0,0,1,.681.459.156.156,0,0,1-.107.269Zm-30.842-.045a.154.154,0,0,1-.082-.023.156.156,0,0,1-.051-.215c.137-.223.282-.443.432-.655a.156.156,0,0,1,.255.18c-.146.207-.288.421-.422.638A.155.155,0,0,1,401.083,425.942Zm26.388-.47h0c-.2,0-.29-.059-.726-.477a.156.156,0,1,1,.215-.225c.407.39.436.39.513.39a.156.156,0,0,1,0,.312Zm.768-.1a.156.156,0,0,1-.029-.309l.179-.035a6.015,6.015,0,0,1,.6-.089.156.156,0,1,1,.031.31c-.195.019-.387.048-.57.085l-.181.036A.151.151,0,0,1,428.24,425.372Zm2.311-.058a.152.152,0,0,1-.033,0,4.409,4.409,0,0,0-.743-.087.156.156,0,0,1,.011-.312,4.7,4.7,0,0,1,.8.094.156.156,0,0,1-.032.308Zm-28.572-.635a.156.156,0,0,1-.121-.254c.164-.2.337-.4.515-.593a.156.156,0,0,1,.228.212c-.173.186-.342.381-.5.578A.155.155,0,0,1,401.979,424.678Zm24.313-.176a.155.155,0,0,1-.107-.042l-.143-.133q-.213-.2-.428-.383a.156.156,0,0,1,.2-.235q.219.191.434.389l.145.135a.156.156,0,0,1-.106.27Zm-23.258-.96a.156.156,0,0,1-.107-.269c.188-.178.386-.353.588-.521a.156.156,0,1,1,.2.24c-.2.164-.391.335-.574.507A.155.155,0,0,1,403.034,423.542Zm22.088-.059a.155.155,0,0,1-.1-.035c-.2-.161-.4-.32-.607-.473a.156.156,0,1,1,.187-.25c.207.155.414.317.617.48a.156.156,0,0,1-.1.277Zm-1.242-.93a.156.156,0,0,1-.088-.028c-.209-.144-.424-.287-.642-.424a.156.156,0,0,1,.167-.264c.22.14.44.285.652.431a.156.156,0,0,1-.089.285Zm-19.653,0a.156.156,0,0,1-.092-.282c.207-.152.425-.3.647-.444a.156.156,0,1,1,.169.262c-.217.139-.43.285-.632.433A.153.153,0,0,1,404.227,422.551Zm18.342-.827a.151.151,0,0,1-.078-.021c-.222-.128-.449-.252-.675-.37a.156.156,0,0,1,.145-.277c.229.12.46.246.686.377a.156.156,0,0,1-.078.291Zm-17.039-.014a.156.156,0,0,1-.077-.291c.224-.128.457-.252.69-.37a.156.156,0,0,1,.14.279c-.229.116-.457.238-.677.363A.152.152,0,0,1,405.53,421.711Zm1.385-.7a.156.156,0,0,1-.064-.3c.234-.1.477-.207.721-.3a.156.156,0,0,1,.115.29c-.241.1-.479.2-.709.3A.149.149,0,0,1,406.915,421.012Zm14.279,0a.159.159,0,0,1-.066-.014c-.232-.109-.469-.213-.7-.31a.156.156,0,1,1,.119-.288c.24.1.48.205.717.316a.156.156,0,0,1-.066.3Zm-12.837-.567a.156.156,0,0,1-.051-.3c.247-.087.5-.168.743-.244a.156.156,0,0,1,.091.3c-.242.074-.488.154-.731.24A.156.156,0,0,1,408.356,420.44Zm11.4-.027a.153.153,0,0,1-.053-.009c-.242-.088-.487-.17-.729-.245a.156.156,0,0,1,.093-.3c.246.077.5.161.742.25a.156.156,0,0,1-.053.3Zm-9.921-.426a.156.156,0,0,1-.039-.307c.251-.066.507-.126.761-.181a.156.156,0,1,1,.066.305c-.25.053-.5.113-.748.178A.167.167,0,0,1,409.839,419.988Zm8.44-.035a.16.16,0,0,1-.039,0c-.248-.065-.5-.124-.748-.176a.156.156,0,0,1,.064-.305c.252.053.509.113.762.18a.156.156,0,0,1-.039.307Zm-6.923-.291a.156.156,0,0,1-.026-.31c.256-.043.516-.081.774-.113a.156.156,0,0,1,.038.309c-.254.031-.51.069-.76.111Zm5.406-.029-.025,0c-.252-.041-.508-.076-.761-.1a.156.156,0,1,1,.035-.31c.258.029.519.065.776.106a.156.156,0,0,1-.024.31Zm-3.866-.16a.156.156,0,0,1-.012-.311c.258-.02.521-.034.781-.042a.156.156,0,0,1,.01.312c-.256.008-.514.022-.767.041Zm2.325-.014h-.01c-.254-.017-.512-.027-.768-.032a.156.156,0,0,1-.153-.159.161.161,0,0,1,.159-.153c.26,0,.523.016.782.032a.156.156,0,0,1-.01.311Z" transform="translate(-396.126 -419.115)"/><path class="b" d="M396.236,452.9a1.764,1.764,0,0,1-.492-.13h-.2a1.859,1.859,0,0,1-.429-.056.156.156,0,1,1,.07-.3,1.56,1.56,0,0,0,.332.048h.284l.029.012a1.661,1.661,0,0,0,.4.118l.1,0a1.3,1.3,0,0,0,.069-.386l.014-.389a.156.156,0,0,1,.311.012l-.014.389c-.013.255-.071.678-.314.682l-.154.007Zm.149-.319h0Z" transform="translate(-393.887 -438.578)"/><path class="b" d="M393.643,455.713a.156.156,0,0,1-.156-.151v-.035a.563.563,0,0,1,.064-.324.139.139,0,0,0,.007-.029l.027-.239.014-.026a1.679,1.679,0,0,0,.125-.33.156.156,0,1,1,.3.08,2.02,2.02,0,0,1-.137.37l-.02.168a.384.384,0,0,1-.061.183.55.55,0,0,0-.009.135v.037a.156.156,0,0,1-.151.161Zm.153-.318h0Z" transform="translate(-392.982 -440.256)"/><path class="b" d="M392.436,460.243a.155.155,0,0,1-.153-.129,2.441,2.441,0,0,1-.05-.354v-.019a.694.694,0,0,1,.148-.356c.053-.062.143-.169.2-.237a.158.158,0,0,1,.219-.04.154.154,0,0,1,.04.215l-.016.021c-.057.07-.149.179-.2.244a.4.4,0,0,0-.074.177h0s0,.051.045.294a.156.156,0,0,1-.127.18Z" transform="translate(-392.233 -443.018)"/><path class="b" d="M393.25,464.564a.155.155,0,0,1-.133-.075l-.216-.355-.006-.025c-.028-.131-.055-.259-.081-.383a.156.156,0,1,1,.305-.064c.024.115.049.234.075.354l.188.311a.157.157,0,0,1-.133.237Z" transform="translate(-392.578 -445.683)"/><path class="b" d="M396.464,470.152a.155.155,0,0,1-.143-.093,4.229,4.229,0,0,0-.333-.6.156.156,0,0,1,.26-.171,4.5,4.5,0,0,1,.358.647.156.156,0,0,1-.08.205A.158.158,0,0,1,396.464,470.152Zm-.772-1.2a.156.156,0,0,1-.12-.056c-.147-.176-.306-.349-.474-.514a.156.156,0,0,1,.219-.222c.174.172.341.352.494.536a.156.156,0,0,1-.12.256Zm-.826-1.147a.156.156,0,0,1-.146-.1c-.021-.056-.043-.116-.064-.181a2.71,2.71,0,0,0-.209-.453.156.156,0,1,1,.272-.152,2.962,2.962,0,0,1,.232.506q.03.09.06.169a.156.156,0,0,1-.09.2A.149.149,0,0,1,394.866,467.807Z" transform="translate(-393.545 -447.659)"/><path class="b" d="M399.17,477.074a.152.152,0,0,1-.042-.006.157.157,0,0,1-.109-.192l.113-.408.021-.026a.4.4,0,0,0,.074-.265.156.156,0,0,1,.155-.157h0a.156.156,0,0,1,.156.155.717.717,0,0,1-.124.438l-.1.346A.156.156,0,0,1,399.17,477.074Z" transform="translate(-396.289 -453.15)"/><path class="b" d="M409.947,494.093a.156.156,0,0,1,0-.312h.129l.641-.039a.158.158,0,0,1,.165.146.156.156,0,0,1-.146.165l-.65.039Zm-.779-.013h0c-.262-.008-.526-.019-.783-.034a.156.156,0,0,1-.147-.164.153.153,0,0,1,.165-.147q.383.021.775.033a.156.156,0,0,1,0,.312Zm2.338-.074a.156.156,0,0,1-.009-.312l.779-.047a.158.158,0,0,1,.165.146.156.156,0,0,1-.146.165l-.779.047Zm-3.895-.014H407.6c-.261-.022-.523-.048-.781-.077a.156.156,0,1,1,.035-.31c.254.029.514.055.771.076a.156.156,0,0,1-.013.311Zm5.452-.092a.156.156,0,0,1-.019-.311l.774-.1a.153.153,0,0,1,.174.136.156.156,0,0,1-.136.174l-.774.1Zm-7-.086-.023,0q-.265-.039-.525-.083l-.25-.044a.156.156,0,0,1-.125-.182.155.155,0,0,1,.182-.125l.246.043q.256.043.518.082a.156.156,0,0,1-.023.31Zm8.549-.1a.156.156,0,0,1-.019-.311l.774-.095a.154.154,0,0,1,.174.136.156.156,0,0,1-.136.174l-.774.095Zm-10.083-.179a.149.149,0,0,1-.035,0c-.267-.062-.524-.129-.764-.2a.156.156,0,1,1,.089-.3c.234.07.484.135.745.2a.156.156,0,0,1-.035.308Zm11.631-.011a.156.156,0,0,1-.018-.311l.774-.1a.156.156,0,0,1,.038.309l-.774.1Zm1.544-.221a.156.156,0,0,1-.025-.31l.77-.128a.156.156,0,1,1,.051.307l-.77.128Zm-14.668-.218a.153.153,0,0,1-.056-.01c-.256-.1-.5-.207-.728-.321a.156.156,0,0,1,.14-.279c.218.11.454.214.7.309a.156.156,0,0,1-.056.3Zm16.208-.039a.156.156,0,0,1-.026-.31l.536-.09h0l.227-.047a.156.156,0,0,1,.063.305l-.23.047-.545.092Zm1.533-.295a.156.156,0,0,1-.031-.309l.764-.158a.156.156,0,0,1,.063.305l-.765.158A.163.163,0,0,1,420.775,492.747Zm1.528-.315a.156.156,0,0,1-.031-.309l.244-.051.457-.2a.156.156,0,1,1,.123.286l-.5.213-.26.054A.172.172,0,0,1,422.3,492.432Zm-20.658-.056a.154.154,0,0,1-.086-.026,5.548,5.548,0,0,1-.635-.49.156.156,0,1,1,.208-.232,5.255,5.255,0,0,0,.6.462.156.156,0,0,1-.087.286Zm22.107-.511a.156.156,0,0,1-.062-.3l.716-.309a.156.156,0,1,1,.123.287l-.716.309A.154.154,0,0,1,423.752,491.865Zm-23.259-.53a.155.155,0,0,1-.122-.059,4.589,4.589,0,0,1-.446-.671.156.156,0,1,1,.274-.149,4.332,4.332,0,0,0,.416.625.156.156,0,0,1-.122.253Zm24.691-.088a.156.156,0,0,1-.062-.3l.716-.309a.156.156,0,1,1,.124.286l-.716.309A.153.153,0,0,1,425.184,491.246Zm1.432-.619a.156.156,0,0,1-.062-.3l.716-.309a.156.156,0,1,1,.124.286l-.716.309A.159.159,0,0,1,426.616,490.627Zm1.432-.619a.156.156,0,0,1-.062-.3l.716-.309a.156.156,0,1,1,.123.286l-.716.309A.152.152,0,0,1,428.048,490.009Zm-28.3-.035a.156.156,0,0,1-.148-.106c-.014-.039-.026-.079-.039-.119a6.186,6.186,0,0,1-.164-.655.156.156,0,1,1,.306-.06,5.848,5.848,0,0,0,.156.622c.012.038.024.075.037.111a.156.156,0,0,1-.1.2A.158.158,0,0,1,399.751,489.974Zm29.73-.584a.156.156,0,0,1-.062-.3l.716-.309a.156.156,0,0,1,.124.286l-.716.31A.162.162,0,0,1,429.48,489.39Zm1.432-.619a.156.156,0,0,1-.062-.3l.089-.039.6-.3a.156.156,0,1,1,.141.278c-.2.1-.4.2-.611.308l-.1.042A.152.152,0,0,1,430.912,488.771Zm-31.473-.323a.156.156,0,0,1-.155-.14c-.025-.247-.043-.512-.053-.788a.156.156,0,0,1,.15-.162.152.152,0,0,1,.162.15c.01.269.027.528.052.768a.156.156,0,0,1-.139.171Zm32.865-.381a.156.156,0,0,1-.072-.294c.256-.133.489-.256.689-.363a.156.156,0,0,1,.147.275c-.2.108-.435.232-.692.365A.153.153,0,0,1,432.3,488.067Zm1.373-.744a.156.156,0,0,1-.084-.287h0c.022-.041.091-.178.293-.624a.156.156,0,0,1,.285.128,3.677,3.677,0,0,1-.348.711.294.294,0,0,1-.062.048A.156.156,0,0,1,433.678,487.324Zm-34.3-.434h0a.156.156,0,0,1-.154-.158c0-.277.01-.54.018-.784a.156.156,0,0,1,.312.011c-.008.241-.016.5-.019.776A.156.156,0,0,1,399.378,486.89Zm34.969-.971a.159.159,0,0,1-.063-.013.156.156,0,0,1-.08-.205c.1-.222.2-.462.312-.715a.156.156,0,0,1,.286.124c-.11.253-.215.494-.313.716A.155.155,0,0,1,434.346,485.92Zm-34.9-.587h-.02a.156.156,0,0,1-.135-.174c.025-.2.055-.376.083-.534.015-.09.029-.169.04-.241a.156.156,0,0,1,.308.047c-.011.073-.025.155-.041.247-.027.154-.057.329-.08.519A.156.156,0,0,1,399.447,485.332Zm35.517-.846a.164.164,0,0,1-.056-.01.157.157,0,0,1-.09-.2c.06-.154.15-.4.243-.728a.156.156,0,1,1,.3.087c-.1.334-.19.594-.251.753A.156.156,0,0,1,434.964,484.486Zm-35.488-.677a.156.156,0,0,1-.134-.076,2.806,2.806,0,0,0-.324-.424c-.047-.055-.1-.11-.143-.167a.156.156,0,0,1,.24-.2c.046.056.092.109.137.16a3.114,3.114,0,0,1,.359.472.156.156,0,0,1-.055.214A.158.158,0,0,1,399.476,483.809Zm35.922-.822a.165.165,0,0,1-.031,0,.156.156,0,0,1-.122-.184c.052-.257.092-.511.119-.756a.156.156,0,1,1,.31.033c-.027.255-.069.519-.123.785A.155.155,0,0,1,435.4,482.988Zm-36.826-.443a.156.156,0,0,1-.142-.091,3.083,3.083,0,0,1-.236-.784.156.156,0,1,1,.307-.052,2.776,2.776,0,0,0,.211.705.155.155,0,0,1-.076.207A.151.151,0,0,1,398.571,482.545Zm36.985-1.107a.156.156,0,0,1-.156-.154,4.953,4.953,0,0,0-.065-.752.156.156,0,1,1,.307-.052,5.274,5.274,0,0,1,.069.8.156.156,0,0,1-.154.158Zm-37.277-.414a.156.156,0,0,1-.156-.15c0-.133-.008-.272-.008-.414,0-.123,0-.249.006-.377a.156.156,0,1,1,.311.01c0,.124-.006.247-.006.367,0,.138,0,.273.007.4a.156.156,0,0,1-.15.162Zm37.016-1.117a.156.156,0,0,1-.148-.108c-.076-.232-.166-.474-.268-.719a.156.156,0,1,1,.288-.121c.106.252.2.5.277.743a.156.156,0,0,1-.1.2A.158.158,0,0,1,435.3,479.907Zm-36.966-.441h-.016a.156.156,0,0,1-.139-.171c.028-.279.067-.544.114-.786a.156.156,0,0,1,.306.061c-.046.232-.083.487-.11.757A.156.156,0,0,1,398.329,479.466Zm36.367-1a.156.156,0,0,1-.14-.086c-.108-.216-.227-.44-.363-.682a.156.156,0,1,1,.272-.152c.138.247.259.475.369.695a.156.156,0,0,1-.139.226Z" transform="translate(-395.752 -454.015)"/><path class="b" d="M486.6,475.062a.157.157,0,0,1-.134-.076l-.2-.335a.52.52,0,0,1-.055-.528.156.156,0,1,1,.27.156c-.011.019-.014.09.056.217l.2.329a.156.156,0,0,1-.054.214A.158.158,0,0,1,486.6,475.062Z" transform="translate(-448.411 -451.968)"/></g><path class="a" d="M437.163,461.629c.057.5-.092.669-.591.694-.182-.041-.365-.074-.544-.123l-.225-.062c-.224-.064-.447-.131-.67-.2a2.351,2.351,0,0,0-1.4.023,4.357,4.357,0,0,0-1.215.46.866.866,0,0,0-.43.619c-.012.086-.045.168-.057.256a.8.8,0,0,1-.611.683,2.962,2.962,0,0,1-1.1.176,4,4,0,0,0-1.609.262,2.4,2.4,0,0,1-.465.137,3.02,3.02,0,0,0-1.862,1.029,6.983,6.983,0,0,1-1.806,1.3,1,1,0,0,0-.591,1.029,6.813,6.813,0,0,0,.145.77c.184.812.381,1.623.554,2.439a1.976,1.976,0,0,1,.011.627,4.553,4.553,0,0,1-.466,1.753.648.648,0,0,1-.164.237,4.391,4.391,0,0,1-.586.323.528.528,0,0,1-.764-.215c-.156-.252-.275-.527-.413-.789a2.527,2.527,0,0,0-.172-.285c-.123-.172-.251-.338-.379-.507a1.651,1.651,0,0,0-.909-.6,2.158,2.158,0,0,0-.493-.072,1.164,1.164,0,0,0-.989.645,2.83,2.83,0,0,0-.43,1.067,1.535,1.535,0,0,1-1.424,1.311.984.984,0,0,1-.863-.271,3.744,3.744,0,0,1-.978-1.207,1.206,1.206,0,0,0-.415-.462.71.71,0,0,1-.323-.432,1.308,1.308,0,0,0-1.212-1.082c-.1-.019-.2-.037-.293-.051a1.159,1.159,0,0,0-.858.14,2.111,2.111,0,0,0-.566.683,4,4,0,0,1-.314.462c-.166.189-.237.165-.318-.07a1.053,1.053,0,0,0-.07-.212c-.072-.115-.136-.273-.244-.32a1.759,1.759,0,0,1-.674-.649,1.007,1.007,0,0,0-1.1-.368,1.23,1.23,0,0,0-.816.8,7.868,7.868,0,0,0-.42,2.225,1.925,1.925,0,0,1-.351,1.008.341.341,0,0,1-.451.133.948.948,0,0,1-.633-1.126,2.441,2.441,0,0,1,.076-.251,1.365,1.365,0,0,0-.025-1.017,1.726,1.726,0,0,1-.143-1.09.867.867,0,0,0-.246-.789,5.085,5.085,0,0,1-.421-.564,1.393,1.393,0,0,0-.767-.582,1.183,1.183,0,0,0-1.2.374c-.078.081-.15.168-.223.252a.73.73,0,0,1-1.242-.135,2.546,2.546,0,0,1-.295-1.3c.008-.418.084-.836.123-1.254a2.909,2.909,0,0,0,.017-.522,2.9,2.9,0,0,1,.129-1.031,1.307,1.307,0,0,1,.9-.973c.438-.131.9-.187,1.338-.318.295-.089.6-.131.9-.2a2.316,2.316,0,0,0,.683-.268.5.5,0,0,1,.346.017c.7.211,1.4.457,2.107.643a21.309,21.309,0,0,0,4.311.639c.995.051,1.993.081,2.988.058a18.667,18.667,0,0,0,2.114-.218,19.215,19.215,0,0,0,3.615-.9,15.033,15.033,0,0,0,2.579-1.263,11.514,11.514,0,0,0,1.106-.686,5.677,5.677,0,0,0,1.586-1.588,3.319,3.319,0,0,1,.354-.48,1.216,1.216,0,0,1,.508-.39.915.915,0,0,1,.1-.023.317.317,0,0,0,.106-.037,4.964,4.964,0,0,0,1.648-1.3c.115-.162.243-.317.356-.48a.9.9,0,0,1,.719-.463.933.933,0,0,0,.338-.152,5.98,5.98,0,0,1,1.864-.641,7.337,7.337,0,0,1,1.042-.089,1.294,1.294,0,0,1,1.327,1.081,1.575,1.575,0,0,0,.188.48c.416.71.836,1.418,1.271,2.115A2.727,2.727,0,0,1,437.163,461.629Zm-1.3,0c.257.01.37-.139.262-.307a.692.692,0,0,0-.337-.26,2.3,2.3,0,0,0-.618-.112.962.962,0,0,0-.393.084c-.068.027-.114.111-.17.17.055.047.1.117.166.134C435.151,461.444,435.535,461.54,435.862,461.626ZM434.81,459.2a1.019,1.019,0,0,0-.989-1,2.471,2.471,0,0,0-.526.25,6.129,6.129,0,0,0-.727.692c-.6.668-1.176,1.352-1.774,2.018-.225.25-.49.462-.725.7a.265.265,0,0,0-.075.217.32.32,0,0,0,.2.14.331.331,0,0,0,.217-.025,3.28,3.28,0,0,0,.677-.384,11.568,11.568,0,0,0,1-1c.373-.418.7-.878,1.079-1.288a6.788,6.788,0,0,1,.8-.661c.03-.025.09-.011.139-.014,0,.056.028.131,0,.167-.08.109-.184.2-.27.305-.209.26-.423.519-.613.794-.053.076-.028.207-.041.313a1.2,1.2,0,0,0,.29,0,2.385,2.385,0,0,0,1.237-.9A.6.6,0,0,0,434.81,459.2Zm-3.666,4.243c.028-.178-.128-.22-.254-.268a.373.373,0,0,0-.111-.012c-.448-.019-.893-.036-1.341-.053a2.932,2.932,0,0,0-1.332.3c-.064.028-.1.122-.145.186a1.023,1.023,0,0,0,.223.117.391.391,0,0,0,.179-.037,5.443,5.443,0,0,1,1.884-.164c.2.014.395.047.592.055C430.952,463.57,431.114,463.63,431.143,463.445Zm-5.831,2.3c.07-.184,0-.293-.174-.236-.46.15-.912.321-1.363.5-.131.051-.115.168-.009.229.165.095.348.162.522.242A1.587,1.587,0,0,0,425.312,465.746Zm-2,7.172c.1-.127.044-.254-.014-.382-.1-.225-.217-.445-.3-.675a1.857,1.857,0,0,0-.841-1.051c-.084-.047-.178-.076-.291-.125-.083.05-.191.082-.23.154-.027.048.038.153.074.226a.319.319,0,0,0,.108.1,1.7,1.7,0,0,1,.532.836,5.026,5.026,0,0,0,.213.592.984.984,0,0,0,.342.367A.3.3,0,0,0,423.31,472.918Zm-3.937-4.405c.146-.025.288-.1.279-.242a.437.437,0,0,0-.217-.27.534.534,0,0,0-.322-.047c-.586.081-1.172.165-1.754.268a2.87,2.87,0,0,0-.519.2c-.089.034-.095.084-.056.17a.574.574,0,0,0,.53.291l.092-.017c.376-.072.752-.143,1.127-.212C418.813,468.6,419.094,468.557,419.373,468.512Zm-1.789,5.21c.053-.066.027-.211,0-.312-.016-.061-.089-.117-.15-.156a1.213,1.213,0,0,1-.514-.9,1.733,1.733,0,0,0-1.53-1.461c-.03,0-.063-.011-.078,0-.084.061-.195.112-.242.2-.068.129.078.156.154.2a1.852,1.852,0,0,0,.236.111,1.116,1.116,0,0,1,.722.961,1.718,1.718,0,0,0,.537,1.082,1.908,1.908,0,0,0,.566.338A.316.316,0,0,0,417.584,473.722Zm-2.6-4.059a.25.25,0,0,0-.16-.332,1.261,1.261,0,0,0-.351-.092c-.371-.035-.744-.053-1.116-.08-.507-.036-1.015-.075-1.522-.113,0,.016,0,.03,0,.045-.373,0-.746-.006-1.12,0a.915.915,0,0,0-.256.09c.045.081.073.187.142.238a.711.711,0,0,0,.332.139c.259.027.522.02.783.033.569.026,1.14.048,1.709.09.419.03.839.089,1.258.133C414.808,469.833,414.935,469.807,414.98,469.663Zm-5.7-1.327c.044-.174-.069-.252-.209-.3a7.5,7.5,0,0,0-.75-.218c-1.008-.2-2.015-.409-3.028-.583a2.882,2.882,0,0,1-.992-.4c-.178-.107-.374-.184-.563-.274-.054.026-.115.039-.134.073a.163.163,0,0,0,.025.133.979.979,0,0,0,.143.168,2.729,2.729,0,0,0,1.391.748c.815.154,1.634.293,2.45.457.437.089.866.213,1.3.321C409.121,468.517,409.243,468.476,409.278,468.336Zm-1.508,4.624a2.133,2.133,0,0,0,.027-.335c-.025-.123-.055-.318-.108-.507a.238.238,0,0,0-.318-.178.232.232,0,0,0-.189.276c.022.234.037.469.051.7a.225.225,0,0,0,.228.24A.255.255,0,0,0,407.77,472.96Zm-.644-2.044c.036.009.117-.148.154-.2a2.175,2.175,0,0,0-.636-1.338,1.794,1.794,0,0,0-.527-.257.169.169,0,0,0-.148.07.215.215,0,0,0,.031.164.356.356,0,0,0,.109.1,1.765,1.765,0,0,1,.6,1.009c.022.084,0,.2.05.251A.939.939,0,0,0,407.127,470.915Z" transform="translate(-5.912 -22.534)"/><path class="c" d="M438.03,480.886a3.235,3.235,0,0,1-.028,1.3,8.952,8.952,0,0,1-.848,2.458,6.532,6.532,0,0,1-1.366,1.5c-.139.142-.266.34-.435.393a2.282,2.282,0,0,0-.535.318,18.982,18.982,0,0,1-2.737,1.433c-.792.32-1.628.537-2.447.788-1.093.335-2.2.6-3.32.856-1.174.265-2.338.576-3.515.825-.825.175-1.664.287-2.5.415-.7.107-1.4.209-2.1.29-.63.072-1.263.117-1.9.161q-1.136.082-2.274.139c-.348.017-.7,0-1.048,0a18.016,18.016,0,0,1-3.158-.271,8.206,8.206,0,0,1-1.876-.473,6.21,6.21,0,0,1-1.389-.714,3.144,3.144,0,0,1-1.054-1.633,9.786,9.786,0,0,1-.369-2.951c-.011-.484.057-.969.092-1.452.012-.168.078-.277.276-.273.221.006.445-.022.666-.015.473.012.945.056,1.418.048.2,0,.259.087.315.238a.88.88,0,0,1,.034.621c-.02.057-.034.119-.053.178a1.719,1.719,0,0,0,1.209,2.18.835.835,0,0,0,1.1-.694c.1-.562.186-1.127.278-1.69.042-.264.053-.284.282-.232.4.089.8.174,1.193.3.151.048.3.089.455.125a8.74,8.74,0,0,0,1.567.228l.178.011c.285.013.572.066.856.055.471-.017.942-.069,1.413-.109a1.645,1.645,0,0,1,.332-.037.526.526,0,0,1,.284.133c.342.344.668.706,1,1.054a2.052,2.052,0,0,0,2.935-.142,1.568,1.568,0,0,0,.328-.781.368.368,0,0,1,.34-.357,6.362,6.362,0,0,0,.873-.295l.288-.109c.427-.156.571-.1.766.31a2.9,2.9,0,0,0,.692,1.006,1.345,1.345,0,0,0,.794.337,1.725,1.725,0,0,0,1.867-1.37,9.645,9.645,0,0,0,.249-1.243,2.935,2.935,0,0,0-.051-.736,2.278,2.278,0,0,0-.106-.434.238.238,0,0,1,.153-.328c.429-.193.854-.4,1.285-.583.8-.346,1.633-.63,2.4-1.04.941-.507,1.831-1.108,2.732-1.686.535-.342,1.062-.7,1.572-1.078a4.2,4.2,0,0,0,1.218-1.248c.135-.236.182-.225.305.03a11.1,11.1,0,0,1,1.01,2.682C437.793,479.844,437.913,480.365,438.03,480.886Z" transform="translate(-7.717 -34.285)"/><path class="d" d="M467.484,472.613a.807.807,0,0,1-.09.429,3.616,3.616,0,0,1-1.107,1.434,28.394,28.394,0,0,1-4.647,2.969c-.621.31-1.286.529-1.932.789-.31.126-.619.256-.932.379-.248.1-.276.09-.343-.153-.139-.5-.265-1.01-.4-1.516a.61.61,0,0,1,.288-.738c.309-.187.61-.387.923-.565a2.612,2.612,0,0,0,.906-.815,3.671,3.671,0,0,1,1-.932.6.6,0,0,1,.309-.106,5.106,5.106,0,0,0,1.047-.215,14.012,14.012,0,0,1,1.43-.209c0,.033.009.066.014.1.39-.064.784-.114,1.17-.2a1.148,1.148,0,0,0,.95-1.061,1.046,1.046,0,0,1,.947-.839.246.246,0,0,1,.185.135A11.109,11.109,0,0,1,467.484,472.613Z" transform="translate(-39.339 -31.248)"/><path class="e" d="M457.776,438.063c.445.145.537.457.27.828a2.452,2.452,0,0,1-.259.32,1.661,1.661,0,0,0-.447,1.511,2.245,2.245,0,0,1-.055.7.45.45,0,0,1-.361.376c-.369.1-.725.259-1.094.37a2.342,2.342,0,0,0-1.358,1.049.981.981,0,0,0,.012.923.763.763,0,0,0,.9.275c.131-.039.257-.094.387-.133.03-.009.069.014.1.022-.011.033-.012.075-.034.1-.611.638-1.221,1.277-1.839,1.91-.165.168-.349.318-.525.477a2.643,2.643,0,0,1-1.656.683,1.094,1.094,0,0,1-1.088-.526,1.445,1.445,0,0,1-.128-.281c-.192-.558-.577-.834-1.341-.624a2.948,2.948,0,0,0-1.486,1.081c-.1.125-.187.266-.3.382a.962.962,0,0,1-.249.134,2.022,2.022,0,0,1-.025-.275c0-.059.044-.117.05-.178.047-.452-.041-.742-.515-.839-.231-.047-.466-.07-.753-.112a9.367,9.367,0,0,0-.978.192c-.28.086-.558.173-.836.265l-.088-.27c.733-.24,1.452-.52,2.171-.8.635-.251,1.268-.514,1.879-.815s1.17-.654,1.756-.978c.271-.15.563-.268.822-.435a8.491,8.491,0,0,0,.766-.591c.287-.236.547-.508.851-.717a2.508,2.508,0,0,0,.666-.636c.418-.6.867-1.184,1.264-1.8a6.678,6.678,0,0,0,.5-1.045.575.575,0,0,1,.393-.367,5.869,5.869,0,0,1,1.829-.318A3.179,3.179,0,0,1,457.776,438.063Z" transform="translate(-31.01 -11.241)"/><path class="f" d="M437.235,458.989c0,.047.006.1-.017.137a4.974,4.974,0,0,1-1.427,1.508.506.506,0,0,1-.218.1.08.08,0,0,1-.02,0,3.509,3.509,0,0,0-.9.086,3.375,3.375,0,0,1-.807-.079.529.529,0,0,1-.49-.463.879.879,0,0,0-.045-.145,1.182,1.182,0,0,0-.789-.643.806.806,0,0,0-.82.342,1.439,1.439,0,0,0-.34.967.682.682,0,0,1-.245.518,1.293,1.293,0,0,1-.908.451,1.091,1.091,0,0,1-.466-.072,2.147,2.147,0,0,0-.738-.236,2.86,2.86,0,0,1-.4-.092c-.209-.057-.217-.067-.1-.251a.356.356,0,0,0,.037-.351c-.17-.432-.373-.586-.943-.615a7.673,7.673,0,0,0-1.018.245c-.533.2-1.053.446-1.563.7a1.217,1.217,0,0,0-.614.766c-.092.3-.232.582-.307.883a.9.9,0,0,1-.864.7,1.9,1.9,0,0,1-1.238-.159.3.3,0,0,0-.43.067.57.57,0,0,1-.259.133q-.152.049-.3.089a9.139,9.139,0,0,1-3.01.236,2.7,2.7,0,0,1-.824-.22.9.9,0,0,1-.415-.351,3.792,3.792,0,0,0-1.244-1.266.9.9,0,0,1-.123-.119.524.524,0,0,1,.148-.089.933.933,0,0,1,.735.2c.249.165.5.324.753.486a1.671,1.671,0,0,0,.931.258,2.608,2.608,0,0,0,.289-.017c.479-.058.95-.183,1.425-.278a2.191,2.191,0,0,1,1.5.1,1.93,1.93,0,0,0,2.1-.532,8.663,8.663,0,0,1,1.243-1.233,6.7,6.7,0,0,1,1.486-.76,22.658,22.658,0,0,1,2.147-.75,3.535,3.535,0,0,1,1.068-.1c.338.008.388.112.281.43a.83.83,0,0,0,.006.721.564.564,0,0,0,.85.232,1.363,1.363,0,0,0,.613-.685,2.036,2.036,0,0,1,.739-.867,1.078,1.078,0,0,1,.884-.2.823.823,0,0,1,.432.262,3.06,3.06,0,0,1,.329.484c.033.056.064.114.094.172a1.2,1.2,0,0,0,1.219.628,2.573,2.573,0,0,0,1.742-.753,6.174,6.174,0,0,1,.672-.533A.416.416,0,0,1,437.235,458.989Z" transform="translate(-13.852 -23.698)"/><path class="c" d="M428.817,429.056a.363.363,0,0,1,.08.5c-.215.365-.418.739-.656,1.088-.342.5-.7.992-1.072,1.48a1.946,1.946,0,0,1-.346.334c-.716.572-1.433,1.145-2.157,1.709a10.128,10.128,0,0,1-2.528,1.421c-1.294.513-2.595,1.016-3.906,1.483a12.4,12.4,0,0,1-2.657.574c-.753.092-1.5.211-2.258.276-.508.045-1.021.023-1.533.03-.162,0-.324,0-.485,0a.376.376,0,0,0,0,.042c-.758-.039-1.517-.067-2.274-.116a35.7,35.7,0,0,1-4.416-.7c-.61-.117-1.209-.282-1.807-.447-.329-.09-.337-.139-.357-.477a8,8,0,0,1,.331-2.322,22.227,22.227,0,0,1,1.238-3.6,12.755,12.755,0,0,1,1.354-2.275,9.494,9.494,0,0,1,4.134-3.276,21.916,21.916,0,0,1,4.379-1.344,16.942,16.942,0,0,1,3.112-.334,12.454,12.454,0,0,1,2.6.284,11.475,11.475,0,0,1,2.32.7,13.654,13.654,0,0,1,1.488.78,21.2,21.2,0,0,1,3.579,2.436C427.6,427.871,428.2,428.475,428.817,429.056Zm-5.419.331a.614.614,0,0,0,.028-.953,2.684,2.684,0,0,0-1.407-.663c-.184.059-.368.123-.555.179a.223.223,0,0,0-.147.351,2.875,2.875,0,0,0,.8,1.145A.929.929,0,0,0,423.4,429.387Zm-.457-2.67c.443-.081.574-.368.359-.762a1.393,1.393,0,0,0-1.045-.75c-.4-.064-.781-.184-1.188-.209s-.543.07-.544.485a.654.654,0,0,0,.215.459,2.791,2.791,0,0,0,1.9.8A2.559,2.559,0,0,0,422.941,426.717Zm-3.474,5.966a.971.971,0,0,0,.645-.875,1.592,1.592,0,0,0-.514-1.157c-.287-.236-.585-.2-.735.126a5.953,5.953,0,0,0-.337,1.02.634.634,0,0,0,.211.611A.751.751,0,0,0,419.467,432.684Zm.458-3.236a.463.463,0,0,0,.041-.585,1.429,1.429,0,0,0-1.221-.737.937.937,0,0,0-.221.017.816.816,0,0,0-.3,1.422A1.208,1.208,0,0,0,419.925,429.448Zm-.516-2.492a.418.418,0,0,0,.113-.473,1.415,1.415,0,0,0-.764-.912c-.168-.075-.318-.193-.483-.279a1.319,1.319,0,0,0-.377-.145.353.353,0,0,0-.434.344c-.011.074-.012.148-.019.223a.407.407,0,0,0-.045.016c.092.305.161.621.281.917A1.061,1.061,0,0,0,419.409,426.956Zm-3.415,4.19a1.073,1.073,0,0,0,.893-1.079,5.5,5.5,0,0,0-.1-.736.887.887,0,0,0-.4-.641c-.245-.14-.285-.158-.468.048a2.714,2.714,0,0,0-.622,1.619C415.3,430.94,415.573,431.229,415.994,431.146Zm.742-6.649a.759.759,0,0,0-1.012-.756,1.238,1.238,0,0,0-.809,1.187c0,.49.313.786.748.663a1.623,1.623,0,0,0,.8-.46A1.065,1.065,0,0,0,416.736,424.5Zm-2.777,3.555a.569.569,0,0,0,.389-.541,4.678,4.678,0,0,0-.078-.772c-.057-.29-.162-.572-.232-.861a.873.873,0,0,0-.382-.564c-.187-.12-.31-.125-.44.055a.988.988,0,0,0-.173.366c-.076.364-.129.731-.192,1.1a1.265,1.265,0,0,0,.516,1.111A.558.558,0,0,0,413.959,428.052Zm-.479,6.9a.693.693,0,0,0,.387-.919c-.127-.27-.27-.53-.421-.787a.587.587,0,0,0-.231-.231.285.285,0,0,0-.264.031,1.949,1.949,0,0,0-.53,1.106,2.323,2.323,0,0,0,.178.519A.612.612,0,0,0,413.48,434.95Zm-3.346-2.127a1.274,1.274,0,0,0,.84-1.163c-.03-.3-.045-.56-.087-.816a1.826,1.826,0,0,0-.15-.5q-.159-.33-.443-.084a5.073,5.073,0,0,0-.524.527,2.066,2.066,0,0,0-.452,1.5A.572.572,0,0,0,410.134,432.822Zm-.663-5.918c-.011-.212-.023-.423-.033-.633-.008-.192-.17-.242-.3-.288s-.171.078-.224.182a1.561,1.561,0,0,1-.245.32c-.206.234-.437.447-.621.7a1.735,1.735,0,0,0-.379,1.073c.016.53.427.729.883.451A1.939,1.939,0,0,0,409.471,426.9Zm-3.577,6.224a1.153,1.153,0,0,0,.576-1.16,5.126,5.126,0,0,0-.236-.783.321.321,0,0,0-.413-.218,1.463,1.463,0,0,0-1.072,1.36c0,.05,0,.1,0,.148A.755.755,0,0,0,405.893,433.128Z" transform="translate(-6.102 -2.385)"/><path class="g" d="M445.835,464.617c.156-.009.217.067.128.2-.2.3-.415.589-.629.878-.095.129-.2.248-.307.371a.431.431,0,0,1-.095.107c-.758.449-1.516.9-2.277,1.343a16.2,16.2,0,0,1-5.271,1.814c-.744.139-1.5.174-2.121.243-.458.011-.463.012-.586-.306-.09-.231-.165-.468-.252-.7-.06-.159-.009-.223.159-.242.606-.065,1.213-.134,1.818-.215.725-.1,1.457-.181,2.174-.323a18.719,18.719,0,0,0,3.325-.981,4.331,4.331,0,0,0,1.241-.668c.212-.181.51-.26.733-.432.354-.273.672-.591,1.017-.876a.828.828,0,0,1,.351-.167A4.609,4.609,0,0,1,445.835,464.617Z" transform="translate(-25.22 -27.214)"/><path class="h" d="M439.253,462.157c.089.513.093.518-.332.833-.41.3-.819.61-1.248.886a10.833,10.833,0,0,1-3.423,1.347c-.725.173-1.452.343-2.184.477-.549.1-1.109.146-1.665.2-.767.074-1.538.131-2.308.195l-.111.008c0-.008,0-.014,0-.022q-.781.021-1.563.041a1.361,1.361,0,0,1-.3-.008,1.384,1.384,0,0,1-.257-.109,1.084,1.084,0,0,1,.262-.069,3.891,3.891,0,0,0,1.263-.235c.075-.027.15-.055.223-.086a1.234,1.234,0,0,1,.889-.031,2.358,2.358,0,0,0,1.471.022,1.35,1.35,0,0,0,1-.866,2.1,2.1,0,0,1,1.379-1.319,11.3,11.3,0,0,1,1.246-.381c.156-.045.242,0,.31.165a1.818,1.818,0,0,0,.309.457.494.494,0,0,0,.474.161,1.892,1.892,0,0,1,1.268.156.962.962,0,0,0,.468.037c.147-.008.293-.058.441-.07a1.416,1.416,0,0,0,1.017-.742,1.53,1.53,0,0,0,.128-.423,4.843,4.843,0,0,1,.254-.733.56.56,0,0,1,.664-.292.389.389,0,0,1,.276.207.379.379,0,0,1,.039.119C439.247,462.107,439.248,462.132,439.253,462.157Z" transform="translate(-20.113 -25.491)"/><path class="a" d="M452.031,436.224a.2.2,0,0,1,.133.265.881.881,0,0,1-.691.471,1.506,1.506,0,0,1-.3-.159.836.836,0,0,1-.227-.289c-.058-.126-.143-.348-.1-.391a.59.59,0,0,1,.437-.129A4.43,4.43,0,0,1,452.031,436.224Z" transform="translate(-35.052 -10.09)"/><path class="a" d="M450.269,429.3a3.1,3.1,0,0,1,.253.345l-.37.14c-.377-.1-.753-.178-1.112-.3a1.122,1.122,0,0,1-.395-.324c-.042-.045-.03-.156-.014-.231a.267.267,0,0,1,.181-.014,6.216,6.216,0,0,0,1.254.306A.355.355,0,0,1,450.269,429.3Z" transform="translate(-33.722 -5.852)"/><path class="a" d="M447.595,495.082c.1.066.109.168-.039.212-.106.03-.215.048-.323.075l-.176.042c-.181.047-.363.092-.546.133a.636.636,0,0,1-.178-.011.734.734,0,0,1,.043-.175.863.863,0,0,1,.76-.514A4.176,4.176,0,0,1,447.595,495.082Z" transform="translate(-32.356 -45.292)"/><path class="a" d="M444.035,442.79a.8.8,0,0,1-.114,1.152c-.184.117-.343.041-.371-.179a1.253,1.253,0,0,1,0-.15l-.05-.02c.109-.26.212-.522.328-.78C443.873,442.711,443.951,442.711,444.035,442.79Z" transform="translate(-30.662 -14.126)"/><path class="a" d="M443.08,437.1a.2.2,0,0,1-.017.367,4.206,4.206,0,0,1-.516.232c-.429.01-.656-.19-.594-.452a.346.346,0,0,1,.2-.226,2.633,2.633,0,0,1,.629-.041A.547.547,0,0,1,443.08,437.1Z" transform="translate(-29.731 -10.686)"/><path class="e" d="M415.023,458.177l.088.27a17.142,17.142,0,0,0-2.433,1,6.146,6.146,0,0,0-1.449,1.227,8,8,0,0,1-.611.543,1.252,1.252,0,0,1-1.3.17,3.214,3.214,0,0,0-1.946,0c-.36.091-.723.17-1.092.229a1.385,1.385,0,0,1-.209.017,1.763,1.763,0,0,1-.981-.359c-.145-.1-.285-.2-.429-.3a1.27,1.27,0,0,0-1.188-.252c-.352.117-.72.187-1.073.305a4.832,4.832,0,0,0-1.324.827,6.026,6.026,0,0,1-2.152,1.165,1.565,1.565,0,0,1-1.9-.84,3.544,3.544,0,0,1-.213-.789,1.956,1.956,0,0,0-.869-1.374c-.574-.4-.568-.512-.1-1.045.065-.075.14-.142.206-.217a.615.615,0,0,0,.192-.61.524.524,0,0,1-.012-.148c0-.4.087-.46.477-.416a5.647,5.647,0,0,0,.7.016c.078,0,.158,0,.236,0a.562.562,0,0,1,.242.034,8.283,8.283,0,0,0,2.44.785c1.282.246,2.57.465,3.858.674a22.383,22.383,0,0,0,3.654.164,32.013,32.013,0,0,0,4.529-.42A15.872,15.872,0,0,0,415.023,458.177Z" transform="translate(-1.952 -22.999)"/><path class="a" d="M442.093,430.411a.245.245,0,0,1-.115.43.742.742,0,0,1-.536-.147,1.434,1.434,0,0,1-.212-.579c-.008-.028.039-.072.084-.146A5.73,5.73,0,0,1,442.093,430.411Z" transform="translate(-29.303 -6.492)"/><path class="a" d="M436.284,439.281a.882.882,0,0,1-.349.776c-.151.1-.323.03-.287-.12a8.65,8.65,0,0,1,.305-1.023c.056-.151.168-.14.229.009A2.731,2.731,0,0,1,436.284,439.281Z" transform="translate(-25.963 -11.777)"/><path class="a" d="M435.479,426.048c.037.028.031.167,0,.232a1.048,1.048,0,0,1-.619.531c-.036-.059-.094-.114-.1-.17a.911.911,0,0,1,.446-.644A.368.368,0,0,1,435.479,426.048Z" transform="translate(-25.436 -4.112)"/><path class="a" d="M433.006,474.99c.037.1.1.225-.05.282a.251.251,0,0,1-.318-.121.4.4,0,0,1-.049-.14c-.041-.256-.076-.513-.117-.8l.075-.129c.056.036.143.057.164.106C432.819,474.454,432.911,474.722,433.006,474.99Z" transform="translate(-24.067 -32.877)"/><path class="d" d="M429.376,494.645c.117.192.111.264-.114.292-.4.051-.813.076-1.218.111-.061,0-.125,0-.186,0v-.019c-.285,0-.571.006-.856,0-.117,0-.164-.087-.08-.175a1.66,1.66,0,0,0,.351-.767.854.854,0,0,1,.911-.669h.033a1.033,1.033,0,0,1,.914.7A2.547,2.547,0,0,0,429.376,494.645Z" transform="translate(-20.722 -44.438)"/><path class="g" d="M418.057,471.914c.027.15.006.248-.181.232-.1-.009-.2,0-.3,0a.208.208,0,0,1,0,.031c-.939-.108-1.879-.2-2.815-.328-.664-.092-1.324-.22-1.982-.354a14.376,14.376,0,0,1-2.793-.923c-.309-.133-.622-.254-.926-.4-.154-.07-.158-.142,0-.224a8.129,8.129,0,0,1,2.342-1.039.761.761,0,0,1,.879.394,2.115,2.115,0,0,0,1.249,1.053c.162.056.3.175.459.242a2.928,2.928,0,0,0,1.26.3,2.939,2.939,0,0,1,.591.075,9.018,9.018,0,0,0,1.641,0c.4-.008.441.027.5.422C418.006,471.571,418.026,471.744,418.057,471.914Z" transform="translate(-9.992 -29.771)"/><path class="a" d="M429.856,430.98a1.982,1.982,0,0,1,.195.971.284.284,0,0,1-.142.184c-.031.016-.143-.055-.167-.109a2.852,2.852,0,0,1-.117-.367c.036-.254.061-.451.09-.646.006-.033.031-.078.055-.084A.1.1,0,0,1,429.856,430.98Z" transform="translate(-22.364 -7.066)"/><path class="a" d="M429.086,449.931a.443.443,0,0,1-.343.388.211.211,0,0,1-.158-.059.8.8,0,0,1,.067-.806.3.3,0,0,1,.062-.038l.036.006A.732.732,0,0,1,429.086,449.931Z" transform="translate(-21.694 -18.123)"/><path class="d" d="M420.872,494.189l.07.159c-.056.016-.113.035-.168.047a.516.516,0,0,1-.1,0c-.027,0-.068-.006-.112-.014l-.044-.011c-.535-.156-1.07-.31-1.6-.474-.307-.094-.32-.125-.244-.421a1.1,1.1,0,0,1,.834-.857.655.655,0,0,1,.154-.023c.111,0,.17.058.218.209a1.01,1.01,0,0,0,.65.752c.08.028.125.172.175.269C420.766,493.943,420.816,494.068,420.872,494.189Z" transform="translate(-15.789 -43.949)"/><path class="a" d="M421.294,442.908a.916.916,0,0,1-.265,1.186.3.3,0,0,1-.234.042c-.058-.03-.075-.139-.094-.176a1.94,1.94,0,0,1,.387-1.042C421.149,442.849,421.219,442.792,421.294,442.908Z" transform="translate(-17.026 -14.19)"/><path class="a" d="M417.37,432.343a.367.367,0,0,1,.008.111,1.354,1.354,0,0,1-.677,1.2.262.262,0,0,1-.2.021c-.028-.01-.05-.114-.036-.166a1.978,1.978,0,0,1,.636-1.257c.058-.039.12-.07.181-.106C417.312,432.215,417.347,432.278,417.37,432.343Z" transform="translate(-14.491 -7.796)"/><path class="d" d="M408.03,490.565c-.009.122-.009.159-.017.2-.033.17-.016.4-.12.491s-.317.027-.483.022c-.5-.017-.992-.045-1.489-.057-.169,0-.284-.042-.329-.225a1.305,1.305,0,0,1-.033-.185.346.346,0,0,1,.143-.336c.206-.176.395-.373.591-.56a3.624,3.624,0,0,1,.43-.407.584.584,0,0,1,.328-.113.563.563,0,0,1,.49.367c.092.186.232.346.343.524C407.95,490.392,408,490.513,408.03,490.565Z" transform="translate(-7.968 -42.032)"/><path class="a" d="M410.141,444.893a.683.683,0,0,1-.337.561.245.245,0,0,1-.39-.167,1.021,1.021,0,0,1,.4-.836c.1-.056.17-.05.209.055C410.072,444.633,410.1,444.764,410.141,444.893Z" transform="translate(-10.273 -15.133)"/><path d="M436.651,441.206a.555.555,0,0,1-.494.568,1.719,1.719,0,0,1-.848-.042c-.257-.069-.513-.147-.77-.221l.126-.44.225.062c.179.05.362.083.544.123.5-.025.649-.19.591-.694a2.726,2.726,0,0,0-.384-1.161c-.435-.7-.854-1.405-1.271-2.115a1.575,1.575,0,0,1-.189-.48,1.294,1.294,0,0,0-1.327-1.081,7.341,7.341,0,0,0-1.042.089,5.981,5.981,0,0,0-1.864.641.933.933,0,0,1-.338.152.9.9,0,0,0-.719.463c-.113.164-.24.318-.356.48a4.965,4.965,0,0,1-1.648,1.3.318.318,0,0,1-.106.037.927.927,0,0,0-.1.023l-.192-.415a.505.505,0,0,0,.218-.1,4.975,4.975,0,0,0,1.427-1.508c.024-.034.012-.09.017-.137a.415.415,0,0,0-.159.031,6.162,6.162,0,0,0-.672.533,2.573,2.573,0,0,1-1.742.753,1.2,1.2,0,0,1-1.219-.628c-.03-.058-.061-.115-.094-.172l.221-.106a1.094,1.094,0,0,0,1.088.526,2.642,2.642,0,0,0,1.656-.683c.176-.159.36-.309.525-.477.618-.633,1.227-1.272,1.839-1.91.022-.023.023-.066.034-.1-.034-.008-.073-.031-.1-.022-.129.039-.256.094-.387.133a.763.763,0,0,1-.9-.275.981.981,0,0,1-.012-.923,2.342,2.342,0,0,1,1.358-1.049c.369-.111.725-.265,1.094-.37a.45.45,0,0,0,.361-.376,2.244,2.244,0,0,0,.055-.7,1.661,1.661,0,0,1,.447-1.511,2.449,2.449,0,0,0,.259-.32c.267-.371.175-.683-.27-.828a3.173,3.173,0,0,0-.8-.149,5.865,5.865,0,0,0-1.829.318.575.575,0,0,0-.393.367,6.679,6.679,0,0,1-.5,1.045c-.4.616-.846,1.2-1.264,1.8a2.509,2.509,0,0,1-.666.636c-.3.209-.564.482-.851.717a8.486,8.486,0,0,1-.766.591c-.259.167-.551.285-.822.435-.586.324-1.155.682-1.756.978s-1.244.565-1.879.815c-.719.284-1.438.563-2.171.8a15.877,15.877,0,0,1-2.669.658,32.012,32.012,0,0,1-4.529.42,22.382,22.382,0,0,1-3.654-.164c-1.288-.209-2.576-.427-3.858-.674a8.281,8.281,0,0,1-2.44-.784.563.563,0,0,0-.242-.034c-.078,0-.157,0-.236,0l0-.314c.154,0,.215-.053.212-.24a13.438,13.438,0,0,1,.781-4.131,15.217,15.217,0,0,1,1.688-3.855,10.3,10.3,0,0,1,3.791-3.615,18.792,18.792,0,0,1,3.214-1.4,18.484,18.484,0,0,1,3.259-.772,16.067,16.067,0,0,1,2.793-.164,13.26,13.26,0,0,1,4.853,1.083,23.384,23.384,0,0,1,2.072,1.114,18.933,18.933,0,0,1,3.969,3.027c.326.326.661.641.989.965a.468.468,0,0,0,.533.12,9.67,9.67,0,0,1,1.686-.427,2.4,2.4,0,0,1,2.261.778.994.994,0,0,1,.147,1.115,5.066,5.066,0,0,1-.572.781.905.905,0,0,0-.253.813,2.342,2.342,0,0,1-.126,1.141.716.716,0,0,1-.395.471c-.34.149-.678.307-1.026.44a2.505,2.505,0,0,0-1.037.566.792.792,0,0,0-.117.143c-.008.016.05.09.061.088a2.294,2.294,0,0,0,.276-.109c.237-.111.468-.234.708-.334a.828.828,0,0,1,.8.248.528.528,0,0,1,.073.684c-.2.3-.405.6-.6.9a2.546,2.546,0,0,0-.153.324,1.845,1.845,0,0,0,.387-.045,7.259,7.259,0,0,1,2.354-.313,1.68,1.68,0,0,1,.73.26,2.093,2.093,0,0,1,1.174,1.324,7.811,7.811,0,0,0,.918,1.706,6.532,6.532,0,0,1,.841,1.7A5.452,5.452,0,0,1,436.651,441.206Zm-9.082-12.569a.363.363,0,0,0-.08-.5c-.617-.582-1.213-1.185-1.845-1.751a21.194,21.194,0,0,0-3.579-2.436,13.643,13.643,0,0,0-1.488-.78,11.479,11.479,0,0,0-2.32-.7,12.46,12.46,0,0,0-2.6-.284,16.939,16.939,0,0,0-3.112.334,21.919,21.919,0,0,0-4.379,1.344,9.494,9.494,0,0,0-4.134,3.276,12.758,12.758,0,0,0-1.354,2.275,22.234,22.234,0,0,0-1.238,3.6,8.006,8.006,0,0,0-.331,2.322c.02.338.028.387.357.477.6.165,1.2.33,1.807.447a35.69,35.69,0,0,0,4.416.7c.756.049,1.516.077,2.274.116a.375.375,0,0,1,0-.042c.161,0,.323,0,.485,0,.512-.006,1.024.016,1.533-.03.755-.066,1.5-.184,2.258-.276a12.4,12.4,0,0,0,2.657-.574c1.311-.466,2.612-.97,3.906-1.483a10.127,10.127,0,0,0,2.528-1.421c.723-.565,1.441-1.137,2.157-1.709a1.949,1.949,0,0,0,.346-.334c.367-.488.73-.976,1.072-1.48C427.151,429.376,427.354,429,427.569,428.637Z" transform="translate(-4.774 -1.466)"/><path d="M438.021,476.286a.446.446,0,0,1-.039.356c-.206.212-.149.46-.162.7a9.612,9.612,0,0,1-.077,1.04,8.137,8.137,0,0,1-.642,2.135,3.439,3.439,0,0,1-.7,1.052,10.693,10.693,0,0,1-2.085,1.681,17.349,17.349,0,0,1-3.7,1.748c-1.123.324-2.25.631-3.378.947-.382.106-.768.2-1.151.31a49.686,49.686,0,0,1-5.059,1.127c-.525.092-1.062.122-1.594.182-.148.017-.293.047-.441.067-.7.1-1.4.232-2.107.284-1.427.1-2.858.2-4.288.226a18.109,18.109,0,0,1-2.642-.192,21.935,21.935,0,0,1-2.562-.477,5.448,5.448,0,0,1-2.589-1.424,3.952,3.952,0,0,1-.739-.967,3.361,3.361,0,0,1-.256-1.048,18.528,18.528,0,0,1-.165-3.543,3.405,3.405,0,0,1,.263-1.346.489.489,0,0,0,.037-.289l.454-.031a1.306,1.306,0,0,0,.033.185c.045.182.16.22.329.225.5.012.993.041,1.489.057.167,0,.393.063.484-.022s.087-.321.12-.491c.008-.037.008-.075.017-.2-.027-.051-.08-.173-.147-.282-.111-.178-.251-.338-.343-.524a.563.563,0,0,0-.49-.367l.087-.368a1.392,1.392,0,0,1,.767.582,5.088,5.088,0,0,0,.421.564.867.867,0,0,1,.246.789,1.727,1.727,0,0,0,.143,1.09,1.365,1.365,0,0,1,.025,1.017,2.453,2.453,0,0,0-.076.251.948.948,0,0,0,.633,1.126.341.341,0,0,0,.451-.133,1.925,1.925,0,0,0,.351-1.008,7.867,7.867,0,0,1,.42-2.225,1.23,1.23,0,0,1,.815-.8,1.035,1.035,0,0,1,.688.037l-.182.369a.653.653,0,0,0-.154.023,1.1,1.1,0,0,0-.834.857c-.076.3-.064.327.243.421.532.164,1.066.318,1.6.474l.044.011-.083.332c-.153-.036-.3-.076-.455-.125-.391-.122-.792-.207-1.193-.3-.229-.051-.24-.031-.282.232-.092.563-.175,1.129-.278,1.69a.835.835,0,0,1-1.1.694,1.719,1.719,0,0,1-1.209-2.18c.019-.059.033-.12.053-.178a.88.88,0,0,0-.034-.621c-.056-.151-.115-.24-.315-.238-.473.008-.945-.036-1.418-.048-.221-.006-.444.022-.666.015-.2,0-.264.1-.276.273-.034.484-.1.969-.092,1.452a9.786,9.786,0,0,0,.369,2.95,3.144,3.144,0,0,0,1.054,1.633,6.214,6.214,0,0,0,1.389.714,8.208,8.208,0,0,0,1.876.473,18.013,18.013,0,0,0,3.158.271c.349,0,.7.014,1.048,0q1.137-.056,2.274-.139c.633-.044,1.266-.089,1.9-.161.7-.081,1.4-.182,2.1-.29.836-.128,1.675-.24,2.5-.415,1.177-.249,2.341-.56,3.515-.825,1.116-.251,2.227-.521,3.32-.856.819-.251,1.655-.468,2.447-.788a18.982,18.982,0,0,0,2.737-1.433,2.281,2.281,0,0,1,.535-.318c.168-.053.3-.251.435-.393a6.531,6.531,0,0,0,1.366-1.5,8.953,8.953,0,0,0,.848-2.458,3.236,3.236,0,0,0,.028-1.3c-.117-.521-.237-1.042-.343-1.566a11.1,11.1,0,0,0-1.01-2.682c-.123-.254-.17-.265-.305-.03a4.2,4.2,0,0,1-1.218,1.247c-.51.377-1.037.736-1.572,1.078-.9.577-1.792,1.179-2.732,1.686-.764.41-1.6.694-2.4,1.04-.43.187-.856.39-1.285.583a.238.238,0,0,0-.153.328,2.283,2.283,0,0,1,.106.434,2.935,2.935,0,0,1,.051.736,9.646,9.646,0,0,1-.249,1.243,1.725,1.725,0,0,1-1.867,1.371,1.345,1.345,0,0,1-.794-.337,2.9,2.9,0,0,1-.692-1.006c-.195-.41-.338-.466-.766-.31l-.288.109-.1-.406.176-.042c.107-.026.217-.045.323-.075.148-.044.142-.147.039-.212a4.164,4.164,0,0,0-.459-.238l.151-.423a1.651,1.651,0,0,1,.909.6c.128.168.256.335.379.507a2.531,2.531,0,0,1,.172.285c.139.262.257.537.413.789a.528.528,0,0,0,.764.215,4.392,4.392,0,0,0,.586-.323.648.648,0,0,0,.164-.237,4.555,4.555,0,0,0,.466-1.753,1.975,1.975,0,0,0-.011-.627c-.173-.815-.37-1.627-.554-2.439a6.812,6.812,0,0,1-.145-.77,1,1,0,0,1,.591-1.029,6.986,6.986,0,0,0,1.806-1.3,3.019,3.019,0,0,1,1.862-1.029,2.411,2.411,0,0,0,.465-.137,4,4,0,0,1,1.609-.262,2.963,2.963,0,0,0,1.1-.176.8.8,0,0,0,.611-.683c.012-.088.045-.17.057-.256a.866.866,0,0,1,.43-.619,4.355,4.355,0,0,1,1.215-.46,2.351,2.351,0,0,1,1.4-.023c.223.065.446.133.67.2l-.126.44c-.16-.045-.323-.09-.485-.131a2.343,2.343,0,0,0-.591-.054c-.189,0-.225.065-.159.232a10.777,10.777,0,0,0,.887,2.012c.12.187.19.406.293.6a1.029,1.029,0,0,0,.225.337,1.131,1.131,0,0,1,.393.655,7.9,7.9,0,0,0,.56,1.5A5.091,5.091,0,0,1,438.021,476.286Zm-3.153-4.438a.807.807,0,0,0,.09-.429,11.1,11.1,0,0,0-.283-1.115.246.246,0,0,0-.185-.135,1.046,1.046,0,0,0-.947.839,1.148,1.148,0,0,1-.95,1.061c-.385.086-.78.135-1.17.2,0-.031-.01-.064-.014-.1a14,14,0,0,0-1.43.209,5.106,5.106,0,0,1-1.047.215.6.6,0,0,0-.309.106,3.671,3.671,0,0,0-1,.932,2.612,2.612,0,0,1-.906.815c-.313.178-.614.377-.923.565a.61.61,0,0,0-.288.738c.131.506.257,1.012.4,1.516.067.243.1.251.343.153.313-.123.622-.253.932-.379.645-.26,1.311-.479,1.932-.789a28.4,28.4,0,0,0,4.647-2.969A3.615,3.615,0,0,0,434.868,471.848Z" transform="translate(-6.813 -30.055)"/><path d="M484.47,467.5c.108.168,0,.317-.262.307-.328-.086-.711-.182-1.09-.291-.062-.017-.111-.087-.166-.134.056-.059.1-.143.17-.17a.962.962,0,0,1,.393-.084,2.3,2.3,0,0,1,.618.112A.692.692,0,0,1,484.47,467.5Z" transform="translate(-54.258 -28.715)"/><path d="M475.294,460.3a1.019,1.019,0,0,1,.989,1,.6.6,0,0,1-.1.315,2.385,2.385,0,0,1-1.237.9,1.209,1.209,0,0,1-.29,0c.012-.106-.012-.237.041-.314.19-.275.4-.533.613-.794.086-.106.19-.2.27-.305.025-.036,0-.111,0-.167-.048,0-.109-.011-.139.014a6.794,6.794,0,0,0-.8.661c-.379.41-.706.87-1.079,1.288a11.576,11.576,0,0,1-1,1,3.279,3.279,0,0,1-.677.384.331.331,0,0,1-.217.025.32.32,0,0,1-.2-.14.265.265,0,0,1,.075-.217c.235-.24.5-.452.725-.7.6-.666,1.176-1.35,1.774-2.018a6.119,6.119,0,0,1,.727-.692A2.472,2.472,0,0,1,475.294,460.3Z" transform="translate(-47.385 -24.63)"/><path d="M469.344,472.581c.127.048.283.09.254.268s-.192.125-.3.12c-.2-.008-.394-.041-.592-.055a5.443,5.443,0,0,0-1.884.164.391.391,0,0,1-.179.037,1.024,1.024,0,0,1-.223-.117c.047-.064.081-.158.145-.186a2.933,2.933,0,0,1,1.332-.3c.448.017.893.034,1.341.053A.371.371,0,0,1,469.344,472.581Z" transform="translate(-44.368 -31.937)"/><path d="M423.051,459.175l.192.415a1.216,1.216,0,0,0-.508.39,3.311,3.311,0,0,0-.354.48,5.677,5.677,0,0,1-1.586,1.588,11.5,11.5,0,0,1-1.106.686A15.035,15.035,0,0,1,417.109,464a19.215,19.215,0,0,1-3.615.9,18.677,18.677,0,0,1-2.114.218c-1,.023-1.993-.006-2.988-.058a21.31,21.31,0,0,1-4.311-.639c-.709-.186-1.4-.432-2.107-.643a.5.5,0,0,0-.346-.017,2.316,2.316,0,0,1-.683.268l-.08-.345a.21.21,0,0,0,.034-.011c.1-.042.187-.1.281-.147a2.236,2.236,0,0,0-.262-.174,4.156,4.156,0,0,1-1.156-.594c-.053-.05-.209-.022-.3.011a3.647,3.647,0,0,1-1.418.279,2.646,2.646,0,0,1-2.333-2.264c-.012-.148-.037-.3-.048-.446a1.091,1.091,0,0,0-.429-.756,6.928,6.928,0,0,1-.574-.532.54.54,0,0,1-.018-.825c.061-.078.121-.159.188-.231a.982.982,0,0,0,.343-.981,3.121,3.121,0,0,1-.011-.708c0-.17.075-.19.212-.134a4.137,4.137,0,0,0,1.349.259c.017,0,.034,0,.05,0l0,.313a5.66,5.66,0,0,1-.7-.016c-.39-.043-.482.017-.477.416a.526.526,0,0,0,.012.148.615.615,0,0,1-.192.61c-.066.075-.141.142-.206.217-.467.533-.473.646.1,1.045a1.956,1.956,0,0,1,.869,1.374,3.542,3.542,0,0,0,.213.789,1.566,1.566,0,0,0,1.9.84A6.026,6.026,0,0,0,400.451,461a4.832,4.832,0,0,1,1.324-.827c.353-.119.72-.189,1.073-.305a1.27,1.27,0,0,1,1.188.252c.143.1.284.2.429.3a1.762,1.762,0,0,0,.981.359l-.008.363a1.671,1.671,0,0,1-.931-.258c-.251-.162-.5-.321-.753-.486a.933.933,0,0,0-.735-.2.525.525,0,0,0-.148.089.9.9,0,0,0,.123.119,3.791,3.791,0,0,1,1.244,1.266.9.9,0,0,0,.415.351,2.7,2.7,0,0,0,.824.22,9.139,9.139,0,0,0,3.01-.236l.117.342a3.894,3.894,0,0,1-1.263.235,1.084,1.084,0,0,0-.262.069,1.384,1.384,0,0,0,.257.109,1.36,1.36,0,0,0,.3.008q.781-.019,1.563-.041c0,.008,0,.014,0,.022l.111-.008c.77-.064,1.541-.121,2.308-.195.557-.053,1.116-.1,1.666-.2.733-.134,1.459-.3,2.184-.477a10.833,10.833,0,0,0,3.423-1.347c.429-.276.838-.583,1.248-.886.426-.315.421-.32.332-.833,0-.025-.006-.05-.011-.075a.383.383,0,0,0-.039-.119l.373-.045a.877.877,0,0,1,.045.145.529.529,0,0,0,.49.463,3.378,3.378,0,0,0,.807.079,3.509,3.509,0,0,1,.9-.086A.08.08,0,0,0,423.051,459.175Zm-.978.576c.089-.136.028-.212-.128-.2a4.593,4.593,0,0,0-.592.049.828.828,0,0,0-.351.167c-.345.285-.663.6-1.017.876-.223.172-.521.251-.733.432a4.331,4.331,0,0,1-1.241.668,18.719,18.719,0,0,1-3.325.981c-.717.142-1.449.225-2.174.323-.605.081-1.212.15-1.818.215-.168.018-.219.083-.159.242.087.234.162.471.252.7.123.318.128.317.586.306.616-.069,1.377-.1,2.121-.243a16.2,16.2,0,0,0,5.271-1.814c.761-.443,1.519-.893,2.277-1.343a.431.431,0,0,0,.095-.107c.1-.123.212-.242.307-.371C421.658,460.34,421.874,460.052,422.073,459.751Zm-11.853,4.789c.153-.057.087-.179.05-.282-.095-.268-.187-.537-.295-.8-.021-.049-.108-.07-.164-.106l-.075.129c.041.282.076.539.117.8a.4.4,0,0,0,.049.14A.251.251,0,0,0,410.219,464.54Zm-1.006-.02c.187.016.207-.083.181-.232-.031-.17-.051-.343-.078-.515-.063-.4-.1-.43-.5-.422a9.02,9.02,0,0,1-1.641,0,2.941,2.941,0,0,0-.591-.075,2.927,2.927,0,0,1-1.26-.3c-.159-.067-.3-.186-.459-.242a2.115,2.115,0,0,1-1.249-1.053.761.761,0,0,0-.879-.394,8.127,8.127,0,0,0-2.342,1.039c-.154.082-.151.154,0,.224.3.142.617.264.926.4a14.376,14.376,0,0,0,2.793.923c.658.134,1.317.262,1.982.354.936.128,1.876.22,2.815.328a.212.212,0,0,0,0-.031C409.014,464.518,409.115,464.51,409.214,464.52Z" transform="translate(-1.33 -22.145)"/><path d="M437.39,458.934l-.221.106a3.059,3.059,0,0,0-.329-.483.823.823,0,0,0-.432-.262,1.078,1.078,0,0,0-.884.2,2.035,2.035,0,0,0-.739.867,1.362,1.362,0,0,1-.613.685.564.564,0,0,1-.85-.232.83.83,0,0,1-.006-.721c.108-.318.058-.423-.281-.43a3.537,3.537,0,0,0-1.068.1,22.664,22.664,0,0,0-2.147.75,6.706,6.706,0,0,0-1.486.76,8.665,8.665,0,0,0-1.243,1.233,1.93,1.93,0,0,1-2.1.532,2.192,2.192,0,0,0-1.5-.1c-.475.1-.947.22-1.425.278a2.593,2.593,0,0,1-.289.017l.008-.363a1.389,1.389,0,0,0,.209-.017c.368-.059.731-.139,1.092-.23a3.215,3.215,0,0,1,1.946,0,1.252,1.252,0,0,0,1.3-.17,8,8,0,0,0,.611-.543,6.146,6.146,0,0,1,1.449-1.227,17.142,17.142,0,0,1,2.433-1c.277-.092.555-.179.836-.265a9.374,9.374,0,0,1,.978-.192c.287.042.522.066.753.112.474.1.561.387.515.839-.006.061-.049.119-.05.178a2.017,2.017,0,0,0,.025.275.959.959,0,0,0,.249-.134c.111-.115.2-.257.3-.382a2.948,2.948,0,0,1,1.486-1.081c.764-.211,1.149.066,1.341.624A1.444,1.444,0,0,0,437.39,458.934Z" transform="translate(-17.672 -23.232)"/><path d="M441.671,461.2l-.373.045a.389.389,0,0,0-.276-.207.56.56,0,0,0-.664.292,4.843,4.843,0,0,0-.254.733,1.533,1.533,0,0,1-.128.423,1.416,1.416,0,0,1-1.017.742c-.148.012-.295.062-.441.07a.962.962,0,0,1-.468-.037,1.892,1.892,0,0,0-1.268-.156.494.494,0,0,1-.474-.161,1.819,1.819,0,0,1-.309-.457c-.069-.164-.154-.21-.31-.165a11.31,11.31,0,0,0-1.246.381,2.1,2.1,0,0,0-1.379,1.319,1.35,1.35,0,0,1-1,.866,2.358,2.358,0,0,1-1.471-.022,1.234,1.234,0,0,0-.889.031c-.073.031-.148.059-.223.086l-.117-.342q.153-.04.3-.089a.57.57,0,0,0,.259-.133.3.3,0,0,1,.43-.067,1.9,1.9,0,0,0,1.238.159.9.9,0,0,0,.864-.7c.075-.3.215-.585.307-.883a1.217,1.217,0,0,1,.614-.766c.51-.254,1.029-.5,1.563-.7a7.668,7.668,0,0,1,1.018-.245c.571.028.773.182.943.615a.355.355,0,0,1-.037.351c-.12.184-.112.193.1.251a2.863,2.863,0,0,0,.4.092,2.149,2.149,0,0,1,.738.236,1.091,1.091,0,0,0,.466.072,1.293,1.293,0,0,0,.907-.451.682.682,0,0,0,.245-.518,1.439,1.439,0,0,1,.34-.967.806.806,0,0,1,.82-.342A1.182,1.182,0,0,1,441.671,461.2Z" transform="translate(-22.208 -24.769)"/><path d="M457.226,478.463c.178-.058.245.051.174.236a1.587,1.587,0,0,1-1.025.731c-.174-.08-.357-.147-.522-.242-.106-.061-.122-.178.009-.229C456.313,478.784,456.765,478.612,457.226,478.463Z" transform="translate(-38 -35.486)"/><path d="M452.33,493.211c.057.128.118.256.014.382a.3.3,0,0,1-.407.045.984.984,0,0,1-.342-.367,5.023,5.023,0,0,1-.213-.592,1.7,1.7,0,0,0-.532-.836.319.319,0,0,1-.108-.1c-.036-.073-.1-.178-.074-.226.039-.072.147-.1.229-.154.114.048.207.078.291.125a1.857,1.857,0,0,1,.841,1.051C452.113,492.766,452.227,492.986,452.33,493.211Z" transform="translate(-34.946 -43.209)"/><path d="M451.467,435.382a.614.614,0,0,1-.028.953.929.929,0,0,1-1.279.059,2.876,2.876,0,0,1-.8-1.145.223.223,0,0,1,.147-.351c.187-.056.371-.12.555-.179A2.683,2.683,0,0,1,451.467,435.382Zm-.213.349a.2.2,0,0,0-.133-.265,4.431,4.431,0,0,0-.739-.232.59.59,0,0,0-.437.129c-.048.044.037.265.1.391a.835.835,0,0,0,.227.289,1.509,1.509,0,0,0,.3.159A.881.881,0,0,0,451.253,435.731Z" transform="translate(-34.142 -9.333)"/><path d="M450.216,428.765c.215.394.084.681-.359.762a2.566,2.566,0,0,1-.3.017,2.791,2.791,0,0,1-1.9-.8.654.654,0,0,1-.215-.459c0-.415.134-.512.544-.485s.791.145,1.188.209A1.393,1.393,0,0,1,450.216,428.765Zm-.4.22a3.1,3.1,0,0,0-.253-.345.355.355,0,0,0-.2-.082,6.216,6.216,0,0,1-1.254-.306.266.266,0,0,0-.181.014c-.016.075-.028.186.014.231a1.121,1.121,0,0,0,.395.324c.359.127.734.2,1.112.3Z" transform="translate(-33.018 -5.195)"/><path d="M435.8,492.968l-.151.423a.863.863,0,0,0-.76.514.732.732,0,0,0-.043.175.637.637,0,0,0,.178.011c.182-.041.365-.086.546-.133l.1.406a6.356,6.356,0,0,1-.873.295.368.368,0,0,0-.34.357,1.569,1.569,0,0,1-.328.781,2.052,2.052,0,0,1-2.935.142c-.337-.348-.663-.71-1-1.054a.526.526,0,0,0-.284-.133,1.647,1.647,0,0,0-.332.037c-.471.041-.942.092-1.413.109-.284.011-.571-.042-.856-.055l-.178-.011.025-.406c.285.008.571,0,.856,0v.018c.061,0,.125,0,.186,0,.405-.034.814-.059,1.218-.111.225-.028.231-.1.114-.292a2.546,2.546,0,0,1-.245-.53,1.033,1.033,0,0,0-.914-.7l.017-.4c.1.014.195.033.293.051a1.308,1.308,0,0,1,1.212,1.082.71.71,0,0,0,.323.432,1.206,1.206,0,0,1,.415.462,3.744,3.744,0,0,0,.978,1.207.984.984,0,0,0,.863.271,1.535,1.535,0,0,0,1.424-1.311,2.83,2.83,0,0,1,.43-1.067,1.164,1.164,0,0,1,.989-.645A2.16,2.16,0,0,1,435.8,492.968Z" transform="translate(-20.867 -43.84)"/><path d="M444.034,442.814a.971.971,0,0,1-.645.875.751.751,0,0,1-.73-.274.634.634,0,0,1-.211-.611,5.952,5.952,0,0,1,.337-1.02c.15-.33.448-.362.735-.126A1.592,1.592,0,0,1,444.034,442.814Zm-.752.393a.8.8,0,0,0,.114-1.152c-.084-.08-.162-.08-.207.023-.115.257-.218.519-.328.78l.05.02a1.247,1.247,0,0,0,0,.15C442.939,443.248,443.1,443.324,443.282,443.207Z" transform="translate(-30.023 -13.39)"/><path d="M443.009,436.337a.463.463,0,0,1-.041.585,1.208,1.208,0,0,1-1.7.117.816.816,0,0,1,.3-1.422.943.943,0,0,1,.221-.017A1.429,1.429,0,0,1,443.009,436.337Zm-.532.307a.2.2,0,0,0,.017-.367.547.547,0,0,0-.3-.12,2.631,2.631,0,0,0-.629.041.346.346,0,0,0-.2.226c-.062.262.165.462.594.452A4.207,4.207,0,0,0,442.478,436.645Z" transform="translate(-29.145 -9.859)"/><path d="M441.442,484.874c.009.145-.133.217-.279.242-.279.045-.56.09-.839.14-.376.069-.752.14-1.127.212l-.092.017a.574.574,0,0,1-.53-.291c-.039-.086-.033-.136.056-.17a2.87,2.87,0,0,1,.519-.2c.582-.1,1.168-.187,1.754-.268a.533.533,0,0,1,.321.047A.437.437,0,0,1,441.442,484.874Z" transform="translate(-27.702 -39.137)"/><path d="M441.789,429.517a.418.418,0,0,1-.113.473,1.061,1.061,0,0,1-1.729-.309c-.12-.3-.188-.611-.281-.917a.4.4,0,0,1,.045-.016c.006-.075.008-.149.019-.223a.353.353,0,0,1,.434-.344,1.32,1.32,0,0,1,.377.145c.165.086.315.2.483.279A1.415,1.415,0,0,1,441.789,429.517Zm-.746.251a.245.245,0,0,0,.115-.43,5.729,5.729,0,0,0-.78-.441c-.045.075-.092.119-.084.146a1.434,1.434,0,0,0,.212.579A.742.742,0,0,0,441.044,429.768Z" transform="translate(-28.37 -5.418)"/><path d="M436.835,494.383c.025.1.051.246,0,.312a.316.316,0,0,1-.3.061,1.911,1.911,0,0,1-.566-.338,1.718,1.718,0,0,1-.537-1.082,1.116,1.116,0,0,0-.722-.961,1.86,1.86,0,0,1-.235-.11c-.076-.048-.223-.075-.154-.2.047-.084.158-.136.242-.2.015-.012.048,0,.078,0a1.733,1.733,0,0,1,1.53,1.461,1.213,1.213,0,0,0,.514.9C436.746,494.266,436.819,494.322,436.835,494.383Z" transform="translate(-25.161 -43.506)"/><path d="M436.025,438.223a1.073,1.073,0,0,1-.893,1.079c-.421.083-.7-.206-.7-.789a2.714,2.714,0,0,1,.622-1.619c.182-.206.223-.189.468-.048a.887.887,0,0,1,.4.641A5.5,5.5,0,0,1,436.025,438.223Zm-.814.6a.882.882,0,0,0,.349-.776,2.723,2.723,0,0,0-.1-.357c-.061-.15-.173-.16-.229-.009a8.65,8.65,0,0,0-.305,1.023C434.888,438.852,435.06,438.922,435.211,438.822Z" transform="translate(-25.239 -10.542)"/><path d="M434.3,424.634a.759.759,0,0,1,1.012.756,1.065,1.065,0,0,1-.278.633,1.623,1.623,0,0,1-.8.46c-.435.123-.752-.173-.748-.663A1.238,1.238,0,0,1,434.3,424.634Zm.419.814c.033-.066.039-.2,0-.232a.368.368,0,0,0-.271-.051.911.911,0,0,0-.446.644c0,.056.061.111.1.17A1.048,1.048,0,0,0,434.715,425.448Z" transform="translate(-24.673 -3.279)"/><path d="M427.219,487.569a.25.25,0,0,1,.16.332c-.045.143-.171.17-.3.156-.42-.044-.839-.1-1.258-.133-.57-.042-1.14-.064-1.709-.09-.26-.012-.524-.006-.783-.033a.711.711,0,0,1-.332-.139c-.069-.051-.1-.157-.142-.238a.915.915,0,0,1,.256-.09c.374-.01.747,0,1.12,0,0-.016,0-.03,0-.045.507.038,1.015.077,1.522.113.373.027.745.045,1.116.08A1.262,1.262,0,0,1,427.219,487.569Z" transform="translate(-18.312 -40.772)"/><path d="M429.847,430.673a.569.569,0,0,1-.389.541.558.558,0,0,1-.591-.111,1.265,1.265,0,0,1-.516-1.11c.062-.365.115-.733.192-1.1a.988.988,0,0,1,.173-.366c.129-.18.252-.175.44-.055a.873.873,0,0,1,.382.564c.07.289.175.571.232.861A4.664,4.664,0,0,1,429.847,430.673Zm-.559-.24a1.983,1.983,0,0,0-.195-.971.1.1,0,0,0-.086-.05c-.023.006-.048.051-.055.084-.029.2-.054.391-.09.646a2.853,2.853,0,0,0,.117.367c.024.054.136.125.167.109A.284.284,0,0,0,429.287,430.433Z" transform="translate(-21.6 -5.547)"/><path d="M428.728,448.751a.693.693,0,0,1-.387.919.612.612,0,0,1-.881-.281,2.32,2.32,0,0,1-.178-.519,1.949,1.949,0,0,1,.53-1.106.286.286,0,0,1,.264-.031.587.587,0,0,1,.231.231C428.458,448.221,428.6,448.481,428.728,448.751Zm-.716.551a.443.443,0,0,0,.343-.388.732.732,0,0,0-.335-.508l-.036-.006a.3.3,0,0,0-.062.038.8.8,0,0,0-.067.806A.211.211,0,0,0,428.012,449.3Z" transform="translate(-20.962 -17.105)"/><path d="M424.831,491.974l-.017.4h-.033a.854.854,0,0,0-.911.669,1.66,1.66,0,0,1-.351.767c-.084.088-.037.17.08.175l-.025.406a8.74,8.74,0,0,1-1.567-.228l.083-.332c.044.008.086.009.112.014a.511.511,0,0,0,.1,0c.056-.012.112-.031.168-.047l-.07-.159c-.056-.122-.106-.246-.168-.363-.05-.1-.1-.24-.175-.268a1.01,1.01,0,0,1-.65-.752c-.048-.151-.107-.209-.218-.209l.182-.369a1.044,1.044,0,0,1,.416.33,1.759,1.759,0,0,0,.674.649c.108.047.172.2.244.32a1.054,1.054,0,0,1,.07.212c.081.235.153.259.318.07a4,4,0,0,0,.314-.462,2.112,2.112,0,0,1,.566-.683A1.159,1.159,0,0,1,424.831,491.974Z" transform="translate(-17.319 -43.399)"/><path d="M421.213,442.157a1.274,1.274,0,0,1-.84,1.163.572.572,0,0,1-.815-.535,2.066,2.066,0,0,1,.452-1.5,5.063,5.063,0,0,1,.524-.527q.283-.245.443.084a1.827,1.827,0,0,1,.15.5C421.168,441.6,421.183,441.857,421.213,442.157Zm-.87.63a.916.916,0,0,0,.265-1.186c-.075-.116-.145-.059-.206.011a1.94,1.94,0,0,0-.387,1.042c.019.037.036.146.094.176A.3.3,0,0,0,420.343,442.786Z" transform="translate(-16.341 -12.883)"/><path d="M411.267,482.584c.14.044.253.122.209.3-.036.14-.158.181-.368.129-.433-.108-.862-.232-1.3-.321-.815-.164-1.634-.3-2.45-.457a2.729,2.729,0,0,1-1.391-.748.978.978,0,0,1-.143-.168.163.163,0,0,1-.025-.133c.018-.034.08-.047.134-.073.189.09.385.167.563.274a2.884,2.884,0,0,0,.992.4c1.014.174,2.021.379,3.028.583A7.5,7.5,0,0,1,411.267,482.584Z" transform="translate(-8.11 -37.078)"/><path d="M417.227,430.54c.01.211.022.421.033.633a1.939,1.939,0,0,1-.918,1.8c-.456.279-.867.08-.883-.451a1.735,1.735,0,0,1,.379-1.073c.184-.25.415-.463.621-.7a1.56,1.56,0,0,0,.245-.32c.053-.1.087-.234.224-.182S417.219,430.348,417.227,430.54Zm-.449.772a.366.366,0,0,0-.008-.111c-.023-.066-.057-.128-.087-.193-.061.036-.123.067-.181.106a1.978,1.978,0,0,0-.636,1.257c-.014.052.008.156.036.166a.262.262,0,0,0,.2-.021A1.354,1.354,0,0,0,416.778,431.312Z" transform="translate(-13.89 -6.653)"/><path d="M415.33,495.15a2.136,2.136,0,0,1-.027.335.255.255,0,0,1-.309.2.225.225,0,0,1-.228-.24c-.014-.234-.029-.469-.051-.7a.232.232,0,0,1,.189-.276.238.238,0,0,1,.318.178C415.275,494.832,415.3,495.027,415.33,495.15Z" transform="translate(-13.445 -45.059)"/><path d="M413,489.063c-.037.05-.119.207-.154.2a.939.939,0,0,1-.368-.2c-.051-.047-.028-.167-.05-.251a1.765,1.765,0,0,0-.6-1.009.355.355,0,0,1-.109-.1.215.215,0,0,1-.031-.164.169.169,0,0,1,.148-.07,1.794,1.794,0,0,1,.527.257A2.175,2.175,0,0,1,413,489.063Z" transform="translate(-11.632 -40.879)"/><path d="M409.91,443.654a1.154,1.154,0,0,1-.576,1.16.755.755,0,0,1-1.145-.654c0-.048,0-.1,0-.148a1.463,1.463,0,0,1,1.072-1.36.321.321,0,0,1,.413.218A5.126,5.126,0,0,1,409.91,443.654Zm-.836.739a.683.683,0,0,0,.337-.561c-.037-.129-.069-.26-.114-.387-.039-.1-.114-.111-.209-.055a1.021,1.021,0,0,0-.4.836A.245.245,0,0,0,409.074,444.393Z" transform="translate(-9.543 -14.071)"/><path d="M404.7,474.9l.08.345c-.3.073-.61.115-.9.2-.438.131-.9.187-1.338.318a1.306,1.306,0,0,0-.9.973,2.9,2.9,0,0,0-.129,1.031,2.915,2.915,0,0,1-.017.522c-.039.418-.115.836-.123,1.254a2.546,2.546,0,0,0,.295,1.3.73.73,0,0,0,1.241.135c.073-.084.145-.171.223-.252a1.183,1.183,0,0,1,1.2-.374l-.087.368a.584.584,0,0,0-.328.113,3.624,3.624,0,0,0-.43.407c-.2.187-.385.384-.591.56a.346.346,0,0,0-.143.336l-.454.031a.641.641,0,0,0-.346-.482,1.558,1.558,0,0,1-.9-1,3.667,3.667,0,0,1-.173-.987,4.818,4.818,0,0,1,.12-1.633,1.544,1.544,0,0,0,.012-.557,2.568,2.568,0,0,1,.323-1.327,2.245,2.245,0,0,1,1.875-1.115c.455-.069.916-.109,1.374-.162C404.628,474.909,404.668,474.91,404.7,474.9Z" transform="translate(-5.168 -33.367)"/></g></svg>