<svg xmlns="http://www.w3.org/2000/svg" width="64.464" height="34.218" viewBox="0 0 64.464 34.218"><defs><style>.a{fill:#fff;}.b{fill:#ffce32;}.c{fill:#ff004e;}.d{fill:#f50018;}</style></defs><g transform="translate(-52.183 -41.057)"><g transform="translate(52.183 41.058)"><path class="a" d="M115.913,49.8l-3.3-1.143,1.422-3.186a1.96,1.96,0,0,0-.4-2.191,1.985,1.985,0,0,0-1.4-.585,1.96,1.96,0,0,0-.785.163L106.046,45.2a1.968,1.968,0,0,0-1.017,1.006l-1.985,4.448-.738.319L102.2,50.9A10.145,10.145,0,0,0,96.64,49.33a11.3,11.3,0,0,0-3.057.416,10.278,10.278,0,0,0-1.986.8,10.276,10.276,0,0,0-1.29-1.71,11.346,11.346,0,0,0-3.229-2.378,9.841,9.841,0,0,0-3.061-2.941,9.545,9.545,0,0,0-5.044-1.484c-4.245,0-7.5,2.957-8.994,5.489a10.776,10.776,0,0,0-.953,2.144,10.79,10.79,0,0,0-2.313-.389c-.19-.01-.384-.015-.576-.015a11.505,11.505,0,0,0-6.788,2.187,9.233,9.233,0,0,0-3.724,7.324A10.535,10.535,0,0,0,59.16,66.9a1.972,1.972,0,0,0-2.268.676l-3.343,4.5a1.972,1.972,0,0,0,1.357,3.135l5.574.644a1.909,1.909,0,0,0,.226.013,1.973,1.973,0,0,0,1.81-2.757l-.331-.764,3.285-1.422c.848.364,1.734.7,2.641.988A46.794,46.794,0,0,0,80.77,73.9a2.368,2.368,0,0,0,1.3-.383c.868.957,1.467,1.536,1.557,1.623a2.368,2.368,0,0,0,2.17.6,44.593,44.593,0,0,0,11.341-4.513,22.624,22.624,0,0,0,6.929-6.052A10.308,10.308,0,0,0,106,56.3a10.033,10.033,0,0,0-.643-1.769l3.859,1.338a1.972,1.972,0,0,0,1.429-.053l5.408-2.342a1.972,1.972,0,0,0-.138-3.674Z" transform="translate(-52.968 -41.842)"/><path d="M59.922,75.275a2.126,2.126,0,0,1-.249-.014l-.429-.05a.193.193,0,1,1,.044-.383l.43.05a1.792,1.792,0,0,0,.649-.045.193.193,0,0,1,.1.374A2.164,2.164,0,0,1,59.922,75.275Zm24.555-.068a2.593,2.593,0,0,1-.375-.027.193.193,0,1,1,.056-.382,2.188,2.188,0,0,0,.807-.032c.026-.006.117-.027.265-.064a.193.193,0,1,1,.093.375c-.151.037-.244.059-.271.065A2.546,2.546,0,0,1,84.476,75.207ZM58.308,75.1h-.022l-1.15-.133a.193.193,0,0,1,.044-.383l1.15.133a.193.193,0,0,1-.022.385ZM56.2,74.858h-.022l-1.15-.133a.193.193,0,1,1,.044-.383l1.15.133a.193.193,0,0,1-.022.385Zm27.031-.006a.191.191,0,0,1-.1-.029,2.587,2.587,0,0,1-.424-.329c-.044-.043-.211-.2-.473-.471a.193.193,0,1,1,.276-.27c.257.262.421.421.464.462a2.194,2.194,0,0,0,.36.28.193.193,0,0,1-.1.357Zm2.98-.017a.193.193,0,0,1-.052-.379c.362-.1.734-.209,1.108-.324a.193.193,0,0,1,.113.369c-.377.115-.753.225-1.118.327A.2.2,0,0,1,86.21,74.836Zm-24.955-.08a.193.193,0,0,1-.131-.335,1.776,1.776,0,0,0,.525-.886.193.193,0,1,1,.375.092,2.16,2.16,0,0,1-.639,1.078A.192.192,0,0,1,61.255,74.756Zm-7.166-.142-.025,0a2.162,2.162,0,0,1-1.141-.517.193.193,0,0,1,.254-.291,1.774,1.774,0,0,0,.938.425.193.193,0,0,1-.025.384Zm34.154-.4a.193.193,0,0,1-.06-.377c.365-.12.733-.245,1.093-.373a.193.193,0,1,1,.129.364c-.363.128-.733.255-1.1.376A.2.2,0,0,1,88.243,74.219Zm2-.706a.193.193,0,0,1-.068-.374c.36-.136.722-.277,1.075-.42a.193.193,0,1,1,.145.358c-.356.145-.721.287-1.083.424A.2.2,0,0,1,90.247,73.513ZM81.7,73.384a.193.193,0,0,1-.141-.061q-.151-.161-.317-.343a2.544,2.544,0,0,1-.376.173.193.193,0,0,1-.133-.363,2.161,2.161,0,0,0,.439-.219.193.193,0,0,1,.248.032q.222.245.42.456a.193.193,0,0,1-.141.325ZM52.5,73.36a.193.193,0,0,1-.18-.125,2.173,2.173,0,0,1-.086-1.25.193.193,0,0,1,.376.086,1.787,1.787,0,0,0,.071,1.028.193.193,0,0,1-.112.249A.2.2,0,0,1,52.5,73.36Zm27.35-.052h0c-.191,0-.6-.011-1.166-.038a.193.193,0,1,1,.019-.386c.564.027.965.035,1.153.037a.193.193,0,0,1,0,.386Zm-2.124-.094h-.013c-.381-.026-.771-.058-1.16-.093a.193.193,0,1,1,.035-.384c.385.035.772.067,1.151.092a.193.193,0,0,1-.013.386Zm-2.116-.19h-.021c-.387-.043-.776-.091-1.154-.141a.193.193,0,1,1,.051-.382c.376.05.762.1,1.146.14a.193.193,0,0,1-.021.385Zm-13.781-.2a.193.193,0,0,1-.187-.146,1.786,1.786,0,0,0-.092-.271l-.331-.764a.193.193,0,0,1,.1-.253.2.2,0,0,1,.258.1.213.213,0,0,1,.013.039l.315.728a2.159,2.159,0,0,1,.112.329.193.193,0,0,1-.14.235A.2.2,0,0,1,61.834,72.819Zm11.675-.074-.03,0c-.386-.06-.772-.124-1.148-.191a.193.193,0,0,1,.068-.38c.372.067.755.13,1.138.189a.193.193,0,0,1-.029.384Zm18.709-.027a.193.193,0,0,1-.077-.37c.355-.153.709-.312,1.053-.471a.193.193,0,0,1,.163.35c-.347.161-.7.321-1.062.476A.191.191,0,0,1,92.217,72.718Zm-20.8-.344a.194.194,0,0,1-.038,0c-.382-.077-.764-.159-1.138-.245a.193.193,0,1,1,.087-.376c.37.085.749.167,1.127.243a.193.193,0,0,1-.038.382ZM69.346,71.9A.193.193,0,0,1,69.3,71.9c-.38-.1-.758-.2-1.123-.307a.193.193,0,1,1,.108-.371c.361.105.735.207,1.112.3a.193.193,0,0,1-.048.38Zm24.8-.076a.193.193,0,0,1-.086-.366c.347-.172.692-.35,1.024-.528a.193.193,0,0,1,.182.34c-.336.18-.684.36-1.035.534A.191.191,0,0,1,94.145,71.826Zm-31.851-.458a.193.193,0,0,1-.077-.37l1.063-.46a.193.193,0,0,1,.153.354l-1.063.46A.191.191,0,0,1,62.293,71.368Zm-9.442,0a.193.193,0,0,1-.155-.308l.69-.93a.193.193,0,0,1,.31.23l-.69.93A.193.193,0,0,1,52.852,71.365ZM67.3,71.313a.188.188,0,0,1-.059-.009c-.369-.119-.739-.246-1.1-.379a.193.193,0,1,1,.132-.363c.358.131.724.256,1.088.374a.193.193,0,0,1-.059.377Zm28.714-.487a.193.193,0,0,1-.1-.36l.328-.191q.334-.2.658-.4a.193.193,0,1,1,.2.327q-.328.206-.667.406l-.332.194A.193.193,0,0,1,96.018,70.826Zm-30.71-.235a.188.188,0,0,1-.072-.014q-.278-.112-.55-.228l-.368.159a.193.193,0,0,1-.153-.354l.444-.192a.192.192,0,0,1,.153,0q.306.131.619.257a.193.193,0,0,1-.072.372ZM97.82,69.7a.193.193,0,0,1-.108-.353c.318-.215.634-.438.939-.663a.193.193,0,1,1,.229.31c-.309.229-.63.455-.953.673A.192.192,0,0,1,97.82,69.7Zm-43.7-.043a.193.193,0,0,1-.155-.308l.69-.93a.193.193,0,0,1,.31.23l-.69.93A.193.193,0,0,1,54.117,69.66Zm45.413-1.212a.193.193,0,0,1-.121-.344c.3-.241.6-.49.88-.738a.193.193,0,0,1,.255.29c-.287.253-.587.505-.894.75A.193.193,0,0,1,99.531,68.448Zm-44.148-.493a.19.19,0,0,1-.115-.038.193.193,0,0,1-.04-.27l.69-.93a.193.193,0,0,1,.31.23l-.69.93A.193.193,0,0,1,55.383,67.956Zm45.745-.906a.193.193,0,0,1-.134-.332c.279-.269.549-.545.8-.819a.193.193,0,1,1,.284.262c-.259.28-.534.561-.818.835A.192.192,0,0,1,101.127,67.05ZM56.794,66.4a.193.193,0,0,1-.088-.365,2.172,2.172,0,0,1,1.088-.236c-.242-.255-.472-.516-.685-.778a.193.193,0,1,1,.3-.244c.235.287.49.574.759.852a.193.193,0,0,1,0,.273.19.19,0,0,1-.061.04.193.193,0,0,1-.206.252,1.789,1.789,0,0,0-1.013.185A.192.192,0,0,1,56.794,66.4Zm45.778-.9a.193.193,0,0,1-.149-.316c.246-.3.48-.6.7-.9l.315.223c-.222.311-.462.622-.714.927A.192.192,0,0,1,102.572,65.5ZM56.678,64.32a.193.193,0,0,1-.159-.083,11.468,11.468,0,0,1-.62-1,.193.193,0,0,1,.338-.186,11.074,11.074,0,0,0,.6.967.193.193,0,0,1-.158.3Zm47.136-.544a.193.193,0,0,1-.164-.295c.2-.329.392-.664.559-.994a.193.193,0,0,1,.345.174c-.172.341-.366.685-.575,1.024A.192.192,0,0,1,103.813,63.776Zm-48.17-1.305a.194.194,0,0,1-.177-.116,10.1,10.1,0,0,1-.405-1.107.193.193,0,1,1,.37-.111,9.7,9.7,0,0,0,.39,1.065.193.193,0,0,1-.177.27Zm49.137-.581a.2.2,0,0,1-.073-.014.193.193,0,0,1-.106-.252,10.644,10.644,0,0,0,.372-1.074.193.193,0,0,1,.371.106,11.051,11.051,0,0,1-.385,1.113A.193.193,0,0,1,104.781,61.889ZM55.015,60.448a.193.193,0,0,1-.189-.156,10.073,10.073,0,0,1-.156-1.169.193.193,0,1,1,.385-.029,9.7,9.7,0,0,0,.15,1.124.193.193,0,0,1-.153.226A.2.2,0,0,1,55.015,60.448Zm50.365-.592a.193.193,0,0,1-.19-.228,9.332,9.332,0,0,0,.136-1.125.193.193,0,1,1,.385.023,9.7,9.7,0,0,1-.142,1.172A.193.193,0,0,1,105.379,59.856Zm-50.544-1.52h0a.193.193,0,0,1-.189-.2c0-.052,0-.1,0-.156.012-.344.039-.687.08-1.018a.193.193,0,1,1,.383.048c-.04.32-.066.65-.078.983l0,.151A.193.193,0,0,1,54.836,58.337Zm50.69-.594a.193.193,0,0,1-.193-.184,9.389,9.389,0,0,0-.12-1.127.193.193,0,1,1,.38-.064,9.727,9.727,0,0,1,.125,1.174.193.193,0,0,1-.184.2ZM55.083,56.232A.194.194,0,0,1,54.895,56a9.751,9.751,0,0,1,.325-1.135.193.193,0,0,1,.364.129,9.357,9.357,0,0,0-.312,1.09A.193.193,0,0,1,55.083,56.232ZM105.2,55.65a.193.193,0,0,1-.186-.143,10.077,10.077,0,0,0-.355-1.079.193.193,0,1,1,.359-.142,10.44,10.44,0,0,1,.369,1.12.193.193,0,0,1-.186.243Zm3.877-.264a2.151,2.151,0,0,1-.217-.011.193.193,0,1,1,.038-.384,1.79,1.79,0,0,0,.885-.137l.142-.061a.193.193,0,0,1,.153.354l-.142.061A2.153,2.153,0,0,1,109.074,55.386Zm-1.123-.274a.191.191,0,0,1-.063-.011l-1.094-.379a.193.193,0,0,1,.126-.365l1.094.379a.193.193,0,0,1-.063.375Zm2.934-.333a.193.193,0,0,1-.077-.37l1.063-.46a.193.193,0,1,1,.153.354l-1.063.46A.192.192,0,0,1,110.885,54.779Zm-4.939-.363a.191.191,0,0,1-.063-.011l-1.094-.379a.193.193,0,1,1,.126-.364l1.094.379a.193.193,0,0,1-.063.375Zm-50.174-.187a.19.19,0,0,1-.083-.019.193.193,0,0,1-.091-.257,9.12,9.12,0,0,1,.578-1.031.193.193,0,0,1,.324.211,8.738,8.738,0,0,0-.554.987A.193.193,0,0,1,55.771,54.229Zm57.062-.294a.193.193,0,0,1-.077-.37l1.063-.46a.193.193,0,1,1,.153.354l-1.063.46A.191.191,0,0,1,112.833,53.935Zm1.948-.844a.193.193,0,0,1-.077-.37l.484-.21a1.8,1.8,0,0,0,.479-.3.193.193,0,0,1,.256.289,2.184,2.184,0,0,1-.581.369l-.484.21A.191.191,0,0,1,114.781,53.092Zm-57.875-.65a.193.193,0,0,1-.15-.315,9.436,9.436,0,0,1,.8-.866.193.193,0,1,1,.266.28,9.038,9.038,0,0,0-.771.831A.193.193,0,0,1,56.906,52.442Zm59.427-.685a.193.193,0,0,1-.181-.26,1.784,1.784,0,0,0,.109-.617q0-.034,0-.068a1.831,1.831,0,0,0-.046-.345.193.193,0,0,1,.376-.088,2.213,2.213,0,0,1,.056.419c0,.028,0,.055,0,.082a2.171,2.171,0,0,1-.132.75A.193.193,0,0,1,116.334,51.757Zm-57.909-.792a.193.193,0,0,1-.119-.345l.141-.108c.264-.2.543-.387.831-.561a.193.193,0,0,1,.2.33c-.277.168-.546.349-.8.539l-.136.1A.192.192,0,0,1,58.425,50.965Zm43.308-.676a.193.193,0,0,1-.077-.37l.456-.2.208-.466a.193.193,0,0,1,.352.157l-.239.535a.193.193,0,0,1-.1.1l-.525.227A.191.191,0,0,1,101.734,50.289ZM100.9,50a.192.192,0,0,1-.094-.025,9.216,9.216,0,0,0-1.021-.491.193.193,0,0,1,.146-.358,9.659,9.659,0,0,1,1.064.512A.193.193,0,0,1,100.9,50ZM90.75,49.855a.192.192,0,0,1-.164-.091,10.858,10.858,0,0,0-.65-.933.193.193,0,0,1,.3-.238,11.177,11.177,0,0,1,.674.966.193.193,0,0,1-.164.3Zm-30.524-.007a.193.193,0,0,1-.085-.366,11.463,11.463,0,0,1,1.084-.461.193.193,0,0,1,.133.363,11.12,11.12,0,0,0-1.048.445A.19.19,0,0,1,60.226,49.848Zm55.739-.08a.193.193,0,0,1-.145-.065,1.788,1.788,0,0,0-.755-.5l-1.094-.379a.193.193,0,1,1,.126-.365l1.094.379a2.173,2.173,0,0,1,.919.614.193.193,0,0,1-.145.321Zm-24.391-.175a.193.193,0,0,1-.077-.37,9.92,9.92,0,0,1,1.108-.406.193.193,0,1,1,.11.37,9.537,9.537,0,0,0-1.065.391A.2.2,0,0,1,91.574,49.593Zm7.37-.417a.192.192,0,0,1-.055-.008,10.215,10.215,0,0,0-1.1-.262.193.193,0,0,1,.068-.38A10.636,10.636,0,0,1,99,48.8a.193.193,0,0,1-.055.378ZM62.211,49.1a.193.193,0,0,1-.051-.379c.376-.1.762-.19,1.148-.257a.193.193,0,1,1,.066.38c-.374.065-.748.149-1.111.249A.194.194,0,0,1,62.211,49.1ZM93.6,48.962a.193.193,0,0,1-.038-.382,11.519,11.519,0,0,1,1.165-.173.193.193,0,0,1,.037.384,11.085,11.085,0,0,0-1.125.167A.2.2,0,0,1,93.6,48.962ZM67.56,48.908a.181.181,0,0,1-.041,0,10.474,10.474,0,0,0-1.122-.18.193.193,0,0,1,.04-.384,10.9,10.9,0,0,1,1.164.187.193.193,0,0,1-.04.382Zm.766-.081a.193.193,0,0,1-.182-.257,11.688,11.688,0,0,1,.443-1.091.193.193,0,1,1,.35.164,11.226,11.226,0,0,0-.428,1.054A.193.193,0,0,1,68.326,48.827Zm28.536-.045h-.017a11.28,11.28,0,0,0-1.137-.042h0a.193.193,0,0,1,0-.386,11.768,11.768,0,0,1,1.176.044.193.193,0,0,1-.017.385ZM64.3,48.721a.193.193,0,0,1-.017-.385c.357-.033.718-.049,1.073-.049h.1a.193.193,0,1,1,0,.386h-.1c-.343,0-.692.016-1.037.047Zm38.594-.075a.193.193,0,0,1-.176-.272l.472-1.057a.193.193,0,1,1,.352.157l-.472,1.057A.193.193,0,0,1,102.891,48.645Zm10.231-.132a.191.191,0,0,1-.063-.011l-1.094-.379a.193.193,0,1,1,.126-.364l1.094.379a.193.193,0,0,1-.063.375Zm-23.666-.336a.192.192,0,0,1-.139-.059,11.006,11.006,0,0,0-.83-.778.193.193,0,1,1,.249-.295,11.394,11.394,0,0,1,.859.805.193.193,0,0,1-.139.327Zm22.685-.8a.2.2,0,0,1-.079-.017.193.193,0,0,1-.1-.255l.472-1.057a.193.193,0,1,1,.352.157l-.472,1.057A.193.193,0,0,1,112.141,47.374ZM69.212,46.9a.193.193,0,0,1-.165-.292,11.213,11.213,0,0,1,.657-.978.193.193,0,0,1,.309.231,10.858,10.858,0,0,0-.634.945A.193.193,0,0,1,69.212,46.9Zm18.637-.107a.193.193,0,0,1-.111-.035,11.265,11.265,0,0,0-.96-.61.193.193,0,1,1,.19-.336,11.589,11.589,0,0,1,.993.631.193.193,0,0,1-.112.35Zm15.908-.088a.2.2,0,0,1-.079-.017.193.193,0,0,1-.1-.255l.472-1.057a.193.193,0,1,1,.352.157l-.472,1.057A.193.193,0,0,1,103.756,46.707ZM86.117,45.612a.192.192,0,0,1-.157-.081,9.742,9.742,0,0,0-.712-.883.193.193,0,1,1,.286-.259,10.088,10.088,0,0,1,.74.919.193.193,0,0,1-.157.3Zm26.889-.177a.193.193,0,0,1-.176-.272l.248-.555a1.8,1.8,0,0,0,.138-.476.193.193,0,0,1,.382.056,2.189,2.189,0,0,1-.168.577l-.248.555A.193.193,0,0,1,113.006,45.435Zm-42.539-.243a.193.193,0,0,1-.145-.321c.258-.293.534-.577.819-.845a.193.193,0,0,1,.264.281c-.276.259-.543.535-.793.818A.192.192,0,0,1,70.466,45.192Zm34.336-.307a.193.193,0,0,1-.122-.343,2.167,2.167,0,0,1,.5-.305l.568-.246a.193.193,0,0,1,.153.354l-.568.246a1.791,1.791,0,0,0-.414.251A.192.192,0,0,1,104.8,44.885ZM84.708,44.03a.194.194,0,0,1-.129-.05,9.789,9.789,0,0,0-.885-.71.193.193,0,1,1,.224-.314,10.153,10.153,0,0,1,.92.738.193.193,0,0,1-.13.336Zm22.008-.052a.193.193,0,0,1-.077-.37l1.063-.46a.193.193,0,1,1,.153.354l-1.063.46A.193.193,0,0,1,106.715,43.978ZM72,43.729a.193.193,0,0,1-.121-.344,11.705,11.705,0,0,1,.955-.688.193.193,0,1,1,.209.324c-.314.2-.625.427-.923.666A.191.191,0,0,1,72,43.729Zm41.308-.325a.193.193,0,0,1-.181-.127,1.788,1.788,0,0,0-.618-.824.193.193,0,1,1,.229-.311,2.174,2.174,0,0,1,.751,1,.194.194,0,0,1-.181.259Zm-4.645-.269a.193.193,0,0,1-.077-.37l1.063-.46a.193.193,0,0,1,.153.354l-1.063.46A.191.191,0,0,1,108.664,43.134Zm-25.67-.35a.191.191,0,0,1-.1-.026,10.536,10.536,0,0,0-1.012-.517.193.193,0,1,1,.157-.353,10.9,10.9,0,0,1,1.049.536.193.193,0,0,1-.1.36Zm-9.22-.221a.193.193,0,0,1-.09-.364,10.43,10.43,0,0,1,1.072-.49.193.193,0,0,1,.14.36,10.047,10.047,0,0,0-1.033.472A.192.192,0,0,1,73.773,42.564Zm36.839-.273a.193.193,0,0,1-.077-.37l.056-.024a2.157,2.157,0,0,1,1.179-.155.193.193,0,1,1-.057.382,1.764,1.764,0,0,0-.968.127l-.056.024A.192.192,0,0,1,110.612,42.291ZM81.063,41.91A.2.2,0,0,1,81,41.9a9.09,9.09,0,0,0-1.1-.289.193.193,0,0,1,.075-.379,9.5,9.5,0,0,1,1.142.3.193.193,0,0,1-.061.376Zm-5.323-.132a.193.193,0,0,1-.051-.379,9.494,9.494,0,0,1,1.156-.244.193.193,0,1,1,.056.382,9.064,9.064,0,0,0-1.108.234A.2.2,0,0,1,75.74,41.778Zm3.249-.3h-.017a8.941,8.941,0,0,0-1.132-.028.193.193,0,0,1-.015-.386,9.348,9.348,0,0,1,1.181.029.193.193,0,0,1-.017.385Z" transform="translate(-52.183 -41.058)"/></g><g transform="translate(53.953 42.828)"><g transform="translate(0 14.145)"><path d="M78.079,136.225a.395.395,0,0,1-.157-.757l31.611-13.687a.394.394,0,1,1,.313.724L78.235,136.192A.4.4,0,0,1,78.079,136.225Z" transform="translate(-74.424 -121.748)"/><g transform="translate(0 10.593)"><path class="b" d="M63.158,181.961l3.345-4.506,2.23,5.149Z" transform="translate(-62.763 -177.061)"/><path d="M67.126,181.394l-.045,0-5.574-.644a.394.394,0,0,1-.271-.627l3.345-4.505a.394.394,0,0,1,.679.078l2.23,5.149a.395.395,0,0,1-.362.551Zm-4.85-1.352,4.217.487-1.687-3.9Z" transform="translate(-61.157 -175.456)"/></g></g><g transform="translate(2.459 0)"><path class="c" d="M102.416,55.17c-4.5-2.764-8.877,0-10.763,3.192A11.066,11.066,0,0,0,90.382,62.5a11.069,11.069,0,0,0-4.152-1.224c-3.7-.189-8.423,1.933-8.6,7.213-.182,5.335,5.157,8.972,10.847,10.8a44.673,44.673,0,0,0,11.938,1.875h0a44.678,44.678,0,0,0,5.026-10.989C107.051,64.422,106.965,57.963,102.416,55.17Z" transform="translate(-76.833 -53.246)"/><path d="M95.4,50.824a7.206,7.206,0,0,1,3.806,1.135c4.549,2.793,4.635,9.252,3.021,15.008A44.679,44.679,0,0,1,97.2,77.955h0a44.673,44.673,0,0,1-11.938-1.875c-5.69-1.831-11.029-5.468-10.847-10.8.173-5.065,4.524-7.224,8.147-7.224.153,0,.306,0,.456.011a11.069,11.069,0,0,1,4.153,1.224,11.066,11.066,0,0,1,1.272-4.138A8.483,8.483,0,0,1,95.4,50.824m0-.789c-3.58,0-6.351,2.539-7.636,4.714a10.79,10.79,0,0,0-1.21,3.39,10.787,10.787,0,0,0-3.495-.862c-.164-.008-.33-.013-.5-.013a9.9,9.9,0,0,0-5.841,1.871,7.7,7.7,0,0,0-3.094,6.116,9.228,9.228,0,0,0,3.484,7.331,22.13,22.13,0,0,0,7.909,4.25A45.014,45.014,0,0,0,97.2,78.744h0a.789.789,0,0,0,.636-.322h.006l.017-.025a45.006,45.006,0,0,0,5.127-11.21,22.123,22.123,0,0,0,.822-8.941,9.226,9.226,0,0,0-4.19-6.952A7.992,7.992,0,0,0,95.4,50.035Z" transform="translate(-73.622 -50.035)"/></g><g transform="translate(20.18 3.357)"><path class="d" d="M195.474,80.2c-1.276-4.854-6.094-5.829-9.485-4.876a10.51,10.51,0,0,0-3.59,2.006,10.513,10.513,0,0,0-2.047-3.567c-2.418-2.561-7.052-4.2-10.642-.7-3.628,3.543-2.351,9.546.353,14.539a42.436,42.436,0,0,0,6.964,9.126h0a42.437,42.437,0,0,0,10.667-4.244C192.581,89.592,196.763,85.1,195.474,80.2Z" transform="translate(-166.683 -70.266)"/><path d="M171.206,67.844a8.47,8.47,0,0,1,5.932,2.7,10.512,10.512,0,0,1,2.047,3.567,10.51,10.51,0,0,1,3.59-2.006,8.989,8.989,0,0,1,2.417-.328,6.893,6.893,0,0,1,7.068,5.2c1.289,4.9-2.893,9.4-7.781,12.287a42.437,42.437,0,0,1-10.667,4.244h0a42.436,42.436,0,0,1-6.964-9.126c-2.7-4.994-3.981-11-.353-14.539a6.611,6.611,0,0,1,4.71-2.008m0-.789a7.442,7.442,0,0,0-5.261,2.232,8.8,8.8,0,0,0-2.434,7.352,21.437,21.437,0,0,0,2.643,8.127,42.794,42.794,0,0,0,7.112,9.319.789.789,0,0,0,.546.22h.049a.794.794,0,0,0,.126-.018,42.8,42.8,0,0,0,10.893-4.334,21.44,21.44,0,0,0,6.447-5.61,8.8,8.8,0,0,0,1.7-7.557,7.479,7.479,0,0,0-3.137-4.479,8.574,8.574,0,0,0-4.695-1.314,9.722,9.722,0,0,0-2.63.358,10.241,10.241,0,0,0-3.029,1.511,10.247,10.247,0,0,0-1.821-2.854,9.2,9.2,0,0,0-6.506-2.952Z" transform="translate(-163.469 -67.055)"/></g><g transform="translate(41.44 0.66)"><g transform="translate(7.959)"><path class="b" d="M324.346,62.378l-5.327-1.847,2.3-5.149-5.407,2.341-2.3,5.149,5.327,1.847Z" transform="translate(-313.217 -54.988)"/><path d="M317.333,63.508a.393.393,0,0,1-.129-.022l-5.327-1.847a.395.395,0,0,1-.231-.534l2.3-5.149a.4.4,0,0,1,.2-.2l5.407-2.341a.394.394,0,0,1,.517.523l-2.123,4.756L322.87,60.4a.395.395,0,0,1,.028.735l-5.408,2.341A.4.4,0,0,1,317.333,63.508Zm-4.792-2.473,4.776,1.656,4.336-1.878-4.37-1.515a.395.395,0,0,1-.231-.534l1.885-4.223L314.6,56.419Z" transform="translate(-311.612 -53.382)"/></g><path d="M271.653,85.886a.395.395,0,0,1-.157-.757L284.963,79.3a.394.394,0,1,1,.313.724l-13.467,5.831A.4.4,0,0,1,271.653,85.886Z" transform="translate(-271.258 -74.161)"/><path d="M331.042,67.1a.39.39,0,0,1-.129-.022l-5.327-1.847a.395.395,0,0,1-.231-.534l2.3-5.149a.394.394,0,0,1,.721.322l-2.123,4.756,4.921,1.706a.395.395,0,0,1-.129.767Z" transform="translate(-314.657 -58.147)"/></g></g></g></svg>