<svg xmlns="http://www.w3.org/2000/svg" width="43.77" height="43.77" viewBox="0 0 43.77 43.77"><defs><style>.a{fill:#00b0ff;}.b{fill:#96ebe6;}.c{fill:#0053bf;}.d{fill:#e1f1fa;}</style></defs><path class="a" d="M55.962,42.732C50.679,53.812,42.549,56.205,36.65,56.205A20.661,20.661,0,0,1,19.9,47.477a20.921,20.921,0,0,1-2.565-19l.41-.846a20.448,20.448,0,0,1,35.649-3.9A20.92,20.92,0,0,1,55.962,42.732Z" transform="translate(-14.765 -13.718)"/><path class="b" d="M39.916,9.267A22,22,0,0,0,22.117,0,21.982,21.982,0,0,0,1.959,13.652l-.436.9C-.832,21.721.085,28.512,4.319,34.5a22,22,0,0,0,17.8,9.267A22.054,22.054,0,0,0,42.173,30.425l.385-.769C45.121,22.362,44.223,15.355,39.916,9.267ZM6.422,33.016a19.6,19.6,0,0,1-2.385-17.85l.333-.693A19.546,19.546,0,0,1,15.5,3.8c-3.1,4.052-4.975,11.934-4.745,14.5a.759.759,0,0,0-.051.257c-.667,8.591,1.282,16.884,4.95,21.526A19.576,19.576,0,0,1,6.422,33.016Zm14.413,7.959a6.933,6.933,0,0,1-2.642-1.881c-3.59-3.873-5.565-12.054-4.924-20.338v-.231c0-.077.026-.18.026-.257C14.039,10.293,17.168,4,20.835,2.8Zm2.565-.026V2.8c3.949,1.308,7.258,8.574,7.643,17.243.359,8-1.641,15.516-5.1,19.158A6.493,6.493,0,0,1,23.4,40.949ZM40.2,28.6c-2.872,6.053-6.925,9.78-11.618,11.447,3.437-4.334,5.386-12.062,5.027-20.115-.308-6.822-2.231-12.7-5.027-16.243A19.443,19.443,0,0,1,40.2,28.6Z" transform="translate(-0.232)"/><path class="c" d="M39.838,151H3.932A3.915,3.915,0,0,0,0,154.847v10.259a3.916,3.916,0,0,0,3.932,3.847H39.838a3.916,3.916,0,0,0,3.932-3.847V154.847A3.915,3.915,0,0,0,39.838,151Z" transform="translate(0 -138.091)"/><path class="d" d="M193.677,212.829l-2.565,5.129a1.286,1.286,0,0,1-2.308,0l-1.411-2.821-1.411,2.821a1.345,1.345,0,0,1-2.308,0l-2.565-5.129a1.285,1.285,0,0,1,2.308-1.128l1.411,2.821,1.411-2.821a1.332,1.332,0,0,1,2.308,0l1.411,2.821,1.411-2.821a1.285,1.285,0,0,1,2.308,1.128Z" transform="translate(-165.509 -192.945)"/><path class="d" d="M339.557,218.7A1.283,1.283,0,0,1,338.41,218l-1.418-2.835L335.575,218a1.335,1.335,0,0,1-2.294,0l-2.457-4.915a1.268,1.268,0,0,1,.879-2.062,1.411,1.411,0,0,1,1.307.7l1.418,2.835,1.418-2.835a1.335,1.335,0,0,1,2.294,0l1.418,2.835,1.418-2.835a1.282,1.282,0,0,1,2.294,1.147L340.7,218A1.283,1.283,0,0,1,339.557,218.7Z" transform="translate(-302.284 -192.972)"/><path class="d" d="M42.618,211.013a1.342,1.342,0,0,0-1.23.706l-1.418,2.835-1.418-2.835a1.3,1.3,0,0,0-2.294,0l-1.418,2.835-1.418-2.835a1.282,1.282,0,0,0-2.294,1.147L33.695,218a1.283,1.283,0,0,0,2.294,0l1.418-2.835L38.824,218a1.283,1.283,0,0,0,2.294,0l2.416-4.831a1.3,1.3,0,0,0-.915-2.151Z" transform="translate(-28.345 -192.972)"/></svg>