<svg xmlns="http://www.w3.org/2000/svg" width="44" height="31" viewBox="0 0 44 31"><defs><style>.a{fill:red;}.b{fill:#fff;}</style></defs><g transform="translate(-8 -34)"><path class="a" d="M51.08,38.841a5.528,5.528,0,0,0-3.89-3.915C43.759,34,30,34,30,34s-13.759,0-17.19.925a5.528,5.528,0,0,0-3.89,3.915C8,42.294,8,49.5,8,49.5s0,7.206.92,10.659a5.528,5.528,0,0,0,3.89,3.915C16.241,65,30,65,30,65s13.759,0,17.191-.925a5.528,5.528,0,0,0,3.89-3.915C52,56.706,52,49.5,52,49.5S52,42.294,51.08,38.841Z"/><path class="b" d="M78,82.916l11.5-6.542L78,69.831Z" transform="translate(-52.5 -26.873)"/></g></svg>