<svg xmlns="http://www.w3.org/2000/svg" xmlns:xlink="http://www.w3.org/1999/xlink" width="414" height="106" viewBox="0 0 414 106"><defs><style>.a{fill:#7422ff;}.b{clip-path:url(#a);}.c{mix-blend-mode:multiply;isolation:isolate;}.d{fill:#e5f7ff;}</style><clipPath id="a"><rect class="a" width="414" height="106"/></clipPath></defs><rect class="a" width="414" height="106"/><g class="b"><g class="c" transform="translate(642.969 707.474) rotate(180)"><path class="d" d="M471.733,1059.66a485.149,485.149,0,0,1-68.4-9.743L503.619,539.928c.156.04.312.078.466.112l1.13-5.772Zm68.5-.038-34.042-525.4,1.154,5.817q.256-.054.511-.125l100.7,509.9A485.359,485.359,0,0,1,540.233,1059.622ZM336.6,1030.384a493.636,493.636,0,0,1-63.522-28.931L505.182,531.98l.1-.521-1.171,1.739,1.286-2.327-.072.062.09-.151-.1.013.057-.064-.06.028.018-.037-.094-.014-.355.249-1.671.766,1.257-.8h0l.35-.225-.552.253-1.614.232,1.917-.565-1.12-.16,1.751-.026.025.006.032-.02.094.038-.02.009.059.022-.007.011.025.016-.155.179.178-.164.02.011-.006.1.012-.048,0-.047.008.017,0-.011.05.033.016-.019.022.043.026-.008-.035-.051.011-.011.07.02-.05-.043,0,0-.07-.053h.2l-.014.036.016.016,0,0,.034.041.009,0-.022-.063.007-.009-.006-.018h.156l-.058.051.011.012.02-.006-.017.009.039.044.024-.047-.021.05.017.019,0,.014.009,0,.018.019.025-.046,0-.058.019-.031.03.059,0,0,.085.153-.015,0,.027.054-.062-.029.091.122-.068-.01.222.285-.138-.117.181.2.95,1.909-1.08-1.6.129.649,232.411,469.089a493.738,493.738,0,0,1-63.474,28.984L508.829,539.6a.046.046,0,0,1,.017-.007l-2.51-7.375.018.09-.1-.3.04.083-.41-1.2,0,.029-.007-.023,0-.022-.043-.1.015.009-.023-.064h-.01l-.006-.014v0l-.007-.019-.005.009-.021-.02.018-.011-.025-.072h0l-.015-.032-.019.017-.015-.008-.012,0,.022.007-.035.03-.021-.018-.033.066.009,0-.009.027-.014-.022-.018.053.013.027-.026.009h-.015l-.079.021.013.064.069-.045-.051.145.01.042-.055.16,0-.056-.288.848.075-.15-.138.409.033-.17ZM214.106,963.812a514.218,514.218,0,0,1-53.4-45.568L504.352,532.029l-4.206,6.259c.119.088.242.174.365.257Zm583.5-.215L510.935,538.533c.116-.079.231-.159.342-.241l-4.317-6.385L850.979,917.991A514.615,514.615,0,0,1,797.609,963.6ZM113.694,865.528A533.927,533.927,0,0,1,73.9,806.577L497.639,535.291c.079.154.162.3.246.449l5.627-3.611Zm784.256-.284-390.1-333.177,5.706,3.639q.114-.2.221-.4L937.74,806.207A533.768,533.768,0,0,1,897.951,865.244ZM42.027,742.292A547.478,547.478,0,0,1,18.782,673.88l485.3-142.847Zm927.55-.426L507.658,531.145,992.789,673.337A547.361,547.361,0,0,1,969.577,741.866ZM4.7,602.831A560.161,560.161,0,0,1,0,530.924l503.214-.471-6.786.984c.026.206.059.415.1.623Zm1002.093-.569L514.891,532.084c.045-.23.082-.46.111-.685l-6.707-.95,6.777-.007c0-.109,0-.294-.025-.542h496.377v.522A560.94,560.94,0,0,1,1006.8,602.262ZM505.685,534.048l-.107-1.636.126-.646.094.478Zm2.3-2.448-1.842-.9.169.05-.1-.086-.084.012-.109-.158.012-.009-.042-.038v0l-.005,0h0l-.011-.016-.007,0-.008-.007,0,0,0-.006,0,0,0-.016-.01-.014.018-.038v0l0-.007h0l0,0-.074-.038,0,.006-.037-.017.015-.017-.046-.07.015,0,.034.071.03-.033.007,0,0,.071.023.007,0-.069.042.079.009-.047.012.009.156-.184-.061-.01.015-.031-.055.026-.01,0,.088-.1-.091.013.056-.123-.038.033.273-.3.693-.78-.726.872.309-.255-.065.1,1.383-.885-1.393,1.192h.025l-.384.241.122-.036-.062.051-.065-.009-.152.194.015.009-.017.027.082.024-.035.017-.057-.027-.022.033.006.027h0l0,.02.142-.022-.028-.011.044-.013.013.008.012-.008.09.027,1.468,0-.987.143,2.219.646-1.6-.227-.85-.388-.044.008.572.335-.061-.01Zm-4.656-1.164-3.754-.538h3.831l1.2.352Zm4.68-.029-1.222-.173,1.137-.336h3.615Zm-2.249-.126-.014-.012-.007,0-.007,0,.01,0-.026-.022-.015.012-.068-.083,0,0-.013-.038-.005.01,0-.01-.009-.027H505.6l-.011-.036.014.01-.036-.075,0-.021-.028-.084.047-.013-.092-.136v.018l-.251-.739.12.244-.191-2.9.407,2.057-.072,1.134.1.208.117-.6.1.529.052-.107-.058-.915.281-1.431-.136,2.173.25-.507-.319.942-.007-.13-.044.065.035.108-.009.028.007.04-.017.054L505.9,530l.011.057-.064.039-.021,0-.016.053,0,.011-.016.021,0,0-.013.01.011.008-.021.062.006,0Zm-.48-.129-.131-.15-.289-.1h.065l-.139-.062-1.313-1.12,1.473.942-.021-.032.431.406-.08-.011.058.067-.05-.023.04.082Zm3.515-.509,5.9-1.736c-.024-.089-.049-.177-.074-.264L992.51,386.47a553.86,553.86,0,0,1,14.142,71.029Zm-6.341-.024-374.2-53L4.563,459.094A553.567,553.567,0,0,1,18.506,388L496.792,527.684c-.025.084-.049.171-.073.256Zm4.191-.173,5.487-6.167-.077-.075L850.347,142.235A524.222,524.222,0,0,1,897.409,194.9L513.036,524.326c-.051-.071-.1-.14-.156-.208Zm-1.94-.069-6.16-5.261c-.062.079-.122.16-.182.243L113.166,196a524.4,524.4,0,0,1,46.929-52.8l339.249,380.03c-.021.02-.041.039-.06.059Zm3.348-.165,429.207-275.4a541.631,541.631,0,0,1,31.93,64.235l-454.91,208.6c-.032-.079-.063-.158-.1-.236Zm-4.788-.072-6.023-2.748c-.037.089-.074.178-.107.27L41.639,319.483a541.791,541.791,0,0,1,31.785-64.4Zm3.042-.476L607.572,10.811A487.946,487.946,0,0,1,674.328,30.27l-165.5,490.97-.01,0Zm-1.276-.273L335.68,30.8a487.223,487.223,0,0,1,66.7-19.668Zm-.92-.7L213.408,97.549a503.921,503.921,0,0,1,58.85-37.714L501.6,521.67c-.125.064-.249.128-.37.194Zm3.285-.2,2.789-5.638c-.127-.069-.254-.135-.383-.2L737.895,59.141a503.348,503.348,0,0,1,59.022,37.592Zm-1.7-.846-.391-6.026c-.13.01-.3.026-.5.053L470.723,1.255a488.716,488.716,0,0,1,68.525-.1l-32.72,519.512c-.175-.022-.324-.036-.443-.045Z"/></g></g></svg>