<svg xmlns="http://www.w3.org/2000/svg" width="185" height="50" viewBox="0 0 185 50"><defs><style>.a{fill:#2fa3e0;}.b{fill:#298ae0;}</style></defs><g transform="translate(0 0)"><rect class="a" width="185" height="50"/><g transform="translate(0 0)"><path class="b" d="M169.495,198.25h-2L146.519,205.7Zm-65.566,6.545,3.636-6.545h-.633ZM91.322,198.25l1.431,9.536L92.2,198.25Zm48.269,0-3.388,1.958,3.7-1.958ZM63.512,248.038l10.13-8.331-11.169,8.331ZM152.44,198.25h-.808l-8.928,4.064Zm-23.221,0-1.034.779,1.137-.779Zm-120.377,0H6.66l-.633.494,48,13.075Zm46.319,0h-.678l7.881,4.762Zm12.764,0H67.9l.283.253Zm-4.087,0h-.867l9.193,7.054Zm-27.932.018-1.093.582,29.051,11.673Zm2.494-.018H36.9l18.109,7.665Zm41.721,0,2.217,3.629-1.862-3.629ZM189.6,221.11V220.1L140.348,222Zm-23.133,15.536.465-.574-28.361-4.785Zm.92-14.28-30.241.578,30.265.04Zm15.622,18.81.56-.633-31.291-5.806Zm6.507,6.863h.084v-1.079l-41.814-10.093ZM44.557,198.25h-.508l6.118,2.931Zm110.37,6.873L130.873,212.6l19.845-5.6-15.039,4.538,46.388-12.7-.751-.584H179.7l-24.205,7.3ZM148.9,210.56l40.7-9.067v-1.037Zm39.15-.879L133.3,217.912l55.448-7.105Zm1.553,4.784v-.713l-33.516,3.593Zm0-6.229v-.747l-32.689,5.69Zm-68.049-9.987-10.069,9.606,11.187-9.606Zm34.87,49.788h3.428l-40.662-15.117ZM144.951,198.25h-2.043L120.334,210.2Zm-21.438,0h-.145l-1.347,1.224Zm-22.451,49.788h.745l-2.6-8Zm-7.04-44.99.123-4.8h-.439Zm28.8,44.99H124.4l-16.362-13.143Zm-46.834,0,.791-1.131-.907,1.131ZM24.75,198.25H22.49l26.259,8.909Zm25.336,49.788,8.109-4.673-8.85,4.673Zm-6.337,0,4.3-2.181-4.693,2.181Zm83.058,0h.607l-6.631-4.768Zm62.8-18.622v-.68l-32.8-1.619Zm-6.83,1.132-29.789-2.207,29.56,2.813Zm6.83-8.583v-.823L149.34,222.3Zm0,14.884v-.785l-35.473-4.491Zm-19,11.189h3.154l-35.437-10.771Zm-26.388,0h1.6l-19.261-9.012Zm-60.183,0,3.515-9.058-4.378,9.058ZM4.75,220.318v.523l25.469.511Zm0,16.759v1.031l45.377-7.724Zm0-8.757v.63l30.415-2.093Zm11.959,3.525,40.929-4.664L16.321,231ZM4.75,200.826v.805l30.983,7.252Zm0,45.339v.267l.866.738,45.753-12.6Zm9.421-34.8L68.064,219.2l-35.155-5.908,4.911.75-27.7-4.867-.243.33-5.127-.878v.742l9.8,1.456Zm2.4,36.675h2.845l9.831-3.334.412.281,32.779-11.223-31.99,9.987ZM4.75,242.066v.9l36.52-8.27Zm0-23.173v.88l42.779,1.447Zm27.206,29.145,16.3-6.661-17.8,6.661ZM4.75,233.251v.78l36.06-4.518Zm0-18.219v.67l31.734,2.469Zm0,11.034v.57l27.766-1.2Z" transform="translate(-4.75 -198.25)"/></g></g></svg>