<svg xmlns="http://www.w3.org/2000/svg" xmlns:xlink="http://www.w3.org/1999/xlink" width="27.604" height="27.604" viewBox="0 0 27.604 27.604"><defs><style>.a{opacity:0.2;}.b{fill:url(#a);}.c{fill:#fcf865;}.d{fill:#9e353a;}.e{fill:#f7931e;}.f{opacity:0.36;}.g{fill:#cc6017;}.h{fill:#fff;}</style><linearGradient id="a" x1="0.5" y1="1" x2="0.5" gradientUnits="objectBoundingBox"><stop offset="0.002" stop-color="#ff9700"/><stop offset="1" stop-color="#fbce3b"/></linearGradient></defs><g transform="translate(-665.637 -85.622)"><g transform="translate(665.637 85.622)"><g transform="translate(0 0)"><circle class="a" cx="10.614" cy="10.614" r="10.614" transform="translate(0 19.702) rotate(-68.146)"/><circle class="b" cx="10.007" cy="10.007" r="10.007" transform="translate(2.756 21.185) rotate(-83.691)"/><g transform="translate(3.823 2.33)"><path class="c" d="M706.453,113.421l-15.9,8.66a9.987,9.987,0,0,0,.408,2.318l17.056-9.552A10.065,10.065,0,0,0,706.453,113.421Z" transform="translate(-690.558 -111.487)"/><path class="c" d="M705.152,101.789a10,10,0,0,0-14.239,7.812Z" transform="translate(-690.859 -100.812)"/></g><path class="d" d="M697.9,118.794a10.457,10.457,0,1,1,10.457-10.457A10.469,10.469,0,0,1,697.9,118.794Zm0-20.014a9.557,9.557,0,1,0,9.557,9.557A9.568,9.568,0,0,0,697.9,98.779Z" transform="translate(-684.095 -95.999)"/></g><g transform="translate(7.176 5.594)"><path class="c" d="M728.88,151.576a6.56,6.56,0,0,1-12.372,4.343,6.561,6.561,0,1,0,12.372-4.343Z" transform="translate(-715.879 -147.051)"/><path class="e" d="M726.04,128.643a6.562,6.562,0,1,1-6.562-6.562A6.562,6.562,0,0,1,726.04,128.643Z" transform="translate(-712.838 -122.081)"/><g class="f" transform="translate(0 1.182)"><path class="c" d="M737.792,175.726a6.549,6.549,0,0,0,9.144-5.036Z" transform="translate(-733.898 -164.415)"/><path class="c" d="M722.8,129.786l-10.394,5.533a6.527,6.527,0,0,0,1.18,3.543c2.816-1.587,8.3-4.583,11.43-6.287A6.583,6.583,0,0,0,722.8,129.786Z" transform="translate(-712.409 -129.786)"/></g><path class="g" d="M713.376,129.838A6.558,6.558,0,0,1,725.8,126.9a6.558,6.558,0,1,0-12.18,4.687A6.545,6.545,0,0,1,713.376,129.838Z" transform="translate(-712.838 -122.081)"/></g><path class="h" d="M719.071,122.939c.307.334.968.228,1.474-.238s.669-1.115.361-1.449-.967-.228-1.474.239S718.764,122.6,719.071,122.939Z" transform="translate(-710.742 -115.62)"/><path class="h" d="M713.348,137.492c.2.128.525-.017.719-.324s.188-.661-.015-.789-.525.017-.719.324S713.145,137.364,713.348,137.492Z" transform="translate(-705.895 -128.552)"/></g></g></svg>