<svg xmlns="http://www.w3.org/2000/svg" width="23.514" height="22.008" viewBox="0 0 23.514 22.008"><defs><style>.a{fill:#f7cd1c;}.b{fill:#e2e0e0;}</style></defs><g transform="translate(0)"><path class="a" d="M-323.733,319.443v11.382a1.411,1.411,0,0,1-1.411,1.411h-15.99a1.411,1.411,0,0,1-1.411-1.411V319.443h0l5.643-5.643,1.834-1.834a2.728,2.728,0,0,1,3.857,0l1.834,1.834,5.643,5.643Z" transform="translate(344.896 -310.698)"/><path class="b" d="M-204.946,583.166h2.822a1.6,1.6,0,0,1,1.6,1.6v6.678h-6.02v-6.678A1.6,1.6,0,0,1-204.946,583.166Z" transform="translate(215.292 -569.905)"/><path d="M-388.782,323.208a1.883,1.883,0,0,1-1.881-1.881V311.08l-1.078,1.078a.467.467,0,0,1-.333.138.467.467,0,0,1-.333-.138.467.467,0,0,1-.138-.333.467.467,0,0,1,.138-.333l9.358-9.358a3.176,3.176,0,0,1,2.261-.935,3.176,3.176,0,0,1,2.261.935l9.358,9.358a.467.467,0,0,1,.138.333.467.467,0,0,1-.138.333.467.467,0,0,1-.333.138.467.467,0,0,1-.332-.138l-1.078-1.078v10.247a1.883,1.883,0,0,1-1.881,1.881Zm9.406-9.218a2.072,2.072,0,0,1,2.069,2.069v6.208h4.515a.942.942,0,0,0,.941-.941V310.139l-7.339-7.339a2.242,2.242,0,0,0-1.6-.66,2.242,2.242,0,0,0-1.6.66l-7.339,7.339v11.187a.942.942,0,0,0,.941.941h4.515V316.06a2.072,2.072,0,0,1,2.069-2.069Zm-2.822.941a1.13,1.13,0,0,0-1.129,1.129v6.208h5.079V316.06a1.13,1.13,0,0,0-1.129-1.129Z" transform="translate(392.544 -301.2)"/></g></svg>