<svg xmlns="http://www.w3.org/2000/svg" width="28.98" height="27.123" viewBox="0 0 28.98 27.123"><defs><style>.a{fill:#fff;}</style></defs><path class="a" d="M-319.38,321.365V335.39a1.738,1.738,0,0,1-1.737,1.739h-19.69a1.738,1.738,0,0,1-1.737-1.739V321.365h0l6.949-6.954,2.258-2.259a3.357,3.357,0,0,1,4.75,0l2.258,2.259,6.95,6.954Z" transform="translate(345.453 -310.587)"/><path class="a" d="M-204.568,583.166h3.489a1.977,1.977,0,0,1,1.977,1.977V593.4h-7.443v-8.257A1.977,1.977,0,0,1-204.568,583.166Z" transform="translate(217.313 -566.859)"/><path d="M-387.907,328.323a2.321,2.321,0,0,1-2.318-2.318V313.376l-1.329,1.329a.576.576,0,0,1-.41.17.576.576,0,0,1-.41-.17.576.576,0,0,1-.17-.41.576.576,0,0,1,.17-.41l11.533-11.533a3.915,3.915,0,0,1,2.787-1.152,3.915,3.915,0,0,1,2.787,1.152l11.533,11.533a.576.576,0,0,1,.17.41.576.576,0,0,1-.17.41.576.576,0,0,1-.41.17.575.575,0,0,1-.41-.17l-1.329-1.329v12.629a2.321,2.321,0,0,1-2.318,2.318Zm11.592-11.36a2.553,2.553,0,0,1,2.55,2.55v7.651h5.564a1.161,1.161,0,0,0,1.159-1.159V312.217l-9.045-9.045a2.763,2.763,0,0,0-1.967-.814,2.763,2.763,0,0,0-1.967.814l-9.045,9.045v13.788a1.161,1.161,0,0,0,1.159,1.159h5.564v-7.651a2.553,2.553,0,0,1,2.55-2.55Zm-3.478,1.159a1.393,1.393,0,0,0-1.391,1.391v7.651h6.26v-7.651a1.393,1.393,0,0,0-1.391-1.391Z" transform="translate(392.544 -301.2)"/></svg>