<svg xmlns="http://www.w3.org/2000/svg" xmlns:xlink="http://www.w3.org/1999/xlink" width="323" height="175.972" viewBox="0 0 323 175.972"><defs><style>.a{fill:none;}.b{opacity:0.2;}.c{clip-path:url(#a);}.d{fill:#feffbd;}</style><clipPath id="a"><rect class="a" width="323" height="175.972"/></clipPath></defs><g class="b"><g class="c"><path class="d" d="M.407,306.516a.71.71,0,1,0-.339-.943.715.715,0,0,0,.339.943" transform="translate(0 -141.141)"/><path class="d" d="M32.378,322.257a1.584,1.584,0,1,0-.752-2.111,1.583,1.583,0,0,0,.752,2.111" transform="translate(-14.557 -147.652)"/><path class="d" d="M16.251,273.412a.6.6,0,0,0,.515-1.086.6.6,0,0,0-.515,1.086" transform="translate(-7.358 -125.927)"/><path class="d" d="M48.154,289.154a1.529,1.529,0,1,0-.724-2.038,1.529,1.529,0,0,0,.724,2.038" transform="translate(-21.868 -132.389)"/><path class="d" d="M79.918,304.9a2.566,2.566,0,1,0-1.218-3.419,2.562,2.562,0,0,0,1.218,3.419" transform="translate(-36.283 -138.758)"/><path class="d" d="M111.609,320.647a3.658,3.658,0,1,0-1.739-4.872,3.659,3.659,0,0,0,1.739,4.872" transform="translate(-50.653 -145.08)"/><path class="d" d="M32.023,240.312a.548.548,0,0,0,.726-.26.54.54,0,0,0-.26-.725.545.545,0,1,0-.466.985" transform="translate(-14.666 -110.666)"/><path class="d" d="M64.064,256.048a1.367,1.367,0,1,0-.646-1.819,1.371,1.371,0,0,0,.646,1.819" transform="translate(-29.27 -117.221)"/><path class="d" d="M95.829,271.791a2.4,2.4,0,1,0-1.138-3.2,2.4,2.4,0,0,0,1.138,3.2" transform="translate(-43.687 -123.59)"/><path class="d" d="M127.593,287.537a3.438,3.438,0,1,0-1.633-4.578,3.433,3.433,0,0,0,1.633,4.578" transform="translate(-58.102 -129.96)"/><path class="d" d="M159.142,303.3a4.642,4.642,0,1,0-2.2-6.183,4.647,4.647,0,0,0,2.2,6.183" transform="translate(-72.378 -136.19)"/><path class="d" d="M189.626,318.389h7.141a5.838,5.838,0,1,0-7.141,0" transform="translate(-86.654 -142.417)"/><path class="d" d="M232.142,324.665a6.969,6.969,0,0,0-11.69,0Z" transform="translate(-101.961 -148.693)"/><path class="d" d="M541.07,319.27h19.2a9.6,9.6,0,0,0-19.2,0" transform="translate(-250.249 -143.298)"/><path class="d" d="M592.589,326.627a9.478,9.478,0,0,0-8.026,0Z" transform="translate(-270.364 -150.655)"/><path class="d" d="M396.533,320.228a10.306,10.306,0,0,0-20.231,0Z" transform="translate(-174.042 -144.256)"/><path class="d" d="M420.511,305.028h19.41c.166-.154.335-.3.492-.469-.024.156-.031.313-.048.469h21.056a10.58,10.58,0,0,0-4.87-7.863,9.283,9.283,0,1,0-2.312-1.1,10.6,10.6,0,0,0-11.178,2.909,10.046,10.046,0,1,0-17.545,5.278,11.306,11.306,0,0,0-5.005.772" transform="translate(-194.489 -129.056)"/><path class="d" d="M507.557,310.855a10.934,10.934,0,0,0-7.338,1.2H518.76a9.549,9.549,0,1,0-11.2-1.2" transform="translate(-231.355 -136.083)"/><path class="d" d="M47.867,207.2a.437.437,0,1,0-.209-.582.439.439,0,0,0,.209.582" transform="translate(-22.023 -95.448)"/><path class="d" d="M79.91,222.941a1.256,1.256,0,1,0-.6-1.673,1.257,1.257,0,0,0,.6,1.673" transform="translate(-36.627 -102.007)"/><path class="d" d="M111.883,238.68a2.13,2.13,0,1,0-1.011-2.837,2.13,2.13,0,0,0,1.011,2.837" transform="translate(-51.184 -108.516)"/><path class="d" d="M143.648,254.429a3.166,3.166,0,1,0-1.5-4.22,3.164,3.164,0,0,0,1.5,4.22" transform="translate(-65.601 -114.887)"/><path class="d" d="M175.268,270.18a4.314,4.314,0,1,0-2.048-5.747,4.32,4.32,0,0,0,2.048,5.747" transform="translate(-79.923 -121.162)"/><path class="d" d="M206.893,285.928a5.46,5.46,0,1,0-2.6-7.274,5.46,5.46,0,0,0,2.6,7.274" transform="translate(-94.245 -127.435)"/><path class="d" d="M235.372,292.876a6.608,6.608,0,1,0,8.8-3.137,6.608,6.608,0,0,0-8.8,3.137" transform="translate(-108.566 -133.71)"/><path class="d" d="M278.91,315.913a7.807,7.807,0,1,0-11,0Z" transform="translate(-122.844 -139.941)"/><path class="d" d="M314.418,322.14a9,9,0,0,0-16.661-.957,9.224,9.224,0,0,0-.384.957Z" transform="translate(-137.537 -146.168)"/><path class="d" d="M63.848,174.095a.222.222,0,0,0,.293-.1.219.219,0,0,0-.4-.187.214.214,0,0,0,.1.289" transform="translate(-29.473 -80.328)"/><path class="d" d="M95.963,189.833a.984.984,0,1,0-.464-1.312.985.985,0,0,0,.464,1.312" transform="translate(-44.125 -86.933)"/><path class="d" d="M127.937,205.569a1.856,1.856,0,1,0-.882-2.474,1.855,1.855,0,0,0,.882,2.474" transform="translate(-58.681 -93.443)"/><path class="d" d="M159.768,221.314a2.839,2.839,0,1,0-1.349-3.786,2.845,2.845,0,0,0,1.349,3.786" transform="translate(-73.143 -99.86)"/><path class="d" d="M191.534,237.061a3.876,3.876,0,1,0-1.842-5.165,3.88,3.88,0,0,0,1.842,5.165" transform="translate(-87.56 -106.228)"/><path class="d" d="M223.225,252.808a4.97,4.97,0,1,0-2.36-6.618,4.969,4.969,0,0,0,2.36,6.618" transform="translate(-101.929 -112.55)"/><path class="d" d="M260.09,257.51a6.116,6.116,0,1,0,2.9,8.141,6.11,6.11,0,0,0-2.9-8.141" transform="translate(-116.252 -118.826)"/><path class="d" d="M283.119,274.706a7.208,7.208,0,1,0,9.6-3.423,7.211,7.211,0,0,0-9.6,3.423" transform="translate(-130.623 -125.148)"/><path class="d" d="M314.289,289a8.3,8.3,0,1,0,11.057-3.941A8.3,8.3,0,0,0,314.289,289" transform="translate(-144.99 -131.47)"/><path class="d" d="M360.745,313.812a9.337,9.337,0,1,0-13.5,0Z" transform="translate(-159.407 -137.84)"/><path class="d" d="M112.018,156.716a.711.711,0,1,0-.336-.945.715.715,0,0,0,.336.945" transform="translate(-51.623 -71.857)"/><path class="d" d="M144.059,172.454a1.529,1.529,0,1,0-.727-2.037,1.53,1.53,0,0,0,.727,2.037" transform="translate(-66.224 -78.415)"/><path class="d" d="M176.036,188.194a2.4,2.4,0,1,0-1.144-3.2,2.4,2.4,0,0,0,1.144,3.2" transform="translate(-80.782 -84.925)"/><path class="d" d="M207.868,203.939a3.385,3.385,0,1,0-1.608-4.509,3.385,3.385,0,0,0,1.608,4.509" transform="translate(-95.245 -91.343)"/><path class="d" d="M239.633,219.685a4.423,4.423,0,1,0-2.1-5.893,4.424,4.424,0,0,0,2.1,5.893" transform="translate(-109.662 -97.711)"/><path class="d" d="M271.395,235.429a5.46,5.46,0,1,0-2.593-7.273,5.453,5.453,0,0,0,2.593,7.273" transform="translate(-124.078 -104.08)"/><path class="d" d="M308.752,239.534a6.442,6.442,0,1,0,3.059,8.584,6.439,6.439,0,0,0-3.059-8.584" transform="translate(-138.543 -110.498)"/><path class="d" d="M331.437,256.955a7.481,7.481,0,1,0,9.964-3.548,7.485,7.485,0,0,0-9.964,3.548" transform="translate(-152.957 -116.867)"/><path class="d" d="M362.9,271.463a8.409,8.409,0,1,0,11.2-3.994,8.407,8.407,0,0,0-11.2,3.994" transform="translate(-167.467 -123.33)"/><path class="d" d="M394.457,286.037a9.283,9.283,0,1,0,12.365-4.406,9.283,9.283,0,0,0-12.365,4.406" transform="translate(-182.024 -129.841)"/><path class="d" d="M128.213,123.6a.326.326,0,1,0,.281-.588.326.326,0,1,0-.281.588" transform="translate(-59.212 -56.878)"/><path class="d" d="M160.328,139.337a1.092,1.092,0,1,0-.519-1.456,1.09,1.09,0,0,0,.519,1.456" transform="translate(-73.864 -63.482)"/><path class="d" d="M192.3,155.076a1.967,1.967,0,1,0-.93-2.619,1.968,1.968,0,0,0,.93,2.619" transform="translate(-88.423 -69.992)"/><path class="d" d="M224.274,170.813a2.838,2.838,0,1,0-1.352-3.783,2.837,2.837,0,0,0,1.352,3.783" transform="translate(-102.977 -76.503)"/><path class="d" d="M256.109,186.558a3.823,3.823,0,1,0-1.821-5.092,3.819,3.819,0,0,0,1.821,5.092" transform="translate(-117.44 -82.918)"/><path class="d" d="M288.083,202.3a4.7,4.7,0,1,0-2.229-6.254,4.694,4.694,0,0,0,2.229,6.254" transform="translate(-131.999 -89.431)"/><path class="d" d="M319.915,218.043a5.68,5.68,0,1,0-2.7-7.567,5.679,5.679,0,0,0,2.7,7.567" transform="translate(-146.46 -95.845)"/><path class="d" d="M357.482,221.846a6.607,6.607,0,1,0,3.136,8.8,6.6,6.6,0,0,0-3.136-8.8" transform="translate(-160.97 -102.309)"/><path class="d" d="M390.227,236.1a7.427,7.427,0,1,0,3.523,9.892,7.425,7.425,0,0,0-3.523-9.892" transform="translate(-175.575 -108.865)"/><path class="d" d="M412.086,254.344A8.19,8.19,0,1,0,423,250.456a8.192,8.192,0,0,0-10.911,3.888" transform="translate(-190.226 -115.471)"/><path class="d" d="M444.127,269.271a8.792,8.792,0,1,0,11.712-4.175,8.791,8.791,0,0,0-11.712,4.175" transform="translate(-205.018 -122.215)"/><path class="d" d="M144.339,90.464a.055.055,0,1,0-.1-.044.053.053,0,0,0,.027.069.056.056,0,0,0,.073-.025" transform="translate(-66.709 -41.804)"/><path class="d" d="M176.521,106.221a.709.709,0,1,0-.337-.945.711.711,0,0,0,.337.945" transform="translate(-81.454 -48.503)"/><path class="d" d="M208.637,121.955a1.475,1.475,0,1,0-.7-1.966,1.476,1.476,0,0,0,.7,1.966" transform="translate(-96.107 -55.106)"/><path class="d" d="M240.68,137.689a2.292,2.292,0,1,0-1.089-3.051,2.294,2.294,0,0,0,1.089,3.051" transform="translate(-110.71 -61.664)"/><path class="d" d="M272.729,153.425a3.112,3.112,0,1,0-1.481-4.145,3.111,3.111,0,0,0,1.481,4.145" transform="translate(-125.315 -68.219)"/><path class="d" d="M304.77,169.164a3.929,3.929,0,1,0-1.869-5.236,3.931,3.931,0,0,0,1.869,5.236" transform="translate(-139.918 -74.779)"/><path class="d" d="M336.743,184.9a4.8,4.8,0,1,0-2.282-6.4,4.8,4.8,0,0,0,2.282,6.4" transform="translate(-154.475 -81.289)"/><path class="d" d="M368.787,200.641a5.624,5.624,0,1,0-2.668-7.49,5.622,5.622,0,0,0,2.668,7.49" transform="translate(-169.08 -87.845)"/><path class="d" d="M400.9,216.376a6.388,6.388,0,1,0-3.033-8.512,6.389,6.389,0,0,0,3.033,8.512" transform="translate(-183.73 -94.451)"/><path class="d" d="M439.217,219.474a6.989,6.989,0,1,0,3.318,9.308,6.987,6.987,0,0,0-3.318-9.308" transform="translate(-198.522 -101.195)"/><path class="d" d="M462.048,237.79a7.535,7.535,0,1,0,10.036-3.577,7.533,7.533,0,0,0-10.036,3.577" transform="translate(-213.363 -107.988)"/><path class="d" d="M494.372,252.932a7.971,7.971,0,1,0,10.621-3.785,7.972,7.972,0,0,0-10.621,3.785" transform="translate(-228.294 -114.875)"/><path class="d" d="M526.993,268.278a8.245,8.245,0,1,0,10.983-3.917,8.248,8.248,0,0,0-10.983,3.917" transform="translate(-243.369 -121.9)"/><path class="d" d="M560,283.912a8.3,8.3,0,1,0,11.052-3.944A8.3,8.3,0,0,0,560,283.912" transform="translate(-258.631 -129.116)"/><path class="d" d="M597.036,311.336V296.693a8.178,8.178,0,0,0,0,14.643" transform="translate(-274.036 -137.223)"/><path class="d" d="M192.786,73.1a.272.272,0,1,0,.234-.492.272.272,0,0,0-.234.492" transform="translate(-89.093 -33.569)"/><path class="d" d="M225.115,88.831a.873.873,0,1,0-.421-1.165.873.873,0,0,0,.421,1.165" transform="translate(-103.884 -40.316)"/><path class="d" d="M257.227,104.564a1.64,1.64,0,1,0-.78-2.182,1.645,1.645,0,0,0,.78,2.182" transform="translate(-118.536 -46.918)"/><path class="d" d="M289.34,120.3a2.4,2.4,0,1,0-1.141-3.2,2.4,2.4,0,0,0,1.141,3.2" transform="translate(-133.187 -53.523)"/><path class="d" d="M321.456,136.032a3.167,3.167,0,1,0-1.5-4.218,3.169,3.169,0,0,0,1.5,4.218" transform="translate(-147.838 -60.127)"/><path class="d" d="M353.57,151.765a3.931,3.931,0,1,0-1.865-5.237,3.933,3.933,0,0,0,1.865,5.237" transform="translate(-162.49 -66.731)"/><path class="d" d="M385.755,167.5a4.641,4.641,0,1,0-2.206-6.182,4.634,4.634,0,0,0,2.206,6.182" transform="translate(-177.187 -73.383)"/><path class="d" d="M417.943,183.232A5.352,5.352,0,1,0,415.4,176.1a5.351,5.351,0,0,0,2.542,7.129" transform="translate(-191.886 -80.034)"/><path class="d" d="M450.338,198.956a5.9,5.9,0,1,0-2.8-7.853,5.894,5.894,0,0,0,2.8,7.853" transform="translate(-206.725 -86.827)"/><path class="d" d="M488.282,203.135a6.389,6.389,0,1,0,3.034,8.514,6.393,6.393,0,0,0-3.034-8.514" transform="translate(-221.612 -93.666)"/><path class="d" d="M521.239,218.261a6.716,6.716,0,1,0,3.19,8.947,6.719,6.719,0,0,0-3.19-8.947" transform="translate(-236.638 -100.647)"/><path class="d" d="M554.245,233.577a6.935,6.935,0,1,0,3.29,9.237,6.936,6.936,0,0,0-3.29-9.237" transform="translate(-251.759 -107.721)"/><path class="d" d="M581.33,261.811a6.992,6.992,0,0,0,8.691-2.272v-8.086a6.988,6.988,0,1,0-8.691,10.359" transform="translate(-267.021 -114.936)"/><path class="d" d="M241.379,55.71a.437.437,0,1,0-.207-.582.438.438,0,0,0,.207.582" transform="translate(-111.524 -25.382)"/><path class="d" d="M273.705,71.435a1.036,1.036,0,1,0-.491-1.378,1.033,1.033,0,0,0,.491,1.378" transform="translate(-126.316 -32.127)"/><path class="d" d="M306.029,87.163a1.637,1.637,0,1,0-.779-2.182,1.636,1.636,0,0,0,.779,2.182" transform="translate(-141.107 -38.872)"/><path class="d" d="M338.215,102.9A2.347,2.347,0,1,0,337.1,99.77a2.345,2.345,0,0,0,1.116,3.126" transform="translate(-155.806 -45.523)"/><path class="d" d="M370.4,118.628a3.058,3.058,0,1,0-1.453-4.072,3.056,3.056,0,0,0,1.453,4.072" transform="translate(-170.502 -52.175)"/><path class="d" d="M402.726,134.358a3.659,3.659,0,1,0-1.74-4.872,3.656,3.656,0,0,0,1.74,4.872" transform="translate(-185.296 -58.92)"/><path class="d" d="M434.979,150.085a4.312,4.312,0,1,0-2.052-5.744,4.313,4.313,0,0,0,2.052,5.744" transform="translate(-200.039 -65.618)"/><path class="d" d="M467.445,165.811a4.806,4.806,0,1,0-2.284-6.4,4.81,4.81,0,0,0,2.284,6.4" transform="translate(-214.926 -72.457)"/><path class="d" d="M500.053,181.531a5.187,5.187,0,1,0-2.465-6.911,5.187,5.187,0,0,0,2.465,6.911" transform="translate(-229.906 -79.392)"/><path class="d" d="M532.8,197.243a5.461,5.461,0,1,0-2.594-7.275,5.461,5.461,0,0,0,2.594,7.275" transform="translate(-244.98 -86.418)"/><path class="d" d="M565.621,212.954a5.678,5.678,0,1,0-2.7-7.565,5.68,5.68,0,0,0,2.7,7.565" transform="translate(-260.102 -93.493)"/><path class="d" d="M598.412,229.1v-9.93a5.667,5.667,0,0,0,0,9.93" transform="translate(-275.412 -101.37)"/><path class="d" d="M290.18,38.312a.439.439,0,0,0,.372-.794.439.439,0,0,0-.372.794" transform="translate(-134.094 -17.334)"/><path class="d" d="M322.575,54.037a.982.982,0,1,0-.468-1.31.979.979,0,0,0,.468,1.31" transform="translate(-148.932 -24.127)"/><path class="d" d="M354.9,69.764a1.584,1.584,0,1,0-.751-2.111,1.587,1.587,0,0,0,.751,2.111" transform="translate(-163.726 -30.872)"/><path class="d" d="M387.3,85.488a2.13,2.13,0,1,0-1.01-2.841,2.136,2.136,0,0,0,1.01,2.841" transform="translate(-178.565 -37.663)"/><path class="d" d="M419.693,101.214a2.676,2.676,0,1,0-1.27-3.565,2.672,2.672,0,0,0,1.27,3.565" transform="translate(-193.404 -44.456)"/><path class="d" d="M452.02,116.942a3.277,3.277,0,1,0-1.555-4.363,3.275,3.275,0,0,0,1.555,4.363" transform="translate(-208.196 -51.202)"/><path class="d" d="M484.63,132.662a3.658,3.658,0,1,0-1.74-4.872,3.656,3.656,0,0,0,1.74,4.872" transform="translate(-223.176 -58.135)"/><path class="d" d="M517.233,148.377A4.04,4.04,0,1,0,515.314,143a4.04,4.04,0,0,0,1.919,5.378" transform="translate(-238.155 -65.069)"/><path class="d" d="M549.981,164.092a4.313,4.313,0,1,0-2.049-5.745,4.308,4.308,0,0,0,2.049,5.745" transform="translate(-253.231 -72.097)"/><path class="d" d="M582.94,179.8a4.423,4.423,0,1,0-2.1-5.893,4.422,4.422,0,0,0,2.1,5.893" transform="translate(-268.445 -79.263)"/><path class="d" d="M339.12,20.908a.328.328,0,1,0-.153-.436.325.325,0,0,0,.153.436" transform="translate(-156.759 -9.382)"/><path class="d" d="M371.59,36.629a.817.817,0,1,0-.389-1.089.822.822,0,0,0,.389,1.089" transform="translate(-171.647 -16.221)"/><path class="d" d="M404.055,52.353a1.31,1.31,0,1,0-.622-1.745,1.309,1.309,0,0,0,.622,1.745" transform="translate(-186.531 -23.06)"/><path class="d" d="M436.524,68.077a1.8,1.8,0,1,0-.855-2.4,1.8,1.8,0,0,0,.855,2.4" transform="translate(-201.419 -29.9)"/><path class="d" d="M468.987,83.8a2.295,2.295,0,1,0-1.088-3.058,2.294,2.294,0,0,0,1.088,3.058" transform="translate(-216.304 -36.74)"/><path class="d" d="M501.667,99.517a2.621,2.621,0,1,0-1.244-3.492,2.619,2.619,0,0,0,1.244,3.492" transform="translate(-231.331 -43.72)"/><path class="d" d="M534.275,115.235a3,3,0,1,0-1.425-4,3,3,0,0,0,1.425,4" transform="translate(-246.312 -50.653)"/><path class="d" d="M567.162,130.942a3.167,3.167,0,1,0-1.5-4.218,3.166,3.166,0,0,0,1.5,4.218" transform="translate(-261.48 -57.773)"/><path class="d" d="M599.65,146.894v-5.536a3.3,3.3,0,0,0,0,5.536" transform="translate(-276.65 -65.379)"/><path class="d" d="M388.067,3.508a.217.217,0,0,0,.187-.393.214.214,0,0,0-.291.1.218.218,0,0,0,.1.294" transform="translate(-179.425 -1.43)"/><path class="d" d="M420.745,19.221a.546.546,0,1,0-.26-.725.546.546,0,0,0,.26.725" transform="translate(-194.453 -8.41)"/><path class="d" d="M453.28,34.942a.984.984,0,1,0-.466-1.31.987.987,0,0,0,.466,1.31" transform="translate(-209.386 -15.294)"/><path class="d" d="M485.959,50.657a1.31,1.31,0,1,0-.624-1.745,1.308,1.308,0,0,0,.624,1.745" transform="translate(-224.412 -22.276)"/><path class="d" d="M518.634,66.373a1.638,1.638,0,1,0-.777-2.182,1.634,1.634,0,0,0,.777,2.182" transform="translate(-239.439 -29.256)"/><path class="d" d="M551.313,82.091a1.965,1.965,0,1,0-.933-2.616,1.963,1.963,0,0,0,.933,2.616" transform="translate(-254.466 -36.237)"/><path class="d" d="M584.2,97.8a2.129,2.129,0,1,0-1.014-2.836A2.13,2.13,0,0,0,584.2,97.8" transform="translate(-269.635 -43.359)"/><path class="d" d="M470.258,1.708a.219.219,0,0,0-.4-.189.225.225,0,0,0,.1.293.218.218,0,0,0,.292-.1" transform="translate(-217.306 -0.645)"/><path class="d" d="M502.718,17.523a.49.49,0,1,0-.234-.654.49.49,0,0,0,.234.654" transform="translate(-232.381 -7.673)"/><path class="d" d="M535.461,33.236a.765.765,0,1,0-.36-1.017.764.764,0,0,0,.36,1.017" transform="translate(-247.454 -14.699)"/><path class="d" d="M568.281,48.947a.983.983,0,1,0-.467-1.308.983.983,0,0,0,.467,1.308" transform="translate(-262.573 -21.773)"/><path class="d" d="M552.152.079a.055.055,0,0,0-.026-.072.052.052,0,0,0-.073.024A.052.052,0,0,0,552.08.1a.05.05,0,0,0,.072-.026" transform="translate(-255.326 0)"/><path class="d" d="M584.969,15.813a.217.217,0,1,0-.1-.288.218.218,0,0,0,.1.288" transform="translate(-270.494 -7.121)"/></g></g></svg>