<svg xmlns="http://www.w3.org/2000/svg" width="20.23" height="17.871" viewBox="0 0 20.23 17.871"><defs><style>.a{fill:#ff3fbe;}</style></defs><path class="a" d="M19.347,20.7c-.913-.492-1.931.456-2.528,1.018C15.45,23.055,14.291,24.6,12.992,26c-1.44,1.545-2.774,3.09-4.248,4.6a12.668,12.668,0,0,0-2.317,2.809A46.088,46.088,0,0,0,2.67,29.762c-1.018-.772-2.7-1.334-2.668.527.07,2.423,2.212,5.021,3.792,6.671a4.01,4.01,0,0,0,2.563,1.475c1.229.07,2.493-1.4,3.23-2.212,1.3-1.4,2.353-2.985,3.546-4.424,1.545-1.9,3.125-3.757,4.635-5.688C18.715,24.916,21.7,21.967,19.347,20.7Zm-17.8,9.445a.266.266,0,0,0-.14.035,1.709,1.709,0,0,1-.386-.14h0Q1.177,29.937,1.546,30.148Z" transform="translate(-0.001 -20.566)"/></svg>