<svg xmlns="http://www.w3.org/2000/svg" width="43.563" height="23.401" viewBox="0 0 43.563 23.401"><defs><style>.a{fill:#f44545;}.b{fill:#fb5858;}.c{fill:#fff;}</style></defs><g transform="translate(-270 -87)"><path class="a" d="M293.4,89.7v18a2.7,2.7,0,0,1-2.7,2.7h-18a2.7,2.7,0,0,1-2.7-2.7v-18a2.7,2.7,0,0,1,2.7-2.7h18A2.7,2.7,0,0,1,293.4,89.7Z" transform="translate(0 0)"/><path class="b" d="M362.762,89.7v18a2.7,2.7,0,0,1-2.7,2.7H339.9a9.9,9.9,0,0,1-9.9-9.9V96.9a9.9,9.9,0,0,1,9.9-9.9h20.161A2.7,2.7,0,0,1,362.762,89.7Z" transform="translate(-49.199 0)"/><path class="c" d="M310.858,130.421a1.08,1.08,0,0,1-1.074,1.086c-1.064.006-1.79.008-2.29.008a8.748,8.748,0,0,1-1.175-.024,1.08,1.08,0,0,1-.9-1.064v-9.351a1.08,1.08,0,1,1,2.16,0v8.279c.619,0,1.433,0,2.191-.008h.006a1.08,1.08,0,0,1,1.08,1.074ZM314.915,120a1.08,1.08,0,0,0-1.08,1.08v9.358a1.08,1.08,0,1,0,2.16,0V121.08A1.08,1.08,0,0,0,314.915,120Zm21.136,9.273h-2.827V126.8h2.539a1.08,1.08,0,0,0,0-2.16h-2.539V122.16h2.827a1.08,1.08,0,1,0,0-2.16h-3.907a1.08,1.08,0,0,0-1.08,1.08v9.273a1.08,1.08,0,0,0,1.08,1.08h3.907a1.08,1.08,0,1,0,0-2.16Zm-8.768-9.2a1.081,1.081,0,0,0-1.366.685l-2.248,6.769-2.36-6.8a1.08,1.08,0,1,0-2.041.709l3.2,9.226a1.293,1.293,0,0,0,1.217.859h.009a1.3,1.3,0,0,0,1.216-.883l3.056-9.2a1.081,1.081,0,0,0-.685-1.366Z" transform="translate(-29.045 -27.056)"/></g></svg>