<svg xmlns="http://www.w3.org/2000/svg" xmlns:xlink="http://www.w3.org/1999/xlink" width="380" height="520" viewBox="0 0 380 520"><defs><style>.a{fill:#fff;}.b{fill:#ffe401;}.c{clip-path:url(#a);}.d{clip-path:url(#b);}.e{fill:#fff35a;}.f,.h{fill:none;}.f{stroke:#000;stroke-width:3px;}.g{stroke:none;}</style><clipPath id="a"><rect class="a" width="380" height="520" rx="10" transform="translate(17 416)"/></clipPath><clipPath id="b"><rect class="b" width="399.867" height="689"/></clipPath></defs><g transform="translate(-17 -416)"><g class="c"><g transform="translate(-503.073 332.787)"><g transform="translate(517.292 1.713)"><rect class="b" width="399.867" height="689"/><g class="d"><path class="e" d="M821.769-6.922l50.613-2.114s-8.154,10.154-23.316,27.781c-88.6,98.7-108.682,252.678-14.954,353.1C726.995,288.163,726.995,130.836,801.32,23.76,813.985,4.3,821.769-6.922,821.769-6.922Zm18.353,372.143c-52.875-127.27,24.117-267.857,141-327.339,20.307-11.09,28.472-18.995,28.472-18.995L961.345,3.449s-8.337,8.537-26.907,22.2C857.542,83.974,797.29,177.7,810.745,273.913,820.226,329.652,840.122,365.221,840.122,365.221Zm7.732-3.519c-3.7-140.487,116.8-244.255,249.719-259.541,22.524-3.644,31.238-9.829,31.238-9.829l-39.99-31.1s-9.991,5.781-31.1,12.989c-89.718,33.186-186.793,90.091-204.9,189.9C841.787,320.544,847.855,361.7,847.855,361.7Zm8.3-.577c38.211-136.564,198.881-190.119,327.042-159.137,22.034,3.357,32.267.335,32.267.335l-26.842-42.967s-9.753,4.286-32.091,3.512c-98.145-8.6-208.61,24.873-261.564,106.907C864.719,319.619,856.154,361.125,856.154,361.125Zm7.833,2.369c83.933-118.846,254.65-112.153,364.493-39.188,19.793,10.482,30.482,11.114,30.482,11.114l-10.413-49.58s-10.641.794-31.435-7.028c-91.784-40.86-202.245-47.553-285.332,10.907C886.121,326.775,863.987,363.494,863.987,363.494Zm6.434,4.966c121.015-83.647,278.342-23.395,358.5,84.883,15.22,17.555,25.063,22.01,25.063,22.01l7.291-50.133s-10.316-3.018-27.487-18c-71.639-68.845-175.407-119.054-274.861-86.268C903.438,340.893,870.421,368.46,870.421,368.46Zm4.3,6.918c140.152-40.352,270.7,66.762,311.338,197.8,8.057,22.974,15.1,31.846,15.1,31.846l24.1-44.559s-8.579-6.693-19.4-28.189c-40.356-93.486-127.387-167.128-232.24-172.913C914.759,360.109,874.717,375.378,874.717,375.378Zm1.706,8.033c145.139,11.867,232.17,149.107,230.73,286.5.059,24.452-.238,38.677-.238,38.677l37.966-33.542s-2.7-12.747-5.8-36.885c-10.406-98.953-67.308-199.371-164.455-237.7C918.958,382.1,876.423,383.411,876.423,383.411Zm-1.04,8.213c146.178,60.56,179.651,248.009,112.706,378.556,76.988-10.043,60.252-103.768,56.905-160.673-3.347-63.6-33.473-130.547-82.839-169.715C915.715,404.4,875.384,391.624,875.384,391.624Zm-3.643,7.47c116.35,103.3,86.223,290.751-17.544,391.169,16.736-3.347,36.819,6.7,46.862-6.693,70.3-87.032,97.075-210.882,36.5-310.406C905.434,424.557,871.74,399.094,871.74,399.094Zm-5.84,5.9c71.981,134.219-11.7,304.935-148.945,358.494C797.29,807,857.542,696.538,887.668,632.939,907.755,589.424,911.1,542.561,903.3,496.8,889.178,440.337,865.9,404.993,865.9,404.993Zm-7.4,3.654c22.48,154-118.111,277.848-262.045,284.545,13.39,10.04,30.126,26.779,43.516,26.779C747.081,706.581,847.5,622.9,862.992,507.607,868.639,449.831,858.5,408.647,858.5,408.647Zm-8.189.912C820.723,559.3,646.66,629.593,509.419,579.38c6.693,16.736,16.736,40.169,26.779,43.516C643.313,646.329,767.164,606.16,821.317,503.76,846.1,451.682,850.307,409.558,850.307,409.558Zm-8.009-2.089c-81.827,131.742-265.933,128.4-376.394,38.018,3.347,90.378,120.5,97.075,190.8,90.378,46.862-3.347,93.725-16.736,126.807-50.616C824.277,445.369,842.3,407.469,842.3,407.469Zm-6.762-4.946C713.608,499.045,539.545,428.75,472.6,301.549c-3.347,16.74-13.39,40.169-6.693,50.212C529.5,445.486,646.66,495.7,754.545,454.127,806,431.454,835.536,402.523,835.536,402.523Zm-4.579-7.194c-147.474,43.464-278.021-83.737-304.8-220.977-10.043,13.39-23.433,33.473-20.083,50.209,30.126,100.421,120.5,187.453,232.215,189.7C793.726,411.589,830.956,395.329,830.956,395.329Zm-1.772-8.489c-152.4-8.3-229.387-179.016-205.958-316.256C552.935,104.057,593.1,184.4,613.187,241.3s63.6,107.118,123.761,129.4C789.16,388.3,829.185,386.84,829.185,386.84Zm1.267-8.665c-123.54-63.236-146.969-220.559-96.211-336.781,9.045-21.634,15.676-34.453,15.676-34.453L701.752,24.627c-35.01,99.516-35.01,226.714,49.059,304.383C792.959,364.637,830.452,378.175,830.452,378.175Z" transform="translate(-648.909 -28.088)"/></g></g></g></g><g class="f" transform="translate(17 416)"><rect class="g" width="380" height="520" rx="10"/><rect class="h" x="1.5" y="1.5" width="377" height="517" rx="8.5"/></g></g></svg>