<svg xmlns="http://www.w3.org/2000/svg" width="48.744" height="27.341" viewBox="0 0 48.744 27.341"><defs><style>.a{fill:#ff84d5;}.a,.b,.c{stroke:#000;}.b{fill:#ffef41;}.c{fill:#7422ff;}</style></defs><g transform="translate(0.5 0.5)"><g transform="translate(0 0)"><path class="a" d="M4065.367,641.748v-8.232a1.646,1.646,0,0,0-1.646-1.646H4019.27a1.647,1.647,0,0,0-1.646,1.646v8.232a3.293,3.293,0,1,1,0,6.585v8.232a1.647,1.647,0,0,0,1.646,1.646h44.451a1.646,1.646,0,0,0,1.646-1.646v-8.232a3.293,3.293,0,0,1,0-6.585Z" transform="translate(-4017.623 -631.87)"/><g transform="translate(33.75 2.469)"><path class="b" d="M4345.623,687.87h1.646v1.646h-1.646Z" transform="translate(-4345.623 -684.577)"/><path class="b" d="M4345.623,719.87h1.646v1.646h-1.646Z" transform="translate(-4345.623 -713.285)"/><path class="b" d="M4345.623,751.87h1.646v1.646h-1.646Z" transform="translate(-4345.623 -741.992)"/><path class="b" d="M4345.623,783.87h1.646v1.646h-1.646Z" transform="translate(-4345.623 -770.699)"/><path class="b" d="M4345.623,815.87h1.646v1.646h-1.646Z" transform="translate(-4345.623 -799.407)"/><path class="b" d="M4345.623,847.87h1.646v1.646h-1.646Z" transform="translate(-4345.623 -828.114)"/><path class="b" d="M4345.623,655.87h1.646v1.646h-1.646Z" transform="translate(-4345.623 -655.87)"/></g></g><g transform="translate(12.337 7.409)"><g transform="translate(0.818 0.566)"><circle class="b" cx="1.5" cy="1.5" r="1.5" transform="translate(6.388 7.289)"/><circle class="b" cx="1.5" cy="1.5" r="1.5" transform="translate(0.388 0.289)"/></g><path class="c" d="M3539.238,735.9l-9.878,9.878a.823.823,0,0,0,1.144,1.184l.02-.02,9.878-9.878a.823.823,0,0,0-1.164-1.164Z" transform="translate(-3529.109 -735.661)"/><path class="c" d="M3595.675,799.573a2.47,2.47,0,1,0,2.47,2.469A2.469,2.469,0,0,0,3595.675,799.573Zm0,3.293a.823.823,0,1,1,.823-.823A.823.823,0,0,1,3595.675,802.866Z" transform="translate(-3586.611 -792.988)"/><path class="c" d="M3531.676,740.512a2.47,2.47,0,1,0-2.47-2.469A2.469,2.469,0,0,0,3531.676,740.512Zm0-3.293a.823.823,0,1,1-.823.823A.823.823,0,0,1,3531.676,737.219Z" transform="translate(-3529.196 -735.573)"/></g></g></svg>