<svg xmlns="http://www.w3.org/2000/svg" width="37.169" height="37.169" viewBox="0 0 37.169 37.169"><defs><style>.a{fill:#9f81ff;}.a,.b,.c{stroke:#000;}.b{fill:#d7fc7e;}.c{fill:#ffef41;}</style></defs><g transform="translate(25.716 -2.759) rotate(45)"><path class="a" d="M3799.55,971.118v4.85h.522a1.752,1.752,0,0,1,0,3.5h-3.315a1.752,1.752,0,0,1,0-3.5h.521v-4.849l-8.913,5.043v21.23h20.1v-21.23Z" transform="translate(-3788.365 -965.859)"/><path class="b" d="M3894.981,1144h-1.623a.924.924,0,0,1-.923-.923v-.712a.924.924,0,0,1,.923-.923h3.043a.5.5,0,0,0,0-.994h-1.735v-1.079a.5.5,0,1,0-.994,0v1.079h-.314a1.92,1.92,0,0,0-1.917,1.918v.712a1.92,1.92,0,0,0,1.917,1.917h1.623a.924.924,0,0,1,.923.923v.712a.924.924,0,0,1-.923.923h-3.043a.5.5,0,1,0,0,.994h1.734v1.08a.5.5,0,0,0,.994,0v-1.08h.314a1.92,1.92,0,0,0,1.918-1.917v-.712A1.92,1.92,0,0,0,3894.981,1144Z" transform="translate(-3884.12 -1121.698)"/><path class="c" d="M3913.853,897.074h2.272v10.108h-2.272Z" transform="translate(-3904.941 -897.074)"/><path class="b" d="M3788.365,1341.07h20.1v3.835h-20.1Z" transform="translate(-3788.365 -1309.537)"/></g></svg>