<svg xmlns="http://www.w3.org/2000/svg" width="25.086" height="25.086" viewBox="0 0 25.086 25.086"><defs><style>.a{fill:#fff;}.b{fill:#656565;}</style></defs><ellipse class="a" cx="9.749" cy="9.749" rx="9.749" ry="9.749" transform="translate(1.996 3.591)"/><path class="a" d="M839.657,165.543a7.725,7.725,0,1,1,7.725-7.725A7.734,7.734,0,0,1,839.657,165.543Z" transform="translate(-827.754 -144.636)"/><path class="a" d="M896.421,219.089a4.506,4.506,0,1,1,4.506-4.506A4.511,4.511,0,0,1,896.421,219.089Z" transform="translate(-884.573 -201.345)"/><path class="a" d="M1140.028,35.513l-2.5-.228-.228-2.5-2.777,2.777.273,2.458,2.458.273Z" transform="translate(-1115.457 -32.266)"/><path class="b" d="M756.788,29.152l.052,0a.47.47,0,0,0,.332-.138l2.535-2.535a.47.47,0,0,0-.29-.8l-1.9-.172-.172-1.9a.47.47,0,0,0-.8-.29l-2.535,2.535a.47.47,0,0,0-.135.384l.224,2.02-.475.475a10.421,10.421,0,0,0-6.584-2.732v-.893a.47.47,0,0,0-.94,0v.893a10.476,10.476,0,0,0-9.981,9.981h-.893a.47.47,0,1,0,0,.94h.893a10.476,10.476,0,0,0,9.981,9.981V47.8a.47.47,0,0,0,.94,0v-.893a10.476,10.476,0,0,0,9.981-9.981h.893a.47.47,0,0,0,0-.94h-.893a10.423,10.423,0,0,0-2.732-6.584l.475-.475ZM756.5,24.7l.117,1.286a.47.47,0,0,0,.426.426l1.286.117-1.666,1.666-1.646-.183-.183-1.646Zm-.42,11.289h-.663a.47.47,0,0,0,0,.94h.663a9.535,9.535,0,0,1-9.04,9.04v-.662a.47.47,0,1,0-.94,0v.662a9.535,9.535,0,0,1-9.04-9.04h.662a.47.47,0,1,0,0-.94h-.663a9.535,9.535,0,0,1,9.04-9.04v.662a.47.47,0,0,0,.94,0v-.662a9.485,9.485,0,0,1,5.919,2.456l-1.415,1.415a7.531,7.531,0,1,0,.665.665l1.415-1.415A9.485,9.485,0,0,1,756.085,35.987Zm-9.843.8a.47.47,0,0,0,.665,0l2.554-2.554a3.65,3.65,0,1,1-.665-.665l-2.554,2.554A.47.47,0,0,0,746.242,36.79Zm3.223-3.888a4.591,4.591,0,1,0,.665.665l1.418-1.418a6.589,6.589,0,1,1-.665-.665Z" transform="translate(-734.76 -23.186)"/></svg>