<svg xmlns="http://www.w3.org/2000/svg" width="67" height="48.027" viewBox="0 0 67 48.027"><defs><style>.a{fill:#fff;}.b{fill:#231f20;}.c{fill:#ffe600;}.d{fill:#ffed10;}.e{fill:#6ffc00;}.f{fill:#52ebff;}.g{fill:#ff57d7;}.h{fill:#9fffe4;}</style></defs><g transform="translate(-110.345 -517.677)"><g transform="translate(110.345 517.677)"><path class="a" d="M176.409,523.86c-.066-.031-.682-.263-1.368-.516l-.659-.173-.609-.159c-.76-.356-1.339-.973-1.284-1.37l.073-.323c.226-.995.536-2.358-.567-3.032a1.524,1.524,0,0,0-.794-.222c-.942,0-1.716.8-2.536,1.655L168.4,520a3.457,3.457,0,0,1-.906.62h-.211a5.249,5.249,0,0,1-1.55-.379,7.454,7.454,0,0,0-2.451-.53h-.194c-.21.021-.688.08-1.063.132s-.641.2-.591.342-.106.132-.348-.01l-.152-.066a18.491,18.491,0,0,0-6.059-1.488c-.84-.058-1.675-.086-2.484-.086a28.987,28.987,0,0,0-8.476,1.2c-5.9,1.8-12.373,8.434-12.373,8.434-1.276,1.307-4.575,1.414-5.557,1.24s-1.794-.316-1.8-.316-3.558.772-4.15,1.7-1.307,1.64-1.59,1.576h-.311c-.05,0-.1,0-.152,0a5.322,5.322,0,0,0-4.138,2.7l-.871,1.374a7.819,7.819,0,0,1-1.97,5.127,13.37,13.37,0,0,0-.229,1.721,4.582,4.582,0,0,0,.155,2.5c.913,1.583,1.042,3.771.288,4.864l.588,1.559a3.465,3.465,0,0,0,1.162,1.481,4.3,4.3,0,0,1,.381.344,2.569,2.569,0,0,1,.43.6c.07.122.148.259.253.427a5.657,5.657,0,0,0,4.25,3.075l.208.026c.191.013.346.047.346.077s.73,1.359,1.621,2.953l3.477,3.557a11.245,11.245,0,0,0,5.227.679c1.164-.266,3.479-2.125,3.6-2.016l.114.1A7.74,7.74,0,0,0,134.949,565a8.521,8.521,0,0,0,3.474.719,9.934,9.934,0,0,0,2.2-.252,5.269,5.269,0,0,0,3.938-2.865c.629-1.715,1.47-3.079,1.867-3.031h.346a4.2,4.2,0,0,0,4.253-2.908c.821-2.452,0-3.719,0-3.719a6.813,6.813,0,0,1-.44-5.816,4.928,4.928,0,0,0-.122-3.045,7.307,7.307,0,0,0-2.648-3.81,2.908,2.908,0,0,1-.584-4.387l8.445-5.69,4.245-2.738c1.484-.453,2.175-.193,1.54.635l-.487.954a2.31,2.31,0,0,0-.194,2.2,1.511,1.511,0,0,0,1.364.7,7.444,7.444,0,0,0,2.67-.825c.243-.106.473-.207.629-.266.269-.1.543-.224.807-.342a6.263,6.263,0,0,1,1.345-.492l.037-.006c.036-.006.141.17.234.391l.132.264c.053.107.121.258.2.439l.869,1.918a28.7,28.7,0,0,0,2.492,1.711c.048-.006.3-.044.552-.086a.574.574,0,0,0,.465-.547c0-.259,0-.684-.006-.944l-.007-.308-.064-2.68a4.019,4.019,0,0,1,1.139-2.305l.364-.139c1.8-.686,3.23-1.227,3.321-2.416l.02-.253A8.28,8.28,0,0,0,176.409,523.86Z" transform="translate(-110.533 -517.88)"/><path class="b" d="M245.718,529.177a.184.184,0,0,1-.065-.011l-.432-.16-.429-.112a.184.184,0,0,1,.094-.357l.446.117.451.166a.184.184,0,0,1-.064.357Z" transform="translate(-180.778 -523.369)"/><path class="b" d="M243.112,528.317a.194.194,0,0,1-.047-.006l-.478-.128a3.665,3.665,0,0,1-.425-.235.185.185,0,0,1,.2-.311,3.256,3.256,0,0,0,.367.205l.429.112a.184.184,0,0,1-.047.363Z" transform="translate(-179.426 -522.885)"/><path class="b" d="M240.536,525.505a.185.185,0,0,1-.157-.087.848.848,0,0,1-.155-.557l.1-.464a.187.187,0,0,1,.221-.14.185.185,0,0,1,.14.221l-.1.45a.534.534,0,0,0,.1.3.184.184,0,0,1-.156.283Z" transform="translate(-178.451 -521.125)"/><path class="b" d="M237.323,520.18h-.017a.185.185,0,0,1-.167-.2c.011-.117.017-.225.017-.328a2.145,2.145,0,0,0-.078-.6.185.185,0,1,1,.354-.1,2.489,2.489,0,0,1,.092.706c0,.116-.006.234-.018.363A.185.185,0,0,1,237.323,520.18ZM234,518.93a.184.184,0,0,1-.125-.32,4.593,4.593,0,0,1,.837-.632.184.184,0,0,1,.182.321,4.222,4.222,0,0,0-.769.583A.184.184,0,0,1,234,518.93Zm2.7-.567a.184.184,0,0,1-.11-.037q-.06-.045-.127-.086a1.339,1.339,0,0,0-.7-.195.186.186,0,0,1-.186-.185.183.183,0,0,1,.183-.185,1.711,1.711,0,0,1,.894.249c.055.034.107.068.156.105a.185.185,0,0,1-.111.332Z" transform="translate(-175.091 -517.677)"/><path class="b" d="M231.062,522.032a.185.185,0,0,1-.11-.333,4.282,4.282,0,0,0,.342-.281l.313-.325a.184.184,0,1,1,.264.257l-.32.332a4.464,4.464,0,0,1-.38.313A.182.182,0,0,1,231.062,522.032Z" transform="translate(-173.552 -519.439)"/><path class="b" d="M229.431,523.163h-.241a2.212,2.212,0,0,1-.273-.018.185.185,0,1,1,.046-.366,1.841,1.841,0,0,0,.226.015h.177a2.038,2.038,0,0,0,.332-.192.185.185,0,1,1,.207.305,2.141,2.141,0,0,1-.447.246Z" transform="translate(-172.44 -520.243)"/><path class="b" d="M225.187,522.339a.194.194,0,0,1-.054-.008c-.193-.059-.393-.128-.6-.2l-.093-.032a.185.185,0,0,1,.121-.349l.083.029c.209.072.4.139.594.2a.184.184,0,0,1-.054.361Zm-1.368-.452a.168.168,0,0,1-.053-.008c-.246-.073-.469-.129-.682-.171a.185.185,0,0,1,.072-.362c.224.044.458.1.716.18a.185.185,0,0,1-.053.361Z" transform="translate(-169.388 -519.599)"/><path class="b" d="M219.682,521.55a.185.185,0,0,1-.022-.368c.19-.024.359-.043.462-.054h.213q.141,0,.279.008a.185.185,0,0,1-.022.369c-.085-.005-.17-.008-.257-.008h-.185c-.1.01-.264.029-.445.052Z" transform="translate(-167.585 -519.487)"/><path class="b" d="M216.257,522.381a.787.787,0,0,1-.373-.13l-.142-.062c-.089-.039-.178-.077-.268-.114a.185.185,0,0,1,.142-.341l.274.117.172.077a.984.984,0,0,0,.113.058.174.174,0,0,1,.086-.061.179.179,0,0,1,.23.111h0a.25.25,0,0,1-.062.288A.257.257,0,0,1,216.257,522.381Zm-.114-.22h0Z" transform="translate(-165.415 -519.797)"/><path class="b" d="M128.926,532.064a.182.182,0,0,1-.117-.042.185.185,0,0,1-.025-.26,7.532,7.532,0,0,0,.521-.714.184.184,0,0,1,.31.2,7.932,7.932,0,0,1-.546.75A.183.183,0,0,1,128.926,532.064Zm1.218-1.311a.184.184,0,0,1-.09-.346,7.074,7.074,0,0,1,.846-.39.185.185,0,1,1,.136.343,6.685,6.685,0,0,0-.8.369A.183.183,0,0,1,130.143,530.754Zm1.68-.681a.184.184,0,0,1-.056-.36c.277-.088.573-.175.879-.258a.184.184,0,1,1,.1.356c-.3.082-.592.167-.863.254A.178.178,0,0,1,131.823,530.073Zm4.441-.11h0a5.657,5.657,0,0,1-.85-.066l-.08-.014a.184.184,0,1,1,.063-.363l.07.012a5.422,5.422,0,0,0,.8.062.185.185,0,0,1,0,.369Zm.905-.025a.185.185,0,0,1-.012-.369c.3-.021.6-.052.887-.1a.185.185,0,1,1,.054.365c-.3.044-.605.077-.916.1Zm-2.7-.21-.032,0-.794-.138-.029.006a.185.185,0,0,1-.079-.361.406.406,0,0,1,.1-.018c.022,0,.026,0,.862.147a.185.185,0,0,1-.031.367Zm4.491-.061a.185.185,0,0,1-.045-.364,6.476,6.476,0,0,0,.839-.266.185.185,0,1,1,.137.343,6.9,6.9,0,0,1-.887.281A.178.178,0,0,1,138.961,529.667Zm1.665-.693a.185.185,0,0,1-.105-.336,2.4,2.4,0,0,0,.349-.291s.1-.108.3-.3a.184.184,0,0,1,.258.264c-.19.186-.293.292-.293.293a2.775,2.775,0,0,1-.4.337A.186.186,0,0,1,140.625,528.973Zm1.329-1.238a.185.185,0,0,1-.126-.319c.2-.185.422-.392.671-.617a.184.184,0,1,1,.247.274c-.247.223-.47.429-.665.613A.184.184,0,0,1,141.954,527.736Zm1.346-1.217a.185.185,0,0,1-.121-.324c.218-.19.449-.389.691-.593a.185.185,0,0,1,.238.283q-.36.3-.686.588A.185.185,0,0,1,143.3,526.518Zm1.388-1.169a.185.185,0,0,1-.117-.328q.345-.28.712-.567a.184.184,0,1,1,.227.291c-.243.19-.479.378-.707.563A.183.183,0,0,1,144.689,525.349Zm1.431-1.116a.185.185,0,0,1-.111-.333c.24-.18.486-.36.735-.538a.184.184,0,1,1,.215.3q-.371.266-.729.533A.182.182,0,0,1,146.119,524.233Zm1.476-1.054a.184.184,0,0,1-.1-.337q.375-.255.761-.5a.185.185,0,0,1,.2.311q-.382.244-.753.5A.186.186,0,0,1,147.6,523.179Zm1.528-.978a.185.185,0,0,1-.1-.343c.265-.159.531-.313.79-.456a.185.185,0,0,1,.179.323c-.255.141-.517.293-.78.45A.18.18,0,0,1,149.124,522.2Zm1.586-.879a.184.184,0,0,1-.083-.349c.278-.141.556-.273.825-.4a.184.184,0,0,1,.152.336c-.265.119-.537.25-.81.388A.18.18,0,0,1,150.71,521.322Zm1.653-.744a.184.184,0,0,1-.067-.356c.293-.115.585-.218.865-.307a.184.184,0,0,1,.112.352c-.273.087-.557.188-.843.3A.182.182,0,0,1,152.363,520.578Zm16.914-.425a.188.188,0,0,1-.062-.011c-.278-.1-.565-.195-.851-.283a.184.184,0,0,1,.107-.353c.292.089.585.186.868.288a.185.185,0,0,1-.062.359Zm-15.191-.134a.185.185,0,0,1-.049-.363c.291-.079.588-.156.884-.226a.185.185,0,0,1,.085.359c-.292.069-.585.145-.872.223A.2.2,0,0,1,154.086,520.019Zm13.459-.4a.185.185,0,0,1-.046-.005c-.289-.073-.584-.14-.875-.2a.184.184,0,1,1,.073-.361c.3.06.6.128.892.2a.184.184,0,0,1-.045.363Zm-11.7-.023a.185.185,0,0,1-.036-.366c.3-.06.6-.116.9-.166a.184.184,0,1,1,.061.364c-.3.049-.593.1-.885.164A.2.2,0,0,1,155.849,519.6Zm1.787-.3a.184.184,0,0,1-.025-.367c.3-.04.6-.077.906-.109a.182.182,0,0,1,.2.164.185.185,0,0,1-.164.2c-.3.031-.6.068-.894.107Zm8.133-.034-.028,0c-.3-.045-.6-.082-.889-.112a.184.184,0,0,1-.166-.2.187.187,0,0,1,.2-.165c.3.03.6.068.908.114a.185.185,0,0,1-.028.367Zm-6.33-.155a.185.185,0,0,1-.014-.369c.3-.023.606-.041.91-.055a.187.187,0,0,1,.193.176.184.184,0,0,1-.175.193c-.3.013-.6.032-.9.054Zm4.528-.026h-.011q-.452-.026-.9-.042a.183.183,0,0,1-.178-.19.189.189,0,0,1,.191-.178q.452.016.909.042a.184.184,0,0,1-.01.369Zm-2.717-.058a.184.184,0,0,1,0-.369c.3-.005.6-.007.911,0a.185.185,0,0,1,0,.369h0c-.3,0-.6,0-.9,0Z" transform="translate(-119.992 -518.189)"/><path class="b" d="M125.8,547.93a.184.184,0,0,1-.01-.369c.055,0,.108,0,.161,0l.351,0s.071,0,.259-.144a.184.184,0,1,1,.225.292.761.761,0,0,1-.542.216h-.294c-.046,0-.093,0-.14,0Z" transform="translate(-118.351 -533.253)"/><path class="b" d="M116.8,551.208a.182.182,0,0,1-.1-.029.184.184,0,0,1-.057-.254l.14-.222c.118-.186.243-.367.373-.536a.184.184,0,0,1,.293.223c-.123.162-.243.334-.355.511l-.14.221A.183.183,0,0,1,116.8,551.208Zm1.1-1.423a.182.182,0,0,1-.131-.054.184.184,0,0,1,0-.261,5.874,5.874,0,0,1,.705-.6.185.185,0,0,1,.216.3,5.559,5.559,0,0,0-.661.565A.183.183,0,0,1,117.894,549.785Zm1.454-1.046a.185.185,0,0,1-.08-.351,4.849,4.849,0,0,1,.876-.324.184.184,0,1,1,.094.357,4.458,4.458,0,0,0-.809.3A.188.188,0,0,1,119.348,548.739Z" transform="translate(-113.632 -533.609)"/><path class="b" d="M115.269,556.731h-.006a.184.184,0,0,1-.178-.19,3.426,3.426,0,0,0-.013-.437l-.007-.063.281-.443a.184.184,0,1,1,.312.2l-.213.336a3.819,3.819,0,0,1,.009.421A.185.185,0,0,1,115.269,556.731Z" transform="translate(-112.82 -537.518)"/><path class="b" d="M111.478,571.131l-.023,0a.184.184,0,0,1-.16-.206,4.705,4.705,0,0,0,.035-.582q0-.158-.009-.319a.184.184,0,0,1,.173-.2.188.188,0,0,1,.2.173c.007.115.01.229.01.342a5.076,5.076,0,0,1-.038.628A.185.185,0,0,1,111.478,571.131Zm-.1-1.862a.185.185,0,0,1-.18-.146,6.014,6.014,0,0,0-.259-.87.184.184,0,0,1,.344-.132,6.341,6.341,0,0,1,.275.924.185.185,0,0,1-.141.22A.192.192,0,0,1,111.376,569.269Zm-.667-1.743a.184.184,0,0,1-.17-.113,3.165,3.165,0,0,1-.192-.974.185.185,0,0,1,.368-.026,2.81,2.81,0,0,0,.164.858.184.184,0,0,1-.1.241A.18.18,0,0,1,110.709,567.525Zm-.179-1.852h-.011a.185.185,0,0,1-.174-.2c.011-.194.029-.4.052-.6l.039-.338a.185.185,0,1,1,.367.042l-.039.337c-.022.2-.039.4-.05.585A.184.184,0,0,1,110.53,565.673Zm.2-1.86h-.025a.185.185,0,0,1-.158-.208c.068-.493.084-.511.123-.554.1-.109.2-.228.295-.351a.184.184,0,1,1,.291.227c-.092.119-.187.233-.282.34-.01.044-.028.15-.061.389A.185.185,0,0,1,110.734,563.813Zm.907-1.592a.185.185,0,0,1-.159-.279,8.723,8.723,0,0,0,.428-.812.185.185,0,0,1,.335.155,9.15,9.15,0,0,1-.446.846A.183.183,0,0,1,111.641,562.221Zm.785-1.7a.187.187,0,0,1-.06-.01.185.185,0,0,1-.115-.234,7.594,7.594,0,0,0,.244-.881.184.184,0,1,1,.361.076,7.831,7.831,0,0,1-.256.924A.185.185,0,0,1,112.425,560.523Z" transform="translate(-110.345 -539.478)"/><path class="b" d="M111.707,586.576a.185.185,0,0,1-.173-.12l-.2-.522.055-.079a2.1,2.1,0,0,0,.2-.372.185.185,0,0,1,.34.144,2.6,2.6,0,0,1-.184.355l.13.343a.185.185,0,0,1-.107.238A.174.174,0,0,1,111.707,586.576Z" transform="translate(-110.865 -553.176)"/><path class="b" d="M118.028,595.231a.18.18,0,0,1-.061-.01,5,5,0,0,1-.86-.4.184.184,0,0,1,.186-.318,4.635,4.635,0,0,0,.8.368.184.184,0,0,1-.061.358Zm-1.57-.916a.187.187,0,0,1-.12-.044,6.251,6.251,0,0,1-.663-.669.185.185,0,0,1,.28-.241,5.793,5.793,0,0,0,.624.629.184.184,0,0,1-.121.324Zm-1.2-1.374a.185.185,0,0,1-.152-.08c-.112-.163-.225-.336-.346-.529-.058-.093-.108-.176-.153-.253a.184.184,0,1,1,.318-.186c.044.074.092.154.148.244.118.188.228.357.337.515a.185.185,0,0,1-.152.289Zm-1.139-1.584.114-.149-.136.126a4.18,4.18,0,0,0-.364-.328c-.094-.079-.188-.159-.285-.245a.185.185,0,0,1,.247-.275c.093.084.185.16.271.233a4.582,4.582,0,0,1,.4.363l-.114.149Zm-1.149-1.235a.183.183,0,0,1-.155-.084,3.052,3.052,0,0,1-.3-.59l-.1-.273a.184.184,0,0,1,.345-.13l.1.272a2.688,2.688,0,0,0,.263.519.185.185,0,0,1-.155.285Z" transform="translate(-111.425 -555.04)"/><path class="b" d="M126.746,602.481a.185.185,0,0,1-.164-.1l-.02-.039a1.478,1.478,0,0,0-.217-.028l-.219-.027c-.087-.011-.173-.023-.257-.038a.184.184,0,1,1,.061-.364q.118.02.241.035l.209.026c.272.018.467.062.5.209l.029.056a.185.185,0,0,1-.079.249A.188.188,0,0,1,126.746,602.481Zm-.145-.128h0Z" transform="translate(-118.405 -561.835)"/><path class="b" d="M137.393,610.81c-.226,0-.47-.01-.725-.029a.185.185,0,0,1-.17-.2.182.182,0,0,1,.2-.17,8.764,8.764,0,0,0,.889.025h0a.185.185,0,0,1,0,.369Zm1.1-.109a.184.184,0,0,1-.047-.363,4.007,4.007,0,0,0,.8-.335.185.185,0,0,1,.172.327,4.326,4.326,0,0,1-.876.365A.2.2,0,0,1,138.49,610.7Zm-2.71-.021-.028,0c-.3-.045-.606-.1-.905-.165a.185.185,0,1,1,.078-.361c.291.063.587.117.882.16a.185.185,0,0,1-.027.367Zm-1.775-.383a.193.193,0,0,1-.051-.007c-.284-.082-.556-.171-.809-.265l-.038-.015-.079-.08a.185.185,0,0,1,.264-.258l.021.021c.233.086.482.167.743.242a.185.185,0,0,1-.051.362Zm6.107-.4a.184.184,0,0,1-.1-.341c.288-.179.571-.365.758-.49a.184.184,0,1,1,.2.307c-.189.126-.475.314-.768.5A.188.188,0,0,1,140.113,609.9Zm-7.587-.56a.183.183,0,0,1-.132-.056l-.635-.649a.185.185,0,0,1,.264-.258l.635.649a.185.185,0,0,1-.132.314Zm-1.269-1.3a.185.185,0,0,1-.132-.055l-.635-.65a.184.184,0,0,1,.264-.258l.635.649a.185.185,0,0,1,0,.261A.187.187,0,0,1,131.257,608.036Zm-1.269-1.3a.183.183,0,0,1-.132-.056l-.283-.3-.265-.476a.184.184,0,1,1,.322-.18l.254.455.236.242a.185.185,0,0,1-.132.314Zm-.96-1.53a.185.185,0,0,1-.162-.1c-.163-.3-.312-.564-.438-.8a.185.185,0,1,1,.323-.178c.127.232.275.5.439.795a.185.185,0,0,1-.162.274Z" transform="translate(-119.815 -562.968)"/><path class="b" d="M156.764,613.725a.182.182,0,0,1-.123-.047l-.269-.242c-.046.024-.125.07-.257.155a.185.185,0,0,1-.2-.311c.329-.21.493-.306.629-.185l.342.309a.184.184,0,0,1-.123.322Z" transform="translate(-134.198 -567.686)"/><path class="b" d="M163.642,612.59h0a9.2,9.2,0,0,1-.974-.06.185.185,0,0,1,.042-.367,8.871,8.871,0,0,0,.936.058.185.185,0,0,1,0,.369Zm.955-.04a.184.184,0,0,1-.017-.368c.307-.028.62-.072.93-.131a.185.185,0,0,1,.068.363c-.322.06-.646.106-.965.136Zm-2.853-.181a.18.18,0,0,1-.041,0,8.418,8.418,0,0,1-.939-.274.185.185,0,0,1,.124-.348,8.085,8.085,0,0,0,.9.263.185.185,0,0,1-.041.364Zm4.73-.177a.185.185,0,0,1-.054-.361,6.673,6.673,0,0,0,.869-.332.184.184,0,1,1,.156.334,7.048,7.048,0,0,1-.916.35A.178.178,0,0,1,166.475,612.192Zm-6.528-.468a.185.185,0,0,1-.086-.021,6.242,6.242,0,0,1-.832-.527.185.185,0,0,1,.22-.3,5.885,5.885,0,0,0,.783.5.184.184,0,0,1-.086.348Zm8.252-.344a.185.185,0,0,1-.1-.337,5.123,5.123,0,0,0,.714-.584.184.184,0,1,1,.259.263,5.522,5.522,0,0,1-.766.626A.186.186,0,0,1,168.2,611.38Zm1.353-1.338a.187.187,0,0,1-.1-.031.185.185,0,0,1-.05-.256,2.882,2.882,0,0,0,.291-.529c.036-.1.074-.2.111-.293a.185.185,0,0,1,.344.134c-.037.095-.073.191-.109.287a3.216,3.216,0,0,1-.331.607A.184.184,0,0,1,169.552,610.041Zm.8-1.738a.191.191,0,0,1-.078-.017.185.185,0,0,1-.089-.245c.148-.317.3-.608.449-.864a.185.185,0,0,1,.319.186c-.144.247-.29.527-.433.835A.185.185,0,0,1,170.348,608.3Z" transform="translate(-135.836 -564.563)"/><path class="b" d="M184.8,605.553a.185.185,0,0,1-.134-.312.689.689,0,0,1,.528-.284h.449a.179.179,0,0,1,.188.181.185.185,0,0,1-.181.188l-.119,0-.368,0s-.072.005-.231.172A.184.184,0,0,1,184.8,605.553Z" transform="translate(-149.294 -563.445)"/><path class="b" d="M187.061,569.581a.185.185,0,0,1-.035-.366,4.415,4.415,0,0,0,.852-.251.185.185,0,1,1,.14.342,4.811,4.811,0,0,1-.923.273Zm1.7-.707a.184.184,0,0,1-.107-.335,3.754,3.754,0,0,0,.652-.592.185.185,0,1,1,.279.242,4.089,4.089,0,0,1-.717.65A.181.181,0,0,1,188.759,568.874Zm1.208-1.384a.184.184,0,0,1-.163-.271,4.511,4.511,0,0,0,.3-.694c.014-.044.028-.086.042-.129a.184.184,0,1,1,.352.11c-.014.045-.029.09-.044.136a4.887,4.887,0,0,1-.322.751A.185.185,0,0,1,189.967,567.49Zm.579-1.753a.175.175,0,0,1-.033,0,.184.184,0,0,1-.148-.214,5.689,5.689,0,0,0,.093-.892.189.189,0,0,1,.188-.181.186.186,0,0,1,.181.188,6.016,6.016,0,0,1-.1.95A.184.184,0,0,1,190.546,565.737Zm.022-1.844a.184.184,0,0,1-.181-.15,2.432,2.432,0,0,0-.264-.779l-.017-.026a.185.185,0,0,1,.31-.2l.017.026a2.718,2.718,0,0,1,.317.909.184.184,0,0,1-.147.215A.171.171,0,0,1,190.568,563.893Zm-.722-1.7a.184.184,0,0,1-.172-.117,6.6,6.6,0,0,1-.28-.911.185.185,0,0,1,.36-.084,6.125,6.125,0,0,0,.264.859.185.185,0,0,1-.1.239A.188.188,0,0,1,189.846,562.2Zm-.424-1.8a.185.185,0,0,1-.184-.166,7.882,7.882,0,0,1-.041-.8c0-.049,0-.1,0-.149a.183.183,0,0,1,.188-.181.185.185,0,0,1,.181.188c0,.047,0,.095,0,.142a7.415,7.415,0,0,0,.039.761.185.185,0,0,1-.165.2Zm.04-1.849-.029,0a.185.185,0,0,1-.154-.211,5.747,5.747,0,0,1,.222-.931.184.184,0,1,1,.35.116,5.418,5.418,0,0,0-.207.871A.184.184,0,0,1,189.462,558.548Zm.493-1.782-.029,0a.184.184,0,0,1-.154-.21,4.1,4.1,0,0,0,.043-.619c0-.084,0-.174-.007-.269a.185.185,0,1,1,.369-.018c.005.1.008.2.008.287a4.465,4.465,0,0,1-.048.675A.185.185,0,0,1,189.955,556.766Zm-.072-1.844a.184.184,0,0,1-.181-.151c-.043-.232-.1-.474-.164-.719-.015-.054-.03-.108-.046-.162a.185.185,0,0,1,.353-.107c.017.057.034.115.049.173.068.255.126.506.17.748a.185.185,0,0,1-.148.215Zm-.544-1.767a.184.184,0,0,1-.167-.106,6.882,6.882,0,0,0-.434-.791.184.184,0,1,1,.311-.2,7.2,7.2,0,0,1,.458.834.185.185,0,0,1-.09.245A.179.179,0,0,1,189.339,553.155Zm-.993-1.56a.184.184,0,0,1-.142-.067,7.692,7.692,0,0,0-.618-.662.184.184,0,0,1,.254-.267,7.977,7.977,0,0,1,.648.693.184.184,0,0,1-.024.26A.18.18,0,0,1,188.346,551.6ZM187,550.328a.186.186,0,0,1-.107-.035,3.338,3.338,0,0,1-.7-.68.185.185,0,1,1,.293-.224,2.931,2.931,0,0,0,.625.6.185.185,0,0,1-.108.335Zm-1.1-1.455a.184.184,0,0,1-.174-.124,3,3,0,0,1-.166-.968.185.185,0,0,1,.183-.186h0a.185.185,0,0,1,.185.184,2.642,2.642,0,0,0,.146.85.184.184,0,0,1-.114.235A.177.177,0,0,1,185.895,548.873Zm-.013-1.821a.184.184,0,0,1-.176-.242,3.251,3.251,0,0,1,.442-.874.185.185,0,0,1,.3.214,2.877,2.877,0,0,0-.392.774A.185.185,0,0,1,185.881,547.052ZM187,545.642a.185.185,0,0,1-.1-.338l.769-.518a.184.184,0,0,1,.206.306l-.769.518A.185.185,0,0,1,187,545.642Zm1.538-1.036a.185.185,0,0,1-.1-.338l.769-.518a.184.184,0,1,1,.206.306l-.769.518A.181.181,0,0,1,188.541,544.606Zm1.538-1.036a.185.185,0,0,1-.1-.338l.769-.518a.184.184,0,1,1,.206.306l-.769.518A.183.183,0,0,1,190.078,543.57Zm1.538-1.036a.185.185,0,0,1-.1-.338l.769-.518a.185.185,0,0,1,.206.306l-.769.518A.187.187,0,0,1,191.616,542.534Zm1.538-1.036a.185.185,0,0,1-.1-.337l.769-.518a.185.185,0,0,1,.206.306l-.769.518A.185.185,0,0,1,193.154,541.5Zm1.538-1.036a.184.184,0,0,1-.1-.337l.239-.161.54-.349a.185.185,0,1,1,.2.31l-.773.505A.185.185,0,0,1,194.691,540.462Zm1.555-1.01a.185.185,0,0,1-.1-.34l.779-.5a.184.184,0,0,1,.2.31l-.779.5A.183.183,0,0,1,196.246,539.452Zm1.558-1a.184.184,0,0,1-.1-.34l.779-.5a.184.184,0,1,1,.2.31l-.779.5A.189.189,0,0,1,197.8,538.447Zm1.584-.946a.184.184,0,0,1-.048-.362,4.265,4.265,0,0,1,.954-.165.183.183,0,0,1,.19.179.185.185,0,0,1-.179.19,3.879,3.879,0,0,0-.868.151A.169.169,0,0,1,199.388,537.5Z" transform="translate(-149.785 -527.796)"/><path class="b" d="M216.784,539.108a.185.185,0,0,1-.164-.269l.228-.439a1,1,0,0,0,.188-.336.184.184,0,0,1,.357.094,1.346,1.346,0,0,1-.242.453l-.2.4A.184.184,0,0,1,216.784,539.108Z" transform="translate(-166.065 -528.296)"/><path class="b" d="M216.937,544.333h-.029a.185.185,0,0,1,0-.369h.026a3.122,3.122,0,0,0,.814-.125.185.185,0,1,1,.1.356A3.486,3.486,0,0,1,216.937,544.333Zm-.886-.227a.183.183,0,0,1-.1-.027,1.623,1.623,0,0,1-.54-.538,1.646,1.646,0,0,1-.113-.22.184.184,0,1,1,.34-.143,1.321,1.321,0,0,0,.087.17,1.258,1.258,0,0,0,.417.415.184.184,0,0,1-.1.342Zm2.6-.195a.185.185,0,0,1-.068-.356c.287-.113.592-.244.824-.346a.185.185,0,0,1,.148.339c-.236.1-.545.235-.837.35A.186.186,0,0,1,218.652,543.911Zm1.661-.7a.185.185,0,0,1-.067-.357c.235-.092.475-.2.706-.3l.112-.05a.185.185,0,0,1,.152.337l-.1.044c-.251.112-.495.22-.738.315A.189.189,0,0,1,220.313,543.213Zm-4.938-.663-.025,0a.184.184,0,0,1-.157-.208,3.225,3.225,0,0,1,.28-.909.185.185,0,1,1,.336.154,2.873,2.873,0,0,0-.25.806A.184.184,0,0,1,215.375,542.551Z" transform="translate(-165.326 -530.077)"/><path class="b" d="M230.143,543.988a.185.185,0,0,1-.168-.107c-.025-.054-.048-.1-.068-.144l-.132-.265a2.166,2.166,0,0,0-.135-.275,2.633,2.633,0,0,0-.322.089.185.185,0,0,1-.117-.35,2.8,2.8,0,0,1,.438-.114l.037-.006c.106-.017.227.008.434.5l.127.253c.022.044.047.1.074.154a.185.185,0,0,1-.09.245A.188.188,0,0,1,230.143,543.988Z" transform="translate(-172.607 -530.858)"/><path class="b" d="M231.956,546.725a.185.185,0,0,1-.168-.109l-.27-.6a.185.185,0,0,1,.336-.152l.27.6a.185.185,0,0,1-.092.244A.189.189,0,0,1,231.956,546.725Z" transform="translate(-173.88 -532.404)"/><path class="b" d="M233.383,549.329a.185.185,0,0,1-.108-.036q-.184-.134-.373-.274l-.038-.029-.21-.463a.185.185,0,1,1,.336-.152l.17.376.332.244a.185.185,0,0,1-.109.334Z" transform="translate(-174.475 -533.718)"/><path class="b" d="M236.973,552.084a.185.185,0,0,1-.027-.367c.1-.015.29-.045.485-.077a.367.367,0,0,0,.215-.126.185.185,0,1,1,.279.242.737.737,0,0,1-.435.249c-.2.032-.389.063-.489.077Zm-.751-.422a.184.184,0,0,1-.1-.031c-.209-.141-.455-.31-.724-.5a.184.184,0,1,1,.212-.3c.268.188.512.355.719.495a.185.185,0,0,1-.1.338Z" transform="translate(-175.881 -535.044)"/><path class="b" d="M240.578,549.755a.185.185,0,0,1-.185-.184c0-.167,0-.333,0-.46l-.011-.459a.184.184,0,0,1,.18-.189h0a.184.184,0,0,1,.185.18l.011.462c0,.129,0,.3,0,.464a.185.185,0,0,1-.183.186Z" transform="translate(-178.535 -533.822)"/><path class="b" d="M240.511,546.626a.184.184,0,0,1-.185-.18l-.017-.688a.185.185,0,0,1,.18-.189h0a.185.185,0,0,1,.185.18l.017.688a.185.185,0,0,1-.18.189Z" transform="translate(-178.499 -532.304)"/><path class="b" d="M240.448,543.49a.185.185,0,0,1-.185-.18l-.011-.483.005-.022c.034-.15.074-.3.118-.457a.185.185,0,1,1,.354.1c-.04.139-.077.278-.108.414l.01.437a.184.184,0,0,1-.18.189Z" transform="translate(-178.469 -530.544)"/><path class="b" d="M241.059,540.881a.182.182,0,0,1-.065-.012.185.185,0,0,1-.108-.238c.073-.192.15-.372.231-.536a.184.184,0,0,1,.331.163c-.076.154-.148.323-.217.5A.185.185,0,0,1,241.059,540.881Z" transform="translate(-178.795 -529.379)"/><path class="b" d="M242.132,538.807a.184.184,0,0,1-.149-.293,1.05,1.05,0,0,1,.411-.375l.437-.166a.185.185,0,1,1,.131.345l-.431.164a.723.723,0,0,0-.249.248A.185.185,0,0,1,242.132,538.807Z" transform="translate(-179.358 -528.314)"/><path class="b" d="M245.324,536.406a.184.184,0,0,1-.068-.356c.293-.116.527-.216.736-.311a.184.184,0,1,1,.153.335c-.214.1-.453.2-.752.318A.186.186,0,0,1,245.324,536.406Zm1.46-.689a.185.185,0,0,1-.1-.342,2.719,2.719,0,0,0,.591-.468.184.184,0,1,1,.272.249,3.081,3.081,0,0,1-.67.534A.183.183,0,0,1,246.784,535.717Z" transform="translate(-181.032 -526.681)"/><path class="b" d="M250.282,532.812a.185.185,0,0,1-.181-.224,1.315,1.315,0,0,0,.027-.18l.014-.19c-.073-.108-.148-.217-.224-.321a.185.185,0,0,1,.3-.216c.089.125.18.255.267.385l.035.053-.024.316a1.655,1.655,0,0,1-.033.23A.185.185,0,0,1,250.282,532.812Z" transform="translate(-183.52 -524.981)"/><path class="b" d="M248.588,530.385a.185.185,0,0,1-.144-.068,2.842,2.842,0,0,0-.205-.236c-.04-.017-.132-.052-.261-.1a.184.184,0,0,1,.131-.345c.258.1.291.113.3.119.035.017.08.038.319.331a.185.185,0,0,1-.143.3Z" transform="translate(-182.458 -523.941)"/></g><path class="c" d="M231.757,528c.074.068.148.137.238.218a1.489,1.489,0,0,1-.727.546c-.71.318-1.432.609-2.15.91a1.008,1.008,0,0,0-.711,1.044c.008.513.052,1.028.048,1.541,0,.409-.039.821-.081,1.229-.051.5-.125.991-.19,1.486-.013.153-.024.308-.037.461l-.1.024c-.092-.19-.185-.382-.279-.572l0,0c-.058-.089-.117-.177-.174-.266-.031-.057-.065-.114-.1-.172l0-.005q-.127-.249-.254-.495l-.5-1.039,0,0c-.031-.061-.063-.124-.092-.185l-.006-.029c-.026-.05-.051-.1-.076-.153-.126-.249-.249-.5-.375-.751a4.064,4.064,0,0,0-.4-.6.805.805,0,0,0-1.022-.136v0l-.124.079-.236.094-.245.094v0l-.14.087-1.179.465-.166.072-.02,0-.019.011-.14.085q-.312.124-.622.251c-.079.032-.161.063-.24.1-.124.031-.249.065-.372.1-.1.028-.192.057-.286.087l-.378.118-.22.072-.369.177c-.024-.026-.046-.052-.068-.078.088-.136.175-.275.263-.412q.437-.631.873-1.26c.107-.155.221-.3.332-.454q.573-.7,1.146-1.4c.085-.072.168-.142.253-.212.041-.052.081-.1.124-.153a.058.058,0,0,0,.05-.044c.166-.138.363-.253.391-.5a.156.156,0,0,0,.065-.253c-.422-.662-.847-1.328-1.275-1.989a.8.8,0,0,0-.162-.144c-.166-.246-.338-.487-.5-.738-.081-.128-.138-.267-.208-.4l-.039-.046c.019.009.035.02.052.029.577.1,1.16.174,1.733.3a8.715,8.715,0,0,1,2.13.709c.19.094.29,0,.424-.111q.83-.664,1.668-1.317c.229-.177.456-.356.684-.535.006.144.011.288.017.43,0,.059-.006.12-.01.179,0,.149-.007.3-.011.448v.168c0,.1,0,.2,0,.3a.107.107,0,0,0,0,.067c0,.085,0,.17,0,.255a2.279,2.279,0,0,0,.007.526c.07.292.1.633.458.744.38.118.766.214,1.148.325.3.085.589.179.884.266Q231.1,527.808,231.757,528Z" transform="translate(-57.474 -3.268)"/><path class="d" d="M187.619,528.691c-.006.081-.011.164-.017.245-.026,0-.051,0-.079,0a2.8,2.8,0,0,0-.448-.26,12.609,12.609,0,0,0-1.7-.484,19.762,19.762,0,0,0-3.4-.382,17.594,17.594,0,0,0-3.643.275c-.88.152-1.749.381-2.621.585-.468.113-.932.251-1.4.377-.356.129-.712.262-1.07.39a30.1,30.1,0,0,0-3.814,1.631c-.614.321-1.258.59-1.843.957-.733.459-1.425.987-2.122,1.5a7.52,7.52,0,0,0-1.452,1.264c-.539.522-1.116,1.009-1.607,1.574a18.409,18.409,0,0,0-2.617,3.962,19.834,19.834,0,0,0-.721,1.895c-.126.334-.229.362-.495.118-.035-.031-.07-.065-.1-.1s-.052-.049-.077-.076a2.42,2.42,0,0,0-.244-.208,7.269,7.269,0,0,0-2.159-1.081c-.146-.042-.338-.035-.391-.24.382-.711.751-1.428,1.148-2.13.513-.91,1-1.84,1.59-2.7a22.25,22.25,0,0,1,1.657-1.941,19.8,19.8,0,0,1,3.056-2.595,7.82,7.82,0,0,1,1.011-.627c1.128-.605,2.25-1.227,3.4-1.788a14.773,14.773,0,0,1,3.277-1.162q1.071-.31,2.146-.618c.168-.05.331-.124.5-.162a16.394,16.394,0,0,1,3.661-.467,35.778,35.778,0,0,1,4.794.3,20.912,20.912,0,0,1,3.13.72c.3.092.6.19.891.3a6.879,6.879,0,0,1,1.356.677C187.348,528.53,187.484,528.61,187.619,528.691Z" transform="translate(-23.728 -4.6)"/><path class="e" d="M190.77,531.172c-.161.015-.321.029-.48.046-.91-.074-1.818-.181-2.728-.234-.22-.013-.441-.024-.661-.029a12.039,12.039,0,0,0-3.493.434,28.387,28.387,0,0,0-7.113,2.96c-.871.52-1.683,1.138-2.519,1.716a.876.876,0,0,0-.146.16c-.147.117-.3.234-.445.352l0,0c-.033.035-.065.067-.1.1a.062.062,0,0,0-.055.05l-.864.781c-.308.312-.616.625-.923.937l-.388.4c-.061.061-.122.122-.181.183q-.337.412-.675.827a2.235,2.235,0,0,0-.3.315c-.421.639-.864,1.268-1.237,1.934a14.188,14.188,0,0,0-.786,1.72c-.28.709-.52,1.434-.775,2.154a.537.537,0,0,1-.314.343,3.923,3.923,0,0,0-1.4,1.056,2.248,2.248,0,0,1-.214.181c-.042-.053-.072-.072-.078-.1a6.008,6.008,0,0,0-.845-1.884.43.43,0,0,1-.033-.317c.146-.446.334-.878.469-1.329a14.046,14.046,0,0,1,1.768-3.4,17.534,17.534,0,0,1,1.283-1.681,8.493,8.493,0,0,1,.694-.677l1.569-1.548,0-.006q1.126-.8,2.257-1.6a22.093,22.093,0,0,1,3.547-1.877,32.91,32.91,0,0,1,6.363-2.1,19.527,19.527,0,0,1,3.05-.465,21.285,21.285,0,0,1,3.532.083,11.15,11.15,0,0,1,1.13.166A5.712,5.712,0,0,1,190.77,531.172Z" transform="translate(-28.134 -6.749)"/><path class="f" d="M181.224,525.171l-.286.015-.6-.179c-.552-.17-1.1-.341-1.661-.479-.585-.146-1.187-.233-1.783-.322-.48-.072-.965-.125-1.449-.153-1.28-.07-2.561-.153-3.842-.17a12.677,12.677,0,0,0-3.449.491c-1.452.393-2.9.806-4.324,1.282a24.257,24.257,0,0,0-4.318,2.015c-.561.321-1.122.648-1.655,1.013a19.465,19.465,0,0,0-3.737,3.226c-.251.29-.5.581-.751.871-.054.067-.109.129-.161.2l-.343.45a14,14,0,0,0-1.317,2.273c-.415.76-.779,1.549-1.164,2.325-.031.048-.063.1-.092.146-.165.57-.165.57-.727.508-.07-.01-.142-.022-.212-.033-.159.005-.321.005-.482.02a5.5,5.5,0,0,0-2.048.414l-.329-.024a35.557,35.557,0,0,1,4.953-7.468l.144-.185.029-.033c.056-.054.109-.105.165-.157l.007-.007c.2-.242.388-.5.609-.72.338-.338.7-.651,1.056-.974l.007,0c.024-.029.05-.057.076-.087l.006-.019c.109-.111.218-.221.327-.334a.3.3,0,0,0,.048-.033l.029-.028c.026-.026.053-.05.079-.074l.011-.011c.02-.022.04-.044.061-.068a.3.3,0,0,0,.061-.048l.017-.013c.019-.018.037-.035.055-.056.037-.024.072-.049.109-.072s.088-.067.133-.1l0,.008c.511-.419,1.005-.862,1.535-1.253a19.109,19.109,0,0,1,3.475-2.083,31.974,31.974,0,0,1,4.3-1.572,25.933,25.933,0,0,1,3.132-.729,20.735,20.735,0,0,1,3.292-.258c.293,0,.586-.017.882-.026h.006l0,.006.515-.013q1.3.067,2.6.135a13.572,13.572,0,0,1,3.613.749,14.76,14.76,0,0,1,2.56,1.115l.332.186C180.878,524.926,181.017,525.033,181.224,525.171Z" transform="translate(-18.959 -2.61)"/><path class="g" d="M191.622,532.475c-.214.225-.448.2-.646.253-.723.2-1.472.327-2.168.593a23.968,23.968,0,0,0-3.063,1.292c-.231.125-.45.271-.675.41-.057.031-.115.065-.172.1-.266.147-.531.3-.8.447l-.177.085-.177.092a4.47,4.47,0,0,0-.546.275c-.722.495-1.436,1-2.152,1.506a.208.208,0,0,0-.048.072c-.27.225-.541.445-.8.675-.319.281-.625.577-.95.852a8.944,8.944,0,0,0-1.8,2.032.956.956,0,0,1-.1.142,8.5,8.5,0,0,0-1.153,1.864,7.931,7.931,0,0,0-.55,1.288c-.166.511-.27,1.044-.4,1.569-.017.07-.042.14-.055.212-.041.247-.181.336-.432.334a8.727,8.727,0,0,0-1.142.046c-.611.078-1.216.192-1.823.29a5.785,5.785,0,0,1,.214-.746c.341-.777.7-1.546,1.059-2.316a16.833,16.833,0,0,1,1.428-2.3.448.448,0,0,0,.039-.124,1.766,1.766,0,0,0,.192-.238c.133-.247.432-.393.445-.714l.1-.1.026.008.024-.006.1-.013.808-.88q.224-.221.449-.439l.094-.251a.816.816,0,0,0,.7-.461c.642-.513,1.276-1.037,1.93-1.535.279-.212.609-.358.9-.563a16.811,16.811,0,0,1,4.034-2.065,26.468,26.468,0,0,1,5.229-1.561c.478-.068.967-.057,1.451-.083Z" transform="translate(-32.221 -7.76)"/><path class="a" d="M158.321,572.808a5.443,5.443,0,0,1,.48,3.008,3.971,3.971,0,0,1-.792,1.706,1.4,1.4,0,0,1-.38.3,5.8,5.8,0,0,1-1.788.72,2.779,2.779,0,0,1-2.329-.575,1.164,1.164,0,0,0-.884-.281,2.12,2.12,0,0,1,.5,1.183,6.755,6.755,0,0,1,.059.962,4.963,4.963,0,0,1-1.842,3.775,4.174,4.174,0,0,1-1.33.574,9.124,9.124,0,0,1-3.259.53,5.308,5.308,0,0,1-1.26-.194,6.332,6.332,0,0,1-.924-.34,6.081,6.081,0,0,1-1.759-1.229,3.855,3.855,0,0,1-.685-1.017c-.253-.509-.419-.625-1-.507q-.21.357-.421.718c-.063.087-.127.171-.192.256l-.114.159c-.078.094-.153.19-.231.284l-.65.7-.16.177-.347.275-.26.174-.458.266-.159.078-.175.022c-.179.065-.356.129-.533.2a5.485,5.485,0,0,1-3.869-.142c-.2-.085-.384-.177-.563-.275a5.684,5.684,0,0,1-2.932-4.459,4.452,4.452,0,0,1,.327-2.161c.186-.524.432-1.03.67-1.535a2.978,2.978,0,0,1,2.148-1.609,4.631,4.631,0,0,1,.528-.024.294.294,0,0,0,.209-.125.247.247,0,0,0-.074-.225,1.833,1.833,0,0,0-.59-.264,11.347,11.347,0,0,1-1.572-.369c-.413-.126-.823-.268-1.233-.417a3.268,3.268,0,0,1-2.218-3.013,6.331,6.331,0,0,1,.087-1.847,5.52,5.52,0,0,1,2.772-3.953,3.767,3.767,0,0,1,2.485-.412.54.54,0,0,0,.4-.035c-.07-.238-.146-.472-.216-.709-.044-.153-.087-.3-.122-.459a2.03,2.03,0,0,1,.238-1.574c.3-.489.587-.985.878-1.478l1.146-1.052c.19-.076.381-.159.574-.225.6-.2,1.194-.426,1.8-.583a6.686,6.686,0,0,1,2.932-.035,5.511,5.511,0,0,1,2.375,1.024c.046.035.09.07.135.107a5.492,5.492,0,0,1,.884.917c.061.081.118.164.172.253a4.418,4.418,0,0,1,.385.843c.179.507.279,1.041.427,1.561a2.235,2.235,0,0,0,.2.386c.12.249.277.43.607.324.019-.11.037-.217.056-.326.072-.067.179-.118.212-.2a2.266,2.266,0,0,1,.635-.83c.151-.138.306-.272.459-.406l.234-.149.122-.044.275-.148c.308-.112.614-.225.923-.336l.024.013.024-.017.792-.2.528-.042.627-.061.262-.008c.529.031,1.059.048,1.587.1a4.6,4.6,0,0,1,2.323.889,7.969,7.969,0,0,1,1.032.9,7.658,7.658,0,0,1,.86,1.064,3.982,3.982,0,0,1,.526,2.975c-.107.654-.267,1.3-.415,1.945a5.21,5.21,0,0,1-1.4,2.321c-.068.074-.2.09-.327.142a.531.531,0,0,0,.373.637c.384.166.764.338,1.146.5.085.039.172.076.257.113A1.407,1.407,0,0,1,158.321,572.808Z" transform="translate(-9.377 -20.933)"/><path class="h" d="M131.17,545.888c.074.089.147.175.218.259q-1.121,2.054-2.229,4.083c-.008.079-.015.157-.024.234-.094.247-.147.52-.433.64a3.825,3.825,0,0,0-1.463,1.384,5.166,5.166,0,0,0-1.059,1.958,2.071,2.071,0,0,0,.123,1.751.366.366,0,0,1,.039.124c0,.015.006.028.009.042,0,.035,0,.069,0,.1l-.07-.031a4.937,4.937,0,0,0-2.759.393,5.584,5.584,0,0,0-2.3,2.067,5.934,5.934,0,0,0-.915,3.181c-.006.143,0,.288,0,.459-.445.015-.866.044-1.277.052-.175.005-.351.005-.524,0-.118,0-.234-.013-.349-.026a3.136,3.136,0,0,1-2.085-1.033q-.235-.357-.471-.71c-.092-.172-.183-.345-.275-.517q-.243-.761-.485-1.522c-.017-.083-.031-.166-.046-.249.033-.354.067-.707.1-1.061.059-.192.117-.386.177-.58q.268-.85.539-1.7c.059-.092.116-.185.174-.277l0,0,.6-.546.356-.2.227-.129L117.8,554c.055-.031.109-.065.164-.1-.049-.061-.1-.122-.151-.181-.157-.2-.314-.393-.468-.59-.056-.118-.109-.238-.165-.358-.02-.088-.039-.175-.059-.264-.035-.238-.072-.476-.107-.714a5.023,5.023,0,0,1,.74-1.963,3.7,3.7,0,0,1,3.288-2,1.79,1.79,0,0,1,.511.052c.048.013.094.028.14.044a1.34,1.34,0,0,1,.411.243,1.337,1.337,0,0,0,.476.158c.015-.179.028-.358.04-.536.028-.118.054-.236.079-.355a.074.074,0,0,1,.019-.079,3.354,3.354,0,0,1,.912-1.829,3.278,3.278,0,0,1,2.995-1.179,11.612,11.612,0,0,1,2.875.505c.054.015.107.031.161.05a2.447,2.447,0,0,1,1.026.587A5.71,5.71,0,0,0,131.17,545.888Z" transform="translate(-2.331 -13.984)"/><path class="a" d="M125.385,587.5c.061.016.124.03.186.044a3.844,3.844,0,0,0-1.438,1.269c-.3.537-.565,1.094-.825,1.6l-.587.186-.526.136a4.273,4.273,0,0,1-1.476-.074,3.149,3.149,0,0,1-1.821-1.549c-.076-.2-.153-.389-.231-.585-.006-.185-.01-.367-.013-.552.3-.225.3-.3.019-.487a.848.848,0,0,0-.2-.065l-1.05-.266a.13.13,0,0,1-.013-.011c-.222-.185-.441-.367-.664-.55v0l-.011,0h0a2.5,2.5,0,0,1-.3-1.65c.035-.1.072-.208.109-.314.054-.1.105-.2.159-.306.244-.275.474-.559.732-.818a.984.984,0,0,1,.978-.227,4.851,4.851,0,0,0,.542.087c.224.028.448.046.672.074.147,0,.295-.008.443-.009h1.107a5.009,5.009,0,0,0,4.181,4.051Z" transform="translate(-3.175 -34.388)"/><path d="M233.738,526.231c.2.257.146.4-.16.532q-1.747.73-3.49,1.467a1.85,1.85,0,0,0-.352.181,1.006,1.006,0,0,0-.506.915,20.537,20.537,0,0,1,.006,2.075c-.054.909-.174,1.815-.257,2.725-.018.2,0,.4,0,.609a.609.609,0,0,1-.648-.342c-.157-.234-.316-.469-.471-.7l.408-.2.1-.024c.013-.153.024-.308.037-.461.065-.494.138-.989.19-1.485.043-.408.079-.819.081-1.229,0-.513-.04-1.028-.048-1.541a1.008,1.008,0,0,1,.711-1.044c.718-.3,1.44-.592,2.15-.91a1.489,1.489,0,0,0,.727-.546c-.09-.081-.164-.15-.238-.218q-.656-.188-1.308-.38c-.3-.087-.589-.181-.884-.266-.382-.111-.768-.207-1.148-.325-.358-.111-.388-.452-.458-.744a2.278,2.278,0,0,1-.007-.526c0-.085,0-.17,0-.255a.106.106,0,0,1,0-.067c0-.1,0-.2,0-.3v-.168c0-.149.008-.3.011-.448,0-.059.006-.12.01-.179-.006-.142-.011-.286-.017-.43-.229.179-.456.358-.684.535-.557.437-1.115.875-1.668,1.318-.135.107-.234.2-.424.111a8.715,8.715,0,0,0-2.13-.709c-.572-.122-1.155-.2-1.733-.3l-.052-.03.039.046c.07.135.127.275.208.4.159.251.33.493.5.738l-.336.161a9.674,9.674,0,0,1-1.524-2.279,1.316,1.316,0,0,1,.4-.05c.943.212,1.89.419,2.824.672a12.239,12.239,0,0,1,1.306.513l.928-.476.013-.008q.561-.42,1.122-.845c.127-.1.247-.2.369-.3l-.01-.017q.482-.542.96-1.083c.144-.035.225-.327.432-.1.581.117.7.427.375.951h0q-.072.5-.144,1c-.04.211-.079.421-.12.631,0,.056,0,.111,0,.166.006.092.011.185.015.277V524.3a1.275,1.275,0,0,0,.21.111l.006,0c1.229.4,2.46.8,3.685,1.21a4.1,4.1,0,0,1,.714.345A1.017,1.017,0,0,1,233.738,526.231Z" transform="translate(-57.693 -1.297)"/><path d="M197.954,535.941c.094.19.186.382.279.572l-.408.205c-.26-.391-.513-.786-.74-1.2-.441-.8-.817-1.633-1.223-2.45-.054-.1-.118-.2-.185-.314-2.107.8-4.208,1.585-6.28,2.367-.375-.214-.526-.537-.36-.81.522-.854,1.061-1.7,1.6-2.541a4.15,4.15,0,0,1,.406-.461c.273-.362.55-.72.818-1.087.126-.173.236-.36.4-.614l-1.932-.242-.2-.015a1.378,1.378,0,0,1-.292.077,21.8,21.8,0,0,0-4.508.825c-.31.088-.618.185-.926.277l-.709.264a.079.079,0,0,1-.077.029l-1.253.557-.264.12-1.417.722-.269.16c-.559.35-1.115.707-1.679,1.048a21.353,21.353,0,0,0-2.982,2.34c-.065.057-.14.1-.211.155l0,0-1.5,1.6c-.227.325-.472.638-.679.976-.275.451-.522.919-.782,1.381-.137.242-.275.485-.413.727a1.619,1.619,0,0,0-.111.192q-.421,1.063-.837,2.127c-.031.081-.052.166-.085.277l.251.076a4.4,4.4,0,0,1,2.377.866,9.181,9.181,0,0,1,1.4,1.179l-.347.353a7.966,7.966,0,0,0-1.032-.9,4.6,4.6,0,0,0-2.323-.889c-.528-.05-1.058-.067-1.587-.1l-.262.008-.627.061-.528.042-.792.2-.024.017-.024-.013c-.308.111-.615.224-.923.336l-.275.148-.122.044-.234.149c-.153.135-.308.268-.459.406a2.263,2.263,0,0,0-.635.83c-.033.081-.14.133-.212.2-.019.109-.037.216-.056.326-.33.106-.487-.076-.607-.324a2.242,2.242,0,0,1-.2-.386c-.148-.521-.247-1.054-.427-1.561a4.409,4.409,0,0,0-.385-.843l.479-.275a6.007,6.007,0,0,1,.845,1.884c.006.026.035.045.078.1a2.248,2.248,0,0,0,.214-.181,3.924,3.924,0,0,1,1.4-1.056.537.537,0,0,0,.314-.343c.254-.72.495-1.445.775-2.154a14.194,14.194,0,0,1,.786-1.72c.373-.666.816-1.3,1.237-1.934a2.226,2.226,0,0,1,.3-.315q.337-.415.675-.827c.059-.062.12-.122.181-.183l.388-.4c.306-.312.614-.626.923-.937l.864-.781a.062.062,0,0,1,.055-.049c.035-.035.067-.067.1-.1l0,0c.147-.118.3-.236.445-.353a.881.881,0,0,1,.146-.16c.836-.578,1.648-1.2,2.519-1.716a28.388,28.388,0,0,1,7.113-2.96,12.031,12.031,0,0,1,3.493-.434c.22.005.441.016.661.029.91.053,1.818.161,2.728.234.159-.017.319-.031.48-.046a5.693,5.693,0,0,0-1.1-.338l.1-.489a12.566,12.566,0,0,1,1.7.484,2.8,2.8,0,0,1,.448.26c.028,0,.054,0,.079,0,.006-.081.011-.164.017-.245-.135-.081-.271-.16-.4-.247a6.871,6.871,0,0,0-1.356-.677c-.292-.11-.589-.208-.891-.3l.144-.469.6.179.286-.015c-.207-.138-.345-.245-.495-.332l-.332-.186.247-.443a12.607,12.607,0,0,1,1.9,1.321c.251.172.5.342.751.513l.061-.033c-.07-.16-.138-.323-.208-.483l.336-.161a.81.81,0,0,1,.162.144c.428.661.853,1.326,1.275,1.989a.155.155,0,0,1-.065.253c-.028.245-.225.36-.391.5a.058.058,0,0,1-.05.044c-.042.049-.083.1-.124.153l-.253.212q-.573.7-1.146,1.4c-.111.151-.225.3-.332.454q-.437.628-.873,1.26c-.088.137-.175.275-.263.412.022.026.044.052.068.077l.369-.177.22-.072.378-.118c.094-.03.19-.059.286-.087.124-.033.249-.066.372-.1.079-.033.161-.064.24-.1q.31-.127.622-.251l.14-.085.019-.011.02,0,.166-.072,1.179-.465.14-.087v0l.245-.094.236-.094.124-.08v0a.805.805,0,0,1,1.022.137,4.066,4.066,0,0,1,.4.6c.126.251.249.5.375.751.024.051.05.1.076.153l.006.029c.029.061.061.124.092.185l0,0,.5,1.039q.127.246.254.495l0,.005c.031.058.065.115.1.172.057.089.116.177.174.266Zm-11.539-6.649c.2-.055.432-.028.646-.253l-.618.031c-.483.026-.973.015-1.451.083a26.468,26.468,0,0,0-5.229,1.561,16.817,16.817,0,0,0-4.034,2.065c-.286.2-.616.351-.9.563-.653.5-1.288,1.023-1.93,1.535a.816.816,0,0,1-.7.461l-.094.251q-.224.218-.449.439l-.808.88-.1.013-.024.006-.026-.008-.1.1c-.013.321-.312.466-.445.714a1.787,1.787,0,0,1-.192.238.449.449,0,0,1-.038.124,16.823,16.823,0,0,0-1.428,2.3c-.358.77-.718,1.539-1.059,2.316a5.775,5.775,0,0,0-.214.746c.607-.1,1.212-.212,1.823-.29a8.706,8.706,0,0,1,1.142-.046c.251,0,.391-.087.432-.334.013-.072.039-.142.055-.212.133-.524.236-1.057.4-1.569a7.923,7.923,0,0,1,.55-1.288,8.5,8.5,0,0,1,1.153-1.864.963.963,0,0,0,.1-.142,8.952,8.952,0,0,1,1.8-2.032c.325-.275.631-.572.95-.852.264-.231.535-.45.8-.675a.21.21,0,0,1,.048-.072c.716-.5,1.43-1.011,2.152-1.506a4.492,4.492,0,0,1,.546-.275l.177-.092.177-.085c.266-.149.531-.3.8-.447.057-.033.115-.067.172-.1.225-.138.445-.284.675-.41a23.966,23.966,0,0,1,3.063-1.292C184.942,529.619,185.691,529.492,186.415,529.293Z" transform="translate(-27.659 -4.325)"/><path d="M176.425,523.588l-.247.443a14.771,14.771,0,0,0-2.56-1.114,13.576,13.576,0,0,0-3.613-.749q-1.3-.069-2.6-.135l-.515.013,0-.006h-.006c-.3.009-.589.028-.882.026a20.757,20.757,0,0,0-3.292.258,25.912,25.912,0,0,0-3.132.729,31.957,31.957,0,0,0-4.3,1.572,19.1,19.1,0,0,0-3.475,2.083c-.53.391-1.024.834-1.535,1.253l0-.008c-.045.032-.089.065-.133.1s-.072.048-.109.072c-.018.021-.037.037-.055.056l-.017.013a.3.3,0,0,1-.061.048c-.02.024-.04.046-.061.068l-.011.011c-.026.024-.054.048-.079.074l-.029.028a.292.292,0,0,1-.048.033c-.109.113-.218.223-.327.334l-.006.019c-.026.03-.051.057-.076.087l-.007,0c-.354.323-.718.636-1.056.974-.221.222-.408.478-.609.72l-.007.007c-.056.052-.109.1-.165.157l-.029.033-.144.185a35.558,35.558,0,0,0-4.953,7.468c.161.013.244.019.329.024a5.5,5.5,0,0,1,2.048-.414c.161-.015.323-.015.482-.02.07.011.142.024.212.033.563.062.563.062.727-.508.029-.048.061-.1.092-.146.386-.777.749-1.565,1.164-2.325a14,14,0,0,1,1.317-2.273l.343-.45c.051-.066.107-.129.161-.2.251-.29.5-.581.751-.871a19.46,19.46,0,0,1,3.737-3.226c.533-.365,1.094-.692,1.655-1.013a24.248,24.248,0,0,1,4.318-2.015c1.425-.476,2.872-.889,4.324-1.282a12.677,12.677,0,0,1,3.449-.491c1.281.017,2.562.1,3.842.17.484.028.969.081,1.449.153.6.089,1.2.175,1.783.321.557.139,1.109.31,1.661.48l-.144.469a20.927,20.927,0,0,0-3.13-.72,35.8,35.8,0,0,0-4.794-.3,16.393,16.393,0,0,0-3.661.467c-.172.039-.334.112-.5.162-.716.207-1.432.411-2.146.618a14.777,14.777,0,0,0-3.277,1.162c-1.151.561-2.273,1.183-3.4,1.788a7.8,7.8,0,0,0-1.011.627A19.794,19.794,0,0,0,151,531.257a22.254,22.254,0,0,0-1.657,1.941c-.59.858-1.078,1.788-1.59,2.7-.4.7-.766,1.419-1.148,2.13.054.2.245.2.391.24a7.267,7.267,0,0,1,2.159,1.081,2.41,2.41,0,0,1,.244.208l-.419.264a5.509,5.509,0,0,0-2.375-1.024,6.684,6.684,0,0,0-2.932.035c-.611.157-1.205.384-1.8.583-.194.066-.384.15-.574.225l-1.146,1.051c-.292.493-.579.989-.878,1.478a2.03,2.03,0,0,0-.238,1.574c.035.155.078.306.122.459l-.4.124a.368.368,0,0,0-.039-.124,2.071,2.071,0,0,1-.123-1.751,5.165,5.165,0,0,1,1.059-1.958,3.824,3.824,0,0,1,1.463-1.384c.286-.12.34-.393.433-.64.01-.078.017-.155.024-.234q1.112-2.035,2.229-4.084c-.07-.083-.144-.17-.218-.259a5.69,5.69,0,0,1-.478-.393,2.446,2.446,0,0,0-1.026-.587c-.054-.019-.107-.035-.161-.05l.105-.338a3.309,3.309,0,0,1,1.868,1.15l.186.107c.428-.589.845-1.157,1.255-1.729a23.566,23.566,0,0,1,2.805-3.279c.391-.375.779-.755,1.168-1.131l.022-.017c.114-.1.229-.2.341-.3l.249-.212,2.366-1.733.439-.272q.29-.177.581-.351c.655-.3,1.3-.625,1.965-.9a33.9,33.9,0,0,1,6.353-2.006,20.112,20.112,0,0,1,3.778-.38c1.032-.009,2.063,0,3.1.006a16.805,16.805,0,0,1,5.829,1.138A14.231,14.231,0,0,1,176.425,523.588Z" transform="translate(-14.74 -1.988)"/><path d="M187.99,529.691l-.1.489a11.22,11.22,0,0,0-1.13-.166,21.291,21.291,0,0,0-3.532-.083,19.525,19.525,0,0,0-3.05.465,32.914,32.914,0,0,0-6.363,2.1,22.087,22.087,0,0,0-3.547,1.877q-1.129.8-2.257,1.6l0,.006-1.569,1.548a8.482,8.482,0,0,0-.694.677,17.58,17.58,0,0,0-1.283,1.681,14.051,14.051,0,0,0-1.768,3.4c-.135.45-.323.882-.469,1.329a.43.43,0,0,0,.033.317l-.479.275c-.054-.088-.111-.172-.172-.253a5.506,5.506,0,0,0-.884-.917c-.044-.037-.088-.072-.135-.107l.419-.264c.026.026.051.052.078.076s.068.069.1.1c.266.243.369.216.495-.118a19.835,19.835,0,0,1,.721-1.895,18.412,18.412,0,0,1,2.617-3.962c.491-.564,1.068-1.051,1.607-1.574a7.52,7.52,0,0,1,1.452-1.264c.7-.513,1.389-1.041,2.122-1.5.585-.367,1.229-.636,1.843-.957a30.1,30.1,0,0,1,3.814-1.631c.358-.128.714-.26,1.07-.39.467-.125.93-.264,1.4-.377.871-.2,1.74-.433,2.621-.585a17.611,17.611,0,0,1,3.643-.275A19.774,19.774,0,0,1,187.99,529.691Z" transform="translate(-26.347 -6.094)"/><path d="M176.995,589.251a5.556,5.556,0,0,1,.2,2.092,5.292,5.292,0,0,1-.655,2,.331.331,0,0,1-.122.126,7.361,7.361,0,0,1-2.166,1.152,2.518,2.518,0,0,1-1.48-.065c-.4-.138-.8-.288-1.249-.451.037.317.083.613.106.91a5.027,5.027,0,0,1-.356,2.5,4.086,4.086,0,0,1-.3.683,4.864,4.864,0,0,1-2.056,1.747,9.494,9.494,0,0,1-4.8.661,5.168,5.168,0,0,1-1.519-.454c-.149-.065-.3-.133-.445-.205l.211-.446a6.343,6.343,0,0,0,.924.34,5.333,5.333,0,0,0,1.26.194,9.133,9.133,0,0,0,3.259-.53,4.173,4.173,0,0,0,1.33-.574,4.963,4.963,0,0,0,1.841-3.775,6.751,6.751,0,0,0-.059-.962,2.121,2.121,0,0,0-.5-1.183,1.165,1.165,0,0,1,.884.281,2.78,2.78,0,0,0,2.329.576,5.808,5.808,0,0,0,1.788-.72,1.4,1.4,0,0,0,.38-.3,3.971,3.971,0,0,0,.792-1.706,5.444,5.444,0,0,0-.48-3.008,1.407,1.407,0,0,0-.764-.814c-.085-.037-.172-.074-.257-.113l.168-.386c.031.015.065.028.1.041a1.985,1.985,0,0,1,1.017.886A10.043,10.043,0,0,1,176.995,589.251Z" transform="translate(-27.171 -36.26)"/><path d="M188.68,568.609a4.606,4.606,0,0,1,.461,3.211c-.1.592-.284,1.172-.393,1.764a3.192,3.192,0,0,1-.9,1.589c-.218.236-.441.467-.7.742.243.131.459.271.688.373l-.168.386c-.382-.166-.762-.338-1.146-.5a.531.531,0,0,1-.373-.637c.126-.051.258-.068.327-.142a5.209,5.209,0,0,0,1.4-2.321c.147-.646.308-1.292.415-1.945a3.982,3.982,0,0,0-.526-2.975,7.663,7.663,0,0,0-.86-1.064l.347-.352A9.724,9.724,0,0,1,188.68,568.609Z" transform="translate(-39.744 -25.725)"/><path d="M149.607,610.4l-.211.446a7.318,7.318,0,0,1-2.689-2.105c-.061-.077-.185-.109-.279-.161-.079.165-.157.329-.236.493h0l0,0-.349.388c-.031.044-.061.09-.092.137l-.336.38c-.07.072-.142.144-.212.216l-.578.476a.984.984,0,0,1-.653.441l-.613.28-.188.063c-.142.041-.286.081-.428.124a3.369,3.369,0,0,1-1.445.306,4.486,4.486,0,0,1-1.949-.3,14.6,14.6,0,0,1-1.526-.62l.206-.437c.179.1.365.19.563.275a5.486,5.486,0,0,0,3.869.142c.177-.066.354-.131.533-.2l.176-.022.159-.077.457-.266.26-.174.347-.275.16-.177.65-.7c.078-.094.153-.19.231-.284l.114-.159c.065-.085.129-.17.192-.256l.421-.718c.583-.118.749,0,1,.508a3.856,3.856,0,0,0,.685,1.017A6.083,6.083,0,0,0,149.607,610.4Z" transform="translate(-14.409 -47.156)"/><path d="M137.072,544.118l-.105.338a11.626,11.626,0,0,0-2.875-.506,3.279,3.279,0,0,0-2.995,1.179,3.355,3.355,0,0,0-.912,1.829.074.074,0,0,0-.019.079c-.026.118-.051.236-.079.355-.013.179-.026.358-.04.536a1.334,1.334,0,0,1-.476-.158,1.343,1.343,0,0,0-.411-.244c-.046-.017-.092-.031-.14-.044l.111-.377.149.048.008,0a2.372,2.372,0,0,0,.118-.393A4.323,4.323,0,0,1,131.087,544a.58.58,0,0,1,.266-.139c.535-.094,1.071-.209,1.611-.255a10.319,10.319,0,0,1,3.966.461C136.978,544.086,137.026,544.1,137.072,544.118Z" transform="translate(-9.792 -13.581)"/><path d="M128.486,591.739a.247.247,0,0,1,.074.225.294.294,0,0,1-.209.126,4.589,4.589,0,0,0-.528.024,2.978,2.978,0,0,0-2.148,1.609c-.238.506-.483,1.011-.67,1.535a4.451,4.451,0,0,0-.327,2.161,5.683,5.683,0,0,0,2.932,4.459l-.206.437c-.166-.08-.331-.168-.491-.262a5.6,5.6,0,0,1-1.539-1.3A8.434,8.434,0,0,1,124,598.395a6.932,6.932,0,0,1-.225-.984c-.015-.358-.03-.716-.044-1.076.016-.116.033-.234.048-.352s.037-.237.057-.356c-.019-.113.051-.256-.117-.314-.208.021-.415.039-.624.058l-.436.005-.445-.022a4.152,4.152,0,0,1-3.2-2.093c-.053-.1-.107-.194-.162-.292-.028-.059-.054-.12-.081-.179-.035-.118-.068-.234-.1-.351a.883.883,0,0,0-.666-.829.354.354,0,0,1-.042-.015l.27-.325.013.011,1.05.266a.848.848,0,0,1,.2.065c.286.184.283.262-.019.487,0,.185.008.367.013.552.078.2.155.39.231.585a3.149,3.149,0,0,0,1.821,1.549,4.271,4.271,0,0,0,1.476.074l.526-.136.587-.187c.26-.509.526-1.067.825-1.6a3.844,3.844,0,0,1,1.438-1.269c-.063-.015-.126-.028-.186-.044l.122-.513a11.339,11.339,0,0,0,1.572.369A1.829,1.829,0,0,1,128.486,591.739Z" transform="translate(-3.992 -38.506)"/><path d="M130.4,569.269c.07.236.145.47.216.709a.542.542,0,0,1-.4.035,3.766,3.766,0,0,0-2.485.411,5.52,5.52,0,0,0-2.772,3.953,6.331,6.331,0,0,0-.087,1.847,3.269,3.269,0,0,0,2.218,3.013c.41.149.819.292,1.233.417l-.122.513-.031-.008a5.009,5.009,0,0,1-4.181-4.051h-1.107c-.148,0-.3.006-.443.009-.224-.028-.449-.046-.672-.074l.046-.414c.115.013.231.022.349.026.173.007.349.007.524,0,.412-.008.832-.037,1.277-.052,0-.172-.006-.316,0-.459a5.934,5.934,0,0,1,.915-3.181,5.583,5.583,0,0,1,2.3-2.067,4.937,4.937,0,0,1,2.759-.393l.07.031c0-.035,0-.068,0-.1,0-.015-.007-.027-.009-.042Z" transform="translate(-5.987 -27.055)"/><path d="M120.63,550.689l-.111.377a1.788,1.788,0,0,0-.511-.052,3.7,3.7,0,0,0-3.288,2,5.024,5.024,0,0,0-.74,1.963c.035.238.072.476.107.714.02.088.039.176.059.264.056.12.109.24.165.358.155.2.312.393.468.59.05.059.1.12.151.181-.055.031-.109.064-.164.1l-.836.033-.227.129c-.12.068-.238.137-.356.2l-.6.546,0,0c-.058.092-.115.185-.174.277q-.271.85-.539,1.7c-.061.194-.118.388-.177.58-.033.354-.066.707-.1,1.061.015.083.029.166.046.249q.24.761.485,1.522c.092.172.183.345.275.517q.235.354.471.711a3.136,3.136,0,0,0,2.085,1.033l-.046.414a4.839,4.839,0,0,1-.542-.087.985.985,0,0,0-.978.227c-.258.259-.489.543-.732.818-.054.1-.105.2-.159.306-.037.106-.074.209-.109.314a2.5,2.5,0,0,0,.3,1.65h0l.011,0v0c.223.183.443.365.664.55l-.27.325a1.771,1.771,0,0,1-.266-.212c-.147-.122-.3-.242-.445-.362l-.354-.433c-.083-.152-.168-.3-.253-.454-.041-.176-.079-.351-.118-.526a1.584,1.584,0,0,1,.393-1.539.06.06,0,0,1,.049-.061c.067-.086.133-.174.2-.26.249-.26.5-.522.759-.788-.283-.249-.574-.508-.866-.766l-.188-.212c-.037-.054-.072-.109-.109-.164-.137-.211-.273-.423-.41-.633h0c-.072-.146-.144-.29-.216-.436-.02-.031-.04-.065-.059-.1a3.337,3.337,0,0,1-.47-1.43c-.01-.057-.019-.116-.028-.173a2.307,2.307,0,0,1,.011-1.176,9.774,9.774,0,0,1,.684-2.271,2.681,2.681,0,0,1,1.153-1.227A.06.06,0,0,1,114.8,557q.484-.26.965-.522c-.083-.133-.166-.265-.249-.4-.052-.1-.1-.2-.153-.308-.03-.089-.061-.177-.091-.268-.028-.146-.055-.293-.083-.441-.006-.236-.01-.473-.015-.709.019-.138.035-.279.053-.419.017-.008.033-.013.05-.019l.161-.449c.057-.127.114-.253.171-.378l.183-.332c.061-.087.122-.175.183-.262a6.091,6.091,0,0,1,1.611-1.635,4.756,4.756,0,0,1,1.565-.423,1.918,1.918,0,0,1,1.124.122A2.353,2.353,0,0,0,120.63,550.689Z" transform="translate(-1.293 -17.165)"/></g></svg>