<svg xmlns="http://www.w3.org/2000/svg" xmlns:xlink="http://www.w3.org/1999/xlink" width="414" height="895.904" viewBox="0 0 414 895.904"><defs><style>.a{fill:#7422ff;}.b{fill:#fff;}.c{clip-path:url(#a);}.d{opacity:0.2;}.e{clip-path:url(#b);}.f{clip-path:url(#c);}</style><clipPath id="a"><path class="a" d="M0,0H414V895.9H0Z"/></clipPath><clipPath id="b"><rect class="b" width="330.696" height="338.975"/></clipPath><clipPath id="c"><rect class="b" width="286" height="276.243"/></clipPath></defs><g class="c"><g class="d" transform="translate(139.304 556.927)"><g class="e" transform="translate(0 0.002)"><path class="b" d="M775.246.807a.122.122,0,1,0-.122-.122.121.121,0,0,0,.122.122" transform="translate(-522.739 -0.38)"/><path class="b" d="M842.537.74a.183.183,0,1,0-.183-.183.183.183,0,0,0,.183.183" transform="translate(-568.078 -0.254)"/><path class="b" d="M909.829.675a.244.244,0,1,0-.244-.244.243.243,0,0,0,.244.244" transform="translate(-613.418 -0.127)"/><path class="b" d="M977.121.61a.3.3,0,1,0-.3-.3.3.3,0,0,0,.3.3" transform="translate(-658.758 -0.001)"/><path class="b" d="M539.408,68.289a.061.061,0,1,0-.061-.061.061.061,0,0,0,.061.061" transform="translate(-363.732 -45.972)"/><path class="b" d="M606.573,68.159a.183.183,0,1,0-.183-.183.183.183,0,0,0,.183.183" transform="translate(-408.946 -45.721)"/><path class="b" d="M673.362,67.834a.487.487,0,1,0-.487-.487.487.487,0,0,0,.487.487" transform="translate(-453.783 -45.091)"/><path class="b" d="M740.149,67.507a.791.791,0,1,0-.791-.792.791.791,0,0,0,.791.792" transform="translate(-498.618 -44.459)"/><path class="b" d="M807.189,67.312a.974.974,0,1,0-.974-.974.974.974,0,0,0,.974.974" transform="translate(-543.706 -44.082)"/><path class="b" d="M874.23,67.116a1.157,1.157,0,1,0-1.157-1.157,1.156,1.156,0,0,0,1.157,1.157" transform="translate(-588.795 -43.703)"/><path class="b" d="M941.521,67.051a1.217,1.217,0,1,0-1.217-1.217,1.217,1.217,0,0,0,1.217,1.217" transform="translate(-634.135 -43.577)"/><path class="b" d="M1008.939,67.051a1.217,1.217,0,1,0-1.217-1.217,1.217,1.217,0,0,0,1.217,1.217" transform="translate(-679.601 -43.577)"/><path class="b" d="M438.28,135.708a.061.061,0,1,0-.061-.061.061.061,0,0,0,.061.061" transform="translate(-295.532 -91.439)"/><path class="b" d="M505.068,135.382a.365.365,0,1,0-.365-.365.365.365,0,0,0,.365.365" transform="translate(-340.368 -90.809)"/><path class="b" d="M571.6,134.925a.791.791,0,1,0-.792-.791.791.791,0,0,0,.792.791" transform="translate(-384.952 -89.926)"/><path class="b" d="M638.139,134.469a1.217,1.217,0,1,0-1.217-1.217,1.217,1.217,0,0,0,1.217,1.217" transform="translate(-429.536 -89.044)"/><path class="b" d="M704.927,134.143a1.522,1.522,0,1,0-1.522-1.522,1.522,1.522,0,0,0,1.522,1.522" transform="translate(-474.372 -88.413)"/><path class="b" d="M771.715,133.816a1.826,1.826,0,1,0-1.826-1.826,1.826,1.826,0,0,0,1.826,1.826" transform="translate(-519.208 -87.782)"/><path class="b" d="M838.754,133.621a2.009,2.009,0,1,0-2.009-2.009,2.008,2.008,0,0,0,2.009,2.009" transform="translate(-564.295 -87.404)"/><path class="b" d="M905.92,133.491a2.13,2.13,0,1,0-2.13-2.13,2.13,2.13,0,0,0,2.13,2.13" transform="translate(-609.51 -87.153)"/><path class="b" d="M973.213,133.426a2.191,2.191,0,1,0-2.191-2.191,2.191,2.191,0,0,0,2.191,2.191" transform="translate(-654.851 -87.026)"/><path class="b" d="M337.153,203.126a.061.061,0,1,0-.061-.061.061.061,0,0,0,.061.061" transform="translate(-227.333 -136.906)"/><path class="b" d="M403.94,202.8a.365.365,0,1,0-.365-.365.365.365,0,0,0,.365.365" transform="translate(-272.168 -136.275)"/><path class="b" d="M470.224,202.214a.913.913,0,1,0-.913-.913.913.913,0,0,0,.913.913" transform="translate(-316.5 -135.141)"/><path class="b" d="M536.633,201.691a1.4,1.4,0,1,0-1.4-1.4,1.4,1.4,0,0,0,1.4,1.4" transform="translate(-360.958 -134.131)"/><path class="b" d="M603.043,201.17a1.887,1.887,0,1,0-1.887-1.887,1.887,1.887,0,0,0,1.887,1.887" transform="translate(-405.416 -133.123)"/><path class="b" d="M669.705,200.779a2.252,2.252,0,1,0-2.252-2.253,2.253,2.253,0,0,0,2.252,2.253" transform="translate(-450.126 -132.367)"/><path class="b" d="M736.367,200.388a2.617,2.617,0,1,0-2.617-2.618,2.617,2.617,0,0,0,2.617,2.618" transform="translate(-494.836 -131.611)"/><path class="b" d="M803.28,200.127a2.861,2.861,0,1,0-2.861-2.861,2.861,2.861,0,0,0,2.861,2.861" transform="translate(-539.797 -131.106)"/><path class="b" d="M870.32,199.932a3.043,3.043,0,1,0-3.044-3.044,3.044,3.044,0,0,0,3.044,3.044" transform="translate(-584.885 -130.729)"/><path class="b" d="M937.612,199.866a3.1,3.1,0,1,0-3.1-3.1,3.1,3.1,0,0,0,3.1,3.1" transform="translate(-630.226 -130.602)"/><path class="b" d="M1005.03,193.657a3.1,3.1,0,1,0,1.358,5.893v-5.577a3.085,3.085,0,0,0-1.358-.316" transform="translate(-675.693 -130.602)"/><path class="b" d="M303.191,270.414a.183.183,0,1,0-.183-.183.183.183,0,0,0,.183.183" transform="translate(-204.347 -182.12)"/><path class="b" d="M369.349,269.762a.791.791,0,1,0-.792-.791.791.791,0,0,0,.792.791" transform="translate(-248.552 -180.86)"/><path class="b" d="M435.506,269.11a1.4,1.4,0,1,0-1.4-1.4,1.4,1.4,0,0,0,1.4,1.4" transform="translate(-292.758 -179.598)"/><path class="b" d="M501.79,268.523a1.948,1.948,0,1,0-1.948-1.948,1.948,1.948,0,0,0,1.948,1.948" transform="translate(-337.09 -178.463)"/><path class="b" d="M568.074,267.937a2.5,2.5,0,1,0-2.5-2.5,2.5,2.5,0,0,0,2.5,2.5" transform="translate(-381.422 -177.329)"/><path class="b" d="M634.609,267.48a2.922,2.922,0,1,0-2.922-2.922,2.922,2.922,0,0,0,2.922,2.922" transform="translate(-426.006 -176.446)"/><path class="b" d="M701.145,267.024a3.348,3.348,0,1,0-3.348-3.348,3.348,3.348,0,0,0,3.348,3.348" transform="translate(-470.59 -175.564)"/><path class="b" d="M767.933,266.7a3.652,3.652,0,1,0-3.652-3.652,3.653,3.653,0,0,0,3.652,3.652" transform="translate(-515.426 -174.933)"/><path class="b" d="M834.847,266.437a3.9,3.9,0,1,0-3.9-3.9,3.9,3.9,0,0,0,3.9,3.9" transform="translate(-560.388 -174.429)"/><path class="b" d="M902.012,266.306a4.018,4.018,0,1,0-4.017-4.017,4.018,4.018,0,0,0,4.017,4.017" transform="translate(-605.602 -174.177)"/><path class="b" d="M969.3,266.241a4.078,4.078,0,1,0-4.079-4.078,4.078,4.078,0,0,0,4.079,4.078" transform="translate(-650.942 -174.051)"/><path class="b" d="M268.977,337.572a.426.426,0,1,0-.426-.426.426.426,0,0,0,.426.426" transform="translate(-181.109 -227.082)"/><path class="b" d="M335.01,336.854a1.1,1.1,0,1,0-1.1-1.1,1.1,1.1,0,0,0,1.1,1.1" transform="translate(-225.189 -225.695)"/><path class="b" d="M401.04,336.137a1.765,1.765,0,1,0-1.765-1.765,1.765,1.765,0,0,0,1.765,1.765" transform="translate(-269.268 -224.308)"/><path class="b" d="M467.072,335.419a2.435,2.435,0,1,0-2.435-2.435,2.435,2.435,0,0,0,2.435,2.435" transform="translate(-313.348 -222.921)"/><path class="b" d="M533.356,334.833a2.983,2.983,0,1,0-2.983-2.983,2.983,2.983,0,0,0,2.983,2.983" transform="translate(-357.68 -221.787)"/><path class="b" d="M599.64,334.246a3.531,3.531,0,1,0-3.531-3.531,3.531,3.531,0,0,0,3.531,3.531" transform="translate(-402.012 -220.652)"/><path class="b" d="M666.175,333.789a3.957,3.957,0,1,0-3.956-3.956,3.956,3.956,0,0,0,3.956,3.956" transform="translate(-446.596 -219.769)"/><path class="b" d="M732.711,333.333a4.383,4.383,0,1,0-4.383-4.383,4.383,4.383,0,0,0,4.383,4.383" transform="translate(-491.18 -218.887)"/><path class="b" d="M799.5,333.007a4.687,4.687,0,1,0-4.687-4.687,4.687,4.687,0,0,0,4.687,4.687" transform="translate(-536.015 -218.257)"/><path class="b" d="M866.538,332.812a4.87,4.87,0,1,0-4.87-4.87,4.87,4.87,0,0,0,4.87,4.87" transform="translate(-581.103 -217.878)"/><path class="b" d="M933.7,332.681a4.992,4.992,0,1,0-4.991-4.992,4.991,4.991,0,0,0,4.991,4.992" transform="translate(-626.318 -217.626)"/><path class="b" d="M1001.122,322.7a4.992,4.992,0,1,0,1.358,9.791v-9.6a4.986,4.986,0,0,0-1.358-.192" transform="translate(-671.784 -217.626)"/><path class="b" d="M168.607,405.381a.061.061,0,1,0-.061-.061.061.061,0,0,0,.061.061" transform="translate(-113.666 -273.305)"/><path class="b" d="M234.891,404.794a.609.609,0,1,0-.609-.609.609.609,0,0,0,.609.609" transform="translate(-157.998 -272.17)"/><path class="b" d="M300.669,403.946a1.4,1.4,0,1,0-1.4-1.4,1.4,1.4,0,0,0,1.4,1.4" transform="translate(-201.825 -270.531)"/><path class="b" d="M366.575,403.164a2.131,2.131,0,1,0-2.131-2.131,2.131,2.131,0,0,0,2.131,2.131" transform="translate(-245.779 -269.018)"/><path class="b" d="M432.606,402.446a2.8,2.8,0,1,0-2.8-2.8,2.8,2.8,0,0,0,2.8,2.8" transform="translate(-289.858 -267.631)"/><path class="b" d="M498.638,401.729a3.47,3.47,0,1,0-3.47-3.47,3.469,3.469,0,0,0,3.47,3.47" transform="translate(-333.938 -266.245)"/><path class="b" d="M564.922,401.143a4.017,4.017,0,1,0-4.018-4.018,4.017,4.017,0,0,0,4.018,4.018" transform="translate(-378.27 -265.11)"/><path class="b" d="M631.205,400.556a4.565,4.565,0,1,0-4.565-4.565,4.565,4.565,0,0,0,4.565,4.565" transform="translate(-422.602 -263.975)"/><path class="b" d="M697.614,400.034a5.052,5.052,0,1,0-5.052-5.052,5.052,5.052,0,0,0,5.052,5.052" transform="translate(-467.059 -262.966)"/><path class="b" d="M764.277,399.643a5.417,5.417,0,1,0-5.418-5.418,5.418,5.418,0,0,0,5.418,5.418" transform="translate(-511.77 -262.21)"/><path class="b" d="M831.19,399.383a5.661,5.661,0,1,0-5.661-5.661,5.661,5.661,0,0,0,5.661,5.661" transform="translate(-556.732 -261.707)"/><path class="b" d="M898.23,399.186a5.844,5.844,0,1,0-5.844-5.844,5.844,5.844,0,0,0,5.844,5.844" transform="translate(-601.819 -261.327)"/><path class="b" d="M965.522,399.121a5.9,5.9,0,1,0-5.9-5.9,5.9,5.9,0,0,0,5.9,5.9" transform="translate(-647.159 -261.201)"/><path class="b" d="M134.772,472.734a.122.122,0,1,0-.122-.121.121.121,0,0,0,.122.121" transform="translate(-90.807 -318.646)"/><path class="b" d="M200.8,472.016a.791.791,0,1,0-.792-.791.792.792,0,0,0,.792.791" transform="translate(-134.886 -317.258)"/><path class="b" d="M266.582,471.169A1.583,1.583,0,1,0,265,469.586a1.582,1.582,0,0,0,1.582,1.582" transform="translate(-178.714 -315.619)"/><path class="b" d="M332.488,470.386a2.313,2.313,0,1,0-2.313-2.313,2.313,2.313,0,0,0,2.313,2.313" transform="translate(-222.668 -314.106)"/><path class="b" d="M398.267,469.539a3.1,3.1,0,1,0-3.1-3.1,3.1,3.1,0,0,0,3.1,3.1" transform="translate(-266.495 -312.467)"/><path class="b" d="M464.173,468.756a3.835,3.835,0,1,0-3.835-3.835,3.835,3.835,0,0,0,3.835,3.835" transform="translate(-310.449 -310.954)"/><path class="b" d="M530.331,468.1a4.444,4.444,0,1,0-4.444-4.443,4.443,4.443,0,0,0,4.444,4.443" transform="translate(-354.655 -309.694)"/><path class="b" d="M596.487,467.453a5.052,5.052,0,1,0-5.052-5.052,5.053,5.053,0,0,0,5.052,5.052" transform="translate(-398.86 -308.433)"/><path class="b" d="M662.771,466.866a5.6,5.6,0,1,0-5.6-5.6,5.6,5.6,0,0,0,5.6,5.6" transform="translate(-443.192 -307.299)"/><path class="b" d="M729.181,466.343a6.087,6.087,0,1,0-6.087-6.087,6.087,6.087,0,0,0,6.087,6.087" transform="translate(-487.65 -306.289)"/><path class="b" d="M795.842,465.952a6.453,6.453,0,1,0-6.452-6.452,6.452,6.452,0,0,0,6.452,6.452" transform="translate(-532.36 -305.533)"/><path class="b" d="M862.756,465.692a6.7,6.7,0,1,0-6.7-6.7,6.7,6.7,0,0,0,6.7,6.7" transform="translate(-577.321 -305.029)"/><path class="b" d="M929.922,465.561a6.818,6.818,0,1,0-6.817-6.817,6.817,6.817,0,0,0,6.817,6.817" transform="translate(-622.536 -304.777)"/><path class="b" d="M997.214,451.739a6.879,6.879,0,1,0,1.358,13.622V451.874a6.914,6.914,0,0,0-1.358-.135" transform="translate(-667.876 -304.651)"/><path class="b" d="M101.062,540.153a.122.122,0,1,0-.122-.122.122.122,0,0,0,.122.122" transform="translate(-68.073 -364.112)"/><path class="b" d="M167.094,539.435a.791.791,0,1,0-.792-.792.792.792,0,0,0,.792.792" transform="translate(-112.153 -362.725)"/><path class="b" d="M232.747,538.522a1.644,1.644,0,1,0-1.644-1.644,1.644,1.644,0,0,0,1.644,1.644" transform="translate(-155.854 -360.96)"/><path class="b" d="M298.4,537.61a2.5,2.5,0,1,0-2.5-2.5,2.5,2.5,0,0,0,2.5,2.5" transform="translate(-199.556 -359.195)"/><path class="b" d="M364.179,536.762a3.287,3.287,0,1,0-3.287-3.287,3.287,3.287,0,0,0,3.287,3.287" transform="translate(-243.383 -357.556)"/><path class="b" d="M430.085,535.979a4.018,4.018,0,1,0-4.018-4.018,4.018,4.018,0,0,0,4.018,4.018" transform="translate(-287.337 -356.043)"/><path class="b" d="M495.99,535.2a4.748,4.748,0,1,0-4.748-4.748,4.748,4.748,0,0,0,4.748,4.748" transform="translate(-331.29 -354.53)"/><path class="b" d="M561.9,534.415a5.478,5.478,0,1,0-5.479-5.478,5.478,5.478,0,0,0,5.479,5.478" transform="translate(-375.244 -353.017)"/><path class="b" d="M628.053,533.762a6.087,6.087,0,1,0-6.087-6.087,6.087,6.087,0,0,0,6.087,6.087" transform="translate(-419.45 -351.756)"/><path class="b" d="M694.337,533.175a6.635,6.635,0,1,0-6.635-6.635,6.635,6.635,0,0,0,6.635,6.635" transform="translate(-463.782 -350.621)"/><path class="b" d="M760.747,532.654a7.122,7.122,0,1,0-7.122-7.122,7.122,7.122,0,0,0,7.122,7.122" transform="translate(-508.24 -349.613)"/><path class="b" d="M827.408,532.262a7.487,7.487,0,1,0-7.488-7.487,7.487,7.487,0,0,0,7.488,7.487" transform="translate(-552.949 -348.856)"/><path class="b" d="M894.322,532a7.731,7.731,0,1,0-7.731-7.731A7.731,7.731,0,0,0,894.322,532" transform="translate(-597.911 -348.353)"/><path class="b" d="M961.614,531.936a7.792,7.792,0,1,0-7.792-7.792,7.792,7.792,0,0,0,7.792,7.792" transform="translate(-643.251 -348.226)"/><path class="b" d="M67.479,607.636a.061.061,0,1,0-.061-.061.061.061,0,0,0,.061.061" transform="translate(-45.466 -409.704)"/><path class="b" d="M133.385,606.853a.791.791,0,1,0-.792-.792.791.791,0,0,0,.792.792" transform="translate(-89.42 -408.192)"/><path class="b" d="M199.038,605.941a1.644,1.644,0,1,0-1.644-1.644,1.644,1.644,0,0,0,1.644,1.644" transform="translate(-133.121 -406.427)"/><path class="b" d="M264.691,605.028a2.5,2.5,0,1,0-2.5-2.5,2.5,2.5,0,0,0,2.5,2.5" transform="translate(-176.823 -404.661)"/><path class="b" d="M330.345,604.115A3.348,3.348,0,1,0,327,600.767a3.348,3.348,0,0,0,3.348,3.348" transform="translate(-220.525 -402.896)"/><path class="b" d="M396,603.2a4.2,4.2,0,1,0-4.2-4.2,4.2,4.2,0,0,0,4.2,4.2" transform="translate(-264.226 -401.131)"/><path class="b" d="M461.777,602.355a4.991,4.991,0,1,0-4.992-4.992,4.991,4.991,0,0,0,4.992,4.992" transform="translate(-308.053 -399.493)"/><path class="b" d="M527.683,601.572a5.722,5.722,0,1,0-5.722-5.722,5.722,5.722,0,0,0,5.722,5.722" transform="translate(-352.007 -397.979)"/><path class="b" d="M593.588,600.789a6.452,6.452,0,1,0-6.452-6.452,6.452,6.452,0,0,0,6.452,6.452" transform="translate(-395.961 -396.466)"/><path class="b" d="M659.619,600.072a7.122,7.122,0,1,0-7.122-7.122,7.122,7.122,0,0,0,7.122,7.122" transform="translate(-440.04 -395.079)"/><path class="b" d="M725.9,599.485a7.67,7.67,0,1,0-7.67-7.67,7.67,7.67,0,0,0,7.67,7.67" transform="translate(-484.372 -393.944)"/><path class="b" d="M792.186,598.9a8.218,8.218,0,1,0-8.218-8.218,8.218,8.218,0,0,0,8.218,8.218" transform="translate(-528.703 -392.809)"/><path class="b" d="M858.973,598.572a8.522,8.522,0,1,0-8.523-8.522,8.522,8.522,0,0,0,8.523,8.522" transform="translate(-573.539 -392.18)"/><path class="b" d="M925.887,598.311a8.766,8.766,0,1,0-8.765-8.766,8.766,8.766,0,0,0,8.765,8.766" transform="translate(-618.501 -391.675)"/><path class="b" d="M993.305,580.78a8.766,8.766,0,1,0,1.358,17.415V580.9a8.8,8.8,0,0,0-1.358-.116" transform="translate(-663.967 -391.675)"/><path class="b" d="M100.054,674.467a.609.609,0,1,0-.609-.609.609.609,0,0,0,.609.609" transform="translate(-67.065 -454.036)"/><path class="b" d="M165.581,673.488a1.522,1.522,0,1,0-1.522-1.522,1.522,1.522,0,0,0,1.522,1.522" transform="translate(-110.64 -452.144)"/><path class="b" d="M231.108,672.511a2.435,2.435,0,1,0-2.435-2.435,2.435,2.435,0,0,0,2.435,2.435" transform="translate(-154.216 -450.253)"/><path class="b" d="M296.635,671.534a3.348,3.348,0,1,0-3.348-3.348,3.348,3.348,0,0,0,3.348,3.348" transform="translate(-197.791 -448.363)"/><path class="b" d="M362.289,670.62a4.2,4.2,0,1,0-4.2-4.2,4.2,4.2,0,0,0,4.2,4.2" transform="translate(-241.493 -446.598)"/><path class="b" d="M427.941,669.707a5.052,5.052,0,1,0-5.052-5.052,5.053,5.053,0,0,0,5.052,5.052" transform="translate(-285.194 -444.832)"/><path class="b" d="M493.721,668.859a5.844,5.844,0,1,0-5.844-5.843,5.843,5.843,0,0,0,5.844,5.843" transform="translate(-329.021 -443.193)"/><path class="b" d="M559.5,668.012a6.635,6.635,0,1,0-6.635-6.635,6.635,6.635,0,0,0,6.635,6.635" transform="translate(-372.849 -441.555)"/><path class="b" d="M625.279,667.164a7.426,7.426,0,1,0-7.426-7.426,7.426,7.426,0,0,0,7.426,7.426" transform="translate(-416.676 -439.916)"/><path class="b" d="M691.311,666.447a8.1,8.1,0,1,0-8.1-8.1,8.1,8.1,0,0,0,8.1,8.1" transform="translate(-460.756 -438.529)"/><path class="b" d="M757.343,665.73a8.765,8.765,0,1,0-8.766-8.765,8.765,8.765,0,0,0,8.766,8.765" transform="translate(-504.836 -437.142)"/><path class="b" d="M823.752,665.208a9.253,9.253,0,1,0-9.252-9.252,9.253,9.253,0,0,0,9.252,9.252" transform="translate(-549.294 -436.133)"/><path class="b" d="M890.413,664.817A9.618,9.618,0,1,0,880.8,655.2a9.618,9.618,0,0,0,9.618,9.617" transform="translate(-594.003 -435.377)"/><path class="b" d="M957.58,664.687a9.739,9.739,0,1,0-9.74-9.739,9.739,9.739,0,0,0,9.74,9.739" transform="translate(-639.217 -435.125)"/><path class="b" d="M66.722,742.081a.426.426,0,1,0-.426-.426.426.426,0,0,0,.426.426" transform="translate(-44.71 -499.881)"/><path class="b" d="M132.25,741.1a1.339,1.339,0,1,0-1.339-1.339,1.339,1.339,0,0,0,1.339,1.339" transform="translate(-88.286 -497.989)"/><path class="b" d="M197.777,740.125a2.252,2.252,0,1,0-2.252-2.252,2.252,2.252,0,0,0,2.252,2.252" transform="translate(-131.861 -496.099)"/><path class="b" d="M263.3,739.147a3.165,3.165,0,1,0-3.165-3.166,3.166,3.166,0,0,0,3.165,3.166" transform="translate(-175.436 -494.207)"/><path class="b" d="M328.832,738.169a4.078,4.078,0,1,0-4.079-4.078,4.078,4.078,0,0,0,4.079,4.078" transform="translate(-219.011 -492.316)"/><path class="b" d="M394.359,737.191a4.992,4.992,0,1,0-4.992-4.992,4.992,4.992,0,0,0,4.992,4.992" transform="translate(-262.587 -490.425)"/><path class="b" d="M460.012,736.278a5.844,5.844,0,1,0-5.844-5.844,5.844,5.844,0,0,0,5.844,5.844" transform="translate(-306.288 -488.659)"/><path class="b" d="M525.666,735.365a6.7,6.7,0,1,0-6.7-6.7,6.7,6.7,0,0,0,6.7,6.7" transform="translate(-349.99 -486.895)"/><path class="b" d="M591.318,734.452a7.548,7.548,0,1,0-7.548-7.548,7.548,7.548,0,0,0,7.548,7.548" transform="translate(-393.691 -485.13)"/><path class="b" d="M657.1,733.6a8.34,8.34,0,1,0-8.339-8.339A8.339,8.339,0,0,0,657.1,733.6" transform="translate(-437.518 -483.49)"/><path class="b" d="M722.877,732.757a9.131,9.131,0,1,0-9.131-9.131,9.131,9.131,0,0,0,9.131,9.131" transform="translate(-481.346 -481.852)"/><path class="b" d="M788.907,732.039a9.8,9.8,0,1,0-9.8-9.8,9.8,9.8,0,0,0,9.8,9.8" transform="translate(-525.425 -480.465)"/><path class="b" d="M855.317,731.518a10.287,10.287,0,1,0-10.288-10.288,10.288,10.288,0,0,0,10.288,10.288" transform="translate(-569.882 -479.456)"/><path class="b" d="M922.105,731.192A10.592,10.592,0,1,0,911.514,720.6a10.592,10.592,0,0,0,10.591,10.592" transform="translate(-614.719 -478.826)"/><path class="b" d="M989.4,709.821a10.653,10.653,0,1,0,1.358,21.209V709.917a10.687,10.687,0,0,0-1.358-.1" transform="translate(-660.059 -478.699)"/><path class="b" d="M33.518,809.76a.182.182,0,1,0-.183-.183.183.183,0,0,0,.183.183" transform="translate(-22.481 -545.852)"/><path class="b" d="M99.171,808.847a1.035,1.035,0,1,0-1.035-1.035,1.035,1.035,0,0,0,1.035,1.035" transform="translate(-66.182 -544.087)"/><path class="b" d="M164.572,807.8a2.009,2.009,0,1,0-2.009-2.009,2.009,2.009,0,0,0,2.009,2.009" transform="translate(-109.631 -542.069)"/><path class="b" d="M230.1,806.826a2.922,2.922,0,1,0-2.922-2.922,2.922,2.922,0,0,0,2.922,2.922" transform="translate(-153.207 -540.178)"/><path class="b" d="M295.5,805.782a3.9,3.9,0,1,0-3.9-3.9,3.9,3.9,0,0,0,3.9,3.9" transform="translate(-196.657 -538.16)"/><path class="b" d="M361.027,804.8A4.809,4.809,0,1,0,356.218,800a4.809,4.809,0,0,0,4.809,4.809" transform="translate(-240.231 -536.27)"/><path class="b" d="M426.68,803.892a5.661,5.661,0,1,0-5.661-5.661,5.661,5.661,0,0,0,5.661,5.661" transform="translate(-283.933 -534.505)"/><path class="b" d="M492.208,802.913a6.574,6.574,0,1,0-6.574-6.574,6.574,6.574,0,0,0,6.574,6.574" transform="translate(-327.508 -532.613)"/><path class="b" d="M557.735,801.936a7.487,7.487,0,1,0-7.487-7.487,7.487,7.487,0,0,0,7.487,7.487" transform="translate(-371.084 -530.723)"/><path class="b" d="M623.262,800.957a8.4,8.4,0,1,0-8.4-8.4,8.4,8.4,0,0,0,8.4,8.4" transform="translate(-414.659 -528.831)"/><path class="b" d="M688.915,800.045a9.252,9.252,0,1,0-9.252-9.252,9.253,9.253,0,0,0,9.252,9.252" transform="translate(-458.36 -527.066)"/><path class="b" d="M754.7,799.2a10.044,10.044,0,1,0-10.044-10.044A10.044,10.044,0,0,0,754.7,799.2" transform="translate(-502.188 -525.427)"/><path class="b" d="M820.6,798.414a10.774,10.774,0,1,0-10.774-10.774A10.774,10.774,0,0,0,820.6,798.414" transform="translate(-546.141 -523.913)"/><path class="b" d="M886.757,797.763a11.383,11.383,0,1,0-11.383-11.383,11.383,11.383,0,0,0,11.383,11.383" transform="translate(-590.347 -522.654)"/><path class="b" d="M953.671,797.5a11.626,11.626,0,1,0-11.627-11.626A11.626,11.626,0,0,0,953.671,797.5" transform="translate(-635.308 -522.149)"/><path class="b" d="M1010.211,797.383a11.318,11.318,0,0,0,1.765,6.07V791.313a11.318,11.318,0,0,0-1.765,6.07" transform="translate(-681.28 -533.657)"/><path class="b" d="M.061,877.309A.061.061,0,1,0,0,877.248a.061.061,0,0,0,.061.061" transform="translate(0 -591.57)"/><path class="b" d="M66.092,876.592a.73.73,0,1,0-.73-.73.731.731,0,0,0,.73.73" transform="translate(-44.08 -590.183)"/><path class="b" d="M131.62,875.613a1.644,1.644,0,1,0-1.644-1.643,1.644,1.644,0,0,0,1.644,1.643" transform="translate(-87.655 -588.292)"/><path class="b" d="M197.021,874.571a2.617,2.617,0,1,0-2.618-2.617,2.618,2.618,0,0,0,2.618,2.617" transform="translate(-131.104 -586.275)"/><path class="b" d="M262.548,873.591a3.531,3.531,0,1,0-3.531-3.531,3.531,3.531,0,0,0,3.531,3.531" transform="translate(-174.679 -584.383)"/><path class="b" d="M327.949,872.548a4.5,4.5,0,1,0-4.5-4.5,4.5,4.5,0,0,0,4.5,4.5" transform="translate(-218.129 -582.366)"/><path class="b" d="M393.476,871.571a5.417,5.417,0,1,0-5.418-5.417,5.418,5.418,0,0,0,5.418,5.417" transform="translate(-261.704 -580.475)"/><path class="b" d="M459,870.593a6.331,6.331,0,1,0-6.33-6.331,6.33,6.33,0,0,0,6.33,6.331" transform="translate(-305.28 -578.584)"/><path class="b" d="M524.531,869.615a7.244,7.244,0,1,0-7.244-7.243,7.243,7.243,0,0,0,7.244,7.243" transform="translate(-348.855 -576.693)"/><path class="b" d="M589.932,868.571a8.218,8.218,0,1,0-8.218-8.217,8.218,8.218,0,0,0,8.218,8.217" transform="translate(-392.304 -574.676)"/><path class="b" d="M655.459,867.593a9.131,9.131,0,1,0-9.131-9.131,9.131,9.131,0,0,0,9.131,9.131" transform="translate(-435.879 -572.784)"/><path class="b" d="M720.986,866.615a10.044,10.044,0,1,0-10.044-10.044,10.044,10.044,0,0,0,10.044,10.044" transform="translate(-479.455 -570.894)"/><path class="b" d="M786.512,865.637a10.957,10.957,0,1,0-10.957-10.957,10.957,10.957,0,0,0,10.957,10.957" transform="translate(-523.029 -569.002)"/><path class="b" d="M852.292,864.789a11.748,11.748,0,1,0-11.749-11.748,11.748,11.748,0,0,0,11.749,11.748" transform="translate(-566.857 -567.363)"/><path class="b" d="M918.323,864.072a12.418,12.418,0,1,0-12.418-12.418,12.418,12.418,0,0,0,12.418,12.418" transform="translate(-610.937 -565.977)"/><path class="b" d="M985.741,839.237A12.418,12.418,0,1,0,987.1,863.99V839.319a12.568,12.568,0,0,0-1.358-.082" transform="translate(-656.403 -565.977)"/><path class="b" d="M33.265,944.467a.3.3,0,1,0-.3-.3.3.3,0,0,0,.3.3" transform="translate(-22.229 -636.532)"/><path class="b" d="M98.793,943.488a1.218,1.218,0,1,0-1.217-1.217,1.218,1.218,0,0,0,1.217,1.217" transform="translate(-65.805 -634.641)"/><path class="b" d="M164.194,942.445A2.191,2.191,0,1,0,162,940.254a2.191,2.191,0,0,0,2.191,2.191" transform="translate(-109.254 -632.624)"/><path class="b" d="M229.721,941.468a3.1,3.1,0,1,0-3.1-3.1,3.1,3.1,0,0,0,3.1,3.1" transform="translate(-152.829 -630.733)"/><path class="b" d="M295.122,940.424a4.078,4.078,0,1,0-4.078-4.078,4.078,4.078,0,0,0,4.078,4.078" transform="translate(-196.278 -628.716)"/><path class="b" d="M360.65,939.446a4.991,4.991,0,1,0-4.992-4.991,4.991,4.991,0,0,0,4.992,4.991" transform="translate(-239.853 -626.825)"/><path class="b" d="M426.177,938.466a5.9,5.9,0,1,0-5.9-5.9,5.9,5.9,0,0,0,5.9,5.9" transform="translate(-283.429 -624.932)"/><path class="b" d="M491.577,937.424a6.878,6.878,0,1,0-6.878-6.879,6.879,6.879,0,0,0,6.878,6.879" transform="translate(-326.878 -622.916)"/><path class="b" d="M557.1,936.446a7.791,7.791,0,1,0-7.792-7.792,7.791,7.791,0,0,0,7.792,7.792" transform="translate(-370.453 -621.025)"/><path class="b" d="M622.506,935.4a8.765,8.765,0,1,0-8.766-8.765,8.766,8.766,0,0,0,8.766,8.765" transform="translate(-413.902 -619.007)"/><path class="b" d="M687.907,934.36a9.74,9.74,0,1,0-9.739-9.74,9.74,9.74,0,0,0,9.739,9.74" transform="translate(-457.352 -616.991)"/><path class="b" d="M753.434,933.381a10.653,10.653,0,1,0-10.653-10.652,10.652,10.652,0,0,0,10.653,10.652" transform="translate(-500.927 -615.099)"/><path class="b" d="M818.835,932.339a11.626,11.626,0,1,0-11.627-11.626,11.626,11.626,0,0,0,11.627,11.626" transform="translate(-544.376 -613.082)"/><path class="b" d="M884.361,931.36a12.54,12.54,0,1,0-12.54-12.54,12.54,12.54,0,0,0,12.54,12.54" transform="translate(-587.95 -611.191)"/><path class="b" d="M950.394,904.224a13.209,13.209,0,1,0,12.334,17.938v-9.457a13.212,13.212,0,0,0-12.334-8.481" transform="translate(-632.032 -609.804)"/><path class="b" d="M1006.472,927.94a12.548,12.548,0,0,0,2.983,8.137V919.8a12.548,12.548,0,0,0-2.983,8.137" transform="translate(-678.758 -620.31)"/><path class="b" d="M.061,1012.146a.061.061,0,1,0-.061-.061.061.061,0,0,0,.061.061" transform="translate(0 -682.503)"/><path class="b" d="M66.092,1011.429a.73.73,0,1,0-.73-.73.731.731,0,0,0,.73.73" transform="translate(-44.08 -681.117)"/><path class="b" d="M131.62,1010.449a1.644,1.644,0,1,0-1.644-1.644,1.644,1.644,0,0,0,1.644,1.644" transform="translate(-87.655 -679.224)"/><path class="b" d="M197.021,1009.407a2.618,2.618,0,1,0-2.618-2.618,2.618,2.618,0,0,0,2.618,2.618" transform="translate(-131.104 -677.208)"/><path class="b" d="M262.548,1008.428a3.531,3.531,0,1,0-3.531-3.531,3.53,3.53,0,0,0,3.531,3.531" transform="translate(-174.679 -675.316)"/><path class="b" d="M327.949,1007.385a4.5,4.5,0,1,0-4.5-4.5,4.5,4.5,0,0,0,4.5,4.5" transform="translate(-218.129 -673.299)"/><path class="b" d="M393.476,1006.407a5.418,5.418,0,1,0-5.418-5.418,5.418,5.418,0,0,0,5.418,5.418" transform="translate(-261.704 -671.408)"/><path class="b" d="M459,1005.429a6.331,6.331,0,1,0-6.33-6.33,6.33,6.33,0,0,0,6.33,6.33" transform="translate(-305.28 -669.517)"/><path class="b" d="M524.4,1004.386a7.3,7.3,0,1,0-7.3-7.3,7.3,7.3,0,0,0,7.3,7.3" transform="translate(-348.728 -667.5)"/><path class="b" d="M589.932,1003.408a8.218,8.218,0,1,0-8.218-8.218,8.218,8.218,0,0,0,8.218,8.218" transform="translate(-392.304 -665.608)"/><path class="b" d="M655.459,1002.429a9.131,9.131,0,1,0-9.131-9.131,9.131,9.131,0,0,0,9.131,9.131" transform="translate(-435.879 -663.717)"/><path class="b" d="M731.029,991.407a10.044,10.044,0,1,0-13.574,9.394h7.059a10.038,10.038,0,0,0,6.514-9.394" transform="translate(-479.454 -661.826)"/><path class="b" d="M797.469,989.517a10.957,10.957,0,1,0-16.576,9.394h11.238a10.941,10.941,0,0,0,5.338-9.394" transform="translate(-523.029 -659.935)"/><path class="b" d="M863.974,987.751a11.809,11.809,0,1,0-18.945,9.394H859.3a11.778,11.778,0,0,0,4.673-9.394" transform="translate(-566.731 -658.17)"/><path class="b" d="M930.676,986.365a12.479,12.479,0,1,0-20.688,9.394h16.419a12.446,12.446,0,0,0,4.269-9.394" transform="translate(-610.811 -656.783)"/><path class="b" d="M986.847,973.781a12.471,12.471,0,0,0-13.9,12.458,12.506,12.506,0,0,0,4.237,9.393h9.661Z" transform="translate(-656.151 -656.657)"/></g></g><g class="d" transform="translate(-38 -31.516)"><g class="f" transform="translate(0 0.001)"><path class="b" d="M12.747,2.911A8.324,8.324,0,0,0,12.224,0H0V10.046a8.324,8.324,0,0,0,4.37,1.241,8.376,8.376,0,0,0,8.376-8.376" transform="translate(-0.001 -0.001)"/><path class="b" d="M58.573,11.76A8.842,8.842,0,0,0,66.927,0H50.219A8.842,8.842,0,0,0,58.573,11.76" transform="translate(-37.137 -0.001)"/><path class="b" d="M125.433,11.949A9.031,9.031,0,0,0,133.987,0H116.878a9.031,9.031,0,0,0,8.555,11.948" transform="translate(-86.931 -0.001)"/><path class="b" d="M193.41,11.76A8.842,8.842,0,0,0,201.764,0H185.056A8.842,8.842,0,0,0,193.41,11.76" transform="translate(-137.843 -0.001)"/><path class="b" d="M262.084,11.335A8.421,8.421,0,0,0,269.988,0H254.18a8.421,8.421,0,0,0,7.9,11.333" transform="translate(-189.452 -0.002)"/><path class="b" d="M331.038,10.813A7.907,7.907,0,0,0,338.388,0h-14.7a7.906,7.906,0,0,0,7.35,10.812" transform="translate(-241.34 -0.001)"/><path class="b" d="M400.412,10.151A7.232,7.232,0,0,0,407.037,0H393.786a7.232,7.232,0,0,0,6.626,10.15" transform="translate(-293.648 -0.001)"/><path class="b" d="M469.785,9.489A6.567,6.567,0,0,0,475.677,0H463.892a6.567,6.567,0,0,0,5.893,9.487" transform="translate(-345.955 -0.002)"/><path class="b" d="M539.3,8.78A5.861,5.861,0,0,0,544.389,0H534.206A5.862,5.862,0,0,0,539.3,8.78" transform="translate(-398.403 -0.002)"/><path class="b" d="M608.67,8.116A5.206,5.206,0,0,0,612.987,0h-8.634a5.206,5.206,0,0,0,4.317,8.115" transform="translate(-450.71 -0.001)"/><path class="b" d="M678.184,7.406A4.493,4.493,0,0,0,681.607,0H674.76a4.493,4.493,0,0,0,3.424,7.405" transform="translate(-503.157 -0.001)"/><path class="b" d="M743.91,2.911A3.786,3.786,0,1,0,750.117,0h-4.842a3.778,3.778,0,0,0-1.365,2.91" transform="translate(-555.604 -0.001)"/><path class="b" d="M814.132,2.911A3.076,3.076,0,1,0,818.2,0h-1.982a3.075,3.075,0,0,0-2.085,2.91" transform="translate(-608.051 -0.001)"/><path class="b" d="M886.721,6.88a2.366,2.366,0,1,0-2.366-2.366,2.366,2.366,0,0,0,2.366,2.366" transform="translate(-660.498 -1.605)"/><path class="b" d="M956.374,8.358a1.609,1.609,0,1,0-1.609-1.609,1.609,1.609,0,0,0,1.609,1.609" transform="translate(-713.085 -3.839)"/><path class="b" d="M1025.886,9.742a.9.9,0,1,0-.9-.9.9.9,0,0,0,.9.9" transform="translate(-765.532 -5.933)"/><path class="b" d="M1095.4,11.127a.189.189,0,1,0-.189-.189.189.189,0,0,0,.189.189" transform="translate(-817.979 -8.028)"/><path class="b" d="M4.356,57A8.512,8.512,0,0,0,0,49.57V64.426A8.512,8.512,0,0,0,4.356,57" transform="translate(0 -37.023)"/><path class="b" d="M24.026,61.1a9.133,9.133,0,1,0-9.133-9.133A9.133,9.133,0,0,0,24.026,61.1" transform="translate(-11.123 -31.991)"/><path class="b" d="M89.909,60.084a9.654,9.654,0,1,0-9.654-9.654,9.654,9.654,0,0,0,9.654,9.654" transform="translate(-59.94 -30.455)"/><path class="b" d="M157.327,60.084a9.654,9.654,0,1,0-9.654-9.654,9.654,9.654,0,0,0,9.654,9.654" transform="translate(-110.293 -30.455)"/><path class="b" d="M226,60.915a9.228,9.228,0,1,0-9.228-9.228A9.228,9.228,0,0,0,226,60.915" transform="translate(-161.902 -31.712)"/><path class="b" d="M295.374,62.207a8.565,8.565,0,1,0-8.565-8.565,8.565,8.565,0,0,0,8.565,8.565" transform="translate(-214.209 -33.666)"/><path class="b" d="M364.887,63.592a7.856,7.856,0,1,0-7.856-7.855,7.856,7.856,0,0,0,7.856,7.855" transform="translate(-266.656 -35.761)"/><path class="b" d="M434.4,64.975a7.146,7.146,0,1,0-7.146-7.146,7.146,7.146,0,0,0,7.146,7.146" transform="translate(-319.104 -37.855)"/><path class="b" d="M503.913,66.361a6.436,6.436,0,1,0-6.436-6.436,6.436,6.436,0,0,0,6.436,6.436" transform="translate(-371.551 -39.95)"/><path class="b" d="M573.425,67.745a5.726,5.726,0,1,0-5.726-5.726,5.726,5.726,0,0,0,5.726,5.726" transform="translate(-423.997 -42.044)"/><path class="b" d="M643.078,69.223a4.969,4.969,0,1,0-4.969-4.969,4.969,4.969,0,0,0,4.969,4.969" transform="translate(-476.584 -44.278)"/><path class="b" d="M712.591,70.607a4.259,4.259,0,1,0-4.259-4.259,4.259,4.259,0,0,0,4.259,4.259" transform="translate(-529.032 -46.373)"/><path class="b" d="M782.1,71.992a3.549,3.549,0,1,0-3.549-3.549,3.549,3.549,0,0,0,3.549,3.549" transform="translate(-581.479 -48.468)"/><path class="b" d="M851.615,73.376a2.839,2.839,0,1,0-2.839-2.839,2.839,2.839,0,0,0,2.839,2.839" transform="translate(-633.925 -50.561)"/><path class="b" d="M921.268,74.853a2.082,2.082,0,1,0-2.082-2.082,2.082,2.082,0,0,0,2.082,2.082" transform="translate(-686.512 -52.795)"/><path class="b" d="M990.921,76.33a1.325,1.325,0,1,0-1.325-1.325,1.325,1.325,0,0,0,1.325,1.325" transform="translate(-739.1 -55.03)"/><path class="b" d="M1060.433,77.714a.615.615,0,1,0-.615-.615.615.615,0,0,0,.615.615" transform="translate(-791.546 -57.124)"/><path class="b" d="M1129.527,78.822a.047.047,0,1,0-.047-.047.047.047,0,0,0,.047.047" transform="translate(-843.575 -58.799)"/><path class="b" d="M13.409,119.664A9.036,9.036,0,0,0,0,111.753v15.82a9.036,9.036,0,0,0,13.409-7.91" transform="translate(0 -82.623)"/><path class="b" d="M55.92,127.318a9.748,9.748,0,1,0-9.748-9.749,9.748,9.748,0,0,0,9.748,9.749" transform="translate(-34.484 -80.529)"/><path class="b" d="M121.8,126.3a10.269,10.269,0,1,0-10.269-10.269A10.269,10.269,0,0,0,121.8,126.3" transform="translate(-83.301 -78.992)"/><path class="b" d="M190.618,127.226a9.8,9.8,0,1,0-9.8-9.8,9.8,9.8,0,0,0,9.8,9.8" transform="translate(-135.051 -80.389)"/><path class="b" d="M260.13,128.61a9.086,9.086,0,1,0-9.086-9.086,9.086,9.086,0,0,0,9.086,9.086" transform="translate(-187.497 -82.483)"/><path class="b" d="M329.642,129.994a8.376,8.376,0,1,0-8.376-8.376,8.376,8.376,0,0,0,8.376,8.376" transform="translate(-239.944 -84.577)"/><path class="b" d="M399.294,131.472a7.619,7.619,0,1,0-7.619-7.619,7.619,7.619,0,0,0,7.619,7.619" transform="translate(-292.53 -86.812)"/><path class="b" d="M468.948,132.948a6.862,6.862,0,1,0-6.862-6.862,6.862,6.862,0,0,0,6.862,6.862" transform="translate(-345.118 -89.046)"/><path class="b" d="M538.459,134.333a6.152,6.152,0,1,0-6.152-6.152,6.152,6.152,0,0,0,6.152,6.152" transform="translate(-397.564 -91.14)"/><path class="b" d="M608.112,135.81a5.395,5.395,0,1,0-5.395-5.395,5.395,5.395,0,0,0,5.395,5.395" transform="translate(-450.151 -93.374)"/><path class="b" d="M677.625,137.195a4.685,4.685,0,1,0-4.685-4.685,4.685,4.685,0,0,0,4.685,4.685" transform="translate(-502.599 -95.469)"/><path class="b" d="M747.137,138.579a3.975,3.975,0,1,0-3.975-3.975,3.975,3.975,0,0,0,3.975,3.975" transform="translate(-555.045 -97.563)"/><path class="b" d="M816.79,140.056a3.218,3.218,0,1,0-3.218-3.218,3.218,3.218,0,0,0,3.218,3.218" transform="translate(-607.633 -99.797)"/><path class="b" d="M886.3,141.441a2.508,2.508,0,1,0-2.508-2.508,2.508,2.508,0,0,0,2.508,2.508" transform="translate(-660.079 -101.892)"/><path class="b" d="M955.955,142.918a1.751,1.751,0,1,0-1.751-1.751,1.751,1.751,0,0,0,1.751,1.751" transform="translate(-712.666 -104.126)"/><path class="b" d="M1025.607,144.395a.994.994,0,1,0-.994-.994.994.994,0,0,0,.994.994" transform="translate(-765.253 -106.36)"/><path class="b" d="M1095.119,145.779a.284.284,0,1,0-.284-.284.284.284,0,0,0,.284.284" transform="translate(-817.699 -108.454)"/><path class="b" d="M4.356,191.835A8.512,8.512,0,0,0,0,184.407v14.856a8.512,8.512,0,0,0,4.356-7.428" transform="translate(0 -137.728)"/><path class="b" d="M23.887,195.844a9.181,9.181,0,1,0-9.181-9.181,9.181,9.181,0,0,0,9.181,9.181" transform="translate(-10.983 -132.557)"/><path class="b" d="M89.769,194.828a9.7,9.7,0,1,0-9.7-9.7,9.7,9.7,0,0,0,9.7,9.7" transform="translate(-59.8 -131.021)"/><path class="b" d="M157.048,194.736a9.748,9.748,0,1,0-9.748-9.748,9.748,9.748,0,0,0,9.748,9.748" transform="translate(-110.014 -130.881)"/><path class="b" d="M226,195.752a9.228,9.228,0,1,0-9.228-9.228A9.228,9.228,0,0,0,226,195.752" transform="translate(-161.902 -132.417)"/><path class="b" d="M295.235,196.952a8.613,8.613,0,1,0-8.612-8.613,8.613,8.613,0,0,0,8.612,8.613" transform="translate(-214.07 -134.233)"/><path class="b" d="M364.748,198.336a7.9,7.9,0,1,0-7.9-7.9,7.9,7.9,0,0,0,7.9,7.9" transform="translate(-266.517 -136.327)"/><path class="b" d="M434.26,199.721a7.193,7.193,0,1,0-7.193-7.193,7.193,7.193,0,0,0,7.193,7.193" transform="translate(-318.964 -138.421)"/><path class="b" d="M503.913,201.2a6.436,6.436,0,1,0-6.436-6.436,6.436,6.436,0,0,0,6.436,6.436" transform="translate(-371.551 -140.655)"/><path class="b" d="M573.425,202.583a5.726,5.726,0,1,0-5.726-5.726,5.726,5.726,0,0,0,5.726,5.726" transform="translate(-423.997 -142.75)"/><path class="b" d="M643.078,204.059a4.969,4.969,0,1,0-4.969-4.969,4.969,4.969,0,0,0,4.969,4.969" transform="translate(-476.584 -144.983)"/><path class="b" d="M712.591,205.444a4.259,4.259,0,1,0-4.259-4.259,4.259,4.259,0,0,0,4.259,4.259" transform="translate(-529.032 -147.078)"/><path class="b" d="M782.1,206.828a3.549,3.549,0,1,0-3.549-3.549,3.549,3.549,0,0,0,3.549,3.549" transform="translate(-581.479 -149.173)"/><path class="b" d="M851.615,208.213a2.839,2.839,0,1,0-2.839-2.839,2.839,2.839,0,0,0,2.839,2.839" transform="translate(-633.925 -151.267)"/><path class="b" d="M921.268,209.689a2.082,2.082,0,1,0-2.082-2.082,2.082,2.082,0,0,0,2.082,2.082" transform="translate(-686.512 -153.5)"/><path class="b" d="M990.781,211.074a1.372,1.372,0,1,0-1.372-1.372,1.372,1.372,0,0,0,1.372,1.372" transform="translate(-738.96 -155.595)"/><path class="b" d="M1060.433,212.55a.615.615,0,1,0-.615-.615.615.615,0,0,0,.615.615" transform="translate(-791.546 -157.829)"/><path class="b" d="M1129.527,213.659a.047.047,0,1,0-.047-.047.047.047,0,0,0,.047.047" transform="translate(-843.575 -159.505)"/><path class="b" d="M12.794,256.315A8.41,8.41,0,0,0,0,249.124v14.382a8.411,8.411,0,0,0,12.794-7.191" transform="translate(0 -185.143)"/><path class="b" d="M58.434,263.816a8.9,8.9,0,1,0-8.9-8.9,8.9,8.9,0,0,0,8.9,8.9" transform="translate(-36.998 -183.747)"/><path class="b" d="M125.293,263.446a9.086,9.086,0,1,0-9.086-9.086,9.086,9.086,0,0,0,9.086,9.086" transform="translate(-86.792 -183.188)"/><path class="b" d="M193.131,263.723a8.944,8.944,0,1,0-8.944-8.944,8.944,8.944,0,0,0,8.944,8.944" transform="translate(-137.564 -183.607)"/><path class="b" d="M261.945,264.647a8.471,8.471,0,1,0-8.471-8.47,8.471,8.471,0,0,0,8.471,8.47" transform="translate(-189.312 -185.004)"/><path class="b" d="M331.038,265.755a7.9,7.9,0,1,0-7.9-7.9,7.9,7.9,0,0,0,7.9,7.9" transform="translate(-241.34 -186.68)"/><path class="b" d="M400.272,266.955a7.287,7.287,0,1,0-7.288-7.288,7.287,7.287,0,0,0,7.288,7.288" transform="translate(-293.508 -188.495)"/><path class="b" d="M469.645,268.247a6.625,6.625,0,1,0-6.625-6.625,6.625,6.625,0,0,0,6.625,6.625" transform="translate(-345.816 -190.45)"/><path class="b" d="M539.158,269.632a5.915,5.915,0,1,0-5.916-5.915,5.915,5.915,0,0,0,5.916,5.915" transform="translate(-398.262 -192.544)"/><path class="b" d="M608.67,271.016a5.205,5.205,0,1,0-5.205-5.205,5.205,5.205,0,0,0,5.205,5.205" transform="translate(-450.71 -194.638)"/><path class="b" d="M678.183,272.4a4.5,4.5,0,1,0-4.5-4.5,4.5,4.5,0,0,0,4.5,4.5" transform="translate(-503.157 -196.733)"/><path class="b" d="M747.7,273.785A3.786,3.786,0,1,0,743.91,270a3.786,3.786,0,0,0,3.786,3.786" transform="translate(-555.604 -198.827)"/><path class="b" d="M817.208,275.17a3.076,3.076,0,1,0-3.076-3.076,3.076,3.076,0,0,0,3.076,3.076" transform="translate(-608.051 -200.922)"/><path class="b" d="M886.721,276.554a2.366,2.366,0,1,0-2.366-2.366,2.366,2.366,0,0,0,2.366,2.366" transform="translate(-660.498 -203.016)"/><path class="b" d="M956.234,277.938a1.656,1.656,0,1,0-1.656-1.656,1.656,1.656,0,0,0,1.656,1.656" transform="translate(-712.946 -205.11)"/><path class="b" d="M1025.886,279.415a.9.9,0,1,0-.9-.9.9.9,0,0,0,.9.9" transform="translate(-765.532 -207.344)"/><path class="b" d="M1095.4,280.8a.189.189,0,1,0-.189-.189.189.189,0,0,0,.189.189" transform="translate(-817.979 -209.438)"/><path class="b" d="M3.5,329.609A7.655,7.655,0,0,0,0,323.177v12.864a7.655,7.655,0,0,0,3.5-6.432" transform="translate(0 -241.371)"/><path class="b" d="M27.1,332.8a8.092,8.092,0,1,0-8.092-8.092A8.092,8.092,0,0,0,27.1,332.8" transform="translate(-14.195 -236.474)"/><path class="b" d="M93.818,332.342a8.329,8.329,0,1,0-8.329-8.329,8.329,8.329,0,0,0,8.329,8.329" transform="translate(-63.849 -235.776)"/><path class="b" d="M161.237,332.342a8.329,8.329,0,1,0-8.329-8.329,8.329,8.329,0,0,0,8.329,8.329" transform="translate(-114.202 -235.776)"/><path class="b" d="M229.353,332.8a8.092,8.092,0,1,0-8.092-8.092,8.092,8.092,0,0,0,8.092,8.092" transform="translate(-165.253 -236.474)"/><path class="b" d="M297.888,333.542a7.714,7.714,0,1,0-7.714-7.714,7.714,7.714,0,0,0,7.714,7.714" transform="translate(-216.722 -237.591)"/><path class="b" d="M366.842,334.557a7.193,7.193,0,1,0-7.193-7.193,7.193,7.193,0,0,0,7.193,7.193" transform="translate(-268.611 -239.126)"/><path class="b" d="M436.076,335.757a6.578,6.578,0,1,0-6.578-6.578,6.578,6.578,0,0,0,6.578,6.578" transform="translate(-320.779 -240.941)"/><path class="b" d="M505.309,336.957a5.963,5.963,0,1,0-5.963-5.963,5.963,5.963,0,0,0,5.963,5.963" transform="translate(-372.947 -242.757)"/><path class="b" d="M574.682,338.249a5.3,5.3,0,1,0-5.3-5.3,5.3,5.3,0,0,0,5.3,5.3" transform="translate(-425.254 -244.711)"/><path class="b" d="M644.055,339.541a4.638,4.638,0,1,0-4.638-4.638,4.637,4.637,0,0,0,4.638,4.638" transform="translate(-477.561 -246.666)"/><path class="b" d="M713.568,340.926A3.928,3.928,0,1,0,709.64,337a3.928,3.928,0,0,0,3.928,3.928" transform="translate(-530.009 -248.761)"/><path class="b" d="M782.941,342.219a3.265,3.265,0,1,0-3.265-3.265,3.265,3.265,0,0,0,3.265,3.265" transform="translate(-582.317 -250.716)"/><path class="b" d="M852.453,343.6a2.555,2.555,0,1,0-2.555-2.555,2.555,2.555,0,0,0,2.555,2.555" transform="translate(-634.763 -252.811)"/><path class="b" d="M921.967,344.987a1.846,1.846,0,1,0-1.846-1.846,1.845,1.845,0,0,0,1.846,1.846" transform="translate(-687.211 -254.904)"/><path class="b" d="M991.479,346.372a1.136,1.136,0,1,0-1.136-1.136,1.136,1.136,0,0,0,1.136,1.136" transform="translate(-739.657 -256.998)"/><path class="b" d="M1060.991,347.757a.426.426,0,1,0-.426-.426.426.426,0,0,0,.426.426" transform="translate(-792.104 -259.093)"/><path class="b" d="M11.611,394.643A7.231,7.231,0,0,0,0,388.88v11.526a7.231,7.231,0,0,0,11.611-5.763" transform="translate(0 -289.34)"/><path class="b" d="M62.482,401.329a7.524,7.524,0,1,0-7.524-7.524,7.524,7.524,0,0,0,7.524,7.524" transform="translate(-41.046 -288.501)"/><path class="b" d="M129.622,401.144A7.619,7.619,0,1,0,122,393.525a7.619,7.619,0,0,0,7.619,7.619" transform="translate(-91.12 -288.222)"/><path class="b" d="M197.319,401.329A7.524,7.524,0,1,0,189.8,393.8a7.524,7.524,0,0,0,7.524,7.524" transform="translate(-141.752 -288.501)"/><path class="b" d="M265.436,401.791a7.288,7.288,0,1,0-7.288-7.288,7.288,7.288,0,0,0,7.288,7.288" transform="translate(-192.803 -289.2)"/><path class="b" d="M333.972,402.529a6.909,6.909,0,1,0-6.909-6.909,6.909,6.909,0,0,0,6.909,6.909" transform="translate(-244.274 -290.317)"/><path class="b" d="M402.785,403.453a6.436,6.436,0,1,0-6.436-6.436,6.436,6.436,0,0,0,6.436,6.436" transform="translate(-296.021 -291.713)"/><path class="b" d="M471.879,404.56a5.868,5.868,0,1,0-5.868-5.868,5.868,5.868,0,0,0,5.868,5.868" transform="translate(-348.05 -293.389)"/><path class="b" d="M541.113,405.76a5.253,5.253,0,1,0-5.253-5.253,5.253,5.253,0,0,0,5.253,5.253" transform="translate(-400.218 -295.204)"/><path class="b" d="M610.346,406.96a4.638,4.638,0,1,0-4.638-4.638,4.638,4.638,0,0,0,4.638,4.638" transform="translate(-452.385 -297.019)"/><path class="b" d="M679.579,408.16a4.022,4.022,0,1,0-4.022-4.022,4.023,4.023,0,0,0,4.022,4.022" transform="translate(-504.553 -298.835)"/><path class="b" d="M748.953,409.453a3.36,3.36,0,1,0-3.36-3.36,3.36,3.36,0,0,0,3.36,3.36" transform="translate(-556.861 -300.789)"/><path class="b" d="M818.465,410.837a2.65,2.65,0,1,0-2.65-2.65,2.65,2.65,0,0,0,2.65,2.65" transform="translate(-609.308 -302.884)"/><path class="b" d="M887.839,412.128a1.988,1.988,0,1,0-1.988-1.988,1.988,1.988,0,0,0,1.988,1.988" transform="translate(-661.615 -304.837)"/><path class="b" d="M957.352,413.513a1.278,1.278,0,1,0-1.278-1.278,1.278,1.278,0,0,0,1.278,1.278" transform="translate(-714.063 -306.932)"/><path class="b" d="M1026.863,414.9a.568.568,0,1,0-.568-.568.568.568,0,0,0,.568.568" transform="translate(-766.509 -309.027)"/><path class="b" d="M1095.817,415.914a.047.047,0,1,0-.047-.047.047.047,0,0,0,.047.047" transform="translate(-818.398 -310.563)"/><path class="b" d="M2.274,468.956A6.418,6.418,0,0,0,0,464.052v9.808a6.419,6.419,0,0,0,2.273-4.9" transform="translate(-0.001 -346.587)"/><path class="b" d="M31.147,470.317a6.72,6.72,0,1,0-6.72-6.72,6.72,6.72,0,0,0,6.72,6.72" transform="translate(-18.244 -341.229)"/><path class="b" d="M98.147,470.04a6.862,6.862,0,1,0-6.862-6.862,6.862,6.862,0,0,0,6.862,6.862" transform="translate(-68.178 -340.81)"/><path class="b" d="M165.566,470.04a6.862,6.862,0,1,0-6.862-6.862,6.862,6.862,0,0,0,6.862,6.862" transform="translate(-118.531 -340.81)"/><path class="b" d="M233.4,470.317a6.72,6.72,0,1,0-6.72-6.72,6.72,6.72,0,0,0,6.72,6.72" transform="translate(-169.302 -341.229)"/><path class="b" d="M301.658,470.871a6.436,6.436,0,1,0-6.436-6.436,6.436,6.436,0,0,0,6.436,6.436" transform="translate(-220.492 -342.066)"/><path class="b" d="M370.193,471.609a6.057,6.057,0,1,0-6.057-6.057,6.057,6.057,0,0,0,6.057,6.057" transform="translate(-271.962 -343.183)"/><path class="b" d="M438.868,472.44a5.631,5.631,0,1,0-5.631-5.631,5.631,5.631,0,0,0,5.631,5.631" transform="translate(-323.572 -344.44)"/><path class="b" d="M507.823,473.455a5.111,5.111,0,1,0-5.111-5.111,5.111,5.111,0,0,0,5.111,5.111" transform="translate(-375.461 -345.975)"/><path class="b" d="M576.916,474.563a4.543,4.543,0,1,0-4.543-4.543,4.543,4.543,0,0,0,4.543,4.543" transform="translate(-427.488 -347.651)"/><path class="b" d="M646.149,475.763a3.928,3.928,0,1,0-3.928-3.928,3.928,3.928,0,0,0,3.928,3.928" transform="translate(-479.656 -349.466)"/><path class="b" d="M715.383,476.962a3.313,3.313,0,1,0-3.312-3.312,3.312,3.312,0,0,0,3.312,3.312" transform="translate(-531.824 -351.281)"/><path class="b" d="M784.616,478.163a2.7,2.7,0,1,0-2.7-2.7,2.7,2.7,0,0,0,2.7,2.7" transform="translate(-583.992 -353.096)"/><path class="b" d="M853.989,479.455a2.035,2.035,0,1,0-2.035-2.035,2.035,2.035,0,0,0,2.035,2.035" transform="translate(-636.299 -355.051)"/><path class="b" d="M923.363,480.748a1.372,1.372,0,1,0-1.372-1.372,1.372,1.372,0,0,0,1.372,1.372" transform="translate(-688.607 -357.006)"/><path class="b" d="M992.875,482.131a.663.663,0,1,0-.662-.663.663.663,0,0,0,.662.663" transform="translate(-741.054 -359.1)"/><path class="b" d="M1061.969,483.239a.095.095,0,1,0-.095-.095.094.094,0,0,0,.095.095" transform="translate(-793.082 -360.776)"/><path class="b" d="M4.37,539.4A5.868,5.868,0,1,0,0,529.623v7.812A5.846,5.846,0,0,0,4.37,539.4" transform="translate(0 -394.094)"/><path class="b" d="M66.811,539.028a6.057,6.057,0,1,0-6.057-6.057,6.057,6.057,0,0,0,6.057,6.057" transform="translate(-45.375 -393.536)"/><path class="b" d="M133.95,538.843a6.152,6.152,0,1,0-6.152-6.152,6.152,6.152,0,0,0,6.152,6.152" transform="translate(-95.448 -393.256)"/><path class="b" d="M201.648,539.028a6.057,6.057,0,1,0-6.057-6.057,6.057,6.057,0,0,0,6.057,6.057" transform="translate(-146.081 -393.536)"/><path class="b" d="M269.484,539.3a5.915,5.915,0,1,0-5.915-5.915,5.915,5.915,0,0,0,5.915,5.915" transform="translate(-196.852 -393.955)"/><path class="b" d="M337.741,539.858a5.631,5.631,0,1,0-5.632-5.631,5.631,5.631,0,0,0,5.632,5.631" transform="translate(-248.042 -394.792)"/><path class="b" d="M406.276,540.6a5.253,5.253,0,1,0-5.253-5.253,5.252,5.252,0,0,0,5.253,5.253" transform="translate(-299.512 -395.909)"/><path class="b" d="M474.951,541.427a4.827,4.827,0,1,0-4.827-4.827,4.827,4.827,0,0,0,4.827,4.827" transform="translate(-351.121 -397.166)"/><path class="b" d="M543.765,542.35A4.354,4.354,0,1,0,539.411,538a4.353,4.353,0,0,0,4.354,4.354" transform="translate(-402.87 -398.562)"/><path class="b" d="M612.859,543.458a3.786,3.786,0,1,0-3.786-3.786,3.786,3.786,0,0,0,3.786,3.786" transform="translate(-454.898 -400.237)"/><path class="b" d="M681.953,544.566a3.218,3.218,0,1,0-3.218-3.218,3.218,3.218,0,0,0,3.218,3.218" transform="translate(-506.927 -401.913)"/><path class="b" d="M751.047,545.673a2.65,2.65,0,1,0-2.65-2.65,2.65,2.65,0,0,0,2.65,2.65" transform="translate(-558.955 -403.589)"/><path class="b" d="M820.28,546.873a2.035,2.035,0,1,0-2.035-2.035,2.035,2.035,0,0,0,2.035,2.035" transform="translate(-611.123 -405.404)"/><path class="b" d="M889.654,548.166a1.372,1.372,0,1,0-1.372-1.372,1.372,1.372,0,0,0,1.372,1.372" transform="translate(-663.43 -407.359)"/><path class="b" d="M959.027,549.458a.71.71,0,1,0-.71-.71.709.709,0,0,0,.71.71" transform="translate(-715.738 -409.314)"/><path class="b" d="M1028.12,550.565a.142.142,0,1,0-.142-.142.142.142,0,0,0,.142.142" transform="translate(-767.766 -410.989)"/><path class="b" d="M0,606.885v5.759a5.034,5.034,0,0,0,.9-2.879,5.035,5.035,0,0,0-.9-2.879" transform="translate(0 -453.264)"/><path class="b" d="M35.336,607.923a5.3,5.3,0,1,0-5.3-5.3,5.3,5.3,0,0,0,5.3,5.3" transform="translate(-22.433 -446.123)"/><path class="b" d="M102.475,607.738a5.395,5.395,0,1,0-5.395-5.395,5.395,5.395,0,0,0,5.395,5.395" transform="translate(-72.506 -445.843)"/><path class="b" d="M169.894,607.738a5.395,5.395,0,1,0-5.395-5.395,5.395,5.395,0,0,0,5.395,5.395" transform="translate(-122.859 -445.843)"/><path class="b" d="M237.591,607.923a5.3,5.3,0,1,0-5.3-5.3,5.3,5.3,0,0,0,5.3,5.3" transform="translate(-173.491 -446.123)"/><path class="b" d="M305.568,608.292a5.111,5.111,0,1,0-5.111-5.111,5.111,5.111,0,0,0,5.111,5.111" transform="translate(-224.402 -446.681)"/><path class="b" d="M373.823,608.846A4.827,4.827,0,1,0,369,604.019a4.827,4.827,0,0,0,4.827,4.827" transform="translate(-275.592 -447.519)"/><path class="b" d="M442.359,609.584a4.448,4.448,0,1,0-4.448-4.448,4.448,4.448,0,0,0,4.448,4.448" transform="translate(-327.063 -448.636)"/><path class="b" d="M511.033,610.415a4.022,4.022,0,1,0-4.022-4.022,4.023,4.023,0,0,0,4.022,4.022" transform="translate(-378.671 -449.892)"/><path class="b" d="M579.848,611.338a3.549,3.549,0,1,0-3.549-3.549,3.549,3.549,0,0,0,3.549,3.549" transform="translate(-430.42 -451.289)"/><path class="b" d="M648.8,612.353a3.029,3.029,0,1,0-3.028-3.028,3.029,3.029,0,0,0,3.028,3.028" transform="translate(-482.309 -452.825)"/><path class="b" d="M717.757,613.368a2.508,2.508,0,1,0-2.508-2.508,2.508,2.508,0,0,0,2.508,2.508" transform="translate(-534.198 -454.36)"/><path class="b" d="M786.99,614.568a1.893,1.893,0,1,0-1.893-1.893,1.893,1.893,0,0,0,1.893,1.893" transform="translate(-586.365 -456.175)"/><path class="b" d="M856.224,615.768a1.278,1.278,0,1,0-1.278-1.278,1.278,1.278,0,0,0,1.278,1.278" transform="translate(-638.534 -457.991)"/><path class="b" d="M925.457,616.969a.662.662,0,1,0-.662-.662.663.663,0,0,0,.662.662" transform="translate(-690.702 -459.806)"/><path class="b" d="M994.411,617.983a.142.142,0,1,0-.142-.142.142.142,0,0,0,.142.142" transform="translate(-742.59 -461.341)"/><path class="b" d="M4.37,676.909A4.5,4.5,0,1,0,0,671.376v2.076a4.494,4.494,0,0,0,4.37,3.458" transform="translate(0 -498.848)"/><path class="b" d="M71,676.633A4.638,4.638,0,1,0,66.362,672,4.638,4.638,0,0,0,71,676.633" transform="translate(-49.564 -498.43)"/><path class="b" d="M138.279,676.54a4.685,4.685,0,1,0-4.685-4.685,4.685,4.685,0,0,0,4.685,4.685" transform="translate(-99.777 -498.289)"/><path class="b" d="M205.837,676.633A4.638,4.638,0,1,0,201.2,672a4.638,4.638,0,0,0,4.638,4.638" transform="translate(-150.269 -498.43)"/><path class="b" d="M273.674,676.909a4.5,4.5,0,1,0-4.5-4.5,4.5,4.5,0,0,0,4.5,4.5" transform="translate(-201.041 -498.848)"/><path class="b" d="M341.789,677.371a4.259,4.259,0,1,0-4.259-4.259,4.259,4.259,0,0,0,4.259,4.259" transform="translate(-252.091 -499.547)"/><path class="b" d="M409.906,677.833a4.022,4.022,0,1,0-4.023-4.022,4.022,4.022,0,0,0,4.023,4.022" transform="translate(-303.142 -500.245)"/><path class="b" d="M478.442,678.572a3.644,3.644,0,1,0-3.644-3.644,3.644,3.644,0,0,0,3.644,3.644" transform="translate(-354.612 -501.362)"/><path class="b" d="M547.116,679.4a3.218,3.218,0,1,0-3.218-3.218,3.217,3.217,0,0,0,3.218,3.218" transform="translate(-406.221 -502.618)"/><path class="b" d="M615.791,680.233A2.792,2.792,0,1,0,613,677.441a2.792,2.792,0,0,0,2.792,2.792" transform="translate(-457.831 -503.875)"/><path class="b" d="M684.745,681.248a2.271,2.271,0,1,0-2.271-2.272,2.272,2.272,0,0,0,2.271,2.272" transform="translate(-509.719 -505.411)"/><path class="b" d="M753.7,682.264a1.751,1.751,0,1,0-1.751-1.751,1.751,1.751,0,0,0,1.751,1.751" transform="translate(-561.608 -506.947)"/><path class="b" d="M822.793,683.37a1.183,1.183,0,1,0-1.183-1.183,1.183,1.183,0,0,0,1.183,1.183" transform="translate(-613.636 -508.622)"/><path class="b" d="M892.027,684.571a.568.568,0,1,0-.568-.568.568.568,0,0,0,.568.568" transform="translate(-665.804 -510.437)"/><path class="b" d="M960.842,685.494a.095.095,0,1,0-.095-.095.095.095,0,0,0,.095.095" transform="translate(-717.553 -511.834)"/><path class="b" d="M39.664,745.62a3.833,3.833,0,1,0-3.833-3.833,3.833,3.833,0,0,0,3.833,3.833" transform="translate(-26.761 -551.156)"/><path class="b" d="M106.8,745.436a3.928,3.928,0,1,0-3.928-3.928,3.928,3.928,0,0,0,3.928,3.928" transform="translate(-76.834 -550.877)"/><path class="b" d="M174.222,745.436a3.928,3.928,0,1,0-3.928-3.928,3.928,3.928,0,0,0,3.928,3.928" transform="translate(-127.187 -550.877)"/><path class="b" d="M241.779,745.528a3.88,3.88,0,1,0-3.88-3.88,3.881,3.881,0,0,0,3.88,3.88" transform="translate(-177.68 -551.016)"/><path class="b" d="M309.756,745.9a3.691,3.691,0,1,0-3.691-3.691,3.691,3.691,0,0,0,3.691,3.691" transform="translate(-228.591 -551.575)"/><path class="b" d="M377.733,746.267a3.5,3.5,0,1,0-3.5-3.5,3.5,3.5,0,0,0,3.5,3.5" transform="translate(-279.502 -552.134)"/><path class="b" d="M446.129,746.912a3.171,3.171,0,1,0-3.171-3.17,3.171,3.171,0,0,0,3.171,3.17" transform="translate(-330.832 -553.111)"/><path class="b" d="M514.524,747.559a2.839,2.839,0,1,0-2.839-2.839,2.839,2.839,0,0,0,2.839,2.839" transform="translate(-382.162 -554.088)"/><path class="b" d="M583.2,748.389a2.413,2.413,0,1,0-2.414-2.413,2.413,2.413,0,0,0,2.414,2.413" transform="translate(-433.771 -555.344)"/><path class="b" d="M651.874,749.22a1.988,1.988,0,1,0-1.988-1.988,1.988,1.988,0,0,0,1.988,1.988" transform="translate(-485.38 -556.601)"/><path class="b" d="M720.829,750.235a1.467,1.467,0,1,0-1.467-1.467,1.467,1.467,0,0,0,1.467,1.467" transform="translate(-537.27 -558.137)"/><path class="b" d="M789.782,751.251a.946.946,0,1,0-.946-.946.946.946,0,0,0,.946.946" transform="translate(-589.158 -559.673)"/><path class="b" d="M858.737,752.267a.426.426,0,1,0-.426-.426.426.426,0,0,0,.426.426" transform="translate(-641.047 -561.21)"/><path class="b" d="M927.272,753a.047.047,0,1,0-.047-.047.047.047,0,0,0,.047.047" transform="translate(-692.516 -562.326)"/><path class="b" d="M8.189,814.516a3.076,3.076,0,1,0-3.076-3.076,3.076,3.076,0,0,0,3.076,3.076" transform="translate(-3.819 -603.743)"/><path class="b" d="M75.328,814.331a3.171,3.171,0,1,0-3.17-3.171,3.171,3.171,0,0,0,3.17,3.171" transform="translate(-53.893 -603.464)"/><path class="b" d="M142.607,814.239a3.218,3.218,0,1,0-3.218-3.218,3.218,3.218,0,0,0,3.218,3.218" transform="translate(-104.105 -603.324)"/><path class="b" d="M210.165,814.331a3.171,3.171,0,1,0-3.17-3.171,3.171,3.171,0,0,0,3.17,3.171" transform="translate(-154.598 -603.464)"/><path class="b" d="M277.862,814.516a3.076,3.076,0,1,0-3.076-3.076,3.076,3.076,0,0,0,3.076,3.076" transform="translate(-205.229 -603.743)"/><path class="b" d="M345.839,814.884A2.887,2.887,0,1,0,342.952,812a2.887,2.887,0,0,0,2.887,2.887" transform="translate(-256.141 -604.301)"/><path class="b" d="M413.955,815.346a2.65,2.65,0,1,0-2.65-2.65,2.65,2.65,0,0,0,2.65,2.65" transform="translate(-307.191 -604.999)"/><path class="b" d="M482.211,815.9a2.366,2.366,0,1,0-2.366-2.366,2.366,2.366,0,0,0,2.366,2.366" transform="translate(-358.382 -605.837)"/><path class="b" d="M550.608,816.546a2.035,2.035,0,1,0-2.035-2.035,2.035,2.035,0,0,0,2.035,2.035" transform="translate(-409.713 -606.814)"/><path class="b" d="M619.282,817.377a1.609,1.609,0,1,0-1.609-1.609,1.609,1.609,0,0,0,1.609,1.609" transform="translate(-461.321 -608.071)"/><path class="b" d="M687.957,818.208a1.183,1.183,0,1,0-1.183-1.183,1.183,1.183,0,0,0,1.183,1.183" transform="translate(-512.931 -609.328)"/><path class="b" d="M756.772,819.131a.71.71,0,1,0-.71-.71.71.71,0,0,0,.71.71" transform="translate(-564.68 -610.724)"/><path class="b" d="M825.725,820.146a.189.189,0,1,0-.189-.189.189.189,0,0,0,.189.189" transform="translate(-616.568 -612.26)"/><path class="b" d="M43.853,883.226a2.413,2.413,0,1,0-2.414-2.414,2.413,2.413,0,0,0,2.414,2.414" transform="translate(-30.95 -656.05)"/><path class="b" d="M111.132,883.134a2.461,2.461,0,1,0-2.461-2.461,2.461,2.461,0,0,0,2.461,2.461" transform="translate(-81.163 -655.91)"/><path class="b" d="M178.411,883.042a2.508,2.508,0,1,0-2.508-2.508,2.508,2.508,0,0,0,2.508,2.508" transform="translate(-131.377 -655.772)"/><path class="b" d="M246.108,883.226a2.413,2.413,0,1,0-2.414-2.414,2.413,2.413,0,0,0,2.414,2.414" transform="translate(-182.008 -656.05)"/><path class="b" d="M313.945,883.5a2.271,2.271,0,1,0-2.271-2.272,2.272,2.272,0,0,0,2.271,2.272" transform="translate(-232.78 -656.469)"/><path class="b" d="M381.921,883.872a2.082,2.082,0,1,0-2.082-2.082,2.082,2.082,0,0,0,2.082,2.082" transform="translate(-283.69 -657.028)"/><path class="b" d="M450.038,884.334a1.846,1.846,0,1,0-1.846-1.846,1.846,1.846,0,0,0,1.846,1.846" transform="translate(-334.741 -657.726)"/><path class="b" d="M518.295,884.887a1.562,1.562,0,1,0-1.562-1.562,1.562,1.562,0,0,0,1.562,1.562" transform="translate(-385.932 -658.563)"/><path class="b" d="M586.829,885.626a1.183,1.183,0,1,0-1.183-1.183,1.183,1.183,0,0,0,1.183,1.183" transform="translate(-437.401 -659.681)"/><path class="b" d="M655.365,886.365a.8.8,0,1,0-.8-.8.8.8,0,0,0,.8.8" transform="translate(-488.871 -660.798)"/><path class="b" d="M724.04,887.2a.379.379,0,1,0-.379-.379.379.379,0,0,0,.379.379" transform="translate(-540.481 -662.054)"/><path class="b" d="M792.435,887.842a.047.047,0,1,0-.047-.047.047.047,0,0,0,.047.047" transform="translate(-591.811 -663.032)"/><path class="b" d="M12.518,952.214a1.609,1.609,0,1,0-1.609-1.609,1.609,1.609,0,0,0,1.609,1.609" transform="translate(-8.148 -708.777)"/><path class="b" d="M79.657,952.029a1.7,1.7,0,1,0-1.7-1.7,1.7,1.7,0,0,0,1.7,1.7" transform="translate(-58.221 -708.498)"/><path class="b" d="M146.936,951.937a1.751,1.751,0,1,0-1.751-1.751,1.751,1.751,0,0,0,1.751,1.751" transform="translate(-108.434 -708.358)"/><path class="b" d="M214.494,952.029a1.7,1.7,0,1,0-1.7-1.7,1.7,1.7,0,0,0,1.7,1.7" transform="translate(-158.926 -708.498)"/><path class="b" d="M282.051,952.122a1.656,1.656,0,1,0-1.656-1.656,1.656,1.656,0,0,0,1.656,1.656" transform="translate(-209.419 -708.637)"/><path class="b" d="M350.028,952.49a1.467,1.467,0,1,0-1.467-1.467,1.467,1.467,0,0,0,1.467,1.467" transform="translate(-260.33 -709.195)"/><path class="b" d="M418,952.859a1.278,1.278,0,1,0-1.278-1.278A1.278,1.278,0,0,0,418,952.859" transform="translate(-311.241 -709.754)"/><path class="b" d="M486.121,953.321a1.041,1.041,0,1,0-1.041-1.041,1.041,1.041,0,0,0,1.041,1.041" transform="translate(-362.292 -710.452)"/><path class="b" d="M554.516,953.968a.71.71,0,1,0-.71-.71.71.71,0,0,0,.71.71" transform="translate(-413.621 -711.43)"/><path class="b" d="M622.912,954.614a.379.379,0,1,0-.379-.379.379.379,0,0,0,.379.379" transform="translate(-464.951 -712.407)"/><path class="b" d="M691.168,955.167a.095.095,0,1,0-.095-.095.095.095,0,0,0,.095.095" transform="translate(-516.142 -713.245)"/><path class="b" d="M48.181,1020.924a.946.946,0,1,0-.946-.947.947.947,0,0,0,.946.947" transform="translate(-35.278 -761.084)"/><path class="b" d="M115.46,1020.832a.994.994,0,1,0-.994-.994.994.994,0,0,0,.994.994" transform="translate(-85.491 -760.944)"/><path class="b" d="M182.879,1020.832a.994.994,0,1,0-.994-.994.994.994,0,0,0,.994.994" transform="translate(-135.844 -760.944)"/><path class="b" d="M250.436,1020.924a.946.946,0,1,0-.946-.947.947.947,0,0,0,.946.947" transform="translate(-186.337 -761.084)"/><path class="b" d="M318.134,1021.109a.852.852,0,1,0-.852-.852.852.852,0,0,0,.852.852" transform="translate(-236.968 -761.363)"/><path class="b" d="M386.11,1021.478a.662.662,0,1,0-.662-.662.662.662,0,0,0,.662.662" transform="translate(-287.88 -761.922)"/><path class="b" d="M454.087,1021.847a.473.473,0,1,0-.473-.473.473.473,0,0,0,.473.473" transform="translate(-338.791 -762.481)"/><path class="b" d="M522.2,1022.308a.237.237,0,1,0-.237-.237.237.237,0,0,0,.237.237" transform="translate(-389.841 -763.178)"/><path class="b" d="M590.18,1022.678a.047.047,0,1,0-.047-.047.047.047,0,0,0,.047.047" transform="translate(-440.753 -763.737)"/><path class="b" d="M16.706,1089.819a.189.189,0,1,0-.189-.189.189.189,0,0,0,.189.189" transform="translate(-12.336 -813.67)"/><path class="b" d="M83.845,1089.635a.284.284,0,1,0-.284-.284.284.284,0,0,0,.284.284" transform="translate(-62.409 -813.392)"/><path class="b" d="M151.264,1089.635a.284.284,0,1,0-.284-.284.284.284,0,0,0,.284.284" transform="translate(-112.762 -813.392)"/><path class="b" d="M218.682,1089.635a.284.284,0,1,0-.284-.284.284.284,0,0,0,.284.284" transform="translate(-163.115 -813.392)"/><path class="b" d="M286.379,1089.819a.189.189,0,1,0-.189-.189.189.189,0,0,0,.189.189" transform="translate(-213.747 -813.67)"/><path class="b" d="M353.938,1089.911a.142.142,0,1,0-.142-.142.142.142,0,0,0,.142.142" transform="translate(-264.24 -813.81)"/><path class="b" d="M421.635,1090.1a.047.047,0,1,0-.048-.047.047.047,0,0,0,.048.047" transform="translate(-314.871 -814.089)"/></g></g></g></svg>