<svg xmlns="http://www.w3.org/2000/svg" xmlns:xlink="http://www.w3.org/1999/xlink" width="546.925" height="297.967" viewBox="0 0 546.925 297.967"><defs><style>.a{fill:none;}.b{opacity:0.5;}.c{clip-path:url(#a);}.d{fill:#feffbd;}</style><clipPath id="a"><rect class="a" width="546.925" height="297.967"/></clipPath></defs><g class="b"><g class="c" transform="translate(0)"><path class="d" d="M.689,307.453a1.2,1.2,0,1,0-.573-1.6,1.21,1.21,0,0,0,.573,1.6" transform="translate(0 -27.429)"/><path class="d" d="M33.006,324.348a2.682,2.682,0,1,0-1.274-3.575,2.68,2.68,0,0,0,1.274,3.575" transform="translate(-2.829 -28.694)"/><path class="d" d="M16.49,274.2a1.018,1.018,0,0,0,.873-1.839,1.018,1.018,0,0,0-.873,1.839" transform="translate(-1.43 -24.472)"/><path class="d" d="M48.759,291.172a2.589,2.589,0,1,0-1.226-3.45,2.589,2.589,0,0,0,1.226,3.45" transform="translate(-4.25 -25.728)"/><path class="d" d="M80.936,308.285a4.346,4.346,0,1,0-2.063-5.789,4.339,4.339,0,0,0,2.063,5.789" transform="translate(-7.051 -26.966)"/><path class="d" d="M113.059,325.475a6.195,6.195,0,1,0-2.945-8.249,6.2,6.2,0,0,0,2.945,8.249" transform="translate(-9.844 -28.195)"/><path class="d" d="M32.241,241.032a.927.927,0,0,0,1.229-.44.914.914,0,0,0-.44-1.228.923.923,0,1,0-.789,1.668" transform="translate(-2.85 -21.507)"/><path class="d" d="M64.6,257.851a2.314,2.314,0,1,0-1.094-3.08,2.321,2.321,0,0,0,1.094,3.08" transform="translate(-5.688 -22.781)"/><path class="d" d="M96.78,274.962a4.07,4.07,0,1,0-1.927-5.418,4.071,4.071,0,0,0,1.927,5.418" transform="translate(-8.49 -24.018)"/><path class="d" d="M128.957,292.075a5.822,5.822,0,1,0-2.766-7.751,5.812,5.812,0,0,0,2.766,7.751" transform="translate(-11.291 -25.256)"/><path class="d" d="M160.979,309.421a7.86,7.86,0,1,0-3.726-10.469,7.869,7.869,0,0,0,3.726,10.469" transform="translate(-14.066 -26.467)"/><path class="d" d="M191.2,325.644H203.29a9.886,9.886,0,1,0-12.092,0" transform="translate(-16.84 -27.677)"/><path class="d" d="M240.247,326.864a11.8,11.8,0,0,0-19.8,0Z" transform="translate(-19.815 -28.897)"/><path class="d" d="M541.07,325.815h32.516a16.26,16.26,0,0,0-32.516,0" transform="translate(-48.632 -27.848)"/><path class="d" d="M598.154,327.245a16.049,16.049,0,0,0-13.591,0Z" transform="translate(-52.542 -29.278)"/><path class="d" d="M410.559,326a17.452,17.452,0,0,0-34.257,0Z" transform="translate(-33.823 -28.035)"/><path class="d" d="M420.511,323.047h32.866c.281-.26.568-.512.833-.794-.04.265-.052.53-.081.794h35.654a17.914,17.914,0,0,0-8.246-13.313,15.719,15.719,0,1,0-3.915-1.858,17.946,17.946,0,0,0-18.928,4.926,17.01,17.01,0,1,0-29.708,8.937,19.145,19.145,0,0,0-8.475,1.308" transform="translate(-37.796 -25.081)"/><path class="d" d="M512.645,322.381a18.515,18.515,0,0,0-12.426,2.032h31.4a16.168,16.168,0,1,0-18.97-2.032" transform="translate(-44.96 -26.446)"/><path class="d" d="M48.041,207.78a.74.74,0,1,0-.354-.985.744.744,0,0,0,.354.985" transform="translate(-4.28 -18.549)"/><path class="d" d="M80.408,224.6a2.127,2.127,0,1,0-1.008-2.833,2.129,2.129,0,0,0,1.008,2.833" transform="translate(-7.118 -19.824)"/><path class="d" d="M112.726,241.49a3.606,3.606,0,1,0-1.712-4.8,3.606,3.606,0,0,0,1.712,4.8" transform="translate(-9.947 -21.089)"/><path class="d" d="M144.9,258.608a5.361,5.361,0,1,0-2.545-7.145,5.358,5.358,0,0,0,2.545,7.145" transform="translate(-12.749 -22.327)"/><path class="d" d="M176.978,275.874a7.305,7.305,0,1,0-3.468-9.731,7.314,7.314,0,0,0,3.468,9.731" transform="translate(-15.532 -23.546)"/><path class="d" d="M209.058,293.135a9.246,9.246,0,1,0-4.4-12.317,9.245,9.245,0,0,0,4.4,12.317" transform="translate(-18.315 -24.766)"/><path class="d" d="M235.813,295.494a11.189,11.189,0,1,0,14.908-5.312,11.189,11.189,0,0,0-14.908,5.312" transform="translate(-21.098 -25.985)"/><path class="d" d="M288.135,325.163a13.219,13.219,0,1,0-18.62,0Z" transform="translate(-23.873 -27.196)"/><path class="d" d="M326.235,326.373a15.245,15.245,0,0,0-28.212-1.62,15.624,15.624,0,0,0-.651,1.62Z" transform="translate(-26.728 -28.406)"/><path class="d" d="M63.935,174.382a.375.375,0,0,0,.5-.173.371.371,0,0,0-.671-.317.363.363,0,0,0,.175.49" transform="translate(-5.728 -15.611)"/><path class="d" d="M96.351,191.13a1.666,1.666,0,1,0-.785-2.222,1.667,1.667,0,0,0,.785,2.222" transform="translate(-8.575 -16.895)"/><path class="d" d="M128.673,208.017a3.143,3.143,0,1,0-1.493-4.188,3.142,3.142,0,0,0,1.493,4.188" transform="translate(-11.404 -18.16)"/><path class="d" d="M160.893,225.061a4.807,4.807,0,1,0-2.283-6.41,4.818,4.818,0,0,0,2.283,6.41" transform="translate(-14.214 -19.407)"/><path class="d" d="M193.07,242.178a6.563,6.563,0,1,0-3.119-8.746,6.569,6.569,0,0,0,3.119,8.746" transform="translate(-17.016 -20.644)"/><path class="d" d="M225.195,259.366a8.415,8.415,0,1,0-4-11.206,8.413,8.413,0,0,0,4,11.206" transform="translate(-19.808 -21.873)"/><path class="d" d="M266.148,257.922a10.355,10.355,0,1,0,4.914,13.786,10.346,10.346,0,0,0-4.914-13.786" transform="translate(-22.592 -23.092)"/><path class="d" d="M283.6,277.562a12.205,12.205,0,1,0,16.251-5.8,12.21,12.21,0,0,0-16.251,5.8" transform="translate(-25.385 -24.321)"/><path class="d" d="M314.846,292.291a14.052,14.052,0,1,0,18.723-6.674,14.053,14.053,0,0,0-18.723,6.674" transform="translate(-28.177 -25.55)"/><path class="d" d="M371.9,324.754a15.809,15.809,0,1,0-22.851,0Z" transform="translate(-30.979 -26.788)"/><path class="d" d="M112.3,157.654a1.2,1.2,0,1,0-.569-1.6,1.211,1.211,0,0,0,.569,1.6" transform="translate(-10.032 -13.965)"/><path class="d" d="M144.665,174.471a2.589,2.589,0,1,0-1.231-3.448,2.591,2.591,0,0,0,1.231,3.448" transform="translate(-12.87 -15.239)"/><path class="d" d="M176.988,191.365a4.067,4.067,0,1,0-1.937-5.422,4.07,4.07,0,0,0,1.937,5.422" transform="translate(-15.699 -16.504)"/><path class="d" d="M209.21,208.406a5.732,5.732,0,1,0-2.722-7.635,5.732,5.732,0,0,0,2.722,7.635" transform="translate(-18.51 -17.751)"/><path class="d" d="M241.386,225.523a7.49,7.49,0,1,0-3.557-9.979,7.491,7.491,0,0,0,3.557,9.979" transform="translate(-21.311 -18.989)"/><path class="d" d="M273.56,242.636a9.245,9.245,0,1,0-4.391-12.316,9.233,9.233,0,0,0,4.391,12.316" transform="translate(-24.113 -20.227)"/><path class="d" d="M315.134,239.967a10.909,10.909,0,1,0,5.18,14.536,10.9,10.9,0,0,0-5.18-14.536" transform="translate(-26.924 -21.474)"/><path class="d" d="M331.939,259.917a12.667,12.667,0,1,0,16.871-6.008,12.674,12.674,0,0,0-16.871,6.008" transform="translate(-29.725 -22.712)"/><path class="d" d="M363.462,274.8a14.238,14.238,0,1,0,18.969-6.763,14.235,14.235,0,0,0-18.969,6.763" transform="translate(-32.545 -23.968)"/><path class="d" d="M395.08,289.715a15.718,15.718,0,1,0,20.937-7.46,15.719,15.719,0,0,0-20.937,7.46" transform="translate(-35.374 -25.233)"/><path class="d" d="M128.343,124.031a.552.552,0,1,0,.475-1,.552.552,0,1,0-.475,1" transform="translate(-11.507 -11.054)"/><path class="d" d="M160.76,140.778a1.849,1.849,0,1,0-.878-2.466,1.846,1.846,0,0,0,.878,2.466" transform="translate(-14.355 -12.337)"/><path class="d" d="M193.079,157.671a3.33,3.33,0,1,0-1.575-4.434,3.332,3.332,0,0,0,1.575,4.434" transform="translate(-17.184 -13.602)"/><path class="d" d="M225.4,174.559a4.806,4.806,0,1,0-2.289-6.406,4.8,4.8,0,0,0,2.289,6.406" transform="translate(-20.012 -14.868)"/><path class="d" d="M257.627,191.6a6.473,6.473,0,1,0-3.083-8.622,6.467,6.467,0,0,0,3.083,8.622" transform="translate(-22.823 -16.114)"/><path class="d" d="M289.943,208.5a7.95,7.95,0,1,0-3.774-10.59,7.949,7.949,0,0,0,3.774,10.59" transform="translate(-25.652 -17.38)"/><path class="d" d="M322.167,225.54a9.618,9.618,0,1,0-4.569-12.813,9.616,9.616,0,0,0,4.569,12.813" transform="translate(-28.462 -18.626)"/><path class="d" d="M364.028,222.29a11.187,11.187,0,1,0,5.311,14.9,11.183,11.183,0,0,0-5.311-14.9" transform="translate(-31.282 -19.883)"/><path class="d" d="M397.584,236.6a12.576,12.576,0,1,0,5.966,16.75,12.573,12.573,0,0,0-5.966-16.75" transform="translate(-34.12 -21.157)"/><path class="d" d="M412.635,257.589a13.868,13.868,0,1,0,18.475-6.584,13.871,13.871,0,0,0-18.475,6.584" transform="translate(-36.968 -22.44)"/><path class="d" d="M444.717,272.755a14.886,14.886,0,1,0,19.831-7.069,14.885,14.885,0,0,0-19.831,7.069" transform="translate(-39.842 -23.751)"/><path class="d" d="M144.412,90.519a.093.093,0,1,0-.17-.075.09.09,0,0,0,.046.117.1.1,0,0,0,.124-.042" transform="translate(-12.964 -8.124)"/><path class="d" d="M176.8,107.157a1.2,1.2,0,1,0-.571-1.6,1.2,1.2,0,0,0,.571,1.6" transform="translate(-15.829 -9.426)"/><path class="d" d="M209.22,123.9a2.5,2.5,0,1,0-1.183-3.329,2.5,2.5,0,0,0,1.183,3.329" transform="translate(-18.677 -10.709)"/><path class="d" d="M241.589,140.714a3.881,3.881,0,1,0-1.845-5.166,3.884,3.884,0,0,0,1.845,5.166" transform="translate(-21.515 -11.984)"/><path class="d" d="M273.964,157.533a5.269,5.269,0,1,0-2.508-7.019,5.268,5.268,0,0,0,2.508,7.019" transform="translate(-24.353 -13.258)"/><path class="d" d="M306.329,174.351a6.654,6.654,0,1,0-3.164-8.865,6.656,6.656,0,0,0,3.164,8.865" transform="translate(-27.191 -14.532)"/><path class="d" d="M338.647,191.243a8.134,8.134,0,1,0-3.864-10.834,8.133,8.133,0,0,0,3.864,10.834" transform="translate(-30.02 -15.798)"/><path class="d" d="M371.015,208.064a9.523,9.523,0,1,0-4.518-12.683,9.519,9.519,0,0,0,4.518,12.683" transform="translate(-32.858 -17.072)"/><path class="d" d="M403.43,224.806a10.817,10.817,0,1,0-5.136-14.414,10.819,10.819,0,0,0,5.136,14.414" transform="translate(-35.705 -18.356)"/><path class="d" d="M446.14,219.944a11.834,11.834,0,1,0,5.618,15.761,11.831,11.831,0,0,0-5.618-15.761" transform="translate(-38.58 -19.666)"/><path class="d" d="M462.554,240.775a12.759,12.759,0,1,0,16.994-6.056,12.755,12.755,0,0,0-16.994,6.056" transform="translate(-41.464 -20.986)"/><path class="d" d="M494.906,256.091a13.5,13.5,0,1,0,17.984-6.409,13.5,13.5,0,0,0-17.984,6.409" transform="translate(-44.366 -22.325)"/><path class="d" d="M527.546,271.546a13.962,13.962,0,1,0,18.6-6.633,13.966,13.966,0,0,0-18.6,6.633" transform="translate(-47.295 -23.69)"/><path class="d" d="M560.553,287.2a14.054,14.054,0,1,0,18.715-6.678,14.052,14.052,0,0,0-18.715,6.678" transform="translate(-50.261 -25.092)"/><path class="d" d="M600.18,321.488v-24.8a13.848,13.848,0,0,0,0,24.8" transform="translate(-53.255 -26.668)"/><path class="d" d="M192.894,73.459a.461.461,0,1,0,.4-.833.461.461,0,0,0-.4.833" transform="translate(-17.314 -6.524)"/><path class="d" d="M225.464,89.984a1.479,1.479,0,1,0-.713-1.972,1.478,1.478,0,0,0,.713,1.972" transform="translate(-20.188 -7.835)"/><path class="d" d="M257.876,106.728a2.776,2.776,0,1,0-1.321-3.7,2.785,2.785,0,0,0,1.321,3.7" transform="translate(-23.036 -9.118)"/><path class="d" d="M290.291,123.469a4.068,4.068,0,1,0-1.932-5.417,4.06,4.06,0,0,0,1.932,5.417" transform="translate(-25.883 -10.402)"/><path class="d" d="M322.71,140.212a5.363,5.363,0,1,0-2.544-7.142,5.366,5.366,0,0,0,2.544,7.142" transform="translate(-28.73 -11.685)"/><path class="d" d="M355.126,156.953a6.656,6.656,0,1,0-3.158-8.867,6.66,6.66,0,0,0,3.158,8.867" transform="translate(-31.578 -12.968)"/><path class="d" d="M387.6,173.625a7.858,7.858,0,1,0-3.735-10.467,7.847,7.847,0,0,0,3.735,10.467" transform="translate(-34.434 -14.261)"/><path class="d" d="M420.064,190.3a9.062,9.062,0,1,0-4.3-12.072,9.061,9.061,0,0,0,4.3,12.072" transform="translate(-37.29 -15.554)"/><path class="d" d="M452.676,206.737a9.983,9.983,0,1,0-4.748-13.3,9.98,9.98,0,0,0,4.748,13.3" transform="translate(-40.174 -16.874)"/><path class="d" d="M494.61,203.563a10.818,10.818,0,1,0,5.137,14.417,10.825,10.825,0,0,0-5.137-14.417" transform="translate(-43.067 -18.203)"/><path class="d" d="M527.892,218.71a11.372,11.372,0,1,0,5.4,15.15,11.376,11.376,0,0,0-5.4-15.15" transform="translate(-45.987 -19.56)"/><path class="d" d="M561.115,234.042a11.742,11.742,0,1,0,5.571,15.64,11.745,11.745,0,0,0-5.571-15.64" transform="translate(-48.926 -20.934)"/><path class="d" d="M584.1,271.035a11.839,11.839,0,0,0,14.717-3.848V253.5a11.832,11.832,0,1,0-14.717,17.54" transform="translate(-51.892 -22.336)"/><path class="d" d="M241.553,56.287a.741.741,0,1,0-.351-.986.741.741,0,0,0,.351.986" transform="translate(-21.673 -4.933)"/><path class="d" d="M274.117,72.8a1.754,1.754,0,1,0-.832-2.334,1.749,1.749,0,0,0,.832,2.334" transform="translate(-24.548 -6.243)"/><path class="d" d="M306.678,89.325a2.772,2.772,0,1,0-1.319-3.694,2.771,2.771,0,0,0,1.319,3.694" transform="translate(-27.422 -7.554)"/><path class="d" d="M339.146,105.994a3.974,3.974,0,1,0-1.889-5.292,3.97,3.97,0,0,0,1.889,5.292" transform="translate(-30.279 -8.847)"/><path class="d" d="M371.609,122.663a5.178,5.178,0,1,0-2.461-6.894,5.174,5.174,0,0,0,2.461,6.894" transform="translate(-33.135 -10.14)"/><path class="d" d="M404.176,139.187a6.2,6.2,0,1,0-2.946-8.25,6.191,6.191,0,0,0,2.946,8.25" transform="translate(-36.01 -11.45)"/><path class="d" d="M436.69,155.777a7.3,7.3,0,1,0-3.474-9.725,7.3,7.3,0,0,0,3.474,9.725" transform="translate(-38.875 -12.752)"/><path class="d" d="M469.35,172.154a8.138,8.138,0,1,0-3.867-10.843,8.145,8.145,0,0,0,3.867,10.843" transform="translate(-41.768 -14.081)"/><path class="d" d="M502.109,188.377a8.782,8.782,0,1,0-4.174-11.7,8.783,8.783,0,0,0,4.174,11.7" transform="translate(-44.679 -15.429)"/><path class="d" d="M534.966,204.451a9.247,9.247,0,1,0-4.393-12.319,9.247,9.247,0,0,0,4.393,12.319" transform="translate(-47.608 -16.794)"/><path class="d" d="M567.872,220.449A9.615,9.615,0,1,0,563.3,207.64a9.617,9.617,0,0,0,4.568,12.809" transform="translate(-50.547 -18.169)"/><path class="d" d="M600.447,235.988V219.174a9.6,9.6,0,0,0,0,16.814" transform="translate(-53.523 -19.7)"/><path class="d" d="M290.354,38.891a.743.743,0,0,0,.63-1.345.743.743,0,0,0-.63,1.345" transform="translate(-26.059 -3.369)"/><path class="d" d="M322.966,55.334a1.662,1.662,0,1,0-.793-2.219,1.658,1.658,0,0,0,.793,2.219" transform="translate(-28.943 -4.689)"/><path class="d" d="M355.53,71.854a2.682,2.682,0,1,0-1.272-3.574,2.687,2.687,0,0,0,1.272,3.574" transform="translate(-31.818 -6)"/><path class="d" d="M388.141,88.3a3.607,3.607,0,1,0-1.71-4.81,3.617,3.617,0,0,0,1.71,4.81" transform="translate(-34.702 -7.319)"/><path class="d" d="M420.753,104.746a4.531,4.531,0,1,0-2.15-6.037,4.525,4.525,0,0,0,2.15,6.037" transform="translate(-37.585 -8.64)"/><path class="d" d="M453.319,121.265a5.548,5.548,0,1,0-2.634-7.387,5.546,5.546,0,0,0,2.634,7.387" transform="translate(-40.46 -9.951)"/><path class="d" d="M486.081,137.49a6.194,6.194,0,1,0-2.946-8.249,6.191,6.191,0,0,0,2.946,8.249" transform="translate(-43.371 -11.298)"/><path class="d" d="M518.835,153.709a6.841,6.841,0,1,0-3.25-9.107,6.841,6.841,0,0,0,3.25,9.107" transform="translate(-46.282 -12.645)"/><path class="d" d="M551.69,169.784a7.3,7.3,0,1,0-3.469-9.727,7.3,7.3,0,0,0,3.469,9.727" transform="translate(-49.212 -14.011)"/><path class="d" d="M584.691,185.634a7.489,7.489,0,1,0-3.553-9.978,7.488,7.488,0,0,0,3.553,9.978" transform="translate(-52.169 -15.404)"/><path class="d" d="M339.249,21.34a.555.555,0,1,0-.259-.739.55.55,0,0,0,.259.739" transform="translate(-30.464 -1.823)"/><path class="d" d="M371.915,37.709a1.383,1.383,0,1,0-.658-1.845,1.393,1.393,0,0,0,.658,1.845" transform="translate(-33.357 -3.152)"/><path class="d" d="M404.575,54.082a2.219,2.219,0,1,0-1.053-2.955,2.216,2.216,0,0,0,1.053,2.955" transform="translate(-36.25 -4.482)"/><path class="d" d="M437.238,70.455a3.051,3.051,0,1,0-1.448-4.062,3.05,3.05,0,0,0,1.448,4.062" transform="translate(-39.143 -5.811)"/><path class="d" d="M469.895,86.83a3.885,3.885,0,1,0-1.843-5.178,3.885,3.885,0,0,0,1.843,5.178" transform="translate(-42.036 -7.14)"/><path class="d" d="M502.706,102.976a4.437,4.437,0,1,0-2.106-5.913,4.435,4.435,0,0,0,2.106,5.913" transform="translate(-44.956 -8.497)"/><path class="d" d="M535.464,119.2a5.084,5.084,0,1,0-2.414-6.776,5.084,5.084,0,0,0,2.414,6.776" transform="translate(-47.867 -9.844)"/><path class="d" d="M568.415,135.122a5.363,5.363,0,1,0-2.541-7.142,5.361,5.361,0,0,0,2.541,7.142" transform="translate(-50.815 -11.228)"/><path class="d" d="M600.688,150.731v-9.373a5.593,5.593,0,0,0,0,9.373" transform="translate(-53.763 -12.706)"/><path class="d" d="M388.155,3.8a.368.368,0,0,0,.316-.665.363.363,0,0,0-.492.167.37.37,0,0,0,.177.5" transform="translate(-34.869 -0.278)"/><path class="d" d="M420.962,19.941a.924.924,0,1,0-.44-1.227.924.924,0,0,0,.44,1.227" transform="translate(-37.789 -1.634)"/><path class="d" d="M453.668,36.241a1.667,1.667,0,1,0-.789-2.219,1.672,1.672,0,0,0,.789,2.219" transform="translate(-40.691 -2.972)"/><path class="d" d="M486.479,52.386a2.218,2.218,0,1,0-1.057-2.955,2.215,2.215,0,0,0,1.057,2.955" transform="translate(-43.611 -4.329)"/><path class="d" d="M519.282,68.535a2.774,2.774,0,1,0-1.316-3.694,2.767,2.767,0,0,0,1.316,3.694" transform="translate(-46.531 -5.686)"/><path class="d" d="M552.093,84.684a3.327,3.327,0,1,0-1.58-4.43,3.323,3.323,0,0,0,1.58,4.43" transform="translate(-49.452 -7.042)"/><path class="d" d="M585.047,100.611a3.6,3.6,0,1,0-1.717-4.8,3.607,3.607,0,0,0,1.717,4.8" transform="translate(-52.4 -8.426)"/><path class="d" d="M470.546,1.925a.372.372,0,0,0-.671-.32.381.381,0,0,0,.177.5.369.369,0,0,0,.494-.176" transform="translate(-42.23 -0.125)"/><path class="d" d="M502.912,18.171a.829.829,0,1,0-.4-1.108.829.829,0,0,0,.4,1.108" transform="translate(-45.16 -1.491)"/><path class="d" d="M535.762,34.245a1.295,1.295,0,1,0-.61-1.722,1.294,1.294,0,0,0,.61,1.722" transform="translate(-48.089 -2.857)"/><path class="d" d="M568.672,50.244a1.665,1.665,0,1,0-.791-2.215,1.665,1.665,0,0,0,.791,2.215" transform="translate(-51.027 -4.231)"/><path class="d" d="M552.225.134a.094.094,0,0,0-.045-.122.088.088,0,0,0-.123.04.088.088,0,0,0,.045.126.086.086,0,0,0,.122-.044" transform="translate(-49.619 0)"/><path class="d" d="M585.055,16.1a.368.368,0,1,0-.177-.488.368.368,0,0,0,.177.488" transform="translate(-52.567 -1.384)"/></g></g></svg>