<svg xmlns="http://www.w3.org/2000/svg" xmlns:xlink="http://www.w3.org/1999/xlink" width="842" height="277" viewBox="0 0 842 277"><defs><style>.a,.b,.f{fill:#fff;}.b{stroke:#000;stroke-width:10px;}.c{clip-path:url(#a);}.d{opacity:0.897;}.e,.h{fill:none;}.e{stroke:#fff;}.g,.i{stroke:none;}.i{fill:#707070;}</style><clipPath id="a"><rect class="a" width="842" height="277" transform="translate(1078 222)"/></clipPath></defs><g transform="translate(-1078 -222)"><g class="b" transform="translate(1078 222)"><rect class="g" width="798" height="277"/><rect class="h" x="5" y="5" width="788" height="267"/></g><g class="c"><path d="M-2.146,125.713,120.015,232.64v991.048L63.2,1336.077-799.347,401.915h797.2Z" transform="translate(1877.347 96.043)"/><g class="d"><g transform="translate(22 -10)"><g transform="translate(1332.143 556.047)"><circle class="a" cx="2.5" cy="2.5" r="2.5" transform="translate(197.857 -0.047)"/><circle class="a" cx="2.5" cy="2.5" r="2.5" transform="translate(247.857 -0.047)"/><circle class="a" cx="2.5" cy="2.5" r="2.5" transform="translate(296.857 -0.047)"/><circle class="a" cx="2.5" cy="2.5" r="2.5" transform="translate(346.857 -0.047)"/><circle class="a" cx="2.5" cy="2.5" r="2.5" transform="translate(395.857 -0.047)"/><circle class="a" cx="2.5" cy="2.5" r="2.5" transform="translate(445.857 -0.047)"/><circle class="a" cx="2.5" cy="2.5" r="2.5" transform="translate(494.857 -0.047)"/><circle class="a" cx="2.5" cy="2.5" r="2.5" transform="translate(544.857 -0.047)"/></g><g transform="translate(1332.143 744.047)"><circle class="a" cx="2.5" cy="2.5" r="2.5" transform="translate(197.857 -0.047)"/><circle class="a" cx="2.5" cy="2.5" r="2.5" transform="translate(247.857 -0.047)"/><circle class="a" cx="2.5" cy="2.5" r="2.5" transform="translate(296.857 -0.047)"/><circle class="a" cx="2.5" cy="2.5" r="2.5" transform="translate(346.857 -0.047)"/><circle class="a" cx="2.5" cy="2.5" r="2.5" transform="translate(395.857 -0.047)"/><circle class="a" cx="2.5" cy="2.5" r="2.5" transform="translate(445.857 -0.047)"/><circle class="a" cx="2.5" cy="2.5" r="2.5" transform="translate(494.857 -0.047)"/><circle class="a" cx="2.5" cy="2.5" r="2.5" transform="translate(544.857 -0.047)"/></g><g transform="translate(1332.143 697.047)"><circle class="a" cx="2.5" cy="2.5" r="2.5" transform="translate(197.857 -0.047)"/><circle class="a" cx="2.5" cy="2.5" r="2.5" transform="translate(247.857 -0.047)"/><circle class="a" cx="2.5" cy="2.5" r="2.5" transform="translate(296.857 -0.047)"/><circle class="a" cx="2.5" cy="2.5" r="2.5" transform="translate(346.857 -0.047)"/><circle class="a" cx="2.5" cy="2.5" r="2.5" transform="translate(395.857 -0.047)"/><circle class="a" cx="2.5" cy="2.5" r="2.5" transform="translate(445.857 -0.047)"/><circle class="a" cx="2.5" cy="2.5" r="2.5" transform="translate(494.857 -0.047)"/><circle class="a" cx="2.5" cy="2.5" r="2.5" transform="translate(544.857 -0.047)"/></g><g transform="translate(1332.143 650.047)"><circle class="a" cx="2.5" cy="2.5" r="2.5" transform="translate(197.857 -0.047)"/><circle class="a" cx="2.5" cy="2.5" r="2.5" transform="translate(247.857 -0.047)"/><circle class="a" cx="2.5" cy="2.5" r="2.5" transform="translate(296.857 -0.047)"/><circle class="a" cx="2.5" cy="2.5" r="2.5" transform="translate(346.857 -0.047)"/><circle class="a" cx="2.5" cy="2.5" r="2.5" transform="translate(395.857 -0.047)"/><circle class="a" cx="2.5" cy="2.5" r="2.5" transform="translate(445.857 -0.047)"/><circle class="a" cx="2.5" cy="2.5" r="2.5" transform="translate(494.857 -0.047)"/><circle class="a" cx="2.5" cy="2.5" r="2.5" transform="translate(544.857 -0.047)"/></g><g transform="translate(1332.143 603.047)"><circle class="a" cx="2.5" cy="2.5" r="2.5" transform="translate(197.857 -0.047)"/><circle class="a" cx="2.5" cy="2.5" r="2.5" transform="translate(247.857 -0.047)"/><circle class="a" cx="2.5" cy="2.5" r="2.5" transform="translate(296.857 -0.047)"/><circle class="a" cx="2.5" cy="2.5" r="2.5" transform="translate(346.857 -0.047)"/><circle class="a" cx="2.5" cy="2.5" r="2.5" transform="translate(395.857 -0.047)"/><circle class="a" cx="2.5" cy="2.5" r="2.5" transform="translate(445.857 -0.047)"/><circle class="a" cx="2.5" cy="2.5" r="2.5" transform="translate(494.857 -0.047)"/><circle class="a" cx="2.5" cy="2.5" r="2.5" transform="translate(544.857 -0.047)"/></g></g><g class="e" transform="translate(1275 616)"><rect class="g" width="453" height="56"/><rect class="h" x="0.5" y="0.5" width="452" height="55"/></g><g class="f" transform="matrix(0.799, 0.602, -0.602, 0.799, 1239.309, 577.1)"><path class="g" d="M 16.2109489440918 17.5 L 0.7890505790710449 17.5 L 8.5 1.170930624008179 L 16.2109489440918 17.5 Z"/><path class="i" d="M 8.5 2.341892242431641 L 1.578115463256836 17 L 15.42188453674316 17 L 8.5 2.341892242431641 M 8.5 0 L 17 18 L 0 18 L 8.5 0 Z"/></g></g></g></g></svg>