<svg xmlns="http://www.w3.org/2000/svg" xmlns:xlink="http://www.w3.org/1999/xlink" width="44" height="44" viewBox="0 0 44 44"><defs><style>.a{fill:#fff;}.b{clip-path:url(#a);}</style><clipPath id="a"><rect class="a" width="44" height="44"/></clipPath></defs><g class="b"><path class="a" d="M22,3.964c5.874,0,6.57.022,8.89.128a12.173,12.173,0,0,1,4.085.758A6.817,6.817,0,0,1,37.505,6.5a6.819,6.819,0,0,1,1.646,2.53,12.173,12.173,0,0,1,.758,4.085c.106,2.32.128,3.016.128,8.89s-.022,6.57-.128,8.89a12.173,12.173,0,0,1-.758,4.085,7.286,7.286,0,0,1-4.175,4.175,12.173,12.173,0,0,1-4.085.757c-2.319.106-3.015.128-8.89.128s-6.57-.022-8.89-.128a12.175,12.175,0,0,1-4.085-.757A6.817,6.817,0,0,1,6.5,37.5a6.818,6.818,0,0,1-1.646-2.53,12.175,12.175,0,0,1-.758-4.085c-.106-2.32-.128-3.016-.128-8.89s.022-6.57.128-8.89a12.175,12.175,0,0,1,.758-4.085A6.817,6.817,0,0,1,6.5,6.5,6.817,6.817,0,0,1,9.026,4.85a12.174,12.174,0,0,1,4.085-.758c2.32-.106,3.016-.128,8.89-.128M22,0c-5.975,0-6.724.025-9.071.132A16.147,16.147,0,0,0,7.59,1.155a10.784,10.784,0,0,0-3.9,2.537,10.784,10.784,0,0,0-2.538,3.9,16.148,16.148,0,0,0-1.023,5.34C.026,15.276,0,16.025,0,22s.025,6.724.132,9.071a16.148,16.148,0,0,0,1.023,5.34,10.784,10.784,0,0,0,2.538,3.9,10.785,10.785,0,0,0,3.9,2.538,16.151,16.151,0,0,0,5.34,1.023c2.346.107,3.1.132,9.071.132s6.724-.025,9.07-.132a16.151,16.151,0,0,0,5.34-1.023,11.25,11.25,0,0,0,6.434-6.434,16.145,16.145,0,0,0,1.023-5.34c.107-2.347.132-3.1.132-9.071s-.025-6.724-.132-9.071a16.146,16.146,0,0,0-1.023-5.34,10.787,10.787,0,0,0-2.538-3.9,10.784,10.784,0,0,0-3.9-2.537A16.147,16.147,0,0,0,31.071.132C28.725.025,27.976,0,22,0" transform="translate(-0.001 0)"/><path class="a" d="M133.852,122.556a11.3,11.3,0,1,0,11.3,11.3,11.3,11.3,0,0,0-11.3-11.3m0,18.631a7.333,7.333,0,1,1,7.333-7.333,7.333,7.333,0,0,1-7.333,7.333" transform="translate(-111.852 -111.853)"/><path class="a" d="M361.446,89.855a2.64,2.64,0,1,1-2.64-2.64,2.64,2.64,0,0,1,2.64,2.64" transform="translate(-325.062 -79.599)"/></g></svg>