<svg xmlns="http://www.w3.org/2000/svg" xmlns:xlink="http://www.w3.org/1999/xlink" width="502.688" height="273.867" viewBox="0 0 502.688 273.867"><defs><style>.a{fill:#ffef41;}.b{clip-path:url(#a);}</style><clipPath id="a"><rect class="a" width="502.688" height="273.867"/></clipPath></defs><g class="b"><path class="a" d="M.633,307.268A1.105,1.105,0,1,0,.106,305.8a1.112,1.112,0,0,0,.527,1.468" transform="translate(0 -49.893)"/><path class="a" d="M32.882,323.935a2.465,2.465,0,1,0-1.171-3.286,2.464,2.464,0,0,0,1.171,3.286" transform="translate(-5.146 -52.194)"/><path class="a" d="M16.443,274.048a.936.936,0,0,0,.8-1.691.936.936,0,0,0-.8,1.691" transform="translate(-2.601 -44.515)"/><path class="a" d="M48.64,290.773a2.38,2.38,0,1,0-1.127-3.171,2.38,2.38,0,0,0,1.127,3.171" transform="translate(-7.73 -46.799)"/><path class="a" d="M80.735,307.616a3.994,3.994,0,1,0-1.9-5.321,3.988,3.988,0,0,0,1.9,5.321" transform="translate(-12.826 -49.051)"/><path class="a" d="M112.773,324.521a5.694,5.694,0,1,0-2.707-7.582,5.694,5.694,0,0,0,2.707,7.582" transform="translate(-17.906 -51.285)"/><path class="a" d="M32.2,240.89a.852.852,0,0,0,1.129-.4.84.84,0,0,0-.4-1.128.848.848,0,1,0-.725,1.533" transform="translate(-5.184 -39.12)"/><path class="a" d="M64.5,257.495a2.127,2.127,0,1,0-1.005-2.831,2.134,2.134,0,0,0,1.005,2.831" transform="translate(-10.347 -41.437)"/><path class="a" d="M96.592,274.336a3.741,3.741,0,1,0-1.771-4.98,3.742,3.742,0,0,0,1.771,4.98" transform="translate(-15.443 -43.689)"/><path class="a" d="M128.687,291.179a5.351,5.351,0,1,0-2.542-7.125,5.342,5.342,0,0,0,2.542,7.125" transform="translate(-20.539 -45.941)"/><path class="a" d="M160.616,308.211a7.224,7.224,0,1,0-3.425-9.622,7.233,7.233,0,0,0,3.425,9.622" transform="translate(-25.586 -48.143)"/><path class="a" d="M190.888,324.211H202a9.086,9.086,0,1,0-11.114,0" transform="translate(-30.632 -50.344)"/><path class="a" d="M238.646,326.429a10.846,10.846,0,0,0-18.194,0Z" transform="translate(-36.043 -52.563)"/><path class="a" d="M541.07,324.522h29.886a14.945,14.945,0,0,0-29.886,0" transform="translate(-88.462 -50.655)"/><path class="a" d="M597.055,327.123a14.751,14.751,0,0,0-12.492,0Z" transform="translate(-95.573 -53.256)"/><path class="a" d="M407.788,324.861a16.04,16.04,0,0,0-31.486,0Z" transform="translate(-61.524 -50.994)"/><path class="a" d="M420.511,319.488h30.208c.259-.239.522-.471.766-.729-.037.243-.048.487-.075.729h32.77a16.465,16.465,0,0,0-7.579-12.237,14.448,14.448,0,1,0-3.6-1.707,16.494,16.494,0,0,0-17.4,4.527,15.634,15.634,0,1,0-27.305,8.214,17.6,17.6,0,0,0-7.79,1.2" transform="translate(-68.752 -45.621)"/><path class="a" d="M511.64,320.1a17.017,17.017,0,0,0-11.421,1.868h28.856A14.86,14.86,0,1,0,511.64,320.1" transform="translate(-81.783 -48.105)"/><path class="a" d="M48.007,207.666a.68.68,0,1,0-.325-.905.684.684,0,0,0,.325.905" transform="translate(-7.785 -33.741)"/><path class="a" d="M80.31,224.271a1.955,1.955,0,1,0-.926-2.6,1.957,1.957,0,0,0,.926,2.6" transform="translate(-12.948 -36.059)"/><path class="a" d="M112.559,240.935a3.314,3.314,0,1,0-1.573-4.416,3.314,3.314,0,0,0,1.573,4.416" transform="translate(-18.094 -38.36)"/><path class="a" d="M144.655,257.782a4.928,4.928,0,1,0-2.339-6.567,4.924,4.924,0,0,0,2.339,6.567" transform="translate(-23.19 -40.612)"/><path class="a" d="M176.64,274.749a6.714,6.714,0,1,0-3.187-8.944,6.723,6.723,0,0,0,3.187,8.944" transform="translate(-28.252 -42.83)"/><path class="a" d="M208.63,291.712a8.5,8.5,0,1,0-4.042-11.32,8.5,8.5,0,0,0,4.042,11.32" transform="translate(-33.315 -45.048)"/><path class="a" d="M235.726,294.977a10.284,10.284,0,1,0,13.7-4.883,10.284,10.284,0,0,0-13.7,4.883" transform="translate(-38.378 -47.266)"/><path class="a" d="M286.312,323.335a12.15,12.15,0,1,0-17.114,0Z" transform="translate(-43.425 -49.469)"/><path class="a" d="M323.9,325.537a14.012,14.012,0,0,0-25.93-1.489,14.36,14.36,0,0,0-.6,1.489Z" transform="translate(-48.619 -51.67)"/><path class="a" d="M63.918,174.325a.345.345,0,0,0,.456-.159.341.341,0,0,0-.617-.291.334.334,0,0,0,.161.45" transform="translate(-10.418 -28.396)"/><path class="a" d="M96.275,190.874a1.531,1.531,0,1,0-.722-2.042,1.533,1.533,0,0,0,.722,2.042" transform="translate(-15.598 -30.731)"/><path class="a" d="M128.527,207.534a2.888,2.888,0,1,0-1.372-3.85,2.888,2.888,0,0,0,1.372,3.85" transform="translate(-20.744 -33.032)"/><path class="a" d="M160.671,224.321a4.418,4.418,0,1,0-2.1-5.892,4.428,4.428,0,0,0,2.1,5.892" transform="translate(-25.856 -35.3)"/><path class="a" d="M192.767,241.167a6.032,6.032,0,1,0-2.867-8.039,6.038,6.038,0,0,0,2.867,8.039" transform="translate(-30.952 -37.551)"/><path class="a" d="M224.806,258.07a7.735,7.735,0,1,0-3.672-10.3,7.733,7.733,0,0,0,3.672,10.3" transform="translate(-36.032 -39.786)"/><path class="a" d="M264.951,257.84a9.518,9.518,0,1,0,4.516,12.671,9.509,9.509,0,0,0-4.516-12.671" transform="translate(-41.095 -42.005)"/><path class="a" d="M283.506,277a11.218,11.218,0,1,0,14.937-5.327A11.222,11.222,0,0,0,283.506,277" transform="translate(-46.175 -44.24)"/><path class="a" d="M314.736,291.641a12.916,12.916,0,1,0,17.208-6.134,12.917,12.917,0,0,0-17.208,6.134" transform="translate(-51.253 -46.475)"/><path class="a" d="M369.694,322.593a14.531,14.531,0,1,0-21,0Z" transform="translate(-56.35 -48.726)"/><path class="a" d="M112.243,157.469A1.106,1.106,0,1,0,111.72,156a1.113,1.113,0,0,0,.523,1.471" transform="translate(-18.248 -25.401)"/><path class="a" d="M144.545,174.073a2.38,2.38,0,1,0-1.131-3.169,2.381,2.381,0,0,0,1.131,3.169" transform="translate(-23.41 -27.72)"/><path class="a" d="M176.8,190.738a3.738,3.738,0,1,0-1.78-4.984,3.74,3.74,0,0,0,1.78,4.984" transform="translate(-28.556 -30.021)"/><path class="a" d="M208.945,207.524a5.268,5.268,0,1,0-2.5-7.017,5.268,5.268,0,0,0,2.5,7.017" transform="translate(-33.669 -32.289)"/><path class="a" d="M241.04,224.37a6.884,6.884,0,1,0-3.269-9.171,6.885,6.885,0,0,0,3.269,9.171" transform="translate(-38.765 -34.541)"/><path class="a" d="M273.132,241.212a8.5,8.5,0,1,0-4.036-11.32,8.486,8.486,0,0,0,4.036,11.32" transform="translate(-43.861 -36.792)"/><path class="a" d="M313.873,239.881a10.026,10.026,0,1,0,4.761,13.36,10.021,10.021,0,0,0-4.761-13.36" transform="translate(-48.975 -39.061)"/><path class="a" d="M331.84,259.331a11.642,11.642,0,1,0,15.506-5.522,11.649,11.649,0,0,0-15.506,5.522" transform="translate(-54.07 -41.312)"/><path class="a" d="M363.351,274.138a13.086,13.086,0,1,0,17.434-6.216,13.084,13.084,0,0,0-17.434,6.216" transform="translate(-59.199 -43.597)"/><path class="a" d="M394.957,288.988a14.447,14.447,0,1,0,19.244-6.857,14.448,14.448,0,0,0-19.244,6.857" transform="translate(-64.345 -45.898)"/><path class="a" d="M128.318,123.946a.507.507,0,1,0,.437-.915.507.507,0,1,0-.437.915" transform="translate(-20.931 -20.106)"/><path class="a" d="M160.674,140.493a1.7,1.7,0,1,0-.807-2.266,1.7,1.7,0,0,0,.807,2.266" transform="translate(-26.111 -22.441)"/><path class="a" d="M192.925,157.158a3.061,3.061,0,1,0-1.447-4.075,3.062,3.062,0,0,0,1.447,4.075" transform="translate(-31.257 -24.742)"/><path class="a" d="M225.179,173.819a4.417,4.417,0,1,0-2.1-5.888,4.415,4.415,0,0,0,2.1,5.888" transform="translate(-36.402 -27.044)"/><path class="a" d="M257.327,190.606a5.949,5.949,0,1,0-2.833-7.924,5.944,5.944,0,0,0,2.833,7.924" transform="translate(-41.515 -29.311)"/><path class="a" d="M289.576,207.272a7.307,7.307,0,1,0-3.469-9.734,7.306,7.306,0,0,0,3.469,9.734" transform="translate(-46.661 -31.614)"/><path class="a" d="M321.722,224.059a8.84,8.84,0,1,0-4.2-11.776,8.838,8.838,0,0,0,4.2,11.776" transform="translate(-51.773 -33.881)"/><path class="a" d="M362.735,222.2a10.282,10.282,0,1,0,4.881,13.694,10.279,10.279,0,0,0-4.881-13.694" transform="translate(-56.903 -36.166)"/><path class="a" d="M396.131,236.5a11.559,11.559,0,1,0,5.483,15.4,11.556,11.556,0,0,0-5.483-15.4" transform="translate(-62.065 -38.484)"/><path class="a" d="M412.527,256.948a12.747,12.747,0,1,0,16.981-6.051,12.749,12.749,0,0,0-16.981,6.051" transform="translate(-67.245 -40.819)"/><path class="a" d="M444.6,272.067a13.682,13.682,0,1,0,18.227-6.5,13.681,13.681,0,0,0-18.227,6.5" transform="translate(-72.474 -43.203)"/><path class="a" d="M144.4,90.508a.086.086,0,1,0-.156-.069.082.082,0,0,0,.043.107.088.088,0,0,0,.114-.038" transform="translate(-23.582 -14.778)"/><path class="a" d="M176.747,106.972a1.1,1.1,0,1,0-.524-1.471,1.106,1.106,0,0,0,.524,1.471" transform="translate(-28.794 -17.146)"/><path class="a" d="M209.105,123.518a2.3,2.3,0,1,0-1.087-3.06,2.3,2.3,0,0,0,1.087,3.06" transform="translate(-33.974 -19.48)"/><path class="a" d="M241.409,140.117a3.567,3.567,0,1,0-1.7-4.748,3.57,3.57,0,0,0,1.7,4.748" transform="translate(-39.136 -21.798)"/><path class="a" d="M273.72,156.721a4.843,4.843,0,1,0-2.305-6.451,4.842,4.842,0,0,0,2.305,6.451" transform="translate(-44.298 -24.115)"/><path class="a" d="M306.021,173.326a6.115,6.115,0,1,0-2.908-8.148,6.118,6.118,0,0,0,2.908,8.148" transform="translate(-49.461 -26.434)"/><path class="a" d="M338.271,189.99a7.476,7.476,0,1,0-3.552-9.958,7.475,7.475,0,0,0,3.552,9.958" transform="translate(-54.607 -28.736)"/><path class="a" d="M370.575,206.6a8.753,8.753,0,1,0-4.152-11.658,8.749,8.749,0,0,0,4.152,11.658" transform="translate(-59.77 -31.053)"/><path class="a" d="M402.93,223.141a9.942,9.942,0,1,0-4.72-13.248,9.943,9.943,0,0,0,4.72,13.248" transform="translate(-64.948 -33.388)"/><path class="a" d="M444.772,219.851a10.877,10.877,0,1,0,5.164,14.487,10.874,10.874,0,0,0-5.164-14.487" transform="translate(-70.177 -35.772)"/><path class="a" d="M462.454,240.185a11.727,11.727,0,1,0,15.619-5.566,11.723,11.723,0,0,0-15.619,5.566" transform="translate(-75.423 -38.174)"/><path class="a" d="M494.8,255.467a12.406,12.406,0,1,0,16.529-5.891,12.407,12.407,0,0,0-16.529,5.891" transform="translate(-80.701 -40.608)"/><path class="a" d="M527.437,270.9a12.832,12.832,0,1,0,17.092-6.1,12.836,12.836,0,0,0-17.092,6.1" transform="translate(-86.03 -43.092)"/><path class="a" d="M560.444,286.552a12.917,12.917,0,1,0,17.2-6.138,12.916,12.916,0,0,0-17.2,6.138" transform="translate(-91.425 -45.642)"/><path class="a" d="M599.559,319.483v-22.79a12.728,12.728,0,0,0,0,22.79" transform="translate(-96.871 -48.508)"/><path class="a" d="M192.873,73.388a.424.424,0,1,0,.365-.765.424.424,0,0,0-.365.765" transform="translate(-31.494 -11.867)"/><path class="a" d="M225.395,89.756a1.359,1.359,0,1,0-.655-1.813,1.358,1.358,0,0,0,.655,1.813" transform="translate(-36.723 -14.251)"/><path class="a" d="M257.748,106.3a2.552,2.552,0,1,0-1.215-3.4,2.56,2.56,0,0,0,1.215,3.4" transform="translate(-41.902 -16.585)"/><path class="a" d="M290.1,122.843a3.739,3.739,0,1,0-1.776-4.979,3.731,3.731,0,0,0,1.776,4.979" transform="translate(-47.081 -18.92)"/><path class="a" d="M322.462,139.386a4.929,4.929,0,1,0-2.338-6.564,4.932,4.932,0,0,0,2.338,6.564" transform="translate(-52.261 -21.255)"/><path class="a" d="M354.819,155.928a6.118,6.118,0,1,0-2.9-8.15,6.121,6.121,0,0,0,2.9,8.15" transform="translate(-57.44 -23.589)"/><path class="a" d="M387.232,172.415a7.222,7.222,0,1,0-3.433-9.621,7.212,7.212,0,0,0,3.433,9.621" transform="translate(-62.635 -25.941)"/><path class="a" d="M419.645,188.9a8.329,8.329,0,1,0-3.956-11.1,8.329,8.329,0,0,0,3.956,11.1" transform="translate(-67.831 -28.292)"/><path class="a" d="M452.214,205.2a9.176,9.176,0,1,0-4.364-12.222,9.173,9.173,0,0,0,4.364,12.222" transform="translate(-73.077 -30.693)"/><path class="a" d="M493.36,203.478a9.943,9.943,0,1,0,4.721,13.251,9.949,9.949,0,0,0-4.721-13.251" transform="translate(-78.339 -33.111)"/><path class="a" d="M526.578,218.622a10.453,10.453,0,1,0,4.965,13.924,10.456,10.456,0,0,0-4.965-13.924" transform="translate(-83.651 -35.579)"/><path class="a" d="M559.758,233.95a10.792,10.792,0,1,0,5.12,14.375,10.8,10.8,0,0,0-5.12-14.375" transform="translate(-88.996 -38.079)"/><path class="a" d="M583.553,269.213a10.882,10.882,0,0,0,13.526-3.537V253.092a10.875,10.875,0,1,0-13.526,16.121" transform="translate(-94.391 -40.629)"/><path class="a" d="M241.519,56.173a.681.681,0,1,0-.323-.906.681.681,0,0,0,.323.906" transform="translate(-39.423 -8.972)"/><path class="a" d="M274.035,72.533a1.612,1.612,0,1,0-.764-2.145,1.608,1.608,0,0,0,.764,2.145" transform="translate(-44.652 -11.357)"/><path class="a" d="M306.55,88.9a2.547,2.547,0,1,0-1.212-3.4,2.547,2.547,0,0,0,1.212,3.4" transform="translate(-49.881 -13.741)"/><path class="a" d="M338.962,105.382a3.652,3.652,0,1,0-1.737-4.864,3.649,3.649,0,0,0,1.737,4.864" transform="translate(-55.077 -16.092)"/><path class="a" d="M371.369,121.866a4.759,4.759,0,1,0-2.262-6.337,4.756,4.756,0,0,0,2.262,6.337" transform="translate(-60.272 -18.444)"/><path class="a" d="M403.89,138.233a5.694,5.694,0,1,0-2.708-7.583,5.691,5.691,0,0,0,2.708,7.583" transform="translate(-65.502 -20.828)"/><path class="a" d="M436.352,154.653a6.711,6.711,0,1,0-3.193-8.939,6.712,6.712,0,0,0,3.193,8.939" transform="translate(-70.714 -23.196)"/><path class="a" d="M468.974,170.9a7.48,7.48,0,1,0-3.554-9.966,7.486,7.486,0,0,0,3.554,9.966" transform="translate(-75.976 -25.613)"/><path class="a" d="M501.7,187.024a8.072,8.072,0,1,0-3.836-10.755,8.072,8.072,0,0,0,3.836,10.755" transform="translate(-81.271 -28.065)"/><path class="a" d="M534.538,203.027A8.5,8.5,0,1,0,530.5,191.7a8.5,8.5,0,0,0,4.038,11.323" transform="translate(-86.6 -30.549)"/><path class="a" d="M567.427,218.969a8.837,8.837,0,1,0-4.2-11.773,8.839,8.839,0,0,0,4.2,11.773" transform="translate(-91.945 -33.049)"/><path class="a" d="M600.045,234.628V219.174a8.819,8.819,0,0,0,0,15.454" transform="translate(-97.357 -35.834)"/><path class="a" d="M290.32,38.776a.683.683,0,0,0,.579-1.236.683.683,0,0,0-.579,1.236" transform="translate(-47.402 -6.128)"/><path class="a" d="M322.889,55.078a1.528,1.528,0,1,0-.729-2.039,1.524,1.524,0,0,0,.729,2.039" transform="translate(-52.647 -8.529)"/><path class="a" d="M355.406,71.441a2.465,2.465,0,1,0-1.169-3.285,2.47,2.47,0,0,0,1.169,3.285" transform="translate(-57.877 -10.913)"/><path class="a" d="M387.974,87.745a3.315,3.315,0,1,0-1.572-4.421,3.324,3.324,0,0,0,1.572,4.421" transform="translate(-63.122 -13.314)"/><path class="a" d="M420.544,104.048a4.165,4.165,0,1,0-1.976-5.549,4.159,4.159,0,0,0,1.976,5.549" transform="translate(-68.368 -15.715)"/><path class="a" d="M453.062,120.411a5.1,5.1,0,1,0-2.421-6.79,5.1,5.1,0,0,0,2.421,6.79" transform="translate(-73.597 -18.1)"/><path class="a" d="M485.794,136.536a5.693,5.693,0,1,0-2.708-7.582,5.691,5.691,0,0,0,2.708,7.582" transform="translate(-78.892 -20.551)"/><path class="a" d="M518.518,152.656a6.288,6.288,0,1,0-2.987-8.37,6.288,6.288,0,0,0,2.987,8.37" transform="translate(-84.187 -23.002)"/><path class="a" d="M551.352,168.66a6.712,6.712,0,1,0-3.189-8.941,6.705,6.705,0,0,0,3.189,8.941" transform="translate(-89.516 -25.486)"/><path class="a" d="M584.345,184.481a6.883,6.883,0,1,0-3.266-9.171,6.883,6.883,0,0,0,3.266,9.171" transform="translate(-94.895 -28.019)"/><path class="a" d="M339.223,21.255a.51.51,0,1,0-.238-.679.505.505,0,0,0,.238.679" transform="translate(-55.414 -3.317)"/><path class="a" d="M371.851,37.5a1.271,1.271,0,1,0-.6-1.7,1.28,1.28,0,0,0,.6,1.7" transform="translate(-60.677 -5.734)"/><path class="a" d="M404.473,53.74a2.039,2.039,0,1,0-.968-2.716,2.037,2.037,0,0,0,.968,2.716" transform="translate(-65.938 -8.152)"/><path class="a" d="M437.1,69.986a2.8,2.8,0,1,0-1.331-3.733,2.8,2.8,0,0,0,1.331,3.733" transform="translate(-71.201 -10.569)"/><path class="a" d="M469.716,86.232a3.571,3.571,0,1,0-1.694-4.759,3.571,3.571,0,0,0,1.694,4.759" transform="translate(-76.463 -12.987)"/><path class="a" d="M502.5,102.293a4.079,4.079,0,1,0-1.936-5.435,4.077,4.077,0,0,0,1.936,5.435" transform="translate(-81.775 -15.455)"/><path class="a" d="M535.229,118.415a4.673,4.673,0,1,0-2.218-6.228,4.673,4.673,0,0,0,2.218,6.228" transform="translate(-87.071 -17.906)"/><path class="a" d="M568.168,134.3a4.929,4.929,0,1,0-2.335-6.564,4.927,4.927,0,0,0,2.335,6.564" transform="translate(-92.433 -20.423)"/><path class="a" d="M600.483,149.973v-8.615a5.14,5.14,0,0,0,0,8.615" transform="translate(-97.795 -23.111)"/><path class="a" d="M388.137,3.739a.338.338,0,0,0,.29-.611.333.333,0,0,0-.453.154.34.34,0,0,0,.162.458" transform="translate(-63.426 -0.505)"/><path class="a" d="M420.919,19.8a.849.849,0,0,0,1.131-.4.85.85,0,1,0-1.536-.727.846.846,0,0,0,.4,1.128" transform="translate(-68.739 -2.973)"/><path class="a" d="M453.592,35.984a1.532,1.532,0,1,0-.725-2.039,1.536,1.536,0,0,0,.725,2.039" transform="translate(-74.017 -5.407)"/><path class="a" d="M486.377,52.044a2.039,2.039,0,1,0-.971-2.716,2.036,2.036,0,0,0,.971,2.716" transform="translate(-79.329 -7.874)"/><path class="a" d="M519.154,68.108a2.55,2.55,0,1,0-1.21-3.4,2.543,2.543,0,0,0,1.21,3.4" transform="translate(-84.641 -10.342)"/><path class="a" d="M551.939,84.172a3.058,3.058,0,1,0-1.452-4.071,3.054,3.054,0,0,0,1.452,4.071" transform="translate(-89.953 -12.81)"/><path class="a" d="M584.88,100.056a3.313,3.313,0,1,0-1.578-4.413,3.315,3.315,0,0,0,1.578,4.413" transform="translate(-95.315 -15.327)"/><path class="a" d="M470.49,1.882a.342.342,0,0,0-.616-.294.35.35,0,0,0,.162.456.34.34,0,0,0,.454-.161" transform="translate(-76.817 -0.228)"/><path class="a" d="M502.874,18.043a.762.762,0,1,0-.365-1.018.762.762,0,0,0,.365,1.018" transform="translate(-82.146 -2.712)"/><path class="a" d="M535.7,34.045a1.19,1.19,0,1,0-.561-1.583,1.189,1.189,0,0,0,.561,1.583" transform="translate(-87.474 -5.196)"/><path class="a" d="M568.595,49.988a1.53,1.53,0,1,0-.727-2.036,1.53,1.53,0,0,0,.727,2.036" transform="translate(-92.819 -7.697)"/><path class="a" d="M552.211.123a.086.086,0,0,0-.041-.112.081.081,0,0,0-.113.037.081.081,0,0,0,.042.115.078.078,0,0,0,.112-.04" transform="translate(-90.257 0)"/><path class="a" d="M585.038,16.044a.338.338,0,1,0-.162-.448.338.338,0,0,0,.162.448" transform="translate(-95.619 -2.517)"/></g></svg>