<svg xmlns="http://www.w3.org/2000/svg" xmlns:xlink="http://www.w3.org/1999/xlink" width="44" height="31" viewBox="0 0 44 31"><defs><style>.a{fill:none;}.b{clip-path:url(#a);}.c{fill:#fff;}</style><clipPath id="a"><rect class="a" width="44" height="31" transform="translate(0)"/></clipPath></defs><g class="b"><path class="c" d="M43.081,4.841A5.528,5.528,0,0,0,39.19.925C35.759,0,22,0,22,0S8.241,0,4.81.925A5.528,5.528,0,0,0,.919,4.841C0,8.294,0,15.5,0,15.5s0,7.205.919,10.659a5.529,5.529,0,0,0,3.89,3.916C8.241,31,22,31,22,31s13.759,0,17.191-.925a5.529,5.529,0,0,0,3.89-3.916C44,22.705,44,15.5,44,15.5s0-7.206-.919-10.659M17.5,22.042V8.958L29,15.5Z"/></g></svg>