<svg xmlns="http://www.w3.org/2000/svg" xmlns:xlink="http://www.w3.org/1999/xlink" width="502.688" height="273.867" viewBox="0 0 502.688 273.867"><defs><style>.a{fill:#12faa5;}.b{clip-path:url(#a);}</style><clipPath id="a"><rect class="a" width="502.688" height="273.867"/></clipPath></defs><g class="b"><path class="a" d="M1.58,307.268a1.105,1.105,0,1,1,.527-1.468,1.112,1.112,0,0,1-.527,1.468" transform="translate(500.474 -49.893)"/><path class="a" d="M35,323.935a2.465,2.465,0,1,1,1.171-3.286A2.464,2.464,0,0,1,35,323.935" transform="translate(439.955 -52.194)"/><path class="a" d="M17.243,274.048a.936.936,0,0,1-.8-1.691.936.936,0,0,1,.8,1.691" transform="translate(471.603 -44.515)"/><path class="a" d="M50.684,290.773A2.38,2.38,0,1,1,51.81,287.6a2.38,2.38,0,0,1-1.127,3.171" transform="translate(411.095 -46.799)"/><path class="a" d="M84.153,307.616a3.994,3.994,0,1,1,1.9-5.321,3.988,3.988,0,0,1-1.9,5.321" transform="translate(350.625 -49.051)"/><path class="a" d="M117.652,324.521a5.694,5.694,0,1,1,2.707-7.582,5.694,5.694,0,0,1-2.707,7.582" transform="translate(290.168 -51.285)"/><path class="a" d="M32.923,240.89a.852.852,0,0,1-1.129-.4.84.84,0,0,1,.4-1.128.848.848,0,1,1,.725,1.533" transform="translate(442.751 -39.12)"/><path class="a" d="M66.326,257.495a2.127,2.127,0,1,1,1.005-2.831,2.134,2.134,0,0,1-1.005,2.831" transform="translate(382.211 -41.437)"/><path class="a" d="M99.8,274.336a3.741,3.741,0,1,1,1.771-4.98,3.742,3.742,0,0,1-1.771,4.98" transform="translate(321.736 -43.689)"/><path class="a" d="M133.27,291.179a5.351,5.351,0,1,1,2.542-7.125,5.342,5.342,0,0,1-2.542,7.125" transform="translate(261.269 -45.941)"/><path class="a" d="M166.817,308.211a7.224,7.224,0,1,1,3.425-9.622,7.233,7.233,0,0,1-3.425,9.622" transform="translate(200.84 -48.143)"/><path class="a" d="M202.016,324.211H190.9a9.086,9.086,0,1,1,11.114,0" transform="translate(140.416 -50.344)"/><path class="a" d="M220.452,326.429a10.846,10.846,0,0,1,18.194,0Z" transform="translate(79.632 -52.563)"/><path class="a" d="M570.956,324.522H541.07a14.945,14.945,0,0,1,29.886,0" transform="translate(-520.876 -50.655)"/><path class="a" d="M584.563,327.123a14.751,14.751,0,0,1,12.492,0Z" transform="translate(-583.357 -53.256)"/><path class="a" d="M376.3,324.861a16.04,16.04,0,0,1,31.486,0Z" transform="translate(-219.879 -50.994)"/><path class="a" d="M495.378,319.488H465.17c-.259-.239-.522-.471-.766-.729.037.243.048.487.075.729h-32.77a16.465,16.465,0,0,1,7.579-12.237,14.448,14.448,0,1,1,3.6-1.707,16.494,16.494,0,0,1,17.4,4.527,15.634,15.634,0,1,1,27.305,8.214,17.594,17.594,0,0,1,7.79,1.2" transform="translate(-344.449 -45.621)"/><path class="a" d="M525.1,320.1a17.017,17.017,0,0,1,11.421,1.868H507.667A14.86,14.86,0,1,1,525.1,320.1" transform="translate(-452.272 -48.105)"/><path class="a" d="M48.585,207.666a.68.68,0,1,1,.325-.905.684.684,0,0,1-.325.905" transform="translate(413.88 -33.741)"/><path class="a" d="M81.985,224.271a1.955,1.955,0,1,1,.926-2.6,1.957,1.957,0,0,1-.926,2.6" transform="translate(353.34 -36.059)"/><path class="a" d="M115.407,240.935a3.314,3.314,0,1,1,1.573-4.416,3.314,3.314,0,0,1-1.573,4.416" transform="translate(292.815 -38.36)"/><path class="a" d="M148.878,257.782a4.928,4.928,0,1,1,2.339-6.567,4.924,4.924,0,0,1-2.339,6.567" transform="translate(232.344 -40.612)"/><path class="a" d="M182.4,274.749a6.714,6.714,0,1,1,3.187-8.944,6.723,6.723,0,0,1-3.187,8.944" transform="translate(171.904 -42.83)"/><path class="a" d="M215.907,291.712a8.5,8.5,0,1,1,4.042-11.32,8.5,8.5,0,0,1-4.042,11.32" transform="translate(111.466 -45.048)"/><path class="a" d="M254.312,294.977a10.284,10.284,0,1,1-13.7-4.883,10.284,10.284,0,0,1,13.7,4.883" transform="translate(51.027 -47.266)"/><path class="a" d="M269.2,323.335a12.15,12.15,0,1,1,17.114,0Z" transform="translate(-9.401 -49.469)"/><path class="a" d="M297.372,325.537a14.012,14.012,0,0,1,25.93-1.489,14.36,14.36,0,0,1,.6,1.489Z" transform="translate(-69.966 -51.67)"/><path class="a" d="M64.213,174.325a.345.345,0,0,1-.456-.159.341.341,0,0,1,.617-.291.334.334,0,0,1-.161.45" transform="translate(384.975 -28.396)"/><path class="a" d="M97.59,190.874a1.531,1.531,0,1,1,.722-2.042,1.533,1.533,0,0,1-.722,2.042" transform="translate(324.421 -30.731)"/><path class="a" d="M131,207.534a2.888,2.888,0,1,1,1.372-3.85,2.888,2.888,0,0,1-1.372,3.85" transform="translate(263.899 -33.032)"/><path class="a" d="M164.463,224.321a4.418,4.418,0,1,1,2.1-5.892,4.428,4.428,0,0,1-2.1,5.892" transform="translate(203.409 -35.3)"/><path class="a" d="M197.938,241.167a6.032,6.032,0,1,1,2.867-8.039,6.038,6.038,0,0,1-2.867,8.039" transform="translate(142.936 -37.551)"/><path class="a" d="M231.431,258.07a7.735,7.735,0,1,1,3.672-10.3,7.733,7.733,0,0,1-3.672,10.3" transform="translate(82.482 -39.786)"/><path class="a" d="M256.79,257.84a9.518,9.518,0,1,1-4.516,12.671,9.509,9.509,0,0,1,4.516-12.671" transform="translate(22.041 -42.005)"/><path class="a" d="M303.777,277a11.218,11.218,0,1,1-14.937-5.327A11.222,11.222,0,0,1,303.777,277" transform="translate(-38.421 -44.24)"/><path class="a" d="M338.077,291.641a12.916,12.916,0,1,1-17.208-6.134,12.917,12.917,0,0,1,17.208,6.134" transform="translate(-98.872 -46.475)"/><path class="a" d="M348.693,322.593a14.531,14.531,0,1,1,21,0Z" transform="translate(-159.349 -48.726)"/><path class="a" d="M113.2,157.469a1.106,1.106,0,1,1,.523-1.471,1.113,1.113,0,0,1-.523,1.471" transform="translate(295.497 -25.401)"/><path class="a" d="M146.587,174.073a2.38,2.38,0,1,1,1.131-3.169,2.381,2.381,0,0,1-1.131,3.169" transform="translate(234.965 -27.72)"/><path class="a" d="M180,190.738a3.738,3.738,0,1,1,1.78-4.984,3.74,3.74,0,0,1-1.78,4.984" transform="translate(174.44 -30.021)"/><path class="a" d="M213.46,207.524a5.268,5.268,0,1,1,2.5-7.017,5.268,5.268,0,0,1-2.5,7.017" transform="translate(113.952 -32.289)"/><path class="a" d="M246.937,224.37a6.884,6.884,0,1,1,3.269-9.171,6.885,6.885,0,0,1-3.269,9.171" transform="translate(53.476 -34.541)"/><path class="a" d="M280.411,241.212a8.5,8.5,0,1,1,4.036-11.32,8.486,8.486,0,0,1-4.036,11.32" transform="translate(-6.995 -36.792)"/><path class="a" d="M305.278,239.881a10.026,10.026,0,1,1-4.761,13.36,10.021,10.021,0,0,1,4.761-13.36" transform="translate(-67.489 -39.061)"/><path class="a" d="M352.875,259.331a11.642,11.642,0,1,1-15.506-5.522,11.649,11.649,0,0,1,15.506,5.522" transform="translate(-127.957 -41.312)"/><path class="a" d="M387,274.138a13.086,13.086,0,1,1-17.434-6.216A13.084,13.084,0,0,1,387,274.138" transform="translate(-188.464 -43.597)"/><path class="a" d="M421.063,288.988a14.447,14.447,0,1,1-19.244-6.857,14.448,14.448,0,0,1,19.244,6.857" transform="translate(-248.988 -45.898)"/><path class="a" d="M128.752,123.946a.507.507,0,1,1-.437-.915.507.507,0,1,1,.437.915" transform="translate(266.549 -20.106)"/><path class="a" d="M162.133,140.493a1.7,1.7,0,1,1,.807-2.266,1.7,1.7,0,0,1-.807,2.266" transform="translate(205.991 -22.441)"/><path class="a" d="M195.556,157.158A3.061,3.061,0,1,1,197,153.083a3.062,3.062,0,0,1-1.447,4.075" transform="translate(145.464 -24.742)"/><path class="a" d="M228.959,173.819a4.417,4.417,0,1,1,2.1-5.888,4.415,4.415,0,0,1-2.1,5.888" transform="translate(84.952 -27.044)"/><path class="a" d="M262.414,190.606a5.949,5.949,0,1,1,2.833-7.924,5.944,5.944,0,0,1-2.833,7.924" transform="translate(24.461 -29.311)"/><path class="a" d="M295.839,207.272a7.307,7.307,0,1,1,3.469-9.734,7.306,7.306,0,0,1-3.469,9.734" transform="translate(-36.066 -31.614)"/><path class="a" d="M329.293,224.059a8.84,8.84,0,1,1,4.2-11.776,8.838,8.838,0,0,1-4.2,11.776" transform="translate(-96.554 -33.881)"/><path class="a" d="M353.914,222.2a10.282,10.282,0,1,1-4.881,13.694,10.279,10.279,0,0,1,4.881-13.694" transform="translate(-157.059 -36.166)"/><path class="a" d="M386.218,236.5a11.559,11.559,0,1,1-5.483,15.4,11.556,11.556,0,0,1,5.483-15.4" transform="translate(-217.596 -38.484)"/><path class="a" d="M435.561,256.948A12.747,12.747,0,1,1,418.58,250.9a12.749,12.749,0,0,1,16.981,6.051" transform="translate(-278.156 -40.819)"/><path class="a" d="M469.324,272.067a13.682,13.682,0,1,1-18.227-6.5,13.681,13.681,0,0,1,18.227,6.5" transform="translate(-338.763 -43.203)"/><path class="a" d="M144.242,90.508a.086.086,0,1,1,.156-.069.082.082,0,0,1-.043.107.088.088,0,0,1-.114-.038" transform="translate(237.63 -14.778)"/><path class="a" d="M177.693,106.972a1.1,1.1,0,1,1,.524-1.471,1.106,1.106,0,0,1-.524,1.471" transform="translate(177.041 -17.146)"/><path class="a" d="M211.075,123.518a2.3,2.3,0,1,1,1.087-3.06,2.3,2.3,0,0,1-1.087,3.06" transform="translate(116.481 -19.48)"/><path class="a" d="M244.47,140.117a3.567,3.567,0,1,1,1.7-4.748,3.57,3.57,0,0,1-1.7,4.748" transform="translate(55.944 -21.798)"/><path class="a" d="M277.862,156.721a4.843,4.843,0,1,1,2.305-6.451,4.842,4.842,0,0,1-2.305,6.451" transform="translate(-4.596 -24.115)"/><path class="a" d="M311.262,173.326a6.115,6.115,0,1,1,2.908-8.148,6.118,6.118,0,0,1-2.908,8.148" transform="translate(-65.134 -26.434)"/><path class="a" d="M344.679,189.99a7.476,7.476,0,1,1,3.552-9.958,7.475,7.475,0,0,1-3.552,9.958" transform="translate(-125.656 -28.736)"/><path class="a" d="M378.077,206.6a8.753,8.753,0,1,1,4.152-11.658,8.749,8.749,0,0,1-4.152,11.658" transform="translate(-186.196 -31.053)"/><path class="a" d="M411.458,223.141a9.942,9.942,0,1,1,4.72-13.248,9.943,9.943,0,0,1-4.72,13.248" transform="translate(-246.752 -33.388)"/><path class="a" d="M435.448,219.851a10.877,10.877,0,1,1-5.164,14.487,10.874,10.874,0,0,1,5.164-14.487" transform="translate(-307.356 -35.772)"/><path class="a" d="M483.64,240.185a11.727,11.727,0,1,1-15.619-5.566,11.723,11.723,0,0,1,15.619,5.566" transform="translate(-367.983 -38.174)"/><path class="a" d="M517.222,255.467a12.406,12.406,0,1,1-16.529-5.891,12.407,12.407,0,0,1,16.529,5.891" transform="translate(-428.633 -40.608)"/><path class="a" d="M550.624,270.9a12.832,12.832,0,1,1-17.092-6.1,12.836,12.836,0,0,1,17.092,6.1" transform="translate(-489.342 -43.092)"/><path class="a" d="M583.783,286.552a12.917,12.917,0,1,1-17.2-6.138,12.916,12.916,0,0,1,17.2,6.138" transform="translate(-550.114 -45.642)"/><path class="a" d="M592.5,319.483v-22.79a12.728,12.728,0,0,1,0,22.79" transform="translate(-592.502 -48.508)"/><path class="a" d="M193.242,73.388a.424.424,0,1,1-.365-.765.424.424,0,0,1,.365.765" transform="translate(148.068 -11.867)"/><path class="a" d="M226.549,89.756a1.359,1.359,0,1,1,.655-1.813,1.358,1.358,0,0,1-.655,1.813" transform="translate(87.467 -14.251)"/><path class="a" d="M259.932,106.3a2.552,2.552,0,1,1,1.215-3.4,2.56,2.56,0,0,1-1.215,3.4" transform="translate(26.91 -16.585)"/><path class="a" d="M293.31,122.843a3.739,3.739,0,1,1,1.776-4.979,3.731,3.731,0,0,1-1.776,4.979" transform="translate(-33.645 -18.92)"/><path class="a" d="M326.689,139.386a4.929,4.929,0,1,1,2.338-6.564,4.932,4.932,0,0,1-2.338,6.564" transform="translate(-94.203 -21.255)"/><path class="a" d="M360.07,155.928a6.118,6.118,0,1,1,2.9-8.15,6.121,6.121,0,0,1-2.9,8.15" transform="translate(-154.761 -23.589)"/><path class="a" d="M393.417,172.415a7.222,7.222,0,1,1,3.433-9.621,7.212,7.212,0,0,1-3.433,9.621" transform="translate(-215.326 -25.941)"/><path class="a" d="M426.779,188.9a8.329,8.329,0,1,1,3.956-11.1,8.329,8.329,0,0,1-3.956,11.1" transform="translate(-275.905 -28.292)"/><path class="a" d="M460.077,205.2a9.176,9.176,0,1,1,4.364-12.222,9.173,9.173,0,0,1-4.364,12.222" transform="translate(-336.527 -30.693)"/><path class="a" d="M484.835,203.478a9.943,9.943,0,1,1-4.721,13.251,9.949,9.949,0,0,1,4.721-13.251" transform="translate(-397.169 -33.111)"/><path class="a" d="M517.615,218.622a10.453,10.453,0,1,1-4.965,13.924,10.456,10.456,0,0,1,4.965-13.924" transform="translate(-457.855 -35.579)"/><path class="a" d="M550.5,233.95a10.792,10.792,0,1,1-5.12,14.375,10.8,10.8,0,0,1,5.12-14.375" transform="translate(-518.574 -38.079)"/><path class="a" d="M590.861,269.213a10.882,10.882,0,0,1-13.526-3.537V253.092a10.875,10.875,0,1,1,13.526,16.121" transform="translate(-577.334 -40.629)"/><path class="a" d="M242.1,56.173a.681.681,0,1,1,.323-.906.681.681,0,0,1-.323.906" transform="translate(58.492 -8.972)"/><path class="a" d="M275.416,72.533a1.612,1.612,0,1,1,.764-2.145,1.608,1.608,0,0,1-.764,2.145" transform="translate(-2.112 -11.357)"/><path class="a" d="M308.734,88.9a2.547,2.547,0,1,1,1.212-3.4,2.547,2.547,0,0,1-1.212,3.4" transform="translate(-62.716 -13.741)"/><path class="a" d="M342.092,105.382a3.652,3.652,0,1,1,1.737-4.864,3.649,3.649,0,0,1-1.737,4.864" transform="translate(-123.29 -16.092)"/><path class="a" d="M375.449,121.866a4.759,4.759,0,1,1,2.262-6.337,4.756,4.756,0,0,1-2.262,6.337" transform="translate(-183.859 -18.444)"/><path class="a" d="M408.768,138.233a5.694,5.694,0,1,1,2.708-7.583,5.691,5.691,0,0,1-2.708,7.583" transform="translate(-244.468 -20.828)"/><path class="a" d="M442.1,154.653a6.711,6.711,0,1,1,3.193-8.939,6.712,6.712,0,0,1-3.193,8.939" transform="translate(-305.053 -23.196)"/><path class="a" d="M475.384,170.9a7.48,7.48,0,1,1,3.554-9.966,7.486,7.486,0,0,1-3.554,9.966" transform="translate(-365.695 -25.613)"/><path class="a" d="M508.62,187.024a8.072,8.072,0,1,1,3.836-10.755,8.072,8.072,0,0,1-3.836,10.755" transform="translate(-426.364 -28.065)"/><path class="a" d="M541.818,203.027a8.5,8.5,0,1,1,4.038-11.323,8.5,8.5,0,0,1-4.038,11.323" transform="translate(-487.069 -30.549)"/><path class="a" d="M575,218.969a8.837,8.837,0,1,1,4.2-11.773,8.839,8.839,0,0,1-4.2,11.773" transform="translate(-547.794 -33.049)"/><path class="a" d="M595.476,234.628V219.174a8.819,8.819,0,0,1,0,15.454" transform="translate(-595.476 -35.834)"/><path class="a" d="M290.9,38.776a.683.683,0,0,1-.579-1.236.683.683,0,0,1,.579,1.236" transform="translate(-31.128 -6.128)"/><path class="a" d="M324.2,55.078a1.528,1.528,0,1,1,.729-2.039,1.524,1.524,0,0,1-.729,2.039" transform="translate(-91.75 -8.529)"/><path class="a" d="M357.519,71.441a2.465,2.465,0,1,1,1.169-3.285,2.47,2.47,0,0,1-1.169,3.285" transform="translate(-152.36 -10.913)"/><path class="a" d="M390.82,87.745a3.315,3.315,0,1,1,1.572-4.421,3.324,3.324,0,0,1-1.572,4.421" transform="translate(-212.984 -13.314)"/><path class="a" d="M424.113,104.048a4.165,4.165,0,1,1,1.976-5.549,4.159,4.159,0,0,1-1.976,5.549" transform="translate(-273.602 -15.715)"/><path class="a" d="M457.431,120.411a5.1,5.1,0,1,1,2.421-6.79,5.1,5.1,0,0,1-2.421,6.79" transform="translate(-334.209 -18.1)"/><path class="a" d="M490.668,136.536a5.693,5.693,0,1,1,2.708-7.582,5.691,5.691,0,0,1-2.708,7.582" transform="translate(-394.883 -20.551)"/><path class="a" d="M523.908,152.656a6.288,6.288,0,1,1,2.987-8.37,6.288,6.288,0,0,1-2.987,8.37" transform="translate(-455.552 -23.002)"/><path class="a" d="M557.109,168.66a6.712,6.712,0,1,1,3.189-8.941,6.705,6.705,0,0,1-3.189,8.941" transform="translate(-516.258 -25.486)"/><path class="a" d="M590.251,184.481a6.883,6.883,0,1,1,3.266-9.171,6.883,6.883,0,0,1-3.266,9.171" transform="translate(-577.014 -28.019)"/><path class="a" d="M339.665,21.255a.51.51,0,1,1,.238-.679.505.505,0,0,1-.238.679" transform="translate(-120.787 -3.317)"/><path class="a" d="M372.944,37.5a1.271,1.271,0,1,1,.6-1.7,1.28,1.28,0,0,1-.6,1.7" transform="translate(-181.43 -5.734)"/><path class="a" d="M406.219,53.74a2.039,2.039,0,1,1,.968-2.716,2.037,2.037,0,0,1-.968,2.716" transform="translate(-242.065 -8.152)"/><path class="a" d="M439.5,69.986a2.8,2.8,0,1,1,1.331-3.733,2.8,2.8,0,0,1-1.331,3.733" transform="translate(-302.708 -10.569)"/><path class="a" d="M472.777,86.232a3.571,3.571,0,1,1,1.694-4.759,3.571,3.571,0,0,1-1.694,4.759" transform="translate(-363.342 -12.987)"/><path class="a" d="M505.995,102.293a4.079,4.079,0,1,1,1.936-5.435,4.077,4.077,0,0,1-1.936,5.435" transform="translate(-424.033 -15.455)"/><path class="a" d="M539.237,118.415a4.673,4.673,0,1,1,2.218-6.228,4.673,4.673,0,0,1-2.218,6.228" transform="translate(-484.707 -17.906)"/><path class="a" d="M572.4,134.3a4.929,4.929,0,1,1,2.335-6.564A4.927,4.927,0,0,1,572.4,134.3" transform="translate(-545.446 -20.423)"/><path class="a" d="M598.153,149.973v-8.615a5.14,5.14,0,0,1,0,8.615" transform="translate(-598.153 -23.111)"/><path class="a" d="M388.422,3.739a.338.338,0,0,1-.29-.611.333.333,0,0,1,.453.154.34.34,0,0,1-.162.458" transform="translate(-210.445 -0.505)"/><path class="a" d="M421.644,19.8a.849.849,0,0,1-1.131-.4.85.85,0,1,1,1.536-.727.846.846,0,0,1-.4,1.128" transform="translate(-271.137 -2.973)"/><path class="a" d="M454.908,35.984a1.532,1.532,0,1,1,.725-2.039,1.536,1.536,0,0,1-.725,2.039" transform="translate(-331.795 -5.407)"/><path class="a" d="M488.12,52.044a2.039,2.039,0,1,1,.971-2.716,2.036,2.036,0,0,1-.971,2.716" transform="translate(-392.48 -7.874)"/><path class="a" d="M521.342,68.108a2.55,2.55,0,1,1,1.21-3.4,2.543,2.543,0,0,1-1.21,3.4" transform="translate(-453.168 -10.342)"/><path class="a" d="M554.558,84.172A3.058,3.058,0,1,1,556.01,80.1a3.054,3.054,0,0,1-1.452,4.071" transform="translate(-513.856 -12.81)"/><path class="a" d="M587.72,100.056a3.313,3.313,0,1,1,1.578-4.413,3.315,3.315,0,0,1-1.578,4.413" transform="translate(-574.597 -15.327)"/><path class="a" d="M469.876,1.882a.342.342,0,0,1,.616-.294.35.35,0,0,1-.162.456.34.34,0,0,1-.454-.161" transform="translate(-360.861 -0.228)"/><path class="a" d="M503.528,18.043a.762.762,0,1,1,.365-1.018.762.762,0,0,1-.365,1.018" transform="translate(-421.568 -2.712)"/><path class="a" d="M536.731,34.045a1.19,1.19,0,1,1,.561-1.583,1.189,1.189,0,0,1-.561,1.583" transform="translate(-482.272 -5.196)"/><path class="a" d="M569.9,49.988a1.53,1.53,0,1,1,.727-2.036,1.53,1.53,0,0,1-.727,2.036" transform="translate(-542.992 -7.697)"/><path class="a" d="M552.055.123A.086.086,0,0,1,552.1.011a.081.081,0,0,1,.113.037.081.081,0,0,1-.042.115.078.078,0,0,1-.112-.04" transform="translate(-511.321 0)"/><path class="a" d="M585.33,16.044a.338.338,0,1,1,.162-.448.338.338,0,0,1-.162.448" transform="translate(-572.061 -2.517)"/></g></svg>